<svg version="1.0" xmlns="http://www.w3.org/2000/svg" width="721.3" height="1496" viewBox="0 0 541 1122"><path d="M236 1C159 6 94 29 51 64 25 86 9 113 2 145c-1 8-2 30-2 414 0 385 1 406 2 415 9 47 40 84 93 110 33 17 78 29 126 34 18 2 81 2 99 0 82-10 142-36 181-76 19-19 30-40 36-66l2-9 1-248-1-256c-7-57-61-93-149-101-17-2-59-1-76 1-27 4-54 11-70 19-8 4-17 11-20 16-2 3-2 1-2-85 0-97 0-93 6-101 7-9 18-13 34-13 18 0 29 3 36 10 8 8 8 8 8 67v52h234v-83l-1-92c-7-57-51-102-126-129C362 5 295-3 236 1zm183 595c5 2 8 5 9 11l1 43v39h-2l-48 11c-46 10-52 12-59 17s-7 4-7 51l-1 43c-2 3-11 4-24 4-16 0-29 3-36 9-5 5-5 1-5 94l-1 89c-2 7-16 12-32 14-9 1-11 2-13 4-2 3-3 3-14 3h-12l-2-3c-1-2-3-3-5-3-3 0-3 0-3-4v-5h-4l-5-1 4-11 5-10V642l-3-2c-3-2-3-3-3-9 0-7 0-7 3-8 2-1 3-1 3-6l3-7c6-6 29-10 56-10h17l5 8c7 12 10 14 23 15 12 0 16-1 53-12 49-15 65-18 82-18 9 1 12 1 15 3z"/><path d="M284 721c-2 0-2 1-1 1l17 14c3 7 3 12-1 7-3-2-10-6-16-6-10-2-27 4-33 11l-3 3v27l1 28 25 1c22 0 25 0 29-2 3-1 4-2 4-5l1-37v-33l-4-3c-4-5-15-8-19-6z"/></svg>