<svg xmlns="http://www.w3.org/2000/svg" viewBox="0 0 350 350"><switch><g><path d="M249.3 330a150 150 0 01-4.9-5.8c-2.9-3.6-3.1-4.2-6.7-8.7-3.5-4.5-5.3-6.7-6-7.4-.6-.6-2-2-3.4-4.2l-1.2-2.2c-1.3-2.4-2.8-3.7-4.6-5.5a90 90 0 01-11-13.6l-1-1.8a23 23 0 00-3.6-4.5c-1 3-2.2 5.1-3.2 6.5-1 1.5-2 2.6-2.8 4.7l-1.1 3-1.8 3.8a52 52 0 01-2.2 3.6c-1.5-3-2.3-4.3-2.7-5l-.9-1.4-.7-1.5c-.5-.8-.7-1.2-1.2-1.7-.5-.4-.7-.3-1.2-.8l-.8-1.3c-.5-1-.3-1.1-.7-1.8l-1.1-1.4c-1-1-.9-1-1.1-1.4a4 4 0 01-1.1-1.9c-.3-.9 0-1.1-.4-1.7-.3-.6-.5-.4-1-1-.7-1-.5-1.4-1.2-1.8-.3-.2-.5 0-.8-.3-.7-.4-.8-1.2-1.2-2.3l-1.1-1.9a34 34 0 00-2.5-4c-.3-.3-1-.8-1.4-1.7a9 9 0 01-.3-.7l-.4-1.4c-.2-.8-.8-1.3-2-2.7a34.7 34.7 0 01-2.2-2.9 8 8 0 01-1.4-2.6l-.4-1.3a5.2 5.2 0 00-1-1.3c-1.8 1.2-2.4 2.2-2.6 3l-.7 1.6-.9 1.2c-.7 1-.2.5-2 2.9l-2 2.3c-1.6 2-2 2-3.2 3.5l-1.8 2.6-2.5 2.8-1.4 1.8c-.6 1-.8 1.5-1.5 2.3l-.9.8c-1.1 1.2-1.6 2.3-2.1 3-.8 1.4-1 1.4-3.1 3.7-1.6 1.9-1.4 1.9-4 5.2a143.5 143.5 0 01-3.9 4.7 178.8 178.8 0 01-4 4.6c-2.2 2.4-2.6 2.7-3.5 4-.9 1.2-1 1.7-2 2.9-1 1.3-2 2-2.6 2.7a48 48 0 00-5 5.9 109.2 109.2 0 00-4 5.6 2608 2608 0 00-3-23l-1.8-9.5c-.8-5.2-.7-6.6-1.9-15.6l-.9-7a192.5 192.5 0 00-6 4.5l-7.5 6c-3.3 2.6-3 2.1-5.7 4.1-4.3 3.3-5.3 4.8-9.9 8.6a108.2 108.2 0 01-6.2 4.7c.8-11 1.7-18.6 2.3-23.7.7-4.8 1.2-9.7 1.8-14.6a106.4 106.4 0 001.2-16.8L60 254.2V60h230v184.5l-8-2.4a172.5 172.5 0 00-.6 21.5c.3-.3.7-.7 1-1.3.2-.6.1-.8.5-1.4l.8-1a6.3 6.3 0 01.4-.5 43.2 43.2 0 010 3v.3l.2 2.4.3 4 .1-1.3v-2.4l.3 2.7.1 2.4c0 1.8.3 3 .6 4.7a468.7 468.7 0 012.5 17.8 49.3 49.3 0 00-11-7.7l-.9-.2c-.7-.3-1.2-.8-1.6-1.2-.9-.8-.8-.5-2-1.6-1.4-1.2-1.8-2-2.8-2h-.6c-1.2-.2-1.8-1.1-2.5-1.9-1-1-1.3-.7-2.9-1.8-1.5-1.1-2.2-2-3.3-3.2-1.6-1.8-3.8-3.2-8.2-6.2a103.2 103.2 0 00-4-2.6 200.2 200.2 0 000 10.3l.4 9.2v10.2c0 5.7.3 9.2.4 12.8.3 5.2.4 12.8.1 22.8z" fill="#fff"/><path d="M69.6 210.4V69.6h210.9V210l-210.9.4z"/><path d="M239 299.7l-27-33.4-16-54.2-12.4 30.6-10.7-18.2-50.2 62.7-9.4-56.6L88.1 213l-18.5 9.2v-46.8l9.5-9.7V79.1H271v131.5l5.3 26.6.4 34.4-30.9-24.7-6.6 2.2-.3 50.6z" fill="#2b7e90"/><path d="M221.2 79.1L115 216.1 102.8 232l-18.4.8-15.9-9.6.2-47.2L79 165.7l106.3-86.6h35.8z" fill="#fff"/><path d="M221.2 79.1h3.5L85.2 256.8v-2.3l136-175.4z" fill="#595959"/><path fill="#0f2c32" d="M85.2 256.8v6.2L225.4 79h-.7z"/><path d="M242.7 79.1a11.6 11.6 0 00-2.2 2.8 9.9 9.9 0 00-1.4 4.8l.4-.5.5-.5c.1.6.2 1.4-.3 2-.5.6-1 .4-1.6 1-.7.5-.5 1.3-.9 2.6a9.3 9.3 0 01-1.2 2.8 1.2 1.2 0 001.1-.4s.2 1-.3 1.3l-.7.2c-.6 0-.8-.3-1-.2-.2.2 0 .7-.3 1.6l-.2.6-.6 2.2c-.6 1.7-1 1.6-1.3 2.8-.4 1.2-.3 1.8-.4 3.2-.2 2-.7 3.2-1.1 4.6l-31.3 106 50.3 9.4L260.9 79h-18.2zm-1 3a12.5 12.5 0 01-1 1.8 5.3 5.3 0 011.7-3.5 12.5 12.5 0 01-.7 1.7z" fill="#fff"/><g fill="#0f2c32"><path d="M144.1 79.1l-65 38.3v29.4l14-11.2 63.7-50.5 7.6-6h-20.3zm-65 36.7a79.2 79.2 0 002.4-1.2c4-2 6.2-3.7 6.3-3.6l-5.8 4a124 124 0 01-3 2v-1.3zm3.5-5.9l7.5-4.3c2.4-1.4 4-2.3 4.1-2.2l-2.5 1.9a13 13 0 002.5-1l1.5-.9s-.9.9-2 1.6a9 9 0 01-3.2 1.5c-1.5.5-3.9 1.5-7.9 3.4zm-3.5.8l6-3.9a20.8 20.8 0 01-6 4.9v-1zm18.3-8.7s.3-.7 1-1.2c.9-.6 1.7-.5 2.5-.7a6.3 6.3 0 003.8-2.5s-1.3 1.4-3.5 2c-1 .2-1.4.1-2.2.6a4.3 4.3 0 00-1.6 1.8zm.6 1c-.1-.1.4-1 1.2-1.3l1.2-.1c.8-.3 1-1 1.1-.9.1 0 0 .5-.3.9-.4.3-.8.2-1.4.4-1.2.3-1.7 1-1.8 1zm4.7-2l.7-.8.6-.6.5-.3-.4.7c-.6.7-1.4 1.1-1.4 1zm-6.2 4.4s-.6.4-1 .9l-.3.3c-.7 1-2.7 1-2.7 1s1.3.4 2.5-.3c1-.7 1.6-1.8 1.5-2zm-4.4 3s-.7.3-1.3.9l-.6.8 1.2-.8s.8-.8.7-.9z"/><path d="M130.5 87a980.8 980.8 0 01-7.9 4 72.5 72.5 0 00-9.2 4.9l-6 3.6-3.6 2c0-.2 3.8-3 7.9-5.4 2.7-1.6 5.6-3.1 11.5-6.2 3.2-1.7 5-2.6 7.3-3.6a107.3 107.3 0 015.3-2.1 876.1 876.1 0 01-5.3 2.7zm-13.4 3c.1.2 4.3-2.1 4.6-2.8 0 0 0-.2.3-.5l.3-.3c0-.1-1.8.7-1.7.9h.4c.1.4-4 2.5-3.9 2.7zm6.5-4.2s.6 0 1.5-.4l1.2-.6c.1 0-.1.4-.5.7-.8.7-2.2.4-2.2.3zm-3.4 3.8L123 88l2.7-1.4a58.2 58.2 0 002-1.2c3-1.7 4.4-2.8 4.5-2.7.1.1-.7.8-.8 1-2 1.7-4 2.5-5 3-4 1.8-6.1 3.2-6.2 3.1zm16-9.8c-1 .6-2.2.8-2.3.7l1.4-.9 1-.6h1.1a7 7 0 01-1.2.8zm-.7 1.7c-1.3 0-2.3 1.1-2.3 1.3l1.4-.6 1.7-.5-.8-.2zm2.5-.7l-.6-.1c0-.1.4 0 .7-.2.4-.3.5-.7.6-.7l-.1.5s-.2.5-.6.5zm1-1.4c-.2 0-.4-.1-.3-.2l.1-.2h.7c0 .3-.3.4-.5.4z"/><path d="M137.6 82.1l-2.1 1.8c-.6.5-1.3 1.2-1.2 1.4.2.1 1-.2 1.5-.7l.4-.5c1-1.3 1.5-1.9 1.4-2zM93.3 136a183.5 183.5 0 01-6.2 5.8c-3.4 3.1-2.5 2-4.6 4-1.6 1.5-3 3-3.4 2.7-.2-.1 0-.5 0-.8l2.8-2.2c2.3-1.8 3.8-3 5.8-4.8a437.3 437.3 0 015.6-4.7zM79 150.2a33.8 33.8 0 00.7-.6c.6-.5.7-.7.8-.6l-.7 1a4.5 4.5 0 01-.8.7v-.5zm2.7-2.9s1.6-1 2.7-1.9a83.2 83.2 0 0011.2-9.7 191 191 0 00-13.9 11.6zm15-11l-2.6 1.8a16 16 0 00-3.8 3.6c.1.2 3-1.9 5.2-4 .4-.4 1.4-1.2 1.3-1.3zm-.7-.8a52 52 0 015.6-5.1c4.5-3.8 9.4-7.5 9.6-7.2l-1.4 1.5c-2.5 2.5-4.6 4-4.8 4.2-6.1 4.5-8.8 6.8-9 6.6zm5.7-3c0-.2.5-.5 1.6-1.2l1.4-1-.8 1c-1 .8-2.2 1.2-2.2 1.1zm.2.6c-.1 0-2 1-1.9 1.3h.5c.2-.3.7-.5 1-.8l.4-.5zm8.6-8.1a37 37 0 004.2-3.4c1.3-1.3 2.2-2.3 4-3.5.9-.7 1.4-1 2.3-1.4 3.8-2.2 4.2-3.6 8.7-6.6l3.6-2.4c2.2-1.4 3-2.2 5.9-4.2l3.8-2.8c2-1.5 2.7-2 7.9-6.3l5.7-4.5 4.1-3a136.4 136.4 0 003.5-2.8 178.5 178.5 0 006-5h.7l-1.4 1.4c-4 4.1-4.8 4.7-7.3 7.2-2.6 2.8-4 4.5-4.2 4.4-.1-.1.5-1.2 1.1-2 1-1.3 2-2 2-2.1l-3 2.4-2 1.6c-.6.1-1.1.2-1.8.6l-1 .7c-.5.6-.9 1-1 1.3-.6.7-1 1-2.3 1.8-1.5 1.2-1.3 1.2-3 2.4l-3.6 2.6-3.5 2.6c-4.8 3.7-4.4 5.5-8.5 8.3L127 115c-3 1.8-2.9 1.9-3.6 2.2-1.8.8-2.9.8-4.4 2l-1.4 1a38.1 38.1 0 01-2.5 1.9 185.8 185.8 0 01-4.6 2.9z"/><path d="M156.2 92.8c0-.2-1.8.3-3 1.6a5 5 0 00-1 1.9c-.3.5-.6 1.3-.5 1.4.2 0 .8-1.4 2-2.8 1.4-1.5 2.6-2 2.5-2.1z"/><path d="M157.8 92c.2.2-.7 1.8-2.1 3.2-2 1.8-4.4 2.7-4.6 2.4l3.4-3c2.5-2 3.2-2.7 3.3-2.6zM143 104c-.3-.3 2-3.1 2.4-3 .2.2-.1 1-.5 1.6-.6 1-1.7 1.6-1.9 1.4zm4-3.3c.3-.4.6-.6 2.2-1.7 1.8-1.1 2-1.2 2.2-1 .1 0 0 .6-.3 1a2 2 0 01-1.3.6c-.8.2-1.9.8-3.4 2.8 0-.5.2-1.1.7-1.7zm-7.6 6c1.4-1.3 3.2-3.2 3-3.4-.1-.1-1 .8-3.1 2.1-.7.4-1.3.8-1.8 1.6-.4.5-.7 1.3-.5 1.5.3.2 1.6-1 2.4-1.8zm29.8-27.5a7.5 7.5 0 00-2 1.6.3.3 0 00-.1 0l.1.4c0 .2-.9.3-1.3.4a6.2 6.2 0 00-3 2.1l-.9 1c-.5.5-.6.8-1 1l-1 .3-1.2.8c-.7.5-.8.4-1.2.8l-.7.6c-.4.3-.8.4-.8.6l.4.1-.6.4-.9.7-.7.5c-.4.3-1 .7-1.6 1.4l-.7.8s.3-1 1-1.7l1-1 .7-.7c.2-.1.2-.2.4-.6l.4-.8c.3-.6.8-.4 2-1.3l1.2-.8.7-.5c.5-.1.7.2 1 0 .5 0 .5-.4 1.1-1l1-1a18 18 0 012.2-1.7l.6-.4a19.9 19.9 0 002-1.4l.6-.6h1.3zm-9.7 4.8a33.7 33.7 0 004.7-4l.2-.8h-.4a113.5 113.5 0 00-2 2c-1.5 1.8-2.6 2.7-2.5 2.8zm-2.7 2a132.9 132.9 0 01-8.2 7c.1-.2.3-.7.7-1.1.4-.6.7-.7 1.7-1.5a32.7 32.7 0 003.3-2.9l.6-.7c.1-.2.3-.2 1-.5l.9-.3zm-8.7 7c0 .2-4.7 4.4-12.8 11.5-2.6 2.3-1 1-3.5 3-1.4 1.3-2.4 2.2-2.5 2 0 0 2-2.1 1.8-2.2-.1-.2-3.4 2.5-5.7 4.9l-.6.5s1.5-2.4 3.9-4.4c1.8-1.6 2.5-1.6 5.3-3.8l2.3-2c4.2-3.8 11.6-9.6 11.8-9.5zm-33.6 28.2c.1 0 .8-1.4 2.8-3.5 2-2 4.6-4 6.3-5.2 1.2-.8 1.8-1.2 1.7-1.3a15.1 15.1 0 00-10.8 10z"/></g><g fill="#0f2c32"><path d="M260.9 79.1h9.2l-4.6 110.3-12.3-4.6zM271 92.7c-.3 0-1 8.5-1.6 15.5-.3 5.2-.7 12.1-.5 12.1.1 0 .6-3.7 2.1-21.2a28 28 0 000-6.4zm-1.4 30.4c-.1 0 0 2.1-.4 5.8-.4 4.7-1.1 8-1 8 .1 0 .7-2.3 1-4 .4-1.7.7-3 .8-4.6a15 15 0 00-.4-5.2z"/><path d="M269.6 142.7a26.1 26.1 0 00-1.2-11l.8 5c.3 2.4.4 4.5.4 6z"/></g><path d="M334.7 222.7c.2.3 1.3 1.8 1 3.8-.4 2.2-2.5 3.3-2.9 3.5-.8.4-.7 0-2.8.7-1.2.3-2 .6-3 1.2-.7.4-.8.6-1.5.9-.7.3-1.1.3-2.2.5l-2.8.4a14 14 0 01-3.6.3l.9-.5 1.8-1.1 1.3-.7 1.4-.9-.9.2-2 .3s1-.2 1.9-.7a6.7 6.7 0 001.5-1 8.1 8.1 0 01-4.3 1.1s.8-.1 2.1-.6a16.4 16.4 0 002.2-1l1.9-1a89.7 89.7 0 014.3-2.4c.1 0 .7-.2 1.1-.6.1 0 .4-.3.3-.5l-.3-.1c-.3-.2-.2-.4-.4-.5h-1.1c-.6-.2-1 .1-1 0-.2-.2.5-1.2 1.3-1.2.3 0 .5.2.9 0 .3 0 .7-.2.7-.4s-.5-.2-1-.6c-.2 0-.7-.4-1-.9-.4-.6 0-1-.3-2-.2-.6-.4-1.2-.5-1.1l.1 2c0 .5.1.8 0 .8l-.4-.9c-.3-.7-.3-1-.5-1.8l-.6-1.5c-.5-1.2-.7-1.4-.6-1.5 0 0 1 .9 1.5 2.2l.2 1.2s.2-1.1 0-2.2c-.5-2.3-2.1-3.9-4.7-6.4a27.3 27.3 0 00-1-1l.1.9.8 1.2c1.8 2 2 2.4 2.3 3 .2.6.3 1.2.2 1.3l-.9-1.4-1.4-2c-.8-1.2-1.4-1.8-3.2-4l-3.7-4.5c-.9-1-1.6-2.1-2.5-3 0 0-1-1-1.4-2l-.1-.9a2 2 0 01.1-.5 25.4 25.4 0 003.7 4.1 88.2 88.2 0 00-2.7-3.6c-1.5-1.9-3.4-4-3.5-4-.1 0 1.4 2.2 1.3 2.3l-1.7-2c-.9-1-1-1.5-2.1-2.9l-2-2.5.3 1v.4a5.5 5.5 0 01-1-1.2l-.2-.6a22.5 22.5 0 01-2.7-3 72 72 0 01-4.7-6.7c3.7 4.2 7.9 9 8 8.8.2 0-.5-1-2.2-3.3-5-6.7-12.8-16.4-13.5-17.4 0 0-1.8-2.3-3.4-4.8l-1.3-2-1.1-2.1a22.8 22.8 0 00-1-1.4c0-.2-.2-.4-.3-.5a72.3 72.3 0 011.7 2.2 38 38 0 012 3l1 1.7c.2 0-.3-1.2-.9-2.4a18.3 18.3 0 00-1.1-2l1 1.3 1 1.6s-.5-1.8-2-3.5l-1-1.1a30.6 30.6 0 01-3.3-4.7c-4.5-4.9-6.8-6.6-8-7-.3-.1-2-.7-2.2-1.8l-.1-1a2 2 0 00-.8-1c0 .4 0 1-.3 1-.2.1-.7-.7-1.3-1.5-.2-.4-1.4-1.9-3-2.9-1.4-.9-2-.6-3.7-1.5l-1.7-1-.4-.2c.5 0 1 .2 1.6.4 2.7.9 4.1 2 4.2 1.9 0-.1-1.5-1.5-3.7-2.2a10.7 10.7 0 00-3-.5 12 12 0 00-1-.4 16 16 0 012.7 0l2.8 1.2c3.5 1.9 5.3 4.6 5.4 4.5 0 0-1.9-3.3-5.7-5.3.9.2 1.8.6 2.7 1 3 1.7 4.7 4.2 5 4 0 0-1-2.3-3.2-3.8a11 11 0 00-6.6-2 13 13 0 00-7-.6c0 .1 2.3-.1 5.2.6-.7 0-1.3.2-1.8.3a10.3 10.3 0 00-.4-.1c-1.6-.4-4.2-.2-6.6.7a46.6 46.6 0 00-4.7 1.9c0-.1.5-.5.4-.7 0-.2-1 0-1.8.3a14 14 0 00-3 1.4L186 149c2 30 3.2 52 3.3 54 0 2.2 0 3.2-.2 4.3a7.2 7.2 0 00-.3 1.5 7.8 7.8 0 00.3 2.6l.4-1.8v2.9l-.1.3v1.9c.3 1.9 0 1.7.3 2.4.2.7.4.8.5 1.5.1.8-.1 1.4-.2 1.4v-1.2l-.3-.8-.4-1.2c-.2-.6-.2-.8-.3-2.6l-.2-2.8a827.3 827.3 0 00-.2-1.5 14.3 14.3 0 00-.2 1.7v1.9a34.4 34.4 0 00.6 5c.2.6 1 3.7 1.2 3.6 0 0 0-.8.2-.9l.4.6c.6 1 .7 2.2.4 2.3-.3 0-.7-1-.8-.9-.2.1 0 .7.3 1.7.6 2 .7 2.7.7 3 .1.8.2 1.9 0 1.9-.3 0-1.1-3.4-1.3-3.3l.3 2.2c.2 1 .2 1.6.5 2.4l.4.8.8 1c.2.5 0 .7 0 1.8l-.1 2 .1 2.2c.2 0 .3-.7.5-.7s.2 1.1.4 2.5c.2 1.8.5 2.7.4 2.8-.1 0-1.1-3.2-1.3-3.1a47 47 0 001.4 6.8c.3-.4.6-1 .6-1.7v-.6l.5 2.3c.1.8.4 2.4.4 4.5 0 1.2-.1 1.3-.2 1.4-.2 0-.5-.6-.7-1 0 .8.2 1.4.3 1.9l.4 1.4c0 .2.3 1 .3 1.6.3 1.6.1 2 .3 3.3l.5 2v-3.1c0-.2 0-.8.4-1.5.1-.3.3-.7.5-.7s.2.6.3 1.8v.9s-.3-2-.5-2-.3 1.3-.2 2.4c0 1.2.1 2.2.3 2.9l.4.9-1-1c.1.1.4 2.2 1 3.6l.5 1.4.5.6-.9-.6c-.2-.3-.6-1-.7-2.2a11.8 11.8 0 002.6 9.1c2.3 3.2 4.6 4.8 4.5 5a9 9 0 01-2.8-2.1c-2.7-2.7-3.5-5.5-3.7-5.5-.2.1.1 3.4 2.3 6.3a12 12 0 007 4.2 45.8 45.8 0 0017.1-3.2c3.5-1.3 5.7-2.4 10-4.4a745 745 0 016.1-3 72 72 0 0121.9-7.7c0-.2-4.1.7-4.2.3-.1-.4 4.8-2.6 9.4-4 1.2-.3 2.5-.9 4.4-1.7l3.8-2c2-1.2 2.6-2 4.5-2.9a20.6 20.6 0 012-.8l-4.8 3a41.9 41.9 0 002.7-1c2.4-1.1 4-2.1 4.5-2.4 4.3-2.7 11.5-5.8 17.6-8l3.6-1.2c6.8-2.5 7-3.7 11.4-4.8 1.7-.5 3.4-1.2 5.2-1.6.7-.1 2-.4 2.9-1.5l.6-1.1a9.6 9.6 0 01-.4.3l-2.8 1.1-1.8.6a20 20 0 01-3.6 1 13 13 0 014.8-2.2c.6-.2 1.7-.4 3.2-1l1.2-.5c.9-.5 1-.8 1.8-1.3a9 9 0 012.8-1.3c.8-.2 1-.1 1.8-.4.1 0 .8-.3 1.5-.8.7-.4 2.4-1.5 2.7-3.5.3-2.2-1.3-3.8-1.5-4z"/><path d="M314.5 200.1s0 .9.5 1.4c.4.5.8.3 1.3.9l.6.6s0-.4-.2-.7c-.4-.7-1-.6-1.6-1.3-.4-.4-.5-.9-.6-.9zm5.8 7.2l-.3-1c-.7-1.4-2-2.1-2.1-2-.1 0 .3.7 1.3 1.8l1 1.2zm-7.6-13s0-.4-.2-.7c-.2-.4-.6-.7-.6-.7-.2.1.6 1.5.8 1.5zm15 35.4l-1.6 1-1.2.8c-.1.1-.2.3-.5.4-.3.2-.5.2-.7.2l.6.3c.3 0 .6-.2.8-.4l.4-.5c.7-.9 2-.4 2.9-1.3l.8-1.2.7-.6a5.3 5.3 0 00-1 .4l-1.3 1zm2.6-2l.5-.2.5-.2v-.4c-.2-.2-1.1.7-1 .8zm4.6-6.5c.2-.1-1.6-3.5-4.6-6.7a15.7 15.7 0 00-2.8-2.7c-.1.1 1 1.4 3.4 4.4l4 5zm-54.2 34.2c0 .1 1.2 0 2.4-.5a21 21 0 003.3-2 9.4 9.4 0 001.4-1.1c0-.1.8-.8.7-1 0 0-1.6 1.4-4 2.8-2.2 1.2-3.9 1.7-3.8 1.8zm-86-3.3l.1-.8c0-.8-.2-1.3-.4-1.8-.5-1.3-.3-2.3-.5-2.3-.1 0-.4 1.1-.1 2.2l.5 1.5.3 1.2zm92.7-88.9l.5 1.1-.1-.7c-.4-1.3-1-2.4-1.2-2.4l.8 2zM271 142.5c.1 0 .2-.7 0-1.3a2.3 2.3 0 00-1-1.2c.6 2 .9 2.6 1 2.5zm-80.7 83.3l-.1-1.1-.4-2s-.2 1 0 2l.5 1z"/><path d="M209 266.7c.2.5.4 1 .8 1.4 1 .7 2.6.1 3.3-.2l108-44.1c.8-.2 1.4-.5 1.6-1 .3-1-.9-2.1-1.1-2.3-1.9-1.9-26.4-32.6-61.3-76.6a3.3 3.3 0 00-1-.7 3.4 3.4 0 00-2.9 0l-67 15.6 19.7 108z" fill="#fff"/><g fill="#e5e5e5"><path d="M219.5 202.7a78.9 78.9 0 006 3c.7.5 3.3 1.7 9.4 3.8 5.5 2 9.5 3.2 13.4 5 2.4 1.2 3.6 2 4 2.3l3.3 2.5a41.4 41.4 0 002.9 1.8c.1-.4.4-1 .5-1.8.3-1.2.2-2.2.2-2.4-.2-3.2 2.6-11.8 2.4-11.9a19 19 0 00-2.4 7c-.2 1.5-.4 3.2-.4 4.9l-.1 1.7c0 .9-.2 1.5-.3 2a19.4 19.4 0 01-2.2-1.4c-1.1-.8-1.9-1.5-2-1.7a76.1 76.1 0 00-15.2-7.2c-6.8-2.5-7.6-2.5-11.9-4.3a146 146 0 01-7.6-3.3z"/><path d="M221.3 202.8a131.4 131.4 0 0012.6 5l7.2 2.4a65.4 65.4 0 013.1 1.1c5 2.1 9.3 5 9.3 5a42 42 0 013.7 2.9l.9.7a26.2 26.2 0 00.1-2.5v-3.5c.4-2.9 1.6-5.2 1.7-5.5l.6-1.3-1.1 1.5c-.6 1-1 2.3-1.7 4.8 0 0-.4 1.3-.2 2.2v.1a10 10 0 01.2 3.2 51.9 51.9 0 00-3.3-2.6 44 44 0 00-4.8-3.2 42 42 0 00-4.4-2c-4.6-2-8.4-2.8-12-4a273.2 273.2 0 01-11.9-4.3z"/></g><path d="M274 182.5c-1.7-5.7-11.6-7-12.8-7.1-7.2-1-13.8 2.2-16.4 3.8l-1.5.8a13.3 13.3 0 011.7-5 14 14 0 017.2-5.7A634 634 0 01219 177c3.1 0 8.6.4 14 3.6a25.3 25.3 0 014 3 26.8 26.8 0 00-2.4-.5 26.4 26.4 0 00-8.3 0 21 21 0 00-11.2 4c-1.5 1-4 3-4.2 6.1 0 2.2 1.2 4 1.8 4.7a8 8 0 01-1.2-4.4c.2-2.6 2.1-4.6 4.1-6-1.7 1.3-3 2.9-3.3 4.8a5.3 5.3 0 00.2 2c.3-1.2.9-2.8 2.1-4.5a12 12 0 013.8-3L217 188c-1.2 1.3-3.3 3.6-3 6.4.6 5.2 9 8 17.8 11.1 8.8 3 14.7 3.6 22.7 9.2a47.3 47.3 0 012 1.4c0-.7 0-2 .4-3.7 1.5-6.8 5.6-9.6 10.6-18.3a68.7 68.7 0 002.6-5.1 32.5 32.5 0 01-.8 2.3c-1.2 2.8-2.4 4.4-4.4 7.7a43.5 43.5 0 00-3.8 6.2 20.4 20.4 0 00-1.3 6.7l.2-.6 1-3.4 1.4-2.8c1.5-3 3.4-5.8 5-8.4 0 0 3.3-5.2 4.7-10 .3-1 .3-2 .3-2a7.1 7.1 0 000-.8c0-.6 0-1.2-.2-1.7-1.5-4.3-8.5-5.4-11-5.8-4.3-.6-8.2 0-11.4.9a29.9 29.9 0 017-1.4 25.7 25.7 0 018 .6c3.7 1 5.3 2.3 5.7 2.6a9 9 0 012.8 4c.4 1.7 0 3-.7 5.2-1 3.2-2.4 5.6-3.9 7.9l-2.5 3.8-2.3 3.6a34.4 34.4 0 00-3.8 10.2 46.4 46.4 0 013.4-8.1c.7-1.4 1.1-2 5-8.2a39 39 0 004.9-8.7c.7-2.5 1.3-4.4.7-6.4zM255.6 119.3c0-.7-.3-1.8-1.2-3 .3.7.8 2 .7 3.6a7.9 7.9 0 01-1.3 3.9c-1.6 2.7-4.2 4-4.4 3.8l1-1.3c.4-.6.8-1 1-1.7a7.2 7.2 0 00.6-2c-.6.7-.8.8-.9.7 0 0 .4-.5.7-1.5l.5-1.6.2 1.1c-.1.6-.3.8-.2.9.1 0 .6-.2.8-.6l.1-.9V119l-.3.2c-.1 0-.2-.4-.2-1.2l.3.4.2.2v-.4c0-.6-.2-.8-.1-1l.5.1c.8.5.4 2.4.6 2.5.1 0 .4-.7.4-1.5 0 0-.1-1-1-1.8l-.9-.6-1-.8-1-.8-1.1-.6-1.3-.6h-1c0 .2 1 .6 2.4 1.5 1.2.7 2.4 1.6 2.3 1.8l-3.2-1.7c-1-.6-1.4-1-1.8-1.4-.3-.4-.4-.7-.8-.8-.6-.2-.9.2-1.6 0l-1-.6-1-.5-1.2-.1a3 3 0 00-1.4.1l-.4.3c0 .2.8 0 2 .3a6.5 6.5 0 011.5.3l.8.4c1.1.6 1.7.7 1.6.8 0 0-1 0-2.1-.4l-.8-.3a8 8 0 00-2.7-.5c-1.7-.2-2.1-.3-2.1-.5 0-.3.8-.5.7-.8 0-.2-1.4-.1-2.6 0-1 0-1.7 0-1.8-.2v-.6c0-.6-1.5-.3-3.3-.8-.8-.2-.5-.3-1.4-.5-1.5-.5-1.9-.2-3.6-.6l-1.6-.5c-1-.1-1.5.2-2.3-.1-.6-.2-.5-.5-1.2-.8a6 6 0 00-2.7-.5h-2c-.8-.2-1.2-.5-1.8-.7-1.2-.6-2-.5-3.4-.7-3.2-.3-3.1-1-6.8-1.4-2.3-.3-2.5 0-4-.5-1.7-.5-1.8-1-3.4-1.4a21 21 0 00-4 0c-1.2 0-2 .1-2.8-.2-.7-.3-.6-.5-1.6-1a11.6 11.6 0 00-3.5-1.2c-1.1-.3-1 0-1.8-.3-1.6-.4-1.5-1.1-2.8-1.4-1-.2-1.6.1-2.2-.4l-.6-.7c-.6-.4-1.2-.4-1.8-.4-.9 0-1.7-.2-2.5-.3-3-.2-3.3-.3-3.7-.4-1-.3-1-.5-2.3-1l-3.5-1a29 29 0 00-6.9-.4c1.1.2 2.4.5 2.4.7 0 .2-.7.2-1.6.4-.6.1-2.6.5-4.4 1.9l-2 2-1.5 1.5a11.5 11.5 0 00-1.2 1.8c-.5.3-1.1.5-1.3.4-.1-.2.2-.6 0-.8-.1-.2-1.3.3-1.8 1.3-.2.5-.2.9-.6 1-.3.1-.4 0-.8 0-.3.1-.4.4-.8.9l-1 1a3 3 0 01-1.2.8h-1c-.4 0-.7.1-1.8.9a15 15 0 00-2.3 1.7c-.5.5-.5.7-1 1-.5.5-.9.5-1.4 1l-.5.8c-.3.4-.5.5-1.4 1l-1.5 1-1.4.7-1.7 1c-2.5 1.9-2.3 2.2-3.5 2.8-.8.4-1.2.5-2 1.1-.6.4-.7.7-1.3 1.2-.8.6-1.3.8-2 1.1-1.4.8-1.3 1.2-2.8 2.3-1.8 1.3-2.1 1-3.7 2a8.6 8.6 0 00-2.5 2.6l2.6-1.9c1-.8 1.3-1 2-1.2.4-.1.7-.1 1.3-.4.5-.2.6-.4 1-.7 1.1-.7 2.4-1 2.4-.8l-.9.7c-1 .7-1.2.6-1.6 1-.5.5-.5.7-1 1l-.9.2a2 2 0 00-1 .5l-.1.3c-.3.3-.7.1-1 .2-.5.1-.6.4-1 1l-1.5 1.3-1.6 1.4c-.7.3-1 .3-1.5.7l-1 .8a41.1 41.1 0 01-3.2 2.5l-.7.6-4.3 3.2c-2.4 1.8-2.3 1.5-4.5 3.2l-3.1 2.4-3.6 2.5c-1.8 1.4-1.9 1.8-3.6 3.1-.8.7-1.3 1-3 2.1A70 70 0 0070 158l-2.2 2c-2.7 2.4-6.7 5.1-8.3 6.4l-1 .8c-.3.5-.4.9-.9 1.2l-.5.2c-.5.3-.5.5-1.3 1.2l-.6.5-.8.6-.5.4-.7.6a4.8 4.8 0 01-.6.5l-1 .4-.9.6a5.7 5.7 0 00-1 .9c-.5.6-.3.7-.8 1.1-.2.3-.7.6-1.3.8l-.6.2c-.9.2-1.4.8-1.7 1-1 1.1-2.3 1.9-3.4 3-2.5 2.3-3.2 2-7.3 5.3-2.5 2-3.3 3-3.8 4.2a14 14 0 00-1.1 3.3 15.7 15.7 0 00-.4 3.3 9.6 9.6 0 001.3 5.9c.5.8 1 1.2 1.5 1.9.6.7 1.6 1.8 3.2 2.8 1.2.7 1.4.6 2.4 1.3a9.9 9.9 0 011.9 1.9 12.6 12.6 0 00-1.3-1.6c-1.6-1.8-2.5-1.8-4.6-3.6-2.6-2.1-3-3.7-3.2-4.2a5.8 5.8 0 01-.2-1.3l.8 1.4.8.8c.4.4.3.5.6 1l1 .8-.4-1 1 .6c.3.2.6.2.8.5l.3.4c.4.7 1.1 1 1.2 1l-.5-.6-.1-.3 1.3 1 1.4 1c1.5 1 2.8 1.3 2.8 1.4 0 .2-1.7-.3-1.8 0l1.6.9c1 .7 1.1 1 2.3 1.8.8.6 2 1.4 2.1 1.2.2-.2-2.2-2.2-2-2.5l1 .4c1.5.8 1.8 1.5 3.1 2.6l2 1.4L52 215l-1.5-.6c-2.8-1.5-4.4-3.2-4.5-3 0 0 .7 1.2 2 2.2 1 .7 1.4.7 2.6 1.4 1.5 1 2.7 2 2.6 2.2-.2.2-4.3-2.7-4.3-2.5-.1 0 1.8 2.2 3.4 2.9 0 0 1 .4 1.2 1v.4c0 .4-.2.6-.2.6s.5-.1.6-.4c.3-.7-.6-1.5-.4-1.7.2-.2 1 .2 1.3.4 2.8 1.4 3.6 1.8 3.5 1.9 0 .2-2.9-1-3-.9l2 1.2 1.2.8 1.9 1.3c-.1.1-1.3-.3-1.4-.1l2 1.4c1 .7 1.2 1 1.4 1l1.1 1.3a6 6 0 002.3 1.6s-.4-.6-1-1c-.3-.3-.5-.4-.5-.6a1 1 0 01.2-.9 7.2 7.2 0 01.7.5l.9.8c1 1 1.7 1 1.8 1.5l-.1.4c-.3.2-.8 0-.9 0 0 .2 1.4 1.2 1.5 1.3l1 .7c1 .6 1.2 1 1.9 1.6a9.4 9.4 0 002 1.3 59.2 59.2 0 01-2.6-2.6.4.4 0 01.4-.3c.3 0 .5.3.8.7l1.6 1.6 1.4 1c1.9 1.5 1.8 1.8 3 2.6l2.1 1.4 1.8 1.3 1.2.8-.8-.1c-.3-.1-1-.4-1.8-1 1.7 1.4 2.2 2 2.1 2 0 .2-.7 0-1.2-.3-1.8-.6-3-1.5-3.5-2l-3.9-2.6-3.9-2.2a38.6 38.6 0 01-2.5-1.7l1.5 1.2c1.1.9 2 1.2 2.7 1.6a35.7 35.7 0 018.6 6.9c-.2.2-2.4-1.2-2.6-1 0 .1.9 1.3 2 1.5.3 0 .7.1 1 .4.4.2.5.5.7.7.4.6.8.8 1.6 1.2l3 2c1.5 1.2 1.3 1.2 2.5 2 2.2 1.6 3.1 1.8 5.4 3.3l1.4 1c1 .8 1.4 1.4 1.8 1.3.1 0 .3-.2.4-.5l.7.4c1 .6 1.4 1.1 1.8 1.4.7.7.8.5 2.8 1.7l2.4 1.5 2.2 1.5a205.3 205.3 0 006.1 4.3l5.2 3.1a61.3 61.3 0 003.5 1.8 14.2 14.2 0 004 1.6c.5.1 4.6 1 9-.8l3-1.5a76 76 0 003.4-1.9h-1.4c0-.2 1-.4 2-1.3l1-1.2 1.7-2.5a317.8 317.8 0 013-4.7l1-1c.2.1-2 3.5-1.8 3.6l2-2.7 2.5-2.8 1.5-1.7s-.2.8-1.6 3.5c2-2.5 3-4 3.5-4.8l.8-1c.5-.5.9-.6 1.3-.9.7-.6 1-1.4 1.2-1.9.2-.5 1.2-2 3.3-5 2-3 3-4.4 4.3-5.8.4-.6 1.5-1.7 2.6-3.5l.8-1.4c1.4-2.3 2.3-3 3.3-4.5l.8-1.2.7-.7c1-1 3.3-4.4 5.4-7 2-2.5 2.7-2.8 4-5l1.3-2.7c.6-1 1.4-2.6 4.7-6.6a115 115 0 017.7-8.8l3.4-3.7 2.2-2.8a9 9 0 001.4-2.2c.4-1 .2-1.2.6-1.9.5-.8 1.2-1 2-1.6.5-.3 1-1 2.3-2.6 2.8-3.4 2-3 3-4 .6-.5 1.2-1 1.3-1.8v-1.7c.2-.4.3-1 .7-1.4.3-.5 1-.8 1-.7.3.2-1.2 2-1 2 0 .2 1-.9 1.3-1.2a16 16 0 001.7-2c.8-1.2.6-1.4 1.2-2.1.6-.7 1.1-.8 1.8-1.3 1.1-.8 1.6-1.6 2.6-2.8 1.3-1.9 2.8-3.6 4.2-5.4 2.1-2.7 2.8-3.3 4.4-5.3 2.8-3.5 7.7-11 12.6-18 .7-1 1.9-2.6 2-2.5l-.5 1.2a11.3 11.3 0 01-2 2.6c.9-.5 1.4-1 1.7-1.4.5-.6.6-1 1.2-1.4.6-.4 1.4-.5 1.3-.7 0 0-.8.1-.9-.1 0-.2.3-.6.6-.8 1.3-1.3 1-1.5 2.1-2.5.9-.7 1-.5 2-1.3 0 0 1-.8 1.8-1.7.6-.7 2.8-3.2 2.4-6.4zM36.3 189l-1.5 1.5c.1 0 .4 0 .7-.2l.5-.1c.7-.3 1-1 1.1-.9 0 0-.1.8-.7 1.3l-1.1.6-.7.3a2.5 2.5 0 00-.6.8 2.9 2.9 0 00-.4 1v.6c-.2 0-.6-.8-.4-1.6v-.1a7.6 7.6 0 00-.8 1.2c-1.2 2.1-.7 4-1 4-.3 0-1.1-2-.4-4 .4-1 1-1.5 2.3-2.5 4.2-3.4 5.5-4.6 5.6-4.5l-2.6 2.6zm3-.8c-.3.5-.9.8-1 .7l.6-1.2.7-1c.1 0 .2.9-.3 1.5zm3.3-7l-1.7 2.3a17 17 0 01-3.3 2.5l-2.1 1.3a24.7 24.7 0 00-2 1.6 29.8 29.8 0 00-1.8 2c0-.6.2-1 .4-1.3l1.1-1.5.9-1 2.6-2 2.6-1.7c2.5-1.8 4-3.5 4-3.4 0 0 0 .3-.7 1.2zm12 36l-.8-.8c-.8-.6-1.2-.8-1.1-.9l1 .4 1.5 1 1.2.8s-1 0-1.7-.5zM163.3 94s.4 0 .7.2l.6.3h.8l.5.1.2.2h-.5l-.6.1a3 3 0 01-1 0c-.4 0-.7-.1-.7-.2l.3-.1-.3-.2-1-.4h1zm-8.8 2c-.6 0-1 .5-1.2.7-.5.4-.7 1-.8.9v-.8c.2-.3.5-.5 1-.8 1.7-1 2-1 2.4-1 .4-.1.8 0 .8 0l-.8.2c-.3.2-.2.5-.5.7-.3.2-.4 0-.9.1zm4.8 2.5c-.2 0-.5 0-.7.2-.2 0-.3.2-.4.3l-1 .8c-1.1.7-1.7 1.4-1.7 1.3l1-1.5c.4-.8.3-.9.5-1 1-1.1 3.6-.3 3.6-.2l-1.3.1zm10.2-.5c0-.2.7-.3.6-.4h-.7l-1 .1c-1 .2-1.6.4-1.7.3 0 0 .9-.5.8-.7l-.7-.2c-.7-.1-1.1-.2-1.2 0v.5s-.3 0-1-.6l-.6-.4c-.7-.2-1.4.1-1.4 0-.1-.2.8-.6.7-.9l-.6-.1c-.6-.1-.9-.3-1.2-.5-1.2-.5-2.6-.4-2.6-.5 0 0 1.7-.5 3.4.1l1.5.6c.6.2 1 0 1.9.2l.8.2 1.1.2c.6.1.9.3 1.4.5.4.1 1.1.4 2 .5a7 7 0 003.1 1 2 2 0 01-.4-.3c-.2-.1-.5-.4-.4-.5l.8.2 1.1.2 1.6.3c1.6.3 2 .5 2.1.6.4.3.6.6.7.8a4.8 4.8 0 00-1.2-.5 4.8 4.8 0 00-1.1-.2c0 .1 0 .2.2.3l.3.3-1-.2c-.4-.3-.4-.5-.8-.6h-1.8l.5.3h-1.9l.2-.4-1.3-.1-2.2-.1zm25 5.8c-.8 0-1.7 0-2.3.2-.1 0-.4.2-.9.2h-.6l.2-.4-.6.1-1 .3-.5-.1.4-.3.8-.3c-.6-.2-1-.1-1.4 0l-.8.2-1.2-.1-1.7-.5-2-.7c-1.3-.4-2-.6-2.9-.7-1.2-.1-1.3.1-2.2-.1-.8-.3-.9-.6-1.8-.8-.8-.2-1 0-1.8-.1-1.3-.2-2.2-.8-2.2-1 0 0 .8.3 2.2.5 1 .2 1.2 0 2.1.2 1 .2 1 .4 1.9.6 1.4.4 1.8 0 4 .2l1.2.2c1.4.2 1.9.1 2.7.4l.8.4c.3.1.7.2 2.1 0h1.5c0 .2-.5.3-.4.4 0 .2 3.3 0 3.3.2 0 .1-.5.2-.4.3 0 .1.4 0 .8 0a6.7 6.7 0 012.1.5c.5.2 1.1.5 1 .6 0 0-.9-.3-2.4-.4z"/><path d="M80.4 238.6a107.4 107.4 0 00-2.5-1.8l2.5 1.8zm61-134c.6-.5.7-1.3.6-1.3l-.8.8c-.6.4-1.1.3-1.1.4 0 .1.8.4 1.4 0zm-7 4.6c.6-.6.5-.9 1-1.3.3-.4.4-.2 1-.6.8-.6.7-1 1.6-1.6l1-.7c0-.1-1.3 0-2.4.6a6 6 0 00-2 2.1c-.7.9-1.2 2-1 2.1l.9-.6zm31-17.5l.6.2.3.4c.1 0 .2-.3.1-.5-.2-.4-1.3-.3-1.3-.3l.4.2zm19.7 6c.8.1 1.5-.1 1.5-.2l-.9-.2c-1.7-.3-2.4-.8-2.5-.7 0 .2.8 1 1.9 1.1zM200 101h.9c0-.2-2.5-1-2.6-.8 0 0 .7.7 1.7.8zm8.7 1.6c1 .3 1.2.1 2.1.4 1.1.2 1.3.5 2.3.7h1.3c0-.4-7-1.8-7-1.6l1.3.5zm19.7 4.6c.7.2 1 0 3.2.2h.7l1.6.2c0-.1-.7-.5-1.6-.6-1.3-.3-1.6 0-3-.1-1.4-.2-2.3-.7-2.3-.6 0 0 .6.6 1.4.9zm-7.4-1.6a6 6 0 002.6.7c.4 0 1 0 1.1-.2 0-.2-1.1-.4-3.1-1-2-.4-2.9-.8-3-.7l2.4 1.2zm22.5 1.6c2.2.7 3.5 1.6 3.6 1.4l-1.2-1c-.5-.3-1.5-.9-2.8-1.1-1-.2-2.2-.1-2.2 0l2.6.7zm-3.3 2.6l2.2.6 1.2.4 2.4.5 1.7.5a12.2 12.2 0 012.6 1.2 8.4 8.4 0 002.7 1.5 8.1 8.1 0 00-1.4-1.5c-1.2-.9-2.3-1.3-4.3-1.9-.8-.2-1.2-.4-1.7-.4-.7-.1-1 0-1.7-.2l-1-.5c-1.6-.8-2.4-.3-4.2-1.1l-1-.5c-.9-.3-1.7-.2-2.3 0l2.3.6 2.5.8zM213 177.5c.2.1 6.2-7.1 12.6-16 5.5-7.8 9.9-15 9.7-15-.1-.1-2.8 3.9-10.4 14.5-8.8 12.2-12 16.4-11.9 16.5z"/><path d="M40 195.6c-.3.3-.6.7-.5 1.2 0 .4.4.7.5.7l87.5 60a4 4 0 002.8 1 3.8 3.8 0 002.2-1l108-137.1a.3.3 0 000-.2c0-.3-.3-.6-.8-.7l-76.3-17.2c-.4-.2-1.2-.3-2.2-.2a5 5 0 00-2 .8l-119 92.7z" fill="#fff"/><path d="M161.9 153a45.6 45.6 0 017.8-2c7-1.1 13-.4 17.2.5a3067.2 3067.2 0 00-33.2-16.4c.5.8 2.6 4 2 8.4-.5 4.5-3.4 7.2-4.1 7.8a11 11 0 00-1.9-5.4c-5.1-7.2-18.3-4.5-19.3-4.2a25.5 25.5 0 00-6.1 2.2 36.9 36.9 0 018.2-1.8 26.3 26.3 0 0111.8 1.2c-2.7-.7-7.3-1.7-13-.9a30.2 30.2 0 00-8.4 2.6c-1.5.8-3.6 2-5.5 4.2a20.4 20.4 0 00-4.2 8.6c-3.3 11.6-2.1 15.9-5.4 22.9a31.4 31.4 0 01-4.3 6.6 94.1 94.1 0 017.7-2.5 70.1 70.1 0 0113-2.3 364.1 364.1 0 0126.7-1.3s-6.6.6-13.6 1c-12.7.7-17.3 1-23.7 2.8a69.2 69.2 0 00-6 2 75.3 75.3 0 004.3-.9l4-1a96.5 96.5 0 0113.2-1.1c0 .1-4.6.3-11.4 1.3-4.4.7-8.2 1.5-8.2 1.6 0 .2 6-1 14.8-1.7 5.2-.5 9.5-.7 12-.8 6.4-.2 10.8-.3 17.7-1a49 49 0 002.3-.4c3.1-.5 7.7-1.5 13.1-3.4 3.1-.9 5-2 6.7-3.5 3.8-3.3 4.4-6.5 4.6-7.2.6-3.7-1-6.7-1.4-7.6-4.3-8.3-16.9-8.3-17.4-8.3zm6.6 24.9c1.2-.3 4.3-1 6.9-3.8.7-.8 3.2-3.4 3.4-7 .2-4.2-2.7-8.4-7.3-10.7 4.4 1.6 7.5 5.5 7.8 9.8.3 5.5-4.3 11-10.8 11.7z"/><g fill="#e5e5e5"><path d="M112 155.6s-2.3 4.5-3.7 10.6l-1.7 7-1 3.2a50.5 50.5 0 01-6.7 12.8 55.7 55.7 0 01-2 2.6 22.9 22.9 0 002.7-.4c1.8-.5 3-1 6.4-2.4l3.9-1.6a33 33 0 00-4.7 1.7c-1.5.6-2.4 1.2-4 1.6a14.4 14.4 0 01-3.3.5 55.4 55.4 0 002.6-3.8l1.5-2.5a57 57 0 005.3-12.4l.7-2.8c1.5-6.5 1.8-7.6 2.3-9.3l1.8-4.8z"/><path d="M113.1 155.5s-2.2 3.9-3 9.5c-.5 2.6-.6 4.9-1.7 8.8a51.2 51.2 0 01-5 10.5 97 97 0 01-3.8 5.8 17.3 17.3 0 002-.5 104.2 104.2 0 016.2-2.3 26.7 26.7 0 00-3 .8l-3.2 1-1 .3a109.8 109.8 0 003.3-5c3-5 3.8-7.2 4.2-8.3l.8-2.6c1-3.7 1-6 1.4-8.3.9-5.8 2.9-9.7 2.8-9.7z"/></g></g></switch></svg>