<svg xmlns="http://www.w3.org/2000/svg" viewBox="0 0 350 350"><switch><g><path fill="#fff" d="M249 330a150 150 0 01-5-6l-6-9-6-7-4-4-1-2-4-6a90 90 0 01-11-13l-1-2a23 23 0 00-4-5l-3 7-3 5-1 3-2 3a52 52 0 01-2 4l-3-5-1-1v-2l-2-2h-1l-1-2v-2l-1-1-2-1a4 4 0 01-1-2v-2l-1-1-1-2h-1l-1-2-1-2a34 34 0 00-3-4l-1-2a9 9 0 01-1-1v-1l-2-3a35 35 0 01-2-3 8 8 0 01-2-2v-2a5 5 0 00-1-1l-3 3v2l-1 1-2 3-2 2-3 4-2 2-3 3-1 2-2 2v1l-3 3-3 4-4 5a144 144 0 01-4 5 179 179 0 01-4 4l-3 4-2 3-3 3a48 48 0 00-5 6 109 109 0 00-4 5 2608 2608 0 00-3-23l-1-9-2-16-1-7a193 193 0 00-6 5l-8 6-5 4-10 8a108 108 0 01-7 5l3-24 2-14a106 106 0 001-17l-16 17V60h230v185l-8-3a173 173 0 00-1 22l1-2 1-1 1-1a6 6 0 010-1 43 43 0 010 3v3l1 4v-4 6l1 4a469 469 0 012 18 49 49 0 00-11-8h-1l-1-1-2-2-3-2h-1l-2-2-3-1-3-4-9-6a103 103 0 00-4-2 200 200 0 000 10l1 9v46z"/><path d="M70 210V70h211v140H70z"/><path fill="#2b7e90" d="M239 300l-27-34-16-54-12 31-11-18-50 62-10-56-25-18-18 9v-47l9-9V79h192v132l5 26 1 35-31-25-7 2v51z"/><path fill="#fff" d="M221 79L115 216l-12 16-19 1-15-10v-47l10-10 106-87h36z"/><path fill="#595959" d="M221 79h4L85 257v-2L221 79z"/><path fill="#0f2c32" d="M85 257v6L225 79z"/><path fill="#fff" d="M243 79a12 12 0 00-3 3 10 10 0 00-1 5v-1h1v2l-2 1-1 2a9 9 0 01-1 3 1 1 0 001 0v1h-2v2l-1 2-1 3-1 3-1 5-31 106 50 9 11-146h-18zm-1 3a13 13 0 01-1 2 5 5 0 011-4 13 13 0 010 2z"/><g fill="#0f2c32"><path d="M144 79l-65 38v30l14-11 64-51 7-6h-20zm-65 37a79 79 0 002-1l7-4-6 4a124 124 0 01-3 2v-1zm4-6l7-4 4-3-2 2a13 13 0 002-1l2-1-2 2a9 9 0 01-4 1l-7 4zm-4 1l6-4a21 21 0 01-6 5v-1zm18-9l1-1 3-1a6 6 0 004-2l-4 2h-2a4 4 0 00-2 2zm1 1l1-1h1l1-1v1h-1l-2 1zm5-2v-1h1v-1 1l-1 1zm-7 4l-1 1v1l-3 1 3-1 1-2zm-4 3l-1 1-1 1 1-1 1-1z"/><path d="M131 87a981 981 0 01-8 4 73 73 0 00-10 5l-6 4-3 2 8-6 11-6 8-4a107 107 0 015-2 876 876 0 01-5 3zm-14 3l5-3v-1l-1 1-4 3zm7-4l1-1h1l-2 1zm-4 4l3-2 3-1a58 58 0 002-2l4-2-1 1-5 3-6 3zm16-10h-2 1l1-1h1a7 7 0 01-1 1zm-1 1l-2 2 2-1h1-1zm3 0h-1 1l1-1-1 1zm1-2z"/><path d="M138 82l-3 2-1 1h2v-1l2-2zm-45 54a184 184 0 01-6 6l-5 4-3 3v-1l3-3 6-4a437 437 0 015-5zm-14 14a34 34 0 001 0l1-1-1 1a5 5 0 01-1 1v-1zm3-3l2-2a83 83 0 0012-9 191 191 0 00-14 11zm15-11l-3 2a16 16 0 00-4 4l6-4 1-2zm-1-1a52 52 0 016-5l9-7-1 2-5 4-9 6zm6-3l1-1 2-1-1 1-2 1zm0 1l-2 1h2v-1zm9-8a37 37 0 004-3l4-4 2-1 9-7 3-2 6-5 4-2 8-7 6-4 4-3a136 136 0 003-3 179 179 0 006-5h1l-2 1-7 8-4 4 1-2 2-2-3 2-2 2-2 1h-1l-1 2-2 1-3 3-4 2-3 3-9 8-4 3-4 2-4 2-1 1a38 38 0 01-3 2 186 186 0 01-5 3z"/><path d="M156 93l-3 1a5 5 0 00-1 2v2s0-2 2-3l2-2z"/><path d="M158 92l-2 3-5 3 4-3 3-3zm-15 12l2-3v2l-2 1zm4-3l2-2 2-1v1a2 2 0 01-1 1l-4 2 1-1zm-8 6c2-2 4-3 3-4l-3 2-1 2-1 1 2-1zm30-28a8 8 0 00-2 2l-1 1a6 6 0 00-3 2l-1 1-1 1h-1l-1 1-1 1h-1l-1 1h1-1l-1 1h-1l-1 2-1 1 1-2 1-1 1-1 1-1 2-1 1-1v-1h1l2-1 1-1a18 18 0 012-1v-1a20 20 0 002-1l1-1h1zm-9 5a34 34 0 004-4v-1a114 114 0 00-2 2l-2 3zm-3 2a133 133 0 01-8 7v-1l2-2a33 33 0 003-2l1-1 1-1h1zm-9 7l-13 12-3 3-3 2 2-3-6 5v1l4-5 5-4 2-1 12-10zm-33 28l2-3 7-5 1-2a15 15 0 00-10 10z"/></g><g fill="#0f2c32"><path d="M261 79h9l-5 110-12-4zm10 14l-2 15v12l2-21a28 28 0 000-6zm-1 30l-1 6-1 8 1-4 1-5a15 15 0 000-5z"/><path d="M270 143a26 26 0 00-2-11l1 5 1 6z"/></g><path d="M335 223l1 3-3 4-3 1-3 1-1 1h-3l-2 1a14 14 0 01-4 0h1l2-2h1l1-1h-3 2a7 7 0 002-1 8 8 0 01-5 1l3-1a16 16 0 002-1l2-1a90 90 0 014-2l1-1v-1h-2l1-1h1v-1h-1l-1-1v-2-1 3l-1-1v-2l-1-2v-1l1 2v-1c0-2-2-4-4-6a27 27 0 00-1-1v1l1 1 2 3v1l-1-1-1-2-3-4-4-5-3-3-1-2v-1a25 25 0 004 4 88 88 0 00-3-4l-3-4 1 3-2-2-2-3-2-3v2a6 6 0 01-1-2 23 23 0 01-3-3 72 72 0 01-4-7l8 9-2-3-14-18-3-5-2-2-1-2a23 23 0 00-1-1v-1a72 72 0 012 3 38 38 0 012 3l1 1-1-2a18 18 0 00-1-2l1 1 1 2-2-4-1-1a31 31 0 01-4-4c-4-5-6-7-8-7l-2-2v-1a2 2 0 00-1-1v1l-1-2-3-3-4-1-2-1h1l5 2-4-2a11 11 0 00-3-1 12 12 0 00-1 0 16 16 0 013 0l2 1c4 2 6 5 6 5s-2-4-6-6l3 1 5 4-3-4a11 11 0 00-7-2 13 13 0 00-7 0h5l-2 1h-7a47 47 0 00-4 2h-2a14 14 0 00-3 1l-54 12 3 54v4a7 7 0 000 2 8 8 0 000 2l1-1v2l-1 1v2l1 2v3-2l-1-1v-6a827 827 0 000-1 14 14 0 00-1 2v2a34 34 0 001 5l1 3v-1l1 1v2l-1-1 1 2v5l-1-3v2l1 2v1l1 1v6l1-1v6l-1-4a47 47 0 002 7v-2l1 2v6l-1-1v2l1 1v5l1 2v-3-1l1-1v1l-1 2 1 3v1l-1-1 1 4 1 1v1l-1-1v-2a12 12 0 002 9l5 5a9 9 0 01-3-2l-4-6s0 4 2 7a12 12 0 007 4 46 46 0 0018-3l10-5a745 745 0 016-3 72 72 0 0122-8l-5 1 10-4 4-2 4-2 4-3a21 21 0 012-1l-4 3a42 42 0 002-1l5-2c4-3 11-6 17-8l4-1 11-5 6-2 3-1v-1l-3 1-2 1a20 20 0 01-3 1 13 13 0 014-2l4-1 1-1 2-1a9 9 0 012-2h2l2-1s2-1 2-3c1-2-1-4-1-4z"/><path d="M315 200v1l1 1 1 1v-1l-2-1v-1zm5 7v-1l-2-2 1 2 1 1zm-7-13h-1v-1l1 1zm15 36l-2 1h-1l-1 1h2l2-2 1-1 1-1a5 5 0 00-1 1l-1 1zm2-2l1-1-1 1zm5-7l-5-7a16 16 0 00-2-2l3 4 4 5zm-54 34h2a21 21 0 003-2 9 9 0 002-1l1-1-4 3-4 1zm-86-3v-1l-1-2v-2 4l1 1zm92-89l1 1-1-3v2zm-16-20v-2a2 2 0 00-1-1l1 3zm-81 83v-3 3z"/><path fill="#fff" d="M209 267l1 1h3l108-44 2-1-1-3-62-76a3 3 0 00-1-1 3 3 0 00-3 0l-67 16 20 108z"/><g fill="#e5e5e5"><path d="M220 203a79 79 0 006 3l9 3 13 6 4 2 4 2a41 41 0 003 2v-2-2l3-12a19 19 0 00-3 7v7l-1 2a19 19 0 01-2-2l-2-2a76 76 0 00-15-7l-12-4a146 146 0 01-8-3z"/><path d="M221 203a131 131 0 0013 5l7 2a65 65 0 013 1l9 5a42 42 0 014 3l1 1a26 26 0 000-3v-3l2-6v-1l-1 2-1 4-1 3a10 10 0 011 3 52 52 0 00-4-3 44 44 0 00-4-3 42 42 0 00-5-2l-12-4a273 273 0 01-12-4z"/></g><path d="M274 183c-2-6-12-7-13-8-7-1-14 3-16 4l-2 1a13 13 0 012-5 14 14 0 017-6 634 634 0 01-33 8c3 0 9 0 14 4a25 25 0 014 3 27 27 0 00-2-1 26 26 0 00-9 0 21 21 0 00-11 4c-1 1-4 3-4 6l2 5a8 8 0 01-1-5c0-2 2-4 4-6l-4 5a5 5 0 001 2c0-1 0-3 2-4a12 12 0 013-3l-1 1-3 6c1 6 9 8 18 12 9 3 15 3 23 9a47 47 0 012 1v-4c1-6 5-9 10-18a69 69 0 003-5 33 33 0 01-1 2l-4 8a44 44 0 00-4 6 20 20 0 00-1 7v-1l1-3 1-3 5-8 5-10v-2a7 7 0 000-1v-2c-1-4-8-5-11-6l-11 1a30 30 0 017-1 26 26 0 018 0l5 3a9 9 0 013 4v5l-4 8-3 4-2 4a34 34 0 00-4 10 46 46 0 013-8l5-9a39 39 0 005-8c1-3 2-5 1-7zm-18-64l-2-3 1 4a8 8 0 01-1 4l-5 4 1-2 1-1a7 7 0 001-2h-1l1-1v-2 2h1v-3-1 1-1-1h1v3l1-2-1-2h-1l-1-1-1-1h-1l-2-1h-1l3 2 2 1-3-1-2-2h-1-1l-1-1-1-1h-2a3 3 0 00-1 0v1h2a7 7 0 011 0l1 1c1 0 2 0 1 1l-2-1a8 8 0 00-3-1h-2v-1h-4v-1l-3-1h-2l-3-1h-4l-1-1a6 6 0 00-3-1h-4l-3-1-7-1-4-1-3-1a21 21 0 00-4 0h-3l-2-1a12 12 0 00-3-2h-2l-3-1-2-1h-1l-2-1h-2l-4-1-2-1-4-1a29 29 0 00-6 0l2 1h-2l-4 2-2 2-2 2a12 12 0 00-1 1l-1 1v-1l-2 1v1h-1l-1 1-1 1a3 3 0 01-1 1h-1l-2 1a15 15 0 00-2 2l-1 1-2 1-2 1-1 1-2 1-1 1-4 3-2 1-1 1-2 1-3 3-4 2a9 9 0 00-2 2l3-2 2-1h1l1-1 2-1-1 1-1 1-1 1h-1a2 2 0 00-1 0v1h-1l-1 1-2 1-1 2h-2l-1 1a41 41 0 01-3 3h-1l-4 3-5 4-3 2-3 3-4 3-3 2a70 70 0 00-9 6l-2 2-9 6v1l-1 1-1 1-1 1h-1l-1 1-1 1-1 1h-1a6 6 0 00-1 1l-1 1-1 1h-1l-2 1-3 3-7 6-4 4a14 14 0 00-1 3 16 16 0 00-1 3 10 10 0 002 6l1 2 3 3 3 1a10 10 0 012 2 13 13 0 00-2-1l-4-4c-3-2-3-4-3-4a6 6 0 01-1-1l1 1 1 1 1 1 1 1-1-1h1l1 1 1 1v-1l1 1 2 1 2 2h-1l1 1 2 1 3 2-2-3h1l3 3 2 1 2 2-1-1-5-3 2 3 3 1 2 2-4-2 3 3 2 1-1 1 1-1v-2l1 1 3 2-3-1 2 1 2 1 1 1h-1l2 2 1 1 2 1a6 6 0 002 1l-1-1h-1a1 1 0 011-1l1 1 2 2h-1l1 1 1 1 2 2a9 9 0 002 1 59 59 0 01-2-3l1 1 2 1 1 1 3 3 2 1 2 2 1 1-1-1-2-1 3 2h-2l-3-2-4-2-4-3a39 39 0 01-2-1l1 1 3 1a36 36 0 018 7l-2-1 2 2h1v1l2 1 3 2 3 2 5 3 1 1 2 2 1-1v1l2 1 3 2 2 1 2 2a205 205 0 007 4l5 3a61 61 0 003 2 14 14 0 004 2c1 0 5 1 9-1l3-2a76 76 0 004-2h-2l2-1 1-1 2-3a318 318 0 013-4l1-1-2 3 2-2 3-3 1-2-1 4 3-5 1-1 1-1 1-2 4-5 4-6 3-3v-2l4-4v-1l1-1 6-7 4-5 1-3 5-6a115 115 0 017-9l4-4 2-3a9 9 0 001-2l1-2 2-1 2-3 3-4 1-2v-2l1-1 1-1-1 2 1-1a16 16 0 002-2l1-2 2-1 3-3 4-5 4-6 13-18 2-2-1 1a11 11 0 01-2 3l2-2 1-1 2-1h-1v-1l2-2 2-2 2-1c1-1 3-4 3-7zM36 189l-1 2v-1h1l1-1-1 2h-1v1a3 3 0 00-1 0 3 3 0 000 1v1l-1-2a8 8 0 00-1 1l-1 4v-4l2-2 6-5-3 3zm3-1l-1 1 1-1 1-1-1 1zm4-7l-2 2a17 17 0 01-3 3l-3 1a25 25 0 00-2 2 30 30 0 00-1 2v-1l1-2 1-1 3-2 2-2 4-3v1zm12 36l-1-1-1-1 1 1 1 1 1 1-1-1zM163 94h1l1 1h1-1a3 3 0 01-1 0h-1 1l-1-1h-1 1zm-8 2l-2 1v1-1l1-1 2-1h1-1l-1 1zm4 3h-1l-1 1-1 1 1-1v-1c1-2 4-1 4-1h-2zm11-1h-3l1-1h-2v1l-1-1h-2v-1l-1-1h-3 7l1 1h2l2 1a7 7 0 003 1l-1-1h2l2 1h2l1 1a5 5 0 00-2 0 5 5 0 00-1-1l1 1h-1l-1-1h-2l1 1h-2v-1h-3zm25 6h-3-3l1-1-1 1h-2l-2-1-2-1h-5l-2-1h-2l-2-1h4l2 1h5l3 1h4v1h4a7 7 0 012 1h-2z"/><path d="M80 239a107 107 0 00-2-2l2 2zm61-134l1-2-1 1h-1l1 1zm-7 4l1-1 1-1 2-1 1-1-2 1a6 6 0 00-2 2l-1 2v-1zm31-17h1s1 0 0 0l-1-1v1zm20 6l2-1h-4l2 1zm15 3h1l-3-1 2 1zm9 2h2l2 1h1l-7-2 2 1zm19 4h4l2 1-2-1h-3l-2-1 1 1zm-7-1a6 6 0 003 0h1l-3-1-3-1 2 2zm22 1l4 2-1-1-3-2-2 1h2zm-3 3h2l2 1h2l2 1a12 12 0 012 1 8 8 0 003 1 8 8 0 00-1-1l-5-2h-1l-2-1h-1l-4-1-1-1h-3l3 1 2 1zm-27 68a166 166 0 0022-31l-10 14-12 17z"/><path fill="#fff" d="M40 196v1l88 60a4 4 0 002 2 4 4 0 003-1l108-138h-1l-77-18h-2a5 5 0 00-2 1L40 196z"/><path d="M162 153a46 46 0 018-2c7-1 13 0 17 1a3067 3067 0 00-33-17l2 8c-1 5-4 8-4 8a11 11 0 00-2-5c-5-7-19-5-20-4a26 26 0 00-6 2 37 37 0 018-2 26 26 0 0112 1l-13-1a30 30 0 00-8 3l-6 4a20 20 0 00-4 9c-3 11-2 16-5 23a31 31 0 01-5 6 94 94 0 018-2 70 70 0 0113-3 364 364 0 0127-1l-14 1c-12 1-17 1-23 3a69 69 0 00-6 2 75 75 0 004-1l4-1a97 97 0 0113-1l-11 1-9 2 15-2 12-1 18-1a49 49 0 002 0l13-3 7-4c4-3 4-6 5-7l-2-8c-4-8-17-8-17-8zm7 25c1 0 4-1 6-4 1-1 4-3 4-7s-3-8-7-11c4 2 7 6 7 10 1 6-4 11-10 12z"/><g fill="#e5e5e5"><path d="M112 156l-4 10-1 7-1 3a51 51 0 01-7 13 56 56 0 01-2 3 23 23 0 003-1l6-2 4-2a33 33 0 00-5 2l-4 2a14 14 0 01-3 0 55 55 0 003-4l1-2a57 57 0 005-13l1-2 2-10 2-4z"/><path d="M113 156l-3 9-2 9a51 51 0 01-5 10 97 97 0 01-3 6 17 17 0 002 0 104 104 0 016-3 27 27 0 00-3 1l-3 1h-1a110 110 0 003-5l4-8 1-2 1-9 3-9z"/></g></g></switch></svg>