<svg xmlns="http://www.w3.org/2000/svg" viewBox="0 0 350 350"><switch><g><path fill="#fff" d="M60.3 60.5h229.8v229.6H60.3z"/><path fill="#231f20" d="M69.6 69.9h211.2v211H69.6z"/><path fill="#757e2c" d="M79 79.4h192.7V272H79z"/><path d="M246.7 79.4a58 58 0 013.6 12.7 70.1 70.1 0 01-2.8 31.9 92.5 92.5 0 01-5 13.5l29.2-34.8V272H79V106c6.7 7.6 13.7 15.3 20.7 23a85 85 0 01-5.3-17.4c-1.7-9.3-4-21.4 2.7-29.3a17.5 17.5 0 013.2-3h146.4z" fill="#666e24"/><path d="M176.6 209a85 85 0 00-51.7 63h97.6a72.3 72.3 0 00-45.9-63z" fill="#757e2c"/><path d="M141.8 55.3l-.4.5.4-.5zM265.3 116.6c-.6 1.1-1.5 2.9-3.1 5.3a64.1 64.1 0 01-3.7 5.2 1.1 1.1 0 01-.2-.4 1.2 1.2 0 01.1-.8L254 129l.3-1.7a25.4 25.4 0 00-5.8 9.4c-.2.5-.7 2.5-1.8 5a48.8 48.8 0 01-1.4 3.2 6.7 6.7 0 01-2.8.6c-.4 1.5-1.4 4.4-4 7a15 15 0 01-3.6 2.7l1-1.4h-3a7 7 0 011.2-2.6 29 29 0 00-7 4 43.5 43.5 0 003.6-7.3c2.6-6.7 3-12.8 2.8-17 0-3.3-.2-5.9-.4-7.6-.5-5.7-1-8-1.3-12.8a68 68 0 010-6.9 1.8 1.8 0 00-1.2-.6 1.8 1.8 0 00-1.3.5c0 .2.1.8-.3 1.4a2 2 0 01-.4.5 32.8 32.8 0 01-2.6-9.4 23.5 23.5 0 01-.4-6.8 6.3 6.3 0 012 3.2c.5 1.7.6 3.3.6 4.3.1-.9.2-2.3.1-4-.1-1.2-.3-2-1-5.1l-1.3-5.2a50.6 50.6 0 00-1.9-5.4 10.2 10.2 0 00-1 1.8c-.8-3.2-2.7-10-8.3-16.4a36.7 36.7 0 00-13.9-9.8l.8-2A18.4 18.4 0 00197 46a18 18 0 00-1.8-1 46.8 46.8 0 01-4.5-.5 94.3 94.3 0 01-7.4-5.5 24.5 24.5 0 017.4 2 57.1 57.1 0 00-9-4.8l1-.5c1-.5 1.8-.4 1.8-.5 0-.3-2.1-1-4.8-1.6a21.7 21.7 0 00-5.2-.5 19.5 19.5 0 00-3.8.9c-1.6.5-2.7 1.2-3.5 1.6l-8.5 5.1c.4.4.9 1 1 1.7 0 1.1-1 1.5-3.4 4.5l-2.7 2.9c-.2.3-.6.8-1.2 1-.7 0-.9-.5-1.5-.4-.8 0-1 1-2 2.2a7.4 7.4 0 01-2 1.6 9.4 9.4 0 012.2-4.7 9.4 9.4 0 014.2-2.9 75.6 75.6 0 011.3-3.5 44.7 44.7 0 00-5.2 4 49.5 49.5 0 00-7.5 8.3 4.3 4.3 0 01.8-.8 4.3 4.3 0 011.5-.6c-.4.3-1 .8-1.3 1.6a5.3 5.3 0 00-.4 1.1 38.8 38.8 0 00-9.4 8.5 38.7 38.7 0 00-6.5 12.2c-.4 2.4-1.2 4-1.9 5.2-1.4 2.2-2.9 3-4.2 5.7a14.2 14.2 0 00-1.1 3 49 49 0 00-1.3 12l-1.5-.5c-.8 5.7-.6 10.2-.3 13.4.4 4 1.2 6.8 1.4 12.1a66.5 66.5 0 01-.2 7.1l-.8-.3a31 31 0 011.3 5c.9 4.7.3 7.9 1.6 10.6a21 21 0 001.7 3.2c.4.5 1 1.2.9 1.4-.2.2-1-.3-1.6 0-.4.2-.6.5-.8.7l-8-5.2c-.5-1.1-.9-1.7-1-1.6l-.1.5A231.3 231.3 0 0184 127.2l7.8 4.4a24.5 24.5 0 01-2.9-2.8c-2.5-2.8-3-4.7-4.7-6.7-1.1-1.4-3-3.1-6.2-4.4v155h84.7a18 18 0 00-4.1-13.3 16 16 0 00-5.3-3.8 4.1 4.1 0 011.8 2.4 27.7 27.7 0 00-5.9-3c-1.7-.7-3.5-1.3-6-1.4a16.3 16.3 0 00-5.8.8 43.1 43.1 0 017.3-12.3 42.2 42.2 0 014-4 12.6 12.6 0 00-1 4 56.3 56.3 0 014.6-6 39.7 39.7 0 0110.5-8.4 26.5 26.5 0 0122.6-.1 34 34 0 017.6 4.5 38.4 38.4 0 014.4 4 4.3 4.3 0 00-.3-2 4.3 4.3 0 00-1-1.3l1.5.9 1.8-1.1-1.7-.3a160.3 160.3 0 00-7-5 42.4 42.4 0 00-6.5-4c-3.7-1.6-6-1.8-7.2-1.8a13.9 13.9 0 00-2.9.3 5.8 5.8 0 001 1 86.2 86.2 0 01-7.4.1 33.2 33.2 0 00-1.7-1.3 29.7 29.7 0 00-10.6 7c-1 1-1.9 2.2-3.8 3.8l-1.3 1.1v.5a4.4 4.4 0 01-.1-1.1 4.7 4.7 0 01.9-2.5 49.2 49.2 0 014.8-4.4 46 46 0 015.9-4 28 28 0 0116.6-2h1.8c0-.2-.4-.4-.7-.9a2 2 0 01-.2-1 20 20 0 015.3.5c2.2.5 5.8 1.7 11.5 6.8 2.4 2.1 5.7 5.4 9.8 11a57.6 57.6 0 0110 18.7 11 11 0 00-1.2-.4 11.5 11.5 0 00-3-.6 50.3 50.3 0 00-3.7-7.7 50.9 50.9 0 00-10.4-12.5 54.4 54.4 0 018.3 10.7 25.1 25.1 0 00-12.4 1.3 25.1 25.1 0 00-10.4 7.3 1.5 1.5 0 01-.2-.3c-.2-.5 0-1 0-1.2a25.6 25.6 0 014.8-4.6 25.8 25.8 0 018.8-4.2s-7.2 1.7-12.5 6.8a28.3 28.3 0 00-6.2 9.2 54.3 54.3 0 012.4-3.4 162 162 0 00-4.2 9.7c-.5 1.5-1 3.6-1 6.4l.2.7c.3 0 .6-3.1 1-5.3.5-2.2 1.6-5.5 4.3-9.2a25.5 25.5 0 015.4-6.1c.9-.7 5.8-4.7 11.5-5.4.8 0 2.5-.2 5-.7a46.7 46.7 0 003.5-1l1.4 2.6a53.3 53.3 0 013 6.8l-3.5-.2a13 13 0 00-4.9-1c-4 .1-6.9 2-8 2.8a14.2 14.2 0 015.4-1.8 14.2 14.2 0 015.6.4 14.3 14.3 0 00-5.4.6 14 14 0 00-6.3 4.1c-.7 1-.6 1.1-1.6 2.4-1.2 1.5-1.4 1.3-2 2.2-1.4 2-1.5 4.3-1.5 5.8a14.3 14.3 0 00.1 2.6H199a3 3 0 010-.9 3 3 0 01.5-1.2l.5 1.4a6 6 0 00.7-3.6l2-2a4.9 4.9 0 01.8 1.7 13.6 13.6 0 00-3.6 4.6h1a10.6 10.6 0 012.6-4.2l.6.8a8.2 8.2 0 00-1.6 2 8.2 8.2 0 00-.5 1.6h2.4a3 3 0 011-2.4 4 4 0 011.5 2.5h1.3c.8.2 1 .2 1.3 0 .2-.1.2-.3.5-.7l.7-.9a7.5 7.5 0 00-1.7-3 974.2 974.2 0 010-1.7 10.2 10.2 0 013 3.3 6.2 6.2 0 00-1 1.5 1.3 1.3 0 01.7 1.2h.8a1.6 1.6 0 01.6-.9 1 1 0 01.2.4 1 1 0 010 .7l1-.1a10.6 10.6 0 01.2-3.1l.8-.8c.4-.3.6-.5 1-.5l.7.6.5.6v-1.7a48 48 0 01-.3 5.5h55.6V106.9c-3.8 3.9-6 7.3-7.4 9.7z" fill="#231f20"/><path d="M229 93.8a28.5 28.5 0 011.2 6v2.3a1.4 1.4 0 01.8.1c.5.2.7.6.8.7a35 35 0 00-1.8-9.6 29.2 29.2 0 011 8 59.9 59.9 0 00-.8-3.6 60.1 60.1 0 00-1.1-4zm-111.9 58a705 705 0 013.4 2.4h.5a42.8 42.8 0 01-3.4-2.9l-3.2-3a39.6 39.6 0 00-2.3-1.7 23.3 23.3 0 00-6.2-3 329.5 329.5 0 005.2 3.9l6 4.3zm-1.3-32.6l.2-.5-.2-1.4a7 7 0 00-.8-2 11.8 11.8 0 000 4.5c.1 0 .5-.2.8-.6zm7.7-42.6a65 65 0 00-5.3 14.7 64.6 64.6 0 00-1.5 9.6 142.3 142.3 0 016.8-24.3z" fill="#231f20"/><path d="M247.4 200.2c-3.4-2.6-6.9-4.9-14-9.5a552 552 0 00-14.3-9.1l6.8.7a240.5 240.5 0 005.8-3.7c7.6-5 14.2-9.3 21.1-16 5-4.8 8.3-9 9.2-10.1a85.5 85.5 0 009.7-16.1v-15.9a174.5 174.5 0 01-20 28 90.2 90.2 0 01-15.3 14.4 79.3 79.3 0 01-16 8.9c-.5.3-3.6 2-7.2.7a9 9 0 01-4.4-3.3c-.3-.6-2-4.3-.3-8.4 1.4-3.2 3.9-4.7 4.7-5.1a9 9 0 005.3-1.2c.8-.6 3.5-2.5 5-12.4a66.4 66.4 0 00.6-14.1 100.2 100.2 0 00-4.3-28.9c-1-3.5-6.3-20-19.4-35.6-4-4.6-7-7.2-13.2-12.5-7.4-6.1-10-7.3-12.9-7.2-2.5.1-4.6 1.3-9.9 5.7A94 94 0 00150 63.3c-4.2 5-10.3 12.3-15.4 23.6 0 0-7.5 16.5-8.4 42.5-.1 2 0 5.2.6 11.6 0 .5.6 7 2.8 10.8.5.8 1 1.6 2 2.3 1.2 1 2.5 1.3 3.2 1.5 1.4-.3 2.4 0 3 .2 2.8 1 4.6 4.7 4.5 9 0 1.2-.1 3-1.2 4.8-1.6 2.4-4 3.2-6.7 4-2.3.7-7.8 2.3-14.5.3-2.9-.9-5-2.1-8.4-4.4-9-6.2-15.6-12-17.2-13.5a336.2 336.2 0 01-16-15.3v12.5c6.6 8.7 16.8 19.6 31.7 28.1a102.4 102.4 0 0011.8 5.8l9.3-7.3a94.5 94.5 0 01-10.8 14c-6 6.5-12 13-21.8 16.8a46 46 0 01-20 3v11.8a50.4 50.4 0 0044.9-18.3c4.2-4.8 7-9.5 7.2-9.3.3.2-3.8 6.5-7.5 13.3-5 9.3-9 16.8-11.1 27.1a83.8 83.8 0 00-1.6 17.6 103 103 0 001.2 16.2H123a81 81 0 01-.9-16.7c.5-8 1.2-21.3 9.8-34 8-11.7 19-17.3 25-19.7a49.6 49.6 0 00-7.3 8.2 50 50 0 00-7.5 16c3.1-3.7 9-9.5 18.2-13a53.5 53.5 0 0120.3-2.8c5.8 0 13.9.5 23.3 3a47 47 0 00-9.7-12.6 53.8 53.8 0 0133.8 39.5c3.3 14.4.4 26.4-1.5 32.1H239a65.2 65.2 0 00-5.5-54.3 82.1 82.1 0 00-17.6-22 69.4 69.4 0 0119.5 8.2c9 5.5 12 10.4 21.4 14.8 6 2.8 11.3 4 15 4.5V214c-3.3-.7-8-2-13-5-4.2-2.4-5-4-11.4-8.8z" fill="#fff"/><path d="M136 132.8a93.9 93.9 0 0010.4 2.4c4.2.6 6 .6 8.4 2.1 2.3 1.5 3.6 3.4 5 5.5a28.7 28.7 0 013.8 8c-2.2.1-5.4.1-9.2-.2-5.8-.4-7.3-1.1-7.8-1.4-2.9-1.5-4.3-3.8-6.5-7.3a41 41 0 01-4.2-9zm50.4 18.2c4.1-11 9.2-13.6 11.6-14.4A245.8 245.8 0 01214 133a32.5 32.5 0 01-3.7 8.7c-2 3.3-3.6 5.8-6.6 7.3-.7.4-2 1-11.2 1.6l-6 .3zM60.3 228.3a27.2 27.2 0 01-2.4-.7 33 33 0 01-15.6-12c-2.9-3.8-8.8-11.4-8.7-22.5a35 35 0 0111-24.5l-1.4-1a36.2 36.2 0 0111.3-7c6.9-2.6 13-2.5 16.2-2.2v3.7a30 30 0 00-10.2.3 32.2 32.2 0 00-19.9 14c-.9 1.4-6 10-4.4 20.7.8 5.4 3 9.4 4.3 11.6a39.9 39.9 0 007.6 9.7 42 42 0 01-6.8-9.4A31.3 31.3 0 0139 181c3.7-9 10.9-13.4 12.8-14.5a30.2 30.2 0 0118.9-3.5v14.8c-.4-.2-3.5-2-6.9-.5-2 .8-3 2.3-3.4 3l-.1 47.9z" fill="#231f20"/><path d="M60.3 230a36.2 36.2 0 01-7.8-3.3c-.7-.4-3.9-2.2-7.5-5.7a40.8 40.8 0 01-12.5-24.3c-1.6-14.8 8.8-27.1 8.7-27.1 0 0-8.2 8.2-9.1 21.6a38 38 0 0014.4 32.4 39.9 39.9 0 0013.8 7.3v-.9z" fill="#231f20"/><path d="M88.8 183.4a34.7 34.7 0 00-4.6-7.2c-1.7-2-6-7.2-11.9-9.3-8.7-3-18.6 1.4-24.4 6.8a30 30 0 00-8.3 25.5 30.2 30.2 0 0015 20.6v-10.3a20.2 20.2 0 01-3.6-4.3 21 21 0 01-3.2-10.7 23.9 23.9 0 017.8-17.3c1.9-1.8 5.2-4.9 10.3-5.7 5.5-.8 9.8 1.5 13 3.2 4.8 2.6 8 6.1 9.9 8.7z" fill="#fff"/><g fill="#231f20"><path d="M158 299.7c1.6-1.4 5.5-4.8 7.5-10.8a23.5 23.5 0 001.2-8.3h-24.4c0 .9-.5 3.8-2.9 6.3-2.6 2.7-5.7 3.1-6.6 3.2h-26.4a36.6 36.6 0 0030.8 18.4l-.2-2.2a30 30 0 0021-6.6zm1.7-6.1l.9-.7a3.6 3.6 0 01-1.3 1.6l-.8-.1 1.2-.8zm-30 10a29.6 29.6 0 01-9.2-4.1l.7-.2a30.2 30.2 0 0030 1.5 28.1 28.1 0 01-7.7 3.1c-1.6.4-7 1.5-13.7-.2z"/><path d="M167 290.1a36.3 36.3 0 01-8.9 10.7 36.2 36.2 0 01-9.3 5.6 37 37 0 0016-11.7 33.6 33.6 0 003.1-4.7l-.8.1zm-18.2 16.3a46.6 46.6 0 01-5 1.6 36.6 36.6 0 005-1.6z"/></g><path d="M152 264.7a16 16 0 00-8.3-3.3 13.9 13.9 0 00-7.5 2.8 13.8 13.8 0 00-4.7 6.3c1-.9 2.8-2.4 5.6-3.2 1.4-.4 6-1.8 9.8 1.1 2.8 2.1 4 5.8 3.5 9.5 0 1.5-.7 9-7.1 14.4a22 22 0 01-17.9 4.7 22 22 0 007 3c2.3.7 4.4.8 6 .7 1.3 0 8.8-.4 14.5-6.7a20.7 20.7 0 005.2-14c0-.8.8-10-6-15.3z" fill="#fff"/><g><g fill="#231f20"><path d="M239.9 290.1a8 8 0 01-2.7 3.2 15.4 15.4 0 002.2-3.2h-27.2a15.4 15.4 0 01-3.3-4.3 15.4 15.4 0 01-1.8-5.7h-26.5a23.5 23.5 0 001.7 10l-1.4.4a37.6 37.6 0 004 5.6 38 38 0 0025.8 12.6 35.5 35.5 0 0013.4-2.8 35.5 35.5 0 0012-8.4l1.5 1.6 7.2-9h-4.9zm-43.5 12.5a31 31 0 01-12.2-11.7 35.3 35.3 0 0033.8 14.3c-2.6.6-11.9 2.4-21.6-2.6z"/><path d="M206.5 309.5a38.7 38.7 0 01-27-19.4h-.8c.8 1.5 9.6 17.8 28 20 12.6 1.6 22-4.3 24.7-6a37 37 0 01-24.9 5.4z"/></g><path d="M205 289.7c-6.4-6.1-6.8-14-6.8-15.4 0-4 1.8-7.7 4.8-9.2 3-1.5 6.6-.4 9 .4a18.6 18.6 0 014.6 2.3c-.5-1.2-2.3-5-6.7-7.1-1.1-.6-5.2-2.6-10-1.2-5 1.6-7.3 6-8.1 7.6-2.2 4.3-2 8.2-1.7 11 .2 3.7.9 11.4 7.2 16.8a19.9 19.9 0 0020.9 3 14.7 14.7 0 003-2c-1.5 0-9.5.2-16.2-6.2z" fill="#fff"/></g><g><path d="M307.7 193c-.7-13-8.7-21.2-10.6-23a.7.7 0 010-.5c0-.4.4-.5.4-.5a34.8 34.8 0 00-9.8-6.9 34.8 34.8 0 00-10-2.9l-.3 18.9c1 .1 2.8.4 4.5 1.4 3.2 2 4.5 5 6 9a38 38 0 012.2 8.7v29.6l6.6-5.5v-1.6a35.4 35.4 0 0011-26.7zm-4.4 12.5a29.4 29.4 0 01-6.6 10.6 38 38 0 005.5-9.5 38 38 0 002.7-13 29.3 29.3 0 01-1.6 11.9z" fill="#231f20"/><path d="M299.7 170.7a37.4 37.4 0 019.6 23.7c.4 20.8-18.2 32.5-19.2 33 1.2-.7 19.5-13.2 18.7-34.1a38 38 0 00-9-22.6z" fill="#231f20"/><path d="M303.8 190.3a27.2 27.2 0 00-19.2-21.1 29 29 0 00-19 1c1.5-.4 11.4-2.5 20.4 4a25.4 25.4 0 019.7 15.4A129.5 129.5 0 01297 212c1.2-1.3 8.6-10 6.8-21.6z" fill="#fff"/></g><g><path d="M220 162.7l.7.5a4.8 4.8 0 011.3 1.5l-4.2 3a10.9 10.9 0 012.1-5zm-3.1 2a1 1 0 01.6.2 1 1 0 01.3.3 3 3 0 01-1.1 1.5 3.5 3.5 0 01.2-2zm-8.6 0a16 16 0 012.9 2.3 8.3 8.3 0 010 2.8 5.8 5.8 0 01-2.3-2.4 5.8 5.8 0 01-.6-2.7zm17.6-27.3a19.5 19.5 0 01.5 5.2c-.2 1.8-1 3-1.8 4.6a21.5 21.5 0 01-2.3 3.3 94.3 94.3 0 003.6-13.1zm2.2-5a99.2 99.2 0 00.8 1 23.5 23.5 0 01-1.7 6 31.9 31.9 0 01.9-7zm2-11.9a2.2 2.2 0 011.2.8v1l-.3 2.3a13.5 13.5 0 01-.9-4zm.2-7.3a8.6 8.6 0 011.5 2.5 6 6 0 010 2.5 6 6 0 01-.4 1.3 42.6 42.6 0 01-1.1-6.3z" fill="#707728"/><path fill="#636b24" d="M78 124l3.3 3.4L78 125z"/><path d="M138.1 271.7l-.4-2a5.9 5.9 0 012.9-.4 6 6 0 013 1.3l-.5 1.2-5-.1zm5.7-5.4l2 3.4v-1.1h1.5a6.5 6.5 0 00-1.1-1 6.6 6.6 0 00-2.4-1.3z" fill="#666e24"/></g></g></switch></svg>