<svg xmlns="http://www.w3.org/2000/svg" viewBox="0 0 350 350"><switch><g><path fill="#fff" d="M60 61h230v229H60z"/><path fill="#231f20" d="M70 70h211v211H70z"/><path fill="#757e2c" d="M79 79h193v193H79z"/><path fill="#666e24" d="M247 79a58 58 0 013 13 70 70 0 01-3 32 93 93 0 01-5 14l30-35v169H79V106l21 23a85 85 0 01-6-17c-1-10-4-22 3-30a18 18 0 013-3h147z"/><path fill="#757e2c" d="M177 209a85 85 0 00-52 63h97a72 72 0 00-45-63z"/><path fill="#231f20" d="M142 55l-1 1 1-1zm123 62l-3 5a64 64 0 01-4 5 1 1 0 010-1l-4 3v-2a25 25 0 00-5 10l-2 5a49 49 0 01-2 3 7 7 0 01-3 0c0 2-1 5-4 7a15 15 0 01-3 3l1-1h-3a7 7 0 011-3 29 29 0 00-7 4 44 44 0 004-7c2-7 3-13 2-17v-8l-1-13a68 68 0 010-6 2 2 0 00-1-1 2 2 0 00-2 0v2a33 33 0 01-3-9 24 24 0 010-7 6 6 0 012 3v1l-1-5-1-6a51 51 0 00-2-5 10 10 0 00-1 2c-1-3-3-10-8-17a37 37 0 00-14-9l1-2a18 18 0 00-5-5 18 18 0 00-2-1 47 47 0 01-4 0 94 94 0 01-8-6 25 25 0 018 2 57 57 0 00-9-5h1l1-1-4-1a22 22 0 00-6-1 20 20 0 00-3 1l-4 2-8 5 1 1c0 2-1 2-4 5l-2 3-2 1-1-1-2 3a7 7 0 01-2 1 9 9 0 012-4 9 9 0 014-3 76 76 0 012-4 45 45 0 00-6 4 50 50 0 00-7 8 4 4 0 011 0 4 4 0 011-1l-1 2a5 5 0 000 1 39 39 0 00-10 8 39 39 0 00-6 12l-2 6-5 5a14 14 0 00-1 3 49 49 0 00-1 12h-1l-1 13 2 12a67 67 0 010 7h-1a31 31 0 011 5c1 5 0 8 2 11a21 21 0 001 3l1 1h-1l-1 1-8-5-1-2v1a231 231 0 01-27-23l8 5a25 25 0 01-3-3l-5-7-6-4v155h85a18 18 0 00-4-14 16 16 0 00-6-3 4 4 0 012 2 28 28 0 00-6-3l-6-1a16 16 0 00-6 0 43 43 0 018-12 42 42 0 014-4 13 13 0 00-1 4 56 56 0 014-6 40 40 0 0111-8 27 27 0 0122 0 34 34 0 018 4 38 38 0 014 4 4 4 0 000-2 4 4 0 00-1-1l2 1 1-1-1-1a160 160 0 00-7-5 42 42 0 00-7-4l-7-2a14 14 0 00-3 1 6 6 0 001 1 86 86 0 01-7 0 33 33 0 00-2-1 30 30 0 00-11 7l-3 3-2 1v1a4 4 0 010-1 5 5 0 011-3 49 49 0 015-4 46 46 0 016-4 28 28 0 0116-2h2v-1a2 2 0 01-1-1 20 20 0 016 1c2 0 5 1 11 6l10 11a58 58 0 0110 19 11 11 0 00-1 0 12 12 0 00-3-1 50 50 0 00-4-8 51 51 0 00-10-12 54 54 0 018 11 25 25 0 00-12 1 25 25 0 00-11 7v-1a26 26 0 015-5 26 26 0 019-4s-8 2-13 7a28 28 0 00-6 9 54 54 0 012-4 162 162 0 00-4 10l-1 7 1-5c1-2 2-6 5-9a26 26 0 015-6c1-1 6-5 11-6h5a47 47 0 004-1l1 2a53 53 0 013 7h-3a13 13 0 00-5-1c-4 0-7 2-8 3a14 14 0 015-2 14 14 0 016 0 14 14 0 00-5 1 14 14 0 00-7 4l-1 2-2 2c-2 2-2 5-2 6a14 14 0 000 3h11a3 3 0 010-1 3 3 0 011-1v1a6 6 0 001-3l2-2a5 5 0 010 1 14 14 0 00-3 5h1a11 11 0 013-4 8 8 0 00-2 3 8 8 0 000 1h2a3 3 0 011-2 4 4 0 012 2h3l1-1a8 8 0 00-2-3 974 974 0 010-2 10 10 0 013 3 6 6 0 00-1 2 1 1 0 011 1h1a2 2 0 010-1 1 1 0 010 1h1a11 11 0 011-3v-1h2l1 1v-2a48 48 0 01-1 6h56V107l-8 10z"/><path fill="#231f20" d="M229 94a29 29 0 011 6v2a1 1 0 011 0l1 1a35 35 0 00-2-10 29 29 0 011 8 60 60 0 00-1-3 60 60 0 00-1-4zm-112 58a705 705 0 013 2h1a43 43 0 01-3-3l-4-3a40 40 0 00-2-1 23 23 0 00-6-3 330 330 0 005 4l6 4zm-1-33v-2a7 7 0 00-1-2 12 12 0 000 5l1-1zm7-42a65 65 0 00-5 14 65 65 0 00-1 10 142 142 0 017-24z"/><path fill="#fff" d="M247 200l-14-9a552 552 0 00-14-9h7a241 241 0 006-3l21-16 9-11a86 86 0 0010-16v-15a175 175 0 01-20 28 90 90 0 01-16 14 79 79 0 01-16 9s-3 2-7 1a9 9 0 01-4-4c-1 0-2-4-1-8l5-5a9 9 0 005-2c1 0 4-2 5-12a66 66 0 001-14 100 100 0 00-4-29c-1-3-7-20-20-36l-13-12c-7-6-10-7-13-7l-10 5a94 94 0 00-14 14c-4 5-10 13-15 24 0 0-8 16-9 42l1 12c0 1 0 7 3 11l2 2 3 2h3c3 1 4 5 4 9l-1 5-7 4c-2 0-7 2-14 0l-8-4-18-14a336 336 0 01-16-15v12c7 9 17 20 32 28a102 102 0 0012 6l9-7a95 95 0 01-11 14c-6 6-12 13-22 17a46 46 0 01-19 3v11a50 50 0 0044-18l8-9-8 13c-5 9-9 17-11 27a84 84 0 00-2 18 103 103 0 002 16h11a81 81 0 01-1-17c1-8 1-21 10-34 8-11 19-17 25-19a50 50 0 00-7 8 50 50 0 00-8 16c3-4 9-10 18-13a54 54 0 0121-3l23 3a47 47 0 00-10-13 54 54 0 0134 40c3 14 0 26-1 32h12a65 65 0 00-5-54 82 82 0 00-18-22 69 69 0 0119 8c9 5 12 10 22 15 6 2 11 4 15 4v-9c-3-1-8-2-13-5l-12-9z"/><path fill="#231f20" d="M136 133a94 94 0 0010 2l9 2 5 6a29 29 0 014 8 76 76 0 01-17-2c-3-1-5-4-7-7a41 41 0 01-4-9zm50 18c5-11 10-14 12-14a246 246 0 0116-4 33 33 0 01-4 9l-6 7-11 2h-6zM60 228a27 27 0 01-2 0 33 33 0 01-16-12c-3-4-9-12-8-23a35 35 0 0111-24l-2-1a36 36 0 0111-7c7-3 14-3 17-3v4a30 30 0 00-10 0 32 32 0 00-20 14c-1 2-6 10-5 21 1 6 3 10 5 12a40 40 0 007 9 42 42 0 01-7-9 31 31 0 01-2-28c4-9 11-13 13-14a30 30 0 0119-4v15c-1 0-4-2-7-1l-4 3v48z"/><path fill="#231f20" d="M60 230a36 36 0 01-8-3l-7-6a41 41 0 01-12-24c-2-15 8-27 8-27s-8 8-9 21a38 38 0 0015 33 40 40 0 0013 7v-1z"/><path fill="#fff" d="M89 183a35 35 0 00-5-7c-1-2-6-7-12-9-8-3-18 1-24 7a30 30 0 00-8 25 30 30 0 0015 21v-10a20 20 0 01-4-5 21 21 0 01-3-11 24 24 0 018-17c1-2 5-5 10-6 5 0 10 2 13 4 5 2 8 6 10 8z"/><g fill="#231f20"><path d="M158 300c2-2 6-5 8-11a24 24 0 001-8h-25s0 3-3 6c-2 3-5 3-6 3h-27a37 37 0 0031 18v-2a30 30 0 0021-6zm2-6l1-1a4 4 0 01-2 1h-1 2zm-30 10a30 30 0 01-10-5h1a30 30 0 0030 2 28 28 0 01-8 3h-13z"/><path d="M167 290a36 36 0 01-9 11 36 36 0 01-9 5 37 37 0 0016-11 34 34 0 003-5h-1zm-18 16a47 47 0 01-5 2 37 37 0 005-2z"/></g><path fill="#fff" d="M152 265a16 16 0 00-8-4 14 14 0 00-8 3 14 14 0 00-5 6l6-3c1 0 6-1 10 1 3 3 4 6 3 10 0 1 0 9-7 14a22 22 0 01-18 5 22 22 0 007 3l6 1c2 0 9-1 15-7a21 21 0 005-14c0-1 1-10-6-15z"/><g fill="#231f20"><path d="M240 290a8 8 0 01-3 3 15 15 0 002-3h-27a15 15 0 01-3-4 15 15 0 01-2-6h-26a24 24 0 001 10l-1 1a38 38 0 004 5 38 38 0 0026 13 36 36 0 0013-3 36 36 0 0012-8l2 1 7-9h-5zm-44 13a31 31 0 01-12-12 35 35 0 0034 14c-3 1-12 3-22-2z"/><path d="M207 310a39 39 0 01-27-20h-1c0 2 9 18 28 20 12 2 22-4 24-6a37 37 0 01-25 6z"/></g><path fill="#fff" d="M205 290c-6-6-7-14-7-16 0-4 2-7 5-9 3-1 7 0 9 1a19 19 0 015 2c-1-1-3-5-7-7-1-1-5-3-10-2-5 2-7 7-8 8-2 4-2 8-2 11 0 4 1 12 7 17a20 20 0 0021 3 15 15 0 003-2c-1 0-9 0-16-6z"/><path fill="#231f20" d="M308 193c-1-13-9-21-11-23v-1a35 35 0 00-9-7 35 35 0 00-10-3l-1 19 5 1c3 3 4 6 6 10a38 38 0 012 8v30l7-6v-1a35 35 0 0011-27zm-5 13a29 29 0 01-6 10 38 38 0 005-9 38 38 0 003-13 29 29 0 01-2 11z"/><path fill="#231f20" d="M300 171a37 37 0 019 23c1 21-18 33-19 33 1 0 20-13 19-34a38 38 0 00-9-22z"/><path fill="#fff" d="M304 190a27 27 0 00-19-21 29 29 0 00-19 1c1 0 11-2 20 4a25 25 0 0110 16 130 130 0 011 22c1-1 9-10 7-22z"/><g><path fill="#707728" d="M220 163h1a5 5 0 011 2l-4 3a11 11 0 012-5zm-3 2a1 1 0 011 0 3 3 0 01-1 2 4 4 0 010-2zm-9 0a16 16 0 013 2 8 8 0 010 3 6 6 0 01-2-3 6 6 0 01-1-2zm18-28a20 20 0 010 6l-1 4a22 22 0 01-3 3 94 94 0 004-13zm2-5a99 99 0 001 1 24 24 0 01-2 6 32 32 0 011-7zm2-12a2 2 0 011 1v4a14 14 0 01-1-4zm0-7a9 9 0 012 3 6 6 0 010 2 6 6 0 01-1 1 43 43 0 01-1-6z"/><path fill="#636b24" d="M78 124l3 3-3-2z"/><path fill="#666e24" d="M138 272v-2a6 6 0 013-1 6 6 0 013 2l-1 1h-5zm6-6l2 4v-1h1a7 7 0 00-1-1 7 7 0 00-2-2z"/></g></g></switch></svg>