<svg xmlns="http://www.w3.org/2000/svg" viewBox="0 0 350 350"><switch><g><path fill="#fff" d="M290 290H127l-23-27 12 27H60V60h169l-8-19 16 19h53v188l-25-28 25 44v26z"/><path d="M281 70H70v211h36l-4-10-11-28 26 28 10 10h154v-22l-31-61 30 31V70z"/><linearGradient id="a" x1="79" x2="271" y1="79" y2="271" gradientUnits="userSpaceOnUse"><stop offset="0" stop-color="#165110"/><stop offset=".6" stop-color="#146604"/></linearGradient><path fill="url(#a)" d="M271 271H118l-27-28 11 28H79V79h192v140l-21-21 21 42z"/><linearGradient id="b" x1="84.6" x2="132.9" y1="243.2" y2="243.2" gradientUnits="userSpaceOnUse"><stop offset="0" stop-color="#08811b"/><stop offset="1" stop-color="#127612"/></linearGradient><path fill="url(#b)" d="M121 271v-2l-2-1c-2-3-1-5-3-7l-3-3-3-5c-1-3-2-2-6-7a88 88 0 01-2-4l-5-9-4-5-3-3-5-10c8 9 12 13 13 16l5 5 3 3 2 3 4 5 3 4 3 2 2 3 6 6 4 7a20 20 0 003 2h-12z"/><linearGradient id="c" x1="85.9" x2="168.5" y1="221.3" y2="221.3" gradientUnits="userSpaceOnUse"><stop offset="0" stop-color="#08811b"/><stop offset="1" stop-color="#127612"/></linearGradient><path fill="url(#c)" d="M152 271a8 8 0 01-2-1l-4-3-1-3v-1c0-2-1-3-3-5l-3-5-2-3-3-6-4-5a3845 3845 0 00-44-67l59 65c3 3 3 6 3 6l1 2 3 4 4 3 1 4 5 5 5 7 2 3h-17z"/><linearGradient id="d" x1="94.6" x2="214.9" y1="203.3" y2="203.3" gradientUnits="userSpaceOnUse"><stop offset="0" stop-color="#08811b"/><stop offset="1" stop-color="#127612"/></linearGradient><path fill="url(#d)" d="M95 136l100 135h20z"/><linearGradient id="e" x1="149.5" x2="271" y1="183.9" y2="183.9" gradientUnits="userSpaceOnUse"><stop offset="0" stop-color="#08811b"/><stop offset="1" stop-color="#127612"/></linearGradient><path fill="url(#e)" d="M263 271l-2-2-2-5-2-3c-5-5-13-28-24-38l-3-3c-4-4-6-9-7-11a1117 1117 0 00-64-96l-3-5-6-11s5 8 9 11l3 3 1 2c2 3 59 82 71 95l9 10 4 4 4 8 6 7 2 3 3 5 3 3 1 2 2 2 3 5v14h-8z"/><linearGradient id="f" x1="186.2" x2="271" y1="155" y2="155" gradientUnits="userSpaceOnUse"><stop offset="0" stop-color="#08811b"/><stop offset="1" stop-color="#127612"/></linearGradient><path fill="url(#f)" d="M271 216a157 157 0 01-3-4l-7-9-6-6c-2-4-2-8-5-9l-3-3-1-3-3-3-2-3-2-3c-5-4-10-19-15-26l-2-3-5-4-2-2a436 436 0 01-29-43 128 128 0 0134 37l6 5a79 79 0 0122 27l3 5 1 3c2 3 3 3 7 5l5 6 3 4a22 22 0 004 4v25z"/><linearGradient id="g" x1="253.9" x2="271" y1="103.5" y2="103.5" gradientUnits="userSpaceOnUse"><stop offset="0" stop-color="#08811b"/><stop offset="1" stop-color="#127612"/></linearGradient><path fill="url(#g)" d="M271 117a27 27 0 01-2-2l-4-6-3-3a27 27 0 01-3-5 390 390 0 01-5-11c4 2 6 5 6 6l4 6 1 1 4 5a9 9 0 002 2v7z"/><path fill="#fff" d="M236 207l2 3 1 3 2 4a6 6 0 010 2l1 1 2 3 1 1h-1l9 19-1-1 1 2 2 1 2 4 1 4 1 3 2 3-2 6a41 41 0 01-2 3v2l-2 3-2 4-2 3-1 3-22 12-3 2-3 1h-1l-1 1a2 2 0 010 1 14 14 0 01-4 1l-3 1-1 1-2 1-3-2-8-8 2-2-2-1-1 2a80 80 0 00-10-11v-1h-2l-2-2a22 22 0 000-4 5 5 0 01-2 0 5 5 0 010-1 5 5 0 010-2 2 2 0 01-1 1 3 3 0 000-2l-2 1-1-1a5 5 0 01-1-2 5 5 0 011-2 7 7 0 01-1-2l-2-3-1-2-2-5-2-3a7 7 0 010-3 2 2 0 01-1 0 2 2 0 01-1-1 3 3 0 010-1 9 9 0 00-1-3l-4-2-10-5-12-3 2 1a29 29 0 01-2 0c-2 0-5 1-9-1-2 0-3-2-4-3l-12-7-19-11a97 97 0 008 6l16 10 5 3-21-12-11-7a110 110 0 00-15-8l4 3 4 3-6-3-13-7-8-5-5-5a121 121 0 00-10-14 361 361 0 0021 4 67 67 0 00-2-2l-5-6a72 72 0 01-6-7l8 3 3 1-1-2-9-12a79 79 0 01-4-6 113 113 0 017 3l7 3v-1l-1-4a11 11 0 01-1-4l4 3-1-2a213 213 0 00-3-5l-6-15 5 5v-1l-7-13 4 3 13 11 6 5a69 69 0 005 4 7 7 0 01-1 0 7 7 0 01-2-1l27 24 4 4-7-4a3994 3994 0 01-13-10 64 64 0 0013 11l15 11a8 8 0 013 4 929 929 0 0025 20l-6-11a162 162 0 01-7-10l-15-27-6-13-3-6-5-8-6-12v-5a3 3 0 01-1 0l-2-3-2-3-2-4h2l-1-2-5-6a48 48 0 01-5-8 37 37 0 01-2-6l-5-2a227 227 0 0112 4l10 3a69 69 0 008 2l1 2h3c1 1 1 2 3 2h3l3 1 6 3 12 5 13 5 6 19 2 9 1 3a8 8 0 010 3 71 71 0 017 15 56 56 0 01-2-1 68 68 0 01-11-7 299 299 0 01-8-6l4 6 2 3v2l1 1c2 0 2 2 3 4l6 7 1 1c5 4 6 8 10 9h1l-1-7-5-17c-1-4-3-9-3-16a46 46 0 010-8l2-12c3-12 1-14 6-35l2-18a66 66 0 00-1-7l3 1v-1l-3-5h2l-1-2a36 36 0 01-5-12 11303 11303 0 0145 39l2 1 1 1v4l2 7 3 5c1 3 2 5 1 8l-3 5a9 9 0 000 4 51 51 0 00-3 11l-1 6-4 11-2 9-1-2v-3c1-2 0-2-2-6l-3-6-1-6-2-3c-2-4-1-7-1-7l-2 6-2 13-1-1-1 4 3 3 1 4 4 7v3l4 7 5 11a6 6 0 001 0 7 7 0 003-1h-3a24 24 0 003-3l3-5a48 48 0 006-14l2-4 1-2c2-2 1-4 2-6l3-1 1-4h-1l3-6 5-9a10 10 0 014-1 304 304 0 00-1-25 622 622 0 015 8l-3-3 4 7h1l2 2c1 3 3 3 5 6 1 2 0 3 2 5l2 5 6 7c0 1 2 5 1 8a5 5 0 01-1 0l1 3v6l1 2c2 4 0 8 1 8h1c1 1-1 3-1 4-2 2-2 4-2 7l-6 17c-3 9-2 15-4 15l-2-10a147 147 0 01-3-21l-1 1v-2l-1-5-2 3-3 2-2 6-3 9-3 12c-2 8-2 12-4 13v3l1 1-3 1h2v3l-2 2-1 4-3 5-1 2-3 3-1 4-5 3a26 26 0 000 4l1 6-2-2 1 3 1 8 1 2h-2a3 3 0 001 2l2 1-1 1h-1l1 1a3 3 0 001 0l1-1v3l3 2-2 2 2 1 1-3a42 42 0 003-3l2-2v-5l-1-2 1-1v-6-2h1v-5l1-2v-5h1a15 15 0 010-5l1-3c1-5 2-5 1-6l-1-2h2v-2a35 35 0 000-3z"/><path d="M247 100l4 8 6 10a144 144 0 004 6 1259 1259 0 014 27 224 224 0 01-8 25l-3-17-2-12a106 106 0 00-13 15 37 37 0 01-1 5l-3 9-1 7-5 20c-1 2-4 10-9 15l-6 9a14 14 0 00-1 1 16 16 0 00-1 8 52 52 0 006 26 46 46 0 002 4l-3 1-6 4a183 183 0 0010-2c3 0 3-2 6-4a48 48 0 016-4 60 60 0 010-8l1-7 3-20 1-5 3 8 9 18 3 8c1 2 3 3 3 5l-2 5-4 7-2 6a53 53 0 01-2 3 1108 1108 0 00-35 18l-24-25a782 782 0 01-19-37 263 263 0 00-7-2l-13-4a359 359 0 01-18-5l-62-37 21 3a47 47 0 00-3-3 48 48 0 00-9-7l6 2-1-2-6-8-9-12a114 114 0 017 3c3 2 4 3 5 2s-2-4-1-5l4 3c1-1-2-5-5-11a111 111 0 01-4-10 150 150 0 017 6l14 12 22 19 11 10 24 18 4 9 6 5v-1-1l-5-11-10-16-13-22-6-8a1726 1726 0 00-29-61 8 8 0 004-1 104 104 0 01-15-17 167 167 0 0015 4l17 4a4979 4979 0 0126 13 625 625 0 0013 37 293 293 0 00-25-16 2052 2052 0 0017 29 183 183 0 0019 21c2-1 6-1 8-4l1-5c-2-11-7-25-8-28a144 144 0 01-3-12 614 614 0 003-17l3-20 3-15 2-13a49 49 0 000-5 8 8 0 004 2 22 22 0 000-1l-1-3a85 85 0 01-3-10 5476 5476 0 0114 12l12 10a183 183 0 008 5 51 51 0 001 6l4 12 1 4-9 32a83 83 0 01-5-11l-4-13a74 74 0 00-3-7l-8 36 16 35 3 3c3 1 7-1 9-4a350 350 0 007-12l11-22 8-18a9 9 0 004-2 189 189 0 01-1-7l1-5z"/></g></switch></svg>