<svg xmlns="http://www.w3.org/2000/svg" viewBox="0 0 350 350"><switch><g><path d="M290 290H127l-22.9-26.6 12 26.6H60V60h168.9L221 41.4 236.5 60H290v188l-24.6-28.5 24.6 44.6V290z" fill="#fff"/><path d="M280.5 69.5h-211v211h36l-3.9-9.5c-3.2-8.9-7.4-19.4-10.7-28.2 8.5 8.7 18 19.1 26.4 27.8l9.4 9.9h153.8V259l-30.3-61 30.3 30.9V69.5z"/><linearGradient id="a" gradientUnits="userSpaceOnUse" x1="79" y1="79" x2="271" y2="271"><stop offset="0" stop-color="#165110"/><stop offset=".6" stop-color="#146604"/></linearGradient><path fill="url(#a)" d="M271 271H117.6l-26.7-28.2 10.7 28.2H79V79h192v140.2L250.2 198 271 240z"/><linearGradient id="b" gradientUnits="userSpaceOnUse" x1="84.6" y1="243.2" x2="132.9" y2="243.2"><stop offset="0" stop-color="#08811b"/><stop offset="1" stop-color="#127612"/></linearGradient><path d="M121.4 271c-.2-.4-.4-1-.9-1.7l-1.3-1.8c-1.8-2.2-1.5-4.1-3.5-6.7-1-1.3-1.2-.9-2.5-2.4-1.7-2-1.7-3-3-5.4-1.6-2.9-2.4-2.5-5.8-7.3a87.6 87.6 0 01-2.8-4c-2.8-4.5-2.5-5.2-4.7-8.3l-4-5c-.8-1-2.2-2.6-3-3.8-1.5-2-3.4-5-5.3-9.1 8.5 8.4 12 12.7 13.7 15.1 1.1 1.6 2.2 3.4 4.4 5.5.9.8 2 1.7 3.4 3.4l1.9 2.4 3.6 4.8c2.4 3.1 3 3.6 3.4 4 1.3 1 1.7 1 2.8 2 1.3 1.3 1.7 2.4 2.5 3.7 1.7 2.9 2.7 2.2 5.3 5.3 2.3 2.8 2 4 4.5 6.8a20.3 20.3 0 002.8 2.5h-11.5z" fill="url(#b)"/><linearGradient id="c" gradientUnits="userSpaceOnUse" x1="85.9" y1="221.3" x2="168.5" y2="221.3"><stop offset="0" stop-color="#08811b"/><stop offset="1" stop-color="#127612"/></linearGradient><path d="M152.1 271a7.7 7.7 0 01-1.7-.6c-.7-.3-1.2-.7-4-3.5-1-1.2-1.4-1.7-1.6-2.4-.2-.8 0-1.2 0-2 0-1.5-1.2-2.2-2.7-4.3-1.4-2-.9-1.9-3.1-5.6l-2-3-3.4-5.4-3.2-5.3A3845 3845 0 0086 171.6c32.8 35.7 56.5 62.1 58.7 65 2.9 3.7 3.5 6.3 3.5 6.3l.6 1.9c.7 1.4 1.6 2 3.6 3.8 1.9 1.6 2.8 2.5 3.2 3 1.2 1.9.5 2.9 1.5 4.6 1.5 2.6 2.8 2.2 5.3 5 1.2 1.5 1 1.6 4.3 6.9l1.9 2.9H152z" fill="url(#c)"/><linearGradient id="d" gradientUnits="userSpaceOnUse" x1="94.6" y1="203.3" x2="214.9" y2="203.3"><stop offset="0" stop-color="#08811b"/><stop offset="1" stop-color="#127612"/></linearGradient><path fill="url(#d)" d="M94.6 135.7L195.1 271H215z"/><linearGradient id="e" gradientUnits="userSpaceOnUse" x1="149.5" y1="183.9" x2="271" y2="183.9"><stop offset="0" stop-color="#08811b"/><stop offset="1" stop-color="#127612"/></linearGradient><path d="M262.6 271c-.3-.5-.9-1.2-1.4-2.3-1-2-1-3-1.8-4.7-.9-1.5-1.9-2.3-2.4-2.8-5.3-5-13-28-24-37.9l-2.9-2.8c-4.5-4.9-6.6-9.6-7.3-11-7.8-16.7-55.6-86.9-60.7-92.8-.2-.2-1.5-1.7-3-3.8-1.5-2.2-2.5-4-2.9-4.7-3.5-6.4-7-11.1-6.7-11.3.3-.2 5.7 7.8 9.3 11 .3.3 1.7 1.5 3.2 3.4l1.4 1.8c2 2.7 58.5 82.3 70.5 95.2l8.8 9.8c1.5 1.7 2.5 2.7 3.8 4.4 2.7 3.7 2 4.4 4.7 7.6 2 2.3 3.4 3.5 5.3 6.6l2 3.3c.7 1.2 1.8 2.8 3.4 4.6 1.9 2.1 2.3 2 3 3.4.4.7.6 1.5 1.4 2.4.7.8 1.3 1.1 1.7 1.4 1 .7 2.1 2 3 4.7V271h-8.4z" fill="url(#e)"/><linearGradient id="f" gradientUnits="userSpaceOnUse" x1="186.2" y1="155" x2="271" y2="155"><stop offset="0" stop-color="#08811b"/><stop offset="1" stop-color="#127612"/></linearGradient><path d="M271 215.5a156.6 156.6 0 01-3.4-4c-3.4-4-4.1-5.4-6.7-8.4-4.2-5-4.1-3.6-5.6-6-2.7-4.5-2-7.6-5-9.5-.7-.5-2-1-2.9-2.5-.8-1.2-.5-1.6-1.3-2.7-1.2-1.8-2.3-1.4-3.5-3.1-.8-1.1-.5-1.5-1.4-3-1-1.9-2.2-2.8-2.7-3.3-4.4-4-10-19.3-14.8-26-.7-1-1.2-1.8-2-2.6-2-2-3.3-2-4.8-4-.8-.9-.6-1-1.5-2.7-1.6-2.7-3.5-4.3-4-4.8-1.8-1.8-8.3-11.3-25.2-38.3 19.8 17 26.8 25.2 28.8 29.4.3.8 2 4.5 5.4 8.3 2.3 2.5 4.4 4 5.4 4.8a79 79 0 0122.5 27c.2.5.8 2.5 2.2 5.1.6 1.1 1.1 2.1 1.9 3.2 1.8 2.4 3 2.3 6.2 5 1.2.9 3.4 2.7 5.3 5.4 1.4 2 1.5 2.7 3 4.5a22 22 0 004 4v24.2z" fill="url(#f)"/><linearGradient id="g" gradientUnits="userSpaceOnUse" x1="253.9" y1="103.5" x2="271" y2="103.5"><stop offset="0" stop-color="#08811b"/><stop offset="1" stop-color="#127612"/></linearGradient><path d="M271 117a26.7 26.7 0 01-2.1-2.5c-1.8-2.3-2-3.4-3.6-5.5-1.2-1.6-1.4-1.4-2.8-3a26.9 26.9 0 01-3.3-5.3 389.8 389.8 0 01-5.3-10.6c4 2.1 5.7 4.4 6.5 6.1.5 1.3 1.4 3.8 3.7 5.6l1.1.8c2 1.7 2 3.3 3.6 5.2a9 9 0 002.2 1.8v7.4z" fill="url(#g)"/><path d="M235.5 207c1 .6 2.2 1.5 2.8 3 .5 1.1.2 1.4.7 2.9.7 2 1.7 2.4 2 4.2a6 6 0 010 2.3c.7 0 1 0 1.3.2.9.5.9 1.5 1.9 3.4l.5 1-1.2.3 9.9 18.2c-.2.1-.5.3-.8.2-.4 0-.7-.3-.8-.3 0 .1.2 1 .8 1.5.8.7 1.5.3 2.3.7.9.5.8 1.4 1.8 4.3.8 2.2 1 2 1.6 4 .6 1.7.5 2 1 3.6.9 2.1 1.1 2 1.3 2.8.1 1.4-.6 2.7-2 5.2a41.3 41.3 0 01-2 3.3c.2.6.3 1.5.1 2.5-.3 1.2-.9 1.4-1.7 2.8-1.2 2-.7 2.7-1.8 4.2-.4.6-1.2 1.5-2.7 2.3l-.6 3.1-21.7 12-.7.7c-.9.8-1.4 1-2.9 1.8-1.6 1-1.8 1.2-2.5 1.2s-1.2-.2-1.6-.3c0 0 .2.7-.1 1.3a1.5 1.5 0 01-.7.5 13.8 13.8 0 01-3.5 1.2c-1.2.2-1.9.1-2.8.7l-1.6 1.3c-.7.5-1 .7-1.4.8-1.4.4-3-1.5-3.7-2.1-1.8-2-4.2-4.5-7.4-7.6.9-.2 1.4-1.2 1.2-2-.1-.8-.8-1.4-1.7-1.4 0 .6-.3 1.8-.9 2a80 80 0 00-10.4-10.7c0-.3.2-.6 0-.9-.2-.4-1-.4-1.5-.6-.6-.2-1.4-.8-2-2.1a22.4 22.4 0 000-3.9 5.2 5.2 0 01-1.9.3 5.2 5.2 0 01-.1-1 5.2 5.2 0 01.1-1.6 2.2 2.2 0 01-1 .3 2.8 2.8 0 00-.3-1.3c-.6.6-1.4.7-2 .5-.5-.3-.7-.7-.8-.8a5 5 0 01-.6-2 5 5 0 01.5-2.5 7.1 7.1 0 01-1.4-1.3c-.6-.7-.8-1.2-1.5-2.7l-1.2-2.5c-1.4-3.2-1-3.6-2.1-5.4-.8-1.3-1.1-1.4-1.5-2.4a7.1 7.1 0 01-.3-3.5 2.2 2.2 0 01-1 .2 2.2 2.2 0 01-1.3-.5 2.6 2.6 0 01.7-1.6 9 9 0 00-1.5-2.4c-1.5-1.8-3.4-2.4-4.3-2.8-5-1.8-4.4-2.8-9.7-4.8-2.8-1-7-2.2-12.3-2.5l2 1.1a28.5 28.5 0 01-2 .1c-1.4 0-5 .2-8.3-1-2.2-.8-3.4-2-4.7-3-2.6-2-3-2-12-7l-18.3-11a97 97 0 007.8 5.6c5.6 3.6 9 4.8 16.4 9.5 1.9 1.2 4.8 3 4.7 3.2-.2.3-10.6-5-21.2-11.5-3.3-2-2.8-1.9-11.4-7.2a110 110 0 00-14.3-8.5c-.2.2 3.5 3 3.9 3.3 2.5 1.9 4 2.7 4 2.9-.2.2-4.5-1.8-5.9-2.5-6.8-3.3-7.5-4.1-13.7-7.3-4.7-2.3-5.9-2.7-8-4.5-2.3-2.1-3.6-4.2-4.5-5.6a121 121 0 00-10-13.5A361.3 361.3 0 0066 181a67.2 67.2 0 00-1.7-2.2c-2.4-2.8-4.2-4.5-5.6-5.9a72 72 0 01-6-6.8c4.1 1 7 2.3 8.8 3.3.7.4 2.3 1.3 2.5 1 .3-.3-.7-1.5-1-2-3.2-3.9-6-8.1-9-12.2a79.1 79.1 0 01-4.3-6.7 113 113 0 017.3 3.6c3.9 2.1 6.6 3.9 7.2 3.2.1 0 .1-.2-.2-1.5l-1.3-4.3a10.7 10.7 0 01-.3-3.2c1.3 1.2 3 2.5 3.2 2.2.2-.1-.1-.7-.4-1.2a213 213 0 00-3-5.6l-6.5-14.3c2.3 2.2 5 5 5.4 4.7.2-.2-.3-1-.6-1.5-4.2-7.2-7.1-12.1-6.6-12.6.3-.2 1.7 1 4.5 3.2 9.4 7.6 9.6 7.3 13 10.6 2.2 2 2.8 2.9 5.2 4.9a68.8 68.8 0 005.6 4.4 6.5 6.5 0 01-1.3-.1 6.5 6.5 0 01-2.2-.9c13.8 11.9 22 19.1 26.9 23.5 1.4 1.3 5 4.4 4.7 4.7-.1.2-2.7-1.7-7-4.8a3993.8 3993.8 0 01-13.1-9.6 64 64 0 0012.6 10.7c1 .6 5.7 4.2 15.3 11.3a7.7 7.7 0 013 4.5 929 929 0 0024.7 19.8l-5.9-11.2a161.7 161.7 0 01-7.2-10.5c-5.8-9-5.5-10.6-14.3-26.3-3.3-6-5-8.8-6.8-13.5-.7-1.7-1.3-3.5-2.6-6.2-1.2-2.3-1.8-3-5-8-4.4-7-5.4-9-6-11.8-.4-1.9-.4-3.4-.4-4.5a2.8 2.8 0 01-.8-.3c-1-.5-1.3-1.5-1.8-2.7-.5-1-.2 0-1.8-3-2.1-4.2-2-4.6-1.9-4.7.5-.3 2 .9 2.1.6.2-.3-1.1-1.7-1.3-1.9l-5-6.4a47.8 47.8 0 01-5.1-8 37 37 0 01-2.5-6.3l-4.2-2a227.3 227.3 0 0111.7 4.1c3.8 1.5 6.1 2.5 10 3.5a68.5 68.5 0 007.7 1.7c.1.9.5 2 1.3 2.4.8.4 1.3-.2 2.5 0 1.5.4 1.5 1.4 3 1.9 1.3.4 1.8-.3 3.5 0 1.2.2 2 .7 2.7 1 1.7 1 2.2 1 6.2 2.5 3 1 5 2 12.2 5l12.7 5.2c.4 1.1 3.8 11 6.2 19.4 2.1 7.2 1.6 7 2.4 8.5.2.5.9 1.9 1 3.7a7.7 7.7 0 01-.4 2.2 70.5 70.5 0 016.7 15.2 55.6 55.6 0 01-2-1 68.4 68.4 0 01-10.7-7 298.7 298.7 0 01-8-6.1c1.2 3.5 2.6 5.3 3.8 6.3.6.6 1.7 1.4 1.8 2.7.1 1-.3 1.7.2 2.3.4.4.9.4 1.4.5 1.4.4 1.9 2.1 2.8 4.2.8 1.5 2.5 5 5.7 7.3.8.6.7.4 1.7 1 5.1 3.5 5.6 8 9.5 9.3.5.1.8.2 1.1 0 1.3-.8.1-5.1-.6-7.6-2.4-8.3-4.6-14.8-5.3-16.6-1.2-3.7-2.6-9-3-16a46.2 46.2 0 01-.3-7.7c.2-6.1 1.6-10.6 2-12.3 3.7-12.2 1.3-14.4 6-35.5.9-4 2.2-9.5 2.1-17.2a66 66 0 00-.5-7.8c1 1 2.2 2 2.6 1.8.4-.2 0-1.4 0-1.8-1-3-3.2-4.7-3-5.1.3-.3 1.5.4 1.8 0 .2-.3 0-.7-.4-1.3a35.5 35.5 0 01-5.7-12.6 11303.1 11303.1 0 0145.5 39.5c1.5-.2 2 .2 2.3.5.2.3 0 .6.1 1.5.1.8.4 1 .6 1.7.2 1 0 1.7-.1 2.2-.3 1.3.2 2.7 2.1 6.7 2.4 5 2.4 4.3 2.8 5.6.9 2.5 1.7 4.8 1 7.3-.8 2.4-2.4 3-2.9 5.7a8.9 8.9 0 000 3.2 51.4 51.4 0 00-3 11.3c-.4 3-.2 3.4-.7 5.9-1 5.3-2.5 5.7-4 11.1-1.5 5.2-1.4 9.1-2.3 9.1-.4 0-.9-1-1-1.6-.4-1.4.2-2.2.3-3.3.2-1.6-.6-2.3-2.3-5.7-1.4-2.6-2-4-2.6-6-.9-2.7-.6-3.8-1.8-6.5-.7-1.6-1-1.4-1.5-2.8-1.7-3.7-1-6.8-1.5-6.8-.3 0-1 2-1.7 6-1.3 7.1-1.3 12.8-2.1 12.8-.4 0-.7-1.5-1-1.4-.5 0-.5 2.2-.5 4.3.9.5 2 1.5 2.7 3 .8 1.4.4 1.9 1 3.8 1 3.5 3 4 3.7 7.5.3 1.2 0 1 .3 2.4.6 3.7 2.8 6.3 3.7 7.4 1.7 2.2 3.6 5.7 4.8 11.3a6.3 6.3 0 001.2-.2 6.7 6.7 0 003-1.6h-2.7a23.5 23.5 0 002.8-2.7c1.5-1.8 2.4-3.4 3.4-5.3a47.7 47.7 0 006-13.1c0-.8.1-2.9 1.5-4.7.6-1 .8-.7 1.3-1.5 1.7-2.3.5-4.5 2-6.2.4-.6 1.2-1.2 2.8-1.5 1-1.7 1.9-3.6 1.4-4-.4-.3-1 .2-1.3 0-.5-.5 1.2-2.8 2.6-5.2 3.1-5.2 3-7 5.5-8.9a10.3 10.3 0 013.5-1.6A304.3 304.3 0 00242 85a622.3 622.3 0 015.4 8.4l-3.2-3 3.6 6.4 1.1.3c1.2.5 1.7 1.7 1.9 2.1 1.3 3 3.5 2.7 5.2 6.2 1 2 .4 2.2 1.5 4.8 1 1.9 1.9 3 2.8 4.3 1.3 1.7 3.2 4.3 5.2 7.7.7 1.2 2.4 4.5 1 7.4a5.4 5.4 0 01-.4.8c.4.5 1 1.3 1.2 2.4.6 2.2-.4 3.5.1 5.9.3 1.4.6 1.1 1 2.7 1.2 3.9-.3 7.3.9 7.8.3.2.6 0 .8.2.5.5-.7 2.4-1.3 3.2-1.5 2.5-1.4 4.2-2.3 7.7-1.5 6.5-3.8 8.8-6 16.4-2.6 9-2 14.9-3.2 14.9-1 0-2.1-6-2.8-9.5a147 147 0 01-2.1-21.4c-.5.9-1.2 1.8-1.5 1.7-.4-.2-.3-1.1-.4-2.7-.1-1.8-.5-4.7-1-4.8-.5 0-.5 1.8-2 3.4-.9.9-1.4 1-2.2 1.6-1.8 1.4-2.1 3.7-2.5 5.7-.9 4-1.6 3.3-3.3 9-1.3 4.3-.5 3.7-2.4 12.4-1.7 8-2.5 12-3.6 13.4-.2.2-1.3 1.4-1 2.3.3.5.9.6 1 1 0 .3-.5.8-2.3 1.5l2.1.2c.1.6.2 1.5-.2 2.4-.5 1.3-1.5 1.4-2.3 2.6-.9 1.5.1 2.1-.6 4.1-.7 2-2 1.7-3 4.1-.7 1.5-.3 1.8-1 2.9-1 1.4-1.8 1.2-2.8 2.5-1 1.4-.6 2.3-1.3 3.6-.6 1.1-1.8 2.5-4.9 3.3a26.4 26.4 0 000 4.6c.3 3 1 5.3.7 5.4-.3.1-1.1-2.1-1.5-2-.1 0-.3.3.2 3.6.5 4.1.8 6.2 1.6 7.4.4.7 1 1.3.8 1.8-.3.3-1.2.3-1.9.1a3.4 3.4 0 001.3 2.2c.7 0 1.3.3 1.5.9 0 .5-.2 1-.5 1.2-.5.2-1 0-1.1.1 0 .2 0 .5.6 1.2a2.5 2.5 0 001.2-.5l.5-.5c.4 0 .1 1.5.8 2.7.8 1.3 2 1.2 2.2 2 0 .5-.1 1.3-1.5 2.4.1 0 1 .6 2 .2.8-.5 1.2-1.8.6-3a42.4 42.4 0 003.8-2.5c1.3-1 2-1.6 2-2.4 0-.3-.2-.3-.5-.9-.7-1.3.2-2-.2-3.8-.3-1-.9-1.4-.6-2 .2-.4.7-.5 1.1-.6.6-3 .3-5-.1-6.3-.2-.5-.7-1.6-.2-2 .3-.4 1-.2 1.5 0-1.4-3.5-1.1-5-.5-5.6.5-.4 1.3-.6 1.4-1.2.1-.6-.3-1.1-.6-1.5v-4h1.3a14.5 14.5 0 010-4.7l1-3c1.4-4.7 1.5-5.5 1-6.4-.3-.8-1-1.4-.8-1.7.2-.3.8-.2 1.4 0v-2.4a35.1 35.1 0 000-2.7z" fill="#fff"/><path d="M246.6 100.3c.6-.2 1.6 2.6 4 7.3 2.4 4.4 4.6 7.7 6.6 10.6a144.3 144.3 0 004 5.8 1258.5 1258.5 0 014.2 26.6 223.7 223.7 0 01-8.2 25.3l-3.3-17.4-2.2-11.7a105.5 105.5 0 00-12.4 15.1 37.4 37.4 0 01-1 5.1c-1.1 3.8-2.2 5.3-3.3 8.7-.9 2.8-1 4.7-1.4 7.1-.5 3.4-1.8 11.8-4.7 19.8-1 2.5-4 10.8-8.5 15.8-2.7 3-3.9 4.7-6.3 8.2a13.7 13.7 0 00-1 1.6 15.7 15.7 0 00-1.4 7.9 51.6 51.6 0 006 26 45.5 45.5 0 002.5 4c-.8.2-2 .6-3.2 1.2-2.8 1.3-5.7 3.2-5.5 3.6a182.8 182.8 0 0010-1.5c2.1-.8 3-2 5.5-4a47.5 47.5 0 016-4.2 60.2 60.2 0 01.1-8.2c.2-2.4.5-3.8 1-6.8 1.4-9 1.2-9 3.1-20.5l.7-4.4 3.3 7.5c4.6 9.8 6 11 8.8 18 1.8 4.5 1.7 5.3 3.2 7.7 1.3 2.2 2.5 3.4 2.5 5.4 0 .8-.1 1.5-1.7 4.8-2.2 4.7-2.5 4.7-3.6 7.3-1 2.4-1 3-2.3 5.7a53 53 0 01-1.8 3.5 1107.5 1107.5 0 00-35 17.4l-24.7-24.2a781.7 781.7 0 01-18.1-37.3 263.2 263.2 0 00-7.3-2.3c-5.9-1.8-10-2.8-13.1-3.6a358.6 358.6 0 01-17.8-5.1l-62.7-36.8 21.5 2.7a47 47 0 00-3.4-3.5 47.6 47.6 0 00-9-6.6c2.8 1.2 6.2 2.6 6.6 2 .3-.4-.5-1.4-1.1-2-2.3-2.6-4-5.7-6.2-8.4-2.2-2.5-5.1-6.2-9.4-12a113.8 113.8 0 017.4 3.7c2.6 1.4 4.5 2.6 5 2 .8-.8-1.7-4.3-1.1-4.8.7-.6 3.9 3 4.5 2.5.6-.5-2.3-5-5-10.6a110.9 110.9 0 01-4.5-9.9 150.3 150.3 0 017.3 5.5c6 4.9 9 8 13.5 12.2 7.3 7 7.4 6 22 18.7 6.7 5.7 6.4 5.7 11.2 9.8 5.4 4.7 13.4 11.3 23.8 18.8l4 8.2c4.4 4.9 5.7 5.4 6.1 5.1.1 0 .5-.3.6-.7 0-.5-.2-.8-.3-1-2.4-3.3-3.2-7.7-5.5-11.1-3.3-5-6-10.3-9.2-15.4-10.1-16.7-9.6-17.3-13.5-22.5-.9-1.2-3-4.1-5.4-8.3a1726.2 1726.2 0 00-29.7-61 8 8 0 004-.7 103.9 103.9 0 01-14.3-16.7 167.1 167.1 0 0014.8 4c7.8 1.7 10.6 1.8 16.4 3.9a4979.3 4979.3 0 0126.3 12.7 624.7 624.7 0 0013.5 36.7 292.8 292.8 0 00-25.6-16 2052.3 2052.3 0 0017 29.8 183.2 183.2 0 0019.5 20.2c1.6-.1 6-.5 7.8-3.6 1.2-2 .8-4 .7-5.3-1.8-10.8-6.4-24.4-7.6-28.1a144.1 144.1 0 01-3.1-11.4 613.5 613.5 0 003-16.8c1.6-10.2 1.5-11.7 3-20l2.8-15c.8-3.6 1.8-7.6 1.8-13.1a49.4 49.4 0 00-.2-5.4 7.7 7.7 0 004.9 2.5 21.6 21.6 0 00-.2-1c-.5-2-1-3.5-1.2-3.8a85 85 0 01-2.9-9.2A5475.7 5475.7 0 01192.4 58c4.7 3.9 7.7 6.3 12 9.5a182.9 182.9 0 007.5 5.1 50.8 50.8 0 001.4 6.9c1.1 4 2.2 6 3.6 11l1 4-9 32.5a82.6 82.6 0 01-4.6-11.1c-1.6-4.9-2-7.7-4-12.9a74.4 74.4 0 00-3.3-7.4l-8 36 15.9 35.8c.6.8 1.6 2 3.3 2.5 3 1 6.8-.7 9.2-4.3a350 350 0 006.6-12c1.5-2.8 4-7.7 10.8-22l7.9-17.2a9.2 9.2 0 004.2-2.3 188.8 188.8 0 01-.5-6.7c-.2-4.4-.1-5 .2-5.1z"/></g></switch></svg>