<svg xmlns="http://www.w3.org/2000/svg" viewBox="0 0 350 350"><switch><g><path d="M290 290H60v-52.8L31.4 169 60 181.2V60h100.1l13.1-34.2L186.6 60H290v120.6l29.2-12.3-29.2 68.5V290z" fill="#fff"/><path d="M70 70h210v210H70z"/><radialGradient id="a" cx="175" cy="175" r="125.6" gradientTransform="matrix(1 0 0 1.0153 0 -2.7)" gradientUnits="userSpaceOnUse"><stop offset=".3" stop-color="#d04011"/><stop offset=".5" stop-color="#cd3f11"/><stop offset=".6" stop-color="#c43c11"/><stop offset=".8" stop-color="#b43811"/><stop offset=".9" stop-color="#9e3111"/><stop offset="1" stop-color="#812911"/><stop offset="1" stop-color="#7c2711"/></radialGradient><path fill="url(#a)" d="M78 78h194v194H78z"/><path d="M101.9 78a626.3 626.3 0 0026.8 74.8h19A616.7 616.7 0 01122.6 78h-20.7zm127.3 0a321.8 321.8 0 01-23.8 67.8l21.1-.5L249.7 78h-20.5z" opacity=".2"/><path d="M78 266.6a880.1 880.1 0 00194 .1v-23H78v22.9z" opacity=".1"/><radialGradient id="b" cx="175" cy="175" r="132.2" gradientTransform="matrix(1 0 0 1.0153 0 -2.7)" gradientUnits="userSpaceOnUse"><stop offset=".3" stop-color="#d04011"/><stop offset=".5" stop-color="#cd3f11" stop-opacity=".7"/><stop offset=".6" stop-color="#c43c11" stop-opacity=".5"/><stop offset=".8" stop-color="#b43811" stop-opacity=".3"/><stop offset=".9" stop-color="#9e3111" stop-opacity=".2"/><stop offset="1" stop-color="#812911" stop-opacity="0"/><stop offset="1" stop-color="#7c2711" stop-opacity="0"/></radialGradient><path fill="url(#b)" d="M78 78h194v194H78z"/><path d="M173.6 41a337 337 0 01-3.5 12.8c-3 10.3-4.5 15.4-6 17-.7.8-3 3.1-3.6 6.5-.2 1.4 0 2.7.1 2.8.2 0 .3-1.5 1.1-1.8.5-.1 1 .2 1.3.6.7 1-.2 3-1.4 3.3-.5.2-.7 0-1.1.1-.7.4-.4 1.3-1 2.5-.7 1.6-2.2 2-2 2.8.2.4.4.3.7.7.6 1-1 2.6-2 4.9-1.1 2.4-.2 2.5-1.4 5.5-1 2.3-1.5 2.4-2.3 4.7-.6 1.8-.3 1.9-.9 3.9-.8 2.6-1.4 3-2 5-.3 1.1-.6 2.7-.4 4.9a9 9 0 01-.8-.6c-1.3-1.2-2-2.4-2.1-2.8-1.9-3.3-6-5.6-6.1-8l-.1-1.4c-.2-1.3-.2-1.6-.5-1.8-.3-.4-.7-.3-1.2-.5-.5-.3-1-.9-1.6-3-1-3.4-.3-3.6-1-5-.3-.5-1-1.5-.7-2.3 0-.2.2-.4 0-.6 0-.2-.7.1-1.3-.1-.4-.2-.3-.6-.8-1-.7-.6-1.1-.2-1.5-.7-.4-.5 0-1-.3-2l-.7-1.2c-.2-.5-.5-1-.7-1.9a7.4 7.4 0 01-.3-2 2.5 2.5 0 00-1.2.5c-.7.6-.7 1.4-1 2.6-.4 1.2-.6 1-1.2 2.5-1.1 2.6-.6 3.4-1.7 4.5-.5.5-1 .6-1.2 1.3-.4.9 0 1.5-.5 1.9-.6.4-1.5-.2-1.8.2-.4.5.5 1.4.2 2.3-.3.7-1 .8-1.5 1.2-1.2.7-1.7 2-2.8 4.8-1.1 2.8-.7 2.7-1.6 4.5-1 2-1.5 2-2 3.7-.4 1.1-.5 2-1.1 3.5l-.9 1.6c-1.4 2.4-2.5 2.4-3 4-.3 1 .2 1.2-.1 3-.3 1.2-.6 1.1-.8 2.2-.4 2.2.7 2.7.1 4.5-.3 1-.7 1-1.2 2.5-.2.8-.2 1.4-.6 1.6-.4.1-1-.5-1.1-.6-.7-.8-.7-1.7-.8-2.6-.2-.9-.5-1.7-1.2-3.3l-3.3-5.7c-.5-.8-.8-1.3-1-2-.4-1.2 0-1.7-.5-2.7-.4-1.1-.8-1-1.2-2-.1-.4-.7-2 0-3.3.7-1.6 2.5-2.1 2.4-2.4-.1-.2-1 .3-1.6-.2-.4-.3-.3-.7-.6-1.6-.2-.4-.8-1.8-2-2.3-.7-.3-1 0-1.9-.4-.5-.3-1-.8-.8-1 .2-.3 1.4.2 1.7-.1.3-.5-2.2-1.8-3-4.5-.4-.8-.1-.7-.5-2.5-.5-1.9-1-3-.6-3.3.4-.4 1 0 1.3-.3.1-.2-.1-.6-.5-1.2l-1.6-2.6c-.3-1.2.2-1.8-.4-2.4-.4-.5-1-.2-1.3-.8-.2-.3 0-.5 0-2.3v-.8c-.2-1.1-1-2-1.1-2v1l.1.5c0 .2-.2.5-.3.5-.2 0-.3-.5-.8-1-.3-.4-.5-.3-1-.6-.5-.5-1.3-1.3-1-2 0-.7 1-.8 1-1 0-.3-2.1 0-2.6 0l-5.1.6-4.8 38.4 6.5 79.1a457 457 0 01-34.5-15l16.2 41 12 10.6 3.8 18.1a35.3 35.3 0 017.2 0c3.4.5 4 1 7.2 1.2 3.3.2 3.8-.4 6.5-.1 2.4.3 3.4.9 6.3 1.9.2 0 5.9 2 11.9 3 2.1.2 5.2.5 9 .3a9.7 9.7 0 002.8 1.9 17 17 0 006.5 1c2 1.6 3.8 2.2 5 2.5 1.1.2 2.4.3 2.5 0 0-.2-1-.4-2.2-1.5-1.1-1-1-1.8-2-2l-1.5-.4c0-.1.6-.3 1.2-.3a5.1 5.1 0 011.5.2c2.1.6 3.4 1.3 3.6 1 .2-.2-.6-1-.5-1.2l1.5 1c.3.2 1.2.8 2 1 1.4.4 1.6 0 3 .2 1.2.2 1.1.5 2.8 1 .2.2 3 1 3.2.5.2-.3-.5-.7-.4-1 .2-.6 2-.4 4.6-.3l3 .1a20.4 20.4 0 014.7 1c4.2 1.3 12.5 1 12.5 1 11.2-.2 10.7.3 13.5-.2l6.8-1.3c1.3-.2 2.8-.6 4.7-.5l2.5.3c3.1.2 3.4.2 3.8.1 1.6-.4 1.7-1.2 2.8-1 1 0 1.4.7 2.1.5.5-.2.5-.5 1-.7.6-.1 1.3 0 1.6.4.5.5.3 1.1.5 1.2.3 0 .6-.8 1.6-1.4.3-.2.7-.5 1.2-.4 0 0 .9.1 1 .5.2.8-1.5 2-1.4 2l2-1c1.5-1 1.6-1 1.9-1.1.8-.2 1.2 0 2-.3.5-.2.4-.4 1-.6.7-.4 1.3-.3 2-.3 1 0 1.5-.4 2.7-1 .5-.2 2.6-1 5-1.3 2-.1 2.8.3 4-.4.4-.2.8-.5 1.5-.6.8 0 1.1.2 2 .4.3 0 1.9.4 3.1-.2 1.2-.5 1-1.4 2-1.9 1-.4 1.5.2 3.3 0 .6 0 1.4-.2 3-.7a76.6 76.6 0 001.4-.4l.7.1v.4c.1.2.4.1 1.5 0l.6-.1c1.4-.3 1.6-.6 2.6-.8.4 0 1-.1 1.6.1.5.3.5.5 1 .6.8.2 1.8-.3 2.2-1.1.3-.7 0-1.2.3-1.4.3-.1.7.3 1.1.4 1.4.7 4-1 5.2-3.1a7 7 0 00.9-4.3l-.1-10 12.2-8.4 16.9-43.5-27.5 12.3 2.5-84.5-3.7-35.8a20.2 20.2 0 00-2.3 2.9c-1.2 1.9-1.8 2.8-2 4.2-.1.5-.2 1.7-.8 2.9-.1.3-.4 1-.8 1l-.4-.2-1-.5c-.5-.5.1-1.3-.1-1.5-.4-.3-2.3 1.5-3 2.2l-1.8 2c-1.2 1.5-1 2-2 3.3-1.4 2.2-3.3 3-3 3.6.1.6 1.3.4 1.4 1 .1.4-.5.6-1 1.5a3 3 0 000 2.1c.3.6.7.8.6 1.1-.1.5-1 .6-1.2.6-.5 0-.5-.1-.8 0-.7.1-.7 1.3-1.2 2.4-.5 1-1 1.1-2 2-1.4 1.3-1.2 2-3.8 6.8a123.3 123.3 0 01-1.5 2.5c-1.7 3-1.8 2.9-2 3.7-.1.3-.3 1-.9 1.7l-.5.6c-.7 1-.2 2-.6 2.3-.3.1-.7-.3-.9-.1-.1.1.2.6.3 1.2.2.7.2 1.3 0 2.5 0 .8-.1 1.4-.4 2.3-.6 1.5-1.1 1.4-1.4 2.6-.1 1 .2 1.3-.1 2.5-.2.5-.4 1-.7 1.1-.7.2-1.5-.7-1.6-.9-1.6-2 .2-4.1-1.2-6.6-.8-1.4-1.6-1.3-2.2-2.8a6 6 0 01-.3-3.2 5.5 5.5 0 01-.6-1.2c-.4-1-.5-2.1-.5-2.5l-.1-1.2a5.5 5.5 0 00-.3-.6l-1.3-3.6c-1.1-2.4-.3-3.2-1.3-5.5-1.5-3.3-3.7-3.3-3.8-5.7 0-1 .2-1.8-.1-3.4l-.7-1.8c-1-2.2-1.6-2.4-2.2-3.6-1-2.4 0-4.8-.4-4.9-.3 0-.8 1.9-1.3 1.8-.3 0-.3-.9-.4-.9-.3 0-.2 3.2-.5 3.2-.2 0-.2-1-1-2.5l-.7-1.7a4 4 0 01-.2-1.5c.1-.8.4-1 .6-1.6.3-1.3-.3-2.5-.5-2.5s0 1.8-.6 2c-.4.2-.7 0-.8-.1-.5-.4-.6-1.1-.3-2l-.7-1c-.3 0-.3.8-.6 1.9-.3 1.4-.5 1.2-.8 2.6-.4 1.7-.3 2.5-1 2.8-.3.2-.4 0-.7.2-.7.4-.3 1.4-.7 2.8-.3 1-.5.8-1.2 2.6l-.9 2.3c-.3.9-.5 1-1.1 2.3l-1 2.1c-1.3 2.7-1.6 3-2 3.1-.9.6-1.3 0-2.2.5-.9.5-.8 1.3-1.9 3.4-.7 1.4-1.8 3-2.3 2.9-.3-.1-.2-1-.5-1-.3-.1-.5.3-1.2 1.2l-1.5 1.8c-.3.3-.9.8-1.7 1.2a34.4 34.4 0 00-.7-1c-1-1.3-1.2-1.4-1.4-2v-1.5c0-1-.2-1.1-.2-1.2-.3-.5-.6-.4-1.3-1-.5-.4-1-1-1-1.2l1-.1c.3 0 .5 0 .6-.2.1-.2 0-.5-.4-1.3-.3-.5-.4-.7-.4-1-.4-.8-.1-1-.4-1.6-.3-.5-.6-.5-.7-1-.1-.4 0-.7.1-1.2 0-.6 0-1-.3-1.8-.8-2.8-.5-2.6-.9-3.5-.8-1.8-1.8-2-2.2-3.7-.1-.2-.3-1.2.1-1.5.3-.2.6 0 .7-.3.3-.3-.1-.8-.5-1.5l-1.2-3-.8-2c-.7-1.5-1.2-1.8-1.5-3-.2-.9 0-1-.1-1.8-.3-1.7-1.2-2.4-2-3.7-1-1.7-1-3.2-1.1-4.5-.4-2.5-2.3-10-7.6-28.7z"/><path d="M143.7 264c0-.2.9-.3 1.6-.2l1.8.6c1.2.5 1.8.8 1.7 1 0 .2-1 .2-1.5.2a4.7 4.7 0 01-1.4-.4l-.8-.4-1.4-.8zm112-8c-.4-.2-1 0-1.4.2-.4.1-.7.3-.7.4 0 .2 1 .3 1.7.3.4 0 1 0 1-.3 0-.1-.2-.4-.5-.5zm11-173.3c-.3 0-.3-1.1-.1-2 .2-1 .6-1.1.6-2 0-.7-.2-1 0-1.4.3-.5 1.2-.9 1.6-.6.4.3 0 1.3-.3 2.4-.4 1.5-1.4 3.8-1.8 3.6zM92 95c-.3.1-.2.8 0 1.2l.5.6.7.9c.2 0 .3-.6.3-1 0-.2 0-1-.6-1.5 0 0-.6-.4-.9-.2z"/><path d="M205.9 246.6h20.3a78 78 0 0020.1-7.7l18.3-13.9-13.2 16a78.2 78.2 0 006.2-2.5 80 80 0 0015.8-9.4 81 81 0 008-7.1l4.6-14.4 3.1-9.6a219.4 219.4 0 00-27.2 13c-8 4.4-13 7.9-22.7 14.3a1402.7 1402.7 0 01-33.3 21.3z" fill="#fff"/><path d="M233.4 234.3a117 117 0 0015.7-10l6.2-4.9a279.6 279.6 0 0124-16.4 133.8 133.8 0 019.8-5 4132.9 4132.9 0 01-38.2 13.8 50 50 0 01-7 7.6c-2.8 2.6-5.2 4-7.2 5.4 0 0-9.2 5.9-23 15.9a353.5 353.5 0 00-7.8 5.9 221.9 221.9 0 0011-4.4c4.8-2 10-4.2 16.5-7.9z" fill="#eb9e84"/><path d="M216 148.1c3.2-2 4.5-5.8 5.2-10.3a99 99 0 00-3.8-40 62.1 62.1 0 01-4.8 10.5 63.2 63.2 0 01-15.8 18.1l6.2 22.1c1.5.6 8 3 13-.4z" fill="#fff"/><path d="M202.8 148l4.4 15.6-4.4-15.7z" fill="#2b4394"/><path d="M229.3 129.6a112.7 112.7 0 00-12-31.8c1.2 7.6 3.9 26.9 1.8 40.9-.5 3.2-1.3 7-4.4 9-4.3 3-10.3.9-11.9.2l4.4 15.7a65.7 65.7 0 018-6.6 65 65 0 0110-5.7 64.3 64.3 0 016.4-2.5 111.7 111.7 0 00-2.3-19.2z" fill="#eb9e84"/><path d="M126.2 139.3c1 2.7 2.5 6.9 6.4 8.3 4.8 1.8 9.8-1.7 10.8-2.4l5.6-19a52.7 52.7 0 01-11.6-11 52.8 52.8 0 01-8.8-17.1c-2 6.8-7.3 27.4-2.4 41.2z" fill="#fff"/><path d="M138 163.6l5.5-18.8-5.5 18.8z" fill="#2b4494"/><path d="M133 147.2c-1-.4-3.6-1.8-5.6-7.8-4.2-13.2-.2-34.3 1.2-41.3a106.7 106.7 0 00-11.2 26.6 106.6 106.6 0 00-3.5 23.9 52.2 52.2 0 0114.4 6.6 52 52 0 019.7 8.4l5.5-18.8c-1 .7-6 4.2-10.4 2.4z" fill="#eb9e84"/><path d="M96.4 220.8L58 197.5l-.6-.2 7.8 24.5A72.4 72.4 0 0081 234.3a71.9 71.9 0 0011.1 5.3 237.8 237.8 0 01-13.4-17.2l21.2 17.7 19.2 6.4a138.7 138.7 0 0024.6 2.5l-47.3-28.2z" fill="#fff"/><path d="M95.8 224.2c13.2 10.1 13.6 11.3 18.3 13.5 5.8 2.8 7.2 2 17.8 6.2a163 163 0 0111.8 5.1l-43.5-31-6.5-7.6-36.3-13c11 6.8 19.5 12.8 25.4 17.1l13 9.7z" fill="#eb9e84"/><path d="M260.5 204a40.5 40.5 0 01-8 14.2l-62.6 41.3 1.6-9.2 49.8-30.8 15-14.8 4.2-.7z" opacity=".2"/><path d="M235.2 196.8s7.6-.4 15.1-5.1c13.5-8.4 21.4-33.2 20.3-63.6a47 47 0 01-9.5 12.5 50.3 50.3 0 01-11.7 8c-7.7 3.9-12.4 4-17.7 5.7-6 1.8-14.1 6-22.5 16.5l1.2 5.2 1.3 5.2 1.7 7.5v.7a33 33 0 0021.8 7.4z" fill="#fff"/><path d="M270.6 128.1c-2.2 34-12.4 59.5-24.5 64.6-5.5 2.3-11.1 2.5-11.1 2.5a35.3 35.3 0 01-21.6-6.5l.2 17.2-16.7 38.1a268.4 268.4 0 0011.7-9.8c6.8-6 11.5-10.9 15.9-15.4l24.8-25.4a759.8 759.8 0 01-13.5 25.2A90.1 90.1 0 00248 208c2.5-2.5 8.6-8.8 13.6-17.7 8.8-15.9 9.1-31.7 9.4-46.2.1-6.7-.2-12.3-.5-16z" fill="#eb9e84"/><g><path d="M85.8 204l8.2 14.5 54.8 39.5 3.7-7.8L98.7 212l-8.2-8h-4.7z" opacity=".2"/><path d="M108.3 201a49 49 0 0022.1 5.3l.3-19 6-18.3a40.4 40.4 0 00-11.3-9.2c-8.3-4.6-12.4-2.9-22.6-7.7-1.9-.8-7.9-3.8-14.3-9.4A62 62 0 0176.3 128c0 2.1 1 44 18.5 62.6a56.7 56.7 0 0013.5 10.4z" fill="#fff"/><path d="M138 223.6l-7.6-17.3.2-12.9c-2.5 2-11.1 8-21 5.9a23.8 23.8 0 01-12.4-8c-15.7-17-20.2-57-20.9-63.3a150.5 150.5 0 000 21.3c1 14 2.2 30 11.7 45.6 3.2 5.2 9 13.2 19.2 20.8a184.6 184.6 0 01-11-21.5 3378.1 3378.1 0 0015.9 16.7 362 362 0 0018 18.3 204 204 0 0016 13.1l-8.1-18.7z" fill="#eb9e84"/></g><g><path d="M150.2 117a4114.3 4114.3 0 00-23 67v22.3l17.6 40.3 37.4 12.9 9.3-9.2 25.8-43.5-.1-20.7-20.3-69.3-18.7-6.6-28 6.7z" opacity=".2"/><path d="M208 188c-3.3-27.2-23.4-88.6-23.4-88.6a1270.8 1270.8 0 01-11-35.1A1269.7 1269.7 0 00150 194.5c1 2.9 3 7.1 6.3 11.6 4.5 5.9 7.1 6.3 14.7 13 7.8 6.9 17.6 15.5 16.4 24.3-.3 2.5-1.6 5.1-1 5.4.8.4 4.7-5.8 5.4-7 7-13.5 10.3-22.6 10.3-22.6a72 72 0 006.1-25 51.1 51.1 0 00-.4-6.3z" fill="#fff"/><path d="M186.4 248.8a22.2 22.2 0 01-4.2 2.9 13.2 13.2 0 004.2-3z" fill="#142b66"/><path d="M171 217.3c-5.7-5-9.6-7.8-14.3-14.2a60.5 60.5 0 01-5-8.4 1900 1900 0 0121.9-130.4L153 128.7c-3.3 11.5-10.2 35.6-15.6 57-.7 2.7-1.5 6-1.5 10.4 0 3.8.6 12 13.1 33.1a254.5 254.5 0 009.9 15.5 187.2 187.2 0 01-9.6-30 210 210 0 018 7.5 211.2 211.2 0 0124.8 29.5 22.2 22.2 0 004.2-3s2.4-2.3 3.3-5.6c2-7.5-11.7-19.7-18.7-25.8z" fill="#eb9e84"/></g></g></switch></svg>