<svg xmlns="http://www.w3.org/2000/svg" viewBox="0 0 350 350"><switch><g><path fill="#fff" d="M290 290H60v-53l-29-68 29 12V60h100l13-34 14 34h103v121l29-13-29 69v53z"/><path d="M70 70h210v210H70z"/><radialGradient id="a" cx="175" cy="175" r="125.6" gradientTransform="matrix(1 0 0 1.0153 0 -3)" gradientUnits="userSpaceOnUse"><stop offset=".3" stop-color="#d04011"/><stop offset=".5" stop-color="#cd3f11"/><stop offset=".6" stop-color="#c43c11"/><stop offset=".8" stop-color="#b43811"/><stop offset=".9" stop-color="#9e3111"/><stop offset="1" stop-color="#812911"/><stop offset="1" stop-color="#7c2711"/></radialGradient><path fill="url(#a)" d="M78 78h194v194H78z"/><path d="M102 78a626 626 0 0027 75h19a617 617 0 01-25-75h-21zm127 0a322 322 0 01-24 68l21-1 24-67h-21z" opacity=".2"/><path d="M78 267a880 880 0 00194 0v-23H78v23z" opacity=".1"/><radialGradient id="b" cx="175" cy="175" r="132.2" gradientTransform="matrix(1 0 0 1.0153 0 -3)" gradientUnits="userSpaceOnUse"><stop offset=".3" stop-color="#d04011"/><stop offset=".5" stop-color="#cd3f11" stop-opacity=".7"/><stop offset=".6" stop-color="#c43c11" stop-opacity=".5"/><stop offset=".8" stop-color="#b43811" stop-opacity=".3"/><stop offset=".9" stop-color="#9e3111" stop-opacity=".2"/><stop offset="1" stop-color="#812911" stop-opacity="0"/><stop offset="1" stop-color="#7c2711" stop-opacity="0"/></radialGradient><path fill="url(#b)" d="M78 78h194v194H78z"/><path d="M174 41a337 337 0 01-4 13c-3 10-4 15-6 17l-4 6 1 3 1-2 1 1c1 1 0 3-1 3h-2v3c-1 1-3 2-2 3s-1 3-2 5l-1 6-3 4v4l-2 5-1 5a9 9 0 01-1 0l-2-3c-2-3-6-6-6-8v-2-1l-2-1-1-3-1-5-1-2v-1h-1l-1-1-2-1v-2l-1-1v-2a7 7 0 01-1-2 3 3 0 00-1 1l-1 2-1 3-2 4-1 2v2h-2v2l-1 1c-2 1-2 2-3 5l-2 5-2 3-1 4-1 1-3 4v3l-1 3v4l-1 3v1h-2v-3l-1-3-4-6-1-2v-3l-1-2v-3c0-2 2-2 2-2l-2-1v-1l-2-2-2-1-1-1h2l-3-4-1-3v-3l1-1-1-1-1-2-1-3-1-1v-3l-1-2v2l-1-1h-1l-1-2 1-1h-8l-4 39 6 79a457 457 0 01-34-15l16 41 12 10 4 19a35 35 0 017 0l7 1h6l7 1 12 4h9a10 10 0 002 2 17 17 0 007 1l5 2h2l-2-1-2-2-1-1h1a5 5 0 011 0l4 1v-1l1 1 2 1h3l3 1 3 1v-1l4-1h3a20 20 0 015 2l12 1 14-1 7-1h11l3-1h4l1 1 1-1h3l-2 2 2-1 2-1h2l1-1h2l3-1 5-2h4l1-1 2 1h3l2-2h4l3-1a77 77 0 001 0h3l2-1h2l1 1 2-1 1-2 1 1c1 0 4-1 5-3a7 7 0 001-5v-10l12-8 17-44-28 13 3-85-4-36a20 20 0 00-2 3c-2 2-2 3-2 5l-1 2-1 1h-1v-2l-3 2-2 2-2 4-3 3 1 1-1 2a3 3 0 000 2l1 1-1 1h-1l-1 2-2 2c-2 1-2 2-4 7a123 123 0 01-2 2l-2 4-1 2-1 3h-1l1 1v2l-1 3-1 2v3l-1 1-2-1c-1-2 1-4-1-7l-2-3a6 6 0 010-3 6 6 0 01-1-1v-4a6 6 0 00-1 0l-1-4-1-5c-2-4-4-4-4-6v-3l-1-2-2-4-1-5-1 2v-1l-1 3-1-2v-2a4 4 0 01-1-1l1-2-1-2v2l-1-1v-2l-1-1-1 2v3l-1 3h-1l-1 3-1 2-1 3-1 2-1 2-2 3-2 1-2 3-2 3-1-1-1 1-1 2-2 1a34 34 0 00-1-1l-1-2v-1-2l-2-1-1-1h2l-1-1v-1-2l-1-1v-1-2l-1-3-2-4v-2-1l-1-3-1-2-2-3v-2l-2-4-1-4-7-29z"/><path d="M144 264h3l2 1-2 1a5 5 0 01-1-1h-1l-1-1zm112-8h-2v1h2v-1zm11-173v-2-2-2h2v2l-2 4zM92 95v1l1 1v1l1-1-1-2h-1z"/><path fill="#fff" d="M206 247h20a78 78 0 0020-8l19-14-14 16a78 78 0 007-2 80 80 0 0015-10 81 81 0 008-7l5-14 3-10a219 219 0 00-27 13l-23 14a1403 1403 0 01-33 22z"/><path fill="#eb9e84" d="M233 234a117 117 0 0016-10l6-5a280 280 0 0124-16 134 134 0 0110-5 4133 4133 0 01-38 14 50 50 0 01-7 7l-7 6-23 16a354 354 0 00-8 6 222 222 0 0011-5l16-8z"/><path fill="#fff" d="M216 148c3-2 5-6 5-10a99 99 0 00-4-40 62 62 0 01-4 10 63 63 0 01-16 18l6 22c1 1 8 3 13 0z"/><path fill="#2b4394" d="M203 148l4 16-4-16z"/><path fill="#eb9e84" d="M229 130a113 113 0 00-12-32c2 7 4 27 2 41 0 3-1 7-4 9-5 3-11 1-12 0l4 16a66 66 0 018-7 65 65 0 0110-6 64 64 0 017-2 112 112 0 00-3-19z"/><path fill="#fff" d="M126 139c1 3 3 7 7 9 4 1 9-2 10-3l6-19a53 53 0 01-12-11 53 53 0 01-8-17c-2 7-8 28-3 41z"/><path fill="#2b4494" d="M138 164l6-19-6 19z"/><path fill="#eb9e84" d="M133 147c-1 0-4-2-6-8-4-13 0-34 2-41a107 107 0 00-12 27 107 107 0 00-3 24 52 52 0 0114 6 52 52 0 0110 9l5-19c-1 0-6 4-10 2z"/><path fill="#fff" d="M96 221l-38-23-1-1 8 25a72 72 0 0016 12 72 72 0 0011 6 238 238 0 01-13-18l21 18 19 7a139 139 0 0025 2l-48-28z"/><path fill="#eb9e84" d="M96 224l18 14 18 6a163 163 0 0112 5l-44-31-6-8-37-13 26 17 13 10z"/><path d="M261 204a41 41 0 01-8 14l-63 41 2-9 49-30 15-15 5-1z" opacity=".2"/><path fill="#fff" d="M235 197s8-1 15-5c14-9 22-33 21-64a47 47 0 01-10 13 50 50 0 01-12 8c-7 4-12 4-17 5-6 2-14 6-23 17l1 5 2 5 1 8a33 33 0 0022 8z"/><path fill="#eb9e84" d="M271 128c-3 34-13 60-25 65-5 2-11 2-11 2a35 35 0 01-22-6l1 17-17 38a268 268 0 0012-10l16-15 24-26a760 760 0 01-13 26 90 90 0 0012-11c3-2 9-9 14-18 8-16 9-31 9-46v-16z"/><path d="M86 204l8 15 55 39 4-8-54-38-8-8h-5z" opacity=".2"/><path fill="#fff" d="M108 201a49 49 0 0022 5l1-19 6-18a40 40 0 00-12-9c-8-5-12-3-22-8l-14-9a62 62 0 01-13-15c0 2 1 44 19 63a57 57 0 0013 10z"/><path fill="#eb9e84" d="M138 224l-8-18 1-13c-3 2-12 8-21 6a24 24 0 01-13-8c-16-17-20-57-21-63a151 151 0 000 21c1 14 2 30 12 46 3 5 9 13 19 21a185 185 0 01-11-22 3378 3378 0 0016 17 362 362 0 0018 18 204 204 0 0016 13l-8-18z"/><g><path d="M150 117a4114 4114 0 00-23 67v22l18 41 37 13 9-10 26-43v-21l-20-69-19-7-28 7z" opacity=".2"/><path fill="#fff" d="M208 188c-3-27-23-89-23-89a1271 1271 0 01-11-35 1270 1270 0 00-24 131l6 11c5 6 7 6 15 13s18 16 16 24l-1 6 6-7 10-23a72 72 0 006-25 51 51 0 000-6z"/><path fill="#142b66" d="M186 249a22 22 0 01-4 3 13 13 0 004-3z"/><path fill="#eb9e84" d="M171 217c-6-5-10-7-14-14a61 61 0 01-5-8 1900 1900 0 0122-131l-21 65a1948 1948 0 00-17 67c0 4 1 12 13 33a255 255 0 0010 16 187 187 0 01-10-30 210 210 0 018 7 211 211 0 0125 30 22 22 0 004-3l4-6c2-7-12-20-19-26z"/></g></g></switch></svg>