<svg xmlns="http://www.w3.org/2000/svg" viewBox="0 0 350 350"><switch><g><path fill="#fff" d="M261 134l-31 45 21-77-74 22 41-32h-38l36-19-10-11 8-2H60v230h230V102l-22 70-7-38z"/><path d="M261 134l-31 45 21-77-74 22 41-32h-38l36-19-4-4H69v212h212V131l-13 41-7-39z"/><path fill="#fff" d="M91 202l21 13 16-16-30-2zm57 62l-10-21 16-16 1 32-7 5zm-17-22l-12 2-8-8v-14zm41-56l-37 38-6-5 38-38-8-8-45 46 21 21 45-46zm10 6h10l14-15-12-38-14 6-18 15v12l20 20zm16-54l11 36 3-7-10-31zm7-3l9 27 3-8-7-22zm8-4l6 18 2-7-4-12zm10 6l-2-9 7-3z"/><linearGradient id="a" x1="142.3" x2="222.8" y1="206.3" y2="66.9" gradientUnits="userSpaceOnUse"><stop offset="0" stop-color="#d75b2b"/><stop offset="1" stop-color="#8f3e23"/></linearGradient><path fill="url(#a)" d="M48 128a2284 2284 0 00111-38 365 365 0 01-83-16 2390 2390 0 00136-13l3 14-31 15 38 3-37 29 65-18-18 73 29-43 8 33 17-37a275 275 0 007 62 733 733 0 01-20-24 558 558 0 01-24 80 556 556 0 01-6 16l-10-75 15-85-58 14-3-1a833 833 0 01-104 10 831 831 0 01-35 1z"/><linearGradient id="b" x1="87.8" x2="194.8" y1="111.3" y2="111.3" gradientUnits="userSpaceOnUse"><stop offset="0" stop-color="#d75b2b"/><stop offset="1" stop-color="#964124"/></linearGradient><path fill="url(#b)" d="M88 146l107-70-25 57-82 13z"/><path fill="#6e3120" d="M185 100h-84l116-29-33 19 37 1-36 31 66-20-15 67 25-35 8 42 13-47-17 118-14-66-51 116 37-157 9-33-132 31 71-39zm-81 63l9 11 6-15z"/><path fill="#6e3120" d="M185 250l10 8 2-14z"/><path fill="#fff" d="M229 60l-42-13 20 25-66 25h63l-103 59 143-45-39 126 53-85 8 54 24-95h16l-13-18h-13l6 7a264 264 0 00-17 59l-6-39-25 45 20-70-65 22 51-31-46 1 27-10-8-12a56 56 0 0011 5l1-10zm-99 22l14 5-6-14zm-39 20l15 9-16 10zm132 174l4-14 7 9zm35-10l18 3-8-19z"/></g></switch></svg>