<svg xmlns="http://www.w3.org/2000/svg" viewBox="0 0 350 350"><switch><g><path d="M290.1 290h-89.8l-24.8-39.2-67.2-28.3L60 272.8l-.1-18.5V60H290v230z" fill="#fff"/><path d="M280.8 280.8H188L178 270l-19.7 15.7-14-34.4-38.4 40.8-5.6-68.8-31.1 28.4V69.4h211.6z"/><path d="M243.6 180.6c-.6-.6 2.1-3.7 3.8-4.5.2-.1.3-.2.4-.1.4.2-.2 2.3-1.6 3.5-.8.8-2.2 1.5-2.6 1.1zm8.7-9.5c-.4-.5 3.3-4.5 3.8-4.1.3.2-.2 1.9-1.4 3-.9.8-2.2 1.4-2.4 1.1zm14-16.2c.3.3 2-.6 3.3-2 1-1.5 1.7-3.3 1.4-3.5-.4-.3-2.4 2-3.5 3.4-.6.9-1.4 1.9-1.2 2.1zm-29.6 35.7l-91.3-8.8 10.7-44.7-28.7-32.3-5.6 10.5 1.5-19 25.7 27.6 2.8-11.9v-3.6c15.4-44.4 20.4-59.9 19.8-60.1-.8-.4-1.2-.2-1.2-.2a1689 1689 0 01-19.7 59 16.2 16.2 0 01-1.6-7.5l-4.8 5.7-28-32.3a26573.8 26573.8 0 00-9.1 220.5l52.7-59.5 15.6 24.6 61.2-68zm-96.2-84a114.7 114.7 0 016.4 7.7l-.3 1.3-16.7-19.2a114.7 114.7 0 0110.6 10.2z"/><path d="M243.6 180.6c-.6-.6 2.1-3.7 3.8-4.5.2-.1.3-.2.4-.1.4.2-.2 2.3-1.6 3.5-.8.8-2.2 1.5-2.6 1.1zm8.7-9.5c-.4-.5 3.3-4.5 3.8-4.1.3.2-.2 1.9-1.4 3-.9.8-2.2 1.4-2.4 1.1zm14-16.2c.3.3 2-.6 3.3-2 1-1.5 1.7-3.3 1.4-3.5-.4-.3-2.4 2-3.5 3.4-.6.9-1.4 1.9-1.2 2.1zm-29.6 35.7l-91.3-8.8 10.7-44.7-28.7-32.3-5.6 10.5 1.5-19 25.7 27.6 2.8-11.9v-3.6c15.4-44.4 20.4-59.9 19.8-60.1-.8-.4-1.2-.2-1.2-.2a1689 1689 0 01-19.7 59 16.2 16.2 0 01-1.6-7.5l-4.8 5.7-28-32.3a26573.8 26573.8 0 00-9.1 220.5l52.7-59.5 15.6 24.6 61.2-68zm-96.2-84a114.7 114.7 0 016.4 7.7l-.3 1.3-16.7-19.2a114.7 114.7 0 0110.6 10.2z" fill="#fff"/><linearGradient id="a" gradientUnits="userSpaceOnUse" x1="109.6" y1="284.9" x2="237.2" y2="63.9"><stop offset="0" stop-color="#fbd267"/><stop offset=".8" stop-color="#f7921e"/></linearGradient><path d="M184 33.2l-34.7 100.6-21.5-25.3-18 176.6 50.9-58.3 14.3 29.7 123.7-154.3-114.7-69z" fill="url(#a)"/><path d="M280.8 61.5l-99 173.6-18-49-53 90.6 1.5-15.3L162 117.3l18.5 21.5 44-106.3 56.3 29z"/><path d="M113.5 266.1l52.3-134.9 18 26.4 50.5-120 38.2 19.6-88 160.5-18.5-48-52.5 96.4z" fill="#fff"/><path d="M67.7 247.8l1.4 14.6 26.7-26.9 5.9 71.2 44.2-47.7 9.6 37 22.5-21 15.7 24.5 30.3-38.2-8-6.6-20.8 26.3-15.4-22.3-18.6 18.5-11.7-37.4-39.3 43.4-7-70.4-35.5 35z" fill="#fff"/></g></switch></svg>