<svg xmlns="http://www.w3.org/2000/svg" viewBox="0 0 350 350"><switch><g><path fill="#fff" d="M60 60h230v230H60z"/><path fill="#231f20" d="M70 70h211v211H70z"/><path fill="#c79326" d="M79 79h192v192H79z"/><radialGradient id="a" cx="175" cy="175" r="96" gradientTransform="matrix(0 -1 1.8 0 -140 350)" gradientUnits="userSpaceOnUse"><stop offset="0" stop-color="#ffff8b"/><stop offset="1" stop-color="#fff" stop-opacity="0"/></radialGradient><path fill="url(#a)" d="M79 79h192v192H79z"/><path fill="#231f20" d="M267 138l-1-11v-10l1-10-1-7c-1-2-4-3-7-3l-8-2c-1 1 6 3 6 4l-9-2a334 334 0 01-8-3l9 1-9-3-9-2-10-1-9-1a260 260 0 00-10-1l-9-1h-36l-10 1-10 2-10 2-10 1a97 97 0 00-10 3l-9 3-10 1c-2 0-3 3-3 7a72 72 0 000 9l1 8v8l-1 8 1 8v61l1 9c0 3 0 6 2 8a24 24 0 006 7 58 58 0 008 4c2 2 6 2 8 3l8 5 9 4 8 4 8 5 8 4 8 5 8 4c4 2 5 3 9 2l8-4a622 622 0 008-4l7-4 8-5 7-4 8-4 7-3 6-4 7-5 10-4a28 28 0 009-6c2-2 2-6 2-10v-29-9l1-9v-10l1 9v19l1 9v28l1-10 1-9 1-10v-9l-1-10-1-9v-19l-1-10z"/><path fill="#231f20" d="M264 224l-5 5-4 1c-3 1-4 3-5 4-4 3-7 3-12 5l-8 5-8 4-8 5-9 4-8 5-8 5-8 5h3l10-5 7-3 8-5 7-5 8-3 7-3 8-4 7-4 7-3c2 0 7-2 10-7 2-3 2-6 1-6z"/><path fill="#050708" d="M116 148l-4 6-1 2c-2 4 0 9 1 11l13 33a128 128 0 014 11c4 15 2 18 5 28a54 54 0 0019 22 38 38 0 0022 4c5 0 13 0 22-5a39 39 0 0014-15l5-17 4-17a143 143 0 017-20l10-28c0-1 2-3 1-6l-2-4c-3-3-4-3-4-5s4-5 6-5c4-3 6-2 7-3 4-3 3-9 3-12-1-9-6-15-9-20-11-17-4-23-14-37a68 68 0 00-51-26c-8 1-21 2-34 10-3 2-13 7-18 17a46 46 0 00-4 7l-3 14c0 4-5 13-13 31-1 1-3 5-2 10l3 5 8 3c1 1 5 3 5 6z"/><path fill="#fff" d="M124 144a1652 1652 0 0023 97 52 52 0 006-16 264 264 0 008 26 22 22 0 006-5 16 16 0 002 4l5 5a17 17 0 005-5 17 17 0 002-4 13 13 0 005 4 97 97 0 009-24l5 15a542 542 0 009-30 543 543 0 0014-67 33 33 0 016 7 33 33 0 014 7l-9 28-8 24c-5 18-2 21-8 31-2 4-6 12-15 17-7 4-14 4-18 4s-14 0-22-6c-10-6-13-16-16-23l-6-29-4-10-13-36a73 73 0 0110-14z"/><path fill="#fff" d="M164 172a25 25 0 00-15 22c0 13 12 24 25 24s25-11 25-24a25 25 0 00-17-22v-10l-5 7h-6l-7-7v10zm10 39c-10 0-18-8-18-17 0-10 8-17 18-17s18 7 18 17-8 17-18 17z"/><path fill="#fff" d="M174 180c-8 0-15 6-15 14s7 15 15 15 15-7 15-15-7-14-15-14zm0 25c-6 0-11-5-11-11s5-11 11-11 12 5 12 11-6 11-12 11z"/><path fill="#fff" d="M233 108c-9-18-3-21-11-33s-20-17-25-20a57 57 0 00-23-5c-26-1-52 21-53 35 0 2 0 7-3 13l-5 12c-8 16-9 20-7 24l2 2c5 1 8-7 14-8 3-1 8 0 15 5l2-22a560 560 0 002 49l1-8v22l2-9v16a53 53 0 002 8l5-40a25 25 0 0010 4 28 28 0 003-4 28 28 0 003-9 81 81 0 006 10 20 20 0 004-4 20 20 0 003-6 579 579 0 006 13 30 30 0 0011-4 217 217 0 005 40l1-8v-6l1 4 1-16 1 6 1-16 2 4v-23-25l1 25c7-6 12-7 15-6 7 1 10 9 15 8l3-3c3-7-4-14-10-25zm-111-2a45 45 0 010-11c1-5 2-12 7-17 1 0 4-3 8-3 3-1 6 0 11 2l12 4a5 5 0 001-2 5 5 0 000-3 127 127 0 01-24-10 278 278 0 0029 8l-4 13c-11 19-38 19-40 19zm51 14a34 34 0 00-16 4c-1-9 1-20 7-29 5-7 9-7 9-7 2 0 4 1 8 5 7 10 9 23 9 32a34 34 0 00-17-5zm52-14c-2 0-29 0-40-19a33 33 0 01-4-13 449 449 0 0029-8 178 178 0 01-25 10 5 5 0 004 5l10-4 11-3 8 4c5 6 6 13 7 18a38 38 0 01-1 10z"/></g></switch></svg>