<svg xmlns="http://www.w3.org/2000/svg" viewBox="0 0 350 350"><switch><g><path fill="#fff" d="M60 60h230v230H60z"/><path fill="#231f20" d="M69.5 69.5h211v211h-211z"/><path fill="#c79326" d="M79 79h192v192H79z"/><radialGradient id="a" cx="175" cy="175" r="96" gradientTransform="matrix(0 -1 1.8 0 -140 350)" gradientUnits="userSpaceOnUse"><stop offset="0" stop-color="#ffff8b"/><stop offset="1" stop-color="#fff" stop-opacity="0"/></radialGradient><path fill="url(#a)" d="M79 79h192v192H79z"/><path d="M266.6 137.5c0-3.4-.4-6.8-.5-10.2L266 117c0-3.5.4-6.9.5-10.3 0-2 .2-5.3-.8-7-.7-1.3-3.7-2.3-7-3.2-3.8-1-7.8-2-8-1.2-.4 1.2 6.5 3.2 6.2 3.8l-8.5-2.4a334 334 0 01-8-2.4c0-.8 9 1 9 .4.1-.7-3.8-1.6-9.2-2.6-2.9-.5-6-1.2-9.5-1.7-3-.5-6.4-.6-9.5-1l-9.5-1.2a260.4 260.4 0 00-9.5-1c-3-.2-6-1-9.1-1.2-3-.2-6.1.2-9.2.1-3 0-6-.5-9-.5h-9.2c-3 0-6.1.4-9.2.6l-10 1.1c-3.2.4-6.5 1-9.8 1.6-3.3.4-6.5 1.2-9.8 1.8-3.3.6-6.7.6-10 1.3a96.5 96.5 0 00-9.5 2.6c-3 1-6 2.8-9.2 3.6-3.4.9-6.8.8-9.8.7-2.2-.1-3.1 3.3-3.4 7.3a71.6 71.6 0 00-.2 8.4c.2 3.8 1 7 1 8.5v8.1c0 2.7-.6 5.4-.5 8.1 0 2.8.7 5.5.7 8.2s-.5 5.4-.5 8.1c0 3 .4 5.8.4 8.8l-.3 8.7v8.8c0 2.9.6 5.8.6 8.7 0 3-.7 5.9-.7 8.8 0 3 .3 5.8.4 8.7 0 3 .5 5.9.6 8.8.1 3.2.9 6 2.4 8.4a24 24 0 006.1 6.4 58 58 0 007.7 4.6c2.7 1.4 5.8 1.9 8.3 3.2 2.9 1.3 5.3 3.5 8.1 4.8 2.8 1.3 5.8 2.3 8.6 3.6 2.8 1.4 5.9 2.4 8.6 4 2.7 1.4 5.2 3.3 7.9 5 2.5 1.7 5.2 3 7.8 4.6l7.8 4.5c2.6 1.4 5.1 3 7.9 4.3 4 1.9 5.1 2.8 9 1.8 2.9-.7 5.7-3 8.3-4.4a621.7 621.7 0 007.6-4c2.5-1.3 5.2-2.5 7.7-3.9 2.5-1.3 4.8-3.2 7.3-4.6 2.5-1.4 5.2-2.5 7.7-4l7.5-4.2c2.2-1.3 4.6-2.3 6.8-3.5 2.3-1.3 4.4-2.8 6.7-4s4.3-3 6.5-4.2c2.7-1.5 6.7-2.3 10.2-4a28 28 0 009-6.2c2-2.2 2-5.8 2-9.8-.1-3.6.1-7.5.1-10.4l-.3-9.4V186c0-.4-.3-4.4-.3-9.2 0-3 1-6.3 1-9.2.2-5 0-9.3.3-9.3.5 0 1.1 3.7 1.4 9.1l.3 9.2c0 3-.3 6-.2 9.2 0 3 .3 6.2.4 9.2v9.2c0 3.4.5 6.5.5 9.2l.1 9.2c.6-3 .3-6.3.6-9.4.4-3.2.9-6.3 1-9.4.2-3.2 1-6.3 1-9.5s-.3-6.3-.3-9.5l-.5-9.4c-.2-3.2-.8-6.3-1-9.5l-.6-9.4c-.2-3.2.1-6.3 0-9.5-.2-3.2-.8-6.3-.9-9.5z" fill="#231f20"/><path d="M264.1 223.8c-.6-.2-1.8 3.2-5.4 4.7-1.4.6-1.7.7-3.5 1.2-3 1-4.6 3-5.7 4-3.4 3-6.5 3.3-11.3 5.7-1.5.8-4.3 2-8.4 4.2-2.2 1.3-5 2.6-8.2 4.5-2.5 1.3-5 3.3-8 5l-8.3 4.4-8.2 4.6c-2.5 1.5-5.3 2.9-8.2 4.5-2.6 1.5-5.2 3.3-8 5h3.4c2.1-1 5.4-2.2 9.2-4.2 3-1.5 5.7-2.5 7.8-3.6 3.2-1.7 5.5-3.4 7.5-4.5 3.1-1.8 5-3.5 7.2-4.8 2.2-1.2 4.6-2 8-3.5 2.5-1.3 5-2.4 7.2-3.4l7.3-3.3c2.9-1.4 5-2.9 7.1-3.8 4-1.9 6.5-2.8 7.4-3 1.5-.6 7.1-2.5 10-7.5 1.5-2.8 1.6-6 1.1-6.2z" fill="#231f20"/><path d="M115.7 147.6c0 1.2-.6 1.5-3.3 6l-1.6 2.8c-1.7 3.9.4 8.6 1.2 10.5 2.5 5.9 7 17.6 13.3 33.2a127.6 127.6 0 013.4 11c3.8 15 1.8 18.3 5.7 27.4a54.1 54.1 0 0018.1 22.1 38 38 0 0022 4.8c5.4 0 13.9-.3 22.6-5.7a39.1 39.1 0 0013.8-14.8c2-3.8 3.1-8.1 5.2-16.7 2.1-8.4 2-10.4 3.7-16.8a143 143 0 016.8-20.3c3.7-9.3 6-19 10.3-28.1.4-1 1.6-3.5 1-6.2-.4-1.3-1-2.2-2.3-3.9-2.3-3.3-3.3-3.3-3.4-4.6-.2-2.6 4-4.9 5.7-5.8 4-2.2 5.7-1.4 7.6-3 3.4-2.8 2.7-9 2.3-11.7-1.2-9.2-6-15.3-9-20-11.2-17.3-3.6-22.4-13.7-36.7a67.7 67.7 0 00-51.4-25.8c-7.5.3-20.4 2-33.4 9.5-3.4 2-12.8 7.6-18.7 17.1A46.4 46.4 0 00118 79c-2.3 6-2.4 10.2-3 13.7-.5 4-4.8 13-13.4 30.8-.8 1.7-2.7 5.6-1.7 10 .2.9.9 3.6 3.2 5.5 2.5 2 4.1 1 7.7 3 1.1.7 4.9 2.8 4.9 5.6z" fill="#050708"/><path d="M124.3 144a1651.5 1651.5 0 0022.4 97.3 51.6 51.6 0 006.3-16.1 264.2 264.2 0 008.3 25.5 22.3 22.3 0 005.9-5 15.5 15.5 0 001.6 3.8c1.7 3 4 4.6 5.3 5.5a17 17 0 004.9-4.6 17 17 0 002.3-4.5 13 13 0 004.5 4.4 96.6 96.6 0 008.7-24.8l5.3 15.7a542 542 0 009-30 543.3 543.3 0 0013.7-67.2 32.9 32.9 0 016.9 6.9 32.8 32.8 0 013.8 6.6c-1.3 4.1-5.3 17.3-8.9 28-5.3 15.9-6.1 16.3-8.3 24.3-5 18.2-2.3 21.6-7.7 31.5-2.2 4.1-6.4 11.7-15.3 16.6-7.4 4-14.3 4.2-18 4.2-3.8 0-13.6.2-22.4-5.8-9.4-6.3-12.7-16-15.2-23.4-3.4-9.9-2-13.8-6.9-29-1.2-3.9-2.1-6-3.7-10.3-3.2-8.2-7.6-20.2-12.8-35.8a73.4 73.4 0 0110.3-13.9z" fill="#fff"/><path d="M164 172.3a25.1 25.1 0 00-14.7 22c0 12.7 11.3 24 24.7 24 13.4 0 24.9-11.2 24.7-24a25 25 0 00-16.3-22.1v-10.5l-5.6 6.8h-5.5l-7.4-6.8v10.6zm10 38.8c-9.8 0-17.8-7.8-17.8-17.3 0-9.6 8-17.3 17.8-17.3s17.8 7.7 17.8 17.3-8 17.3-17.8 17.3z" fill="#fff"/><path d="M174 179.5c-8.3 0-15 6.5-15 14.5s6.7 14.5 15 14.5 15-6.5 15-14.5-6.7-14.5-15-14.5zm0 25.5c-6.4 0-11.5-5-11.5-11s5.1-11 11.5-11 11.5 5 11.5 11-5.1 11-11.5 11z" fill="#fff"/><path d="M232.9 107.8c-9.1-17.5-2.8-20.8-11.2-33-8-11.7-19.5-17-24.3-19.3a57 57 0 00-23-6c-26.8-.7-52 21-53.5 35.8-.2 1.7-.4 6.6-2.6 13-1.3 3.8-2.3 5-5.5 11.4-8.1 16.1-9.1 20.5-7.3 23.8.4.7 1.2 2.2 2.8 2.7 4.2 1.2 7.5-6.7 13.9-8.4 3.1-.8 7.8-.2 14.6 5.2l2.4-22a560 560 0 001.3 49.3c.4 0 .8-8.3 1.2-8.3.6 0 .1 22.5.6 22.5.4 0 1-9 1.2-9 .2 0-.8 7.1.8 15.8a52.8 52.8 0 002 7.5l4.5-40a24.8 24.8 0 0010.2 4.4 27.6 27.6 0 002.8-4.2 28 28 0 002.9-8.5 81.3 81.3 0 006.6 9.8 20.1 20.1 0 003.6-4 20.1 20.1 0 002.6-6 579.4 579.4 0 006.3 12.4 30.2 30.2 0 0011.2-3.9 216.7 216.7 0 005 39.9c.3-1.7.6-4.2.8-7.2.2-3.6 0-6.5.3-6.5s.7 3.9 1 3.9c.7 0 .3-15.9 1-15.9.4 0 1 5.9 1.3 5.9.5 0-.5-16 .5-16.2.5 0 1 4.2 1.6 4.2.9-.1.3-12 .3-22.6-.1-7.5 0-15.9.5-25l.9 24.7c6.6-6 11.4-6.8 14.8-6.1 6.7 1.2 10.4 9.5 14.7 8.1 1.7-.6 2.6-2.4 3-3.1 3-6.5-4.2-14.4-9.8-25.2zM122.3 106a45.4 45.4 0 010-10.6c.7-5.8 1.5-12.7 6.8-17.2.8-.7 3.8-3.2 8.2-3.7 2.7-.3 5.4.6 10.7 2.5l11.6 4.1a5.4 5.4 0 001.7-2.5 5.4 5.4 0 00.2-2.6 127.4 127.4 0 01-24-10.2 277.7 277.7 0 0028.3 8.2c-.6 6-2.5 10.3-4.1 13.2-10.9 18.8-37.3 18.8-39.4 18.8zm51.1 14a34 34 0 00-16.8 4.3c-.1-9 1.4-20 7.8-29.3 4.7-7 8.2-7 9-7 1.6 0 4 .8 7.5 5.4 7.2 9.7 8.6 23 8.9 31.1a34 34 0 00-16.4-4.4zm51.1-13.8c-2 0-28.5 0-39.4-18.8a32.8 32.8 0 01-4.1-13.2 448.5 448.5 0 0028.6-8 178.1 178.1 0 01-24.3 10 5.3 5.3 0 003.4 4.8l10.1-3.8c6.5-2.6 8.1-3.4 10.8-3.1 4 .4 6.7 3 8.1 4.3 5.8 5.4 6.7 13 7.1 17.3a38.4 38.4 0 01-.3 10.5z" fill="#fff"/></g></switch></svg>