<svg xmlns="http://www.w3.org/2000/svg" viewBox="0 0 350 350"><switch><g><path fill="#fff" d="M60 60h230v230H60z"/><path d="M69 70h211v210H69z"/><path fill="#da7a08" d="M80 80h190v190H80z"/><radialGradient id="a" cx="171.7" cy="281.7" r=".7" gradientTransform="matrix(197.7536 0 0 -197.6778 -33781 55861.8)" gradientUnits="userSpaceOnUse"><stop offset="0" stop-color="#fd5"/><stop offset=".5" stop-color="#fd5"/><stop offset="1" stop-color="#fd5" stop-opacity="0"/></radialGradient><path fill="url(#a)" d="M80 80h190v190H80z"/><path d="M235 191l21 13-5 2-17-9 1-6zm20 19l10 4 7 5-8-3-9-6zm-22-6l10.1 7-7 3.5-3-10.5zm3 29l7.1 9-6-1-1-8zm19 28l-4-5-7-7 6 8 5 4zm-20-8l4 3 2 5-4-4-2-4zm-91 1l-6 11-4-3 6-8h4zm-20-8l7 12 2-8-9-4zm-3 19l1-4 3-2-1 3-3 3zm-19-57l11-8 1 5-12 3zm-27 6l5-4 13-3-11 6-7 1zm23-8l9-6 5-1-14 7zm9-11l2-7 6-3-8 10zm-23 6l5-3 5-1-5 3-5 1zm3-106l11 11-5-9-6-2zm16 23h8l2 10-10-10zm129-15l9-10 9-3-18 13zm0 13l20 3-16 17-4-20z" opacity=".8" fill="#fff"/><path d="M111.6 241.3l.8-138.9L174 92l64.8 9.2-1.8 143.6-61.7 24.2-63.7-27.7z"/><path d="M119 108.5v129.3l55.5 23.6 56.5-22.5V108.2l-56.5-9-55.5 9.3z" fill="#fff"/><path d="M125.6 114.4l-.2 119.3 49.1 19.8 49.4-19.6 1.1-119.5-49.4-7.9-50 8z"/><path d="M148 106l7 44-45-6 36 27-56 33 63-12-30 88 50-77 26 29-7-41 70 20-61-39 40-26-46 5 29-97-50 88-26-36z"/><path d="M174.4 147.5l-20.7-28 4.9 34-36.8-5 29.6 22.8-45 26.5 51.2-9.7-25.4 73 40.4-63 21.7 24.1-6-35.4 54.8 15.7-47.6-30.5 31.9-21-36.5 3.4 22.7-76-39.2 69.1z" fill="#fff"/><g><path d="M174 74c1.2 0 13.8 59.9 16 61 2.3 1.2 111.5-86.5 113-85 1.5 1.6-92 101-91 106 1.1 5 94 14.1 94 16s-92 12.4-94 16c-2 3.6 35.3 54.8 34 56-1.2 1.2-52.7-36-56-35-3.2 1-14.5 66-16 66s-11.5-64-14-65c-4.8-2-112.7 97.2-115 95-2.2-2.3 92.9-111.3 92-117-.6-4-64-15.1-64-16 0-.8 63-12.6 63-17S71.6 71.5 73 70c1.5-1.4 80.5 65.6 84 65 3.6-.5 15.9-61 17-61z"/><path d="M195.3 205.7a164.7 164.7 0 0115 8.5 165.6 165.6 0 0127.5 21.7l.3.2c-9.2-14-19.4-27.2-27.2-42.4l-.6-1.3a26.1 26.1 0 01-.4-.8l-.2-.7c-.6-1.6-1-3.6.4-5 2.3-2.3 6.3-2.5 10.1-3.2 23-4.5 46-7 69.4-10.5h.8l-73.7-10.7a39.9 39.9 0 01-2-.5c-2.6-.7-3.8-1-4.6-1.8a5.4 5.4 0 01-1.7-3.1c-.2-1.4.3-2.5 1.1-4.4a19.6 19.6 0 012-3.5 4422.6 4422.6 0 0071.3-79.8 3131.1 3131.1 0 01-85 66.7c-2.6 1.8-7 4.4-9.7 2.8-1-.5-2-1.4-2.5-3.6l-2.9-11-8.5-38.1a843 843 0 01-10.3 45.3c-.6 2.1-1.7 6-4.8 7.2-5.3 2.4-12.8-4.4-14.4-5.9L90.1 86.6C93 90 133 139.1 138 149.2c1.7 3.5 1.1 5.8 1 6.3-1 4.1-6 6.1-8.5 7l-44.7 9.4h-.3c16.3 3.4 33.2 5.8 48.7 11.3a36 36 0 012 .8c1.3.5 2.7 1.2 3.2 2.5 1 2.2-1.2 5.8-1.8 6.7-3.4 5-12.8 17.2-25.7 33l-49.3 61 82.6-71.7c4.4-4.1 8.3-6.8 11.2-8.5 1.7-1 3-1.8 4.5-1.5 4.4.8 6 9.2 6.1 10.1l7.2 42.5 10.2-46.6c.2-1 1.1-4.6 4.2-6 2.3-1.1 4.8-.7 6.7.2z" fill="#fff"/></g><g opacity=".8"><radialGradient id="b" cx="171.2" cy="281.2" r=".7" gradientTransform="matrix(139.8374 0 0 -139.7838 -23761.5 39477.8)" gradientUnits="userSpaceOnUse"><stop offset="0" stop-color="#fff"/><stop offset="1" stop-color="#fff" stop-opacity="0"/></radialGradient><circle cx="175" cy="175" fill="url(#b)" r="95"/></g></g></switch></svg>