<svg xmlns="http://www.w3.org/2000/svg" xmlns:xlink="http://www.w3.org/1999/xlink" viewBox="0 0 350 350"><switch><g><path fill="#fff" d="M60 60h230v230H60z"/><path fill="#060809" d="M70 70h211v211H70z"/><path fill="#187fa3" d="M79 79h192v192H79z"/><defs><path id="a" d="M79 79h192v192H79z"/></defs><clipPath id="b"><use overflow="visible" xlink:href="#a"/></clipPath><path fill="#060809" d="M75 99l4-3a25 25 0 019-5l-5 3-1 2 4 1h8l4-3 4-2 4-3c2-2 6-1 6-2s-5-3-5-5l6-1 14-2a81 81 0 0010-3c-5 4-10 5-13 6l-7 1c-1 2 1 6 3 6 2 1 3-1 6-1l6-1 7 1-10 2c-3 0-5 0-7 2l-3 3c0 2-3 4-9 6l-11 4-11 4-11 3-2-13zm86 175c6 1 9 0 11-1l2-2a16 16 0 019-3l14-2a71 71 0 0013-2l12-3 12-1 11-2 12 1 6-1v-3h-3c-4 2-8 1-12 1l-11 2-12-2 11-4 10-4 10-3 10-4 10-5v-16l-12 4-11 3-12 4-11 4-12 4-12 3-11 5-12 4-12 3-11 4-12 4-11 4-12 3-11 5 11-1 12 1h24z"/><path fill="#fff" d="M78 160l205-56-1 8-202 54-2-6zm-12-41l209-57 7 7-217 56z"/><path fill="#7ab9cc" d="M78 115v-9l141-36h27zm137 8l12-15 44-13v12l-56 15z"/><path fill="#fff" d="M67 177l216-58 2 6-216 58z"/><path fill="#060809" d="M107 271l-4-12-26 8v7l30-1z"/><path fill="#7ab9cc" d="M79 197l7-2 17 64-24 7z"/><path fill="#fff" d="M262 234L69 286l-2-6 194-52h7l20-1c0 1-5 3-26 7z"/><path fill="#fff" d="M237 241l-129 34-28-101 130-35c16-3 39-4 62 4 13 5 29 10 33 23 5 17-13 35-23 46a120 120 0 01-45 29z"/><path fill="#060809" d="M87 177l24-6 24 88-24 7zm207 9c5-7 6-13 4-17-1-4-4-7-9-11a97 97 0 00-30-13c-19-4-37-3-49-1l-94 26 23 88 94-24 4-1c2-1 4-2 6-5a12 12 0 001-4 32 32 0 01-6 3 35 35 0 01-22 0c-1-1-18-6-18-15 0-4 3-6 16-15 20-15 23-18 32-22 5-2 18-6 22-2 1 2 2 4 0 9l9-5a39 39 0 01-19 32 39 39 0 0011-1 40 40 0 0014-7 65 65 0 0011-15z"/><path fill="#fff" d="M251 162a72 72 0 00-15-7l-25-3a136 136 0 0148 3 14 14 0 01-3 4 14 14 0 01-5 3zm-116 11a160 160 0 0123-4 160 160 0 0138 1 6 6 0 01-2 3 6 6 0 01-2 2 157 157 0 00-57-2zm-4 9a160 160 0 0123-4 160 160 0 0137 1 6 6 0 01-1 3 6 6 0 01-2 2 157 157 0 00-57-2zm-6 9a160 160 0 0123-4 160 160 0 0138 1 6 6 0 01-2 4 6 6 0 01-2 1 157 157 0 00-57-2z"/><path fill="#060809" d="M70 182l12-3 4 16-16 4z"/><g><path fill="#fff" d="M189 137L80 166l-13-47 110-29a64 64 0 0121-2c3 0 27 2 29 13 1 3 1 5-1 9-8 16-28 24-36 27z"/><path fill="#060809" d="M74 123l7-2 10 35-8 2zm148-21c-2-6-19-9-26-9a57 57 0 00-11 0L85 120l10 35 96-26 2-1v-2a36 36 0 01-5 0c-4 0-6 0-8-2l-1-4c1-3 4-4 9-7 8-6 8-8 14-10h8v2c0 2-2 2-1 3l2-1a8 8 0 002-3l1 5c-1 4-4 6-5 7a17 17 0 01-3 2 10 10 0 005 1c8-6 12-12 11-17z"/><path fill="#fff" d="M188 96a17 17 0 0110 4l2-2v-2a30 30 0 00-5-1l-7 1zm-14 11v-1a3 3 0 001-2 112 112 0 00-10 0l-12 1a19 19 0 00-3 2 40 40 0 019-1 40 40 0 0115 1zm-4 6l1-1a3 3 0 000-2l-10-1-12 1a20 20 0 00-4 2 60 60 0 0125 1zm-5 6l1-2a3 3 0 000-2h-21a20 20 0 00-4 2 60 60 0 0110 0 60 60 0 0114 1z"/></g></g></switch></svg>