<svg xmlns="http://www.w3.org/2000/svg" xmlns:xlink="http://www.w3.org/1999/xlink" viewBox="0 0 350 350"><switch><g><path fill="#fff" d="M60 60h230v230H60z"/><path d="M69 69h212v212H69z"/><path fill="#478b40" d="M79 79h193v193H79z"/><defs><path id="a" d="M79 79h193v193H79z"/></defs><clipPath id="b"><use overflow="visible" xlink:href="#a"/></clipPath><path d="M236 180l-2-6-3-6-3-6-4-6-3-5-2-5-3-6-4-4-2-6-3-5-3-5-3-5-3-5V97l-3-6-5-6-2 4v3l-3-5-4-2 2 6v1l-3-6-3-6-2-3-3 6-3 5-2 6-3 5-3 6-3 5-3 6-3 5-3 6-3 5-3 6 3-6 2-6 2-7 2-6 3-6 2-5 3-6 3-5 4-5 3-5 3-5-3 4-3 5-3 6-3 5-4 5-3 5-2 5-3 5-2 6-2 5-2 5-1 5 1 3-1 1-5 5-3 4-4 4-3 5-4 4 2-6 3-5 3-6 3-6 3-6 2-6-3 5-2 6-2 5-4 5-3 5-2 6-3 5-3 5-4 8-3 6-3 5-3 6-3 5-3 6-3 5-3 5-3 6-3 5-3 6-3 5-3 5-3 6v4l4-5 3-5 2-6 3-5 3-5 3-5 3-5 2-6 4-4 3-6 2-5 3-6 3-5 2-5-2 5-2 6-3 5-2 5-3 5-2 6-3 5-3 5-2 5-4 5-2 6-3 5-3 5-4 5v9l4-6 3-6 3-6 3-6 3-5 3-5 3-6 3-6 2-5 3-6 2-6 3-5 2-6 2-5 2-4 3-6 3-4 4-5 4-5 3-5 4-4-3 5-3 6-3 5-3 5-2 5-3 6-3 5-3 5-2 6-3 5-3 5-3 6-3 5-2 5-3 5-3 6-3 5-3 5-2 5-3 6-3 5-3 5 1 5-1 5 6 1h6l6-1h73l6 1 6-1 6 1 6-1h18l6 1 6-1h12l6 1h6l6-1 6 1 6-1h12v-25l-3-6-3-5-3-5-3-6-3-5-3-6-4-5-2-5-4-5-2-6-3-6-4-5-2-6zm-33-51l-3-4-3-5 4 4 1 5zm27 52l-3-5-2-6-3-5-3-6-3-5-3-6-3-5-3-4-1-4 3 4 3 5 3 5 3 5 2 6 3 5 2 5 3 5 2 6zm42 82l-3-5-2-5-3-5-3-5-2-5-2-6-2-4 3 4 2 5 4 5 2 5 3 5 3 5v6z"/><path d="M257 163a218 218 0 00-69-11h-25a163 163 0 00-133 52l116 47 22 20v20c2 3 3 5 3 8l3 8c2 0 3-5 4-8 0-3 0-5 2-7a9 9 0 012-2v-19l11-18 129-49a167 167 0 00-65-42zm-114 58a278 278 0 01-50-17 275 275 0 01-16-7 105 105 0 0124-13c17-7 32-8 42-7v43zm112-16a296 296 0 01-24 8v-36c9 3 21 7 32 14a148 148 0 0111 6 297 297 0 01-18 8z"/><path fill="#fff" d="M159 252l9 4v26h-10zm32 0l-9 4v26h9zm120-50a165 165 0 00-32-22 178 178 0 00-89-22v58l-7 3v10l17-6v-56a186 186 0 0150 11 184 184 0 0141 21l-117 42-114-42a177 177 0 0140-21 177 177 0 0149-10v55l16 6v-10l-7-3v-57c-18-1-52 1-86 21a161 161 0 00-31 23l133 48 137-49z"/><path fill="#fff" d="M177 232l1-32v-64a13 13 0 014 0l6 2-13-33-14 33a33 33 0 019-2l1 95h6zm-3 9l-3-1 4 61 2-61-3 1z"/></g></switch></svg>