<svg xmlns="http://www.w3.org/2000/svg" viewBox="0 0 350 350"><switch><g><path fill="#fff" d="M223.1 60.2v35h-15v-35h-66.3v35h-15v-35H60v229.6h229.8V60.2z"/><path d="M233.7 69.6v36h-35v-36h-47v36h-35v-36H69.4v211h211.2v-211z"/><path d="M244.4 79.2V115h-55.6V79.2h-26.6V115h-54.7V79.2H78.9v31.1l-4.4 12.5 4.4 30.2v84.6l190.3 4.4a700.2 700.2 0 012-91.3 697.1 697.1 0 013-28l-3-12.4V79.2h-26.7z" fill="#d75b2b"/><path d="M93 286a54.8 54.8 0 01-12.6-11 57.5 57.5 0 01-13-32.5l-.6-18.6 27.3-9.1 26.7 9.6-.8 18a57.5 57.5 0 01-12.3 32.5 54.7 54.7 0 01-12 11l-1.3 1-1.4-1z"/><path d="M94 217.4l24.3 8.7-.8 16.2c-.4 6-2 19-11.7 31A52.2 52.2 0 0194.4 284a52.3 52.3 0 01-12-10.5 55.3 55.3 0 01-12.5-31.1l-.5-16.6 24.6-8.3m.1-5.2l-1.6.5-24.7 8.2-3.5 1.2v3.7l.4 8.4.2 8.3v.2c.8 9 3.7 22 13.6 33.9A57.3 57.3 0 0091.7 288l2.8 1.8 2.7-1.9a57.3 57.3 0 0012.5-11.5 60 60 0 0012.8-33.9l.7-16.3.2-3.7-3.5-1.2-12-4.3-12.2-4.4-1.6-.5z" fill="#fff"/><path d="M75 229c-.6 8.2-1 28.6 12.8 44a46.7 46.7 0 006.4 6 46.7 46.7 0 006.4-6c13.5-15.5 13-35.8 12.4-44L94 223 75 229z" fill="#d75b2b"/><path d="M94 223.1L75 229a59.3 59.3 0 0012 43 47.5 47.5 0 007.2 7L94 223z" fill="#e8ab8f"/><path d="M146.9 286a54.8 54.8 0 01-12.7-11 57.5 57.5 0 01-13-32.5l-.6-18.6 27.3-9.1 26.8 9.6-.9 18a57.5 57.5 0 01-12.2 32.5 54.7 54.7 0 01-12 11l-1.4 1-1.3-1z"/><path d="M147.9 217.4l24.2 8.7-.8 16.2c-.3 6-2 19-11.7 31a52.2 52.2 0 01-11.4 10.6 52.3 52.3 0 01-12-10.5 55.3 55.3 0 01-12.4-31.1l-.6-16.6 24.7-8.3m0-5.2l-1.6.5-24.7 8.2-3.5 1.2.1 3.7.3 8.4.3 8.3v.2c.7 9 3.6 22 13.5 33.9a57.3 57.3 0 0013.2 11.5l2.8 1.8 2.7-1.9a57.3 57.3 0 0012.5-11.5 60 60 0 0012.8-33.9l.8-16.3.1-3.7-3.4-1.2-12.1-4.3-12.1-4.4-1.7-.5z" fill="#fff"/><path d="M128.8 229c-.6 8.2-.9 28.6 12.8 44a46.7 46.7 0 006.5 6 46.7 46.7 0 006.3-6c13.5-15.5 13.1-35.8 12.5-44l-19-5.9-19.1 5.9z" fill="#d75b2b"/><path d="M147.9 223.1l-19.1 5.9a59.3 59.3 0 0012 43 47.5 47.5 0 007.3 7l-.2-55.9z" fill="#e8ab8f"/><path d="M200.8 286a54.8 54.8 0 01-12.6-11 57.4 57.4 0 01-13-32.5l-.6-18.6 27.3-9.1 26.7 9.6-.8 18a57.5 57.5 0 01-12.3 32.5 54.7 54.7 0 01-12 11l-1.3 1-1.4-1z"/><path d="M201.8 217.4l24.2 8.7-.7 16.2c-.4 6-2 19-11.7 31a52.2 52.2 0 01-11.4 10.6 52.3 52.3 0 01-12-10.5 55.3 55.3 0 01-12.5-31.1l-.5-16.6 24.6-8.3m.1-5.2l-1.6.5-5 1.6-19.7 6.6-3.6 1.2.2 3.7.2 8.4.3 8.3v.2c.8 9 3.7 22 13.6 33.9a57.3 57.3 0 0013.2 11.5l2.7 1.8 2.8-1.9a57.3 57.3 0 0012.5-11.5 60 60 0 0012.8-33.9l.7-16.3.2-3.7-3.5-1.2-9.4-3.4-14.8-5.3-1.6-.5z" fill="#fff"/><path d="M182.8 229c-.6 8.2-1 28.6 12.8 44a46.7 46.7 0 006.4 6 46.7 46.7 0 006.4-6c13.5-15.5 13-35.8 12.4-44l-19-5.9-19 5.9z" fill="#d75b2b"/><path d="M201.8 223.1l-19 5.9a59.3 59.3 0 0012 43 47.5 47.5 0 007.2 7l-.2-55.9z" fill="#e8ab8f"/><path d="M254.5 286a54.8 54.8 0 01-12.6-11 57.5 57.5 0 01-13-32.5l-.6-18.6 27.3-9.1 26.7 9.6-.8 18a57.5 57.5 0 01-12.3 32.5 54.7 54.7 0 01-12 11l-1.3 1-1.4-1z"/><path d="M255.5 217.4l24.2 8.7-.7 16.2c-.4 6-2 19-11.7 31a52.2 52.2 0 01-11.4 10.6 52.3 52.3 0 01-12-10.5 55.3 55.3 0 01-12.5-31.1l-.5-16.6 24.6-8.3m.1-5.2l-1.6.5-24.7 8.2-3.6 1.2.2 3.7.2 8.4.3 8.3v.2c.8 9 3.7 22 13.6 33.9a57.3 57.3 0 0013.2 11.5l2.7 1.8 2.8-1.9a57.3 57.3 0 0012.5-11.5 60 60 0 0012.8-33.9l.7-16.3.2-3.7-3.5-1.2-12-4.3-12.2-4.4-1.6-.5z" fill="#fff"/><path d="M236.5 229c-.6 8.2-1 28.6 12.8 44a46.7 46.7 0 006.4 6 46.7 46.7 0 006.4-6c13.5-15.5 13-35.8 12.4-44l-19-5.9-19 5.9z" fill="#d75b2b"/><path d="M255.5 223.1l-19 5.9a59.3 59.3 0 0012 43 47.5 47.5 0 007.2 7l-.2-55.9z" fill="#e8ab8f"/><g><path d="M121.1 258.2a54.8 54.8 0 01-12.6-11 57.5 57.5 0 01-13-32.5L95 196l27.3-9.1 26.7 9.5-.8 18a57.5 57.5 0 01-12.3 32.6 54.7 54.7 0 01-12 11l-1.3 1-1.4-1z"/><path d="M122.1 189.6l24.2 8.7-.7 16.2c-.4 6-2 19-11.7 31a52.2 52.2 0 01-11.4 10.5 52.3 52.3 0 01-12-10.5 55.3 55.3 0 01-12.5-31l-.5-16.7 24.6-8.2m.1-5.3l-1.6.6-24.7 8.2-3.6 1.2.2 3.7.2 8.3.3 8.3V215c.8 9 3.7 22 13.6 33.8a57.3 57.3 0 0013.2 11.6l2.7 1.7 2.8-1.8a57.3 57.3 0 0012.5-11.5 60 60 0 0012.8-34l.7-16.2.2-3.7-3.5-1.2-12-4.4-12.2-4.3-1.6-.6z" fill="#fff"/><path d="M103 201.1c-.5 8.3-.8 28.7 12.9 44a46.7 46.7 0 006.4 6 46.7 46.7 0 006.4-6c13.5-15.4 13-35.7 12.4-44l-19-5.8-19 5.8z" fill="#d75b2b"/><path d="M122.1 195.3l-19 5.8a59.3 59.3 0 0012 43.1 47.5 47.5 0 007.2 7l-.2-56z" fill="#e8ab8f"/><path d="M175 258.2a54.8 54.8 0 01-12.7-11 57.5 57.5 0 01-13-32.5l-.6-18.6L176 187l26.8 9.5-.9 18a57.5 57.5 0 01-12.2 32.6 54.7 54.7 0 01-12 11l-1.4 1-1.4-1z"/><path d="M176 189.6l24.2 8.7-.8 16.2c-.3 6-2 19-11.7 31a52.2 52.2 0 01-11.4 10.5 52.3 52.3 0 01-12-10.5 55.3 55.3 0 01-12.4-31l-.6-16.7 24.7-8.2m0-5.3l-1.6.6-24.7 8.2-3.5 1.2.1 3.7.3 8.3.3 8.3V215c.7 9 3.6 22 13.5 33.8a57.3 57.3 0 0013.2 11.6l2.8 1.7 2.7-1.8a57.3 57.3 0 0012.5-11.5 60 60 0 0012.8-34l.8-16.2.1-3.7-3.4-1.2-12.1-4.4-12.1-4.3-1.7-.6z" fill="#fff"/><path d="M156.9 201.1c-.6 8.3-.9 28.7 12.8 44a46.7 46.7 0 006.5 6 46.7 46.7 0 006.3-6c13.5-15.4 13.1-35.7 12.5-44l-19-5.8-19.1 5.8z" fill="#d75b2b"/><path d="M176 195.3l-19.1 5.8a59.3 59.3 0 0012 43.1 47.5 47.5 0 007.3 7l-.2-56z" fill="#e8ab8f"/><g><path d="M229 258.2a54.8 54.8 0 01-12.7-11 57.5 57.5 0 01-13-32.5l-.6-18.6L230 187l26.7 9.5-.8 18a57.5 57.5 0 01-12.3 32.6 54.7 54.7 0 01-12 11l-1.3 1-1.4-1z"/><path d="M230 189.6l24.1 8.7-.7 16.2c-.4 6-2 19-11.7 31a52.2 52.2 0 01-11.5 10.5 52.3 52.3 0 01-12-10.5 55.3 55.3 0 01-12.4-31l-.5-16.7 24.6-8.2m0-5.3l-1.5.6-24.7 8.2-3.6 1.2.2 3.7.2 8.5.3 8.1V215c.7 9 3.7 22 13.6 33.8a57.3 57.3 0 0013.2 11.6l2.7 1.7 2.8-1.8a57.3 57.3 0 0012.5-11.5 60 60 0 0012.8-34l.7-16.2.2-3.7-3.5-1.2-19.1-6.9-5-1.8-1.7-.6z" fill="#fff"/><path d="M210.8 201.1c-.6 8.3-.8 28.7 12.9 44a46.7 46.7 0 006.4 6 46.7 46.7 0 006.4-6c13.5-15.4 13-35.7 12.4-44l-19-5.8-19 5.8z" fill="#d75b2b"/><path d="M230 195.3l-19.2 5.8a59.3 59.3 0 0012 43.1 47.5 47.5 0 007.3 7l-.2-56z" fill="#e8ab8f"/></g></g><g><path d="M93 229.8a54.8 54.8 0 01-12.6-11 57.5 57.5 0 01-13-32.5l-.6-18.6 27.3-9 26.8 9.5-.9 18a57.5 57.5 0 01-12.2 32.6 54.7 54.7 0 01-12 11l-1.4.9-1.4-.9z"/><path d="M94 161.3l24.3 8.7-.8 16.1c-.3 6-2 19.1-11.7 31.1a52.2 52.2 0 01-11.4 10.5 52.3 52.3 0 01-12-10.5 55.3 55.3 0 01-12.5-31l-.5-16.7 24.7-8.2m0-5.3l-1.6.5-24.7 8.3-3.5 1.1.1 3.8.3 8.3.3 8.3v.2c.7 9 3.6 22.1 13.5 34a57.3 57.3 0 0013.2 11.4l2.8 1.8 2.7-1.8a57.3 57.3 0 0012.5-11.6 60 60 0 0012.8-33.8v-.1l.8-16.2.1-3.7-3.4-1.3-12.1-4.3-12.1-4.3-1.7-.6z" fill="#fff"/><path d="M75 172.8c-.6 8.2-.9 28.6 12.8 44a46.7 46.7 0 006.5 6 46.7 46.7 0 006.3-6c13.5-15.4 13.1-35.7 12.4-44L94 167l-19 6z" fill="#d75b2b"/><path d="M94 167l-19 5.8a59.3 59.3 0 0012 43 47.5 47.5 0 007.3 7l-.2-55.9z" fill="#e8ab8f"/><path d="M146.9 229.8a54.8 54.8 0 01-12.6-11 57.5 57.5 0 01-13-32.5l-.6-18.6 27.2-9 26.8 9.5-.8 18a57.5 57.5 0 01-12.3 32.6 54.7 54.7 0 01-12 11l-1.3.9-1.4-.9z"/><path d="M147.9 161.3l24.2 8.7-.7 16.1c-.4 6-2.1 19.1-11.7 31.1a52.2 52.2 0 01-11.5 10.5 52.3 52.3 0 01-12-10.5 55.3 55.3 0 01-12.4-31l-.6-16.7 24.7-8.2m0-5.3l-1.6.5-5 1.7-19.7 6.6-3.5 1.1.1 3.8.3 8.3.3 8.3v.2c.7 9 3.7 22.1 13.5 34a57.3 57.3 0 0013.2 11.4l2.8 1.8 2.7-1.8a57.3 57.3 0 0012.6-11.6 60 60 0 0012.8-33.8v-.1l.7-16.2.2-3.7-3.5-1.3-24.2-8.6-1.6-.6z" fill="#fff"/><path d="M128.8 172.8c-.6 8.2-.9 28.6 12.8 44a46.7 46.7 0 006.5 6 46.7 46.7 0 006.3-6c13.6-15.4 13.1-35.7 12.5-44l-19-5.9-19 6z" fill="#d75b2b"/><path d="M147.9 167l-19 5.8a59.3 59.3 0 0011.9 43 47.5 47.5 0 007.3 7l-.2-55.9z" fill="#e8ab8f"/><g><path d="M200.8 229.8a54.8 54.8 0 01-12.6-11 57.5 57.5 0 01-13-32.5l-.6-18.6 27.3-9 26.7 9.5-.8 18a57.5 57.5 0 01-12.2 32.6 54.7 54.7 0 01-12 11l-1.4.9-1.4-.9z"/><path d="M201.9 161.3L226 170l-.8 16.1c-.4 6-2 19.1-11.7 31.1a52.2 52.2 0 01-11.4 10.5 52.3 52.3 0 01-12-10.5 55.3 55.3 0 01-12.5-31l-.5-16.7 24.7-8.2m0-5.3l-1.6.5-24.7 8.3-3.5 1.2v3.7l.4 8.3.2 8.3v.2c.8 9 3.7 22.1 13.6 34a57.3 57.3 0 0013.2 11.4l2.8 1.8 2.7-1.8a57.3 57.3 0 0012.5-11.6 60 60 0 0012.8-33.8v-.1l.8-16.2.1-3.7-3.5-1.3-12-4.3-12.2-4.3-1.6-.6z" fill="#fff"/><path d="M182.8 172.8c-.6 8.2-1 28.6 12.8 44a46.7 46.7 0 006.5 6 46.7 46.7 0 006.3-6c13.5-15.4 13.1-35.7 12.4-44l-19-5.9-19 6z" fill="#d75b2b"/><path d="M201.9 167l-19.1 5.8a59.3 59.3 0 0012 43 47.5 47.5 0 007.3 7l-.2-55.9z" fill="#e8ab8f"/></g><g><path d="M254.5 229.8a54.8 54.8 0 01-12.6-11 57.5 57.5 0 01-13-32.5l-.6-18.6 27.3-9 26.7 9.5-.8 18a57.5 57.5 0 01-12.2 32.6 54.7 54.7 0 01-12 11l-1.4.9-1.4-.9z"/><path d="M255.6 161.3l24.2 8.7-.8 16.1c-.4 6-2 19.1-11.7 31.1a52.2 52.2 0 01-11.4 10.5 52.3 52.3 0 01-12-10.5 55.3 55.3 0 01-12.5-31l-.5-16.7 24.7-8.2m0-5.3l-1.6.5-24.7 8.3-3.5 1.2v3.7l.6 16V186.6c.8 9 3.7 22.1 13.6 34a57.3 57.3 0 0013.2 11.4l2.8 1.8 2.7-1.8a57.3 57.3 0 0012.5-11.6 60 60 0 0012.8-33.8v-.1l.3-5.4.5-10.8.1-3.7-3.5-1.3-12-4.3-12.2-4.3-1.6-.6z" fill="#fff"/><path d="M236.5 172.8c-.6 8.2-1 28.6 12.8 44a46.7 46.7 0 006.5 6 46.7 46.7 0 006.3-6c13.5-15.4 13.1-35.7 12.4-44l-19-5.9-19 6z" fill="#d75b2b"/><path d="M255.6 167l-19.1 5.8a59.3 59.3 0 0012 43 47.5 47.5 0 007.3 7l-.2-55.9z" fill="#e8ab8f"/></g></g><g><path d="M121.2 199.1a54.8 54.8 0 01-12.6-11 57.5 57.5 0 01-13-32.5L95 137l27.3-9 26.7 9.5-.8 18a57.5 57.5 0 01-12.2 32.6 54.7 54.7 0 01-12 11l-1.4.9-1.4-.9z"/><path d="M122.3 130.6l24.2 8.6-.8 16.2c-.3 6-2 19.1-11.7 31a52.2 52.2 0 01-11.4 10.6 52.3 52.3 0 01-12-10.5 55.3 55.3 0 01-12.5-31l-.5-16.7 24.7-8.2m0-5.3l-1.6.5-14.8 5L96 134l-3.5 1.1v3.8l.4 8.3.2 8.3v.2c.8 9 3.7 22.1 13.6 33.9a57.3 57.3 0 0013.2 11.5l2.8 1.8 2.7-1.9a57.3 57.3 0 0012.5-11.5 60 60 0 0012.8-33.9l.8-16.2.1-3.7-3.5-1.3-12-4.3-12.2-4.3-1.6-.6z" fill="#fff"/><path d="M103.2 142.1c-.6 8.2-1 28.6 12.8 44a46.7 46.7 0 006.5 6 46.7 46.7 0 006.3-6c13.5-15.4 13.1-35.8 12.4-44l-19-5.9-19 6z" fill="#d75b2b"/><path d="M122.3 136.2l-19.1 6a59.3 59.3 0 0012 43 47.5 47.5 0 007.3 6.9l-.2-55.9z" fill="#e8ab8f"/><path d="M175 199.1a54.8 54.8 0 01-12.5-11 57.5 57.5 0 01-13-32.5l-.6-18.6 27.2-9 26.8 9.5-.8 18a57.5 57.5 0 01-12.3 32.6 54.7 54.7 0 01-12 11l-1.3.9-1.4-.9z"/><path d="M176.1 130.6l24.2 8.6-.7 16.2c-.4 6-2.1 19.1-11.7 31a52.2 52.2 0 01-11.5 10.6 52.3 52.3 0 01-12-10.5 55.3 55.3 0 01-12.4-31l-.6-16.7 24.7-8.2m0-5.3l-1.6.5-5 1.7-19.7 6.6-3.5 1.1.1 3.8.3 8.3.3 8.3v.2c.7 9 3.6 22.1 13.5 33.9a57.3 57.3 0 0013.2 11.5l2.8 1.8 2.7-1.9a57.3 57.3 0 0012.5-11.5 60 60 0 0012.9-33.9l.3-8.1.4-8.1.2-3.7-3.5-1.3-24.2-8.6-1.6-.6z" fill="#fff"/><path d="M157 142.1c-.6 8.2-.9 28.6 12.8 44a46.7 46.7 0 006.5 6 46.7 46.7 0 006.3-6c13.6-15.4 13.1-35.8 12.5-44l-19-5.9-19 6z" fill="#d75b2b"/><path d="M176.1 136.2l-19 6a59.3 59.3 0 0011.9 43 47.5 47.5 0 007.3 6.9l-.2-55.9z" fill="#e8ab8f"/><g><path d="M229 199.1a54.8 54.8 0 01-12.6-11 57.5 57.5 0 01-13-32.5l-.6-18.6 27.3-9 26.7 9.5-.8 18a57.5 57.5 0 01-12.2 32.6 54.7 54.7 0 01-12 11l-1.4.9-1.4-.9z"/><path d="M230 130.6l24.3 8.6-.8 16.2c-.4 6-2 19.1-11.7 31a52.2 52.2 0 01-11.4 10.6 52.3 52.3 0 01-12-10.5 55.3 55.3 0 01-12.5-31l-.5-16.7 24.7-8.2m0-5.3l-1.6.5L216 130l-12.3 4.2-3.5 1.1v3.8l.4 8.3.2 8.3v.2c.8 9 3.7 22.1 13.6 33.9a57.3 57.3 0 0013.2 11.5l2.8 1.8 2.7-1.9a57.3 57.3 0 0012.5-11.5 60 60 0 0012.8-33.9l.8-16.2.1-3.7-3.5-1.3-12-4.3-12.2-4.3-1.6-.6z" fill="#fff"/><path d="M211 142.1c-.6 8.2-1 28.6 12.8 44a46.7 46.7 0 006.5 6 46.7 46.7 0 006.3-6c13.5-15.4 13.1-35.8 12.4-44l-19-5.9-19 6z" fill="#d75b2b"/><path d="M230 136.2l-19 6a59.3 59.3 0 0012 43 47.5 47.5 0 007.3 6.9l-.2-55.9z" fill="#e8ab8f"/></g></g><g><path d="M116.4 128.4a65 65 0 0016 43.1 58.8 58.8 0 0015.4 12.1 57.4 57.4 0 0015.7-12.8 63 63 0 0014-42.4h-61.1zm107.6 0a65 65 0 0016 43.1 58.8 58.8 0 0015.5 12.1 57.4 57.4 0 0015.6-12.8 63 63 0 0014-42.4H224z" fill="#fff"/><path d="M62.5 128.4a65 65 0 0016 43.1A58.8 58.8 0 0094 183.6a57.4 57.4 0 0015.6-12.8 63 63 0 0014-42.4H62.5zm107.8 0a65 65 0 0016 43.1 58.8 58.8 0 0015.4 12.1 57.4 57.4 0 0015.7-12.8 63 63 0 0014-42.4h-61.1z" fill="#fff"/><path d="M89 167.8l-.2-.1.1.1zm4.8 4.3a46.7 46.7 0 006.3-6c13.2-15 13.1-34.7 12.5-43.3h-19l.2 49.3zm-2.9-2.4l-.5-.5.5.5zm2.9 2.4z" fill="#d75b2b"/><path d="M86.5 165.1c.7 1 1.5 1.8 2.3 2.6a46.9 46.9 0 01-1.5-1.6 59 59 0 00-.8-1zm3.9 4.1zm1.6 1.5l-1-1 1 1z" fill="#e8ab8f"/><linearGradient id="a" gradientUnits="userSpaceOnUse" x1="93.8" y1="147.4" x2="74.3" y2="147.4"><stop offset="0" stop-color="#e8ab8f"/><stop offset="1" stop-color="#d75b2b"/></linearGradient><path d="M74.4 122.8C74 131.3 74 151 87.3 166a46.9 46.9 0 001.5 1.6l.1.1 1.5 1.4.5.5 1.1 1a50.5 50.5 0 001.8 1.4l-.2-49.3H74.4z" fill="url(#a)"/><path d="M144.7 169.7l-.5-.5.5.5zm2.9 2.4a46.7 46.7 0 006.3-6c13.2-15 13.1-34.7 12.5-43.3h-19l.2 49.3zm-4.8-4.3l-.1-.1v.1zm4.8 4.3z" fill="#d75b2b"/><path d="M140.3 165.1l2.4 2.6a46.9 46.9 0 01-1.6-1.6 59 59 0 00-.8-1zm4 4.1zm1.6 1.5l-1.2-1 1.2 1z" fill="#e8ab8f"/><linearGradient id="b" gradientUnits="userSpaceOnUse" x1="147.6" y1="147.4" x2="128.1" y2="147.4"><stop offset="0" stop-color="#e8ab8f"/><stop offset="1" stop-color="#d75b2b"/></linearGradient><path d="M128.3 122.8c-.6 8.6-.5 28.3 12.8 43.3a46.9 46.9 0 001.6 1.6v.1l1.5 1.4.5.5 1.2 1a50.5 50.5 0 001.7 1.4l-.2-49.3h-19.1z" fill="url(#b)"/><path d="M198.7 169.7l-.5-.5.5.5zm-2-1.9v-.1.1zm4.9 4.3zm0 0a46.7 46.7 0 006.3-6c13.2-15 13.1-34.7 12.5-43.3h-19l.2 49.3z" fill="#d75b2b"/><path d="M199.8 170.7l-1.1-1 1.1 1zm-1.6-1.5zm-4-4l2.4 2.5a46.9 46.9 0 01-1.5-1.6 59 59 0 00-.8-1z" fill="#e8ab8f"/><linearGradient id="c" gradientUnits="userSpaceOnUse" x1="201.6" y1="147.4" x2="182.1" y2="147.4"><stop offset="0" stop-color="#e8ab8f"/><stop offset="1" stop-color="#d75b2b"/></linearGradient><path d="M182.2 122.8c-.5 8.6-.5 28.3 12.9 43.3a46.9 46.9 0 001.5 1.6l.1.1 1.5 1.4.5.5 1.1 1a50.5 50.5 0 001.8 1.4l-.2-49.3h-19.2z" fill="url(#c)"/><path d="M255.2 172zm-4.8-4.2v-.1.1zm4.8 4.3a46.7 46.7 0 006.4-6c13.2-15 13.1-34.7 12.5-43.3h-19l.1 49.3zm-2.8-2.4l-.5-.5.5.5z" fill="#d75b2b"/><path d="M248 165.1c.7 1 1.5 1.8 2.3 2.6a46.9 46.9 0 01-1.5-1.6 59 59 0 00-.8-1zm3.9 4.1zm1.6 1.5l-1.1-1 1.1 1z" fill="#e8ab8f"/><linearGradient id="d" gradientUnits="userSpaceOnUse" x1="255.2" y1="147.4" x2="235.8" y2="147.4"><stop offset="0" stop-color="#e8ab8f"/><stop offset="1" stop-color="#d75b2b"/></linearGradient><path d="M236 122.8c-.6 8.6-.6 28.3 12.8 43.3a46.9 46.9 0 001.5 1.6l.1.1 1.5 1.4.5.5 1.1 1a50.5 50.5 0 001.7 1.4l-.1-49.3h-19.2z" fill="url(#d)"/><path d="M280.6 123l-6.5-.2c.6 8.6.7 28.2-12.5 43.3a46.7 46.7 0 01-6.4 6 46.2 46.2 0 01-1.7-1.4l-1.1-1-.5-.5-1.5-1.4v-.1a46.2 46.2 0 01-2.5-2.6 59 59 0 01-12-42.4h-15.5c.6 8.7.7 28.3-12.5 43.4a46.7 46.7 0 01-6.3 6 46.2 46.2 0 01-1.8-1.4l-1.1-1-.5-.5-1.5-1.4v-.1a46.2 46.2 0 01-2.5-2.6 59 59 0 01-12-42.4h-15.8c.6 8.7.7 28.3-12.5 43.4a46.7 46.7 0 01-6.3 6 46.2 46.2 0 01-1.7-1.4l-1.2-1-.5-.5-1.4-1.4-.1-.1a46.2 46.2 0 01-2.4-2.6 59 59 0 01-12-42.4h-15.7c.6 8.7.7 28.3-12.5 43.4a46.7 46.7 0 01-6.3 6 46.2 46.2 0 01-1.8-1.4l-1.1-1-.5-.5-1.5-1.4v-.1a46.2 46.2 0 01-2.4-2.6 59 59 0 01-12-42.4h-5.1v12.4c.5 6 2.3 19.3 12.4 31.4a52.3 52.3 0 0012 10.5 52.3 52.3 0 0011.5-10.5 55.3 55.3 0 0011.7-31.1l.4-8h5.6l.3 8c.4 5.9 2.4 19.2 12.4 31a52.3 52.3 0 0012 10.6 52.3 52.3 0 0011.4-10.5 55.3 55.3 0 0011.8-31.1l.3-8h5.8l.2 8c.5 5.9 2.4 19.2 12.4 31a52.3 52.3 0 0012 10.6 52.3 52.3 0 0011.5-10.5 55.3 55.3 0 0011.7-31.1l.4-8h5.5l.2 8c.5 5.9 2.4 19.2 12.4 31a52.3 52.3 0 0012 10.6 58.7 58.7 0 0025-42.2 63.5 63.5 0 00.3-11.8z"/></g></g></switch></svg>