<svg xmlns="http://www.w3.org/2000/svg" viewBox="0 0 350 350"><switch><g><path fill="#fff" d="M223 60v35h-15V60h-66v35h-15V60H60v230h230V60z"/><path d="M234 70v36h-35V70h-47v36h-35V70H69v211h212V70z"/><path fill="#d75b2b" d="M244 79v36h-55V79h-27v36h-54V79H79v31l-4 13 4 30v85l190 4a700 700 0 012-91 697 697 0 013-28l-3-13V79h-26z"/><path d="M93 286a55 55 0 01-13-11 58 58 0 01-13-32v-19l27-9 27 9-1 18a58 58 0 01-12 33 55 55 0 01-12 11l-2 1-1-1z"/><path fill="#fff" d="M94 217l24 9-1 16c0 6-1 19-11 31a52 52 0 01-12 11 52 52 0 01-12-10 55 55 0 01-12-32l-1-16 25-8m0-6l-2 1-24 8-4 1v4l1 8v9c1 9 4 22 14 34a57 57 0 0013 11l3 2 2-2a57 57 0 0013-12 60 60 0 0013-33v-20l-3-2-12-4-12-4-2-1z"/><path fill="#d75b2b" d="M75 229c-1 8-1 29 13 44a47 47 0 006 6 47 47 0 007-6c13-15 13-36 12-44l-19-6-19 6z"/><path fill="#e8ab8f" d="M94 223l-19 6a59 59 0 0012 43 48 48 0 007 7v-56z"/><path d="M147 286a55 55 0 01-13-11 58 58 0 01-13-32v-19l27-9 27 9-1 18a58 58 0 01-12 33 55 55 0 01-12 11l-2 1-1-1z"/><path fill="#fff" d="M148 217l24 9-1 16c0 6-2 19-11 31a52 52 0 01-12 11 52 52 0 01-12-11 55 55 0 01-12-31l-1-16 25-9m0-5l-2 1-24 8-4 1v12l1 8v1c0 9 3 22 13 34a57 57 0 0013 11l3 2 3-2a57 57 0 0012-11 60 60 0 0013-34l1-17v-3l-3-2-12-4-12-4-2-1z"/><path fill="#d75b2b" d="M129 229c-1 8-1 29 13 44a47 47 0 006 6 47 47 0 006-6c14-15 14-36 13-44l-19-6-19 6z"/><path fill="#e8ab8f" d="M148 223l-19 6a59 59 0 0012 43 48 48 0 007 7v-56z"/><path d="M201 286a55 55 0 01-13-11 57 57 0 01-13-32v-19l27-9 27 9-1 18a58 58 0 01-12 33 55 55 0 01-12 11l-2 1-1-1z"/><path fill="#fff" d="M202 217l24 9-1 16c0 6-2 19-11 31a52 52 0 01-12 11 52 52 0 01-12-11 55 55 0 01-12-31l-1-16 25-9m0-5l-2 1-5 1-19 7-4 1v12l1 8v1c1 9 3 22 13 34a57 57 0 0014 11l2 2 3-2a57 57 0 0013-11 60 60 0 0012-34l1-17v-3l-3-2-10-3-15-5-1-1z"/><path fill="#d75b2b" d="M183 229c-1 8-1 29 13 44a47 47 0 006 6 47 47 0 006-6c14-15 13-36 13-44l-19-6-19 6z"/><path fill="#e8ab8f" d="M202 223l-19 6a59 59 0 0012 43 48 48 0 007 7v-56z"/><path d="M255 286a55 55 0 01-13-11 58 58 0 01-13-32l-1-19 28-9 26 9v18a58 58 0 01-13 33 55 55 0 01-12 11l-1 1-2-1z"/><path fill="#fff" d="M256 217l24 9-1 16c0 6-2 19-12 31a52 52 0 01-11 11 52 52 0 01-12-11 55 55 0 01-13-31v-16l25-9m0-5l-2 1-25 8-3 1v21c1 9 4 22 14 34a57 57 0 0013 11l3 2 3-2a57 57 0 0012-11 60 60 0 0013-34l1-17v-3l-4-2-12-4-12-4-1-1z"/><path fill="#d75b2b" d="M237 229c-1 8-1 29 12 44a47 47 0 007 6 47 47 0 006-6c14-15 13-36 13-44l-19-6-19 6z"/><path fill="#e8ab8f" d="M256 223l-19 6a59 59 0 0012 43 48 48 0 007 7l-1-56z"/><path d="M121 258a55 55 0 01-13-11 58 58 0 01-12-32l-1-19 27-9 27 9-1 18a58 58 0 01-12 33 55 55 0 01-12 11l-1 1-2-1z"/><path fill="#fff" d="M122 190l24 8v16c-1 6-2 19-12 31a52 52 0 01-11 11 52 52 0 01-12-11 55 55 0 01-13-31v-16l24-8m0-6l-1 1-25 8-4 1v4l1 8v9c1 9 4 22 14 34a57 57 0 0013 11l2 2 3-2a57 57 0 0013-11 60 60 0 0013-34v-16l1-4-4-1-12-5-12-4-2-1z"/><path fill="#d75b2b" d="M103 201c0 8-1 29 13 44a47 47 0 006 6 47 47 0 007-6c13-15 13-36 12-44l-19-6-19 6z"/><path fill="#e8ab8f" d="M122 195l-19 6a59 59 0 0012 43 48 48 0 007 7v-56z"/><path d="M175 258a55 55 0 01-13-11 58 58 0 01-13-32v-19l27-9 27 10-1 18a58 58 0 01-12 32 55 55 0 01-12 11l-2 1-1-1z"/><path fill="#fff" d="M176 190l24 8-1 16c0 6-2 19-11 31a52 52 0 01-12 11 52 52 0 01-12-11 55 55 0 01-12-31l-1-16 25-8m0-6l-2 1-24 8-4 1v4l1 8v9c1 9 4 22 13 34a57 57 0 0014 11l2 2 3-2a57 57 0 0013-11 60 60 0 0012-34l1-16v-4l-3-1-12-5-12-4-2-1z"/><path fill="#d75b2b" d="M157 201c-1 8-1 29 13 44a47 47 0 006 6 47 47 0 007-6c13-15 13-36 12-44l-19-6-19 6z"/><path fill="#e8ab8f" d="M176 195l-19 6a59 59 0 0012 43 48 48 0 007 7v-56z"/><path d="M229 258a55 55 0 01-13-11 58 58 0 01-13-32v-19l27-9 27 10-1 18a58 58 0 01-12 32 55 55 0 01-12 11l-2 1-1-1z"/><path fill="#fff" d="M230 190l24 8-1 16c0 6-2 19-11 31a52 52 0 01-12 11 52 52 0 01-12-11 55 55 0 01-12-31l-1-16 25-8m0-6l-2 1-24 8-4 1v4l1 8v9c1 9 4 22 13 34a57 57 0 0014 11l2 2 3-2a57 57 0 0013-11 60 60 0 0012-34l1-16v-4l-3-1-19-7-5-2-2-1z"/><path fill="#d75b2b" d="M211 201c-1 8-1 29 13 44a47 47 0 006 6 47 47 0 007-6c13-15 13-36 12-44l-19-6-19 6z"/><path fill="#e8ab8f" d="M230 195l-19 6a59 59 0 0012 43 48 48 0 007 7v-56z"/><g><path d="M93 230a55 55 0 01-13-11 58 58 0 01-13-33v-18l27-9 27 9-1 18a58 58 0 01-12 33 55 55 0 01-12 11l-2 1-1-1z"/><path fill="#fff" d="M94 161l24 9-1 16c0 6-1 19-11 31a52 52 0 01-12 11 52 52 0 01-12-11 55 55 0 01-12-31l-1-17 25-8m0-5l-2 1-24 8-4 1v4l1 8v9c1 9 4 22 13 34a57 57 0 0014 11l2 2 3-2a57 57 0 0013-12 60 60 0 0012-33v-1l1-16v-3l-3-2-12-4-12-4-2-1z"/><path fill="#d75b2b" d="M75 173c-1 8-1 28 13 44a47 47 0 006 6 47 47 0 007-6c13-16 13-36 12-44l-19-6-19 6z"/><path fill="#e8ab8f" d="M94 167l-19 6a59 59 0 0012 43 48 48 0 007 7v-56z"/><path d="M147 230a55 55 0 01-13-11 58 58 0 01-13-33v-18l27-9 27 9-1 18a58 58 0 01-12 33 55 55 0 01-12 11l-2 1-1-1z"/><path fill="#fff" d="M148 161l24 9-1 16c0 6-2 19-11 31a52 52 0 01-12 11 52 52 0 01-12-11 55 55 0 01-12-31l-1-17 25-8m0-5l-2 1-5 1-19 7-4 1v4l1 8v9c0 9 3 22 13 34a57 57 0 0014 11l2 2 3-2a57 57 0 0013-12 60 60 0 0012-33v-1l1-16v-3l-3-2-24-8-2-1z"/><path fill="#d75b2b" d="M129 173c-1 8-1 28 13 44a47 47 0 006 6 47 47 0 006-6c14-16 14-36 13-44l-19-6-19 6z"/><path fill="#e8ab8f" d="M148 167l-19 6a59 59 0 0012 43 48 48 0 007 7v-56z"/><path d="M201 230a55 55 0 01-13-11 58 58 0 01-13-33v-18l27-9 27 9-1 18a58 58 0 01-12 33 55 55 0 01-12 11l-2 1-1-1z"/><path fill="#fff" d="M202 161l24 9-1 16c0 6-2 19-12 31a52 52 0 01-11 11 52 52 0 01-12-11 55 55 0 01-12-31l-1-17 25-8m0-5l-2 1-25 8-3 1v12l1 8v1c0 9 3 22 13 34a57 57 0 0013 11l3 2 3-2a57 57 0 0012-12 60 60 0 0013-33v-1l1-16v-3l-3-2-12-4-13-4-1-1z"/><path fill="#d75b2b" d="M183 173c-1 8-1 28 13 44a47 47 0 006 6 47 47 0 006-6c14-16 14-36 13-44l-19-6-19 6z"/><path fill="#e8ab8f" d="M202 167l-19 6a59 59 0 0012 43 48 48 0 007 7v-56z"/><g><path d="M255 230a55 55 0 01-13-11 58 58 0 01-13-33l-1-18 28-9 26 9v18a58 58 0 01-13 33 55 55 0 01-12 11l-1 1-1-1z"/><path fill="#fff" d="M256 161l24 9-1 16c0 6-2 19-12 31a52 52 0 01-11 11 52 52 0 01-12-11 55 55 0 01-13-31v-17l25-8m0-5l-2 1-25 8-3 1v21c1 9 4 22 14 34a57 57 0 0013 11l3 2 3-2a57 57 0 0012-12 60 60 0 0013-33v-6l1-11v-3l-4-2-12-4-12-4-1-1z"/><path fill="#d75b2b" d="M237 173c-1 8-1 28 12 44a47 47 0 007 6 47 47 0 006-6c14-16 13-36 13-44l-19-6-19 6z"/><path fill="#e8ab8f" d="M256 167l-20 6a59 59 0 0013 43 48 48 0 007 7v-56z"/></g></g><g><path d="M121 199a55 55 0 01-12-11 58 58 0 01-13-32l-1-19 27-9 27 10-1 18a58 58 0 01-12 32 55 55 0 01-12 11l-1 1-2-1z"/><path fill="#fff" d="M122 131l24 8v16c-1 6-2 19-12 31a52 52 0 01-11 11 52 52 0 01-12-11 55 55 0 01-13-31v-16l24-8m0-6l-1 1-15 5-10 3-3 1v21c1 9 4 22 14 34a57 57 0 0013 11l3 2 2-2a57 57 0 0013-11 60 60 0 0013-34l1-17v-3l-4-2-12-4-12-4-2-1z"/><path fill="#d75b2b" d="M103 142c0 8-1 29 13 44a47 47 0 007 6 47 47 0 006-6c13-15 13-36 12-44l-19-6-19 6z"/><path fill="#e8ab8f" d="M122 136l-19 6a59 59 0 0012 43 48 48 0 007 7v-56z"/><path d="M175 199a55 55 0 01-12-11 58 58 0 01-13-32l-1-19 27-9 27 10-1 18a58 58 0 01-12 32 55 55 0 01-12 11l-2 1-1-1z"/><path fill="#fff" d="M176 131l24 8v16c-1 6-3 19-12 31a52 52 0 01-12 11 52 52 0 01-12-11 55 55 0 01-12-31l-1-16 25-8m0-6l-2 1-4 1-20 7-4 1v4l1 8v9c1 9 4 22 14 34a57 57 0 0013 11l3 2 2-2a57 57 0 0013-11 60 60 0 0013-34v-16l1-4-4-1-24-9-2-1z"/><path fill="#d75b2b" d="M157 142c-1 8-1 29 13 44a47 47 0 006 6 47 47 0 007-6c13-15 13-36 12-44l-19-6-19 6z"/><path fill="#e8ab8f" d="M176 136l-19 6a59 59 0 0012 43 48 48 0 007 7v-56z"/><path d="M229 199a55 55 0 01-13-11 58 58 0 01-13-32v-19l27-9 27 10-1 18a58 58 0 01-12 32 55 55 0 01-12 11l-2 1-1-1z"/><path fill="#fff" d="M230 131l24 8v16c-1 6-2 19-12 31a52 52 0 01-12 11 52 52 0 01-12-11 55 55 0 01-12-31l-1-16 25-8m0-6l-2 1-12 4-12 4-4 1v4l1 8v9c1 9 3 22 13 34a57 57 0 0014 11l2 2 3-2a57 57 0 0013-11 60 60 0 0012-34l1-16v-4l-3-1-12-5-12-4-2-1z"/><path fill="#d75b2b" d="M211 142c-1 8-1 29 13 44a47 47 0 006 6 47 47 0 007-6c13-15 13-36 12-44l-19-6-19 6z"/><path fill="#e8ab8f" d="M230 136l-19 6a59 59 0 0012 43 48 48 0 007 7v-56z"/></g><g><path fill="#fff" d="M116 128a65 65 0 0016 44 59 59 0 0016 12 57 57 0 0016-13 63 63 0 0014-43h-62zm108 0a65 65 0 0016 44 59 59 0 0016 12 57 57 0 0015-13 63 63 0 0014-43h-61z"/><path fill="#fff" d="M63 128a65 65 0 0016 44 59 59 0 0015 12 57 57 0 0016-13 63 63 0 0014-43H63zm107 0a65 65 0 0016 44 59 59 0 0016 12 57 57 0 0015-13 63 63 0 0014-43h-61z"/><path fill="#d75b2b" d="M89 168zm5 4a47 47 0 006-6c13-15 13-35 13-43H94v49zm-3-2l-1-1 1 1zm3 2z"/><path fill="#e8ab8f" d="M87 165l2 3a47 47 0 01-2-2 59 59 0 00-1-1zm3 4zm2 2l-1-1 1 1z"/><linearGradient id="a" x1="93.8" x2="74.3" y1="147.4" y2="147.4" gradientUnits="userSpaceOnUse"><stop offset="0" stop-color="#e8ab8f"/><stop offset="1" stop-color="#d75b2b"/></linearGradient><path fill="url(#a)" d="M74 123c0 8 0 28 13 43a47 47 0 002 2l1 1 1 1 1 1a51 51 0 002 1v-49H74z"/><path fill="#d75b2b" d="M145 170l-1-1 1 1zm3 2a47 47 0 006-6c13-15 13-35 12-43h-19l1 49zm-5-4zm5 4z"/><path fill="#e8ab8f" d="M140 165l3 3a47 47 0 01-2-2 59 59 0 00-1-1zm4 4zm2 2l-1-1 1 1z"/><linearGradient id="b" x1="147.6" x2="128.1" y1="147.4" y2="147.4" gradientUnits="userSpaceOnUse"><stop offset="0" stop-color="#e8ab8f"/><stop offset="1" stop-color="#d75b2b"/></linearGradient><path fill="url(#b)" d="M128 123c0 8 0 28 13 43a47 47 0 002 2l1 1 1 1 1 1a51 51 0 002 1l-1-49h-19z"/><path fill="#d75b2b" d="M199 170l-1-1 1 1zm-2-2zm5 4zm0 0a47 47 0 006-6c13-15 13-35 12-43h-19l1 49z"/><path fill="#e8ab8f" d="M200 171l-1-1 1 1zm-2-2zm-4-4l3 3a47 47 0 01-2-2 59 59 0 00-1-1z"/><linearGradient id="c" x1="201.6" x2="182.1" y1="147.4" y2="147.4" gradientUnits="userSpaceOnUse"><stop offset="0" stop-color="#e8ab8f"/><stop offset="1" stop-color="#d75b2b"/></linearGradient><path fill="url(#c)" d="M182 123c0 8 0 28 13 43a47 47 0 002 2l1 1 1 1 1 1a51 51 0 002 1l-1-49h-19z"/><path fill="#d75b2b" d="M255 172zm-5-4zm5 4a47 47 0 007-6c13-15 13-35 12-43h-19v49zm-3-2v-1 1z"/><path fill="#e8ab8f" d="M248 165l2 3a47 47 0 01-1-2 59 59 0 00-1-1zm4 4zm2 2l-2-1 2 1z"/><linearGradient id="d" x1="255.2" x2="235.8" y1="147.4" y2="147.4" gradientUnits="userSpaceOnUse"><stop offset="0" stop-color="#e8ab8f"/><stop offset="1" stop-color="#d75b2b"/></linearGradient><path fill="url(#d)" d="M236 123c-1 8-1 28 13 43a47 47 0 001 2l2 1v1l2 1a51 51 0 001 1v-49h-19z"/><path d="M281 123h-7c1 8 1 28-12 43a47 47 0 01-7 6 46 46 0 01-1-1l-2-1v-1l-2-1a46 46 0 01-2-3 59 59 0 01-12-42h-16c1 8 1 28-12 43a47 47 0 01-6 6 46 46 0 01-2-1l-1-1-1-1-1-1a46 46 0 01-3-3 59 59 0 01-12-42h-16c1 8 1 28-12 43a47 47 0 01-6 6 46 46 0 01-2-1l-1-1-1-1-1-1a46 46 0 01-3-3 59 59 0 01-12-42h-15c0 8 0 28-13 43a47 47 0 01-6 6 46 46 0 01-2-1l-1-1-1-1-1-1a46 46 0 01-2-3 59 59 0 01-12-42h-6v12c1 6 3 19 13 31a52 52 0 0012 11 52 52 0 0011-10 55 55 0 0012-32v-8h6v8c1 6 3 20 13 31a52 52 0 0012 11 52 52 0 0011-10 55 55 0 0012-32v-8h6v8c1 6 3 20 13 31a52 52 0 0012 11 52 52 0 0011-10 55 55 0 0012-32v-8h6v8c0 6 2 20 12 31a52 52 0 0012 11 59 59 0 0025-42 64 64 0 001-12z"/></g></g></switch></svg>