<svg xmlns="http://www.w3.org/2000/svg" xmlns:xlink="http://www.w3.org/1999/xlink" viewBox="0 0 350 350"><switch><g><path fill="#fff" d="M60 60h230v230H60z"/><path d="M69 69h212v212H69z"/><path fill="#478b40" d="M79 79h193v193H79z"/><defs><path id="a" d="M79 79h193v193H79z"/></defs><clipPath id="b"><use overflow="visible" xlink:href="#a"/></clipPath><path d="M227 172a13214 13214 0 0051-99H77v48a256 256 0 007 13l10 15 14 21 3 10c3 10 14 36 47 96h69a207 207 0 007-17c3-9 1-22 0-25l-8-62zm-122-24l-7-12-3-8-4-8c-1-3-11-20-10-21 1 0 7 5 9 12l4 8 3 4 2 8c2 4 3 3 4 7l2 10zm-20 1c-1 0 1 5 4 9l2 2s0-4-2-7l-4-4z"/><path d="M252 143l8-15 15-28 1-15a374 374 0 00-11 19c-7 12-15 26-21 46a232 232 0 00-8 26c7-8 10-15 11-19l5-14zm8-4l-8 13a298 298 0 00-13 26l10-11 10-15 7-13a36 36 0 0110-13l2-17a234 234 0 00-7 11c-5 6-6 10-12 19z"/><path d="M136 250l-1-17-2-9c-1-7-2-16-1-31l27-12 3-111 13-52 13 53 1 99 30-12 9 15 6 1c6 1 8 1 11 3 2 2 4 5 4 9 0 5-4 10-10 12l16 40a16 16 0 01-18 3 28 28 0 000 6l1 4 1 7-39 7-61-36-3 21z"/><g fill="#fff"><path d="M185 271l-44 1a754 754 0 00-1-37c-2-22-3-29 1-36 4-6 8-7 30-15 35-13 39-17 46-14 4 2 5 4 17 31 12 26 16 34 13 36-2 2-8-1-11-5-3-3-4-7-5-9-4-20-2-28-7-34a20 20 0 00-12-6l-15 3a163 163 0 00-19 7c-6 3-14 7-13 8 0 2 11-1 16-3l15-5 15-3 7 3c5 4 4 9 8 28l3 21c2 6 3 9 2 10-2 2-11-1-14-6-2-5 1-8 1-22 1-12-1-16-3-18l-6-3c-4-1-8 0-13 2-8 3-19 9-19 11 1 1 7 0 10-1l13-5h9c1 1 3 3 2 17 0 9-1 14-3 19-2 7-8 14-11 14-2-1-2-7-2-9l2-15c2-7 1-8 0-8-1-1-2 0-6 2a1406 1406 0 00-9 4 55 55 0 014 11c2 11 1 20-1 26zm47-93c1-1 6 2 7 2 3 2 6 4 6 6l-3 3a530 530 0 00-4 4 37 37 0 00-4-9c-1-4-3-5-2-6zM175 36l-10 54v83a12 12 0 00-2 3 12 12 0 00-2 4l24-9V92l-10-56zm0 133a653 653 0 01-1-20V71l1-17 1 17v78l-1 20zm34-45c1 0 4-1 5-3v-3a76 76 0 00-1-5l11-6v5l1 4 3-1 1-2v-4a127 127 0 010-4l11-5a1387 1387 0 00-12 24c-8 17-10 22-16 27a39 39 0 01-20 9v-26a14 14 0 013-4l7-5a47 47 0 006-3M193 112l3 2c5 1 10-1 11 1v3l-5 4-9 2v-12zm-3-34a75 75 0 001 15c1 2 2 4 10 11a223 223 0 006 6l-2-11c-1-2-2-3-1-4h6a4 4 0 011 2l1 11 11-6a39 39 0 00-2-9c-1-1-2-3-1-4l2-2h3l1 2 1 3 1 8c1 0 19-7 28-12 2-1 5-4 6-7a8 8 0 000-3h-72zm-82 22l11 5a55 55 0 000 5l1 4c0 1 2 2 3 1l1-5v-3l11 5a103 103 0 010 8v7h3l1-3v-2l18 11v26a45 45 0 01-22-11c-7-8-8-15-21-38a417 417 0 00-6-11zm49 12a31 31 0 01-10 2c-3 0-6-1-7 1l1 2c4 4 12 6 16 7v-12zM87 78v2c2 5 7 8 13 12a212 212 0 0021 8l1-5 2-4 2-1 2 2-1 6a53 53 0 00-1 4l12 4 1-9 2-3 2 1c2 1 1 4 0 10a62 62 0 000 3c2 1 5-3 11-8l5-5 2-7V78H86z"/></g></g></switch></svg>