<svg xmlns="http://www.w3.org/2000/svg" viewBox="0 0 350 350"><switch><g><path fill="#fff" d="M60 60h230v230H60z"/><path fill="#191917" d="M70 70h211v211H70z"/><path fill="#0c0c0c" d="M79 79h192v192H79z"/><g fill="#fff"><path d="M67 220a5 5 0 002 1l3 1v1l-1 2-2 1-2 2v-8zm3 15l2 2-1 2-1-1v-3zm5 10l-2-1v3h1l1-2zm1 0v-1l1-1a10 10 0 012 0l-2 1-1 1zm-2 14h1v-1l1-1-1-1h-1l-1 2 1 1zm8 11v-1l1-1 1 1v1h-2zm6-7v-1h2l1 1-2 1h-1v-2zm0 5v2l2 2 1-1h2l1-1a3 3 0 000-2v-1h-2l-2-1v1l-2 1zm4 7l3 1-1 1h-2v-2z"/><path d="M255 198l-72 73-109-73h-7v17l4 1v3l3 1 1 3 2 2 1 2h-1c-1 1 2 2 1 3l-1 1-1-1h-3v2h2l-1 3c-1 4 5 7 4 11-1 2-3 2-3 4-1 1 0 2 1 4l2 5v17l1 1 1-1 1-4c0-2 0-5 2-6h1l2-2-1-2h-2a1 1 0 010-1v-1h2l6 1v2h1v2h1v-3l1 1h1l1 1-1 1h2l1 1v13l-4 3 4 7v13l1 2 2-1 1-7v-7l1-2 3-6a9 9 0 001-1l1-8v-1l1 1v1l1 1c0 1-2 1-2 3l1 1h1v-1h1l1 2c1 0 2-2 1-4l-1-2h1l1 2h1l-1 2v5l5 1a20 20 0 01-1-3v-2l1-1 1-1h1a1 1 0 011 0l-1 1 1 3-1-1-1-1h-1l2 2 2 3 100 3 13-3v-3l1-1v-1l-1-1h-1c-1-1 1-2 1-2l1-1v-1h1v1l-1 1-1 2h1l1-1h1l1-1 1 1v2l2 2 1-2h2v3a80 80 0 000 4v6l1 9 1 1 2-1v-11a48 48 0 010-7 58 58 0 010-5v-6-2l2 1-1 1v2l1-1 2-1h-1a21 21 0 01-1-1 11 11 0 01-1-2l-1-2 1-2-1-1h2a3 3 0 001-1l-1-1 1-1h2l2 1v1h1v-1-2l-1-1 1-1 1 1v2h2l-1-1v-1h1v-1l2-1 2 2v1h-2v2l1-1 2 3 1 4v7h3v-3-6a25 25 0 011-11c1-3 3-4 2-6 0-2-3-3-3-4h1v-1h2v-1h1v2h1v-2h1l-1-2v-1-1l1-2 1-2v-1h1l1-1a1 1 0 000-1l-2-1 1-1 1 1h1v-1l-1-1v-1l2-1 5-28h-31zm-143 77v1h-1l-1-1h2zm123-3l1 1h-3l2-1zm-7 8h-2l-1-1h1l1-1v1h1v1zm2-1l-1-2h-1v-1l2 1v2zm5 0v1a1 1 0 01-1 1 2 2 0 000-1l1-1zm-1-3h-1v-1h3l-2 1zm4-5h-2v-1h2l1-1a2 2 0 01-1 2zm3 1l-1 1v-1l1-1a7 7 0 010 1z"/><path d="M240 278v1a1 1 0 01-1-1 1 1 0 011 0zm12 1h1l-1-2-1 2h1zm2-7l1 2-1 1-2-1 2-2zm-2-3v-2l1-1h1l1 1-1 2h-2zm5-4v-1l-1 1zm4 0l1-1 1-1v-1l-3 2h1v1zm-1 3l1 1h-1l-1-1h1zm5-1h1v1h-1v-1zm8-3v1l1 1-2 1h-1v-2l2-1zm4-1h1l-1-2-1 1 1 1zm-4-4l2-3-2-1-2 1 2 3zm4-3v-1h1l1 1h1v1h-1l-1 1-1-1a1 1 0 010-1zm-1-3a1 1 0 001-1l-1-1a2 2 0 00-1-1v1c-1 1 0 2 1 2zm0-7h1v2a1 1 0 01-1 0v-2zm1-3l1-1c1-1 2 0 3 1 0 1-1 2-2 1l-2-1zm1-3h4v-2l-2 1-1-1-1 1v1zm0-3h1v-2l1-1-2-1v1h-1v1l1 1v1zM67 220a5 5 0 002 1l3 1v1l-1 2-2 1-2 2v-8zm3 15l2 2-1 2-1-1v-3zm5 10l-2-1v3h1l1-2zm1 0v-1l1-1a10 10 0 012 0l-2 1-1 1zm-2 14h1v-1l1-1-1-1h-1l-1 2 1 1zm8 11v-1l1-1 1 1v1h-2zm6-7v-1h2l1 1-2 1h-1v-2zm0 5v2l2 2 1-1h2l1-1a3 3 0 000-2v-1h-2l-2-1v1l-2 1zm4 7l3 1-1 1h-2v-2z"/><path d="M255 198l-72 73-109-73h-7v17l4 1v3l3 1 1 3 2 2 1 2h-1c-1 1 2 2 1 3l-1 1-1-1h-3v2h2l-1 3c-1 4 5 7 4 11-1 2-3 2-3 4-1 1 0 2 1 4l2 5v17l1 1 1-1 1-4c0-2 0-5 2-6h1l2-2-1-2h-2a1 1 0 010-1v-1h2l6 1v2h1v2h1v-3l1 1h1l1 1-1 1h2l1 1v13l-4 3 4 7v13l1 2 2-1 1-7v-7l1-2 3-6a9 9 0 001-1l1-8v-1l1 1v1l1 1c0 1-2 1-2 3l1 1h1v-1h1l1 2c1 0 2-2 1-4l-1-2h1l1 2h1l-1 2v5l5 1a20 20 0 01-1-3v-2l1-1 1-1h1a1 1 0 011 0l-1 1 1 3-1-1-1-1h-1l2 2 2 3 100 3 13-3v-3l1-1v-1l-1-1h-1c-1-1 1-2 1-2l1-1v-1h1v1l-1 1-1 2h1l1-1h1l1-1 1 1v2l2 2 1-2h2v3a80 80 0 000 4v6l1 9 1 1 2-1v-11a48 48 0 010-7 58 58 0 010-5v-6-2l2 1-1 1v2l1-1 2-1h-1a21 21 0 01-1-1 11 11 0 01-1-2l-1-2 1-2-1-1h2a3 3 0 001-1l-1-1 1-1h2l2 1v1h1v-1-2l-1-1 1-1 1 1v2h2l-1-1v-1h1v-1l2-1 2 2v1h-2v2l1-1 2 3 1 4v7h3v-3-6a25 25 0 011-11c1-3 3-4 2-6 0-2-3-3-3-4h1v-1h2v-1h1v2h1v-2h1l-1-2v-1-1l1-2 1-2v-1h1l1-1a1 1 0 000-1l-2-1 1-1 1 1h1v-1l-1-1v-1l2-1 5-28h-31zm-143 77v1h-1l-1-1h2zm123-3l1 1h-3l2-1zm-7 8h-2l-1-1h1l1-1v1h1v1zm2-1l-1-2h-1v-1l2 1v2zm5 0v1a1 1 0 01-1 1 2 2 0 000-1l1-1zm-1-3h-1v-1h3l-2 1zm4-5h-2v-1h2l1-1a2 2 0 01-1 2zm3 1l-1 1v-1l1-1a7 7 0 010 1z"/><path d="M240 278v1a1 1 0 01-1-1 1 1 0 011 0zm12 1h1l-1-2-1 2h1zm2-7l1 2-1 1-2-1 2-2zm-2-3v-2l1-1h1l1 1-1 2h-2zm5-4v-1l-1 1zm4 0l1-1 1-1v-1l-3 2h1v1zm-1 3l1 1h-1l-1-1h1zm5-1h1v1h-1v-1zm8-3v1l1 1-2 1h-1v-2l2-1zm4-1h1l-1-2-1 1 1 1zm-4-4l2-3-2-1-2 1 2 3zm4-3v-1h1l1 1h1v1h-1l-1 1-1-1a1 1 0 010-1zm-1-3a1 1 0 001-1l-1-1a2 2 0 00-1-1v1c-1 1 0 2 1 2zm0-7h1v2a1 1 0 01-1 0v-2zm1-3l1-1c1-1 2 0 3 1 0 1-1 2-2 1l-2-1zm1-3h4v-2l-2 1-1-1-1 1v1zm0-3h1v-2l1-1-2-1v1h-1v1l1 1v1z"/></g><path fill="#fff" d="M102 198c0 7 1 20 8 33 19 33 63 35 66 35 5 0 38-1 62-27a77 77 0 0018-41H102zm127 7l-2 1-2 2v2l-1 1v2h-2a2 2 0 00-1 1l1 1-1 1h-1v1l-2-2h-1v4l-2-1v1l1 1v1l-1 1a5 5 0 01-1-1l-3-1-1 1v1l1 1 1-1 1 1v2h-1l-1-1-1-2h-1v1h-1v1l2 1v2h-2l1 1-1 1h-3l1 1v1h-1l-2-1v2h-2v1h-1c-1-1-3 0-3 1l2 1-3 2-3 1v-1l-2 1h-1v1l-1 1-2-1v1l-1 1h-2l-1-1h-2l-2-1v1l-2-1-1 1-3-1a7 7 0 01-2 0l-3-2v2h-2v-1a1 1 0 00-1 0l-2 1v-2h-2l-1-1-1 1h-1v1h-1l-2-1a7 7 0 00-3 0l-2-2h-2l1-1v-2l-1 1h-1a6 6 0 01-1-1l-3-1-1-1-1 1-1-3-2-1a24 24 0 00-1-1v-1h1l-2-1h-2l1-1v-1h-1l-1 1h-1v-1h-1a2 2 0 001 0v-2l1-1v-1l1-1h-1l-3 1 1 1-1 1v-1h-2l2-2h1v-1h-1v-1h-1l-1 1v1l-1 1v-1h-1v-2l-1 1a4 4 0 01-1 0v-3h-3v-3l-1-1v-1l-1-2 1-1h7a8 8 0 003-1l2 1h1l2-1h3l1 1 2-1h1l1 1 2 1h3l1-2h8c1 0 6-2 7 0v1l2-1a11 11 0 013-1h6l4 1 1-1c1-1 2 2 3 2v-2a6 6 0 012 1l3 1 2-1c1-2 2-2 3-1v1h5v5l1 1 1-1 1-3a5 5 0 011-2h4c2-1 4-2 6-1h1l7 1h9v1z"/><g fill="#fff"><path d="M76 109c1 0 2 1 2 3l-2 2-2-1 2-4zm-3-4l2 1-1 1-1-1v-1zm-3-5l2 1v1a1 1 0 01-1 1l-1-1v-2zm7-7v-2c-1-2-5-2-7-1 0 0-2 1-1 2l1 1c2 1 5 3 6 2l1-2zm6-3l1 3-2 1v1h-1a2 2 0 01-1-1v-1l1-1a10 10 0 002-2zm0 8l1-1h1l1-1 1 1 1 1v2l-1 2h-2l-1-1-1-2v-1zm7-8h1v2h-1a1 1 0 010-2zm-11-8v-1l2 2a1 1 0 01-1 0l-1-1zm5 3h3v2h-2l-1-1v-1zm7-12h1l2-2-1-1-2 1v2zm2 12v-1l2 1-1 1h-1v-1zm5-17c3 0 5 0 6 2l-1 3-2 1c-2-1-3-5-3-5zm-4 10v1h2v-2a1 1 0 00-1-1l-1 1v1zm-7 2l1-1v-2l-1-1-1-1-1 1c-1 2 0 4 2 4z"/><path d="M112 69v2l1 1a7 7 0 012 0 3 3 0 01-2 2 3 3 0 00-1 1v1h-1v-1l1-2a11 11 0 00-3 0l-1 1a2 2 0 00-1 0v1l-1 1v1l1 1 1-1 1-1v1a2 2 0 010 1 4 4 0 00-2 1 4 4 0 00-1 1l-1-1h-1v5l-2-1-1-1-1 1v2h-1v4h-2a4 4 0 01-1 1 4 4 0 01-1 1l1 3-2 2-2 2-1 1a1 1 0 000 1v1l-1 2v2h-2l-1 1 1 2-1 1v1a7 7 0 00-2 0 7 7 0 00-1 1v-1h-1v3h-1l-1-1-1 1 2 2v2h-1a1 1 0 010-1v-1h-2v-2h-1a27 27 0 010-1v3l1 1 1 3h-3v1h-1a1 1 0 00-1 0l-1 3-1 3-1-1-1 1v2l-3-5v27h4l83-81h-43zm5 0l2 1h-2a1 1 0 010-1zm-3 1v-1l1 1zm1 5l-1-1 1-2h1v1l2 2h-3zm6-2l-1-1-1 1v-1h-1l-1-1h2l1-1v2h1v1zm2-2h-1v-1h-1v-1l2 1h1-1v1zm0 1a1 1 0 011-1h1l-1 1h-1zm158 43l-2-1v2h-2v-1h1l1-2h-1l-1 1v-2h-1l-1 1v1h-1v0h-1l-1-1h-1l-1-1-1-1h2l1 1h1v1h1v-1-2h-1v-1-1a16 16 0 01-1-1h-1v1l-1-1 1-1h-1-1a2 2 0 000 1v1l1 1-1 1-1-1v-2h-1v1l-1 1v-1-1l1-1v-2l-1 1-2-1v-1h-2v-1-1h1v1h1v-1h2v-1l1-1v-1l1-1 1 1v-1a4 4 0 000-1v-1l1-1h-2v2h-1c-2 2-4 3-5 2a2 2 0 01-1-1h-1v1l-1 1 1-2a1 1 0 00-1 0h-1l-1-1-1 1v1h-1l-1 1v-2a1 1 0 00-1 0 3 3 0 00-1 0l-1 1v-1h-1l-1-1h1a1 1 0 000-1l-2-1a99 99 0 00-7-2c-4-4-4-6-4-6v-1h-1v-1-2l-1 1h-1l1-2h-2v-1h-1 1a5 5 0 003-2 5 5 0 00-1 0h-1l-1 1v-2l1-1v1l2-1 1-3 1-1-2-1a4 4 0 00-1 1h-1l-1 1v-2h-3l-2-2a4 4 0 00-1 0l-36-2 90 83v-34a2 2 0 000-1zm-19-16h4-1-1l-1 1h-1zm-6 1h-1l1-1 1 1h-1zm8 5l1 1a2 2 0 00-1 0h-1l1-1zm-1 4v1a1 1 0 01-1 0v-1l1-1 1 1h-1zm1 3a1 1 0 01-1 0v-2h1v-1 1l1 1h-1zm16 4v1l-1-1h1zm-2 2h1c0 1 0 0 0 0h1l1-1-1 2v1h-3v-1l1-1zm0 3h1l-1 1zm1 5h-1l1-1v1zm-2-12v1h-1v-1zm-2 2l1-1v2l-1-1zm0 3v1l2 1h-3l1-1-1-1h1zm-9-6zm1 1a1 1 0 01-1 0h1zm1-2v1h-1v-1l-1-1 1-1v1h1v1zm2 5c-1 0-1 0 0 0zm0-1a2 2 0 01-1-1 1 1 0 011 0v1zm0 1l1-1h-1zm2 5l-1-1v-1l1 1v1zm1-4l-1 1v-1h-1l1-1v-2h-1l1-1v1h1v1l1 1h-1v1zm1 5v-1h0v1zm1 3v-1l1 1h-1zm2-1l-1-1h-1l1-1 1-1v1a1 1 0 001 0 1 1 0 010-1 3 3 0 010 2h-1v1zm1 2v-1h1v1a1 1 0 01-1 1h-1l1-1zm-1 5l1-1h1l-1 1h-1zm2 1v-1l1 1h-2 1zm0 7v-2h1l-1 2zm1-12h-1 1zm0-3h0zm1-1a1 1 0 01-1 0v-1h1v1z"/><path d="M251 87l-1 2v1l2 2 2-1 1-1h1c1-1-1-4-2-4v1h-3zm-6-3h2l-1-2-1-1h-1v2l1 1zm-5-12h2v-3h-1v1l-1 1v1zm6 0l2 1h2v-2h2l-1-2c-1-2-5 0-6 0l1 3zm4 3h-2-1v2h2l1-1v-1zm1 5v1l1 1v-2h-1zm5 0a2 2 0 001 0 1 1 0 001 0l-1-2-1-1h-1v2l1 1zm0 4v1h1l1-1v-1l-1-1-1 2zm4 6v1l1-1v-1l-1-1a6 6 0 010-1l-1 1v2h1zm5 1h1l1-1-1-1h-1v2zm-4 2l-1 1-1 1 1 1h1c1 0 2-1 1-2a2 2 0 00-1-1zm14 0h2l-1-3h-2l-1 1v2h2zm5 12v-1h-2v1h2zm1-7v1h-2v1h1v1h1l1-1-1-2zM241 118c-21-28-56-28-60-28a77 77 0 00-60 19 75 75 0 00-23 44h155a67 67 0 00-12-35zm-8 27h-12l-2 1-1-1-2-2 1 2h-1l-1 1c0 1-3 1-4-1l-1-1-1 1-1 1v-1l-2-1h-3l-2 1a6 6 0 01-2 1h-2a38 38 0 00-2 0h-1v-1l-2-1-1 1v1h-1l-1 1v-1l-1-1-1 1v1l-1-1h-2l-1 1v-1h-2v1a1 1 0 00-1 0h-1l-2 1v-1l-1-1a3 3 0 00-2 1 12 12 0 01-2 0h-3l-1-1h-2 1a1 1 0 010 1h-1l-2-1v-1l-1-1-1 2h-1l-1 1-2-1v1l-1-1h-1a37 37 0 00-2 0h-2v-1l-1 1h-3l-4 1h-2v-1l-1 1h-1l-1-1h1l1-1h-3l-1 1h-2-12l-3-1-2 1h-2l1-1h1v-1l1-1-1-2h3v-1h1v-1l-1-1 1-1v2h1v-1-1l2 1h1l-1-2h2a3 3 0 00-1-1v-2l1 1 1 1 1-1-1-1-1-3a2 2 0 001 2 2 2 0 000-2l1 1h1l1 1 2 1 1 1h1l-1-1-1-1 1-1-1-2 1 1h1v0-1h1l1-1h-2l-1-2v-1l1-1v1a1 1 0 001 0l-1-2h4l1 1 1 2v7 3h1l1-8 1-6h1l2-2 2-1c1-1 2-2 1-3l-1-2 2-1 1-1 1 1 1-1a4 4 0 012 0l-1-1h2a1 1 0 011-1 1 1 0 000 1h1v-1-1h1v-1l1 1a2 2 0 002 0v2l1-1h1l1 1h1v-1h-1a1 1 0 010-1h2l1 1 1 1 1-1h2v1l1-1v1h2v1h2v1h2l-1-1v-1h1l1-1v2l1 3v19a3 3 0 003 0v-13l1-7h1l4 1 3 2a7 7 0 010 2v12h2v-8l1-2 2-2h1l1 2 2 4 1 1 1 4v10h2v-9l1-6h3l1 1 1 1v1l1-1v-1l1 1-1 1h1l1 1a1 1 0 01-1 1l-1 1v1l2-1v1h3l-1 1v1l1-1 2-1v2h1l-1 2-1 2v1h-1v1l1-1h3l-1 1 1 1v1h1l1-1 1-1h2l-1 1 3 1-1 2h1l1-1 2 2z"/><path d="M157 144v-1h5a4 4 0 01-2 1h-2-1zm6-1v-1l2 1-1 1-1-1zm6-1l1-1h1v1h-2zm5 2h1l-1 1v-1zm2 2h-1 4a6 6 0 011 0 4 4 0 01-2 1l-2-1zm10-2l-1-1h-1 2l2-1h4v-1l2 1 2-1v1l-1 1h-3v1h-2l-1-1-2 1h-1zm17-2l2 1v-1-1l-2 1zm17 0l-3-1h-4l-2 2v1h2v-1h3l3-1h1z"/></g><path fill="#768696" d="M175 67a108 108 0 100 216 108 108 0 000-216zm0 181a74 74 0 110-147 74 74 0 010 147z"/><linearGradient id="a" x1="219.6" x2="133.4" y1="184.8" y2="98.6" gradientUnits="userSpaceOnUse"><stop offset="0" stop-color="#6e7e8e"/><stop offset=".5" stop-color="#647483"/><stop offset="1" stop-color="#6e7e8e"/></linearGradient><path fill="url(#a)" d="M150 105l-10 5a71 71 0 00-11 7 79 79 0 00-23 32h-7l6-6 3-6-1-3 7-5-4-5 1-3 3 2 1-3h3l-1-3 1-2 5 1a10 10 0 002-1l1-2c0-2-2-3-2-3l4-1 19-18 3 3 1-2 1 1 1 2a4 4 0 001-2 4 4 0 000-1c1 1 2 2 5 1a6 6 0 001 0l1-2 10 4 3-8 2 1v2l5 4v-4l-3-3a3 3 0 012-1 3 3 0 012 0 57 57 0 001 4h1l5 7 2-5 3 4 14 3c8 2 10 4 10 5l-1 2 4 3 1 1 8 2c0 1 0 2-2 3 2-1 4-2 5-1l1 3a34 34 0 010 5l3 1 1 1v-2l1 2v1l3 4 5 7 8 13h-11a75 75 0 00-30-37 74 74 0 00-33-11s-17-1-31 4z"/><path fill="#6c7e8c" d="M243 130l-3 1-3 1v2l4 8a15 15 0 005-8l-3-4z"/><linearGradient id="b" x1="172.4" x2="172.4" y1="111.5" y2="85.9" gradientUnits="userSpaceOnUse"><stop offset="0" stop-color="#5d6b76" stop-opacity=".1"/><stop offset="1" stop-color="#5d6b76"/></linearGradient><path fill="url(#b)" d="M137 112l3-7c3-4 7-3 10-7l4-6 6 1 1-2a30 30 0 0110 4 32 32 0 013-8 6 6 0 012 1l2 2 3 2v-3a5 5 0 00-3-2 3 3 0 012-1 3 3 0 012 0l1 4h1l5 7 2-5 3 4 14 3-4 8a73 73 0 00-67 5z"/><path fill="#6c7b8e" d="M232 113l1-2-1-1 1-1a8 8 0 00-2-1l-3-1a11 11 0 01-1-1l1-1a3 3 0 002-1v2a2 2 0 001 1c3 1 5 3 5 4l-4 2z"/><path fill="#5d6b76" d="M170 87a11 11 0 01-1 4l2-1a5 5 0 000-1 5 5 0 00-1-2z"/><linearGradient id="c" x1="245.4" x2="251.8" y1="149.9" y2="138.8" gradientUnits="userSpaceOnUse"><stop offset="0" stop-color="#5d6b76" stop-opacity=".2"/><stop offset="1" stop-color="#5d6b76" stop-opacity=".4"/></linearGradient><path fill="url(#c)" d="M247 136a17 17 0 01-6 6 37 37 0 013 7h11l-8-13z"/><linearGradient id="d" x1="149.1" x2="201.7" y1="259" y2="167.8" gradientUnits="userSpaceOnUse"><stop offset="0" stop-color="#5d6b76" stop-opacity=".3"/><stop offset="1" stop-color="#5d6b76"/></linearGradient><path fill="url(#d)" d="M106 201a11 11 0 00-1 3l-1 6-1 5 3 3 9 11c1-2 2-4 3-3v4l1 1 4-2h3a5 5 0 011 2c1 2-1 4-1 7l2 3v2l1 1v1a7 7 0 003 4 7 7 0 01-2-5 6 6 0 011-2 12 12 0 015 6 3 3 0 01-1 1 3 3 0 01-2 1l2 1 4-3a20 20 0 011-2l9 8 2-1 2 1h4l2-1a7 7 0 012 0l1 1h4v3h12l6-1c4-1 5-2 7-1l6 1h1v-4l8 3h1l1 2 3 1-2-2c-1-2-3-4-2-5l2-1 5 1 1-1 1-4 4 1 2-5a18 18 0 001-2 16 16 0 016-5l2 2v1l2-3 1-4c1-3 3-4 5-6l6-12 4-2c-2 0-3-1-3-2s2-3 5-4l2-1v-2h1l3 1 2-2h-15a74 74 0 01-138 0z"/><linearGradient id="e" x1="215.4" x2="216.8" y1="255.4" y2="252.9" gradientUnits="userSpaceOnUse"><stop offset="0" stop-color="#5d6b76" stop-opacity=".3"/><stop offset="1" stop-color="#5d6b76" stop-opacity=".5"/></linearGradient><path fill="url(#e)" d="M216 252l1 3h-2l1-3z"/><linearGradient id="f" x1="220" x2="218.2" y1="251" y2="250" gradientUnits="userSpaceOnUse"><stop offset="0" stop-color="#5d6b76" stop-opacity=".1"/><stop offset="1" stop-color="#5d6b76" stop-opacity=".7"/></linearGradient><path fill="url(#f)" d="M219 250l1-1v3l-1-2z"/><linearGradient id="g" x1="226.6" x2="233.8" y1="246.5" y2="239.3" gradientUnits="userSpaceOnUse"><stop offset="0" stop-color="#5d6b76" stop-opacity=".2"/><stop offset="1" stop-color="#5d6b76" stop-opacity=".5"/></linearGradient><path fill="url(#g)" d="M225 245l2-1 2-1 2-3a8 8 0 013-1l1 2-2 1h-2l-2 1a1 1 0 00-1 0v2h-3z"/><path fill="#fff" d="M44 149h262v52H44z"/><path d="M70 156h21v19H70zm-18 19h18v19H52zm39 0h21v19H91zm21-19h21v19h-21zm21 19h21v19h-21zm21-19h21v19h-21zm21 19h21v19h-21zm21-19h21v19h-21zm21 19h21v19h-21zm21-19h21v19h-21zm21 19h21v19h-21zm21-19h18v19h-18z"/></g></switch></svg>