<svg xmlns="http://www.w3.org/2000/svg" viewBox="0 0 350 350"><switch><g><path fill="#fff" d="M60 60h230v230H60z"/><path fill="#191917" d="M69.5 69.5h211v211h-211z"/><path fill="#0c0c0c" d="M79 79h192v192H79z"/><g fill="#fff"><path d="M67 220.3a5 5 0 002 .9c1.3.2 2.4-.2 2.7.3.3.4.2 1.2.1 1.2 0 0 0 1.2-.3 2-.4.8-1.2.8-2.4 1.7-.6.3-1.4 1-2.1 2v-8zm3 14.9c.4-.2 1.3.4 1.6 1.3.3 1-.2 1.8-.3 2-.3 0-.7 0-1-.3-1-.7-1-2.8-.3-3zm4.6 9.4c-.3-.4-1-.4-1.5-.2-.8.4-1 1.7-.4 2.9h1c1-.4 1.5-2 1-2.7zm1.8 0c-.5-.5-.4-.8-.3-1 0 0 0-.3 1.2-.7a9.6 9.6 0 011.4-.4c0 .1-.2 1.3-1.3 1.9-.4.2-.8.2-1 .2zM74 259h1c.3-.3 0-.7.2-1.2.3-.6.9-.7 1-1 0-.3-.3-.7-1.4-1.2-.3 0-.6.1-1 .4-.7.5-1.2 1.6-.8 2.3 0 .1.3.5 1 .7zm8.3 11.3s-.4-.6-.2-1.1c.2-.5.7-.9 1.2-.8.4 0 .7.3.8.7.2.4 0 .7-.1 1-.4.4-1 .6-1.7.2zm5.6-7.8c0-.1.1-.5.5-.8.5-.4 1.4-.1 1.8.3.1.1.5.5.5 1 0 .6-.6 1.1-1.2 1.2-.5 0-1-.3-1-.5-.2 0-.7-.5-.6-1.2zm.6 5.5c-.4.5-.1 1.4 0 2 .2.4.6 1.6 1.4 1.7l1.2-.3c1-.2 1.2.2 1.8 0 .8-.4 1.2-1.5 1.3-1.8a3.3 3.3 0 000-1.6c0-.8-.2-1.1-.5-1.3-.4-.3-.7 0-1.5 0-1-.1-1.3-.6-1.7-.4-.4.2-.2.7-.7 1.2-.5.4-1 .1-1.3.5zm4 7.3c.6-.8 2.2-.6 2.5.2.2.4-.2 1-.7 1.5-.5.5-1.3.5-1.8 0-.5-.4-.4-1.3 0-1.7z"/><path d="M255.3 198.1l-72.6 72.5-109-72.5h-6.3v14.3c-.4 1-.7 2.3-.2 2.8.9 1 3-.3 3.7.6.6.7-.8 2-.2 3 .6 1 2.5 0 3.6 1 .9 1 0 1.8 1 3.2.7.9 1.1.8 2.1 2 .4.5 1.2 1.6 1 2-.4.4-1.5-.1-1.7.2-.3.5 1.9 1.7 1.6 3 0 .3-.4.6-.8.7-.5 0-.7-.6-1.6-1 0-.1-1.6-1-2.5-.3-.5.5-.7 1.5-.4 2 .4.7 1.6 1 1.6.9l-.8 2.6c-1 3.6 5.5 7.4 4.5 10.5-.8 2-3.3 2.1-3.7 4.5-.2 1.2.7 1.6 1.7 4.1.8 2 1 3.4 1.3 4.8.4 2 .3 3.9.2 7.6-.1 2.7.5 5.3 0 7.9 0 .3-.2 1.1.3 1.8.3.4.8.8 1.3.7.6-.1 1-.7 1.1-1 .7-1.2.2-2.4.2-4.2-.1-2.3.5-5.3 2-5.8.4-.1.7.1 1.4-.2.2 0 1.2-.5 1.5-1.6.1-.5.2-1.5-.3-2-.7-.4-1.5.2-2.1-.4a1.1 1.1 0 01-.4-1c0-.4.5-.7.6-.8.6-.4 1.2-.4 1.5-.4 2.1 0 5.5.2 6.2 1.2l.2.3v1.2c0 .3 0 .6.2.7h.5c.2.2-.3 1 0 1.5.2.4.6.6.9.5.6-.3 0-2.9.4-3 .1 0 .2.6.7.8.5.2.8-.1 1.4 0 .6.2 1.1.8 1 1.1-.1.5-1.4.4-1.4.7l.2.3c.5.3 1 0 1.4 0 .7 0 1.2.6 1.6 1 1.2 1.3 0 4-.4 7.3-.1 1.4-.3 3.4 0 6l-4.1 2.8 3.8 7.4c.1.6.3 1.6.3 2.7.2 4.5-1.2 6.5 0 9.5.1.6.7 2 1.6 2.2.7 0 1.3-.7 1.5-.9 1-1.3 1-2.8.7-6.5-.2-4.5-.2-5.9.4-7.6l1-2 3.3-5.9a8.7 8.7 0 00.2-.6c1-2.1.7-4 1-8 0-1 .1-1.5.4-1.6.5-.1 1.3.6 1.2 1.3 0 .4-.4.5-.3.9 0 .5 1.1.4 1.3 1 .3.7-1.8 1.5-1.7 3 0 .4.2 1 .7 1.2l.8-.1c.2-.3 0-.8.3-1.1l.6-.3c.7.2.5 2.3 1.3 2.5h.3c.9-.4 1.2-2.5.5-4-.5-1-1.2-1.3-1-1.7 0-.2.6-.3 1-.1.4.2.1.8.7 1.4.4.5.8.5 1 .8 0 .4-.4.6-.6 1.2-.2.5 0 1 0 1.3.2.7.3 1.9-.2 4l4.7 1.2a20.3 20.3 0 01-.7-2.9c-.3-1.8-.1-2.3.2-2.6.3-.3.4-.2 1-.6.7-.6.6-1 1.2-1.4.1 0 .7-.4 1.2 0a.8.8 0 01.3.7c0 .4-.4.4-.6.7-.4.9 1.3 2.4 1 2.5 0 .1-.7-.2-1.2-.8-.3-.4-.4-.8-.7-.9-.3-.1-.7 0-.8.2-.2.3.6 1 1.4 2 .5.7 1.3 1.7 1.8 3.3L223 286l13-3.2c.6-1.5.3-2.3 0-2.6-.2-.3-.4-.4-.4-.6 0-.4 1.6 0 1.8-.6.2-.3 0-.8-.3-1-.2-.3-.5-.3-1.1-.6-1-.3-1.4-.4-1.5-.7-.1-.6 1-1.3 1.4-1.6.2-.1.5-.4.7-.8.1-.5-.1-.8.1-1.1.2-.3.7-.5 1-.4.3.2.2.8.2 1-.2.8-.8 1.3-1.1 1.5-.5.4-.6 1-.4 1.3.2.2.4.2.7.2.4-.1.4-.5.8-.6.5-.2.7.3 1.2.1.5-.2.4-1 .7-1 .2-.1.4 0 .8.7l.3.6c.4 1 .3 1.3.6 1.9.3.6 1.1 1.3 1.8 1.2.4-.1.4-.5 1.2-1.2.4-.4 1-.9 1.4-.7.5.1.4 1.3.3 3a79.6 79.6 0 000 4.7v5.6c0 4.1-.4 7.9 1.1 9.2.2.2.7.6 1.2.5.7 0 1.1-.9 1.3-1.2.9-1.7.5-3.5.3-5.4l-.3-5.6a47.7 47.7 0 01.3-6.6 57.7 57.7 0 010-5.2c.2-3.2.5-4.2-.2-5.8-.2-.7-.6-1.3-.4-1.6.4-.4 2.3.6 2.2.9l-.4.7-.5 1 .1.7h.6c.4-.2.4-.6.8-.9.5-.4 1.2 0 1.4-.4l-.2-.7a20.9 20.9 0 01-1.1-1.1 11 11 0 01-1.6-2c-.4-.7-.7-1.1-.6-1.6 0-.8.6-.9.6-1.6 0-.8-.7-1.2-.5-1.4.2-.2.6 0 1.4 0a2.5 2.5 0 001.1-.7c.3-.2.5-.4.5-.7 0-.3-.7-.6-1.5-.6l1-.8c1-.5 2-.2 2.6 0 .7.2 1.3.4 1.4.8.2.5-.5.8-.3 1.2.1.2.7.4 1 .2.6-.2.7-1 .7-1.5 0-.2 0-1-.4-1.7-.4-.6-.9-.8-.8-1.2 0-.3.5-.4.5-.5.4 0 .8 0 1.1.2.7.5-.3 2 .4 2.6.4.4 1.5.3 1.6 0l-.5-1c0-.1-.3-.8 0-1 .2-.3.6 0 .8-.2.4-.2-.1-1 .2-1.5.4-.5 1.8-.1 2-.1.1 0 1.6.5 1.8 1.7 0 .5-.1 1.1-.4 1.2-.3 0-.6-.7-1-.6-.3 0-.4 0-.6.2 0 0-.3.5-.1 1 0 .3.3.7.5.7.4 0 .5-.6.8-.6.5 0 1 1.4 1.8 3.4l1 3.1c1 3.8-.8 5.8.4 7 .8.8 2.3.9 2.9.3.6-.6.3-1.6 0-3-.3-2-.1-4-.2-6a25 25 0 01.6-10.5c1.3-3.5 3.4-4.6 2.8-6.5-.6-2-3.2-3-3-3.4.1-.2 1.5.5 2 0 .1 0 .2-.3.1-.4 0-.3-.7 0-1.5-.4-.4-.2-.4-.4-.5-.5 0-.2.1-.5.3-.6.3 0 .4.2.8.3.3.1.9.2 1.2-.1.3-.3 0-1 .4-1a.4.4 0 01.3 0c.5.3-.3 1.6.2 2.1.1.2.4.3 1 .2.2 0 .4-.1.5-.3.1-.4-.6-.9-.4-1.4.1-.4.6-.3.7-.7 0-.4-.2-.5-.6-1.3-.3-.6-.5-1-.4-1.4.1-.4.4-.4.8-.9.4-.7.1-1 .6-2.1.3-1 .6-1 .7-1.7l.1-.8c.2-.3.5-.2 1-.4.2 0 1.1-.4 1.3-1.1a1.1 1.1 0 00-.2-.9c-.4-.7-1.6-.4-1.7-.8 0-.2.1-.5 1-1 .3 0 .6.1 1 .4.2.2.3.4.5.4s.5-.7.3-1.1c-.2-.7-1.3-.6-1.4-1.1-.1-.5.6-1 .7-1.1.8-.6 1.7-.5 2-.4l4.6-28.3h-30.6zM112 275c.3.1.2 1.2 0 1.3-.1 0-.1-.3-.5-.5-.3-.2-.5 0-.7-.2-.2-.2-.4-.4-.3-.5 0 0 .4.2.9 0 .4 0 .5-.2.6-.1zm123-3c.5.2.7.3.7.5s-.7.3-1.9.4h-.3c0-.2.4-.5 1.5-1zm-7.2 8.2c-.3.3-.9 0-1 0l-.5-.5c-.6-.6-1.2-.7-1.2-.9 0 0 .5 0 .9-.2.6-.4.6-1 .8-1 .2.1 0 .7.4 1.2.3.3.6.2.8.5 0 .3 0 .7-.2.9zm2.3-1.2l-.6-.2c-.5-.5-.1-1.3-.6-1.8-.4-.4-1-.3-1-.5 0-.3.2-.5.5-.7 0 0 1.3 0 1.9 1 .5.8.2 2-.2 2.2zm4.5-.2c.3.3.4.8.3 1.2a1.1 1.1 0 01-.6.6 2 2 0 00-.3-.5l-.5-.4c0-.2.2-.4 1-1zm-.4-3.2c-.2.2-.3.4-.6.5-.2 0-.3-.2-.4-.3-.3-.5-.2-.8-.2-1 .3-.5 1.3-.7 2.4-.3.3.1.3.2.3.3 0 .2-.9.1-1.5.8zm4-4.6c-1 .4-1.8-.2-1.8-.2-.2-.2-.2-.3-.1-.4 0-.2.7 0 1.3-.3.5-.3.5-.7 1-.8h.6a1.8 1.8 0 01-1 1.7zm2.3 1.3l-.1.8c-.2 0-.6-.4-.7-.6l-.2-.4c-.1-.4.3-.9 1-1.3a7 7 0 010 1.5z"/><path d="M239.9 277.8c.4.1.6.6.4.9 0 .3-.5.4-.8.3a.7.7 0 01-.3-.7.7.7 0 01.7-.5zm12.2 1.6c0 .1 1.2 0 1.4-.4.2-.5-1.1-1.6-1.1-1.6-.1 0-.5-.2-.8 0-.4 0-.6.8-.4 1.4.2.5.8.6.9.6zm1.5-7c1-.1 1.8.6 1.8 1.4 0 .7-.7 1.5-1.6 1.5-.8 0-1.5-.7-1.5-1.4s.5-1.3 1.3-1.5zm-1.2-3.6c-.3-.3-.3-.8-.3-1.2v-.8c.3-.7 1-1 1-1 .1 0 .7-.3 1.3 0 .7.3.8 1.2.9 1.4 0 1-.7 2.2-1.7 2.2-.4 0-.9-.2-1.2-.6zm4.1-3.5s.3 0 .5-.2c.2-.3-.1-.8-.3-.8-.3 0-.6.5-.5.8a.5.5 0 00.3.2zm4.7-.5c.3.1.9-.4 1.1-.7.2-.1.4-.4.5-1v-.7c-.5-.4-2.6 1-2.5 1.5 0 .1.3.1.6.5l.3.4zm-1 2.8c.6 0 .9.6.8 1-.1.4-.5.6-1 .6-.7-.2-1-.9-.8-1.2 0-.3.5-.5 1-.4zm4.4-.7c0-.2.9-.6 1.3-.1.2.2.2.7 0 1-.8.2-1 .1-1 0v-.6l-.3-.3zm8-2.6c.3 0 .5.2.8.6.5.5.8 1 .7 1.4-.1.5-.8.9-1.6 1-.1 0-.6 0-1-.3-.5-.4-.4-1.2-.2-1.6.2-.7.8-1.2 1.3-1.1zm4-1.2c.5.2 1 0 1.2-.2.3-.4.2-1.2-.6-1.6-.9 0-1.4.7-1.3 1.1 0 .4.7.7.7.7zm-3.4-4.3c1 0 2.2-1.5 1.7-2.7-.3-.8-1.2-1.3-2-1.2-.6.1-1.3.4-1.5 1-.5 1.1.6 3 1.8 2.9zm3.5-2.7s0-.6.6-.9c0 0 .4-.2.8 0 .3.1.3.4.7.6.3.2.5 0 .7.2.2.1.3.5.1.8 0 .2-.2.4-.4.5-.2.2-.5.4-.9.4l-.9-.5c-.5-.2-.6-.4-.6-.5a1 1 0 01-.1-.6zm-.9-3.3a1 1 0 00.9-.5c.3-.7-.5-1.5-.6-1.5a2 2 0 00-.6-.4c-.2 0-.6.1-.8.4-.4.7.3 2 1.1 2zm.3-6.5s.8-.3 1.1 0c.4.5.1 1.7-.5 1.8a.8.8 0 01-.8-.2c-.3-.4-.3-1 .2-1.6zm1.2-3.6c0-.6.4-.9.5-1 .7-.5 2.2-.1 3.5 1.3-.7 1-1.8 1.5-2.8 1.1-.9-.3-1.2-1.2-1.2-1.4zm1.1-2.8c.2.1.4.3.7.3.3 0 .4-.4.8-.6.8-.4 1.6.4 2 .1.2-.2.2-.7-.4-2.2-.6 1-1.1 1.1-1.5 1-.4 0-.5-.2-.9-.1-.5 0-1.1.6-1 1 0 .1 0 .3.3.5zm-.4-3.1c.2.2.6.3.9.1.3-.2 0-.8.3-1.8.2-.6.4-.7.4-1-.1-.6-.8-1.1-1.2-1-.2 0-.2.4-.6.5h-.6c-.1 0-.3.3-.2 1v.9c.2.2.4 0 .6.2.4.3 0 .8.4 1zM67 220.3a5 5 0 002 .9c1.3.2 2.4-.2 2.7.3.3.4.2 1.2.1 1.2 0 0 0 1.2-.3 2-.4.8-1.2.8-2.4 1.7-.6.3-1.4 1-2.1 2v-8zm3 14.9c.4-.2 1.3.4 1.6 1.3.3 1-.2 1.8-.3 2-.3 0-.7 0-1-.3-1-.7-1-2.8-.3-3zm4.6 9.4c-.3-.4-1-.4-1.5-.2-.8.4-1 1.7-.4 2.9h1c1-.4 1.5-2 1-2.7zm1.8 0c-.5-.5-.4-.8-.3-1 0 0 0-.3 1.2-.7a9.6 9.6 0 011.4-.4c0 .1-.2 1.3-1.3 1.9-.4.2-.8.2-1 .2zM74 259h1c.3-.3 0-.7.2-1.2.3-.6.9-.7 1-1 0-.3-.3-.7-1.4-1.2-.3 0-.6.1-1 .4-.7.5-1.2 1.6-.8 2.3 0 .1.3.5 1 .7zm8.3 11.3s-.4-.6-.2-1.1c.2-.5.7-.9 1.2-.8.4 0 .7.3.8.7.2.4 0 .7-.1 1-.4.4-1 .6-1.7.2zm5.6-7.8c0-.1.1-.5.5-.8.5-.4 1.4-.1 1.8.3.1.1.5.5.5 1 0 .6-.6 1.1-1.2 1.2-.5 0-1-.3-1-.5-.2 0-.7-.5-.6-1.2zm.6 5.5c-.4.5-.1 1.4 0 2 .2.4.6 1.6 1.4 1.7l1.2-.3c1-.2 1.2.2 1.8 0 .8-.4 1.2-1.5 1.3-1.8a3.3 3.3 0 000-1.6c0-.8-.2-1.1-.5-1.3-.4-.3-.7 0-1.5 0-1-.1-1.3-.6-1.7-.4-.4.2-.2.7-.7 1.2-.5.4-1 .1-1.3.5zm4 7.3c.6-.8 2.2-.6 2.5.2.2.4-.2 1-.7 1.5-.5.5-1.3.5-1.8 0-.5-.4-.4-1.3 0-1.7z"/><path d="M255.3 198.1l-72.6 72.5-109-72.5h-6.3v14.3c-.4 1-.7 2.3-.2 2.8.9 1 3-.3 3.7.6.6.7-.8 2-.2 3 .6 1 2.5 0 3.6 1 .9 1 0 1.8 1 3.2.7.9 1.1.8 2.1 2 .4.5 1.2 1.6 1 2-.4.4-1.5-.1-1.7.2-.3.5 1.9 1.7 1.6 3 0 .3-.4.6-.8.7-.5 0-.7-.6-1.6-1 0-.1-1.6-1-2.5-.3-.5.5-.7 1.5-.4 2 .4.7 1.6 1 1.6.9l-.8 2.6c-1 3.6 5.5 7.4 4.5 10.5-.8 2-3.3 2.1-3.7 4.5-.2 1.2.7 1.6 1.7 4.1.8 2 1 3.4 1.3 4.8.4 2 .3 3.9.2 7.6-.1 2.7.5 5.3 0 7.9 0 .3-.2 1.1.3 1.8.3.4.8.8 1.3.7.6-.1 1-.7 1.1-1 .7-1.2.2-2.4.2-4.2-.1-2.3.5-5.3 2-5.8.4-.1.7.1 1.4-.2.2 0 1.2-.5 1.5-1.6.1-.5.2-1.5-.3-2-.7-.4-1.5.2-2.1-.4a1.1 1.1 0 01-.4-1c0-.4.5-.7.6-.8.6-.4 1.2-.4 1.5-.4 2.1 0 5.5.2 6.2 1.2l.2.3v1.2c0 .3 0 .6.2.7h.5c.2.2-.3 1 0 1.5.2.4.6.6.9.5.6-.3 0-2.9.4-3 .1 0 .2.6.7.8.5.2.8-.1 1.4 0 .6.2 1.1.8 1 1.1-.1.5-1.4.4-1.4.7l.2.3c.5.3 1 0 1.4 0 .7 0 1.2.6 1.6 1 1.2 1.3 0 4-.4 7.3-.1 1.4-.3 3.4 0 6l-4.1 2.8 3.8 7.4c.1.6.3 1.6.3 2.7.2 4.5-1.2 6.5 0 9.5.1.6.7 2 1.6 2.2.7 0 1.3-.7 1.5-.9 1-1.3 1-2.8.7-6.5-.2-4.5-.2-5.9.4-7.6l1-2 3.3-5.9a8.7 8.7 0 00.2-.6c1-2.1.7-4 1-8 0-1 .1-1.5.4-1.6.5-.1 1.3.6 1.2 1.3 0 .4-.4.5-.3.9 0 .5 1.1.4 1.3 1 .3.7-1.8 1.5-1.7 3 0 .4.2 1 .7 1.2l.8-.1c.2-.3 0-.8.3-1.1l.6-.3c.7.2.5 2.3 1.3 2.5h.3c.9-.4 1.2-2.5.5-4-.5-1-1.2-1.3-1-1.7 0-.2.6-.3 1-.1.4.2.1.8.7 1.4.4.5.8.5 1 .8 0 .4-.4.6-.6 1.2-.2.5 0 1 0 1.3.2.7.3 1.9-.2 4l4.7 1.2a20.3 20.3 0 01-.7-2.9c-.3-1.8-.1-2.3.2-2.6.3-.3.4-.2 1-.6.7-.6.6-1 1.2-1.4.1 0 .7-.4 1.2 0a.8.8 0 01.3.7c0 .4-.4.4-.6.7-.4.9 1.3 2.4 1 2.5 0 .1-.7-.2-1.2-.8-.3-.4-.4-.8-.7-.9-.3-.1-.7 0-.8.2-.2.3.6 1 1.4 2 .5.7 1.3 1.7 1.8 3.3L223 286l13-3.2c.6-1.5.3-2.3 0-2.6-.2-.3-.4-.4-.4-.6 0-.4 1.6 0 1.8-.6.2-.3 0-.8-.3-1-.2-.3-.5-.3-1.1-.6-1-.3-1.4-.4-1.5-.7-.1-.6 1-1.3 1.4-1.6.2-.1.5-.4.7-.8.1-.5-.1-.8.1-1.1.2-.3.7-.5 1-.4.3.2.2.8.2 1-.2.8-.8 1.3-1.1 1.5-.5.4-.6 1-.4 1.3.2.2.4.2.7.2.4-.1.4-.5.8-.6.5-.2.7.3 1.2.1.5-.2.4-1 .7-1 .2-.1.4 0 .8.7l.3.6c.4 1 .3 1.3.6 1.9.3.6 1.1 1.3 1.8 1.2.4-.1.4-.5 1.2-1.2.4-.4 1-.9 1.4-.7.5.1.4 1.3.3 3a79.6 79.6 0 000 4.7v5.6c0 4.1-.4 7.9 1.1 9.2.2.2.7.6 1.2.5.7 0 1.1-.9 1.3-1.2.9-1.7.5-3.5.3-5.4l-.3-5.6a47.7 47.7 0 01.3-6.6 57.7 57.7 0 010-5.2c.2-3.2.5-4.2-.2-5.8-.2-.7-.6-1.3-.4-1.6.4-.4 2.3.6 2.2.9l-.4.7-.5 1 .1.7h.6c.4-.2.4-.6.8-.9.5-.4 1.2 0 1.4-.4l-.2-.7a20.9 20.9 0 01-1.1-1.1 11 11 0 01-1.6-2c-.4-.7-.7-1.1-.6-1.6 0-.8.6-.9.6-1.6 0-.8-.7-1.2-.5-1.4.2-.2.6 0 1.4 0a2.5 2.5 0 001.1-.7c.3-.2.5-.4.5-.7 0-.3-.7-.6-1.5-.6l1-.8c1-.5 2-.2 2.6 0 .7.2 1.3.4 1.4.8.2.5-.5.8-.3 1.2.1.2.7.4 1 .2.6-.2.7-1 .7-1.5 0-.2 0-1-.4-1.7-.4-.6-.9-.8-.8-1.2 0-.3.5-.4.5-.5.4 0 .8 0 1.1.2.7.5-.3 2 .4 2.6.4.4 1.5.3 1.6 0l-.5-1c0-.1-.3-.8 0-1 .2-.3.6 0 .8-.2.4-.2-.1-1 .2-1.5.4-.5 1.8-.1 2-.1.1 0 1.6.5 1.8 1.7 0 .5-.1 1.1-.4 1.2-.3 0-.6-.7-1-.6-.3 0-.4 0-.6.2 0 0-.3.5-.1 1 0 .3.3.7.5.7.4 0 .5-.6.8-.6.5 0 1 1.4 1.8 3.4l1 3.1c1 3.8-.8 5.8.4 7 .8.8 2.3.9 2.9.3.6-.6.3-1.6 0-3-.3-2-.1-4-.2-6a25 25 0 01.6-10.5c1.3-3.5 3.4-4.6 2.8-6.5-.6-2-3.2-3-3-3.4.1-.2 1.5.5 2 0 .1 0 .2-.3.1-.4 0-.3-.7 0-1.5-.4-.4-.2-.4-.4-.5-.5 0-.2.1-.5.3-.6.3 0 .4.2.8.3.3.1.9.2 1.2-.1.3-.3 0-1 .4-1a.4.4 0 01.3 0c.5.3-.3 1.6.2 2.1.1.2.4.3 1 .2.2 0 .4-.1.5-.3.1-.4-.6-.9-.4-1.4.1-.4.6-.3.7-.7 0-.4-.2-.5-.6-1.3-.3-.6-.5-1-.4-1.4.1-.4.4-.4.8-.9.4-.7.1-1 .6-2.1.3-1 .6-1 .7-1.7l.1-.8c.2-.3.5-.2 1-.4.2 0 1.1-.4 1.3-1.1a1.1 1.1 0 00-.2-.9c-.4-.7-1.6-.4-1.7-.8 0-.2.1-.5 1-1 .3 0 .6.1 1 .4.2.2.3.4.5.4s.5-.7.3-1.1c-.2-.7-1.3-.6-1.4-1.1-.1-.5.6-1 .7-1.1.8-.6 1.7-.5 2-.4l4.6-28.3h-30.6zM112 275c.3.1.2 1.2 0 1.3-.1 0-.1-.3-.5-.5-.3-.2-.5 0-.7-.2-.2-.2-.4-.4-.3-.5 0 0 .4.2.9 0 .4 0 .5-.2.6-.1zm123-3c.5.2.7.3.7.5s-.7.3-1.9.4h-.3c0-.2.4-.5 1.5-1zm-7.2 8.2c-.3.3-.9 0-1 0l-.5-.5c-.6-.6-1.2-.7-1.2-.9 0 0 .5 0 .9-.2.6-.4.6-1 .8-1 .2.1 0 .7.4 1.2.3.3.6.2.8.5 0 .3 0 .7-.2.9zm2.3-1.2l-.6-.2c-.5-.5-.1-1.3-.6-1.8-.4-.4-1-.3-1-.5 0-.3.2-.5.5-.7 0 0 1.3 0 1.9 1 .5.8.2 2-.2 2.2zm4.5-.2c.3.3.4.8.3 1.2a1.1 1.1 0 01-.6.6 2 2 0 00-.3-.5l-.5-.4c0-.2.2-.4 1-1zm-.4-3.2c-.2.2-.3.4-.6.5-.2 0-.3-.2-.4-.3-.3-.5-.2-.8-.2-1 .3-.5 1.3-.7 2.4-.3.3.1.3.2.3.3 0 .2-.9.1-1.5.8zm4-4.6c-1 .4-1.8-.2-1.8-.2-.2-.2-.2-.3-.1-.4 0-.2.7 0 1.3-.3.5-.3.5-.7 1-.8h.6a1.8 1.8 0 01-1 1.7zm2.3 1.3l-.1.8c-.2 0-.6-.4-.7-.6l-.2-.4c-.1-.4.3-.9 1-1.3a7 7 0 010 1.5z"/><path d="M239.9 277.8c.4.1.6.6.4.9 0 .3-.5.4-.8.3a.7.7 0 01-.3-.7.7.7 0 01.7-.5zm12.2 1.6c0 .1 1.2 0 1.4-.4.2-.5-1.1-1.6-1.1-1.6-.1 0-.5-.2-.8 0-.4 0-.6.8-.4 1.4.2.5.8.6.9.6zm1.5-7c1-.1 1.8.6 1.8 1.4 0 .7-.7 1.5-1.6 1.5-.8 0-1.5-.7-1.5-1.4s.5-1.3 1.3-1.5zm-1.2-3.6c-.3-.3-.3-.8-.3-1.2v-.8c.3-.7 1-1 1-1 .1 0 .7-.3 1.3 0 .7.3.8 1.2.9 1.4 0 1-.7 2.2-1.7 2.2-.4 0-.9-.2-1.2-.6zm4.1-3.5s.3 0 .5-.2c.2-.3-.1-.8-.3-.8-.3 0-.6.5-.5.8a.5.5 0 00.3.2zm4.7-.5c.3.1.9-.4 1.1-.7.2-.1.4-.4.5-1v-.7c-.5-.4-2.6 1-2.5 1.5 0 .1.3.1.6.5l.3.4zm-1 2.8c.6 0 .9.6.8 1-.1.4-.5.6-1 .6-.7-.2-1-.9-.8-1.2 0-.3.5-.5 1-.4zm4.4-.7c0-.2.9-.6 1.3-.1.2.2.2.7 0 1-.8.2-1 .1-1 0v-.6l-.3-.3zm8-2.6c.3 0 .5.2.8.6.5.5.8 1 .7 1.4-.1.5-.8.9-1.6 1-.1 0-.6 0-1-.3-.5-.4-.4-1.2-.2-1.6.2-.7.8-1.2 1.3-1.1zm4-1.2c.5.2 1 0 1.2-.2.3-.4.2-1.2-.6-1.6-.9 0-1.4.7-1.3 1.1 0 .4.7.7.7.7zm-3.4-4.3c1 0 2.2-1.5 1.7-2.7-.3-.8-1.2-1.3-2-1.2-.6.1-1.3.4-1.5 1-.5 1.1.6 3 1.8 2.9zm3.5-2.7s0-.6.6-.9c0 0 .4-.2.8 0 .3.1.3.4.7.6.3.2.5 0 .7.2.2.1.3.5.1.8 0 .2-.2.4-.4.5-.2.2-.5.4-.9.4l-.9-.5c-.5-.2-.6-.4-.6-.5a1 1 0 01-.1-.6zm-.9-3.3a1 1 0 00.9-.5c.3-.7-.5-1.5-.6-1.5a2 2 0 00-.6-.4c-.2 0-.6.1-.8.4-.4.7.3 2 1.1 2zm.3-6.5s.8-.3 1.1 0c.4.5.1 1.7-.5 1.8a.8.8 0 01-.8-.2c-.3-.4-.3-1 .2-1.6zm1.2-3.6c0-.6.4-.9.5-1 .7-.5 2.2-.1 3.5 1.3-.7 1-1.8 1.5-2.8 1.1-.9-.3-1.2-1.2-1.2-1.4zm1.1-2.8c.2.1.4.3.7.3.3 0 .4-.4.8-.6.8-.4 1.6.4 2 .1.2-.2.2-.7-.4-2.2-.6 1-1.1 1.1-1.5 1-.4 0-.5-.2-.9-.1-.5 0-1.1.6-1 1 0 .1 0 .3.3.5zm-.4-3.1c.2.2.6.3.9.1.3-.2 0-.8.3-1.8.2-.6.4-.7.4-1-.1-.6-.8-1.1-1.2-1-.2 0-.2.4-.6.5h-.6c-.1 0-.3.3-.2 1v.9c.2.2.4 0 .6.2.4.3 0 .8.4 1z"/></g><path d="M102.4 197.7c-.3 7.6.4 20.6 7.9 33.7 18.9 33 62.4 34.8 65.2 34.8 5.5 0 38.7-.8 62-26.8a76.9 76.9 0 0018.7-41.7H102.4zm126.4 7.5c-.6 1.2-2.1 1.3-2.2 1.3-.5.3-1.2.8-1.3 1.5-.2.7.3 1 .1 1.6-.3.9-1.4.8-1.6 1.6-.2.6.4 1 .1 1.4-.3.5-1.8-.2-2.4.5a2 2 0 00-.3.6c-.1.3-.2.5-.1.7.2.5 1 .4 1 .8.1.3-.3.8-.7.8-.4 0-.6-.6-1-.5-.2 0-.5.2-.9 1-.9-1.3-1.5-2-1.8-1.8-.2 0-.3.3-.3.7.4 3 .2 4-.1 4-.5.2-1.2-1.2-1.8-1-.3.1-.6.7-.4 1 .1.2.5 0 .8.4.3.2.4.6.4 1-.1.3-.5.7-1 .8a5 5 0 01-1.6-.2c-1.4-.4-2-1.4-2.6-1.1-.3.1-.4.5-.6 1v.7c0 .4.4.7.8.7s.5-.5 1-.6c.4 0 1 .2 1 .5.1.4-.9.7-.8 1.2 0 .4.7.6.6.8 0 .2-.5.3-1 .2-.2 0-.4-.2-1-.9-.7-.9-.6-1.3-1.3-1.8 0 0-.6-.4-.9-.2-.3.2 0 .9-.3 1.2-.3.2-.8 0-1 .2-.2.2-.2.6 0 1 .4.6 1.5.1 2.2.8.3.3.3.8.4 1.1-.1.2-.2.5-.5.7-.6.2-1.3-.3-1.5-.1-.2.2.9 1.2.6 1.7-.1.3-.7.4-1.2.4-1.4 0-2.3-.3-2.4-.1 0 .1.5.4.9 1.2l.2.7-1 .2c-1.3.2-2.3-.6-2.4-.4-.2.2.7 1 .5 1.2-.2.3-1.4-.5-2 0-.4.3-.2.9-.6 1-.4.3-.7 0-1.2 0-1-.2-2.1.4-2.2 1 0 .6 1.3.9 1.2 1.5 0 .5-1 .6-2.4 1.4-1.7.8-2.4 1.8-3 1.5-.3-.2 0-.8-.5-1-.4-.2-.7.3-1.8.6-.5 0-.8 0-1 .2v.9c-.1.4-.7.8-1.2.8-.8 0-1.2-.7-1.6-.5-.2.1 0 .5-.4 1.1-.1.3-.4.9-1 1.1-.6.3-1.5 0-1.9-.4-.4-.5-.1-1-.5-1.2-.5-.4-1.3.5-2.4.3-.7-.2-1-.8-1.4-.7-.4.2-.3 1-.6 1-.4.1-.7-1.3-1.4-1.4-.5 0-.6.3-1.4.7-1.1.4-2.4 0-3.2-.2a7.3 7.3 0 01-1.7-.8c-2-1.5-2.8-1.5-3-1.3-.3.2-.1.7-.6 1.3-.3.6-1 1-1.2.9-.4-.1-.2-.8-.6-1.1a1 1 0 00-.7-.2c-1.4.8-2 .7-2.2.5-.5-.4.1-1.8-.4-2-.3-.3-.8.4-1.4.3-.5-.1-.5-.6-1-.7-.3 0-.7 0-1.5.3l-.9.5c-.1.4.4.8.2 1-.1.2-.4.2-.6.3-1 0-1.9-.6-2.4-1a7 7 0 00-2.8-.7c-.2 0-1.5-.3-2-1.3a2 2 0 01-.2-.6h-1.5c0-.2.8-.5 1-1.2.1-.5-.1-1-.4-1.1-.2-.1-.3.2-.8.3l-.8-.2a6.3 6.3 0 01-1-.3c-2-1-2.5-.8-3.3-1.6-.2-.3-.4-.6-.7-.6-.3 0-.5.4-1 .5h-.4c-.7-.4 0-1.6-.8-2.6l-1.9-1.1a24 24 0 00-.8-.5c-.1-.4-.3-.9 0-1.3.2-.4.8-.3.8-.5 0-.3-1-.9-2.1-.7-.5.2-.7.4-1.3.4-.4 0-1 0-1.2-.2 0-.4 1-.6 1.3-1.5.1-.4.1-.9-.1-1-.3-.2-.8.1-1.2.4-.6.6-.5 1.3-1 1.4 0 0-.3.1-.4 0-.4-.3.2-1.3-.2-1.6-.1 0-.4 0-1 .3a2 2 0 00.6-.6c.4-.6.1-1 .6-1.6l.5-.6c.4-.5.2-.8.4-1.3.4-1 1.3-1.3 1.2-1.5 0-.2-.7-.1-1.2.1-.4.3-.6.6-.6.8-.2 0-1.6-.5-2.3.2-.1 0-.4.3-.3.6.1.5 1.3.4 1.3.8 0 0-.1.3-.9.6.1.2.7 1.8 0 2.4-.2.1-.6.3-.8.1v-.6c.4-1.5.2-2 0-2.1-.4-.2-1.1.3-1.4 0-.2-.2-.1-.5-.1-.6.2-1 1.2-1.4 1.5-1.5l1.8-.7c0-.1 0-.3-.2-.5-.3-.2-.7.1-1 0-.4-.4 0-1.2-.5-1.5-.3-.2-.8-.1-1 .1-.3.4.2 1-.2 1.5l-.6.5c-1 .6-1.1 1.6-1.3 1.6 0 0 .4-1 0-1.5-.3-.2-.6-.1-.7-.3-.3-.5.4-1 .2-1.3-.2-.1-.6.2-1.4.4a4 4 0 01-1 0l.6-3a1 1 0 00-.7 0c-.5 0-.5.6-1 .8-.2 0-.5 0-1.1-.4.4-2 0-2.7-.4-3-.5-.4-1-.2-1.3-.7-.3-.4.4-.9.2-1.7-.1-.7-.6-.8-.7-1.5 0-.4.2-.9.4-1.1 1-1 3.7.8 7 .4a8.3 8.3 0 003-1c1-.2 1.8 0 2.3.1.6.3.9.6 1.4.5.6-.1.6-.8 1.4-1.2 1-.6 2.6-.4 3.6.3.4.3.5.5.9.6.6.1 1.2-.4 1.7-.8.4 0 1 0 1.3.2.5.4.4 1 .9 1.3.3.3.8.5 2 .2 1 .4 2.2.7 2.9.1.5-.4.1-1.1.7-1.7.7-.6 2.1-.4 3.3-.2 1 .3 1.2.5 2 .6 1.1.1 2-.2 3-.6.8-.2 5.8-1.7 6.8-.3.2.3 0 .8.4 1 .5.2 1-.2 1.8-.5a11.3 11.3 0 012.8-1c2-.6 3.4-.4 4.3-.2.4 0 .3.1 1.7.5 3 .9 3.5.8 4 .5.5-.3.2-.8.7-1 1-.4 2.5 2 3.2 1.7.2 0 .4-.4.3-1.5a5.8 5.8 0 012 .5c1.3.5 1.6 1.2 2.4 1.2.5 0 1.2-.1 2.1-1.2 1.8-1.2 2.6-1.2 3-1 .4.4.3 1 .8 1.3.6.4 1 0 2.7-.3 1-.2 1.8-.3 2.2.1.2.3 0 .7-.2 1.8-.3 1.7-.7 3.4 0 4 .3.2.7.1 1 .1.7-.1 1-.4 1.2-.6.7-.8 0-1.8.4-3.3a5.4 5.4 0 01.8-2c1.9.4 3.4.2 4.5 0 2.2-.4 3.6-1.4 5.7-.9l1.5.6c2.5 1 4.9.6 6.7.4 2-.3 5-.4 9 0 .1.1.2.8-.1 1.5z" fill="#fff"/><g fill="#fff"><path d="M76.2 109.4c.9 0 1.9 1 2 2.1 0 1.2-1 2.4-2 2.4-.8 0-1.5-.6-1.8-1.2-.5-1.4.5-3.3 1.8-3.3zm-3-4.7c.5-.2 1.4.4 1.5 1.1.2.7-.1 1.5-.6 1.6-.6.2-1.4-.6-1.5-1.4 0-.4.1-1 .6-1.3zm-3-5c.5 0 1 .6 1.3 1 0 .2.5 1 0 1.6a1 1 0 01-1 .3c-.3-.1-.5-.4-.6-.5-.4-.8-.2-2.2.4-2.3zm6.6-6.8c0-.2.2-1.2-.2-2-1-2-4.3-2.4-6.4-1.2-.2.1-1.7.9-1.6 1.8 0 .5.4.9 1.6 1.5 2.3 1.3 4.6 2.6 5.8 1.6.6-.4.7-1.3.8-1.7zm6-2.7c1.2 1.8 1.3 2.6 1 3-.3.3-.7.3-1.3 1l-.6.7c-.6.3-1.2 0-1.3 0a1.7 1.7 0 01-.8-1c-.1-.3-.3-.8 0-1.3.1-.4.6-.6 1.2-1a9.6 9.6 0 001.8-1.4zM83 98c.2-.2.4-.5.7-.6.6-.3.9 0 1.4-.3.5-.3.5-.8.8-.8.2 0 .1.6.6 1.1.5.6 1 .4 1.3 1 .2.2 0 .4-.2 1.4-.2 1.2 0 1.4-.3 1.8-.5.6-1.4.6-2 .5-.1 0-.8-.2-1.3-.9a2.2 2.2 0 01-.4-.6c-.2-.9.2-1.5-.2-1.8-.1-.1-.3-.2-.3-.4a.6.6 0 010-.4zm7-7.7c.1 0 .5-.2.7-.1.6.3.5 1.8 0 2-.3.2-1-.1-1-.7a1.1 1.1 0 01.2-1.2zm-11.2-8c0-.4.3-.8.6-.9.6-.2 1.4.6 1.3 1.2a.7.7 0 01-.4.6c-.4.1-1-.1-1.5-.9zm5 2.8c.3-.8 1.6-1 2.5-.5.4.2.6.6.7.8.2.8 0 1.5-.5 1.7-.3.1-.8 0-.9-.1l-.6-.5c-.5-.3-.9-.1-1.1-.4-.3-.2-.3-.7-.1-1zM91.2 73h1c.8-.3 1.8-.9 1.8-1.7 0-.5-.6-1-1.2-1.2l-1.3 1c-.6.4-.8.6-.8.8 0 .5.4 1 .5 1zm1.4 11.8c.2-.5.6-.6.8-.6.4-.1 1 0 1.2.3.4.6 0 1.7-.6 1.9-.6.1-1.1-.3-1.3-.7 0-.1-.3-.5-.1-1zm5.7-16.3c2.2-1 4.5-.3 5.3 1.1.5 1 .4 2.8-.8 3.7-.6.4-1.4.4-1.7.4a2.8 2.8 0 01-.5-.2c-2.1-1-2.3-4.3-2.3-5zm-4.6 9.3s0 .6.6.9c.3.2.9.3 1.3 0 .3-.3.5-.8.3-1.3a1 1 0 00-.5-1c-.5-.2-1 0-1.1.2-.1.2 0 .4-.2.6h-.5v.6zm-7 1.8c.7 0 1.2-.4 1.3-.5.7-.7.8-2 .3-2.3-.2-.1-.4 0-.6-.2-.3-.3-.1-.8-.4-1-.1-.2-.4-.3-.9-.2-.2 0-1.4.1-1.8 1-.6 1.2.7 3.2 2 3.2z"/><path d="M111.8 68.8c-.3 1.8 0 2.5.5 2.7l1 .3a6.6 6.6 0 011.4.5A2.8 2.8 0 01113 74a2.8 2.8 0 00-.6 1.3v1.1l-1-.3c-.3-.5-.3-.9-.2-1 .1-.7.8-.8 1.2-1.6v-1a11 11 0 00-3.6.6c-.2 0-.7.1-1.1.6a1.6 1.6 0 00-.3.7c-.1.3-.2.7-.5 1-.5.5-1 .6-1 1 0 0 0 .3.4.7.5.6.8.7 1 .6.2 0 .1-.5.4-1 .3-.4.7-.7 1-.8 0 0 .8.7.7 1.6a1.9 1.9 0 01-.3 1 3.5 3.5 0 00-2 .2 3.5 3.5 0 00-1.5 1.2c0-.4-.3-.7-.7-.8-.4 0-.6.2-.7.2l-.3 1.2.3 3.1c-1.4.1-2-.2-2.2-.6l-.7-1a1.5 1.5 0 00-.7-.2c-.3.2-.8.4-1 .8-.2 1 1 1.9.6 2.3-.2.2-.9-.2-1.4.2a1 1 0 00-.3.3c1 1.2.8 2.7 0 3.4-.7.7-2 .4-2 .3a4.2 4.2 0 01-.7 1.3 4.2 4.2 0 01-1.3 1.1c.7.5 1.2 1.4 1 2.3-.1 1-1 1.8-2 1.9-.6 2-1.2 2.6-1.8 2.7-.3.1-1 .2-1.1.7a.9.9 0 000 .5l.5.4c.4.5.2 1.1.2 1.3-.3 1-1.5 1.2-1.6 1.3v2.9s-.8-.6-1.6-.2c-.8.2-1 1-1 1l1 1.3-1.5 1 .8 1.6a7.2 7.2 0 00-2.5.3 7 7 0 00-1 .4c0-.4-.1-.8-.4-1-.4-.1-1 .2-1 .6-.2.2 0 .5 0 1.2.3.6.4.7.3 1-.1.3-.7.7-1 .5-.4-.2 0-1-.5-1.2-.2-.2-.6-.1-.8 0-.3.2-.4.6-.4.8 0 .3 0 .5.2.7.4 1 1.2 1 1.6 1.7.2.3.4.8.3 1.5-.2.4-.7.6-1 .4a.8.8 0 01-.4-.8V115l-1.6-.2c.5-1.2.3-1.5.1-1.7l-.9-.3a26.8 26.8 0 01-.5-.3l-.1 1.1.3 1.2c.3.7.7 1 1 1.4.3.5.6 1.2.5 2.4h-2c-.2 0-.4.1-.5.3-.3.3 0 .7-.1 1-.1 0-.5 0-1.4-.4a1 1 0 00-.6 0c-.7.4-.4 1.7-.8 3.8-.4 1.5-1 2.8-1.3 2.7-.2 0-.1-.8-.5-1-.4 0-1 .4-1.2.8-.6.7-.5 1.5-.4 1.8l-3-4.3-.3 26.5h4.4l83.2-81h-43.3zm5.5.6c.3-.3 1-.2 1.8.2a.8.8 0 01-.4.3h-.6l-.3.3h-.5l-.2-.5a.6.6 0 01.2-.3zm-2.8.7c-.7 0-1-.2-1-.3l.4-.3c.6-.3 1.4.2 1.5.3a.6.6 0 01-.2.4h-.7zm.5 5c-1-.3-1.2-.6-1.2-.7 0-.2.4-.3.7-.7.5-.3.7-.8.8-1.2.1-.1.3-.3.5-.2.2 0 .3.5.5 1 .5 1 1.6 1.2 1.6 1.5 0 .1-.6.3-2.9.3zm5.5-2.2c-.4-.2-.5-.5-.7-.4l-.4.2c-.3 0-.2-.8-.6-1-.3 0-.6.4-1 .2-.2 0-.3-.2-.4-.4v-.3c.2-.3.8 0 1.3-.1.3 0 .6-.3.9-.8l.1 1.2c0 .2.1.3.3.4h.4c.2.1.1.3.3.5l.4.2.4.5s-.6 0-1-.2zm2-1.7c-.2 0-.5-.1-.7-.3-.1-.3 0-.6-.2-.8-.2-.2-.6 0-.8-.2-.1 0-.2-.3-.1-.4 0-.2.6-.3 2.5.1.5.4.5.6.5.7l-.8.1c-.3.2-.4.6-.4.9zm.8.7a.4.4 0 01-.2-.2 1.3 1.3 0 01.5-.4c.4-.2.8 0 1 0l-.5.4c-.3.2-.6.3-.8.2zM280.5 114.8l-1.2-.3c-.2.1-.3.4-.3.6-.2.5 0 .7-.3.8-.2.2-.6-.1-.9 0-.2.2-.1.5-.3.6l-.4-.4c-.3-.2-.3-.3-.3-.4 0-.1.2 0 .5-.3l.4-.4h.5c.4 0 .3-1 .5-1.5l-.2-.1c-.3-.2-.9.6-1.1.5-.2-.1.2-.8 0-1.4-.3-.4-.9-.8-1.2-.6-.2 0-.1.2-.5.5l-.7.3c.2.2.1.7-.1 1-.3.4-.5.3-.7.7-.2.3 0 .7-.2.7 0 0-.1-.5-.5-.7-.2-.2-.3-.1-.5-.2-.5-.3-.4-.7-.8-.9-.4-.2-.6.1-1 0-.3-.2-.2-.5-.7-1l-.4-.4c-.6-.7-.8-.8-.8-1 0-.2.2-.3.4-.3s.3.3.7.6c.3.3.5 0 1 .1.3.2.2.6.6.8.3.2.5 0 .8.1.3.3.2.7.5.9.1.1.4.1 1.1-.2-.2-.1.2-.6 0-1-.2-.2-.5-.1-.7-.4-.4-.4.2-1.2-.1-1.5-.3-.2-.8 0-.8-.1 0-.2.4-.3.5-.7 0-.2-.2-.4-.8-1.1a16 16 0 01-.5-.7c-.2-.1-.5-.2-.7 0-.2 0-.2.2-.4.3-.2.1-.6 0-.6-.2-.1-.3.5-.5.5-1 0-.2-.2-.4-.4-.5-.1 0-.7-.3-1.2 0a2 2 0 00-.6.8l.2.9c.3.4.8.5 1 1v.6s-.4.4-.8.4c-.6 0-1.2-.4-1.3-.8-.3-.8.4-1.5 0-1.8h-.4l-.4.5c-.3.8-.2 1.2-.5 1.4a.6.6 0 01-.4.1c-.4-.7-.4-1.2-.3-1.4.1-.3.3-.3.7-.8l.4-.7c.2-1.3.2-2 0-2.1-.1 0-.4.1-.7.6-1.3-.1-1.8-.5-2-.9-.1-.3 0-.5-.2-.7-.5-.5-1.5 0-1.7-.4-.1-.2.2-.4 0-.8 0-.3-.5-.3-.6-.6v-.6l1 .1v.9l.5.2.5-.3c.3-.4.1-.9.1-1 2 .3 2.6.2 2.6 0l-.2-.6c0-.3.4-.4.4-.8v-.7s.5 0 .9-.5c.3-.3.3-.8.3-.9.7.4 1.5.8 1.7.6v-.4a4.4 4.4 0 00-.6-1.1c0-.4 0-.8.3-1.1.4-.5 1-.4 1-.6 0-.3-1.2-1-1.8-.7-.4.3 0 1.1-.6 2-.2.3-.5.4-1 .7-2.1 1.2-3.8 2.1-5.1 1.4a2.2 2.2 0 01-.6-.4h-.6c-.2.2 0 .6-.1.9-.1.2-.4.4-1 .5.6-.5.8-1.2.6-1.7a1.2 1.2 0 00-.4-.5 1.5 1.5 0 010 .2l-.6.6c-.3.2-1 .3-1.2 0-.3-.3 0-1-.3-1.2h-.4c-.4 0-.5.3-.6.5l-.4 1c-.3.3-.6 0-1 .4-.4.3-.4.9-.6.9-.2 0-.4-.4-.5-.4-.2-.5 0-1-.2-1.6a.6.6 0 00-.2-.2h-.6a2.5 2.5 0 00-.6.4c-.5.4-.6.8-.8.8-.1 0 .2-.9-.2-1.1-.2-.2-.3 0-.9 0a1.8 1.8 0 01-.7-.4s-.4-.3-.3-.5l.5-.1a.8.8 0 00.4-.6c0-.6-2.1-1.4-2.4-1.5a98.7 98.7 0 00-6.9-2.2c-3.5-3.9-4.1-5.2-4-5.7.1-.1.3-.6.1-.8-.1-.2-.4-.1-.6-.3-.2-.2-.1-.5-.2-1.2-.1-.5-.2-1-.5-1.2l-.6.1-.4.5c-.2.2-.6.3-.7.2-.2-.3.9-1.4.6-1.8-.3-.4-1.2 0-1.6-.5l-.4-.6-.5-.4.4-.2a5.2 5.2 0 003-2 5.2 5.2 0 00-.9.2l-.8.4c-.5.2-.8.3-.9.2-.1-.1 0-.4.2-1.1.3-1 .2-1.3.4-1.3.3 0 .4 1 .9 1 .3.1.5-.3 1.3-1.6l1.4-2.1c.8-1 1.2-1.3 1-1.6-.1-.5-1.2-.7-1.9-.6a3.5 3.5 0 00-1.4.4c-.4.3-.4.5-.9.7-.4.1-1 .3-1.1.1-.2-.2.4-.7.2-1.1 0-.2-.3-.4-.6-.5-1.2-.3-1.5-.1-2.2-.3-.9-.4-.7-1-1.8-1.7a3.6 3.6 0 00-1.6-.4L191.3 67l90 82.9v-34a2 2 0 00-.8-1zm-18.9-15.3l.7-.1.5-.4c.4-.3.6-.5 1-.5l.4.3c.7.5 1.6 0 1.7.2l-.3.4h-.3c-.6 0-1.2-.2-1.7-.1-.5 0-.8.3-.8.3-.3 0-.4.2-.7.3h-.5v-.4zm-5.7.5l-1.2-.1c0-.1.4 0 .7-.3.3-.3.3-.6.5-.6 0 0 .2 0 .3.4.4 0 .5.2.5.2l-.8.4zm7.8 5.2c.3-.1.7 0 1 .4a2.4 2.4 0 00-.7.3l-.4.2c-.2 0-.3-.2-.3-.4 0 0 0-.3.4-.5zm-.8 3.8c-.1.2 0 .4-.2.5a.5.5 0 01-.3.1c-.1 0-.3-.1-.3-.3 0-.2 0-.4.3-.6l.3-.3.8.1c0 .1-.4.1-.6.5zm1.2 2.5l-.1.5a.5.5 0 01-.5 0 .5.5 0 01-.3-.4l.2-.4v-1l.2-.4c0-.2.1-.3.2-.3s0 .6.3 1c.3.3.7.2.7.4s-.5.2-.7.6zm15.5 4.6c0-.2.2-.2.2-.2l.4.7.2.5h-.3a1.6 1.6 0 00-.4-.4l-.2-.2.1-.4zm-2 2.2c.7 0 1.2.5 1.5.2.2 0 0-.2.3-.5l.7-.2.4-.3c.2 0-.2.6-.1 1.3 0 .5.3.8.1 1.2a.7.7 0 01-.2.2h-.6c-.3-.1-.3-.5-.6-.6h-.7c-.2 0-.3-.1-.4 0-.2 0-.2.2-.3.2l-.4-.1-.1-.5h-.5v-.5c.2-.2.5-.4.9-.4zm.8 3.2a1 1 0 01-.6-.3c.2 0 .5-.2.8 0l.4.2c0 .1-.3.2-.6.1zm.6 4a.5.5 0 01-.2.3c-.2.2-.6.1-1-.1.2-.4.5-.6.8-.5.3 0 .4.3.4.3zm-2.5-11.2l.4-.2s.2 0 .2.2a.3.3 0 010 .2.4.4 0 01-.3.2.4.4 0 01-.3-.1h-.3c0-.1.1-.3.3-.3zm-1.3 1.3l.5-.2c.3.2.5.5.5.8 0 .3-.4.6-.6.5l-.2-.5-.2-.3v-.3zm-.4 3.4l.3-.4.1.3.2 1c.3.8 1.8.7 1.8.9h-3.5s.7 0 1-.4c0-.3 0-.6-.2-.8l-.5-.3c0-.1.5 0 .8-.3zm-8.9-5.6c-.2 0-.3-.4-.2-.6.1-.3.3-.3.4-.3.2 0 .3.2.3.4 0 .3-.3.5-.5.5zm.8 1a.7.7 0 01-.3 0s-.1-.2 0-.4a.4.4 0 01.3-.2l.4.1-.4.5zm1.6-2l-.1.6-.5.3h-.7l-.2-.5c0-.2.3-.2.3-.5 0-.2-.1-.4-.4-.6l-.8-.6c-.1-.4.6-1 .6-1 .3 0 .6 0 .7.2.2.3-.1.5 0 .7.2.3.8 0 1 .4.2.1.2.4.1 1zm1.5 4.9l-.2-.2c-.2-.1-.2-.3-.1-.4 0-.1.2-.1.4 0l-.1.6zm0-1.8a1.5 1.5 0 01-.8-.2 1.1 1.1 0 01.5-.3h.5l.3.3c0 .2-.4.2-.5.2zm.5 1c0-.1 0-.2.3-.4.1-.2.3-.3.3-.5.2.3.2.6 0 .7-.2.3-.6.2-.6.1zm1.2 5l-.1-.7-.3-.2.1-.3c.1-.1.4 0 .5.2.1.2 0 .6-.2 1zm1.3-3.1l-.6.8c-.2 0 0-1-.2-1.2-.2 0-.4.1-.8 0l-.3-.3c0-.3.5-.5.9-1 .2-.3.4-1 .2-1.4-.3-.6-1.5-.6-1.5-.8l1.2-.2c.3-.1.5-.2.6-.1 0 .1-.2.3 0 .6 0 .3.3.3.5.6l.3.6c.3.5 1 .4 1 .5 0 .2-1.1 0-1.2.4-.1.2.3.3.3.7 0 .1 0 .3-.4.8zm1.1 4.3l-.2-.2v-.7a.7.7 0 01.4-.2c.4-.1.8 0 .8.1 0 .2-.3.1-.6.4l-.4.6zm1.2 3c-.2 0-.4 0-.4-.2l.1-.3.3-.5c0 .2 0 .4.3.5.2.3.6.2.6.3l-1 .2zm1.5-.8l-.4-.5c-.4-.6-.9-.6-.8-.8 0-.2.4-.1.8-.4l.6-.9.3-.4c.1 0-.2.7.2 1a.6.6 0 00.3.3.8.8 0 01.2-.6.8.8 0 01.6-.2 3 3 0 010 1.6h-1c-.2.3.2.9 0 1-.1.1-.3 0-.4 0a1 1 0 01-.4-.1zm.9 2l.6-.6s.4-.2.6-.1c.3.1.2.7 0 1a1 1 0 01-.5.4c-.2 0-1 .2-1.2 0 0-.2.2-.5.5-.7zm-.3 4.8c0-.1.3-.3.9-.4h.6l-.8.6c-.5 0-.7-.1-.7-.2zm1.8 1.4l.2-.8c.4.3.6.7.4 1 0 .2-.7.5-1.3.1.1 0 .4 0 .7-.3zm.3 6.7c-.6-.5-.7-.8-.7-1l.2-.7.1-.3c.2 0 .5.1.7.4.3.5.2 1-.3 1.6zm.6-11.5c-.8-.2-1-.3-1-.4 0 0 .4 0 .8-.3l.2-.1c.3 0 .4.3.4.5a.5.5 0 01-.4.3zm.4-3c-.2 0-.4-.3-.4-.4.1-.2.6-.3.7-.1.1.1 0 .5-.3.6zm.3-1.2a1 1 0 01-.6-.2 1 1 0 01-.4-.3v-.5h.3l.7-.1.2.6a1.2 1.2 0 01-.2.5z"/><path d="M251.4 87c-.6.1-1.4.7-1.6 1.5-.2 1 .4 1.7.5 1.8.4.5 1.1 1 2.1 1.3.6.1 1.4.3 1.9-.1.5-.5 0-1.3.5-1.7.5-.4 1.2.2 1.5 0 .6-.6-1-3.7-2-3.5-.2 0-.1.3-.5.6-.7.5-1.4-.2-2.4 0zm-6.7-3.1c.5.2 1.5.3 2-.4.2-.5.1-1.2-.3-1.8-.2-.4-.5-.7-1-.8-.4-.1-.9 0-1 .4-.2.2 0 .3-.2.7l-.5.7c0 .4.5 1 1 1.2zm-4.7-12c.2 0 1.1.4 1.7 0 1.1-.8.4-3.2 0-3.3l-.3.3-.9.6c-.3.3-1 1-.8 1.7 0 .3.2.5.3.7zm5.8.4c.5.4 1 .4 2.1.5 1 0 1.5 0 1.8-.3.5-.5.1-1.4.6-1.7.4-.3 1 .3 1.3 0 .3-.3.1-1.2-.2-1.7-1.3-1.7-5.6-.5-6.2-.3-.4 1.5-.2 2.9.6 3.5zm3.9 2.8c-.4-.4-1.2-.3-1.7-.1-.4 0-.7.1-.9.4-.2.3-.2.9.2 1.4.3.5.8.7 1.4.6.7-.1 1-.8 1-1 0 0 .4-.8 0-1.3zm1.3 5c-.1.1-.3.3-.2.5 0 .2.2.3.5.5.4.3.6.5.7.4.3 0 .3-.6.2-1.2 0-.4-.2-.7-.4-.8-.3 0-.7.4-.8.5zm5 .3a2 2 0 001.3 0 1 1 0 00.3-.5c.1-.4-.2-.7-.7-1.5-.7-1-.8-1.4-1.1-1.4-.2 0-.5 0-1 .4-.1.3-.3 1 0 1.6 0 .2.3 1 1.1 1.4zm-.2 3.2c0 .5.2.9.3 1l1 .2c.2 0 .7-.1 1-.5.2-.4.2-1-.1-1.5-.1-.1-.4-.4-.8-.5-.7 0-1.4.6-1.4 1.3zm3.8 6.8l.5.2s.7 0 1-.6c0 0 .5-.7.2-1.2-.2-.4-.5-.4-1.2-1a5.6 5.6 0 01-.6-.6c-.6 0-.9.3-1 .4-.3.5.1 1.4.4 2l.7.8zm5.8.2c.3.3.7.6 1 .4.4-.1.6-.7.5-1.1 0-.6-.5-1-.5-1s-.5-.4-1-.3c-.5.2-.8.6-.8 1 0 .5.4.8.8 1zm-4.9 2.1c-.2.2 0 .5-.3.9l-.5.3c-.4.4-.4 1-.3 1.4.1.4.4.6.5.7.1.1.8.4 1.5 0 .8-.3 1.1-1.2 1-2a2 2 0 00-1-1.2c-.5-.2-.7-.2-.9 0zm14.7.5c.7-.1 1.2-.1 1.5-.5.5-.6.3-2-.6-2.7-.8-.6-2-.6-2.5 0l-.5.8-.4.6c0 .5 0 1 .4 1.4.5.5 1.3.4 2.1.4zm4.4 12.1c.3-.3.3-.7 0-1-.4-.5-1-.4-1.3 0-.2.3-.2.7 0 1 .4.4 1 .4 1.3 0zm1.5-7.3c0 .2-.2.4-.4.6-.5.3-1 0-1.3.3-.1.1-.2.4 0 1l.3.3.7.4.5.4c.1-.1.5-.5.6-1.2.2-1-.3-1.7-.4-1.8z"/><g><path d="M240.8 118C220.3 90 185 90 181 90a77.4 77.4 0 00-59.8 18.8 75 75 0 00-23 44h155a67.2 67.2 0 00-12.4-34.8zm-8 27c-.2.6-2-.2-6.6-.4-2.8-.2-4.2-.3-5.2.3-.6.4-1.4 1-2.1.8-.3-.1-.4-.3-.7-.7-.6-1-1.6-2-1.8-1.9-.2.1.6 1.8.3 2-.2.2-.5-.2-.8-.1-.4 0-.4.6-.6 1-.8.8-3.3.6-4.2-.6-.4-.5-.4-1-.7-1-.5-.1-.7.7-1.7 1-.4.2-.8.3-.9.2-.1-.2.7-.7.6-1-.2-.3-1.3 0-2.8-.2-1.6-.2-1.8-1-2.7-.7-.8.2-.7.7-2 1.4a5.5 5.5 0 01-1.7.5c-.8.2-.8 0-2 0a37.7 37.7 0 00-2.4 0h-1.2c-.1-.3.4-.7.3-1 0-.2-.5-.4-2.1-.3-.4.1-.9.3-.9.6 0 .4.5.6.4.9l-.9.3-1 .5c-.2-.2.2-.8-.2-1.1-.2-.2-.6-.2-1-.1l-1 .5c-.2.6-.4.8-.6.8-.3 0-.4-.4-1-.7-.2-.1-.8-.5-1.3-.2-.4 0-.4.3-1.1.8-.3.2-.5.3-.6.2v-.7c-.2-.3-.9-.3-1.2 0-.3.3 0 .8-.2 1l-.5-.1a1.4 1.4 0 00-.7-.3c-.4 0-.7.2-1.1.4-.8.4-1.7 1-2 .7-.3-.2 0-.5-.3-.9s-.8-.4-1.1-.5a3 3 0 00-1.8.4 12.2 12.2 0 01-1.7-.3h-.7c-.3.2-.2.5-.5.8-.4.3-1.5.1-2-.5-.5-.5-.3-.9-.6-1.2-.7-.5-1.9 0-1.9.2s.8.2.8.6a.5.5 0 01-.2.5c-.3.2-.5-.2-1.2-.4-.7-.1-1 .1-1.3-.1l-.5-.8c-.2-.5 0-.7-.3-1-.2-.2-.5-.5-.8-.5-.5.2-.3 1-.9 1.4-.4.2-.8 0-1 .4v.5c-.1.2-.4.4-1 .5-1.3-.8-1.8-1-2-.8-.2.3.3 1 0 1.2l-.4-.2c-.5-.3-.5-.7-.9-.9-.1 0-.4-.1-.8 0a37.3 37.3 0 00-1.8 0c-.6 0-.9 0-1.2-.2l-.7-.3-.6-.3c-.3 0-.4.4-.5.6-.4.6-1.6.4-3.3.3-2.8-.2-3.6 0-3.8.4v.6c-.2.2-.4.1-.8 0h-1.4c0-.3.3-.4.5-1v-.4s-.2 0-1.2.8c-.6.5-.8.7-1 .7-.4 0-.9-.7-.7-1 0-.4.7-.3 1-.8.2-.1.4-.4.3-.6-.2-.5-2-.6-2.6.2-.3.3-.4.8-.6.8-.2 0-.2-.2-.4-.3-.4-.5-1.5 0-1.7.1-.3.2-1.6.2-4 .2-4.8.1-5.3-.2-7 .2l-1.2.2c-1.5 0-1.8-1.2-2.9-1.1-1 0-1 .9-2.4 1.1-.7.1-1.4 0-1.4-.2s.6-.2.9-.8l.2-.9.3-.8c.5-.6 1.1-.5 1.3-1 .1-.2 0-.6-.7-1.3.5.3 1 .3 1.3 0 .2-.2.2-.5.2-.6.3.3.8.2 1 0 .1-.2.1-.5 0-.8.6.3 1.1.3 1.3.1.2-.2-.3-.9-.3-1-.4-.5-1-.7-1.3-.8l.3-.6c.2-.3.6-.8.9-.7.2 0 0 .5.3 1.2l.2.7c.2 0 .3.2.4.1.2 0 0-.5.1-1 0-.3.3-.7.6-.9.4 0 1 .4 1.5 1.2 0 0 .4.3.8.1.3 0 .5-.4.6-.6 0-.8-1.3-1.3-1.2-1.5 0-.2.4-.2 1.5.1a3 3 0 00-.4-.9l-.6-.6c-.4-.7 0-1.8.3-1.8s.3.8 1 1.1c.3.2.5.1.9.4l.5.4c.2 0 .3-.4.3-.6 0-.5-.5-.8-.7-1-.4-.3-1-1.1-1.3-3.1a2.6 2.6 0 01-.1-.3v.3a2 2 0 001.4 1.5 1.8 1.8 0 000-1.8 1 1 0 01.5.1c.6.3.5 1 1 1.2.1 0 .2-.2.5-.1.2 0 .3.2.6.6l.5.6c.7.6 1.8-.1 2.2.4.1.2 0 .4.2.7.2.2.5.3.7.3h.4c0-.2 0-.4-.7-1.2l-.4-.7c-.1-.4 0-.7.2-1 .1-.5.2-1.1-.2-2 .4.3.5.6.6.8l.5.8.4.3.3-.1c.2-.2 0-.4.1-1v-.3l.7.1a1 1 0 00.3-.2c.2-.3.3-.7.2-1-.3-.3-.8 0-1.3-.2-.5 0-1-.5-1.5-2-.2-.6 0-1.2.3-1.5.3-.2.7-.2.8-.2 0 0 0 .4.3.7a.8.8 0 00.4.1 1 1 0 00.4-.4c.2-.5 0-1.2-.7-1.6-.2-.3-.2-.5-.1-.6.3-.6 2.4-.4 3.8.4.5.2 1 .5 1.4 1 .5.9.5 1.7.4 2.2-.2 5.3.2 4.3-.1 6.5-.3 1.7-.6 2.5 0 3.2.3.5 1.2.9 1.7.6 1-.5.4-2.9.2-8.3 0-3.6.1-5.7 1.1-6 .6-.3 1 .3 1.8 0s.8-1 1.8-2.2l1.6-1.3c.8-1 1.8-2 1.5-2.9-.2-1-1.7-1-1.7-1.5s1.2-.2 2-1.2c.6-.5.8-1.3 1.4-1.3l.3.1c.5.4.1 1 .4 1.3.3.2.8-.4 1.7-.7a3.6 3.6 0 011.5 0l.4-.1-.7-.7c-.3-.3-.3-.7-.4-1 .2 0 .7-.1 1.3.2.3.1.5.3.6.5a1.4 1.4 0 01.6-1.5 1 1 0 00.3 1c.3.2.7.1.7.1.3 0 .5-.2.6-.4l-.3-.6c-.1-.2-.3-.7-.1-1h.6c.2 0 .5-.3.6-1.3 0 .2.3.8 1 1a2 2 0 001.5.2c.2 1.2.5 1.8.7 1.8.1 0 .2 0 .3-.3.3-.1 1-.4 1.7-.2.4.1.8.5 1 .6l.3.3c.3-.3.3-.5.3-.6 0-.2-.4 0-.6-.3a.8.8 0 01-.3-.7c0-.4.5-.7 1-.7.3 0 .6.1.9.4l.6 1.2c0 .1.5 1 1 1s.4-1.6 1-1.7c.3-.1.5.3 1.2.6.4.2.8.2 1.1.2 0 .2.1.5.3.5.2 0 .5-.8.7-.7.2 0 .3.2.4 1 .2.1.7.3 1.3 0 .3 0 .5-.2.6-.3 0 .2 0 .6.2.8.3.3.8 0 1.2.3.5.3.3.7.8 1 .5.4 1.4.3 1.4.1 0-.2-.8-.4-1-1 0-.3 0-.6.2-.7.2-.2.5 0 .9 0 .5-.2.4-1 .7-1 .2 0 .4 1 .5 1.4l.5 3.2c.2 1.2.6 2 .9 2.6.8 2.3.5 5 0 10.3-.5 3.4-1 5.6 0 6.2a2.7 2.7 0 003-.4c.7-.8.2-2.5 0-3l-.4-10.1c-.2-4 0-6 1.2-6.6l1-.2c1.3-.2 2.4.3 3.6 1 1.5.7 2.7 1.4 3 2.4a6.6 6.6 0 010 2.2c-.2 1.7 0 4.9-.2 7.7 0 2-.3 3.3.4 3.8 0 0 .5.4 1 .3.5-.1.7-.6.8-.7 1-1.4-.4-3.9 0-7.2.3-1.5.7-2.3 1-2.6.7-1 1.6-1.5 2.1-1.8h.6c.7.3 1 1 1.4 2 .5 1.1 1.2 2.8 2.4 4.2l.8.7c.2.4 1 1.5 1.2 4.4 0 1 0 2.6-.3 4.6-.2.9-.4 1.5-.4 2.7 0 1-.1 2.3.6 2.8.3.2.8.3 1.3.1 1.4-.6 1-4.7.6-9.7-.3-3-.5-4.4.5-5.4.7-.8 2.2-1.2 2.9-.7.4.3.3 1 1 1.4.5.3 1 .2 1 .6.2.4-.2.8 0 1 .1 0 .7-.1 1-.6.3-.4.2-.7.4-.8l.9.3v.7c-.2.4-1 .4-1 .5 0 .1.6 0 1.1.3.4.3.8.9.7 1.4a1 1 0 01-.2.4c-.5.6-1 .4-1.3.8-.1.2 0 .7.3.8.5.3 1.2-.6 1.5-.3.2.1 0 .7.2.8.2.2.5-.3 1-.4l1 .2c.5 0 .8-.3 1-.2l.1.4c0 .3-.4.4-.8.7-.2.2-.7.6-.7 1 0 .3.3.6.5.6.3 0 .5-.4 1-1 .6-.6 1.4-1.1 1.7-1 .2.3-.5 1.3-.1 1.6.2.3.9 0 1.5-.4h.3c0 .2-.6.3-.9.9-.3.5 0 .9-.3 1.3-.2.4-.4.2-.8.6-.4.4-.5.9-.6 1.3-.2.6 0 .9-.3 1-.3.3-.6.1-.7.3-.3.3 0 1 .2 1 .3.2.5-.7 1.2-.8.4-.1.5 0 1.1.2 1 .1 1.8-.2 1.8 0 .1.2-1.3.8-1.2 1.1 0 .2.7 0 1 .4.2.4-.2.9 0 1.1.2.2.5.1.7 0 .4 0 .5-.5 1-1.2.4-.6.6-1 .9-1.1.8-.5 2.3 0 2.4.6 0 .5-.8.7-.7 1 0 .4 2.2-.3 2.6.4.5.6-1.1 2.2-.7 2.6.1.2.5 0 .8 0 .5-.3.5-.7.8-.8.6-.3 2.2 1.1 2 1.7z"/><path d="M157 143.5l.4-.3c.6-.2 1 0 1.8 0 1 0 1.3-.3 1.8 0 .2 0 .4.2.5.3a3.8 3.8 0 01-2 .8c-.1 0-1 .1-1.9-.3-.1-.1-.5-.3-.5-.5zm5.7-.6c0-.3.2-.5.2-.5.6-.5 2 .1 2.1.7 0 .1 0 .3-.2.4-.1 0-.6.4-1.2.3-.7-.2-.9-.9-1-1zm6-.7a.8.8 0 01.2-.5c.1-.2.4-.2.8-.4.6-.3.6-.6 1-.5.2 0 .6.4.5.7 0 .2-.2.2-.3.3-.7.3-1.6.4-2.1.4zm4.9 1.8c0-.3.6-.6 1-.4.5.1.7.5.7.6 0 0-.5.5-1 .4-.4-.1-.7-.4-.7-.6zm2.5 2.1l-1.1-.3c0-.2 1.7-.7 3.5-.3a6 6 0 011.4.5 4 4 0 01-1.8.5l-2-.4zm9.7-1.7c-.2-.2 0-.5-.3-1s-1-.6-1-.7c0-.1 1 .3 2 0s1.2-.9 2-.8c.4 0 .4.2 1 .4 1 .3 2.3.4 2.6 0 .2-.4-.3-.8-.1-1 .3-.3 1.3.8 2.3.4.7-.2 1-1 1.3-1 .2 0 .2.5.2.8-.2.5-.5.8-.9 1h-1.3c-.5.1-1 .2-1.3.6-.2.3 0 .5-.3.7-.4.4-1 .2-1.6 0-.7-.1-.6-.3-1.2-.4-.2 0-1.5-.4-2.1.3a1.2 1.2 0 00-.3.5c-.6.3-.8.3-1 .2zm17-2.4c.9.7 1.8.9 2.3.5.2-.1.4-.4.4-.7 0-.4-.5-.7-.7-.8-.6-.2-1.4.2-2 1zm17-.4c-.2-.4-1.3 0-3-.6-1-.2-1.3-.5-2-.4-.5.1-.5.3-1.3.7-1.5.9-2.4.9-2.5 1.4 0 .2 0 .5.4 1 1 .3 1.4.3 1.6.1.2-.2-.1-.5.1-.9.3-.4 1-.6 1.3-.4.4.2.4.5.6.5.3.1.6-.2.9-.4 1-.7 2 .4 3.2-.3.3-.2.7-.5.6-.7z"/></g></g><path d="M175 67c-59.6 0-108 48.1-108 107.5S115.4 282 175 282s108-48.1 108-107.5S234.6 67 175 67zm0 181c-40.8 0-73.8-33-73.8-73.5s33-73.5 73.8-73.5 73.8 33 73.8 73.5-33 73.5-73.8 73.5z" fill="#768696"/><linearGradient id="a" gradientUnits="userSpaceOnUse" x1="219.6" y1="184.8" x2="133.4" y2="98.6"><stop offset="0" stop-color="#6e7e8e"/><stop offset=".5" stop-color="#647483"/><stop offset="1" stop-color="#6e7e8e"/></linearGradient><path d="M150 105c-5.4 2-10 4.5-10 4.5a71 71 0 00-10.6 7 79.3 79.3 0 00-23.7 32.6L99 149l6-6 3-6-1-3 7-5-4-5 1-3 3 2 1-3h3l-1-3 1-2c1 .4 2.6.8 4.6.6a9.8 9.8 0 002.4-.6c.2-.3.8-1 .8-2 0-2-1.7-3-1.8-3l4-1 19-18 3 3 1-2 .8 1.3L153 95a4.4 4.4 0 00.8-1.6 4.4 4.4 0 00.2-1.4c.7.5 2.4 1.6 4.7 1.3a5.7 5.7 0 001.3-.3l1-2 10 4 3-8.5c1 0 1.8.7 2.2 1.6.3 1-.1 1.7-.2 1.9l5 4c.1-.4.8-2 0-4s-2.7-2.9-3-3a3.3 3.3 0 011.8-1 3.3 3.3 0 012.2.3 56.8 56.8 0 00.7 3.9l1.3-.2 5 7 2-5 3 4 14 3c8.3 2.3 10.3 4.1 10.2 5.4 0 .5-.3 1-1.1 1.5.4.1 3.4.8 4.3 3.2.2.3.3.7.3 1.2 4.4-.7 7.6.4 8 2 .1.2.3 1.3-1.3 3 1.9-1.5 3.9-2.3 4.8-1.6.4.2.7.7.9 3.5a34.2 34.2 0 01-.2 5c1 0 2 0 2.6.6.6.5.6 1.3 1 1.3.1 0 .4-.4.8-2.1l.5 1.5.5 1.6c.6 1.7 2.6 3.3 2.8 3.5.8.7 2.3 3 5.2 7.6l7.8 13h-10.8a74.5 74.5 0 00-30-37.1 74.4 74.4 0 00-33.8-10.7S163.8 100 150 105z" fill="url(#a)"/><path d="M243 129.8c-1.4.7-2.6 1-3.5 1.1-1.3.2-2.2.1-2.7.7s-.4 1.6-.2 2.3l4.3 7.7a15 15 0 005.2-7.3l-3-4.6z" fill="#6c7e8c"/><linearGradient id="b" gradientUnits="userSpaceOnUse" x1="172.4" y1="111.5" x2="172.4" y2="85.9"><stop offset="0" stop-color="#5d6b76" stop-opacity=".1"/><stop offset="1" stop-color="#5d6b76"/></linearGradient><path d="M136.8 111.5c.8-3.2 2-5.2 3.2-6.4 3.2-3.6 6.7-3.4 10.3-7 2-2.1 3.1-4.4 3.7-6.1l6 1 1-2a30.1 30.1 0 0110 4 31.8 31.8 0 013-8.5 6 6 0 012.2 1.6c.8 1 .7 1.5 1.5 2.3 1 1.1 2.8 1.8 3.4 1.3.5-.5 0-1.9-.5-2.6A5 5 0 00178 87a3.3 3.3 0 011.8-1 3.3 3.3 0 012.2.2l.7 4 1.3-.2 5 7 2-5 3 4 14 3-4 8a73.2 73.2 0 00-67.2 4.5z" fill="url(#b)"/><path d="M232 112.6c.5-.5.7-1.2.5-1.8-.2-.5-.8-.7-.9-.7l1-1a7.8 7.8 0 00-1.8-1.4l-2.5-1a11 11 0 01-1.7-1.1c.3 0 1 .2 1.7-.2a2.8 2.8 0 001.4-1.2c0 .2-.2.7 0 1.4a2.2 2.2 0 001 1.1c3.5 1 5.4 2.9 5.2 4-.2 1-2 1.7-4 1.9z" fill="#6c7b8e"/><path d="M169.8 87a11 11 0 01-.4 4.3l1.6-.8a5.4 5.4 0 00-.3-2 5.4 5.4 0 00-1-1.5z" fill="#5d6b76"/><linearGradient id="c" gradientUnits="userSpaceOnUse" x1="245.4" y1="149.9" x2="251.8" y2="138.8"><stop offset="0" stop-color="#5d6b76" stop-opacity=".2"/><stop offset="1" stop-color="#5d6b76" stop-opacity=".4"/></linearGradient><path d="M247.3 136.2a16.8 16.8 0 01-6.4 5.4 36.6 36.6 0 013.4 7.7l10.8-.1-7.8-13z" fill="url(#c)"/><linearGradient id="d" gradientUnits="userSpaceOnUse" x1="149.1" y1="259" x2="201.7" y2="167.8"><stop offset="0" stop-color="#5d6b76" stop-opacity=".3"/><stop offset="1" stop-color="#5d6b76"/></linearGradient><path d="M106.2 201a10.8 10.8 0 00-1.6 3.2c-.7 2.3 0 2.9-.5 5.7-.5 3-1.4 3.5-1 5.2.4 1.7 1.7 2.8 2.4 3.3 2.2 1.8 5.2 4.9 9.8 10.4.9-2 2.1-3.3 2.7-3 .7.1 1 2 .4 4.3.1.2.4.4.7.5 1 .4 1.9-1.3 3.5-1.8.7-.2 1.7-.3 3.2.4a5 5 0 011.4 2.1c.6 2.2-1 3.7-.9 6.3 0 1 .3 2.3 1.4 3.9 0 .2-.1.8.2 1.4.3.5.6.7.8.8 0 .4 0 .9.2 1.3a7.3 7.3 0 003.3 4 7.3 7.3 0 01-2-5.5 6.2 6.2 0 01.6-2 11.5 11.5 0 014.7 6 3 3 0 01-.8 1.4 3 3 0 01-1.5.8c.9.8 1.6 1 2 1 1.1-.2 1.6-1.4 3.6-3.2a20.3 20.3 0 011.6-1.4l8.1 7.7c.6-.3 1.5-.7 2.6-.6 1 .2 1 .5 2.2.8 2 .5 3.8-.2 4.1-.3.8-.4 1.1-.6 2.1-.9a7 7 0 011.8-.1c0 .7.4 1.1.5 1.3.9 1 2.8 1 4.7 0l-.6 3.2c5.1.5 9.1.2 11.8-.1 3.9-.5 6.4-1.1 6.4-1.1 3.7-.9 5-1.6 7.3-1.5 2.4 0 4.4 1 5.6 1.7h.7c.7-.5-.7-3-.1-3.8.5-.7 2.7-.3 8.7 2.8.1-.3.3-.5.5-.5.5 0 .6 1.4 1.6 2.4s2.7 1.3 2.8 1c.2-.3-.8-1-2-2.5-.9-1.1-2.7-3.4-2-4.8.5-.8 1.9-1 2.1-1 2 0 3 1.7 4.6 1.5.8-.2 1.3-.7 1.6-1l1-4c.7.4 2.2.9 3.4.3 1.3-.6 1.9-2.1 2.6-4.2a17.5 17.5 0 00.7-2.8 16.2 16.2 0 015.9-4.6c.6.3 1.3.8 1.6 1.6.4.8 0 1.6.3 1.7.3 0 1.3-1.3 2-3 1-1.8 1.3-3.3 1.5-3.8.9-3 2.9-4.8 4.4-6.6 1.9-2.3 4.3-6 6.3-12.3l3.5-1.2c-1.4-.4-2.6-1.3-2.8-2.3-.2-1.5 1.7-3.5 5-3.8 0 0 1.1-.1 1.7-1.1.4-.9.1-1.7 0-1.9.4-.1 1-.3 1.7-.2 1.3.2 1.6 1.3 2.4 1.3.5 0 1.3-.3 2.3-2.5h-15.2a73.7 73.7 0 01-137.6.1z" fill="url(#d)"/><linearGradient id="e" gradientUnits="userSpaceOnUse" x1="215.4" y1="255.4" x2="216.8" y2="252.9"><stop offset="0" stop-color="#5d6b76" stop-opacity=".3"/><stop offset="1" stop-color="#5d6b76" stop-opacity=".5"/></linearGradient><path d="M216 252.4c1 .7 1.2 1.9.8 2.5-.5.5-1.3.5-1.4.5l.6-3z" fill="url(#e)"/><linearGradient id="f" gradientUnits="userSpaceOnUse" x1="220" y1="251" x2="218.2" y2="250"><stop offset="0" stop-color="#5d6b76" stop-opacity=".1"/><stop offset="1" stop-color="#5d6b76" stop-opacity=".7"/></linearGradient><path d="M218.5 249.5c.6-.3.9-.2 1-.2.4.3.5 1.4 0 2.7l-1-2.5z" fill="url(#f)"/><linearGradient id="g" gradientUnits="userSpaceOnUse" x1="226.6" y1="246.5" x2="233.8" y2="239.3"><stop offset="0" stop-color="#5d6b76" stop-opacity=".2"/><stop offset="1" stop-color="#5d6b76" stop-opacity=".5"/></linearGradient><path d="M225.4 245.3l1.6-1.4 1.5-1.2c1.7-1.4 1.7-1.7 2.7-2.4a8.2 8.2 0 012.4-1c.6.3 1 .8 1 1.3 0 .7-1 1-1.5 1.1-1 .4-1.6 0-2.5.2-.6.1-1.3.4-2 1.4a1 1 0 00-.2.1c-.5.7.2 1.6 0 2-.2.3-.8.5-3-.1z" fill="url(#g)"/><g><path fill="#fff" d="M44 149h262v52H44z"/><path d="M70 156h21v19H70zm-18 19h18v19H52zm39 0h21v19H91zm21-19h21v19h-21zm21 19h21v19h-21zm21-19h21v19h-21zm21 19h21v19h-21zm21-19h21v19h-21zm21 19h21v19h-21zm21-19h21v19h-21zm21 19h21v19h-21zm21-19h18v19h-18z"/></g></g></switch></svg>