<svg xmlns="http://www.w3.org/2000/svg" viewBox="0 0 350 350"><switch><g><path fill="#fff" d="M59.9 60H290v230H60z"/><path d="M69.2 69.4h211.6v211.4H69.2z"/><path fill="#1b3652" d="M247.6 79H102l-23.2 9.3V271h192V89.6z"/><radialGradient id="a" cx="175" cy="175" r="96" gradientTransform="matrix(0 -1 1.5 0 -87.5 350)" gradientUnits="userSpaceOnUse"><stop offset=".6" stop-color="#4fa0e2"/><stop offset="1" stop-color="#3a6082" stop-opacity="0"/></radialGradient><path opacity=".6" fill="url(#a)" d="M79 79h192v192H79z"/><path d="M73.3 77.8c-2.5 1.4 1.6 4.5.5 13.7-3 23.6.2 46.5.2 46.5l3.5 1.8c3.5 1 9.2-11.7 16.5-20 3.4-4.5 5.5-3 10.4-8 8-8.1 11.2-6.9 15.1-10 6.8-5.5 15.7-16.5 13-21.3-3.2-5.8-19.7.8-42.3-.8-6.9-.4-12.2-4.8-17-2zm-2.5 135.7c-.4-1.7-2.8-1.6-3-3-.1-1.1.5-2.5 2.7-4.3 4.3-3.3 8.3-.6 18.3-1.2 13.2-.8 17.7-7.8 22.7-4.5 3.6 2.4 5.1 9 3 13.1-2.8 5.4-11 4.4-13.8 11.2-.7 1.9 0 1.9-1 4.2-1.4 4-4 5.5-10.2 10.8-.5.4-8.2 7-7.8 7.6.3.4 3.5-2 4.3-1.2 1 1-2.3 6.1-2 6.3.3.2 3.3-7.4 9.6-9 1.8-.4 1.8 0 3.4-.4 4.3-1.2 4.7-5.2 9.5-11.3 4-5.1 5.1-4.2 8.5-9.2 2.9-4.3 3.8-7.6 4.8-7.3 1 .2 1.5 4.4.7 8.2-.5 2.1-1.2 3.5-.5 4.4 1 1.1 3.5-.1 4 .7.6 1-2.4 3.3-5 7.4-1.4 2.2-4.4 6.9-3 8.9 1.3 1.9 5.3-.4 9.4 2.5 1 .7 1.7 1.3 2 2.2 1.7 5.3-15.2 14.4-14 16.4.3.7 2.5.3 3.3.1 1.7-.4 2-1.1 4-1.7 1-.3 2.8-1 3.5-.2.7.8-.2 2-.3 5 0 1.6-.1 2.6.6 3.5 1 1.3 2.8 2 4 1.3 1.2-.6.8-2 1.6-4.4 1.4-4.1 4.6-6.7 8.2-9.6l1.5-1.1c1.5-1 2.5-1.3 6-3.9a60 60 0 004.5-3.8c.9-.9 1.6-3.4 3.6-5.7 4.8-5.7 6.7-7.8 7.6-7.5 1.1.3-.1 1.5-2.5 5.5-1.4 2.3-2.8 5-6.9 8.2-6.2 5.1-9.2 6.7-10.2 7.5a33.8 33.8 0 00-7.9 9c-2.2 4.4.3 7-1.3 8.8-3.7 4.3-14.9-6-30.4-5.3-12.8.6-18.6 8-24 4.3-3-2-3.5-6-4.5-14.3-1-7.2-1-13.7-.5-28.5.2-10 .4-15.9-1.5-16.5a1.6 1.6 0 01-.8-.4c-.6-.8 0-1.8-.3-2.8z"/><path d="M140.9 235.8c-.7-.4-1.8.1-2.1 1-.4.8.2 1.6.3 1.6.7.3 1.5.2 2-.3.6-.7.5-2-.2-2.3z" fill="#060809"/><path d="M67.3 166.5c-.9-6.4 11.8-11 25.7-30.5 3-4.2 7.3-11.5 20-20.5 5.4-3.8 6.7-8.1 7.8-12.8 1.9-8-2-12.4.7-15.5 3.9-4.5 18.1-2.3 21 4.3.8 1.7 1.7 6-14.3 25.8-9.5 11.7-12.4 13.4-18.7 21-19.3 23-19.5 40-29 40.4-6 .3-12.5-6.1-13.3-12.2z"/><path d="M253 89.3c-2.7 2.7 2 8-1.3 14.7a21 21 0 01-7.4 7.3c-5.3 3.8-9.4 4-10 7-.3 1.6.4 3.4 1.4 3.7 1.1.4 2.8-1.3 5-3.7 2.1-2.3 1.8-2.5 3.1-3.5 2.4-2 3.7-1.2 5.8-3.1 1.2-1.1 1-1.4 2.7-3.8.2-.4 4.5-6.3 6-5.6.7.3.6 1.7.6 4.4 0 2-.3 3 0 4.9.2 1.3.4 2.2 1 2.5.6.2 1.4-.5 4-3.4 3.4-3.8 3.9-4.6 5.3-5 2-.4 3 .9 4 .2 1.6-1 1.1-4.9.3-7.4-2.7-8.2-16.8-12.8-20.5-9.2zm-32.7 28.2c-.6 2.5 2.8 5 5.8 7.2 1.3 1 2 1.2 2.4 1 .8-.5.5-2.7.1-3.9-.9-3.2-3.8-6.9-6.3-6.3a3 3 0 00-2 2zm-80.8 125c1.1-1.3 3-.8 3.3-.8.9.3 2 .9 1.9 1.4 0 .4-.9.7-2.4 1.3-2.4 1-2.8 1.4-3.2 1-.6-.4-.4-2 .4-2.9zm57.1 30.6c.2-2.4 1.8-3.2 4.7-7.2 1.6-2.4 2-3.5 3.8-4.6 1-.7 2.7-1.5 3-1 .3.3-.4 1.4-1.3 2.8-3.3 5-3.5 6.4-6.4 9.8-2 2.3-2.7 2.7-3.2 2.5-.6-.3-.6-2-.6-2.3z" fill="#060809"/><path d="M133.4 249.3c.6.2.1 2.4-1 3.9-1.4 1.7-3.7 2.4-4 2-.8-1 4-6.5 5-6zm20.6 16.5c1 .5 1.4 5.2-1.6 7.3-2.1 1.5-4.7.8-5 .7 4.3-7 6-8.3 6.6-8zm122.3-51.2c-3.4-2.3-7.6-.8-13.3 1.3-3.5 1.2-5 2.5-6.2 3.7-1.5 1.8-2 3.5-2.3 4.3-1.6 4.7-5.9 6.7-13.7 12.8-8.6 6.9-12.9 12-13.6 11.3-.7-.6 2.7-5.3 2.3-5.6-.5-.3-5.7 6-8.8 9.9-11.2 13.7-16.7 20.6-15.5 22.6.6 1.1 2.5 2.2 8.8 1.2l65.6 1 .4-55.6c-.7-4.7-3-6.5-3.7-7zm-6 32.7l-2.4 1.5c-5.3 3.6-7.9 7.5-10.8 11-2 2.4-5 5.7-9.2 9.2h-3.2a23 23 0 006.6-6.4c1.2-1.8 1.9-3.4 4-4.8 1.4-1 2.2-.9 3.8-2 2-1.4 2.8-3 3.5-4.3 1.3-2 3.4-4.5 7.7-6.9v2.7z"/><g><path fill="#fff" stroke="#000" stroke-width="6" stroke-miterlimit="10" d="M50.3 141.3h249.4v73.4H50.3zM175 125.7h32.3l19.8-6.4-.1-14.8 59.2-14.8L198 55v43.8l-11.3 7.4H175h0-11.8L152 98.7V55L61.3 90.8l61.7 12.7.2 16.1 19.5 6.2H175z"/><path fill="#fff" stroke="#000" stroke-width="6" stroke-linecap="square" stroke-linejoin="bevel" stroke-miterlimit="10" d="M175 303.8l7.9-14.6 8.1-53.8-7.5-85.2V93h-17v57.3l-7.5 85.2 8.1 53.8 7.9 14.6z"/><circle cx="175" cy="92.2" r="10.3" fill="#fff" stroke="#000" stroke-width="6" stroke-miterlimit="10"/><circle cx="175" cy="179" r="62.8" fill="#fff" stroke="#000" stroke-width="6" stroke-miterlimit="10"/><circle cx="175" cy="179" r="53"/><path d="M186.7 216.8v-28h25.8v-19.6H186l-.1-28H164v28h-26.6v19.6h25.9v28h23.3z" fill="#fff"/></g></g></switch></svg>