<svg xmlns="http://www.w3.org/2000/svg" viewBox="0 0 350 350"><switch><g><path fill="#fff" d="M60 60h230v230H60z"/><path d="M69 69h212v212H69z"/><path fill="#1b3652" d="M248 79H102l-23 9v183h192V90z"/><radialGradient id="a" cx="175" cy="175" r="96" gradientTransform="matrix(0 -1 1.5 0 -87 350)" gradientUnits="userSpaceOnUse"><stop offset=".6" stop-color="#4fa0e2"/><stop offset="1" stop-color="#3a6082" stop-opacity="0"/></radialGradient><path fill="url(#a)" d="M79 79h192v192H79z" opacity=".6"/><path d="M73 78c-2 1 2 4 1 13-3 24 0 47 0 47l4 2c3 1 9-12 16-20 3-5 6-3 10-8 8-8 12-7 16-10 6-6 15-17 13-21-4-6-20 0-43-1-7-1-12-5-17-2zm-2 136l-3-3c0-2 0-3 2-5 5-3 9 0 19-1 13-1 17-8 22-4 4 2 6 9 4 13-3 5-11 4-14 11l-1 4c-2 4-4 5-10 11l-8 7c0 1 3-2 4-1s-2 6-2 6c0 1 3-7 10-8l3-1c4-1 5-5 10-11 4-5 5-4 8-9l5-8v13l4 1c1 1-2 3-5 7-1 2-4 7-3 9s5-1 9 2l2 3c2 5-15 14-14 16h4l4-2h3v5l1 4c1 1 2 2 4 1l1-4c1-4 5-7 8-10l2-1 6-4a60 60 0 004-4l4-6 7-7c2 0 0 1-2 5-1 3-3 5-7 9l-10 7a34 34 0 00-8 9c-2 5 0 7-1 9-4 4-15-6-31-5-13 0-18 8-24 4-3-2-3-6-4-14l-1-29c0-10 1-16-1-16a2 2 0 01-1-1v-3z"/><path fill="#060809" d="M141 236c-1-1-2 0-2 1v1h2v-2z"/><path d="M67 167c-1-7 12-11 26-31 3-4 7-11 20-20 5-4 7-9 8-13 2-8-2-13 0-16 4-4 19-2 22 5 0 1 1 6-15 25-9 12-12 14-19 21-19 23-19 40-29 41-6 0-12-6-13-12z"/><path fill="#060809" d="M253 89c-3 3 2 8-1 15a21 21 0 01-8 7c-5 4-9 4-10 7l2 4 5-4 3-3 6-3 2-4 6-6 1 5v5l1 2 4-3 5-5h4c2-1 1-5 0-7-2-9-16-13-20-10zm-33 28c0 3 3 6 6 8l3 1v-4c-1-3-4-7-7-7a3 3 0 00-2 3zm-80 126c1-2 3-1 3-1l2 1-3 1c-2 1-2 2-3 1l1-2zm57 30l4-7 4-5 3-1-1 3-7 10c-2 2-2 3-3 2v-2z"/><path d="M133 249c1 1 1 3-1 4-1 2-3 3-4 2l5-6zm21 17c1 0 1 5-2 7-2 2-4 1-5 1l7-8zm122-51c-3-3-7-1-13 1-3 1-5 2-6 4-2 1-2 3-2 4-2 5-6 7-14 13-9 7-13 12-14 11l3-6-9 10c-11 14-17 21-16 23 1 1 3 2 9 1l66 1v-55c-1-5-3-7-4-7zm-6 32l-2 2c-5 3-8 7-11 11l-9 9h-3a23 23 0 006-6l4-5 4-2 4-4c1-2 3-5 7-7v2z"/><path fill="#fff" stroke="#000" stroke-miterlimit="10" stroke-width="6" d="M50 141h250v74H50zm125-15h32l20-7v-15l59-14-88-35v44l-11 7h-12 0-12l-11-7V55L61 91l62 12v17l20 6h32z"/><path fill="#fff" stroke="#000" stroke-linecap="square" stroke-linejoin="bevel" stroke-miterlimit="10" stroke-width="6" d="M175 304l8-15 8-54-7-85V93h-17v57l-8 86 8 53 8 15z"/><circle cx="175" cy="92.2" r="10.3" fill="#fff" stroke="#000" stroke-miterlimit="10" stroke-width="6"/><circle cx="175" cy="179" r="62.8" fill="#fff" stroke="#000" stroke-miterlimit="10" stroke-width="6"/><circle cx="175" cy="179" r="53"/><path fill="#fff" d="M187 217v-28h25v-20h-26v-28h-22v28h-27v20h26v28h24z"/></g></switch></svg>