<svg xmlns="http://www.w3.org/2000/svg" viewBox="0 0 350 350"><switch><g><path fill="#fff" d="M60 60h230v230H60z"/><path d="M70 71h210v210H70z"/><path fill="#c5cfd1" d="M80 80h190v190H80z"/><path fill="#fff" d="M91 249l-25 27v-14zm7 8l-20 28h12l8-28zm147 5l12 22h13l-25-22zm15-9l25 20v-15zM81 207a31 31 0 000 7c1 26 35 42 42 45l10 26 20-18a379 379 0 0045 0l21 18 10-26a63 63 0 0041-52H81z"/><path d="M26 140c-3-23 19-45 20-47 6-5 11-11 21-14 18-6 34 1 38 3a106 106 0 0139-22c39-12 73 3 81 7a119 119 0 0126 17 55 55 0 0136-4c33 10 50 55 41 68 0 1-2 4-4 4-6 1-10-14-22-19-4-2-10-3-19 0 1 6 13 51-15 90-30 40-79 41-92 41-14 0-59 1-90-35-35-42-20-96-19-101-5-1-9 0-12 1-5 3-6 6-14 14-7 6-9 6-10 6-4-1-4-7-5-9z"/><path fill="#fff" d="M79 88c6-1 11 1 11 1 13 3 19 14 25 12 3-1 4-3 4-4 2-4-1-10-2-10a111 111 0 01122 3 9 9 0 00-3 9c1 3 4 6 8 6 2-2 18-18 39-14 14 2 23 13 28 19a67 67 0 0114 34l-3 2c-5 0-7-10-16-16-6-3-12-2-17-2a37 37 0 00-20 9c3 7 7 18 7 33 0 0 0 28-18 51-33 42-121 48-160 7-9-9-23-29-25-56a87 87 0 017-38c-1-2-7-10-17-10-1 0-10 0-15 5l-8 8-4 4-4 1c-5-4 19-53 47-54z"/><path d="M264 90c1 0 13 4 17 16 6 15-4 28-5 28a12 12 0 003 0c7-4 8-14 9-16 1-10-5-22-17-30l-7 2zm29 3c10 8 14 19 10 28 0 2-2 5-6 8l5 1a29 29 0 007-27l-16-10zm26 26a18 18 0 01-6 20l2 3c2-2 8-7 9-13 0-5-4-9-5-10zm-286 5c0 1-1 6 3 10 3 3 7 3 8 3l3-4c-1 0-5 0-7-2s-2-5-2-9l2-8-7 10zm30-33c-10 8-14 20-10 28 1 2 3 5 7 7l-6 2a24 24 0 01-4-6 27 27 0 01-3-18l16-13zm20-6a39 39 0 00-8 9 33 33 0 00-6 19 32 32 0 008 20c-1-1-8-15-1-30a33 33 0 0117-15l-10-3z"/><path fill="#c5cfd1" d="M121 109a395 395 0 0149-39 110 110 0 00-27 5 85 85 0 00-12 14 85 85 0 00-10 20zm29 13a217 217 0 0133-52 109 109 0 0126 5 960 960 0 00-59 47zm30 16a183 183 0 0113-25 183 183 0 0127-33 109 109 0 0119 10 9 9 0 00-4 6 1333 1333 0 00-54 42z"/><path fill="#020202" d="M122 235a24 24 0 0014 7c19 3 61 4 77 0l12-4a63 63 0 004-2 16 16 0 01-4 9l-8 26-21-20a152 152 0 01-42 0l-20 20-7-25a23 23 0 01-4-7 23 23 0 01-1-4z"/><path fill="#fcfcfc" d="M133 247l14 4-11 14-3-18zm71 3l13-4-2 18z"/><path fill="#c5cfd1" d="M270 165a84 84 0 01-6 1c-14 2-23-1-30-2-13-1-33 6-39 21s2 36 19 44c20 9 43-4 46-16 1-5-1-8 2-15 2-7 5-8 8-13 2-4 3-11 0-20z"/><path fill="#fff" d="M210 187a28 28 0 003 21 29 29 0 0021 12 27 27 0 0019-6c8-8 10-19 6-30l-49 3z"/><path d="M269 181l-4-1a66 66 0 01-4 0 4 4 0 00-4-2 4 4 0 00-3 3l-40 3c0-1-1-2-3-2h-2l-1 1c-2 2-5 0-6 1v3h3a70 70 0 012 0 29 29 0 002 19 29 29 0 0044 10c8-7 12-19 10-31h3l4-2-1-2zm-13 25a24 24 0 01-21 14c-1 0-12 0-19-9-8-11-3-23-2-24l42-1c0 1 4 10 0 20z"/><path fill="#c5cfd1" d="M81 165l5 1c17 1 24-3 34-3 11 1 25 6 32 17a38 38 0 016 24 44 44 0 01-27 25c-16 5-37-1-40-12-2-6 2-10-1-18-2-6-5-7-8-12-2-5-4-11-2-22z"/><path fill="#fff" d="M97 184l45 1c1 1 6 13-1 24a24 24 0 01-22 11c-10 0-20-6-23-16-4-9 0-18 1-20z"/><path d="M150 186c0-1-1-2-4-2a5 5 0 00-1-2c0-1-1-2-3-2l-3 3-41-2-2-2-2 1-10-1-2 1v2c0 2 4 3 9 3a31 31 0 003 24s9 15 25 14c1 1 17 0 25-13 6-10 3-21 2-23 3 0 4-1 4-2zm-13 23c0 1-7 9-17 10a24 24 0 01-24-21l2-12 43 1c0 1 4 12-4 22z"/><path fill="#000505" d="M290 184c-2-25-31-41-51-40-4 0-38 2-50 26l-4 12h-20c0-5-2-9-3-12-12-24-47-26-50-26-27-1-48 18-51 40-3 25 21 52 52 51a50 50 0 0040-15 48 48 0 0013-31h19c0 3 1 22 17 35a51 51 0 0041 10c29-2 49-27 47-50zm-132 9c0 19-17 30-20 32a49 49 0 01-51 1c-12-7-28-23-24-43 3-19 22-28 24-29s31-12 54 6c3 2 18 14 17 33zm123 16a48 48 0 01-24 21c-9 3-16 2-21 2a48 48 0 01-27-9c-11-8-18-23-16-38a40 40 0 0115-23c22-18 63-13 76 8a34 34 0 015 18c-1 5-3 13-8 21z"/><path fill="#fff" d="M76 171a26 26 0 00-4 4c-9 11-5 28-4 32a37 37 0 01-5-26c3-14 13-21 15-22l-2 12zm205 39a36 36 0 00-2-46l-9-6a91 91 0 019 15l4 12c1 5 2 13-2 25z"/><path fill="#020202" d="M162 235l13-14 12 14z"/></g></switch></svg>