<svg xmlns="http://www.w3.org/2000/svg" viewBox="0 0 350 350"><switch><g><path fill="#fff" d="M60 60h230v230H60z"/><path d="M70 70.5h210v210H70z"/><path fill="#c5cfd1" d="M80 80h190v190H80z"/><path d="M90.5 249.3l-24.7 26.5v-13.5zm7.3 7.5L78.2 285h11.6l8-28.2zm147 4.9l11.7 22.8H270l-25.2-22.8zm15.5-8.9l24.4 20.4v-15zM81 207.3a31 31 0 00-.4 6.4c1.3 26.1 35.7 42.5 42 45.4l10.7 25.9 19.7-18a379.4 379.4 0 0045 0l20.8 18 9.8-26.5a63.2 63.2 0 0041.4-51.3H81z" fill="#fff"/><path d="M26.3 139.5C23 116.8 44.6 94.5 46 93.2c5.6-5.5 11.4-11.4 21.3-14.7 17.6-6 33.5 1.1 38 3.3A106 106 0 01143.8 60c39-12.1 72.7 3.1 81.4 7.3A118.7 118.7 0 01251 83.8a55 55 0 0135.8-3.3c33 9.2 49.7 54 41.4 67.8-.6 1-2 3.3-4.2 3.7-6.4 1.2-10.3-13.7-22.5-19-3.9-1.7-10-3-19-.5 1.7 6.3 13.4 51.7-15 90.5-29.5 40.2-78.3 40.8-91.6 41-13.5.2-58.9.8-89.7-35.5-35.4-41.8-20.3-95.9-19-100.3-5.6-1-9.5 0-12 1-5.2 2.4-6 6.3-14.5 13.8-7 6.3-9.1 6-10 5.8-3.3-1.1-4.2-7.2-4.4-9.3z"/><path d="M78.8 87.8c6-.4 11 1 11 1 13.5 3.6 19 14.7 25.5 12.5 2.5-1 3.7-3.6 4-4 2-4.7-1.7-9.8-2-10.3 8.4-5.3 29.7-17 59.2-16.8 31.8.3 54.2 14.2 62.3 19.8a8.5 8.5 0 00-3 8.8c1 3.6 4.4 6.3 8.4 6.2 1.8-1.9 18-18.2 38.8-14.5 14.3 2.6 22.7 13.3 27.8 19.8a67.2 67.2 0 0113.7 33.5c-.5.7-1.5 1.8-2.8 2-4.5.6-6.4-10.3-15.7-15.6-6-3.4-12.4-2.7-16.8-2.2a37.3 37.3 0 00-20 8.8c3.1 6.9 7.1 18.4 7 33 0 0 0 27.7-18 51-32.8 42.6-120.8 48.5-160.5 7-8.6-9.1-22.9-28.8-24.5-55.8a87 87 0 016.8-38.5c-.9-1.2-7.2-9.3-17.4-9.6-.7 0-9.3-.2-15 5.3-5 5-7.4 8.2-7.4 8.2-.6.9-1.8 2.6-4 3.6-1.2.6-3.7 1.4-4.5.8-4.5-4 19-52.7 47-54z" fill="#fff"/><path d="M263.5 89.7c1.6.5 13 4.5 17.7 16.6 5.6 14.8-4.4 27.5-4.9 28a12 12 0 002.2-.8c7.1-3.6 8.6-13.3 9-15.7 1.6-10-5-21.7-16.5-30l-7.5 1.9zm29.8 2.8c9.4 8.3 13.4 19.5 10 28.4-.6 2-2.2 5-6 8.1l4.9 1.3a28.9 28.9 0 007.3-27.8l-16.2-10zm25.2 26.5a18.3 18.3 0 01-6 19.8c1 1.8 2 3.4 2.6 3.2.2 0 .2-.1.2-.2 1.3-2 8-6.4 8.2-12.8.2-5-3.6-8.8-5-10zm-285.7 5.3c0 .7-.5 5.5 3 9.4 3.2 3.3 7.2 3.6 8 3.6l3.2-3.8c-1.5 0-4.9 0-7-2.3-2-2.3-1.9-5.5-1.7-9.5.2-3.2.8-5.7 1.4-7.4l-6.9 10zM63 91.2c-9.7 8.2-13.6 19.5-10 27.6.8 1.8 2.5 4.7 6.5 7.4l-5.2 1.5a24.2 24.2 0 01-4.5-5.7 26.9 26.9 0 01-2.6-18.3L63 91.2zM82.8 85a39.2 39.2 0 00-8.1 9.2 33 33 0 00-6 18.6 31.6 31.6 0 008.3 20.4c-.8-1.5-8-15.7-.7-30.2a32.8 32.8 0 0117-15.3L82.8 85z"/><path d="M121.1 108.6a395.3 395.3 0 0149.4-38.2 110 110 0 00-27.7 4.9A85.2 85.2 0 00131 89.2a85.3 85.3 0 00-9.9 19.4zm29.2 13.6a216.8 216.8 0 0132.8-51.7 109 109 0 0126 5 960.1 960.1 0 00-58.8 46.7zm30.2 15.5a182.7 182.7 0 0112.7-24.2 183.4 183.4 0 0127.1-33.8A109.4 109.4 0 01238.7 90a8.8 8.8 0 00-3.2 5.8 1332.5 1332.5 0 00-55 41.9z" fill="#c5cfd1"/><path d="M121.5 234.8a24 24 0 0014.8 7.2c18.9 2.7 60.4 4.3 76.9 0 6.1-1.6 11.3-4 11.3-4a62.7 62.7 0 004.8-2.5 15.8 15.8 0 01-4.7 9.3l-7.6 26.4-21.2-20a151.6 151.6 0 01-41.6-.2l-20 20.3-7.1-25.8a23.4 23.4 0 01-4.1-6.2 23.3 23.3 0 01-1.5-4.5z" fill="#020202"/><path d="M132.8 246.8l14 4.5-11.1 14-2.9-18.5zm70.8 3.3l13.8-4.6-2.2 18.5z" fill="#fcfcfc"/><path d="M270.3 165a83.8 83.8 0 01-6.4 1c-14.3 1.6-23.2-1-29.5-1.6-13.4-1.2-33.1 6-39.2 20.6-6 14.6 1.8 35.9 19 43.7 19.8 9 43.1-4.1 46-15.7 1.2-4.7-1.1-8.2 1.6-15.5 2.3-6.4 5.5-7.5 8-13 1.7-4 3-10.1.5-19.5z" fill="#c5cfd1"/><path d="M209.7 186.6a28 28 0 003.1 21 28.7 28.7 0 0021.2 12.9 27 27 0 0018.9-6.8c7.7-7.2 10.1-19 6.1-30l-49.3 2.9z" fill="#fff"/><path d="M268.8 181c-.8-.7-1.7-.7-3.8-.7a66 66 0 01-4.4-.2 3.7 3.7 0 00-3.4-1.8 3.7 3.7 0 00-3.2 2.4l-39.7 2.8c0-.2-1.2-2-3.1-2-1.3-.1-2.3.6-2.6.8-.6.3-.7.6-1 .9-2 1.7-4.9-.1-5.9 1.2-.5.7-.2 2 .4 2.6.4.3.8.2 2.5.2a69.8 69.8 0 012.3 0 29 29 0 002 19.1 29.1 29.1 0 0043.9 9.7c8.6-7 12.3-19 9.8-30.8l3.1-.6c3.1-.7 3.7-1 3.9-1.5.2-.7-.3-1.6-.8-2.1zm-12.6 24.7a24.4 24.4 0 01-21.3 14.1c-1.2 0-12-.1-18.7-9.2-7.8-10.4-2.8-22.6-2.6-23.1l42-1.6c.7 1.4 4.7 10.3.6 19.8z"/><path d="M80.6 165l5.9.8c16.8 1.5 23.2-2.7 33.5-2.6 11 .3 24.6 5.6 32.2 16.6a38 38 0 016 24 44.4 44.4 0 01-26.8 25.5c-16.5 4.8-37-1.7-40.4-12-2-6 2.5-10-.5-18.6-2-5.9-5.2-6.5-8-12.1-2.3-4.3-4.1-11-2-21.6z" fill="#c5cfd1"/><path d="M96.8 184.2l45.5 1c.4.7 5.7 12.4-1.3 23.5a24.3 24.3 0 01-21.8 11.1c-10.6-.1-19.9-6.2-23.5-15.3-4-9.8.4-18.8 1.1-20.3z" fill="#fff"/><path d="M150.2 185.5c0-.8-1.6-1.9-4-2a5.3 5.3 0 00-1-2c-.3-.3-1.3-1.5-2.8-1.6-1.4 0-2.8 1-3.4 2.6l-40.6-2c0-.1-.9-1.3-2.4-1.4-1.3-.1-2.2.6-2.3.8-.6-.1-7.3-1.4-9.9-.6-.3.2-1.1.4-1.5 1.1 0 0-.5.8-.2 2 .4 1.6 4 2.7 8.8 3a31.2 31.2 0 002.8 23.2c.5.8 9 15 25.4 14.9.7 0 16.8-.3 24.7-14 5.8-10 3.1-20.3 2.5-22.3 2.3 0 3.8-1 3.9-1.7zm-12.8 23.4c-.8 1-7.1 9.5-17.7 9.7a24 24 0 01-23.3-21c-.5-4.8 1-8.7 2.1-11.2l42.4.5c.3 1.2 3.7 12.2-3.5 22z"/><g><path d="M289.8 184.3c-2.3-25.7-30.5-41.7-51-40.6-4.2.3-38.1 2.7-50 26.4-1.5 3-2.9 6.8-3.5 11.4H165c-.5-5-1.8-9-3.3-12-11.4-24-46.8-25.6-50-25.8-26.5-.7-48 18.4-50.5 40.3-2.7 25.4 20.6 52 52 50.8a50 50 0 0040.3-14.8 47.9 47.9 0 0012.3-30.8h18.7c.2 3.2 1.6 21.4 17.3 34.6a50.9 50.9 0 0041 10.4c29-2.6 49-26.8 47-50zm-131.6 8.4c-.7 19.4-17.5 30.3-20.5 32.3a49.2 49.2 0 01-51.2 1c-11.9-7-27.2-23.1-23.7-43.2 3.4-19.3 21.8-28.3 23.9-29.3 2.1-.8 31.6-11.5 54 6 3 2.5 18 14.4 17.5 33.2zm123.1 16.5a47.6 47.6 0 01-24.6 20.5c-8.4 2.8-15.4 2.3-20.5 2a48.2 48.2 0 01-27.1-8.3c-10.7-8-18.5-23-15.8-38.2a39.8 39.8 0 0114.9-23.5c22-17.4 62.9-12.8 75.8 8.8a34 34 0 014.5 17.7c-.6 5-2.2 12.9-7.2 21z" fill="#000505"/><path d="M76.3 171a26.1 26.1 0 00-3.8 3.8c-9.4 11.6-6 27.8-4.9 32.4a36.5 36.5 0 01-4.5-26.1c3-13.8 13-20.9 15-22.3L76.4 171zm205 38.5c1.7-2.3 7.9-11 7.1-23.7-.7-12.2-7.5-20-9.5-22.2l-8.6-5.8A91.4 91.4 0 01279 173c1.6 3.6 3.4 7.6 4.4 12.3 1 4.2 2 12.8-2 24.2z" fill="#fff"/></g><path fill="#020202" d="M161.8 235l13.2-14.5 12.2 14.5z"/></g></switch></svg>