<svg xmlns="http://www.w3.org/2000/svg" viewBox="0 0 350 350"><switch><g><path fill="#fff" d="M70 70h211v135l9 6V60H60v152l10-6z"/><path d="M70 70v136l9-6V79h192v120l10 6V70z"/><path fill="#9a273f" d="M234 176l37 23V79H79v121l38-24a62 62 0 0059 42 62 62 0 0058-42zm-59-37l-96 61"/><radialGradient id="a" cx="175" cy="148.7" r="83.9" gradientTransform="matrix(0 -1 1.25 0 -11 324)" gradientUnits="userSpaceOnUse"><stop offset=".2" stop-color="#cc4d3d"/><stop offset="1" stop-color="#fff" stop-opacity="0"/></radialGradient><path fill="url(#a)" d="M271 199V79H79v121l38-24a63 63 0 0064 42 63 63 0 0053-42l37 23z"/><path fill="#050708" d="M70 247l-19 19c7 7 52 54 124 54s117-47 124-54l-18-19c-6 7-44 47-105 47a147 147 0 01-106-47z"/><g fill="#fff"><path d="M193 310l2 1 11-1 8-1a34 34 0 004-2l-6 1-10 1-4 1a38 38 0 01-5 0z"/><path d="M281 263l-12 9 5-5 1-1-7 6a47 47 0 01-7 5l-2 2-2 2-11 6-11 5c-5 3-12 6-19 7l-7 2-7 2h-3l-2-1h-4l-5 1-15 1h-2v1l-5-1-7-1-10-1-2-2 5-1-7-1a96 96 0 01-20-6l4 4c0 1-3 1-6-1a131 131 0 01-23-9 132 132 0 01-31-22l-1 1 5 5a40 40 0 002 3l6 4 6 6 5 3a41 41 0 0011 7l2 1c1 2 3 2 6 3l17 7 11 3 4 1c5 2 8 2 16 3h4l-5-1h9l8 1h-4l-5 1-4 1a209 209 0 0030-1h-7a16 16 0 00-2 0h-8l5-1h9l-1-1h-4 4l2-1h-1 10l4-2h5l7-1a126 126 0 0025-9l-8 2-7 3-4 1-5 2h-7 2l3-1 5-2 4-1 8-2 13-6 7-3 10-6 5-3v1l3-2 6-5h-2l2-1 3-1 1-2 2-2a24 24 0 013-3l-3-3zm-90 45h-1a3 3 0 01-1 0h1v-1l4 1h-3zm74-28l-2 1v0l1-1 2-1-1 1z"/></g><path fill="#050708" d="M91 226l-19 18a143 143 0 00104 46c59 0 96-39 102-45l-19-19a116 116 0 01-83 38c-50 1-81-33-85-38z"/><path fill="#9a273f" d="M93 254v-1h-1l-1-2-1-1-1 1 1 1 3 2zm176-9l-8-8-1 2c0-2-3 1-3 1l-4 3-3 3-6 4 6-4 6-7a239 239 0 01-21 16c1 1-5 4-5 4l3-3-4 2-3 3-4 1 2-1-7 3 2-1-2 1-4 2 2-2c-3 1-5 3-8 3l-3 1h-3l-3 1a6 6 0 01-3 0h-2l-3 2-2-1a6 6 0 00-4 1h-6l-1 1h-2a150 150 0 01-13-1l-16-2-5-2-6-1-12-5a162 162 0 01-11-7l-11-8a245 245 0 01-9-7l-1-1h-1l-2 2-4 4 3 2 3 3 5 4 3 3h1l2 2 3 1 3 2 7 5a165 165 0 009 4 126 126 0 0010 3l8 3 4-1c1 0 2 2 3 1l-3-1 30 4h-13l-4 1-5-1-11-1 13 2a127 127 0 01-20-3 128 128 0 0026 6l15 1 1-1v-1h-2c-1-1 1-2 2-2l10-4-1 2h3a73 73 0 007-1l11-2 12-3c4 0 7-2 10-4l4-1 1-2 2-1 5-2c1-2 2-1 4-2a34 34 0 009-5l4-4 2-1 3-2a14 14 0 002-2l1-1c0-1 0-1 0 0v2a99 99 0 003-2zm-46 25a9 9 0 00-1 0 2 2 0 012-1 9 9 0 00-1 1zm17-17a4 4 0 01-2 1 12 12 0 004-3 4 4 0 01-2 2zm4 10l-2 1a6 6 0 01-3 2l-5 3-6 3-13 4-17 5c9-1 17-4 26-7a137 137 0 0011-5l9-6zm-124 7h-2 2z"/><path fill="#9a273f" d="M193 282l-4-1-5 2h-3l-1-1c-3 0 1 1 0 1a124 124 0 0010 0c1 0 4 0 3-1zm66-30a77 77 0 01-14 9l-8 4-1 1h1l4-2 3-2h2l4-2c-1-1 1-2 2-2l3-3 7-4-3 1z"/><path fill="#050708" d="M94 223c4 5 34 38 83 37 47-1 75-31 80-37l-19-18a86 86 0 01-62 29 86 86 0 01-64-29l-18 18z"/><path fill="#9a273f" d="M227 238l-4 1-7 3h-3l5-3c5-2 12-7 23-16l-3-2a92 92 0 01-15 13l-15 7-4 1h-2l-3 1-6 1-6 1-5-1a44 44 0 00-4 0l-4 1a69 69 0 01-43-11l-6-4a215 215 0 01-13-9l-1 2a3592 3592 0 0014 11c4 2 7 6 12 8l3 3-6-1 8 3 5 1 7 3 7 1a104 104 0 0014 1l2-1 1-1 2-1 8-1 6-1 7-1-2 1-2 2h-2l-7 1-6 1h-1l-2 1a99 99 0 0053-17l-5 2z"/><path fill="#050708" d="M83 91l1-4c1-3 3-3 5-4 3-1 4-4 6-6a337 337 0 018-8c8-8 16-18 26-24 6-3 13-1 18 3l7 7 1 1 2-1 3-2 15-1c4 0 10-1 15 1 1 0 4 3 5 2 2 0 3-2 4-3l5-4c4-4 8-7 15-6 3 1 6 3 8 6l23 22c8 8 16 19 9 30-1 3-4 5-6 7l-5 4 1 3 1 13v13c0 4-2 7-1 10 0 3 6 7 8 9a38 38 0 00-2-4l-2-3 2 1 5 7 2 1v3l1 9c0 2 0 6-2 9-2 4-5 6-10 9-4 2-9 7-14 14-4 5-3 7-6 9a21 21 0 01-14 5v1l3 1 3 3a25 25 0 01-20-4c-2-2-5-5-7-5l-9 1 9-3-4-4h-4c-2-2 1-2 1-3h-15v1l1 1h-2-1v-2c-1-1-3 0-4 1 4 4-6 3-8 3h-3l-2 2a36 36 0 01-6 5c-3 2-10 7-17 5-3 0-5-2-9-4a54 54 0 01-10-10l-15-10a51 51 0 01-12-16c-2-5-5-10-3-16l4-9 7-8v-4l-1-4v-5c1 0 2-3 3-2 1 0 0 3 1 1l2-4 1-5c0-2-2-2-3-4l1-3c0-2 0-3-2-5 0 0-5-6-3-7l1 1-6-10a51 51 0 01-2-5l-1-4h-1l-1 2z"/><path fill="#fff" d="M114 152l-4-4v-31c0-1 0-3 2-4a9 9 0 012-2l-14-15a9 9 0 01-2-6l1-5 30-29c0-1 2-3 5-3l6 2 15 15a8 8 0 012-3 8 8 0 014-1h28a8 8 0 014 1 8 8 0 013 3 113 113 0 0013-13c0-1 3-4 8-4a9 9 0 016 3l27 28a9 9 0 012 5c1 4-1 7-2 7l-14 14a7 7 0 013 3 7 7 0 011 4l1 27c0 1 0 3-2 5a8 8 0 01-3 3l15 14c0 1 3 4 2 8a8 8 0 01-3 4l-29 29a9 9 0 01-6 1 9 9 0 01-6-3l-13-13a6 6 0 01-2 3l-4 1-29 1a11 11 0 01-4-3 11 11 0 01-2-2l-15 14-6 2a10 10 0 01-7-3l-27-28-2-6a9 9 0 012-6l14-13z"/><path fill="#050708" d="M160 116h30v30h-30zm-26-16c-4 0-9-4-9-9 0-6 5-10 10-10 4 0 9 4 9 8a7 7 0 010 3l8 10a21 21 0 004-11 21 21 0 10-10 17l-10-8a8 8 0 01-2 0zm72-9c1-4 4-10 10-10 5 0 9 5 9 10 0 4-4 9-8 9a7 7 0 01-3 0l-10 8a21 21 0 0012 4 21 21 0 10-18-10l9-10a8 8 0 01-1-2zm10 71c4 1 10 4 9 10 0 5-5 9-9 9-5 0-9-4-10-8a7 7 0 011-3l-9-10a21 21 0 00-3 12 21 21 0 1021-22 21 21 0 00-12 4l10 9a8 8 0 012-1zm-72 10c0 4-4 9-9 9-6 0-10-5-9-10 0-4 3-8 7-9a7 7 0 013 1l10-9a21 21 0 00-11-4 21 21 0 1018 10l-9 10a8 8 0 010 2zm97 38l2-3 1 1c4 0 7-4 7-4l2-5c0-2 2-5 5-7a18 18 0 00-7 3l-5 4a673 673 0 01-7 9l2 2z"/></g></switch></svg>