<svg xmlns="http://www.w3.org/2000/svg" viewBox="0 0 350 350"><switch><g><path fill="#fff" d="M69.5 69.5h211v135.6l9.5 6V60H60v151.8l9.5-6z"/><path d="M69.5 69.5v136.2l9.5-6V79h192v120l9.5 6V69.6z"/><path d="M233.9 175.6l37.1 23.5V79H79v120.7l37.9-24a61.7 61.7 0 0059.4 42.7 61.7 61.7 0 0057.6-42.8zm-58.7-37l-96.2 61" fill="#9a273f"/><radialGradient id="a" cx="175" cy="148.7" r="83.9" gradientTransform="matrix(0 -1 1.25 0 -10.9 323.7)" gradientUnits="userSpaceOnUse"><stop offset=".2" stop-color="#cc4d3d"/><stop offset="1" stop-color="#fff" stop-opacity="0"/></radialGradient><path d="M271 199V79H79v120.7l37.9-24a63.1 63.1 0 0064.4 42.5 62.6 62.6 0 0052.6-42.6l37.1 23.5z" fill="url(#a)"/><path d="M69.5 247.4l-18.2 18.1c7.1 7.7 51.6 54.1 123.8 54.1 72.3 0 116.8-46.4 124-54l-18.3-18.2c-6 6.5-43.4 46.3-104.7 46.7a147 147 0 01-106.6-46.7z" fill="#050708"/><g fill="#fff"><path d="M192.7 310.2l2 .4c3.7.5 5.5-.2 11-1 4.5-.5 5.2-.3 8-1a33.9 33.9 0 004.6-1.6l-6.6 1.2c-4.5.6-5.6.4-9.8 1.2l-3.6.6a38 38 0 01-5.6.2z"/><path d="M280.9 262.6c-9.3 7.5-12.2 9.7-12.3 9.6 0 0 2.2-2 5-5.3l1.2-1.4-6.3 6.3a46.7 46.7 0 01-7 5.4c-.2.2-1.5 1-2.9 2.2l-1.3 1.2c-2.7 2.8-11.2 6.4-11.2 6.4-5.5 2.3-3.8 2.2-10.6 5.3-5.9 2.7-12.5 5.7-19.7 7-2 .4-3.9.7-7 1.5-2.2.6-4.5.8-6.6 1.7-.7.3-1.9.8-3.4.6-.8-.2-1-.5-2-.7-1.3-.3-2.4-.1-3.5 0-1.8.4-3.6.4-5.5.7-.3 0-9.2 1.3-14.5.5-.3 0-2.2-.3-2.4.2-.1.3.4.7.3.9-.2.6-3.6-.3-5.3-.7-3.5-.8-5.3-1.3-7.2-1.5-4.5-.4-6.4.8-9.9-.7-.3-.2-2-.9-1.8-1.4.1-1 4.9-.6 5-1.1 0-.5-5.9-1.5-7-1.6a95.8 95.8 0 01-19.6-5.5c2.5 1.8 4 3.5 3.6 4.1-.3.7-2.7.3-5.6-.9a131.4 131.4 0 01-23.2-9.4 132 132 0 01-30.7-22.3l-1.3 1.2c3.7 3 5.3 4.7 5 5.3l-.6.2a39.6 39.6 0 002.8 2.7c3 2.4 3.9 2.4 6.1 4.2 3 2.4 2.5 3.3 5.8 6 1 .9 2.1 1.6 4.5 3.1 4.5 3 6.8 4.5 9 5.2.4 0 1.3.3 2.3 1 1.2.7 1.9 1.5 2.2 1.8 1.2 1.3 2.6 1.9 5.3 2.9 10.3 3.8 15.4 5.7 17.7 6.3 3.7 1 6.1 1.6 10.7 3.2l4.4 1.6c4.4 1.4 8 1.8 15.2 2.4 1.1 0 4.8.4 4.9.2 0-.2-5.2-.9-5.2-1 0-.2 3.2 0 8.6.4 5.7.3 8.5.3 8.5.5s-3 .4-4.5.6c-2.4.2-3 0-4.5.3-1.1 0-2.8.3-4.8.9a208.6 208.6 0 0030.1-.7c0-.2-1.3-.2-6.2-.5a16 16 0 00-2.4 0l-1 .1-1.2.3c-1.3.4-6.1.4-6.1 0 0-.3 2.6-.8 5-.9 2.4 0 3 .3 5.7.1 2-.1 4-.4 4-.6 0-.2-1.7-.3-1.8-.3-1.4-.1-2 .1-3.1-.2l-1-.4c0-.2.8-.3 4.9 0 .9 0 1.2-.1 1.2-.2l-1-.3c0-.2 2.6.2 5.7 0 .4 0 2.2-.1 4.3-.6 2-.4 2.3-.7 4-1.1 1.1-.3 2.3-.5 5-.7 4.3-.4 5.8-.3 7.7-.5a126.1 126.1 0 0024.2-9.5l-7.7 2.6-7.2 2.5-3.3 1c-4 1.3-4 1.6-5.5 2-3.6 1-6.6.7-6.7.6 0 0 1 0 2.3-.5 1-.3 1.8-.7 2.4-1 2-1.1 3.8-1.6 5.3-2 2-.4 2.6-.3 4.2-.6 2.8-.5 4.5-1.4 7.4-2.8 6-2.7 5.4-1.8 13-5.2 3.8-1.7 5.6-2.5 7.5-3.6 2-1 4.5-2.7 9.6-6 .9-.5 5.2-3.3 5.6-2.8v.7c.4.3 2-1 2.7-1.6 4.3-3.3 6.2-4.6 6-4.8-.1-.3-1.6.5-1.7.3-.1-.2.7-1 1.8-1.5 1.5-.7 2.2-.4 3-1.2.4-.4.3-.6.7-1.5.4-1 1-1.6 2-2.7a23.8 23.8 0 013.3-3l-3.4-3zM190.7 308l-1 .2a2.6 2.6 0 01-.9-.2h-.2c0-.1.7 0 1.5-.3l.4-.2c1-.6 3.3-.2 3.3 0 0 .1-1.8 0-3.1.5zm74.6-27.9c-.4.4-.6.4-1.9 1.2l-.7.4s0-.3.2-.4c.4-.6 1-1 1-1 1.3-.7 1.8-1.5 2-1.4.1.1-.2.8-.6 1.2z"/></g><path d="M90.6 226.2l-18.3 18.3A143 143 0 00176.2 290c59.3-.5 95.7-38.9 101.5-45.3l-18.4-18.4a116.3 116.3 0 01-83 37.7c-50.3.6-81.2-32.7-85.7-37.8z" fill="#050708"/><path d="M92.9 253.9c-.7-.5 0-.4 0-.7 0-.4-.3-.5-.5-.7l-1.5-1.2c-.3-.3-.8-1.2-1.3-1.3-.4-.1-.5 0-.6.5-.1.5-.3 0 .2.6l.7.6c1 .8 2 1.6 3 2.2zm175.6-9.3l-7.8-7.5c.3.8 0 1.6-.8 1.8.5-2.4-2.7.6-3.2 1-1.4 1.1-2.5 2-3.5 3.5-.9 1.4-2.3 2-3.6 3-1.8 1-3.5 2.3-5.2 3.6 1.6-2.1 3.8-3 5.8-4.5 2.4-1.8 4-4.2 5.8-6.5a238.6 238.6 0 01-21 15.7c1.3 1-4.6 4.2-4.7 4 .1.2 2.8-2.8 2.9-3-1.3 1-3 1.6-4.1 2.5-1 .9-1.9 1.8-3 2.5-.3.2-4 2-4.3 1.5l2.4-1.5c-2.4 1.1-5 1.9-7.4 2.9.3-.1 2.3-.8 2.3-.2 0 .7-1.5.4-2 .5l-4.6 2c-.2-.3 2.1-1.5 2.3-1.6-2.6 1.1-5.2 2.3-8 3.2-.9.3-1.8.6-2.8.7l-2.8-.2c-1.3 0-2.2 1-3.4 1.3a6.3 6.3 0 01-3 .1c-.9-.2-1.5-.7-2.3-.3-1 .4-1.4 1.4-2.4 1.6-.8 0-1.4-.2-2.1-.4a6.4 6.4 0 00-3.7.2c-1.3.5-2.3 1-3.7.7-.7 0-2-.8-2.6-.3-.2 0 0 .4-.2.5-.2.2-.4.1-.7.2H175a149.8 149.8 0 01-13.2-.5c-5.2-.4-10.5-.9-15.6-2.3-1.7-.4-3.3-1.2-5-1.7-2-.5-4-.5-5.9-1-4.2-1-8.2-3.2-12-5.3a161.6 161.6 0 01-11-6.5c-4-2.6-7.8-5.4-11.6-8.3a244.5 244.5 0 01-9-7.2l-.9-.7-.4.4c-.7.4-1.4 1.3-2 1.8l-4.4 4c.8 1 1.8 1.4 2.8 2 1.1.9 1.9 2 2.9 3 1.7 1.6 4 2.6 5.6 4.2.8.7 1.5 1.7 2.5 2.2l1.2.4c.8.3 1.1.8 1.6 1.5.8 1.2 2 1 3.3 1.5 1.3.5 2.2 1.5 3.2 2.4 2 1.8 4.6 3 7 4.2a164.8 164.8 0 009 4.1 125.8 125.8 0 009.7 3.7c2.5.8 5.2 1.8 7.8 2.2 1.6.3 3 0 4.5-.2 1.3 0 2.1 1.2 3.2 1 2.5-.3-2.8-1.8-2.8-1.7-.1.4 29.6 5.3 29.7 4.7 0 .3-13.1-.6-13.6-.6-1.4.2-2.6 1-4 1-1.7 0-3.4-.3-5-.7-3.7-.7-7.1-1.5-10.8-1.5l13.6 2.6a127 127 0 01-20.3-3.2 128.3 128.3 0 0026 5.7c4.8.5 9.7.8 14.5.8.6 0 1 .1 1.4-.4 0-.3.2-.5 0-.7-.5-.4-1.4.5-1.9-.1-.8-1 1.4-2.3 2-2.6 3-1.8 6.5-2.7 9.8-3.3-.8.4-2.3 1.2-.8 1.5 1.1.2 2.3 0 3.4 0a72.6 72.6 0 006.7-.8c3.7-.6 7.3-1.6 11-2.5 4-1 8-1.7 12.1-2.4 3.5-.7 6.4-2.7 9.6-4 1.3-.5 3-.7 4-1.7.4-.4.6-1 1-1.3.6-.4 1.3-.6 2-.8 1.6-.7 3.6-1 4.7-2.5 1-1.5 2.3-1.4 4-2a34 34 0 009.5-5.3c1.4-1 3.3-1.9 4.4-3.2.7-.8 1-1.2 2-1.5 1-.3 1.8-.8 2.6-1.5a13.7 13.7 0 002-2.2c.2-.4.6-1.4 1-1.6.3-.2.2-.3.3 0 .2.7-.4 2-.6 2.5a99.1 99.1 0 002.8-2.6zm-45.7 25.1a8.7 8.7 0 00-1.2.7 2.4 2.4 0 012.5-1.1 8.8 8.8 0 00-1.3.4zm17.4-16.6a3.9 3.9 0 01-2 .7 12.3 12.3 0 003.3-2.4 3.9 3.9 0 01-1.3 1.7zm3.7 10.3c-.3-.8-2 .7-2.2 1a6 6 0 01-2.7 2c-1.7.7-3.5 1.2-5.2 2.2-2 1-4 2.1-6.1 3-4.3 1.8-8.7 3.3-13.2 4.7-5.6 1.8-11.2 3.6-16.8 5.2 9-1.6 17.6-4.1 26-7.5a136.5 136.5 0 0010.8-5c1-.5 9.7-4.8 9.4-5.6zm-123.8 7c0-.4-1.7-.2-1.8-.2.1.1 1.9 1 1.8.2z" fill="#9a273f"/><path d="M193.1 281.6c-.3-1-3.4-.5-4.2-.4-1.8.2-3.5.8-5.3 1.3-.7.1-1.4.3-2.1.2-.8-.1-1.2-.8-2-.9-2.2-.2 1 1.2.9 1.6a124.4 124.4 0 0010-.8c.5 0 3.1 0 2.7-1zm66.3-30a76.5 76.5 0 01-14.6 9c-2.5 1.3-5.4 2.4-7.6 4.1-.2.2-1.5 1.1-1.3 1.5.2.2 1.3-.3 1.5-.4 1.1-.4 2.3-1 3.3-1.7 1-.8 1.7-1.6 3-2 .9-.2 1.8 0 2.8-.1 1-.2 2.4-1.5 3.3-2-.8-1 1.3-1.9 2-2.2 1.2-.7 2.4-1.7 3.6-2.5 2.3-1.4 4.4-3 6.5-4.6-1 0-1.8.2-2.5.8z" fill="#9a273f"/><path d="M93.9 223.2c4.2 4.8 34.3 37.7 83.3 36.8 46.6-.8 74.9-31.5 79.4-36.6L238.2 205a85.8 85.8 0 01-62 29 86.2 86.2 0 01-64.4-29.2l-18 18.4z" fill="#050708"/><path d="M226.5 238.2c-.8 0-2 .1-3.1.4-2.7.7-3.6 2-7 3.1-1 .4-3 1-3.2.8-.1-.4 4.2-2.6 5.1-3.1 4.5-2.4 11.5-7 22.5-16.6l-2.5-1.8a91.6 91.6 0 01-15.6 12.5s-4 2.5-14.8 7.3c-1.2.5-2.5 1-4.1 1.2l-1.7.1c-1.7.2-2.9.6-3.5.8l-5.5 1c-4.5.9-5 1-6.3 1-2.1 0-2.4-.5-5.3-.6a44 44 0 00-3.7.1l-3.7.3A69 69 0 01131 234l-6-3.8a214.7 214.7 0 01-12.7-9l-1.4 2a3591.6 3591.6 0 0014 10.4c4 2.8 7.5 6.2 11.7 8.6 1.2.8 3.4 2 3.2 2.5-.2.7-5.4-1-5.5-.7-.1.3 3.3 2.2 7.6 3.1 2.5.6 2.7.3 5.1.9 3 .8 4 1.6 6.7 2.5 1 .3 2.6.8 7 1.3a104.3 104.3 0 0014.8.8c1-.4 1.3-.4 1.7-.8.5-.4.3-.8.7-1.2.6-.8 1.6-.9 2.2-1 2.7-.2 5.4-.9 8-1.1l5.8-.8c3.6-.6 6.7-1.1 6.8-.8 0 .1-1 .3-2.1 1.3-.7.7-.7 1-1.2 1.4-1 .7-2 .5-2.7.4-1.8-.2-.8.3-7 .7-2.3.1-3.9.1-5.8.9l-1 .4-1.6.6a99.2 99.2 0 0052.3-16.9l-5 2.5z" fill="#9a273f"/><g><path d="M82.8 90.6s.1-1.8 1.2-4c1.4-2.7 2.8-3 5.4-3.8 2.2-.8 4-3.6 5.6-5.5a336.5 336.5 0 018-8.7c7.5-8 15.7-18 25.5-23.2 6.5-3.5 13-1.7 18.7 2.8 2.4 2 4 4.9 6.5 6.8 1.2 1 .1 1 1.6.8.4 0 1.1-.7 1.5-.9l3.1-1.4c4.7-1.5 10-1.2 15-1.4 4.6-.1 10-.9 14.7.7 1.9.6 4.2 3 5.6 2.5 1.4-.4 3-2.7 4-3.6l4.8-4.1c4.3-3.8 8.5-7 14.7-5.7 3.6.9 6 3.2 8.5 5.7 7.5 7.4 15.4 14.5 22.8 22 8 8 16.2 19 9.2 30.3-1.6 2.7-4 5.1-6.3 7.3-1 .9-4.4 3-4.6 4.1-.1 1 .8 2 1 2.7 1.1 4 .7 8.7.7 12.9l-.2 13.6c0 3-1.5 6.7-1.2 9.5.4 3 6.3 7.2 8.5 9.4a38.4 38.4 0 00-2-4.2c-1-1.8-2-3-1.9-3.3.2-.1 1 .6 1.3.8 1.2 1 3.2 3.1 5.7 7.4l1.5.4.7 3.5c.4 2 .9 5 .8 8.5 0 2.5 0 6.5-2 9.9-2 3.6-5.4 6-10.2 8.5-3.6 1.8-9.2 6.9-14 13.7-3.8 5.2-3.3 6.9-6.4 9.6a21.1 21.1 0 01-13.6 4.5c0 .2 0 .5.3.8.5.8 1.8.8 2.6 1.3 1.6.8 2.5 2 3.3 3.6a25.2 25.2 0 01-20.3-4.8c-2.1-1.5-5-5-7.2-4.8-.8 0-9 2.6-9 1 0 .5 8.2-2.2 9-2.6-1-1-2.4-3.1-3.6-3.8-1-.5-2.7 0-3.7-.6-2.3-1.6 1-1.7.4-3 0 .2-8.2.1-9 0-1.1 0-5.7-.7-6.1.2 0 0-.3.5-.1.9.2.4.7.5 1.6.7l1 .2c0 .2-1.5 1-3.1.7-.3-.1-1.3-.3-1.4-.7-.1-.4.4-.8.4-1.4a.8.8 0 00-.2-.3c-.5-.7-3.4.4-4 .6 3.7 4.7-5.6 3.6-7.7 3.3-2-.2-2.4-.6-3.7.3-.7.5-1.3 1.5-1.8 2.1a36.4 36.4 0 01-6 5c-2.8 2-9.5 6.5-16.9 5.1-3-.5-5-2-9.1-4.8a53.8 53.8 0 01-10.1-9.3l-14.2-10.8a51 51 0 01-12-15.8c-2.4-5-5.1-10.2-3.5-15.9.8-3 2.4-5.9 4.2-8.4 2-2.7 5.2-5 6.7-8 .9-1.5.3-2.4 0-4.3-.4-1.5-.7-3-.8-4.6-.1-1.5-.3-3 .4-4.5.2-.5 2-3 2.7-2.4.4.2-.3 2.9 1.3 1.8.9-.5 1-3.4 1.2-4.2.3-1.4 1.5-4 1.1-5.5-.2-1.3-2.1-2.2-2.5-3.6-.3-1 .2-2 .4-3 .4-2.4 0-3-1.4-4.8-.4-.5-5-6.8-3.6-7.4.5-.2 1 1.4 1.5 1.2.5-.3-5.6-9-6-10.1a51 51 0 01-2.1-5.3c-.3-.9-.5-3-1.2-3.6-.2-.2-.6-.6-1-.5-.8.2-1 1.9-1 1.9z" fill="#050708"/><path d="M114.3 151.6c-1.3-.6-3-1.7-4-3.5-.8-1.6-.7-3-.7-3.5v-27.7c.2-.8.6-2.6 2-4.3a8.5 8.5 0 012.4-2L99.8 96.2a8.9 8.9 0 01-2.2-6c0-2.6 1.3-4.4 1.8-5l29.2-29.6c.5-.5 2.4-2.2 5.5-2.3 3-.1 5 1.4 5.6 1.9l15 15a7.8 7.8 0 012.7-3.2 7.7 7.7 0 013.5-1.3h28.2a7.6 7.6 0 013.8 1.3 7.6 7.6 0 012.7 3.2A112.9 112.9 0 00209 56.7c.2-.3 3-3.7 7.5-3.3a9 9 0 016 3L249.5 84a9 9 0 012.9 5.3c.6 3.9-1.8 6.7-2.2 7.1l-14.3 14a7.3 7.3 0 013.3 2.7 7.3 7.3 0 011.2 3.7l.1 27.3c0 .7 0 2.8-1.4 4.9a7.7 7.7 0 01-3.1 2.5l15 14.9c.3.4 2.6 3.4 1.7 7.3a8.4 8.4 0 01-3.1 4.5L220.9 207a9 9 0 01-6 1.4 9 9 0 01-5.7-3L195.6 192a6.2 6.2 0 01-2 3c-.8.6-1.9 1.2-3.5 1.4-3 .4-14.1.5-29 .1a11 11 0 01-4.5-2.3 10.8 10.8 0 01-2-2.2l-14.5 14.4c-.7.5-2.9 2-6 2a10 10 0 01-7.2-3.8L99.6 177c-.4-.6-2-2.6-1.8-5.6a9 9 0 012.5-6l14-13.8z" fill="#fff"/><path fill="#050708" d="M160 116h30v30h-30zm-25.7-16.1c-3.9-.3-9.4-3.7-9.4-9.4.1-5.4 5.1-9.2 9.8-9.1 4.6 0 8.8 3.7 9.2 7.6a7 7 0 01-.4 3.1l8.8 10a21 21 0 003.4-11.4 21.2 21.2 0 10-9.7 17.7l-9.7-8.7a7.5 7.5 0 01-2 .2zm72-9.4c.3-4 3.7-9.5 9.4-9.4 5.4 0 9.2 5 9.1 9.8 0 4.5-3.6 8.7-7.6 9.2a7 7 0 01-3.1-.4l-10 8.8a21 21 0 0011.4 3.3 21.2 21.2 0 10-17.7-9.6l8.7-9.8a7.5 7.5 0 01-.1-2zm9.7 71.8c4 .2 9.5 3.7 9.4 9.4 0 5.4-5 9.2-9.8 9.1-4.5 0-8.7-3.7-9.2-7.6a7 7 0 01.4-3.2l-8.8-10a21 21 0 00-3.3 11.5 21.2 21.2 0 1021.1-21.2 21 21 0 00-11.5 3.4l9.8 8.8a7.5 7.5 0 012-.2zm-72 9.4c-.2 3.9-3.6 9.5-9.4 9.4-5.3 0-9.1-5-9-9.8 0-4.5 3.6-8.7 7.6-9.2a7 7 0 013.1.4l10-8.8a21 21 0 00-11.5-3.4 21.2 21.2 0 1017.8 9.7l-8.7 9.8a7.5 7.5 0 01.1 2zm97 38l1.8-2.6 1.6.4c3.5.3 6.2-3.2 6.3-3.5 1.4-1.8 1-2.9 1.9-5.3.7-1.9 2.1-4.5 5.4-7.2a18 18 0 00-7 3c-2 1.3-3 2.7-4.7 4.8a673 673 0 01-7.6 8.8l2.2 1.7z"/></g></g></switch></svg>