<svg xmlns="http://www.w3.org/2000/svg" viewBox="0 0 350 350"><switch><g><path fill="#fff" d="M60 60h230v230H60z"/><path d="M70 70.5h210v210H70z"/><path fill="#409392" d="M80 80h190v190H80z"/><path d="M80 259l8.8 11H80zm0-87.3l30.5-41.4-5.8-14.8-24.7 9.8zm57.8 98.4a206.2 206.2 0 01-8.8-20.6 212 212 0 01-12.5-72.5l45 9a98.8 98.8 0 0038 84h-61.8zM270 248.7a293.6 293.6 0 01-20.8-9.4A296.1 296.1 0 01194 203l34.8-27.5a56 56 0 0041.2 26.3v47zm0-92l-23.3-9.2L250 117l20 4.5zm-2.8-76.6l-13 12.9H241l10.3-13z" fill="#9fb9a6"/><path d="M75.5 282.3l31.3-43.3-13 47.3zM66.7 254l26.5-41.9L65 237.8V254zM65 190.2l19.4-21.4L65 178zM234.3 260l12.4 26.3h11.7zm17.4-30.8l32.3 44s.5-15.4 0-14.3c-.5 1.1-32.3-29.7-32.3-29.7zm9.3-56.4l23.2 21.2v-11.3l-23.2-10zm19-82L256.5 93l4.5 4.8 19-4.8z" fill="#fff"/><path d="M254.2 79.8l8-22.6-17.6 9.9a94.7 94.7 0 00-37.1-25.7V29L196 38a91.1 91.1 0 00-21.3-2.5 93.4 93.4 0 00-71.2 34 26.7 26.7 0 01-5.7-1.2 27 27 0 01-9.5-5.5A33.8 33.8 0 0194 73.5a33.4 33.4 0 011.4 7.2 90.8 90.8 0 00-8.7 19 89.7 89.7 0 00-4.2 21.1L45 126.3l37.6 9.6a90 90 0 0010 33.6L80 182.3l17.4-4.6a94.4 94.4 0 0020.9 22.5l-30 40.3 38.5-34.5a92.4 92.4 0 00110.6-10.4L266 219l-23.1-28.7a93.6 93.6 0 0014.7-20.6L270 172l-9.5-8.4a89.6 89.6 0 00-6.3-83.8z"/><path d="M247.2 87.8a81.1 81.1 0 00-72.7-45.5c-32.4.3-56 20.7-67.3 38.7-4 6.2-13.4 23-12 44.5.5 8.6 1 20.4 10 27.8 6.9 5.8 15.5 6.2 19.4 6 20.2.5 32.6.4 38.4 0 0 0 5.7-.3 11.5-.3 23.4.1 43.8 1.3 43.8 1.3 4 .3 11.3.7 19.2-2.8a29 29 0 0012.7-10.2 31.1 31.1 0 004.2-18.6c0-11.2-.1-25.8-7.2-40.9zM99.3 158.7a6.5 6.5 0 00-3.4 1.6l8.3 10.5-1-11.5a6.5 6.5 0 00-3.9-.6zm11.2 14l2.7 14.8 11.5 7.8a92.7 92.7 0 00-14.2-22.6zm18.7-8a137.5 137.5 0 01-18.7-1.7 177.9 177.9 0 0020.3 25.7 88.8 88.8 0 01-1.6-24zm6.5.3a353.4 353.4 0 007.6 40.2l13.4 4.8-18.7-45h-2.3zm22.3 29l4.7-29h-16.5zm8.3 18.1l15.2-.8-12.2-39.6zm36-47.1l-28.4-1.2a256 256 0 0012.3 37.9 129.7 129.7 0 0016.1-36.7zm6 7.8a144.4 144.4 0 01-20.2 38.4 47.6 47.6 0 0025.6-9.5 119.8 119.8 0 00-5.4-28.9zm20.4-8l-14.7.7a130.4 130.4 0 015.5 21.5 37 37 0 007.5-13.2 36.4 36.4 0 001.7-9zm6-2a139.2 139.2 0 01-11.9 35l18-18.1-3.6-18-2.5 1zm8.5 2.2l2.1-6.4-3.8 2.2z" fill="#fff"/><path d="M204.8 51.8a26.5 26.5 0 00-6.3 1c-6 1.8-11.2 5.7-21.8 19.2-6 7.7-9 11.5-9.7 13.3-6.6 15.6 2 32.6 6.3 41 3.5 7 6.5 12.9 13.2 18 11 8.3 23.5 8 32.6 7.7 9.7-.2 18.2-.4 24.3-6.9 5-5.2 5.8-12 6-15.4a27.6 27.6 0 01-14.9 5 30.3 30.3 0 01-21.8-9.7C200.8 113.2 201 96.2 201 89.5c.2-9.4.2-14.2 2.7-20 2-5 5.7-10.4 3.5-14.8a7.6 7.6 0 00-2.6-3z" fill="#cfe4e4"/><path d="M143 81.3c1 1.5 12.6 16.8 32.9 16.6 19.6-.3 30.6-15 31.8-16.6a66.7 66.7 0 01-64.7 0zm97 35.7c0-.2 2-5-1-9a9.2 9.2 0 00-10.3-3l-1.4-12-4.5 13.8-33 12.5a22.7 22.7 0 003.7 10c3 4.5 7 6.7 8.8 7.6l-1.4 15.3 5.3-12.7 15.1.8 4.4 5.4-.2-7.2a30.9 30.9 0 009.3-7 30.9 30.9 0 006-10l17.6 5v-8L240 117zm-22.2 10.8a9.7 9.7 0 01-10.1-9.3h19c-.3 5-4.2 9-9 9.3z" fill="#090909"/><path d="M217.8 127.8a9.7 9.7 0 008.9-9.3h-19c.3 5.5 5 9.6 10 9.3z" fill="#fff"/><path d="M132 108.1l-5.9-16.7.9 15c-1.3-.8-5.8-3.3-11-2a13.4 13.4 0 00-4.2 1.8l-11.4-12a5 5 0 00-5.2 2.5c-1 2.2-.2 5.1 2.2 6.5L109 110a25 25 0 001.6 15.9l-5.6 7.2 8.8-4.1a34.8 34.8 0 009.8 7.4 34.8 34.8 0 0010.5 3.3l1.7 7.4 1.8-6.8a24.6 24.6 0 0021.8-21L132 108zm.9 19.7a9.7 9.7 0 01-10.2-9.3h19c-.2 5-4.1 9-8.8 9.3z" fill="#090909"/><path d="M132.9 127.8a9.7 9.7 0 008.8-9.3h-19c.4 5.5 5 9.6 10.2 9.3z" fill="#fff"/><path d="M136.4 263.6a13.5 13.5 0 00-6.7.3 13.4 13.4 0 00-5 2.7l.3.8c1.4 3.2 4.7 4.6 8.9 6.2a201.8 201.8 0 0011.5 4l7-3.7-16-10.3z" fill="#487f7e"/><path fill="#fff" d="M145.4 277.6l7-3.7 34.7 10.4z"/><path d="M213.6 286.9c2-.9 4.3-2.2 4.2-3.4-.3-2-7.3-2.8-9.7-3-18.8-2-59-8-59-10.1 0-1.3 16.3-2.3 43.5-6.1 7.6-1.1 37.4-5.5 41-15a4 4 0 00.3-2.4c-1.3-4.9-14.5-5.5-22.6-5.6-9.7 0-23.6-1-41.6-5.3 46.3-4 70.1-10.7 71.3-20.3.5-4.2-3.2-8.8-11-14l-93.6 9.5 20.3 9.8c-11.1 1.5-20.3 2-27 2.3-8.6.3-15.2 0-17 3.7-1.5 3 1 7 1.6 8 5.7 9.1 18.3 10.4 44 14 7 1 18.7 2.6 33.7 5-56.3 4.5-70.9 9.2-71 13.1-.2 5.7 30.1 13.2 51.7 15.9a193.4 193.4 0 0014.4 1.3c-21.8-3.7-58.5-10.4-59.8-15.3-.5-1.7 0-2.8 0-2.8 1.4-2.4 6.4-1.9 7.8-1.7-2.6.5-4 1.3-4.1 2.1-.4 3.4 18.3 9.3 56.1 17.7 7.7 0 9.4.6 9.4 1 .2 2.2-29.8 8-45.1 10.7-10.2 1.8-14.8 2.4-14.9 3.8-.1 2.8 20 6.2 38.8 8.9a243.1 243.1 0 00-18.6-6.7 157.9 157.9 0 0034.3-6.3 157.6 157.6 0 0022.6-8.8zm10.4-67a15 15 0 007.3-2.9 15 15 0 004.1-4.9 7 7 0 01.7 4.6c-1.2 4.8-8.9 6.4-28 10.5-20.7 4.4-23.8 5.1-32 6.4l-.8.1c-11.8 1.8-13.7 2-16 2-1.2 0-6.2-.1-6.3-.9-.2-1.2 13.6-4.8 71-14.9zm-64 26.8c-11.4-1.6-44-6.3-44.4-14.7 0-1.6 1-3 2-3.9 0 1.3 0 3 1 4.5 1.9 3 5.6 3.8 7 4 13.2 2.6 26 7.6 39.3 8.4 22 1.3 43.8 4 43.8 4.5s-22 1.1-48.7-2.7zm12.9 15.6l12-1.6c5.1-.6 12.8-1.7 22.1-3.7a247.8 247.8 0 0018.3-4.6c4.9-.8 5.8-.8 5.8-.7.2.8-20.6 7.3-43.2 10.8a238.6 238.6 0 01-33.5 2.8 359.5 359.5 0 0118.5-3z"/><path d="M128.9 227.3a56.7 56.7 0 0014.8 6.9 57.1 57.1 0 0022.6 2 288 288 0 01-37.4-9zm61.1 29c5.2.1 13.3-.3 22.2-3.8A55.4 55.4 0 00224 246a225.5 225.5 0 00-34 10.2z" fill="#fff"/></g></switch></svg>