<svg xmlns="http://www.w3.org/2000/svg" viewBox="0 0 350 350"><switch><g><path fill="#fff" d="M60 60h230v230H60z"/><path d="M70 71h210v210H70z"/><path fill="#409392" d="M80 80h190v190H80z"/><path fill="#9fb9a6" d="M80 259l9 11h-9zm0-87l31-42-6-15-25 10zm58 98a206 206 0 01-9-20 212 212 0 01-12-73l45 9a99 99 0 0038 84h-62zm132-21a294 294 0 01-21-10 296 296 0 01-55-36l35-27a56 56 0 0041 26v47zm0-92l-23-10 3-30 20 5zm-3-77l-13 13h-13l10-13z"/><path fill="#fff" d="M76 282l31-43-13 47zm-9-28l26-42-28 26v16zm-2-64l19-21-19 9zm169 70l13 26h11zm18-31l32 44v-14l-32-30zm9-56l23 21v-11l-23-10zm19-82l-23 2 4 5 19-5z"/><path d="M254 80l8-23-17 10a95 95 0 00-38-26V29l-11 9a91 91 0 00-21-2 93 93 0 00-72 34 27 27 0 01-5-2 27 27 0 01-10-5 34 34 0 016 11 33 33 0 011 7 91 91 0 00-8 19 90 90 0 00-4 21l-38 5 38 10a90 90 0 0010 34l-13 12 17-4a94 94 0 0021 22l-30 41 39-35a92 92 0 00110-10l29 23-23-29a94 94 0 0015-20l12 2-9-8a90 90 0 00-7-84z"/><path fill="#fff" d="M247 88a81 81 0 00-73-46 82 82 0 00-79 84c1 8 1 20 10 27 7 6 16 7 20 6h50l43 1c4 1 12 1 20-2a29 29 0 0012-11 31 31 0 004-18c0-11 0-26-7-41zM99 159a7 7 0 00-3 1l8 11-1-12a7 7 0 00-4 0zm12 14l2 14 12 8a93 93 0 00-14-22zm18-8a138 138 0 01-18-2 178 178 0 0020 26 89 89 0 01-2-24zm7 0a353 353 0 007 40l14 5-19-45h-2zm22 29l5-29h-17zm8 18l16-1-13-39zm36-47l-28-1a256 256 0 0012 38 130 130 0 0016-37zm6 8a144 144 0 01-20 38 48 48 0 0026-9 120 120 0 00-6-29zm21-8l-15 1a130 130 0 016 21 37 37 0 007-13 36 36 0 002-9zm6-2a139 139 0 01-12 35l18-18-4-18-2 1zm8 2l2-6-3 2z"/><path fill="#cfe4e4" d="M205 52a27 27 0 00-6 1c-6 2-12 5-22 19l-10 13c-7 16 2 33 6 41 4 7 7 13 14 18 11 9 23 8 32 8 10 0 18 0 24-7 5-5 6-12 6-15a28 28 0 01-14 5 30 30 0 01-22-10c-12-12-12-29-12-35 0-10 0-15 3-20 2-5 5-11 3-15a8 8 0 00-2-3z"/><path fill="#090909" d="M143 81c1 2 13 17 33 17s31-15 32-17a67 67 0 01-65 0zm97 36s2-5-1-9a9 9 0 00-10-3l-2-12-4 14-33 12a23 23 0 003 10c3 5 7 7 9 8l-1 15 5-12h15l5 6-1-7a31 31 0 0010-7 31 31 0 006-10l17 5v-8l-18-2zm-22 11a10 10 0 01-10-10h19c-1 6-4 10-9 10z"/><path fill="#fff" d="M218 128a10 10 0 009-10h-19c0 6 5 10 10 10z"/><path fill="#090909" d="M132 108l-6-17 1 15c-1 0-6-3-11-2a13 13 0 00-4 2l-12-12a5 5 0 00-5 3c-1 2 0 5 2 6l12 7a25 25 0 002 16l-6 7 9-4a35 35 0 0010 7 35 35 0 0010 4l2 7 2-7a25 25 0 0021-21l-27-11zm1 20a10 10 0 01-10-10h19c-1 6-4 10-9 10z"/><path fill="#fff" d="M133 128a10 10 0 009-10h-19c0 6 5 10 10 10z"/><path fill="#487f7e" d="M136 264a14 14 0 00-6 0 13 13 0 00-5 3c1 4 5 5 9 7a202 202 0 0011 4l7-4-16-10z"/><path fill="#fff" d="M145 278l7-4 35 10z"/><path d="M214 287c2-1 4-2 4-4l-10-2c-19-2-59-8-59-11l44-6c7-1 37-5 41-15a4 4 0 000-2c-1-5-15-6-23-6-9 0-23-1-41-5 46-4 70-11 71-20 1-5-3-9-11-14l-94 9 21 10-27 2c-9 1-15 0-17 4-2 3 1 7 1 8 6 9 19 10 44 14l34 5c-56 4-71 9-71 13 0 6 30 13 52 16a193 193 0 0014 1c-22-3-58-10-60-15v-3c2-2 7-2 8-2l-4 3c0 3 18 9 56 17l9 1c1 2-29 8-45 11-10 2-14 2-14 4-1 3 20 6 38 9a243 243 0 00-18-7 158 158 0 0034-6 158 158 0 0023-9zm10-67a15 15 0 007-3 15 15 0 004-5 7 7 0 011 5c-1 4-9 6-28 10l-32 7h-1l-16 2-6-1c0-1 14-5 71-15zm-64 27c-11-2-44-7-44-15l2-4 1 5c1 3 5 3 7 4 13 2 26 7 39 8 22 1 44 4 44 5s-22 1-49-3zm13 15l12-1 22-4a248 248 0 0018-5h6c0 1-20 7-43 11a239 239 0 01-34 2 360 360 0 0119-3z"/><path fill="#fff" d="M129 227a57 57 0 0015 7 57 57 0 0022 2 288 288 0 01-37-9zm61 29c5 0 13 0 22-3a55 55 0 0012-7 226 226 0 00-34 10z"/></g></switch></svg>