<svg xmlns="http://www.w3.org/2000/svg" viewBox="0 0 350 350"><switch><g><path fill="#fcae1d" d="M79.7 270h190.9V112l-46.8-32.8H79.7z"/><path fill="#c98e2b" d="M60 128.9l28.7-10.6L70 174.6l70-46.3-50.4 91.4 41.6-34.5L89 266.7l40.1-45.3L196 270l74.7-81-42.4 84.8h8.4l28.6-20-11.3 35.8H60.1z"/><path fill="#231f20" d="M270.6 270h-191V79.1h144.2l-12-8.3H72.4v207.6H280v-160l-9.3-6.5z"/><path fill="#fff" d="M279.9 118.4v160H72.3V70.8H212l-16-11.3H60v230.1h230v-164z"/><path d="M116.5 235L92 271.5h101l8.9-12.2 61.4-91v-32.7l8-10.7-7.7-16.5-14.1-1.9 5.5-7v-3.7l-15.5-13.3-9.7-2-5.9-16.2-20.4-3-8.1-11.7h-14l-3-5.8-21.4-8.9-8.2 23-33.4 36 6 55.8 19.3 41.5-24.3 43.8z" fill="#231f20"/><g fill="#fff"><path d="M251 152.1l8.2-10.9zm8.2-10.9v24.3L202 259.3l61.4-91v-32.7zm4.2-5.6l8-10.7-8 10.7z"/><path d="M259.2 141.2l12.2-16.3-7.7-16.5-14.1-1.9 5.5-7v-3.7l-15.5-13.3-9.7-2-5.9-16.2-20.4-3-8.1-11.7h-14l-3-5.8-20-8.3-1.4-.6-8.2 23-33.4 36 6 55.8 19.3 41.5-24.3 43.8 28.7-40.2 13.6 6.6-15.2-9.7-17.6-41-6-55.3 32.2-35.8 6.9-19.3 9.8 3.4 6.5 3.2 1.8 3.8-2.6.6-24 39.7 8.3 14.7 11.2 1.7a66.3 66.3 0 019.3 18c4.7 14.7 3.9 30.2 3.4 38.6-.2 4.3-.6 7.6-.3 7.7.8 0 3.8-11.3 4.8-23a97.9 97.9 0 00-1-24.1l10.8 3.7 7.5 15.4 18.5 1.9 5 10.4 4.6-3-4.7-9.8 22-33.4 10.7 2.8 4.5 12.3-14.3 27.2 8.3-10.9zm-96.3-38.4l-6.7-12.2 21-35 15.5-1.7 8 10.4-26.6 38.5H163zm23 16.3l-8.9-12.6 28.6-39.2 15 .5 5.3 14-28.3 40.3-11.7-3zm38.6 20h-16.3l-7-12.8 28.2-41.4 12 2.3 9 10.2-26 41.8z"/></g><path fill="#fff" d="M269.6 92.9l-10.3-42.6-23.5 11.9 6 32.1z"/><path d="M261.2 58.3l-24 11.2 1.4 7.8 24.9-9.7-2.3-9.3z" fill="#231f20"/><path fill="#fcae1d" d="M238.6 77.3l24.9-9.7 6.1 25.3-27.8 1.4z"/><path fill="#fff" d="M279.9 107l10.3 1V88.5l-10.3 2.8z"/><path fill="#231f20" d="M270.6 94v12.2l9.3.8V91.4z"/><path fill="#fcae1d" d="M270.6 94L255 98.1v1.2l-1.2 1.5 6.3 4.4 10.4 1zm0 12.2l-10.4-.9"/><path d="M227 45.8l10.7 5.8-8.2 15.6zm60.8-3.5l-14.1 28.5 20.7-16.5-6.6-12m1.8 108.6l7.9 5.4-81.6 100.3L289.6 151z" fill="#050708"/><g><path fill="#fff" d="M252 141.2L170.6 284l-42.7 5.6 35.7-60.1-53.2 70H79.3L180 199.2l-13 48.3z"/><path fill="#231f20" d="M110.5 299.4l8 5.7 16.2-26.7 29-48.9z"/><path fill="#fff" d="M60.6 258.3l32.1-42.6L60.6 249zm66.5-59.8l-60 89.1-6.5-9.2z"/></g></g></switch></svg>