<svg xmlns="http://www.w3.org/2000/svg" viewBox="0 0 350 350"><g fill-rule="evenodd"><path fill="#faf9f9" d="M301 57h-1v1h-1l-2 1h-1-1l-2 1h-1c-6 2-11 2-19 2-13 0-19 3-26 13v1c4-2 9-3 16-2l15 1c7-1 12-3 17-8a23 23 0 012-2l2-2 1-1 1-1v-1h1v-1c2-1 1-2-1-2m-161 0l-3 1-4 3a735 735 0 01-16 11l-9 7-8 6-10 8a192 192 0 00-7 5c-9 7-17 12-24 15-3 1-3 0 1 1 10 2 17 8 19 16l-1 113c0 6-2 9-5 10a117 117 0 01-10 4l-7 3c-3 1-2 0-3 2-1 3-1 3 1 3l6-1 7-1h19c3 1 3 1 3-3v-4l2-1a93 93 0 015-5l2-2v-31a8977 8977 0 013-131c7-6 8-6 11-7 7-2 15-3 20-1 3 1 3 1 1 4a83 83 0 00-20 42c-3 15 1 33 9 42 4 3 13 8 14 7l-3-4c-14-7-19-34-9-57 6-14 12-21 37-40l12-9c-1-1-1-1-18 12a451 451 0 01-5 1l-1 1 2-2 9-7 8-6 1-1h-1a2 2 0 00-1 0h-1c-3-2-16-4-26-4M73 78l1 19 5-4 4-3V69h28l2-2 6-4a58 58 0 004-3H73v18m111-12a3145 3145 0 00-16 12 2573 2573 0 01-9 7l-7 5 3-1 3-1 2-1c13-6 24-6 42 0a235 235 0 0116 6 45 45 0 003 1l8 4c11 5 15 6 22 7h4v86a5571 5571 0 000 87l3-5c5-4 10-5 22-1 10 4 12 4 15 3l2-1h2l1-1 1-1a3 3 0 001-1h1l1-1 1-1 8-8c1-2 0-2-1 0l-2 1v1a1 1 0 01-1 0l-1 1h-1l-1 1h-2l-2 1-2-1h-2c-3 0-5 0-10-3-4-2-4-2-2-3l1-1V96l2-2a126 126 0 0014-14h-1l-1 1h-1v1h-1-1l-1 1-11 4c-8 2-15 2-24 1-15-1-29-4-53-13a619 619 0 00-8-3l-14-3c-2 0 0-2 5-6 4-3 4-3 2-3h-2l-8 6M92 247l-3 2V96l4-3 1 76v76l-2 2m190-69v80l-3-1-2-2V101l1-1a20 20 0 003-1h1v79m-108-62a37 37 0 00-29 53c1 3 3 7 5 8l1 1 1 2v4l-1 9a1373 1373 0 01-6 48 2809 2809 0 0066-2l-1-8-1-10-2-11-1-8v-7l-1-6-1-6v-3l1-2c23-25 3-66-31-62m8 8l6 1c21 9 26 34 11 49l-3 3 1 4v7l1 6 1 7 1 7v6l2 18 1 1h-49a319 319 0 014-37 1935 1935 0 012-18v-1l-2-2a29 29 0 0110-50c2-1 10-2 14-1m49 100c-7 2-12 11-9 16 2 3 7 5 10 3 2-1 4-2 2-2-6 3-12-5-8-10 7-8 20 0 18 10-1 8-15 19-25 19h-1l3-1c1-1 1-1-1-1-5 2-13 2-25-1-4 0-10-2-17-6l-16-4-2 1 9 3 10 6 9 4-2-2-2-1c10 4 18 6 29 6a28 28 0 0015-2l4-2-1 1a40 40 0 01-16 6h4a30 30 0 0017-7c13-10 16-29 5-34l-10-2m-104 34a35 35 0 00-7 2 37 37 0 00-5 2l-2 2a3 3 0 001 0c3-2 12-3 18-1 7 2 10 4 22 13 11 7 27 15 37 17 16 4 32 0 41-10l4-7-3 1c-8 5-20 7-25 5l-2-1c-5-1-9-2-14-5a314 314 0 01-12-5 359 359 0 00-12-6 24 24 0 01-2-1 73 73 0 00-13-5l1 1 2 1a110 110 0 0121 13 87 87 0 0010 5l2 2h-1c-3-1-7-2-11-5-21-13-40-20-50-18m-53 12l-1 7v6h28v-3-6H83v-4h-9m51 5c-5 1-9 3-11 7l-1 1h44l-2-1a98 98 0 00-16-6l-14-1"/><path fill="#8a0505" d="M141 57h1-1m6 0h1c1 0 0 0 0 0h-1m7 1h0m37 3h-1 1l1-1-1 1m4 0l1-1-1 1m-28 0h1s1 0 0 0h-1m123 0h0m-4 1h1v-1l-1 1m-17 0h1-1m-4 0h0m11 0h1-1m-109 1l-1 1 1-1a3 3 0 001-1l-1 1m-41 2a27 27 0 00-2 2h1l2-2 1-1-2 1m-11 1l-1 1 2-1h-1m179 2l-1 1 1-1 1-1-1 1m-182 0h1v-1l-1 1m138 3l-1 1 1-1a6 6 0 001 0h-1m-75 2h-1l2-1a13 13 0 00-1 1m-21 1h-1l-1 1 1-1h1m107 0h1-1m-108 0v1l-1-1h1m110 0h1c1 0 0 0 0 0h-1m-112 1h0m118 0h2-2c-1 0-1 0 0 0m9 0h0m-2 0h1-1m-126 1l-1 1h1v-1l1-1-1 1m1 0v1-1l1-1-1 1m3 1l-1 1h1a12 12 0 002-2l-2 1m92 0c-1 0-1 0 0 0 0 0 0-1 0 0m-123 0h1-1m27 1h-1 1v-1 1m-30-1h1c1 0 0 0 0 0h-1m6 0h1-1m24 2a8 8 0 00-1 1l1-1 2-1-2 1m18-1l-1 1 1-1a3 3 0 001 0h-1m-53 0c-1 0 0 0 0 0h1-1m-7 1c-1 1-1 1 0 0l1-1-1 1m-16 2v2l6-5h-6v3m74-1l-2 1 1-1a12 12 0 002-1l-1 1m-32-1v1l-1 1 1-1v-1m12 2l-1 1 1-1a30 30 0 011-1l-1 1m2 2l-1 1 1-1 1-1-1 1m-16 0l-1 1 1-1a8 8 0 001-1l-1 1m44 0c-5 0-12 2-16 4l-2 1a222 222 0 00-11 5 67 67 0 00-27 33l-1 3c-2 15 3 33 12 39l3 2c-4-9-3-28 2-38l2-5-2-2c-2 0-3-1-3-2h1c2 1 5 0 6-3 4-8 12-14 26-19l3-1a641 641 0 014-2l4-3c1-2 2-1 3 1 1 1 7-1 9-3 0-1 0-2-2-3l-1-1 6-2c4 0 6 2 6 5 0 4-5 7-18 10-8 2-13 3-16 5l3-1 14-3a99 99 0 0019-4l3-2 1-1v1l1 3 1 2c3-1 5-2 6-5l-1-3a8 8 0 00-2-1l2-3-13-5c-10-2-16-3-22-2m-33 1h-1 1a6 6 0 001-1l-1 1m-40 1l-1 1 1-1v-1 1m38 0v1l1-1h-1m106 1h0s-1 0 0 0m-106 2l-1 1 1-1 1-1-1 1m110-1h1a5 5 0 00-1 0c-1 0-1 0 0 0m34 0c-1 0-1 0 0 0h1-1m11 1l-2 2 2-2a17 17 0 001-1l-1 1m-16 0c-1 0-1 0 0 0h2-2m-23 0h0s-1 0 0 0m6 0h1c1 0 1 0 0 0h-1m6 0l-4 1h4l5-1h2-2-5M90 92v1l1-1h-1m46 1l-1 1 1-1 1-1-1 1m151 3v162l-1 1a6 6 0 00-1 1l1-1 1-1v-81-81m-188 8v4a254 254 0 000-4m130-4v2l-1 1-8 5-6 3-1 1-2-1c-3-1-7-2-8-1l5 4a80 80 0 0037-2v6c-3 5-11 10-22 13-2 0-2 0-1 1 2 4 2 11 1 15-1 5-5 13-4 9 1-5-1-16-5-22a41 41 0 10-68 45l2 2v3l-1 5-1 5-1 12a1611 1611 0 00-1 12 175 175 0 01-2 12l-1 7h-1a58 58 0 00-3-1l-6-4c-2-2-2-3 0-5 0-2 1-2 2-2 2 1 4 1 5-2l-1-2v-2c9-11 8-23-2-24-5-1-8 5-3 7v2l1 1 3-2 1-2v1c3 6-7 10-12 4-3-3-3-9-1-12a32 32 0 018-5l1-1h-1l-10 5c-2 2-2 1-1 0 2-3 4-5 8-7 2-1 1-1-1-1a56 56 0 01-24-10 829 829 0 001 34c3-2 8-3 10-2h1l-1 1c-7 1-9 7-6 14l1 1h1c4-3 10-2 12 3v4c0 1 0 1 0 0 0-4-5-6-8-4-7 4 3 18 16 22l18 4c10 0 18 2 25 6 3 1 3 1 1-1-6-4-14-8-17-8h1l1-1h-2 1c5-2 9-1 19 3 7 4 13 6 17 6 12 3 20 3 25 1 2 0 2 0 1 1l-3 1h1c10 0 24-11 25-19 2-10-11-18-18-10-4 5 2 13 8 10v1c2-1 1 0 0 1-3 3-5 3-10 2-6-1-8-4-9-15a441 441 0 00-2-12 2161 2161 0 00-1-12l-1-5-1-7-1-9-1-4 2-2c4-5 6-8 7-14 1-4 1-3 3-4 10-2 19 4 19 13 0 6-6 9-11 7-3-1-3-2-1-2 3 0 4 0 4-2 1-5-6-6-11-2-5 5-6 15-3 27l6 19h2l1-1-5-11c-4-9-5-18-4-26 1-4 1-4 1 0 1 8 4 16 8 18h1v3c0 4 2 9 5 14v1h4l7 2c6 3 9 1 11-9v-2 36l-1 3c-3 7-9 13-14 15a740 740 0 0114 1h1v7l1 6V105h-4c-7-1-12-2-21-7h-1v2m52-1l1 80a8435 8435 0 000-80h-1M61 112h1v-1l-1 1m-4 1v0c1 0 1 0 0 0m1 1h0m124 2c30 4 44 40 23 62l-1 2v3l1 6a690 690 0 001 13l1 8 2 11 1 10 1 8v2h-66l1-10 1-7a209 209 0 011-10l2-14a10780 10780 0 012-16v-4l-1-2-1-1c-2-1-4-5-5-8-13-26 9-56 37-53m-68 3v0c0-1 0-1 0 0m-40 2a15 15 0 001 2l-1-2a15 15 0 00-2-1l2 1m47 1l-1 1 1-1c0-1 0-1 0 0m-8 1v-1 1m64 1h1-1m17 4l1 1a6 6 0 00-1-1h-1 1m-81 2v-1 1m83 0l1 1h1l-2-1m-37 1l-1 1 1-1v-1a6 6 0 000 1m-47 3v5l1-3c-1-6-1-6-1-2m-33 50v55l-1 2 1-2V131v53m77-50l-1 1 1-1 1-1a6 6 0 00-1 1m-1 1l-1 1h1v-1m-4 6s0 1 0 0l1-1-1 1m-53 10v4a254 254 0 000-4m15-7v0m37 1v-1 1m57 2v0c0-1 0-1 0 0m-93 2v0c0-1 0-1 0 0m35 4v-1 1m59 0v-1 1m-59 4v0m-26 9a17 17 0 001 2l-1-2a17 17 0 00-2-1l2 1m77 6v1-1a6 6 0 001 0h-1m-43 2a7 7 0 001 1l-1-1a7 7 0 00-1-1l1 1m42 0l-1 1 1-1 1-1-1 1M98 203a250 250 0 000-15v15m98-27a1 1 0 000 1v1-1l1-1h-1m0 4v-1 1m-36 1v0m37 5v0c0-1 0 0 0 0m-38 2c0 1 0 1 0 0v-1 1m39 5v-1 1m-40 1v0m41 5v0c0-1 0 0 0 0m-42 2v0c0-1 0 0 0 0m42 5s0 1 0 0a3 3 0 000-1v1m-42 2s0 1 0 0v-1 1m43 4v0m-44 3v-1 1m45 4v-1 1m-46 2v0c0-1 0 0 0 0m78 3h0s-1 0 0 0m-31 2v-1 1m-48 2v-1 1m91 1l-1-1 1 1m-43 3v1h-48 48v-1-1 1m46 5v0c0-1 0 0 0 0m0 3v0c0-1 0 0 0 0m-19 4h0s-1 0 0 0m-151 1v2-1-1m13 3l-1 1 1-1 1-1-1 1m6 1l-1 1 1-1 1-1-1 1m-21 1v0m15 5l-1 1 1-1c2-2 2-2 0 0m-2 5v4h-4 2c2 0 2 0 2-4v-4 4m153-4c0 1-5 6-9 8l-1 1c3 0 8-4 8-4l1-2 2-3h-1m-60 1l2 1v1-1l-1-1h-1m-55 1h0m24 1h1-1m81 1h0m-88 0h0c-1 0-1 0 0 0m44 1v1h1l-1-1m-70 1h0m81 1h0c-1 0-1 0 0 0m-124 0h1-1m-6 0h0s-1 0 0 0m13 0h1c1 0 0 0 0 0h-1m-18 1h0m48 0v1l1-1h-1m95 0h1-1m11 0h0m-166 1h1l-1-1v1m5-1h1c1 0 0 0 0 0h-1m-2 1h0s-1 0 0 0m181 0h-1 1c1-1 1-1 0 0m-79 0l1 1v-1a3 3 0 00-1 0m59 2h0m-2 0h6-5-1m-45 1l2 1-1-1h-1m-95 2h8l-4-1-4 1m192 0h2-2m-7 3l-2 2 2-2a105 105 0 011-1v-1l-1 2m-176 1h9a41 41 0 0110 1l-10-1h-9m42 1h0m5 0h1-1m-29 1c0 1 0 1 0 0m35 0h0c0-1 0-1 0 0m154 0h2l-1-1-1 1m-151 0l1 1-1-1m3 1h1c0 1 0 1 0 0h-1m-26 2l-1 1 1-1 1-1-1 1m31 0h0c-1-1-1-1 0 0m52 0l1 1a5 5 0 00-1-1m-14 1h0m41 0c-1 1-1 1 0 0h0m-18 2h0m2 0h0m8 0h0m-4 0h0s-1 0 0 0m14 4a60 60 0 01-1 1l-1 1 3-2h-1m-7 5l1-1-1 1m-29 3h1l-1-1v1m17 0v1l1-1h-1m-11 0h0m7 1h1c1 0 0 0 0 0h-1"/><path fill="#040404" d="M137 51h-3l-2 2h-1l-1 1-1 1-1 1h-1v1h-1v1a7 7 0 01-3 1v1l-5 4-4 3-2 1-1 1H83v21l-2 1-8 6-1 1a7 7 0 00-2 1l-1 1-2 1-1 1h-1l-1 1h-1l-1 1-1 1h-2l-1 1h-1-1l-1 1h-2l-1 1h-6l-1 1-4 2v1l-1 1-1 1v1l-1 1v1l-1 1-1 2h9a88 88 0 0116 1l1 1h1l1 1h1l1 1h1l1 1 2 2 1 3h1a2343 2343 0 01-3 118h-2l-1 1h-1-1l-1 1h-1v1h-2-1l-1 1h-2l-1 1h-1l-1 1h-2l-1 1-2 1v1l-1 1v1l-1 1v2l-1 1v1l-1 1v1l-1 2v2h-1v3h1l1-1h7l4-1h9l4-1h15v4h19l-1 1v11l1 2v2l1 1v1l1 1a23 23 0 006 6h6v-1l-2-1a3 3 0 01-1-1 3 3 0 000-1 33 33 0 010-11c0-8 12-11 25-8a284 284 0 008 2 61 61 0 013 2h2l6 3 1 1h1v1h2l1 1 1 1h1l1 1h1l1 1h1l1 1h1l1 1h1l1 1h1l1 1h1l1 1h2l1 1h1l2 1h1l1 1h3l1 1h2l2 1a81 81 0 0022-1l1-1h3l1-1h1l1-1 3-1 1-1h1l1-1a11 11 0 002-2 23 23 0 005-5l1-1h20a321 321 0 0031-1h10v-4c0-5 0-5-1-4-4 1-6 1-14-2-13-4-18-4-23 0l-4 5-1-6v-7h-9c-8 1-9 0-6-1 5-2 11-8 14-15l1-3v-36 2c-2 10-5 12-11 9l-7-2h-4v-1c-3-5-5-10-5-14v-3h-1c-4-2-7-10-8-18 0-4 0-4-1 0-1 8 0 17 4 26l5 11-1 1h-2l-6-19c-3-12-2-22 3-27 5-4 12-3 11 2 0 2-1 2-4 2-2 0-2 1 1 2 7 4 13-4 9-13-3-6-10-9-17-7-2 1-2 0-3 4-1 6-3 9-7 14l-2 2 1 4 1 9 1 7 1 5a5607 5607 0 002 19l1 5c1 11 3 14 9 15 5 1 7 1 10-2 1-1 2-2 0-1-5 4-13 1-13-6 0-3 2-7 4-9l1-1c5-4 16-2 20 4 5 9 0 25-11 31l-2 1c-4 3-10 5-17 6-3 0-3-1 0-1a45 45 0 0013-5c3-2 4-2 2-2a54 54 0 01-48-3l5 4v1l-10-6a73 73 0 00-11-5c-4-2-8-3-9-2-1 0 0 0 0 0 3 0 11 4 17 8 2 2 2 2-1 1-7-4-15-6-25-6l-18-4c-13-4-23-18-16-22 3-2 8 0 8 4 0 1 0 1 0 0v-4c-2-5-8-6-12-3h-1l-1-1c-3-7-1-13 6-14l1-1h-1c-2-1-7 0-10 2h-1v-34l3 2c6 3 17 8 21 8 2 0 3 0 1 1-4 2-6 4-8 7-1 1-1 2 1 0l10-5h1l-1 1h-1l-7 5c-2 3-2 9 1 12 5 6 15 2 12-4v-1l-1 2-3 2-1-1v-2c-5-2-2-8 3-7 10 1 11 13 2 24v2l1 2c-1 3-3 3-5 2-1 0-2 0-2 2-2 2-2 3 0 5l6 4a70 70 0 014 1 215 215 0 003-19l1-12a1944 1944 0 001-12l1-5 1-5v-3l-1-2a41 41 0 1172-23c-1 4 3-4 4-9 1-4 1-11-1-15-1-1-1-1 1-1 11-3 19-8 22-13v-6h-1c-12 3-30 4-36 2l-5-4c1-1 5 0 8 1l2 1 1-1 6-3 8-5 1-1v-4l-2-1-3-1-13-6-2 2v1l2 1 1 3c-1 3-3 4-6 5l-1-2-1-3v-1l-1 1-3 2-3 1-16 3a151 151 0 00-17 4c3-2 8-3 16-5 13-3 18-6 18-10 0-3-2-5-6-5l-6 2 1 1c2 1 2 2 2 3-2 2-8 4-9 3-1-2-2-3-3-1l-4 3a641 641 0 00-4 2l-3 1c-14 5-22 11-26 19-1 3-4 4-6 3h-1c0 1 1 2 3 2l2 2-2 5c-6 11-6 28-1 39 1 3 1 3-2 2-15-6-22-23-20-46 0-6 1-9 3-16a98 98 0 018-17c3-6 4-8 8-12l2-3c-4-2-13-2-20-1l-8 5-5 3a46 46 0 00-2 2l-1 103v57l-1 2-5 4-3 2v4c0 4 1 4-4 4a112 112 0 00-29 1c-5 0-4 0-3-2 1-3 0-2 3-3l17-7c3-1 4-3 5-8l1-2v-57c0-63 0-57-2-61s-8-8-12-9a4 4 0 01-1-1l-6-1c-2 0-2-1 0-1 6-2 16-8 25-15a158 158 0 017-5 5226 5226 0 0042-32l5-3 2-1 18 1 10 3h2l-3 2-1 1-4 3a80 80 0 00-8 7h1l-3 3a400 400 0 00-7 6 17 17 0 00-2 2l4-3a682 682 0 0119-12 196 196 0 00-34 30l-2 2a74 74 0 00-5 11 49 49 0 00-2 4c-2 5-3 11-1 8 5-13 13-23 26-32l10-7a2007 2007 0 0113-9 243 243 0 013-3l9-6 9-8h1-14l-1-1h-1a1 1 0 01-1-1l-2-1-1-1h-1l-1-1h-1v-1h-1-1a7 7 0 00-2-1h-1-1a5 5 0 01-1-1h-3l-2-1h-20m59 9l-3 3-7 5 2 1 12 3a452 452 0 005 2l4 1c15 6 30 10 42 12 11 2 24 2 33 0l13-4v-9-9l-2 2a29 29 0 01-5 4 30 30 0 01-5 2c-3 2-11 3-15 2-14-2-18-2-23 1-2 2-2 1 2-3 7-9 11-11 24-11l20-2a2734 2734 0 00-97 0M98 78l-6 5v-5h6m198 10a132 132 0 01-8 7l-1 1v162l-1 1a7 7 0 00-1 1l11 5h1v-76a4410 4410 0 01-1-101M93 93l-2 2-2 1v153l2-1 2-2 1-1v-76a7704 7704 0 00-1-76m186 7l-2 1v154l2 2a36 36 0 002 1 2493 2493 0 00-2-158m-105 24c-24 4-34 32-16 50l2 4a247 247 0 00-1 9 4052 4052 0 00-1 13 2803 2803 0 01-4 32v1h48v-1-3l-1-12-1-6a2609 2609 0 01-2-13v-7l-1-6-1-6v-2l3-3c8-8 11-19 7-31-5-12-19-21-32-19m68 133l-1 2-1 2s-5 4-8 4l1-1a32 32 0 0010-8l-1 1m-107 1l20 6 21 11 10 5h3l-16-9a117 117 0 00-8-5 89 89 0 00-10-5 126 126 0 01-4-2h3c9 3 13 4 31 14 15 8 25 10 35 9l14-5c2-1 3-1 2 1a35 35 0 01-32 17c-11 0-18-2-33-10-10-5-11-5-22-13-15-10-26-13-36-8h-1c6-5 15-7 23-6m101 7h-1 1"/></g></svg>