<svg xmlns="http://www.w3.org/2000/svg" xmlns:xlink="http://www.w3.org/1999/xlink" viewBox="0 0 350 350"><switch><g><path fill="#fff" d="M60 60h230v230H60z"/><path fill="#060809" d="M70 70h211v211H70z"/><path fill="#187fa3" d="M79 79h192v192H79z"/><defs><path id="a" d="M79 79h192v192H79z"/></defs><clipPath id="b"><use overflow="visible" xlink:href="#a"/></clipPath><g fill="#060809"><path d="M259 228h3l8-8a46 46 0 00-8-4c-7-3-12-3-12-6v-1c1-1 6 1 7 1l4 2c3 2 5 0 9 1l5 2v-70l-3 1c-5-1-7-3-9-4-2-2-2-4-5-6a14 14 0 00-7-3 18 18 0 016 4l2 3a34 34 0 01-15 1 34 34 0 01-11-3 57 57 0 0012-4l-8-1h-11v-3l-1-2-2-6v6l1 3a6 6 0 010 2 37 37 0 00-13 2s3-1 3-3l-1-1-8-4-4-2a31 31 0 00-9-3l6 4-8 2-6-1-1-1-6-1-2-2a13 13 0 00-8-3 7 7 0 011-2c2-3 6-3 6-3l-9-2h-14c-5 0-9-1-16-4-9-4-8-5-13-6-2 0-9-2-9-4l-1-2a3 3 0 00-1-1L84 86l21 9 6 3 2 3 4 2c6 1 9 5 18 9a75 75 0 0027 3l1 1c1 1 0 3-1 4l-3 3a35 35 0 00-7-1c-6-1-12 1-12 1l5 1 15 1-12 3a106 106 0 01-14 1h-28c-11 0-17 0-25 3a39 39 0 00-5 3v82c2-1 8-1 14 2a25 25 0 016 5 168 168 0 0032 0l45-1c32-1 54 1 54 1l-23-3h0-4l-15-1a13 13 0 005-2 13 13 0 003-2h16c5 1 9 2 15 1a28 28 0 007-2c-1 2-2 6 0 8l5 1 23 4zm-77-11l-3 2-2 1c-2 2-11 0-19 1l-8-1v-3c1-2 5-3 9-4 14-2 32 0 32 1l-9 3zM133 92l4 1-2-2-3-1 1 3zm12 5c1 1 7 3 8 1l-1-1-3-1-6-3h-5l7 4z"/><path d="M174 112l5 1c1-1-1-2-2-3h-5l2 2zm1 3l6 3 9 4a34 34 0 00-11-7h-4zm56 4l3 2c5 2 6 4 7 3 0 0 0-3-2-4l-4-2c-4-1-6-4-6-4-1 1 0 4 2 5zm-22-4l1-1c1-1 0-3-1-5h-3l1 3 2 3zm63 138l-11 7-4 1c-1-1 1-4 1-5a21 21 0 014-5l6-5 5-3a9 9 0 002-5l-7 1c-6 0-8-1-12 1l-4 3c-2 3 1 6-1 9l-5 4c-5 5-4 6-9 10l-5 4s6-4 15-5l8-1 7-3 8-2 3-1c3-2 3-5 3-6a24 24 0 00-4 1zm-50-24l-2 3 3-1c1-1 2-2 1-3l-2 1zm-11 7a7 7 0 00-1 2 11 11 0 004-1l4-3c0-1-5 0-7 2zm-22 8l-5 2 1 4 4-1v-4zm-88-8c0-1-5-2-9 0-2 0-5 2-5 3 1 1 6 0 8-1l6-2zm1 9l-6 3h8l7-3h-9z"/></g><path fill="#fff" d="M115 245c-6 0-10-5-10-11V112c0-5 4-10 10-10h120c6 0 11 5 11 10v122c0 6-5 11-11 11H115zm-4-14c0 2 1 4 3 5a5 5 0 003 1h116l4-2 2-3V115l-2-4-4-2H118a5 5 0 00-1 0 5 5 0 00-3 2 5 5 0 00-2 4v116z"/><path d="M235 103c5 0 9 4 9 9v122c0 5-4 9-9 9H115c-5 0-9-4-9-9V112c0-5 4-9 9-9h120m-118 5a6 6 0 00-1 0c-2 0-3 0-4 2a7 7 0 00-2 5v116c-1 2 1 5 3 6a6 6 0 003 1h117s3 0 5-2l2-4V115a7 7 0 00-2-6 7 7 0 00-4-1H117m118-8H115a12 12 0 00-12 12v122a12 12 0 0012 12h120a12 12 0 0012-12V112a12 12 0 00-12-12zm-118 11h116l3 1a4 4 0 011 3v117l-1 2-3 1H117a4 4 0 01-1 0 3 3 0 01-2 0l-1-4V115l1-3a4 4 0 013-1z"/><path d="M292 181v-11l14-14v-14H44v14l14 14v11l-14-14v37h262v-37z"/><path fill="#fff" d="M270 178l-16 15-15-15-17 15-15-15-16 15-16-15-16 15-15-15-16 15-16-15-16 15-16-15-16 15-16-15v22h254v-22l-16 15zM48 146v9l17 15 15-14 16 15 16-15 16 15 16-15 16 15 15-15 16 15 16-15 16 15 16-15 15 15 16-15 16 15 16-15v-9z"/><circle cx="64" cy="156.3" r="3.5"/><circle cx="79.4" cy="192" r="3.5"/><circle cx="270" cy="192" r="3.5"/><circle cx="286.2" cy="156.3" r="3.5"/></g></switch></svg>