<svg xmlns="http://www.w3.org/2000/svg" viewBox="0 0 350 350"><switch><g><path fill="#fff" d="M290.1 290H60V60h230.1L95.7 130.8 155 243.5z"/><path d="M284.8 69l-43.6 7.9-139.5 44.8 1.6 103.6 158 55.7H69V69h215.8z"/><linearGradient id="a" gradientUnits="userSpaceOnUse" x1="300.5" y1="122.4" x2="67" y2="122.4"><stop offset=".3" stop-color="#891716"/><stop offset="1" stop-color="#d12c2d"/></linearGradient><path fill="url(#a)" d="M67 162l233.5-77.8-63.5-1.5-170 50.8z"/><linearGradient id="b" gradientUnits="userSpaceOnUse" x1="67" y1="182" x2="298.5" y2="182"><stop offset=".3" stop-color="#891716"/><stop offset="1" stop-color="#d12c2d"/></linearGradient><path d="M67 156.8L262.8 144l35.7 35-68.3 41-163-25.8-.2-37.4z" fill="url(#b)"/><linearGradient id="c" gradientUnits="userSpaceOnUse" x1="298.5" y1="238" x2="67" y2="238"><stop offset=".3" stop-color="#891716"/><stop offset="1" stop-color="#d12c2d"/></linearGradient><path d="M67 213.3l214 69 17.5-14.3-47.5-30.3-20.6-17.8L67 193.7v19.6z" fill="url(#c)"/><path fill="#d65d5d" d="M113.5 146l46.7-15.8 96.4-18.6 25.2 9-34.3 19.8z"/><linearGradient id="d" gradientUnits="userSpaceOnUse" x1="111.9" y1="129.5" x2="278" y2="85"><stop offset="0" stop-color="#db8a89" stop-opacity="0"/><stop offset=".7" stop-color="#db8a89"/></linearGradient><path fill="url(#d)" d="M115.2 141.8l13.6-26.7L237 82.8l17.8.4-4.8 6.5 31 6.3z"/><linearGradient id="e" gradientUnits="userSpaceOnUse" x1="121.1" y1="160.1" x2="299.8" y2="95"><stop offset=".1" stop-color="#db8a89" stop-opacity="0"/><stop offset=".7" stop-color="#db8a89"/></linearGradient><path d="M302 101l-183.3 38-3.5 5 152.3-15.3 29.2-16.4-6.6-2.5L302 101zm-40.6 16.4l10.7-4.7 4.4 3-15.1 1.7z" fill="url(#e)"/><linearGradient id="f" gradientUnits="userSpaceOnUse" x1="144.5" y1="226.6" x2="287.5" y2="251.9"><stop offset=".1" stop-color="#db8a89" stop-opacity="0"/><stop offset=".7" stop-color="#db8a89"/></linearGradient><path fill="url(#f)" d="M226.5 264.8l-2.5-10 65.3-13.5-31.8-18.5-111.5-4.6-1.5 21z"/><g fill="#fff"><path d="M65.2 132l192.3-66 32.5 3-224.8 67.2zm183.3-18.7h-34.8L66.2 146v3.2l182.3-35.9m50 24.5l-185 8.2-46 9-.5 1.8 229.3-14.6 4.2-2.4M67 218l202 69.5 21.1-6.5L67 213.2zm1-9.5l201.5 46.3 6-3-208.2-45zm161.5 26.8l15.7-8.5 14.6 11.2zm-40-131.7l2 11.6 9.3-8.5zm59-9.5l7.6-7.6 5.3 10.8-6.5 5.5z"/></g><path fill="#fff" d="M69.1 69v212h221v9H60V60h230.1v9z"/><g><g fill="#fff" stroke="#000" stroke-width="5" stroke-miterlimit="10"><path d="M113 128.6l19-12.8-14.3-16.3a4.2 4.2 0 00-5.3-.7l-20.8 13a3.5 3.5 0 00-1.7 2.7c-.5 5.9-2 25 .2 30.2 2.6 6 16.5 23.1 18.2 23.6s4.7-5 4.7-5-13.3-16.1-14.4-21c-1.2-5-1-14.7.6-16l13.8 2.3z"/><circle cx="138.3" cy="146.5" r="28.5"/></g><g fill="#fff" stroke="#000" stroke-width="5" stroke-miterlimit="10"><path d="M144.5 217l19-12.8-14.3-16.2a4.2 4.2 0 00-5.3-.7l-20.8 13a3.5 3.5 0 00-1.7 2.7c-.5 5.9-2 25 .2 30.2 2.6 6 16.5 23.1 18.2 23.6s4.7-5 4.7-5-13.2-16.1-14.4-21c-1.2-5-1-14.7.6-16l13.8 2.3z"/><circle cx="169.8" cy="235" r="28.5"/></g><path d="M212.4 159.3l21.4-14.5-16.1-18.3a4.8 4.8 0 00-6-.8L188 140.4a4 4 0 00-1.8 3c-.6 6.7-2.3 28.3.2 34.1 2.9 6.9 18.6 26.2 20.6 26.8 2 .5 5.3-5.7 5.3-5.7s-15-18.3-16.3-23.8c-1.3-5.6-1.2-16.6.6-18l15.7 2.5z" fill="#fff" stroke="#000" stroke-width="5" stroke-miterlimit="10"/><circle cx="240.9" cy="179.6" r="32.2" fill="#fff" stroke="#000" stroke-width="5" stroke-miterlimit="10"/><path d="M260.1 205.4c-18.7-3.8-18.9-26.2-18.9-26.2-13.9 6.4-12.2 30.3-12.2 30.3l12.6 2.3 12-2.6 6.5-3.8z"/><path fill="#fff" d="M231.6 185l8.7 3.7-2.7 6.8 7 .4-3 5 7.9.4-5 6.6 10.7 1.6-18 .8 6.2-6.6-9.7-.6 4.7-4.8-6-1 2.7-5.6-5-2.9z"/><path d="M255 175.3c1.8 3.3 5.5 3.3 6.8 3.2a.8.8 0 01.7.3c.8 1 2.5 3.8-2.7 2.5-6.5-1.6-5.8-5.6-5.8-5.6s0-.3.3-.4h.6z"/></g></g></switch></svg>