<svg xmlns="http://www.w3.org/2000/svg" viewBox="0 0 350 350"><switch><g><path fill="#fff" d="M59.9 60H290v230H60z"/><path fill="#891716" d="M78.9 79H271v192H79z"/><radialGradient id="a" cx="175.1" cy="175" r="96" gradientTransform="matrix(1 0 0 1.2 0 -35)" gradientUnits="userSpaceOnUse"><stop offset="0" stop-color="#fd6566"/><stop offset=".2" stop-color="#f96263" stop-opacity=".8"/><stop offset=".4" stop-color="#ec5a5b" stop-opacity=".6"/><stop offset=".6" stop-color="#d84c4c" stop-opacity=".4"/><stop offset=".8" stop-color="#bb3838" stop-opacity=".3"/><stop offset=".9" stop-color="#961f1f" stop-opacity=".1"/><stop offset="1" stop-color="#891716" stop-opacity="0"/></radialGradient><path fill="url(#a)" d="M79.1 79h192v192h-192z"/><path d="M69.2 69.4v211.4h211.6V69.4H69.2zM271 271H79V79h192v192z"/><path d="M77 83.5s2.6-5.8 7.5-7-5.8-3.3-5.8-3.3l-3.2 10.3H77zm1.3 3.4s4.6-8.5 10.3-11.3 7.3-2.3 7.3-2.3l.6 3.2S84.3 84 76.7 96.8s-4.7 4.5-4.7 4.5l6.3-14.4zm-2.4 13.4s4.7-6.1 10.8-10.4c.6-.4 2.6-1.6 2.8-1.3.2.3-1.5 1.9-6.3 7.2-4 4.2-6 6.3-6.5 7.2-3 5-.8-2.7-.8-2.7z" stroke="#000" stroke-miterlimit="10"/><path d="M169.8 265.3A99 99 0 0196.5 211a100 100 0 01-7.6-32 86.5 86.5 0 012-22.3 82.2 82.2 0 0115.3-33.3c7.9-10.2 18.4-18.3 17-20.2-.8-1.2-8.2-.2-13.2 2.7-.8.4-2.7 1.5-3.9 1-1.5-.9-1.5-3.5-1.5-3.5C107 93.9 135 74.9 135 74.9a39 39 0 00-20.5 1.1c-10.1 3.5-16.6 11.2-29.1 26.5a248.7 248.7 0 00-9.8 12.8c0 1.3-.1 3 .3 3 .5.2 1.2-1.1 1.4-1.5 2.2-4.5 8.1-10.5 8.1-10.5.9-1 1.9-2 2.1-1.9.3.3-2 3.9-2.2 4.3-3.5 5.7-8 10.3-8 10.3l-4.1 3.4 1.6 122.7s-6.3 3.4 2.1 13.7a62.4 62.4 0 0018.3 15.3l19.6-.2a65.2 65.2 0 01-26.9-22.8c-.9-2.2-3.7-13.2 2.2-1s23.8 21.2 23.8 21.2 2.4 1.5 3.6 2.6l84.6-.8s28.1 11.1 46.5 1 25-22.4 25-22.4l.9-50.2c-19.6 43.9-63.1 69.4-104.6 63.8zm102.6-46.7c.6.9-.8 3.3-2.5 4.8-1.6 1.4-3.7 2.2-4 1.8 0-.1 0-.7 1.1-1.5a14 14 0 004-5.4c.8-.1 1.2 0 1.4.3z"/><path d="M258 75.6s10.8 2 17.6 15-1.2 1.5-1.2 1.5S266 78.9 258 76.8c-8-2.2 0-1.2 0-1.2zM238 74c11.4 9.3 13.7 11.7 13.4 12-.2.4-3.5-1.2-6.2-3.2-4.8-3.4-6.1-6.7-10.6-8.5-.5-.2-1.7-.6-1.6-.8 0-.4 5 .5 5 .5zm-10 .4s19.3 12.8 25.7 20.2c.8.9 2.9 3.6 2.5 4-.3.3-3.2-2.1-7.1-5.3-12-9.7-17.9-14.6-24.1-18-2.2-1.3-4.9-2.7-4.7-3 .1-.4 4.2.9 7.8 2.1z" stroke="#000" stroke-miterlimit="10"/><circle cx="176.7" cy="175" r="83" fill="none" stroke="#fff" stroke-width="7" stroke-miterlimit="10"/><circle cx="176.7" cy="175" r="49.8" fill="#fff"/><circle cx="176.7" cy="175" r="25"/><path d="M173.7 113.5h6v123h-6z"/><path d="M113.8 172.3h125.7v5.4H113.8zm58-67.2V51.6h9.8v53.5z"/><path fill="#fff" d="M173.9 105.1V51.6h5.5v53.5z"/><path d="M171.7 299.8v-53.5h9.9v53.5z"/><path fill="#fff" d="M173.9 299.8v-53.5h5.5v53.5z"/><path d="M247 169.7h53.4v9.9H247z"/><path fill="#fff" d="M247 171.9h53.4v5.5H247z"/><path d="M52.3 170.2h53.5v9.8H52.3z"/><path fill="#fff" d="M52.3 172.3h53.5v5.5H52.3z"/><circle cx="176.7" cy="175" r="5.8" fill="#fff"/></g></switch></svg>