<svg xmlns="http://www.w3.org/2000/svg" viewBox="0 0 350 350"><switch><g><path fill-rule="evenodd" clip-rule="evenodd" fill="#fff" d="M60 60h230v230H60z"/><path fill-rule="evenodd" clip-rule="evenodd" d="M70 70h210v210H70z"/><linearGradient id="a" gradientUnits="userSpaceOnUse" x1="175" y1="80" x2="175" y2="270"><stop offset="0" stop-color="#156609"/><stop offset="1" stop-color="#115107"/></linearGradient><path fill-rule="evenodd" clip-rule="evenodd" fill="url(#a)" d="M80 80h190v190H80z"/><linearGradient id="b" gradientUnits="userSpaceOnUse" x1="126.8" y1="318" x2="127.3" y2="318" gradientTransform="scale(-111.9632 111.9632) rotate(-1.8 -10091.2 4249.2)"><stop offset="0" stop-color="#499247"/><stop offset="1" stop-color="#1b6219" stop-opacity="0"/></linearGradient><path d="M80 80h18l18 3-36-1v-2z" fill-rule="evenodd" clip-rule="evenodd" fill="url(#b)"/><linearGradient id="c" gradientUnits="userSpaceOnUse" x1="126" y1="326.5" x2="126.6" y2="326.5" gradientTransform="matrix(-211.5771 3.4971 .4561 27.597 26608.6 -9363.3)"><stop offset="0" stop-color="#499247"/><stop offset="1" stop-color="#1b6219" stop-opacity="0"/></linearGradient><path d="M126 88l-46-3v6l46-3z" fill-rule="evenodd" clip-rule="evenodd" fill="url(#c)"/><linearGradient id="d" gradientUnits="userSpaceOnUse" x1="126.4" y1="316.6" x2="127" y2="316.6" gradientTransform="scale(-179.2094 179.2094) rotate(5.6 3295 -1141.5)"><stop offset="0" stop-color="#499247"/><stop offset="1" stop-color="#1b6219" stop-opacity="0"/></linearGradient><path d="M132 93l-52 2v6l52-8z" fill-rule="evenodd" clip-rule="evenodd" fill="url(#d)"/><linearGradient id="e" gradientUnits="userSpaceOnUse" x1="128.6" y1="317.8" x2="129.2" y2="317.8" gradientTransform="scale(-80.7378 80.7378) rotate(17.7 1083 -259.2)"><stop offset="0" stop-color="#499247"/><stop offset="1" stop-color="#1b6219" stop-opacity="0"/></linearGradient><path d="M114 107l-34 9v3l34-12z" fill-rule="evenodd" clip-rule="evenodd" fill="url(#e)"/><linearGradient id="f" gradientUnits="userSpaceOnUse" x1="126.3" y1="315.8" x2="126.9" y2="315.8" gradientTransform="scale(-239.0176 239.0176) rotate(22.8 844.5 -156.3)"><stop offset="0" stop-color="#499247"/><stop offset="1" stop-color="#1b6219" stop-opacity="0"/></linearGradient><path d="M128 107l-48 16v8l48-24z" fill-rule="evenodd" clip-rule="evenodd" fill="url(#f)"/><linearGradient id="g" gradientUnits="userSpaceOnUse" x1="126.9" y1="315.9" x2="127.5" y2="315.9" gradientTransform="scale(-177.65 177.65) rotate(28.8 676.3 -90.1)"><stop offset="0" stop-color="#499247"/><stop offset="1" stop-color="#1b6219" stop-opacity="0"/></linearGradient><path d="M136 109l-56 26v8l56-34" fill-rule="evenodd" clip-rule="evenodd" fill="url(#g)"/><linearGradient id="h" gradientUnits="userSpaceOnUse" x1="127.3" y1="315.5" x2="127.9" y2="315.5" gradientTransform="scale(-153.6356 153.6356) rotate(41.3 480.6 -11.8)"><stop offset="0" stop-color="#499247"/><stop offset="1" stop-color="#1b6219" stop-opacity="0"/></linearGradient><path d="M125 128l-45 36v5l45-41z" fill-rule="evenodd" clip-rule="evenodd" fill="url(#h)"/><linearGradient id="i" gradientUnits="userSpaceOnUse" x1="126.3" y1="315.2" x2="126.9" y2="315.2" gradientTransform="scale(-281.9161 281.9161) rotate(44.5 447.6 2.8)"><stop offset="0" stop-color="#499247"/><stop offset="1" stop-color="#1b6219" stop-opacity="0"/></linearGradient><path d="M139 123l-38 43-21 20v-9l17-18 42-36z" fill-rule="evenodd" clip-rule="evenodd" fill="url(#i)"/><linearGradient id="j" gradientUnits="userSpaceOnUse" x1="127.1" y1="315.1" x2="127.6" y2="315.1" gradientTransform="scale(-182.464 182.464) rotate(50.1 399.8 21)"><stop offset="0" stop-color="#499247"/><stop offset="1" stop-color="#1b6219" stop-opacity="0"/></linearGradient><path d="M144 125l-34.5 48L80 205v-7l25-31 39-42z" fill-rule="evenodd" clip-rule="evenodd" fill="url(#j)"/><linearGradient id="k" gradientUnits="userSpaceOnUse" x1="126.3" y1="314.7" x2="126.9" y2="314.7" gradientTransform="scale(-270.6221 270.6221) rotate(62.3 323 52.6)"><stop offset="0" stop-color="#499247"/><stop offset="1" stop-color="#1b6219" stop-opacity="0"/></linearGradient><path d="M143 146L82 270h-2v-15l63-109z" fill-rule="evenodd" clip-rule="evenodd" fill="url(#k)"/><linearGradient id="l" gradientUnits="userSpaceOnUse" x1="126.7" y1="314.4" x2="127.3" y2="314.4" gradientTransform="scale(-191.945 191.945) rotate(66.9 300.1 61.3)"><stop offset="0" stop-color="#499247"/><stop offset="1" stop-color="#1b6219" stop-opacity="0"/></linearGradient><path d="M154 135l-17 51-40 84 33-87 24-48z" fill-rule="evenodd" clip-rule="evenodd" fill="url(#l)"/><linearGradient id="m" gradientUnits="userSpaceOnUse" x1="126.4" y1="314.4" x2="127" y2="314.4" gradientTransform="scale(-244.5251 244.5251) rotate(73.4 273.5 72.2)"><stop offset="0" stop-color="#499247"/><stop offset="1" stop-color="#1b6219" stop-opacity="0"/></linearGradient><path d="M142 182l-25 88 33-89 8-42-16 43z" fill-rule="evenodd" clip-rule="evenodd" fill="url(#m)"/><linearGradient id="n" gradientUnits="userSpaceOnUse" x1="126.3" y1="314.1" x2="126.9" y2="314.1" gradientTransform="scale(-243.5792 243.5792) rotate(82.2 242.7 84.5)"><stop offset="0" stop-color="#499247"/><stop offset="1" stop-color="#1b6219" stop-opacity="0"/></linearGradient><path d="M168 156l-7 49-7 65h5l9-114z" fill-rule="evenodd" clip-rule="evenodd" fill="url(#n)"/><linearGradient id="o" gradientUnits="userSpaceOnUse" x1="126.2" y1="313.9" x2="126.8" y2="313.9" gradientTransform="scale(-237.8635 237.8635) rotate(88.7 223 92.4)"><stop offset="0" stop-color="#499247"/><stop offset="1" stop-color="#1b6219"/></linearGradient><path d="M169 196l3 74 5-74-4-57-4 57z" fill-rule="evenodd" clip-rule="evenodd" fill="url(#o)"/><linearGradient id="p" gradientUnits="userSpaceOnUse" x1="126.1" y1="313.9" x2="126.6" y2="313.9" gradientTransform="scale(255.9118 -255.9118) rotate(-85.3 -107.3 224.8)"><stop offset="0" stop-color="#499247"/><stop offset="1" stop-color="#1b6219"/></linearGradient><path d="M188 195l-9-53 3 54 7 74-1-75z" fill-rule="evenodd" clip-rule="evenodd" fill="url(#p)"/><linearGradient id="q" gradientUnits="userSpaceOnUse" x1="125.9" y1="313.4" x2="126.5" y2="313.4" gradientTransform="scale(210.8824 -210.8824) rotate(-74.1 -144.6 239.1)"><stop offset="0" stop-color="#499247"/><stop offset="1" stop-color="#1b6219" stop-opacity="0"/></linearGradient><path d="M192 149l34 121h9l-43-121z" fill-rule="evenodd" clip-rule="evenodd" fill="url(#q)"/><linearGradient id="r" gradientUnits="userSpaceOnUse" x1="125.7" y1="314.3" x2="126.3" y2="314.3" gradientTransform="matrix(76.9371 190.5943 487.075 -196.6164 -162565.8 38004.4)"><stop offset="0" stop-color="#499247"/><stop offset="1" stop-color="#1b6219" stop-opacity="0"/></linearGradient><path d="M192 132l26 55 28 83-32.5-74-21.5-64z" fill-rule="evenodd" clip-rule="evenodd" fill="url(#r)"/><linearGradient id="s" gradientUnits="userSpaceOnUse" x1="125.7" y1="314" x2="126.3" y2="314" gradientTransform="matrix(87.4286 174.8571 331.0623 -165.5315 -114738.5 30134.3)"><stop offset="0" stop-color="#499247"/><stop offset="1" stop-color="#1b6219" stop-opacity="0"/></linearGradient><path d="M195 128l34 55 41 87-45-78-30-64z" fill-rule="evenodd" clip-rule="evenodd" fill="url(#s)"/><linearGradient id="t" gradientUnits="userSpaceOnUse" x1="125.3" y1="313.4" x2="125.9" y2="313.4" gradientTransform="scale(256.4267 -256.4267) rotate(-51.6 -261.2 285.3)"><stop offset="0" stop-color="#499247"/><stop offset="1" stop-color="#1b6219"/></linearGradient><path d="M213.5 135l56.5 66v10l-56.5-76" fill-rule="evenodd" clip-rule="evenodd" fill="url(#t)"/><linearGradient id="u" gradientUnits="userSpaceOnUse" x1="125" y1="313.5" x2="125.6" y2="313.5" gradientTransform="matrix(174.8571 183.6 201.3672 -191.7781 -84776.4 37309.1)"><stop offset="0" stop-color="#499247"/><stop offset="1" stop-color="#1b6219" stop-opacity="0"/></linearGradient><path d="M208 123l40 36 22 23v9l-28.3-29-33.7-39z" fill-rule="evenodd" clip-rule="evenodd" fill="url(#u)"/><linearGradient id="v" gradientUnits="userSpaceOnUse" x1="124.8" y1="312.6" x2="125.4" y2="312.6" gradientTransform="matrix(150.3771 120.6514 105.0835 -130.9736 -51409.8 25992.8)"><stop offset="0" stop-color="#499247"/><stop offset="1" stop-color="#1b6219" stop-opacity="0"/></linearGradient><path d="M270 171l-62-54 41 28 21 19v7z" fill-rule="evenodd" clip-rule="evenodd" fill="url(#v)"/><linearGradient id="w" gradientUnits="userSpaceOnUse" x1="124.2" y1="310.2" x2="124.8" y2="310.2" gradientTransform="matrix(131.1429 68.1943 38.1888 -73.44 -27916.1 14421.7)"><stop offset="0" stop-color="#499247"/><stop offset="1" stop-color="#1b6219" stop-opacity="0"/></linearGradient><path d="M232.5 120l37.5 21v-3l-37.5-18z" fill-rule="evenodd" clip-rule="evenodd" fill="url(#w)"/><linearGradient id="x" gradientUnits="userSpaceOnUse" x1="124" y1="309.3" x2="124.6" y2="309.3" gradientTransform="matrix(127.6457 62.9486 31.4743 -63.8229 -25334.2 12046.2)"><stop offset="0" stop-color="#499247"/><stop offset="1" stop-color="#1b6219" stop-opacity="0"/></linearGradient><path d="M218 107l52 26v-8l-52-18" fill-rule="evenodd" clip-rule="evenodd" fill="url(#x)"/><linearGradient id="y" gradientUnits="userSpaceOnUse" x1="124.3" y1="310.6" x2="124.9" y2="310.6" gradientTransform="matrix(234.3086 69.9429 24.7585 -82.941 -36609.3 17166.2)"><stop offset="0" stop-color="#499247"/><stop offset="1" stop-color="#1b6219" stop-opacity="0"/></linearGradient><path d="M213.5 101l56.5 20v-8l-56.5-12z" fill-rule="evenodd" clip-rule="evenodd" fill="url(#y)"/><linearGradient id="z" gradientUnits="userSpaceOnUse" x1="122.4" y1="291.9" x2="123" y2="291.9" gradientTransform="matrix(111.9086 3.4971 .4371 -13.9886 -13585.1 3751.9)"><stop offset="0" stop-color="#499247"/><stop offset="1" stop-color="#1b6219" stop-opacity="0"/></linearGradient><path d="M238 95l32 4v-2l-32-2z" fill-rule="evenodd" clip-rule="evenodd" fill="url(#z)"/><linearGradient id="A" gradientUnits="userSpaceOnUse" x1="122.9" y1="300.1" x2="123.5" y2="300.1" gradientTransform="matrix(143.3829 2.6229 .3991 -21.8192 -17497 6314.7)"><stop offset="0" stop-color="#499247"/><stop offset="1" stop-color="#1b6219" stop-opacity="0"/></linearGradient><path d="M224 89l46 4v-7l-46 3z" fill-rule="evenodd" clip-rule="evenodd" fill="url(#A)"/><linearGradient id="B" gradientUnits="userSpaceOnUse" x1="123.4" y1="298.6" x2="123.9" y2="298.6" gradientTransform="matrix(194.0914 -20.9829 -1.9075 -17.6447 -23157.9 7942.6)"><stop offset="0" stop-color="#499247"/><stop offset="1" stop-color="#1b6219" stop-opacity="0"/></linearGradient><path d="M215 85l55-2v-3h-31l-24 5z" fill-rule="evenodd" clip-rule="evenodd" fill="url(#B)"/><g fill-rule="evenodd" clip-rule="evenodd"><path d="M280 290H76v-10l13-15 21-18 1 1 16-16-12 18 29-39 2 1 4-6 8 5 13-4-8 1 12-3h14l6 3 2 2 2 3v2l7-5 4-1h3l2 1 1 2 3-2h3l4 3 1 4 15 24-2-5 7 9 6 11 12 4 15 20v10zM95 263l-16 17h2l14-17z" fill="#fff"/><path d="M78 290l20-25 14-11 5 3h3l31-45 5 3 12 1 3-2h14l10 8 2-3 5-4 8 7 9-7 28 47 11 3 15 25-9 1-13 6h-3l-2-1 5-1 3-3-10 4-3 3-6 1 5-3h-9l-22 7 4-4-7 3 1-3-8 5h-13l2 2-13 5-40-11 16 8-19-5-15-4 5 3-30-9v-2l-5-1h-2l2 2-9-3z"/><path d="M112 259l3 2 7 1-4 10-14 7 8-20zm23-16l4 33v8l5-10 12-16 7.6 10 11.4-26 6 18 21 12-4-18 5-6v-16l19 18 12 19-1-4-2-4 3-7-4-13-5-7 3 13-6-8v-4l-4-7v-7l-10 6-10-1-15 9-20-8-11-9-17 25z" fill="#fff"/></g><g fill-rule="evenodd" clip-rule="evenodd"><path d="M174.3 196a.5.5 0 01-.8-.3 44647.3 44647.3 0 00-1.1-12.5l-1.2-7.5a.5.5 0 00-1 .1v.4l1.1 5.3a.5.5 0 01-.9.4l-.5-.8a.5.5 0 010-.2l-.6-4a.5.5 0 000-.2l-1.9-2.7a.5.5 0 010-.3l-1.4-12.6a.5.5 0 010-.3l.6-1a.5.5 0 00-.6-.6 23.7 23.7 0 01-.3 0 .5.5 0 01-.6-.1.5.5 0 00-1 .2l.6 12a.5.5 0 010 .2l-.8 2.8a.5.5 0 000 .2l.2 3.3a.5.5 0 01-1 .2l-3.6-13-.4-4.5a.5.5 0 000-.1l-3.5-9.5-2-11.2a.4.4 0 000-.1l-2.2-6.1a.5.5 0 010-.3V132a.5.5 0 00-.1-.5l-1-.8a.5.5 0 01-.2-.4l-.2-2.7a.5.5 0 000-.2 405.7 405.7 0 01-.7-1 .5.5 0 010-.3v-4.9a.5.5 0 00-.2-.3l-2.4-2.9a.5.5 0 00-.9.4l.1 4.7 1.4 9.6 1.5 5.9 1 7.6.8 7.4a.5.5 0 01-1 .3l-.9-1.4a.5.5 0 010-.1l-.3-1a.5.5 0 010-.5l.3-.4a.5.5 0 000-.3v-1a.5.5 0 00-.1-.4l-.4-.2a.5.5 0 01-.2-.5l.2-3.5a.5.5 0 000-.2l-.3-1a.5.5 0 010-.2l.1-1.8a.5.5 0 000-.2 2826.6 2826.6 0 01-.5-1.5l-.6-2.5-1.2-3.4a.5.5 0 01-1.4-3.6l-1.7-10-1-10.6a.5.5 0 010-.1v-2.8a.5.5 0 000-.1l-.7-2.7a1965 1965 0 00-.8-1.8.5.5 0 010-.3l.4-2a.5.5 0 01.1-.3l.8-.9a.5.5 0 00.2-.3l-.3-2.9a.5.5 0 000-.3l-1.5-1.7a.5.5 0 01-.2-.3l.2-3.8a.5.5 0 010-.2l1.6-2.6a.5.5 0 000-.5l-.4-.7a.5.5 0 010-.2l-.4-2a.5.5 0 00-.3-.5l-.4-.1a.5.5 0 01-.3-.8l.9-1.4a.5.5 0 000-.1l.3-1.9a.5.5 0 010-.1l2-4.4 2-4.6a.5.5 0 01.1 0l7-8.9a.5.5 0 01.1 0l3.6-3 5.2-2.5 6.5-2 4.3-.6a.5.5 0 01.1 0l4.4.5a.5.5 0 01.2 0l3.4 1.5a.5.5 0 00.1 0l3.7 1a.5.5 0 01.2.1 3685.2 3685.2 0 012.7 1.5 26619.2 26619.2 0 015.5 3.6l12 9.5v.1l2.5 4a.5.5 0 010 .1l1.4 4.1v.2l.3 4.8a.5.5 0 010 .2 2485.8 2485.8 0 01-.6 2.2l-.3 1.8a.5.5 0 000 .4l1 1.5.2.3-.1 2.2v5.1a.5.5 0 00.3.5.5.5 0 01.5.6l-.2 1.8a.5.5 0 00.6.4.5.5 0 01.6.5l-.4 5.1a.5.5 0 000 .3l1.5 2.6a.5.5 0 010 .5l-2 2.3a.5.5 0 00-.2.3v2.6l.1.4.8.8a.5.5 0 010 .7l-.9.9a.5.5 0 000 .3l-.4 4a.5.5 0 010 .3l-1.7 2.6-1 2.3-.6 1.3a.5.5 0 000 .2l.1 2.3a.5.5 0 010 .3l-1 1.4a.5.5 0 000 .2l-.7 2.4a.4.4 0 000 .1v.4a.5.5 0 01-1 .2l-.5-.7a.5.5 0 010-.7l.4-.3a.5.5 0 00.2-.6l-.3-.7a.5.5 0 010-.5l.9-1.1a.5.5 0 000-.2l.6-1.7a.5.5 0 000-.5l-.9-1a.5.5 0 010-.6l.3-.5a.5.5 0 00-.1-.7l-.4-.3a.5.5 0 01-.2-.5l.2-1.3a.5.5 0 01.5-.5.5.5 0 00.4-.6 255 255 0 01-.2-.8l-.3-1.3a.5.5 0 010-.2l.9-4.8a.5.5 0 011-1.9h.5a.5.5 0 00.5-.3l.3-.6a.5.5 0 00-.4-.6l-.4-.1a.5.5 0 01-.4-.5l-.2-3.5a.5.5 0 01.2-.4l.5-.3a.5.5 0 00.3-.6l-.7-1.8a.5.5 0 00-1-.1l-.4.8a.5.5 0 00-.1.2l-.5 7.1a.5.5 0 01-.1.4l-.8.7a.5.5 0 00-.1.4v2.3l-.4 2.6a.5.5 0 01-.2.3l-.6.5a.5.5 0 00-.1.5l.2 1.4v.2l.5.7a.5.5 0 010 .4l-.5 1.3a.5.5 0 01-.3.3l-.5.2a.5.5 0 00-.4.5l.1 1.6a.5.5 0 01-.2.4l-.2.2a.5.5 0 00-.3.5l.5 2-.1 2.9a.5.5 0 010 .1l-.7 2.3-.7 4-.5 2a.5.5 0 01-.3.4l-.7.2a.5.5 0 00-.3.5l-.4 5a.5.5 0 010 .2l-1.5 2.7a.5.5 0 000 .2l-.8 4.3-1.5 4.2a.5.5 0 01-1-.2l-.2-5.3a.5.5 0 010-.2l.4-1.1a.5.5 0 00-.3-.6l-.6-.3a.5.5 0 01-.2-.8l.6-.7a.5.5 0 00.1-.4l-.2-2.6a.5.5 0 000-.2l-.4-.5a.5.5 0 010-.5l.8-1.4a.5.5 0 000-.2l-.1-2.7a.5.5 0 00-1-.1l-2.6 10.3-1.8 6.9-1.6 6.6-.8 2.7a.5.5 0 01-.3.3l-1 .3a.5.5 0 00-.3.5v2a.5.5 0 00.3.5l1 .3a.5.5 0 01.3.5l-.2 1.3a.5.5 0 010 .3l-1 1a.5.5 0 000 .2l-.3 5a.5.5 0 010 .1l-.6 1a.5.5 0 000 .4v1.7a.5.5 0 00.3.3l.5.5.2.2.1.7a.5.5 0 010 .4l-1 1.3a.5.5 0 000 .3l.2 1.4c0 .3-.1.5-.3.6l-.5.1a.5.5 0 01-.4 0l-.5-.4a.5.5 0 01-.2-.3l-.2-1.7a.5.5 0 010-.4l1-1.1a.5.5 0 000-.4l-.1-1.3a.5.5 0 00-.5-.5h-.1a.5.5 0 01-.5-.4l-.1-1.1a.5.5 0 000-.2l-.7-1.2a.5.5 0 010-.5l.7-1.3a.5.5 0 000-.4l-.5-1a.5.5 0 00-.4-.4.5.5 0 00-.7.5v2.3a.5.5 0 01-.9.2 14.9 14.9 0 000-.3.5.5 0 01-.1 0l-.7-3.3a.4.4 0 00-.6-.3.2.2 0 00-.1.1l.2 6.2-1 14a.4.4 0 01-.2.2z" fill="#fff"/><path d="M158 60.5a.5.5 0 01-.2 0h-1.2a.5.5 0 01-.4-.7l.2-.5a.5.5 0 01.4-.2l1.3-.3a.5.5 0 00.2 0l2-1a.6.6 0 010-.1l2.6-1a.5.5 0 000-.1l2.6-1.6a.5.5 0 01.2 0l4.8-.3h5a.5.5 0 01.1 0l2.5.7 2.3.4c.2 0 .3.2.4.3l.4 1.3a.5.5 0 00.2.2l.3.2c.2.2.5.1.7 0v-.2a.5.5 0 01.6-.1h.3a.5.5 0 01.2.3l.8 1.1.6.7a.5.5 0 010 .7h-.2a.5.5 0 01-.2.2h-2a.5.5 0 01-.3 0 490.4 490.4 0 00-1.2-1.2l-1.8-1.5a.5.5 0 00-.1 0l-3.5-1.2a.5.5 0 00-.1 0l-2.7-.2a14241.8 14241.8 0 00-4.1.2l-3.7.6-2.4.7a.5.5 0 00-.1 0l-2 1.4-2.4 1.2zm17.4 79.9a.4.4 0 01.7 0l1.5 2.7a.5.5 0 010 .2l.8 3.1a.5.5 0 010 .2l-.3 7.5a.5.5 0 010 .1l-.6 1.5a.5.5 0 000 .2l.2 5.7a.5.5 0 01-.5.5.5.5 0 01-.5-.4l-.4-1a.5.5 0 010-.4l.5-1.7a.5.5 0 000-.4l-1-1.7a.5.5 0 010-.2l-.2-6.7a.5.5 0 000-.2l-.5-.8a.5.5 0 010-.3v-1.2a.5.5 0 01.3-.4.5.5 0 00.3-.5l.1-2a.5.5 0 01.1-.2l.2-.4a.5.5 0 000-.6c-.2 0-.3-.2-.4-.3a.5.5 0 01-.1-.3l-.3-2zm-3.2.3a.5.5 0 001-.2v-8l.2-2.2a.5.5 0 011 0v.3l.4 4c0 .3.2.5.5.5a.4.4 0 00.4-.5v-5a.5.5 0 011-.2l2.7 6v.2l.3 1.8a.5.5 0 00.6.4l.5-.2a.5.5 0 00.3-.3l.6-1.3a.5.5 0 000-.2v-1.7a.5.5 0 01.2-.5l.4-.2a.5.5 0 00.1-.6l-.5-1.3a.5.5 0 010-.3l.5-1.7.4-1a.5.5 0 000-.3l-.3-1.5a.5.5 0 010-.2l.3-1.9.5-2a.5.5 0 01.5-.4c.3 0 .4.3.4.5v4a.5.5 0 00.7.4.5.5 0 00.4-.5l-.2-2.5a.5.5 0 010-.3l1.6-2.9.8-1.8a.5.5 0 01.1-.1l2.6-3 3.5-4.4a.5.5 0 003.5-5.1l1.5-3.8 1.7-6.6a.5.5 0 01.2-.2l1-.8a.5.5 0 00.3-.4l.2-4.3a.5.5 0 000-.1l-1-3.6-1.6-3-1.9-2.6a.3.3 0 010-.2.5.5 0 01.8-.3l1.7 2 1.4 3a.4.4 0 00.6-.3l-.4-2.4a.5.5 0 000-.2l-2.3-3.7a.5.5 0 000-.1l-4.4-4-3.3-2.9-3.9-2.7-4.8-2.5-5.8-2.1-3.5-1.3-1.7-.2a.4.4 0 00-.3.6l1.2 1.2.1.2.3.9a.5.5 0 010 .3l-.2.4a.5.5 0 01-.4.2h-.4a.5.5 0 01-.3 0l-.5-.3-1.1-.4a.5.5 0 00-.2 0l-2.2.2-2 .1-.9.2a.5.5 0 00-.2.2l-.4.4a.5.5 0 01-.6 0h-.3a.5.5 0 01-.2-.6v-.4a.5.5 0 01.5-.4 745.8 745.8 0 001-.1.5.5 0 01.4.1l.2.2a.5.5 0 00.5.1h.3a.5.5 0 00.3-.3l.1-.2a.5.5 0 01.4-.2l2-.2 1.7-.2a.4.4 0 00.3-.3.4.4 0 000-.4.3.3 0 00-.3-.1h-4.7a.6.6 0 00-.1 0l-2.4.6a.5.5 0 00-.1 0l-2.6 1.2-3 1.9a.5.5 0 00-.1 0l-3.3 3.6-3.4 5.1a.6.6 0 000 .1l-2 4a.5.5 0 000 .2l-.4 2v2.3a.5.5 0 00.1.2l.8 1.6.8 1.3.2.3a.5.5 0 01.1.3l-.1 7.9.3 3.7a.6.6 0 000 .1l.9 3.2v.3a.5.5 0 001-.2.5.5 0 01-.9-3.5l-.2-3.6v-8a.5.5 0 01.3-.4l.3-.2a.5.5 0 01.6 0v.1c.2.2.3.5.1.7l-.4.6a.5.5 0 00-.1.3l-.2 1.3.1 5.8.7 4.5.9 3.9 1.4 3.7a.5.5 0 000 .1l1.5 2v.1l2 2.4 2 2.4a.5.5 0 010 .1l1 2a.6.6 0 010 .2l.3 1.7a.5.5 0 00.1.2l1 1.1 1 1.4.1.1.3 1a.5.5 0 010 .2l-.2 2.6a.5.5 0 000 .1l.1 1a.5.5 0 00.4.4h.1a.5.5 0 00.6-.3l.3-1 .2-1.3.1-3.6a.4.4 0 01.8.1l.4 2.2a.5.5 0 000 .1l1 1.6a.5.5 0 01.1.2l.2 2.3a.5.5 0 000 .2l.4.6a.5.5 0 010 .4v.6l-.3 1a.5.5 0 000 .4l.6 1.2a.6.6 0 010 .1l.5 2 .4 1.9a.5.5 0 00.2.2l.8.8a.5.5 0 01.2.2l.5 2.2a.6.6 0 000 .1v.1z"/></g></g></switch></svg>