<svg xmlns="http://www.w3.org/2000/svg" viewBox="0 0 350 350"><switch><g><path d="M290 240.8a131.9 131.9 0 000-131.6V60h-49.2a131.9 131.9 0 00-131.6 0H60v49.2a131.9 131.9 0 000 131.6V290h49.2a131.9 131.9 0 00131.6 0H290v-49.2z" fill="#fff"/><path d="M280.5 237.3a122 122 0 000-124.6V69.5h-43.2a122 122 0 00-124.6 0H69.5v43.2a122 122 0 000 124.6v43.2h43.2a122 122 0 00124.6 0h43.2v-43.2z"/><linearGradient id="a" gradientUnits="userSpaceOnUse" x1="119.5" y1="78.9" x2="230.5" y2="271.1"><stop offset="0" stop-color="#a71e4d"/><stop offset=".1" stop-color="#bf1656"/><stop offset=".3" stop-color="#d50e5f"/><stop offset=".4" stop-color="#e20a64"/><stop offset=".5" stop-color="#e70866"/><stop offset=".6" stop-color="#de0b63"/><stop offset=".8" stop-color="#c61359"/><stop offset="1" stop-color="#a71e4d"/></linearGradient><circle cx="175" cy="175" r="111" fill="url(#a)"/><path d="M66 207.7L86.7 197l21.6 37L84 251.7zm171-93l23.3 35.6 25.7-14.6L264 95zM175 60l-49.3 11.3.3 101.7 28.5-11.5v52l-.5 1.5c-2.2 5.5-7.5 8.2-11 10a38 38 0 01-8 3v56a97.2 97.2 0 0040 6 97.2 97.2 0 0040-6v-56a38 38 0 01-8-3c-3.5-1.8-8.8-4.5-11-10a13.6 13.6 0 01-.5-1.5v-52L224 173l.3-101.8L175 60zm0 207a14.5 14.5 0 110-29 14.5 14.5 0 010 29z"/><path d="M198 226a29.9 29.9 0 01-8-11v-57a18 18 0 00-9-3c.2 31 .2 53.5 0 57 0 .6-.1 1.9-1 3-1.7 2.3-4.8 2-5 2-.2 0-3.3.3-5-2-.9-1.1-1-2.4-1-3-.2-3.5-.2-26 0-57a18 18 0 00-9 3v57a29.9 29.9 0 01-8 11 29.9 29.9 0 01-11 6v18h12c.1-1.9.7-8.4 6-14a23 23 0 0116-7c1.5 0 9.7.3 16 7a22.7 22.7 0 016 14h12v-18a29.9 29.9 0 01-11-6zm11 47v-18h-12c-.1 1.9-.7 8.4-6 14a23 23 0 01-16 7 23 23 0 01-16-7 22.7 22.7 0 01-6-14h-12v24.5h12V276c1.9 1.6 9.9 8.2 22 8a33.3 33.3 0 0022-9v4.5h12V273z" fill="#fff"/><path d="M175.1 105.2A139.2 139.2 0 00132 112v50l18-8c8.8-4 16-5.8 25-6 9 .2 16.2 2 25 6l18 8v-50a139.2 139.2 0 00-42.9-6.8zM175 68a135.7 135.7 0 00-43 7v12a157.2 157.2 0 0186 0V75a135.7 135.7 0 00-43-7z" fill="#fff"/><path d="M175.1 87a155.6 155.6 0 00-43.1 6v12a157.2 157.2 0 0186 0V93a155.6 155.6 0 00-42.9-6z" fill="#fff"/><circle cx="175" cy="126" r="10"/><linearGradient id="b" gradientUnits="userSpaceOnUse" x1="147" y1="129.8" x2="159" y2="129.8"><stop offset="0" stop-color="#ffdce8"/><stop offset="1" stop-color="#edc3cd"/></linearGradient><path d="M147 113a34 34 0 0112-2.4V145a31.6 31.6 0 00-12 4v-36z" opacity=".8" fill="url(#b)"/><linearGradient id="c" gradientUnits="userSpaceOnUse" x1="132" y1="135.7" x2="138.1" y2="135.7"><stop offset="0" stop-color="#edc3cd"/><stop offset="1" stop-color="#ffdce8"/></linearGradient><path d="M132 116v40.8a15 15 0 016.1-3v-39.1a16.9 16.9 0 00-3.7.5l-2.4.8z" fill="url(#c)"/><linearGradient id="d" gradientUnits="userSpaceOnUse" x1="207.6" y1="133.9" x2="211.8" y2="133.9"><stop offset="0" stop-color="#ffdce8"/><stop offset="1" stop-color="#edc3cd"/></linearGradient><path d="M207.6 113.4v38.8a30.4 30.4 0 004.2 2.2v-39.7a9.3 9.3 0 00-4.2-1.3z" fill="url(#d)"/><linearGradient id="e" gradientUnits="userSpaceOnUse" x1="146.8" y1="76.5" x2="158.8" y2="76.5"><stop offset="0" stop-color="#ffdce8"/><stop offset="1" stop-color="#edc3cd"/></linearGradient><path d="M146.8 75.4a62.4 62.4 0 0112-2.1v4.2a48.5 48.5 0 00-12 2.2v-4.3z" opacity=".8" fill="url(#e)"/><linearGradient id="f" gradientUnits="userSpaceOnUse" x1="132" y1="80.3" x2="138.1" y2="80.3"><stop offset="0" stop-color="#edc3cd"/><stop offset="1" stop-color="#ffdce8"/></linearGradient><path d="M132 79.2v4a29.4 29.4 0 016.1-1.9v-3.9a17.5 17.5 0 00-6.1 1.8z" fill="url(#f)"/><linearGradient id="g" gradientUnits="userSpaceOnUse" x1="207.3" y1="78.7" x2="211.8" y2="78.7"><stop offset="0" stop-color="#ffdce8"/><stop offset="1" stop-color="#edc3cd"/></linearGradient><path d="M207.3 75.7v4.6a30.3 30.3 0 014.5 1.4v-4.4a23.1 23.1 0 00-4.5-1.6z" fill="url(#g)"/><linearGradient id="h" gradientUnits="userSpaceOnUse" x1="146.8" y1="93.9" x2="158.8" y2="93.9"><stop offset="0" stop-color="#ffdce8"/><stop offset="1" stop-color="#edc3cd"/></linearGradient><path d="M146.8 92.8a62.4 62.4 0 0112-2.1v4.2a48.5 48.5 0 00-12 2.2v-4.3z" opacity=".8" fill="url(#h)"/><linearGradient id="i" gradientUnits="userSpaceOnUse" x1="132" y1="97.7" x2="138.1" y2="97.7"><stop offset="0" stop-color="#edc3cd"/><stop offset="1" stop-color="#ffdce8"/></linearGradient><path d="M132 96.6v4a29.4 29.4 0 016.1-1.9v-3.9a17.5 17.5 0 00-6.1 1.8z" fill="url(#i)"/><linearGradient id="j" gradientUnits="userSpaceOnUse" x1="207.3" y1="96.1" x2="211.8" y2="96.1"><stop offset="0" stop-color="#ffdce8"/><stop offset="1" stop-color="#edc3cd"/></linearGradient><path d="M207.3 93.1v4.6a30.3 30.3 0 014.5 1.4v-4.4a23.1 23.1 0 00-4.5-1.6z" fill="url(#j)"/></g></switch></svg>