<svg xmlns="http://www.w3.org/2000/svg" viewBox="0 0 350 350"><switch><g><path fill="#fff" d="M60 60h230v230H60z"/><path d="M69.5 69.5h211v211h-211z"/><path fill="#9a273f" d="M79 79h192v192H79z"/><radialGradient id="a" cx="175" cy="175" r="96" gradientTransform="matrix(0 -1 1.75 0 -131.3 350)" gradientUnits="userSpaceOnUse"><stop offset="0" stop-color="#cc7a78"/><stop offset="1" stop-color="#fff" stop-opacity="0"/></radialGradient><path fill="url(#a)" d="M79 79h192v192H79z"/><g fill="#050708"><path d="M312.7 181c-.7-9.2-4-15.8-6-19.6 0 0-8.9-17.4-32.9-28.6-2.7-1.2-6-2.5-9.5-1.2-2.4 1-4 2.8-4.8 4a29 29 0 01-7.8-9.1 29 29 0 01-3.3-10.2 21.6 21.6 0 004.4-4.7 17.3 17.3 0 003.2-9.4 35.2 35.2 0 01-5.1 9.2 34.8 34.8 0 01-3.8 4.2 9.1 9.1 0 00-.2 1.8c0 1.4.4 2 .2 2.2-.3.1-1.1-.7-1.5-1.6a3.8 3.8 0 010-2.7 55.3 55.3 0 0011.8-19.9 66.6 66.6 0 00-5.4-25.6c1-1.2 2.2-3.2 2.2-5.7 0-1.2-.1-5.2-7.4-10.6-14-10.4-31.2-9.8-31.2-9.8-17.2.6-29.3 9.8-36 14.8A79.6 79.6 0 00167 70.7a48.1 48.1 0 00.6 8.1 39.2 39.2 0 01-14.7 5c1.5.4 2.3.7 2.2 1 0 .5-3.1.8-9.3.9A38.2 38.2 0 00107.4 67a84.8 84.8 0 014.3-.7l3.3-.4a23.7 23.7 0 016.8.6c-3.2-1-7.7-1.8-13-1.4a36.6 36.6 0 00-6.2 1c-.8-1-2.1-2.1-3.9-2.7-5-1.6-10.5 2.8-14.4 6a50 50 0 00-17.8 27.8 52 52 0 00-.8 16c.6 8.6 2.9 14.6 4.9 20 3.5 9.1 6.3 16.1 12.1 17.6 1.6.4 3 .3 3.8.2a23.4 23.4 0 012.2 11.5 23.3 23.3 0 01-3.3 10.4 43 43 0 00-30.9 35.6c-1.2.6-3.4 2-4.7 4.7a11 11 0 00-.4 7.2c3 13.6 11.8 23 11.8 23A55 55 0 0082.1 257c13.3 5.1 24 3.8 34.2 2.6 5.6-.7 10.5-2 12.6-5.8 1-1.8 1.2-3.7 1.1-5a26.7 26.7 0 016.6.2c5 .7 8.9 2.8 11 4.3.2-.2 2-1.5 4.2-.8 1.5.6 2.2 1.8 2.4 2a7 7 0 00-.5 2c-.3 1.7.2 3 .5 3.8a31 31 0 003.4 19.4 29.4 29.4 0 006.5 8l-2.2.2a17 17 0 006.1 6.6c2.6 1.6 4.6 1.6 6.4 3.8 1.7 2 1.4 3.8 2 5.1 3 6.2 29.5 6.3 46.3-8.7 6.8-6 10.5-13.2 12.9-17.7 3.5-6.7 4.7-11.4 6.4-18.4.5-2 2.4-10.1-.3-14.7-.8-1.5-2-2.7-2-2.7a13.2 13.2 0 00-5.1-3 31.8 31.8 0 014.6-10.7 32 32 0 019.3-9.1 11.1 11.1 0 004 1.3 11.1 11.1 0 004.1-.3 47 47 0 0016 2.2c4.3-.2 10-.4 16-3.8a29.3 29.3 0 007.8-6.3c1 .5 3 1.2 5.1.7 8-1.6 12.2-18.4 11.2-31.3zm-57.2-42.7a30 30 0 01-10.9-15.3 34 34 0 01-1.2-5 32.3 32.3 0 004.6 10.7 32.3 32.3 0 008.7 8.8l-1.2.8z"/><path d="M150 264.2v-7.7a28.2 28.2 0 00-3.8-2.6 29 29 0 00-10.6-3.7 25.3 25.3 0 0110.8 3.1 30.5 30.5 0 014.4 2.9 2.8 2.8 0 00-.2.2l-.2.6-.1.9v1.1l-.3 5.2zm8 23.6a72 72 0 006.7 6.6s-.4-.5-.3-.6c.2-.2 1.5.7 1.6.7l-.8-.8c-2.4-2-4-3.1-5.2-4.2-1.3-1.1-1.9-1.8-2-1.7zm83.5-55a19.9 19.9 0 011.4-2.8 21 21 0 017.2-7 37 37 0 00-8.6 9.8zm-98.8-157A35.8 35.8 0 00121 64.3a30.4 30.4 0 00-6.1 0 44.1 44.1 0 0127.8 11.7z"/></g><path d="M57.8 216.9l8.8-3.3C68 225 76 234.6 87 237.4a27.4 27.4 0 0028-9.4 27.4 27.4 0 003-30.3 27.5 27.5 0 00-23.8-14c16-1.6 28.7-9 32-19.4.4-1.5 2-6.8-.4-11.7-3.8-7.6-14.6-9-23.3-10.3a67.2 67.2 0 00-17.6 0C84.1 141 66.4 114.5 79 90c4.8-9.2 12-14.6 16.8-17.5l6.2 6.8c-1.6.8-12.8 6.2-15.8 18.7a27.7 27.7 0 0014.8 31c11.4 5.6 25 2.3 32.7-6.7 9-10.4 6.1-23.6 5.8-25a39 39 0 008 12.8c3.2 3.2 9.8 10.1 19.7 10.4 1.7 0 6.4.2 9.7-2 7.8-5.2 8.1-23.4-1.2-44.2a69.5 69.5 0 015.9-5.6c5.8-4.9 20.6-17.4 39.2-15.8 11.2 1 19.6 6.8 24.4 11l-4.7 7.6c-1-1-10.8-11-24.6-8.8a27.8 27.8 0 00-23.2 25.9 27.5 27.5 0 0017 26.6c12.7 5.1 24.1-1.8 25.3-2.5a42.8 42.8 0 00-8.5 10.1c-2.7 4.5-7 11.6-5.4 20.3.2 1.5 1.3 7.8 5.2 11 7.4 6.1 25 1.5 41.7-14 21 9 35.3 26 35.9 44.4 0 4.2-.5 10.9-4.3 18.8l-8.9-2.5c6-10.5 4.7-23.5-3.2-32.2a27.5 27.5 0 00-29.8-7 27.5 27.5 0 00-17.8 22 29 29 0 0010.2 25c-14-7.8-28.5-9-37.1-2.2-1.1.9-5.5 4.4-6.3 9.8-1.2 8 6 14.8 12.5 21 3.4 3.4 8.3 7.3 14.8 10.8-1.6 21.8-12.7 40.2-29.4 47-7.6 3.2-15 3.4-20.6 2.8l-.5-9c11.8 2.4 23.8-3 29.6-13.5 6-10.8 3.4-23.7-4.3-31.9a27.4 27.4 0 00-27.9-7.7 28.5 28.5 0 00-17.2 16.3c3.1-15.6-.3-29.8-9.5-35.8-1.4-.9-5.2-3.4-9.8-2.9-11 1.2-17.6 18.2-20.7 26.4a79.5 79.5 0 00-3 9.6c-1.7.4-32.6 8.2-51.8-11.6a45 45 0 01-11.1-21z" fill="#fff"/><g fill="#9a273f"><circle cx="112.9" cy="104.6" r="10.9"/><circle cx="220.2" cy="90.2" r="10.9"/><circle cx="267.4" cy="187.3" r="10.9"/><circle cx="189.2" cy="262.2" r="10.9"/><circle cx="93.8" cy="210.9" r="10.9"/></g><path d="M189.7 170.2a15.4 15.4 0 01-14.8 14.4c-8.2 0-15-6.9-15.2-15 0-9 8-15.4 15.1-15.3 5.5.1 9.3 4.2 10.3 5.2s4.7 5 4.6 10.7z" fill="#9a273f"/><path d="M174 152.8a17 17 0 00-13.7 7.9c-3 4.7-2.4 9.2-1 14.3 1 4.6 5 8.7 9.4 10.3 3.8 1.4 10 1.6 13.6-.3 6.5-3.5 10.1-10.2 9.2-17.4-1-8.4-9.1-15.1-17.5-14.8zm1.7 29.7c-3.5 0-7.1-.3-9.7-3a14.2 14.2 0 01-3.8-8.8c-.5-7.4 3-13 10.6-14.3 6.3-1 17.3 3.8 16.7 11.3-.2 3-.7 7.6-3 10a10.9 10.9 0 01-5 2.7c-1.7.5-4.2 2-5.8 2.1zm-21.4-47.3a27.7 27.7 0 018.9-4 27.7 27.7 0 017.9-.9 55.8 55.8 0 00-16.8 4.9zm-1.2 12.4a27 27 0 00-3.3 3.3c-3.5 4.3-5 8.7-5.8 11.7a66.7 66.7 0 019.1-15zm5.3-4a3.5 3.5 0 011.5-1.5 3.5 3.5 0 012-.4 27.4 27.4 0 00-3.5 1.9zm9.2-3.5a2 2 0 011-.7 2.1 2.1 0 011.6.2 11.4 11.4 0 00-2.6.5zm14.2 0a5.6 5.6 0 012.7.5 5.6 5.6 0 012 1.4 22.2 22.2 0 00-4.7-1.9zm-10.3-7.4c2.3-.4 7-1 12.3.6a26.4 26.4 0 019.2 4.8 38.4 38.4 0 00-9.2-4 38.5 38.5 0 00-12.3-1.4zm4.7-2c2.4-.1 6.3.2 10.5 2.1a22.5 22.5 0 013.9 2.4 91.1 91.1 0 00-5.5-2 91.3 91.3 0 00-9-2.5z" fill="#050708"/><path d="M215 160.1a30.9 30.9 0 00-1.6-4.8l.5 2.8c1 5.8 1.6 9.6.6 13.7-.3 1.3-.8 3-2 5.1l.4-4.7s.5-4.8-.1-9.3c0-.4-.2-1-.5-1-.2-.1-.4.1-.6.3a53.7 53.7 0 01-2.3 16.6l.2-3c.5-5.4 1-7 .7-9.5 0-1.3-.4-3-1.3-5.3a44.7 44.7 0 010 7.4 44.3 44.3 0 01-5.4 17.5 34.3 34.3 0 01-32 15.9 33.3 33.3 0 01-22.5-12.6c-9.2-12.4-6.5-29-2.5-34.7.5-.6 3-4 2.4-4.5-.3-.2-1.7.8-2.1 1-1.7 1.3-2.3 2.3-2.5 2.2-.4-.2.1-2.3 1.3-4.5a28 28 0 015.4-6.5c1.5-1.4 2.5-2.3 2.4-2.5-.2-.2-1.4.4-2.4 1 3.8-3.7 4.4-4.5 4.3-4.6-.3-.2-9 4.7-14.4 13.7-6 10-5.2 20.5-4.8 24 1.1 9 5.2 15.2 7 17.9a44.2 44.2 0 006.1 7.4 34.8 34.8 0 01-6.6-7.3 54.7 54.7 0 01-6.5-14.3c-.6-2-1.2-4.1-1.4-4l.8 5.2c.9 5 1.4 7 1.2 7l-1.8-5.6a41.4 41.4 0 0117.7-45.5c1-.5 16.2-9.8 33.1-4.6 14.8 4.5 23.2 17.6 23.9 17 .4-.4-2.8-5.5-8-9.8a44.9 44.9 0 00-34-9.2 46.5 46.5 0 00-11.6 3 27.8 27.8 0 014.5-2.4c3.6-1.5 6.7-2 6.6-2.3 0-.3-1.5-.3-1.7-.3-7 0-15.1 5.7-15.1 5.7-3.4 2.4-8.7 6-12.7 11.6-8 11-11 29.2-3.1 44.1 11 20.8 39.3 28 58.5 18 17.6-9.2 22-29.4 22.5-34 .7-6-.6-11.3-.6-11.3zM160.3 206a34 34 0 01-8.8-5.4 37.7 37.7 0 0019.3 7.4l5 .8c0 .1-7.8.4-15.5-2.8z" fill="#050708"/></g></switch></svg>