<svg xmlns="http://www.w3.org/2000/svg" viewBox="0 0 350 350"><switch><g><path fill="#fff" d="M60 60h230v230H60z"/><path d="M70 70h211v211H70z"/><path fill="#9a273f" d="M79 79h192v192H79z"/><radialGradient id="a" cx="175" cy="175" r="96" gradientTransform="matrix(0 -1 1.75 0 -131 350)" gradientUnits="userSpaceOnUse"><stop offset="0" stop-color="#cc7a78"/><stop offset="1" stop-color="#fff" stop-opacity="0"/></radialGradient><path fill="url(#a)" d="M79 79h192v192H79z"/><g fill="#050708"><path d="M313 181c-1-9-4-16-6-20 0 0-9-17-33-28-3-1-6-3-10-1-2 1-4 2-4 4a29 29 0 01-8-9 29 29 0 01-4-11 22 22 0 005-4 17 17 0 003-10 35 35 0 01-5 9 35 35 0 01-4 5 9 9 0 000 1v3l-1-2a4 4 0 010-3 55 55 0 0011-20 67 67 0 00-5-25l2-6c0-1 0-5-7-10-14-11-31-10-31-10-18 0-30 10-36 15a80 80 0 00-13 12 48 48 0 001 8 39 39 0 01-15 5l2 1-9 1a38 38 0 00-39-19 85 85 0 015-1h3a24 24 0 017 0l-13-1a37 37 0 00-6 1l-4-3c-5-1-11 3-15 6a50 50 0 00-18 28 52 52 0 000 16c0 9 3 15 5 20 3 9 6 16 12 18h3a23 23 0 013 11 23 23 0 01-4 11 43 43 0 00-31 35c-1 1-3 2-4 5a11 11 0 00-1 7c3 14 12 23 12 23a55 55 0 0021 14c13 5 24 4 34 3 6-1 11-2 13-6l1-5a27 27 0 017 0l11 4h4l2 2a7 7 0 000 2v3a31 31 0 004 20 29 29 0 006 8h-2a17 17 0 006 6c3 2 5 2 6 4 2 2 2 4 2 5 3 7 30 7 47-8 6-6 10-13 13-18l6-18c1-2 2-10 0-15l-2-3a13 13 0 00-5-3 32 32 0 014-10 32 32 0 019-10 11 11 0 005 2 11 11 0 004-1 47 47 0 0016 3c4-1 10-1 16-4a29 29 0 007-6h6c8-1 12-18 11-31zm-58-43a30 30 0 01-10-15 34 34 0 01-2-5 32 32 0 005 11 32 32 0 009 9h-2z"/><path d="M150 264v-8a28 28 0 00-4-2 29 29 0 00-10-4 25 25 0 0110 3 31 31 0 015 3l-1 1v7zm8 24a72 72 0 007 6h-1l2 1-1-1-5-5-2-1zm84-55a20 20 0 011-3 21 21 0 017-7 37 37 0 00-9 10zM143 76a36 36 0 00-22-12 30 30 0 00-6 0 44 44 0 0128 12z"/></g><path fill="#fff" d="M58 217l9-3c1 11 9 21 20 23a27 27 0 0028-9 27 27 0 003-30 28 28 0 00-24-14c16-2 29-9 32-20 1-1 2-7 0-11-4-8-15-9-24-11a67 67 0 00-17 0c-1-1-19-27-6-52 5-9 12-15 17-17l6 6c-2 1-13 6-16 19a28 28 0 0015 31c11 6 25 2 33-7 9-10 6-23 5-25a39 39 0 009 13c3 3 9 10 19 10 2 1 7 1 10-1 8-6 8-24-1-45a70 70 0 016-5c5-5 20-18 39-16 11 1 19 7 24 11l-4 8c-1-1-11-11-25-9a28 28 0 00-23 26 28 28 0 0017 26c12 5 24-2 25-2a43 43 0 00-8 10c-3 4-7 11-6 20 0 2 1 8 5 11 8 6 25 2 42-14 21 9 35 26 36 44 0 5-1 11-4 19l-9-2c6-11 4-24-3-32a28 28 0 00-30-7 28 28 0 00-18 22 29 29 0 0010 25c-14-8-28-9-37-3-1 1-5 5-6 10-1 8 6 15 12 21 4 4 9 8 15 11-2 22-13 40-29 47-8 3-15 3-21 3v-9a27 27 0 0025-45 27 27 0 00-28-8 29 29 0 00-17 16c3-16-1-30-10-36-1-1-5-3-10-3-11 2-17 19-20 27a80 80 0 00-3 9c-2 1-33 9-52-11a45 45 0 01-11-21z"/><g fill="#9a273f"><circle cx="112.9" cy="104.6" r="10.9"/><circle cx="220.2" cy="90.2" r="10.9"/><circle cx="267.4" cy="187.3" r="10.9"/><circle cx="189.2" cy="262.2" r="10.9"/><circle cx="93.8" cy="210.9" r="10.9"/></g><path fill="#9a273f" d="M190 170a15 15 0 01-15 15c-8 0-15-7-15-15 0-9 8-16 15-16 5 0 9 4 10 5s5 5 5 11z"/><path fill="#050708" d="M174 153a17 17 0 00-14 8c-3 4-2 9-1 14s5 9 10 10c4 2 10 2 13 0 7-3 10-10 10-17-1-9-10-15-18-15zm2 30c-4 0-7-1-10-3a14 14 0 01-4-9c0-8 3-13 11-15 6-1 17 4 16 12 0 3 0 7-3 10a11 11 0 01-5 2l-5 2zm-22-48a28 28 0 019-4 28 28 0 018-1 56 56 0 00-17 5zm-1 13a27 27 0 00-3 3c-4 4-5 9-6 12a67 67 0 019-15zm5-4a4 4 0 012-2 4 4 0 012 0 27 27 0 00-4 2zm10-4a2 2 0 011-1 2 2 0 011 1 11 11 0 00-2 0zm14 0a6 6 0 012 1 6 6 0 012 1 22 22 0 00-4-2zm-11-7h13a26 26 0 019 5 38 38 0 00-9-4 39 39 0 00-13-1zm5-2c3 0 6 0 11 2a23 23 0 014 2 91 91 0 00-6-2 91 91 0 00-9-2z"/><path fill="#050708" d="M215 160a31 31 0 00-2-5l1 3c1 6 2 10 1 14l-2 5v-5-9l-1-1a54 54 0 01-3 17l1-3v-10l-1-5a45 45 0 010 7 44 44 0 01-5 18 34 34 0 01-32 16 33 33 0 01-23-13c-9-12-6-29-2-35 0 0 3-3 2-4l-2 1-3 2 2-4a28 28 0 015-7l2-2-2 1 4-5a37 37 0 00-19 38c1 9 5 15 7 18a44 44 0 006 7 35 35 0 01-6-7 55 55 0 01-7-15l-1-4 1 6 1 7-2-6a41 41 0 0118-45c1-1 16-10 33-5 15 4 23 18 24 17 0 0-3-6-8-10a45 45 0 00-34-9 47 47 0 00-12 3 28 28 0 015-2l6-3h-2c-7 0-15 6-15 6l-12 11c-8 11-11 29-3 44 11 21 39 28 58 18 18-9 22-29 23-34l-1-11zm-55 46a34 34 0 01-8-5 38 38 0 0019 7l5 1s-8 0-16-3z"/></g></switch></svg>