<svg xmlns="http://www.w3.org/2000/svg" viewBox="0 0 350 350"><switch><g><path fill="#fff" d="M60 60h230v230H60z"/><path d="M69.5 69.5h211v211h-211z"/><linearGradient id="a" gradientUnits="userSpaceOnUse" x1="79" y1="175" x2="271" y2="175"><stop offset="0" stop-color="#8f6692"/><stop offset="1" stop-color="#906693"/></linearGradient><path fill="url(#a)" d="M79 79h192v192H79z"/><path d="M73 276.5v-18.8a64 64 0 017.4-16.1 64 64 0 0114.4-15.8 94.7 94.7 0 00-.2-15.3c-.3-4.1-.9-7.2-1-7.8-1.8-9.7-14-16.1-28.5-26.3C37.8 157 33.8 146.7 33 139.9a27.8 27.8 0 01-.2-4.8c42-46.6 87-70 111.8-73.8 11.8-1.8 31-1 41.3-.5 6.3.3 14.5.8 23.4 5.2a48.7 48.7 0 016.7 4 147.5 147.5 0 0163.5 39.1c17.9 20.3 25.3 47.7 25 69-.8 41.2-31 80.6-76 98.4H73z"/><path d="M97.6 210c-.2-3.4-1-8.8-4-14.3-2.2-3.8-5.3-7.6-18.7-17A296.7 296.7 0 0055.3 166a94.7 94.7 0 01.6-13.4c.7-6.2 1.8-10 1.2-10.2-.7-.2-3.2 4.6-4.7 9.4a40.6 40.6 0 00-1.8 10.2 28.7 28.7 0 01-5.2-4.5c0-5.7 1-10.1 1.7-13.1.8-3.3 2.4-8.2 4.6-15.1 1.2-3.8 1.7-5.3 1.4-5.4-.7-.4-5.9 8.5-8.3 13a182.7 182.7 0 00-5.6 11 32 32 0 01-5.9-8.7 32 32 0 01-2.4-7.5 204.5 204.5 0 0110.8-24.3c8.7-16.5 16.7-31.8 30.9-43 20.4-16 44.3-16 60.3-16 20.4 0 46.4 0 63.7 19.3 14.5 16 15 36.7 14.9 44.6A274 274 0 01166 118c1 9 3.4 20 8.4 32a114.4 114.4 0 006.4 12.6l-57.6 13.2a223.7 223.7 0 01-10.8 23.3l-6-.6a24.3 24.3 0 01-4 7 24.3 24.3 0 01-4.9 4.6z" fill="#fff"/><linearGradient id="b" gradientUnits="userSpaceOnUse" x1="76.9" y1="195" x2="220.1" y2="195"><stop offset="0" stop-color="#bcaebd"/><stop offset="1" stop-color="#8f6993"/></linearGradient><path d="M170 122.1a403.6 403.6 0 0029.4-3 74.4 74.4 0 00-1 15 47 47 0 0021.7 15.2 9.7 9.7 0 01-.5 3.2c-.6 2-1.7 3.2-3.9 5.3a107.4 107.4 0 01-6 5.5l7.4 7.4a11.8 11.8 0 01-3.2 5 10.7 10.7 0 011.8 2.5c.4.9 1 2 1 3.3-.1 2.9-4 4.6-4.2 4.7 0 .8 0 2 .2 3.5.6 3.5 2.2 4.8 2.7 7 .8 3.2-1 6.6-2.2 8.2-3 3.5-8.1 3-22.4 2l-19.7-1.4a71 71 0 00-11.1 11.7 67.3 67.3 0 00-9.1 16.3 51 51 0 00-3 11.6c-.4 3-.6 4.5-.3 6.2.8 4.8 4.1 8 9 12.3a64.7 64.7 0 0010 7.4H76.8a62 62 0 013.2-16 64 64 0 0117.7-26.5v-12.9a26.9 26.9 0 007.6-6 26.8 26.8 0 004.3-6.8l5.6.4a327 327 0 0011.6-24l59.6-14.3a130 130 0 01-9.2-18.3 130.3 130.3 0 01-7.4-24.5z" fill="url(#b)"/><linearGradient id="c" gradientUnits="userSpaceOnUse" x1="238.2" y1="83.3" x2="238.2" y2="286.5"><stop offset="0" stop-color="#fff"/><stop offset=".1" stop-color="#fcfbfc"/><stop offset=".2" stop-color="#f1eef2"/><stop offset=".4" stop-color="#e1d9e2"/><stop offset=".5" stop-color="#c9bbcb"/><stop offset=".6" stop-color="#ad97b0"/></linearGradient><path d="M232.2 83.3a74.8 74.8 0 019 21.3 74.7 74.7 0 012.1 19.1 58.5 58.5 0 01-10.6 2.3 39.1 39.1 0 00-2.6 10.6 39 39 0 00.1 9.6 53.3 53.3 0 0011.3 10 53.2 53.2 0 0010 5.3c.1.9.2 2.3-.3 3.7-.6 1.8-1.8 2.8-4.1 5a421.8 421.8 0 00-5.4 4.8l6.6 7.3c0 .5 0 1.1-.2 1.8a6.3 6.3 0 01-2.7 3.6c2 1.1 3.2 3.4 2.9 5.6-.3 2.2-1.8 4-4 4.7 4.3 12.6 2 17 .2 18.8-3.6 3.6-9.8 1.4-29.6.7a284 284 0 00-12.2-.1 74.7 74.7 0 00-8.9 9.2c-7.7 9.5-20.3 29.9-13.1 40.8.6 1 1.7 2.3 3.5 3.6H222a98.9 98.9 0 0075.9-93.2 98.8 98.8 0 00-65.6-94.5z" fill="url(#c)"/><radialGradient id="d" cx="238.4" cy="177.1" r="88.5" fx="152.1" fy="157.8" gradientTransform="matrix(.3076 .9515 -2.9688 .9598 690.9 -219.7)" gradientUnits="userSpaceOnUse"><stop offset=".3" stop-color="#fff"/><stop offset=".4" stop-color="#fcfbfc" stop-opacity=".8"/><stop offset=".5" stop-color="#f2eff3" stop-opacity=".6"/><stop offset=".6" stop-color="#e2dae3" stop-opacity=".4"/><stop offset=".7" stop-color="#ccbece" stop-opacity=".2"/><stop offset=".8" stop-color="#af9ab2" stop-opacity="0"/><stop offset=".9" stop-color="#ad97b0" stop-opacity="0"/></radialGradient><path d="M232.5 83.3a74.8 74.8 0 019 21.3 74.7 74.7 0 012 19.1A58.5 58.5 0 01233 126a39.1 39.1 0 00-2.7 10.6 39 39 0 00.2 9.6 53.3 53.3 0 0011.3 10 53.2 53.2 0 0010 5.3c0 .9.2 2.3-.3 3.7-.6 1.8-1.8 2.8-4.1 5a421.8 421.8 0 00-5.4 4.8l6.6 7.3c0 .5 0 1.1-.2 1.8a6.3 6.3 0 01-2.7 3.6c2 1.1 3.1 3.4 2.8 5.6-.2 2.2-1.8 4-3.9 4.7 4.3 12.6 1.9 17 .1 18.8-3.6 3.6-9.8 1.4-29.5.7a284 284 0 00-12.2-.1 74.7 74.7 0 00-9 9.2c-7.7 9.5-20.2 29.9-13 40.8.6 1 1.7 2.3 3.5 3.6h37.7a98.9 98.9 0 0075.8-93.2 98.8 98.8 0 00-65.5-94.5z" fill="url(#d)"/><g fill="#fff"><circle cx="249.7" cy="185.2" r="1.4"/><path d="M243.7 176.4a.8.8 0 101.7 0 .8.8 0 00-1.7 0z"/><circle cx="247.1" cy="198.4" r="1.3"/><circle cx="249.7" cy="194" r="1.3"/><path d="M252.2 191a1.4 1.4 0 100-2.8 1.4 1.4 0 000 2.8zm2.6-4.4a1.4 1.4 0 100-2.8 1.4 1.4 0 000 2.8zm-2.6-4.4a1.4 1.4 0 100-2.9 1.4 1.4 0 000 3zm-2.5-4.4a1.5 1.5 0 100-3 1.5 1.5 0 000 3zm-2.6-4.4a1.5 1.5 0 000-3 1.5 1.5 0 00-.5.2l-.8.7a1.5 1.5 0 00-.2.6c0 .9.7 1.5 1.5 1.5z"/><circle cx="249.7" cy="202.8" r="1.3"/><path d="M252.2 199.7a1.3 1.3 0 100-2.6 1.3 1.3 0 000 2.6zm2.6-4.3a1.3 1.3 0 100-2.7 1.3 1.3 0 000 2.7zm2.5-4.4a1.4 1.4 0 100-2.8 1.4 1.4 0 000 2.8zm2.6-4.4a1.4 1.4 0 100-2.8 1.4 1.4 0 000 2.8zm-2.6-4.4a1.4 1.4 0 100-2.9 1.4 1.4 0 000 3zm-2.5-4.4a1.5 1.5 0 100-3 1.5 1.5 0 000 3zm-2.6-4.4a1.5 1.5 0 100-3 1.5 1.5 0 000 3zm-1.2-5.9c0-.4-.2-.7-.4-1-.5.7-1 1.3-1.8 2 .3.2.6.4.9.4a1.3 1.3 0 001.3-1.4zm1.2 38.5a1.2 1.2 0 100 2.5 1.2 1.2 0 000-2.5z"/><circle cx="254.8" cy="202.8" r="1.3"/><path d="M257.3 199.7a1.3 1.3 0 100-2.6 1.3 1.3 0 000 2.6zm2.6-4.3a1.3 1.3 0 100-2.7 1.3 1.3 0 000 2.7zm2.5-4.4a1.4 1.4 0 100-2.8 1.4 1.4 0 000 2.8zm2.6-4.4a1.4 1.4 0 100-2.8 1.4 1.4 0 000 2.8z"/><circle cx="262.4" cy="180.8" r="1.4"/><path d="M259.9 177.8a1.5 1.5 0 100-3 1.5 1.5 0 000 3zm-4-5.9a1.5 1.5 0 103 0 1.5 1.5 0 00-3 0zm-1.1-2.9a1.5 1.5 0 100-3 1.5 1.5 0 000 3zm-2.6-4.6a1.3 1.3 0 000-2.5c-.2 0-.5 0-.7.2a8 8 0 010 2c.2.2.4.3.7.3zm-2.5 46a1.2 1.2 0 100 2.5 1.2 1.2 0 000-2.4zm5 0a1.2 1.2 0 100 2.5 1.2 1.2 0 000-2.4zm2.6-4.4a1.2 1.2 0 100 2.5 1.2 1.2 0 000-2.5zm2.6-4.4a1.3 1.3 0 100 2.5 1.3 1.3 0 000-2.5zm2.5-1.9a1.3 1.3 0 100-2.6 1.3 1.3 0 000 2.6zm2.6-4.3a1.3 1.3 0 100-2.7 1.3 1.3 0 000 2.7zm2.5-4.4a1.4 1.4 0 100-2.8 1.4 1.4 0 000 2.8zm2.6-4.4a1.4 1.4 0 100-2.8 1.4 1.4 0 000 2.8zm-2.6-4.4a1.4 1.4 0 100-2.9 1.4 1.4 0 000 3zm-2.5-4.4a1.5 1.5 0 100-3 1.5 1.5 0 000 3zm-2.6-4.4a1.5 1.5 0 100-3 1.5 1.5 0 000 3zm-1-5.9a1.5 1.5 0 10-3 0 1.5 1.5 0 003 0z"/><circle cx="257.3" cy="163.1" r="1.5"/><circle cx="254.8" cy="158.7" r="1.6"/><path d="M249.2 158.7a.5.5 0 101 0 .5.5 0 00-1 0zm-2 56.3a1.1 1.1 0 100 2.2 1.1 1.1 0 000-2.2zm5 0a1.2 1.2 0 100 2.2 1.2 1.2 0 000-2.3zm5.1 0a1.2 1.2 0 100 2.2 1.2 1.2 0 000-2.3zm2.6-4.5a1.2 1.2 0 100 2.4 1.2 1.2 0 000-2.4z"/><circle cx="262.4" cy="207.2" r="1.2"/><path d="M265 201.6a1.3 1.3 0 100 2.5 1.3 1.3 0 000-2.5zm2.5-1.9a1.3 1.3 0 100-2.6 1.3 1.3 0 000 2.6zm2.6-4.3a1.3 1.3 0 100-2.7 1.3 1.3 0 000 2.7zm2.5-4.4a1.4 1.4 0 100-2.8 1.4 1.4 0 000 2.8zm2.6-4.4a1.4 1.4 0 100-2.8 1.4 1.4 0 000 2.8zm-2.6-4.4a1.4 1.4 0 100-2.9 1.4 1.4 0 000 3zm-2.5-4.4a1.5 1.5 0 100-3 1.5 1.5 0 000 3zm-2.6-4.4a1.5 1.5 0 100-3 1.5 1.5 0 000 3zm-1-5.9a1.5 1.5 0 10-3 0 1.5 1.5 0 003 0z"/><circle cx="262.4" cy="163.1" r="1.5"/><path d="M258.3 158.7a1.6 1.6 0 103.1 0 1.6 1.6 0 00-3.1 0z"/><circle cx="257.3" cy="154.3" r="1.6"/><circle cx="252.2" cy="154.3" r="1.6"/><circle cx="247.1" cy="154.3" r="1.6"/><circle cx="242" cy="154.3" r=".8"/><path d="M219.1 219.4a1.1 1.1 0 100 2.2 1.1 1.1 0 000-2.2zm5.1 0a1.1 1.1 0 100 2.2 1.1 1.1 0 000-2.2zm5.1 0a1 1 0 100 2.2 1 1 0 000-2.2zm5.1 0a1 1 0 100 2.1 1 1 0 000-2z"/><circle cx="239.5" cy="220.5" r="1.1"/><path d="M244.6 219.4a1.1 1.1 0 100 2.2 1.1 1.1 0 000-2.2zm5 0a1.1 1.1 0 100 2.2 1.1 1.1 0 000-2.2zm5.2 0a1.1 1.1 0 100 2.2 1.1 1.1 0 000-2.2zm5 0a1.1 1.1 0 100 2.2 1.1 1.1 0 000-2.2z"/><circle cx="262.4" cy="216.1" r="1.2"/><path d="M265 210.5a1.2 1.2 0 100 2.4 1.2 1.2 0 000-2.4z"/><circle cx="267.5" cy="207.2" r="1.2"/><circle cx="270.1" cy="202.8" r="1.3"/><path d="M272.6 199.7a1.3 1.3 0 100-2.6 1.3 1.3 0 000 2.6zm2.6-4.3a1.3 1.3 0 100-2.7 1.3 1.3 0 000 2.7zm2.5-4.4a1.4 1.4 0 100-2.8 1.4 1.4 0 000 2.8zm2.6-4.4a1.4 1.4 0 100-2.8 1.4 1.4 0 000 2.8zm-2.6-4.4a1.4 1.4 0 100-2.9 1.4 1.4 0 000 3zm-2.5-4.4a1.5 1.5 0 100-3 1.5 1.5 0 000 3zm-2.6-4.4a1.5 1.5 0 100-3 1.5 1.5 0 000 3zm-1-5.9a1.5 1.5 0 10-3 0 1.5 1.5 0 003 0z"/><circle cx="267.5" cy="163.1" r="1.5"/><path d="M263.4 158.7a1.6 1.6 0 103.1 0 1.6 1.6 0 00-3.1 0z"/><circle cx="262.4" cy="154.3" r="1.6"/><path d="M258.3 149.9a1.6 1.6 0 103.2 0 1.6 1.6 0 00-3.2 0zm-5.1 0a1.6 1.6 0 103.2 0 1.6 1.6 0 00-3.2 0zm-5.1 0a1.6 1.6 0 103.2 0 1.6 1.6 0 00-3.2 0zm-1.9 0a1.6 1.6 0 10-3.2 0 1.6 1.6 0 003.2 0z"/><circle cx="239.5" cy="149.9" r="1.6"/><path d="M216.6 223.8a1 1 0 100 2.2 1 1 0 000-2.2zm5 0a1 1 0 100 2.2 1 1 0 000-2.2zm5.2 0a1 1 0 100 2.2 1 1 0 000-2.2zm5 0a1 1 0 100 2.2 1 1 0 000-2.2zm5.1 0a1 1 0 100 2.2 1 1 0 000-2.2zm5.1 0a1 1 0 100 2.2 1 1 0 000-2.2zm5.1 0a1 1 0 100 2.2 1 1 0 000-2.2zm5.1 0a1 1 0 100 2.2 1 1 0 000-2.2zm5.1 0a1 1 0 100 2.2 1 1 0 000-2.2zm5.1 0a1 1 0 100 2.2 1 1 0 000-2.2zm2.6-4.4a1.1 1.1 0 100 2.2 1.1 1.1 0 000-2.2z"/><circle cx="267.5" cy="216.1" r="1.2"/><path d="M270 210.5a1.2 1.2 0 100 2.4 1.2 1.2 0 000-2.4zm2.6-4.5a1.2 1.2 0 100 2.5 1.2 1.2 0 000-2.5z"/><circle cx="275.2" cy="202.8" r="1.3"/><path d="M277.7 199.7a1.3 1.3 0 100-2.6 1.3 1.3 0 000 2.6zm2.6-4.3a1.3 1.3 0 100-2.7 1.3 1.3 0 000 2.7zm2.5-4.4a1.4 1.4 0 100-2.8 1.4 1.4 0 000 2.8zm2.6-4.4a1.4 1.4 0 100-2.8 1.4 1.4 0 000 2.8zm-2.6-4.4a1.4 1.4 0 100-2.9 1.4 1.4 0 000 3zm-2.5-4.4a1.5 1.5 0 100-3 1.5 1.5 0 000 3zm-2.6-4.4a1.5 1.5 0 100-3 1.5 1.5 0 000 3zm-1-5.9a1.5 1.5 0 10-3 0 1.5 1.5 0 003 0z"/><circle cx="272.6" cy="163.1" r="1.5"/><circle cx="270.1" cy="158.7" r="1.6"/><circle cx="267.5" cy="154.3" r="1.6"/><path d="M263.4 149.9a1.6 1.6 0 103.2 0 1.6 1.6 0 00-3.2 0z"/><circle cx="262.4" cy="145.5" r="1.6"/><path d="M257.3 143.8a1.6 1.6 0 100 3.3 1.6 1.6 0 000-3.3zm-5 0a1.6 1.6 0 100 3.3 1.6 1.6 0 000-3.3z"/><circle cx="247.1" cy="145.5" r="1.6"/><circle cx="242" cy="145.5" r="1.6"/><path d="M238.6 145.5a1.6 1.6 0 10-3.3 0 1.6 1.6 0 003.3 0zm-7.8 0a1 1 0 102 0 1 1 0 00-2 0zM214 219.4a1.1 1.1 0 100 2.2 1.1 1.1 0 000-2.2z"/><circle cx="214" cy="229.3" r="1"/><circle cx="219.1" cy="229.3" r="1"/><circle cx="224.2" cy="229.3" r="1"/><path d="M229.3 228.3a1 1 0 100 2 1 1 0 000-2z"/><circle cx="234.4" cy="229.3" r="1"/><circle cx="239.5" cy="229.3" r="1"/><path d="M244.6 228.3a1 1 0 100 2 1 1 0 000-2z"/><circle cx="249.7" cy="229.3" r="1"/><circle cx="254.8" cy="229.3" r="1"/><circle cx="259.9" cy="229.3" r="1"/><circle cx="265" cy="229.3" r="1"/><path d="M267.5 223.8a1 1 0 100 2.2 1 1 0 000-2.2zm2.6-4.4a1.1 1.1 0 100 2.2 1.1 1.1 0 000-2.2zm2.5-4.5a1.2 1.2 0 100 2.3 1.2 1.2 0 000-2.3zm2.6-4.4a1.2 1.2 0 100 2.4 1.2 1.2 0 000-2.4z"/><circle cx="277.7" cy="207.2" r="1.2"/><path d="M280.3 201.6a1.3 1.3 0 100 2.5 1.3 1.3 0 000-2.5zm2.5-1.9a1.3 1.3 0 100-2.6 1.3 1.3 0 000 2.6zm2.6-4.3a1.3 1.3 0 100-2.7 1.3 1.3 0 000 2.7zm2.5-4.4a1.4 1.4 0 100-2.8 1.4 1.4 0 000 2.8zm2.6-4.4a1.4 1.4 0 100-2.8 1.4 1.4 0 000 2.8zm-2.6-4.4a1.4 1.4 0 100-2.9 1.4 1.4 0 000 3zm-2.5-4.4a1.5 1.5 0 100-3 1.5 1.5 0 000 3zm-2.6-4.4a1.5 1.5 0 100-3 1.5 1.5 0 000 3zm-1-5.9a1.5 1.5 0 10-3 0 1.5 1.5 0 003 0z"/><circle cx="277.7" cy="163.1" r="1.5"/><circle cx="275.2" cy="158.7" r="1.6"/><circle cx="272.6" cy="154.3" r="1.6"/><path d="M268.5 149.9a1.6 1.6 0 103.2 0 1.6 1.6 0 00-3.2 0z"/><circle cx="267.5" cy="145.5" r="1.6"/><circle cx="265" cy="141.1" r="1.7"/><circle cx="259.9" cy="141.1" r="1.7"/><circle cx="254.8" cy="141.1" r="1.7"/><circle cx="249.7" cy="141.1" r="1.7"/><path d="M246.2 141a1.7 1.7 0 10-3.3 0 1.7 1.7 0 003.3 0z"/><circle cx="239.5" cy="141.1" r="1.7"/><circle cx="234.4" cy="141.1" r="1.7"/><path d="M209 219.4a1.1 1.1 0 100 2.2 1.1 1.1 0 000-2.2zm2.5 4.4a1 1 0 100 2.2 1 1 0 000-2.2zm0 9a1 1 0 100 2 1 1 0 000-2zm5 0a1 1 0 100 2 1 1 0 000-2zm5.2 0a1 1 0 100 2 1 1 0 000-2zm5 0a1 1 0 100 2 1 1 0 000-2zm5.1 0a1 1 0 100 2 1 1 0 000-2zm5.1 0a1 1 0 100 2 1 1 0 000-2zm5.1 0a1 1 0 100 2 1 1 0 000-2zm5.1 0a1 1 0 100 2 1 1 0 000-2zm5.1 0a1 1 0 100 2 1 1 0 000-2zm5.1 0a1 1 0 100 2 1 1 0 000-2zm5.1 0a1 1 0 100 2 1 1 0 000-2zm5.1 0a1 1 0 100 2 1 1 0 000-2z"/><circle cx="270.1" cy="229.3" r="1"/><path d="M272.6 223.8a1 1 0 100 2.2 1 1 0 000-2.2zm2.6-4.4a1.1 1.1 0 100 2.2 1.1 1.1 0 000-2.2z"/><circle cx="277.7" cy="216.1" r="1.2"/><path d="M280.3 210.5a1.2 1.2 0 100 2.4 1.2 1.2 0 000-2.4z"/><circle cx="282.8" cy="207.2" r="1.2"/><circle cx="285.4" cy="202.8" r="1.3"/><path d="M287.9 199.7a1.3 1.3 0 100-2.6 1.3 1.3 0 000 2.6zm2.6-7a1.3 1.3 0 100 2.7 1.3 1.3 0 000-2.7zm2.5-1.7a1.4 1.4 0 100-2.8 1.4 1.4 0 000 2.8zm2.5-7.2a1.4 1.4 0 100 2.8 1.4 1.4 0 000-2.8zm-2.5-4.5a1.4 1.4 0 100 2.9 1.4 1.4 0 000-2.9zm-2.5-4.4a1.5 1.5 0 100 3 1.5 1.5 0 000-3zm-2.6-4.5a1.5 1.5 0 100 3 1.5 1.5 0 000-3zm-1-2.9a1.5 1.5 0 10-3 0 1.5 1.5 0 003 0z"/><circle cx="282.8" cy="163.1" r="1.5"/><path d="M280.3 157.1a1.6 1.6 0 100 3.2 1.6 1.6 0 000-3.2z"/><circle cx="277.7" cy="154.3" r="1.6"/><path d="M273.6 149.9a1.6 1.6 0 103.2 0 1.6 1.6 0 00-3.3 0zm-1-6a1.6 1.6 0 100 3.2 1.6 1.6 0 000-3.3z"/><circle cx="270.1" cy="141.1" r="1.7"/><path d="M267.5 135a1.7 1.7 0 100 3.3 1.7 1.7 0 000-3.3zm-5 0a1.7 1.7 0 100 3.3 1.7 1.7 0 000-3.3zm-5.2 0a1.7 1.7 0 100 3.3 1.7 1.7 0 000-3.3zm-5 0a1.7 1.7 0 100 3.3 1.7 1.7 0 000-3.3zm-5.2 0a1.7 1.7 0 100 3.3 1.7 1.7 0 000-3.3zm-6.7 1.6a1.7 1.7 0 103.3 0 1.7 1.7 0 00-3.3 0zm-5.1 0a1.7 1.7 0 103.3 0 1.7 1.7 0 00-3.3 0zm-1.8 0a1.7 1.7 0 10-3.3 0 1.7 1.7 0 003.3 0zm-29.7 82.8a1.1 1.1 0 100 2.2 1.1 1.1 0 000-2.2zm2.6 4.4a1 1 0 100 2.2 1 1 0 000-2.2zm2.5 4.5a1 1 0 100 2 1 1 0 000-2z"/><circle cx="208.9" cy="238.1" r=".9"/><circle cx="214" cy="238.1" r=".9"/><circle cx="219.1" cy="238.1" r=".9"/><circle cx="224.2" cy="238.1" r=".9"/><circle cx="229.3" cy="238.1" r=".9"/><circle cx="234.4" cy="238.1" r=".9"/><circle cx="239.5" cy="238.1" r=".9"/><circle cx="244.6" cy="238.1" r=".9"/><circle cx="249.7" cy="238.1" r=".9"/><circle cx="254.8" cy="238.1" r=".9"/><circle cx="259.9" cy="238.1" r=".9"/><circle cx="265" cy="238.1" r=".9"/><circle cx="270.1" cy="238.1" r=".9"/><path d="M272.6 232.7a1 1 0 100 2 1 1 0 000-2z"/><circle cx="275.2" cy="229.3" r="1"/><path d="M277.7 223.8a1 1 0 100 2.2 1 1 0 000-2.2zm2.6-4.4a1.1 1.1 0 100 2.2 1.1 1.1 0 000-2.2z"/><circle cx="282.8" cy="216.1" r="1.2"/><path d="M285.4 210.5a1.2 1.2 0 100 2.4 1.2 1.2 0 000-2.4zm2.5-2a1.2 1.2 0 100-2.5 1.2 1.2 0 000 2.5z"/><circle cx="290.5" cy="202.8" r="1.3"/><circle cx="293" cy="198.4" r="1.3"/><path d="M295.5 177.8a1.5 1.5 0 100-3 1.5 1.5 0 000 3zm-2.5-4.4a1.5 1.5 0 100-3 1.5 1.5 0 000 3zm-1-5.9a1.5 1.5 0 10-3 0 1.5 1.5 0 003 0z"/><circle cx="287.9" cy="163.1" r="1.5"/><circle cx="285.4" cy="158.7" r="1.6"/><circle cx="282.8" cy="154.3" r="1.6"/><path d="M280.3 148.3a1.6 1.6 0 100 3.2 1.6 1.6 0 000-3.2z"/><circle cx="277.7" cy="145.5" r="1.6"/><circle cx="275.2" cy="141.1" r="1.7"/><path d="M272.6 135a1.7 1.7 0 100 3.3 1.7 1.7 0 000-3.3zm-4.2-2.8a1.7 1.7 0 103.4 0 1.7 1.7 0 00-3.4 0zm-5.1 0a1.7 1.7 0 103.4 0 1.7 1.7 0 00-3.4 0zm-5.1 0a1.7 1.7 0 103.4 0 1.7 1.7 0 00-3.4 0zm-5.1 0a1.7 1.7 0 103.4 0 1.7 1.7 0 00-3.4 0zm-5.1 0a1.7 1.7 0 103.4 0 1.7 1.7 0 00-3.4 0zm-5.1 0a1.7 1.7 0 103.4 0 1.7 1.7 0 00-3.4 0zm-3.4-1.7a1.7 1.7 0 100 3.4 1.7 1.7 0 000-3.4zm-5.1 3.4a1.7 1.7 0 100-3.4 1.7 1.7 0 000 3.4zm-34.8 86.6v-.2l-1 1h.1a.8.8 0 00.9-.8zm1.7 3.3a1 1 0 100 2.2 1 1 0 000-2.2z"/><circle cx="203.8" cy="229.3" r="1"/><path d="M206.4 232.7a1 1 0 100 2 1 1 0 000-2zm0 9a.9.9 0 100 1.7.9.9 0 000-1.7z"/><circle cx="211.5" cy="242.6" r=".9"/><path d="M216.6 241.7a.9.9 0 100 1.7.9.9 0 000-1.7zm5 0a.9.9 0 100 1.7.9.9 0 000-1.7z"/><circle cx="226.8" cy="242.6" r=".9"/><path d="M231.8 241.7a.9.9 0 100 1.7.9.9 0 000-1.7zm5.1 0a.9.9 0 100 1.7.9.9 0 000-1.7zm5.1 0a.9.9 0 100 1.7.9.9 0 000-1.7z"/><circle cx="247.1" cy="242.6" r=".9"/><path d="M252.2 241.7a.9.9 0 100 1.7.9.9 0 000-1.7zm5.1 0a.9.9 0 100 1.7.9.9 0 000-1.7z"/><circle cx="262.4" cy="242.6" r=".9"/><circle cx="267.5" cy="242.6" r=".9"/><path d="M277.7 233a.7.7 0 000 1.4h.1l.6-.8a.7.7 0 00-.7-.6zm2.6-4.6a.9.9 0 100 1.8.9.9 0 000-1.8zm2.5-4.5a1 1 0 100 2 1 1 0 000-2z"/><circle cx="285.4" cy="220.5" r="1"/><path d="M287.9 215.1a1 1 0 100 2 1 1 0 00.6-.3 1 1 0 00.4-.7 1 1 0 00-1-1zm6.1-47.6a1.5 1.5 0 103 0 1.5 1.5 0 00-3 0z"/><circle cx="293" cy="163.1" r="1.5"/><circle cx="290.5" cy="158.7" r="1.6"/><circle cx="287.9" cy="154.3" r="1.6"/><path d="M285.4 148.3a1.6 1.6 0 100 3.2 1.6 1.6 0 000-3.2z"/><circle cx="282.8" cy="145.5" r="1.6"/><path d="M280.3 139.4a1.7 1.7 0 100 3.3 1.7 1.7 0 000-3.3zm-2.6-4.4a1.7 1.7 0 100 3.3 1.7 1.7 0 000-3.3zm-4.2-2.8a1.7 1.7 0 103.4 0 1.7 1.7 0 00-3.4 0zm-.9-6.1a1.7 1.7 0 100 3.4 1.7 1.7 0 000-3.4zm-5 0a1.7 1.7 0 100 3.4 1.7 1.7 0 000-3.4z"/><circle cx="262.4" cy="127.8" r="1.7"/><path d="M257.3 126.1a1.7 1.7 0 100 3.4 1.7 1.7 0 000-3.4zm-5 0a1.7 1.7 0 100 3.4 1.7 1.7 0 000-3.4z"/><circle cx="247.1" cy="127.8" r="1.7"/><circle cx="242" cy="127.8" r="1.7"/><path d="M237 129.5a1.7 1.7 0 100-3.4 1.7 1.7 0 000 3.4zM196.1 224h-.1l-1 1a1 1 0 002.1 0c0-.6-.5-1-1-1z"/><circle cx="198.7" cy="229.3" r="1"/><path d="M201.3 232.7a1 1 0 100 2 1 1 0 000-2z"/><circle cx="203.8" cy="238.1" r=".9"/><path d="M203.8 246.1a.8.8 0 100 1.7.8.8 0 000-1.7zm5.1 0a.8.8 0 100 1.7.8.8 0 000-1.7zm5.1 0a.8.8 0 100 1.7.8.8 0 000-1.7zm5.1 0a.8.8 0 100 1.7.8.8 0 000-1.7zm5.1 0a.8.8 0 100 1.7.8.8 0 000-1.7zm5.1 0a.8.8 0 100 1.7.8.8 0 000-1.7zm5.1 0a.8.8 0 100 1.7.8.8 0 000-1.7zm5 0a.8.8 0 100 1.7.8.8 0 000-1.7zm5.2 0a.8.8 0 100 1.7.8.8 0 000-1.7zm5 0a.8.8 0 100 1.7.8.8 0 000-1.7zm5.2 0a.8.8 0 100 1.7.8.8 0 000-1.7zm5 0a.8.8 0 100 1.7.8.8 0 000-1.7zm5.2.1a.7.7 0 100 1.5.7.7 0 000-1.5zm29-87.5a1.5 1.5 0 002.5 1.2 94.8 94.8 0 00-.5-2.7 1.5 1.5 0 00-.5 0c-.8 0-1.5.7-1.5 1.5z"/><circle cx="293" cy="154.3" r="1.6"/><path d="M292 149.9a1.6 1.6 0 10-3.2 0 1.6 1.6 0 003.3 0zm-4.1-6a1.6 1.6 0 100 3.2 1.6 1.6 0 000-3.3z"/><circle cx="285.4" cy="141.1" r="1.7"/><path d="M282.8 135a1.7 1.7 0 100 3.3 1.7 1.7 0 000-3.3zm-2.5-4.5a1.7 1.7 0 100 3.4 1.7 1.7 0 000-3.4zm-2.6-4.4a1.7 1.7 0 100 3.4 1.7 1.7 0 000-3.4z"/><circle cx="275.2" cy="123.4" r="1.7"/><circle cx="270.1" cy="123.4" r="1.7"/><path d="M263.3 123.4a1.7 1.7 0 103.4 0 1.7 1.7 0 00-3.4 0z"/><circle cx="259.9" cy="123.4" r="1.7"/><circle cx="254.8" cy="123.4" r="1.7"/><circle cx="249.7" cy="123.4" r="1.7"/><path d="M244.6 125.1a1.7 1.7 0 000-3.4c-.5 0-1 .2-1.3.6v1.4l-.4.2c.2.7.9 1.2 1.7 1.2zm-3.9-.6l-1.7.4h-.1l.6.1c.5 0 1-.2 1.2-.5zm-47 103.8a1 1 0 100 2 1 1 0 000-2zm2.5 4.4a1 1 0 100 2 1 1 0 000-2z"/><circle cx="198.7" cy="238.1" r=".9"/><path d="M201.3 241.7a.9.9 0 100 1.7.9.9 0 000-1.7zm0 8.9a.8.8 0 100 1.6.8.8 0 000-1.6zm5 0a.8.8 0 100 1.6.8.8 0 000-1.6zm5.2 0a.8.8 0 100 1.6.8.8 0 000-1.6zm5 0a.8.8 0 100 1.6.8.8 0 000-1.6zm5.2 0a.8.8 0 100 1.6.8.8 0 000-1.6zm5 0a.8.8 0 100 1.6.8.8 0 000-1.6zm5.1 0a.8.8 0 100 1.6.8.8 0 000-1.6zm5.1 0a.8.8 0 100 1.6.8.8 0 000-1.6zm5.1 0a.8.8 0 100 1.6.8.8 0 000-1.6zm5.1 0a.8.8 0 100 1.6.8.8 0 000-1.6zm5.1 0a.8.8 0 100 1.6.8.8 0 000-1.6z"/><circle cx="257.3" cy="251.4" r=".8"/><path d="M262.4 251.4zM293 147h.4a98.4 98.4 0 00-1-3 1.5 1.5 0 00.6 3zm-4.2-6a1.6 1.6 0 003 1.1 96.8 96.8 0 00-1.1-2.7h-.2c-1 0-1.7.7-1.7 1.7zm-2.6-4.4a1.7 1.7 0 003.4.1l-.7-1.4a1.7 1.7 0 00-1-.3 1.7 1.7 0 00-1.7 1.6zm-2.5-4.4a1.7 1.7 0 103.3 0 1.7 1.7 0 00-3.3 0zm-2.6-4.4a1.7 1.7 0 103.4 0 1.7 1.7 0 00-3.4 0zm-2.6-4.4a1.7 1.7 0 103.5 0 1.7 1.7 0 00-3.5 0zm-.8-2.7c1 0 1.7-.7 1.7-1.7l-1.2-1.7a1.7 1.7 0 00-.5 0 1.7 1.7 0 100 3.4zm-5 0a1.7 1.7 0 100-3.4 1.7 1.7 0 000 3.4zm-5.2 0a1.7 1.7 0 100-3.4 1.7 1.7 0 000 3.4z"/><circle cx="262.4" cy="119" r="1.7"/><path d="M257.3 120.7a1.7 1.7 0 100-3.4 1.7 1.7 0 000 3.4zm-5 0a1.7 1.7 0 100-3.4 1.7 1.7 0 000 3.4z"/><circle cx="247.1" cy="119" r="1.7"/><path d="M191 232.7a1 1 0 100 2 1 1 0 000-2zm2.6 4.5a1 1 0 100 1.9 1 1 0 000-1.9zm2.6 4.5a.9.9 0 100 1.7.9.9 0 000-1.7zm2.5 4.4a.8.8 0 100 1.7.8.8 0 000-1.7zm0 9a.7.7 0 100 1.4.7.7 0 000-1.5zm5.1 0a.7.7 0 100 1.4.7.7 0 000-1.5zm5.1 0a.7.7 0 100 1.4.7.7 0 000-1.5zm5.1 0a.7.7 0 100 1.4.7.7 0 000-1.5zm5.1 0a.7.7 0 100 1.4.7.7 0 000-1.5zm5.1 0a.7.7 0 100 1.4.7.7 0 000-1.5zm5.1 0a.7.7 0 100 1.4.7.7 0 000-1.5zm5.1 0a.7.7 0 100 1.4.7.7 0 000-1.5zm5 0a.7.7 0 100 1.4.7.7 0 000-1.5zm5.2 0a.7.7 0 100 1.4.7.7 0 000-1.5zm5 0a.7.7 0 100 1.4.7.7 0 000-1.5z"/><circle cx="188.5" cy="238.1" r=".9"/><circle cx="191.1" cy="242.6" r=".9"/><path d="M193.6 246.1a.8.8 0 100 1.7.8.8 0 000-1.7zm2.6 4.5a.8.8 0 100 1.6.8.8 0 000-1.6zm0 9a.7.7 0 100 1.3.7.7 0 000-1.4zm5 0a.7.7 0 100 1.3.7.7 0 000-1.4zm5.2 0a.7.7 0 100 1.3.7.7 0 000-1.4zm5 0a.7.7 0 100 1.3.7.7 0 000-1.4zm5.2 0a.7.7 0 100 1.3.7.7 0 000-1.4zm5 0a.7.7 0 100 1.3.7.7 0 000-1.4zm5.2 0a.7.7 0 100 1.3.7.7 0 000-1.4zm5 0a.7.7 0 100 1.3.7.7 0 000-1.4zm5.1 0a.7.7 0 100 1.3.7.7 0 000-1.4zm5.1 0a.7.7 0 100 1.3.7.7 0 000-1.4zm-56-18a.9.9 0 100 1.8.9.9 0 000-1.7zm2.5 4.5a.8.8 0 100 1.7.8.8 0 000-1.7zm2.6 4.5a.8.8 0 100 1.6.8.8 0 000-1.6zm2.5 4.4a.7.7 0 100 1.5.7.7 0 000-1.5z"/><circle cx="193.6" cy="264.6" r=".6"/><circle cx="198.7" cy="264.6" r=".6"/><circle cx="203.8" cy="264.6" r=".6"/><circle cx="208.9" cy="264.6" r=".6"/><circle cx="214" cy="264.6" r=".6"/><circle cx="219.1" cy="264.6" r=".6"/><circle cx="224.2" cy="264.6" r=".6"/><path d="M229.3 264a.6.6 0 100 1.3.6.6 0 000-1.3z"/><circle cx="234.4" cy="264.6" r=".6"/><path d="M183.4 246.1a.8.8 0 100 1.7.8.8 0 000-1.7zm2.6 4.5a.8.8 0 100 1.6.8.8 0 000-1.6zm2.5 4.4a.7.7 0 100 1.5.7.7 0 000-1.5zm2.6 4.5a.7.7 0 100 1.4.7.7 0 000-1.4z"/><circle cx="191.1" cy="269" r=".6"/><path d="M196.2 268.4a.6.6 0 100 1.2.6.6 0 000-1.2zm5 0a.6.6 0 100 1.2.6.6 0 000-1.2zm5.2 0a.6.6 0 100 1.2.6.6 0 000-1.2z"/><circle cx="211.5" cy="269" r=".6"/><path d="M216.6 268.4a.6.6 0 100 1.2.6.6 0 000-1.2z"/><circle cx="221.7" cy="269" r=".6"/><path d="M180.9 250.6a.8.8 0 100 1.6.8.8 0 000-1.6zm2.5 4.4a.7.7 0 100 1.5.7.7 0 000-1.5zm2.6 4.5a.7.7 0 100 1.4.7.7 0 000-1.4z"/><circle cx="188.5" cy="264.6" r=".6"/><path d="M180.9 259.5a.7.7 0 100 1.4.7.7 0 000-1.4z"/><circle cx="183.4" cy="264.6" r=".6"/><path d="M186 268.4a.6.6 0 100 1.2.6.6 0 000-1.2zM296.6 172c0 .7.5 1.3 1.1 1.5a93.9 93.9 0 000-2.9 1.5 1.5 0 00-1.1 1.4zm-.1 8.9c0 .6.4 1.2 1 1.4l.2-2.8a1.4 1.4 0 00-1.2 1.4zm-2.7 13.2c0 .8.6 1.4 1.3 1.4l.6-.2.4-2a1.3 1.3 0 00-1-.5 1.3 1.3 0 00-1.3 1.3zm-3.7 16.6a1.2 1.2 0 100 2.4h.1l.8-2a1.2 1.2 0 00-1-.4zm1.2-3.4c0 .5.3 1 .7 1.1l.8-2.2h-.3a1.2 1.2 0 00-1.2 1.1zm-44.2-1.1c-.2 0-.5 0-.7.2l.3 2a1.2 1.2 0 10.4-2.2zm-7.6 57.9a.6.6 0 00-.6.6c0 .2 0 .4.2.5l.3-.1.4-.2.3-.2a.6.6 0 00-.6-.6zm7.6-4.5a.7.7 0 100 1.4.7.7 0 000-1.4zm7.7-4.5a.7.7 0 00-.8.8c0 .3.3.6.5.7l1-.7a.7.7 0 00-.7-.8z"/><circle cx="226.8" cy="269" r=".6"/></g></g></switch></svg>