<svg xmlns="http://www.w3.org/2000/svg" viewBox="0 0 350 350"><switch><g><path fill="#fff" d="M59.9 60H290v230H60z"/><path d="M69.2 69.4h211.6v211.4H69.2z"/><radialGradient id="a" cx="175" cy="175" r="96.5" gradientUnits="userSpaceOnUse"><stop offset=".1" stop-color="#f9c133"/><stop offset=".2" stop-color="#f79520"/></radialGradient><path fill="url(#a)" stroke="#000" stroke-miterlimit="10" d="M78.5 78.5h193v193h-193z"/><radialGradient id="b" cx="175" cy="175" r="96" gradientTransform="matrix(1 0 0 1.25 0 -43.8)" gradientUnits="userSpaceOnUse"><stop offset=".6" stop-color="#fbd778"/><stop offset=".7" stop-color="#fcdd79" stop-opacity=".7"/><stop offset=".9" stop-color="#feed7d" stop-opacity=".2"/><stop offset="1" stop-color="#fff87f" stop-opacity="0"/></radialGradient><path opacity=".6" fill="url(#b)" d="M79 79h192v192H79z"/><path d="M262.4 99.4c-.3-2 4.5-4.5 5-4.7 2.4-1.1 4.8-1.8 4.8-1.8l5-10.9-6.5 3.4c-5.9 3.1-8.4 4.8-8.7 4.4-.4-.5 4.8-4.9 5.3-5.3a79.7 79.7 0 017.3-5.5l-199-3.3-2.4 4.1 42.2 34.5c3.1 2.9 3.4 3.8 3.2 4.2-.8 1.4-11-4.4-12.5-2.4-1 1.3 1.9 4.8 2.3 5.3 8 10 52 40.2 69.4 51.9 0 0 64-63.5 87.7-68 4-.7 4.8-1.4 4.8-1.8 0-1.4-7.5-1.7-7.9-4.1zM137 137c-2.7-2.2-3.2-2.4-5-4-3.3-2.6-7-6.2-6.7-6.6.3-.4 4.8 2.4 8.8 5.9 4.5 4 7.7 8.2 7.5 8.5-.2 0-1.3-1.2-4.6-3.8zm12 12c-.9-.2-4-4.3-4-4.3 2.5.3 5 4.4 4 4.2zM93 91.1c4.6.1 39.2 27.9 41 29.5 4.4 3.8 35.6 27.2 35.6 27.2C160 147 93 91.2 93 91.2zm85.6 55.6s9-5.8 10.5-5.4c1.3.4-5.6 6-10.5 5.4zm18.3-8.8s18.3-11.8 21.1-11.6c4 .4-14.9 10.5-21 11.6zm64.8 115.8c-2.2-4.3-87-55.8-87-55.8L73.3 257.8l2 18 197.8 1.7V267s-9-9-11.3-13.3zm-172 5.1a57.4 57.4 0 01-11.7 5.6v-2.8a102.4 102.4 0 007.3-3.2c9.7-4.6 15-9 15.3-8.7.3.4-4.4 5-10.9 9.1zm86.5-54.9c-.7-.4-1.7-.5-2.5 0-8.6 5.1-58.8 34.5-61.6 33.7-1-1.5 59.4-36.5 62.9-36.7 3.5-.2 31 18.1 33.5 20.6-2.1 1.8-26.5-13.8-32.3-17.6zM100.4 130.5a3428150.9 3428150.9 0 0074.5 53.1l.3 11.8-19 2.5c-2 2.3-17.1 19-41.8 18.5a55.6 55.6 0 01-39.8-18.9l-45.3-61.8 71-5.2z"/><path d="M42.9 142l55.7-4.3 71.2 52.5-16.4.5a46.2 46.2 0 01-43.6 19.5A45.9 45.9 0 0180.5 192l-37.6-50.2z" fill="#fff"/><path d="M98.5 147.4l41.6 29.9c2 4.4 1.6 7.8 1.2 9.4-2.2 10-15.9 13.1-17.8 13.6-5.2 1.2-9.4.7-11.8.4-13.7-2.2-25-13-27.9-15.9a30 30 0 01-7.2-32.6 49 49 0 0121.9-4.8z"/><path fill="#fff" d="M105.6 148.8V169l-7.2-5.3 2.5 35.6 2.6 1.6 1.1-20.4 11.2 13.6L117 155z"/><path d="M170.7 195.7l23.8 1.8a55.8 55.8 0 0042.8 19.8c29.4-.7 44.4-26 45.2-27.4l39.5-54.2-72.7-5.2-74.4 53.1-4.2 12z"/><path d="M308.6 142.4l-56.5-4.7-71.6 52.4 15.4.4a49.2 49.2 0 0045.6 19 50 50 0 0033.1-21.5l34-45.6z" fill="#fff"/><path d="M268.3 149.3a50.2 50.2 0 00-18.6.3l-41 28.6a25 25 0 007.6 16.3c3.8 3.6 8 4.9 10.2 5.5 5.4 1.7 9.9 1.3 12.6 1 11.2-1 18.8-6.7 21.7-8.9 1.8-1.4 5.2-4 8.4-8.4 3.3-4.3 10.2-13.5 7.4-23.3-.5-2-2.2-6.8-8.3-11z"/><path fill="#fff" d="M244.4 148.5v20.2l7.2-5.2-2.5 35.5-2.6 1.7-1.1-20.5-11.2 13.7-1.2-39.3z"/></g></switch></svg>