<svg xmlns="http://www.w3.org/2000/svg" xmlns:xlink="http://www.w3.org/1999/xlink" viewBox="0 0 350 350"><switch><g><path fill="#fff" d="M60 60h230v230H60z"/><path d="M69 70h212v211H69z"/><path fill="#723390" d="M79 79h193v193H79z"/><g opacity=".3"><defs><path id="a" d="M79 79h193v193H79z" opacity=".3"/></defs><clipPath id="b"><use overflow="visible" xlink:href="#a"/></clipPath></g><path d="M41 274a1570 1570 0 0122-56c18-43 26-56 30-63 10-16 22-33 38-43a78 78 0 0161-11 77 77 0 0157 67c3 34-22 65-52 78-12 5-22 10-69 17a1766 1766 0 01-87 11z"/><path fill="#fff" d="M48 269l49-5a343 343 0 0128-96 90 90 0 019-14l11-12c2-2 13-11 28-12a44 44 0 0141 27 45 45 0 01-5 40 44 44 0 01-30 19 44 44 0 01-48-52 175 175 0 00-7 24c-8 29-6 54-3 72a354 354 0 0041-7c18-5 27-7 38-13 9-5 27-15 38-35a70 70 0 007-31 73 73 0 00-21-51c-3-2-20-19-47-20a78 78 0 00-39 10c-12 6-32 20-68 102a1015 1015 0 00-22 54z"/><circle cx="174" cy="173.5" r="38.7" fill="#ab87bc"/><ellipse cx="174" cy="173.5" fill="#fff" rx="29.1" ry="28.6"/><ellipse cx="174" cy="173.5" rx="23.5" ry="23.1"/><path d="M258 175l48-103-113 19c7 2 40 12 56 45 8 16 9 30 9 39z"/><path fill="#fff" d="M209 93l89-15-37 82a88 88 0 00-52-67z"/><path d="M265 82a41 41 0 012 9c1 8 0 13-2 20l-10 29v2a129 129 0 0013-21c8-16 11-31 13-42l-16 3zm-145-6a391 391 0 00-45 78l2 35a366 366 0 0160-116l-17 3zM138 110a353 353 0 0144-36 351 351 0 0121-14h23a97 97 0 00-18 15c-10 10-15 20-19 27a66 66 0 00-21-2 67 67 0 00-30 10zm16 164l48-22c20-1 32-7 39-11 20-13 29-35 41-62a267 267 0 008-23v20c-3 14-10 36-26 59a173 173 0 01-37 39h-73zM70 112c4-10 11-22 22-35a131 131 0 0119-17h-8a93 93 0 00-15 11 94 94 0 00-18 20v21z"/><path fill="#fff" d="M89 81a1038 1038 0 00-23 68v-30a146 146 0 019-19 146 146 0 0113-19zm21 32a136 136 0 0114-14c23-19 47-27 63-31h-49a950 950 0 00-28 45zm93 139a71 71 0 0055-27l11-17a169 169 0 007-16 180 180 0 01-29 33 181 181 0 01-44 27zm24 22h6a65 65 0 0010-9 65 65 0 0011-16 229 229 0 01-27 25z"/></g></switch></svg>