<svg xmlns="http://www.w3.org/2000/svg" viewBox="0 0 350 350"><switch><g><path fill="#fff" d="M290 235v55H60v-55h230zm0-60H60h230zm0-60H60V60h230v55z"/><path d="M69 70h211v210H69z"/><path fill="#da7a08" d="M80 80h190v190H80z"/><radialGradient id="a" cx="171.7" cy="281.7" r=".7" gradientTransform="matrix(195.1676 0 0 -195.4648 -33336 55240)" gradientUnits="userSpaceOnUse"><stop offset="0" stop-color="#fd5"/><stop offset=".5" stop-color="#fd5"/><stop offset="1" stop-color="#fd5" stop-opacity="0"/></radialGradient><path fill="url(#a)" d="M80 80h190v190H80z"/><path d="M235 273l9-6 9-4s-13 2-21 5-13 7-13 7l-3-2s12-7 22-10c10-2 12-2 21-6l15-6v-4l-5 2-7 3 5-4 8-4-1-3-24 10-14 10 3-5-34 20 23 1 7-4zm-112 0h-6s-6-6-15-10l-16-7-10-4c-4-1-3-2-3-2l8 1c2 0 7 5 10 6l9 2s-6-1-10-4l-8-5c-2-2-6-2-6-2v-2s6 1 7 2h3l5-1 56 27h-17s-5-4-8-4-6-1-7-3-5-1-5-1l6 4 7 3zM223 78l9 5 9 5s10-1 16 2 14 7 17 6 1 8 1 8l-5-4c-2-1-3-5-5-5v3l2 1c1 1 3 6 6 7l4 2-2 1-12-4-7-6-5-3s3 1 4 4-3 1-3 1l-16-9-3-4h-5l-18-10h13zM75 101v-1l5-3 11-6 10-7c4-3 13-4 13-4l2-2h24l-16 12-41 17-6 1v-1c1-1 5-2 6-4 2-2 1-4 1-4l-5 3-3 1-1-1 5-2 8-6-8 4-5 3zm15-7l4-3 7-4 8-4-8 5-5 5-6 1z"/><radialGradient id="b" cx="171.3" cy="281.4" r=".7" gradientTransform="matrix(152.5359 0 0 -152.7683 -25961 43157)" gradientUnits="userSpaceOnUse"><stop offset="0" stop-color="#f1ba30"/><stop offset=".5" stop-color="#f1ba30"/><stop offset="1" stop-color="#f09726"/></radialGradient><path fill="url(#b)" d="M175 307s-3-16-53-44c-55-30-70-22-70-22s14-10 14-66c0-55-14-66-14-66s15 8 70-22c50-28 53-44 53-44s3 16 53 44c55 30 70 22 70 22s-14 11-14 66c0 56 14 66 14 66s-15-8-70 22c-50 28-53 44-53 44z"/><path fill="#fff" d="M175 307s-3-16-53-44c-55-30-70-22-70-22s14-10 14-66c0-55-14-66-14-66s15 8 70-22c50-28 53-44 53-44s3 16 53 44c55 30 70 22 70 22s-14 11-14 66c0 56 14 66 14 66s-15-8-70 22c-50 28-53 44-53 44zm76-87a345 345 0 00-42 17c-11 6-24 17-30 22v26a209 209 0 0148-33 205 205 0 0147-19l-23-13zm-152 0l-23 13a211 211 0 0150 21c16 9 32 19 45 31v-26c-6-5-19-16-30-22s-32-14-42-17zm37-19l-25 13c17 6 34 13 48 23a255 255 0 0112 9v-26a119 119 0 00-35-19zm79 0l-18 7a167 167 0 00-18 12v26a163 163 0 0133-21l27-11-24-13zM70 124c5 17 6 34 6 51v4c0 16-1 32-6 47l25-13a170 170 0 000-76l-25-13zm210 0l-25 14a163 163 0 000 75l25 13c-7-22-7-45-5-68 0-11 2-23 5-34zm-76 71l-25-13v27l25-14zm-33 14v-27l-25 13a134 134 0 0125 14zm-64-66c4 21 4 43 0 64l25-13a180 180 0 000-37l-25-13zm136 1l-25 13a179 179 0 000 37l25 13a174 174 0 010-63zm-102 18v27l26-14-26-13zm68 0l-25 13 25 14v-27zm-30-21v28l25-14c-9-3-17-8-25-14zm-8 0a139 139 0 01-25 14l25 14v-28zm8-36v25a167 167 0 0018 12c6 4 13 6 18 8l24-13a206 206 0 01-60-33zm-8 0a163 163 0 01-33 21l-27 11 25 13a119 119 0 0017-8 167 167 0 0018-12v-25zm8-40v27c6 5 19 15 30 21a346 346 0 0042 17l23-12a210 210 0 01-50-22c-16-9-32-18-45-31zm-8 0a202 202 0 01-46 32 210 210 0 01-49 21l23 12a345 345 0 0042-17c11-6 24-16 30-21V65z"/></g></switch></svg>