<svg xmlns="http://www.w3.org/2000/svg" viewBox="0 0 350 350"><switch><g><path d="M290 290h-93l-22 23.2-22-23.2H60V86l48.5-48.2L131 60h88l22.5-22.2L290 86V290z" fill="#fff"/><path d="M280.5 280.5H194L175 300l-19-19.5H69.5v-191l39-38.8L127 69.5h96l18.5-18.8 39 38.8v191z"/><path d="M271 271H79V91.7L108.5 64 123 79h104l14.5-15L271 91.8V271z" fill="#28c1cd"/><path d="M126.8 117.8c3 .8 16.7 10.1 20.9 12.6 5 3 12.9 6.5 25.3 8a62 62 0 01-12.4.5 67.4 67.4 0 0014.3 1 67.4 67.4 0 0010.4-1.3l-2.3 1.1c-3.2 1.3-6 1.5-9.2 1.5-4.7 0-7.5 0-11.7-.6-4.1-.6-10-1.9-16.7-4.8a69.3 69.3 0 0017 5.9l5.3.8a50.5 50.5 0 01-4 .6 150.2 150.2 0 0014.4-.1 26.2 26.2 0 01-5.3-.8 48.6 48.6 0 008-.8c2.3-.5 7.2-1.6 18.2-7.1a187.1 187.1 0 0013.3-7.4 73.4 73.4 0 01-29.4 15.4 74.4 74.4 0 0020.1-6 76 76 0 0028.3-22.6H125c-.3 1.2-.3 2.6.5 3.4.4.5 1 .7 1.2.7zM79 219.2a923.8 923.8 0 0123.3 22.6 89.9 89.9 0 01-14.7-9.5c4.3 4.8 8.2 7.6 11 9.3 0 0 6 3.5 11 8.5l1 1.2c-.4.4-9-6-12.6-8.7A661.8 661.8 0 0179 228v2A226.3 226.3 0 0195 243a52.5 52.5 0 01-9.8-6.4 255.4 255.4 0 007.2 6l7.3 6a278.1 278.1 0 016.7 5.6c4.8 4.2 10 8.1 14.6 12.6.4.4 2.5 2.4 2.8 2 .4-.2-1.2-2.6-.9-2.8.2-.1 1.3 1.1 3.2 3a76 76 0 002 1.9 13.8 13.8 0 00-.9-2.3c-1.8-3.4-4.5-5-8-7.2a445.2 445.2 0 01-17.5-12.5 57.9 57.9 0 01-5-5 69 69 0 0011.5 7.9c2.3 1.2 2.5 1.1 4.6 2.3 5.2 3 8 5.5 13 9.4a190.8 190.8 0 0010 7.4h9L79 215.2v4zM213.7 271l10-7 10.3-7c3.5-2.6 5.5-4.2 5.7-4 .2.2-1.2 1.7-4.2 5a1227.6 1227.6 0 01-7 7.6 128.3 128.3 0 005-4c5.5-4.5 9-8.2 15.6-13.4l2.4-1.8c.2.2-5.3 5.3-7.7 7.6a679.7 679.7 0 01-18.9 17h1.8c9.1-7.7 11.9-9.9 12-9.7.2.1-3 3.4-4.5 5l-1.8 1.9 10-8.5c8.5-7.2 9.7-7.7 16.5-13.4 3.2-2.7 5.1-4.4 7-5.5a18 18 0 004.2-3.5s-.5.2-1.2.1a2.6 2.6 0 01-.8-.2 7.8 7.8 0 012.9-2v-1.8a52 52 0 00-4.2 3.1c-2.4 2-2.5 2.4-6.8 6.5-3.2 3-3.9 3.4-5.5 5.3l-2.1 2.3c-1.5 1.5-2.7 2.3-4 3.4a140.6 140.6 0 00-5.3 4l27.9-28.5v-14.3L205.2 271h8.5z" fill="#0897ae"/><path fill="#fff" d="M79 95.4v97l96 94.7 96-94.8v-97l-96 81.5z"/><path d="M60 126.2l16 10.4v23a183.9 183.9 0 008.5 9.3c10 10 15 15 20.6 17.3 9.4 3.8 18.8 1.8 33.1-1.4a116.8 116.8 0 0015.3-4.4L60 117.2v9zm38.2 24.6l36.6 23.5a22 22 0 01-28.3 4.6c-9.4-5.8-13-18-8.3-28.1zm76.8 40.6l-12.3 24L175 278l12.3-62.4zm0-14.6l99-84-14.2-14.3L175 164 90.2 78.5 75.9 92.7l99.1 84.1zm21.5 3.6a117 117 0 0015.3 4.4c14.3 3.2 23.7 5.2 33 1.4 5.7-2.3 10.7-7.3 20.6-17.3a184.1 184.1 0 008.6-9.3v-23l16-10.4v-9l-93.5 63.2zm47-1.5a22 22 0 01-28.3-4.6l36.6-23.5c4.7 10.2 1 22.3-8.3 28z"/><path d="M175 287l-98.3-97v23.2l79.3 67.3 19 19.5 19-19.5 79.3-67.3v-23.1z"/><g><path d="M119.4 110.1a84.8 84.8 0 0013.2-4c10.5-4.3 13-7.8 22.2-11.5a51.5 51.5 0 0120-4.6c10.6 0 19 4 25.2 7 8 3.8 10.7 6.8 20 10a75.5 75.5 0 0011.3 3.1l-2 1.5c-6.7 4.9-13 6.6-15 7.2-11.9 3.5-10.7 7.2-25.1 12.2-8 2.7-12.3 3-14.7 2.9-1.6 0-5.6-.2-13.7-3-17.2-5.8-23.8-13.5-31.7-15-.9-.1-4-.7-7-3a14 14 0 01-2.7-2.8z"/><circle cx="175" cy="111.6" r="17" fill="#fff"/><circle cx="175" cy="111.8" r="8.5" fill="#0496a7"/></g></g></switch></svg>