<svg xmlns="http://www.w3.org/2000/svg" viewBox="0 0 350 350"><switch><g><path fill="#fff" d="M59.9 60H290v230H60z"/><path fill="#891716" d="M78.9 79H271v192H79z"/><radialGradient id="a" cx="175.1" cy="175" r="96" gradientTransform="matrix(1 0 0 1.2 0 -35)" gradientUnits="userSpaceOnUse"><stop offset="0" stop-color="#fd6566" stop-opacity=".9"/><stop offset="1" stop-color="#891716" stop-opacity="0"/></radialGradient><path fill="url(#a)" d="M79.1 79h192v192h-192z"/><g stroke="#f87070" stroke-width="3" stroke-miterlimit="10"><path fill="none" d="M278.3 155.3L149 275M75.3 154.7l201-35"/><path fill="#df6c6d" d="M84.3 76.3l167.7 199"/></g><path d="M94.8 76.5L272 215.7M91 274L273.7 98.4m-197 20.3l199.6 118.6m-199.6-41l198.6-58.6M76 139l136.3 140m-103-4.3L216 76" fill="none" stroke="#000" stroke-width="3" stroke-miterlimit="10"/><path d="M69.2 69.4v211.4h211.6V69.4H69.2zM271 271H79V79h192v192z"/><path d="M106 48.4h137.8V121H106z"/><path d="M237.8 68.3h2.4a16.6 16.6 0 110 33.2h-2.5" fill="none" stroke="#000" stroke-width="9" stroke-miterlimit="10"/><path d="M237.8 68.3h2.4a16.6 16.6 0 110 33.2h-2.5" fill="none" stroke="#fff" stroke-width="2" stroke-miterlimit="10"/><path fill="#fff" d="M111.1 53.5h127.5v62.4H111.1z"/><path d="M116.1 60h117.5v7.3H116.1zm0 35.8h117.5v7.2H116.1zM109 82.2h132.1v5.4H109z"/><path fill="#fff" d="M156.3 51.5h37.4v66.4h-37.4z"/><path d="M191.8 53.5v62.4h-33.6V53.5h33.6m4-4h-41.6v70.4h41.6V49.5z"/><g><path d="M168.2 243.2V177c-3.9-2.5-6.4-7-6.4-12.3 0-8 5.8-14.4 13-14.4 7.3 0 13.2 6.5 13.2 14.4 0 5.3-2.6 10-6.5 12.4V243c.3.5 4.7 7.3 12.8 7.3 4.6 0 10-2.3 12.5-7 1.1-2.2 1.3-4.3 1.3-5.6h-9c10.6-1.3 8-37.6 8-37.6s15.4 13 15.5 39.8c0 0-4 23.3-28.4 23.7 0 0-13.3-2-19.2-9.2h0c-5.9 7.2-19.2 9.2-19.2 9.2-24.3-.4-28.4-23.7-28.4-23.7a54 54 0 0115.5-39.8s-2.6 36.3 8.1 37.6h-9.1c0 1.3.1 3.4 1.3 5.6 3.5 6 11.8 6 12.6 6 7.2-.1 11.7-5.3 12.4-6.1z" fill="#fff" stroke="#000" stroke-width="4" stroke-miterlimit="10"/><circle cx="175" cy="164.5" r="2.5"/><path fill="#fff" d="M172.5 114.3h5v41h-5z"/></g></g></switch></svg>