<svg xmlns="http://www.w3.org/2000/svg" xmlns:xlink="http://www.w3.org/1999/xlink" viewBox="0 0 350 350"><switch><g><path fill="#fff" d="M60 60h230v230H60z"/><path d="M69 70h212v211H69z"/><path fill="#a94825" d="M79 79h193v193H79z"/><g opacity=".3"><defs><path id="a" d="M79 79h193v193H79z" opacity=".3"/></defs><clipPath id="b"><use overflow="visible" xlink:href="#a"/></clipPath></g><defs><path id="c" d="M79 79h193v193H79z"/></defs><clipPath id="d"><use overflow="visible" xlink:href="#c"/></clipPath><path fill="#763217" d="M94 269l75-29 27 19 4-37 75 15-72-54 37-106-8-2-65 78-67-64 42 70-66-4-1 5 59 28z" clip-path="url(#d)"/><path d="M321 31l-79 58-22-10 9 20-58 44-38-72 9 75-48-17-12-25-3 18-51-16 72 60-14 22 26-13 17 15-25 35H79l16 12-48 67 92-66 8 19 5-28 14-10 56 90-23-97 82 25-35-29 11-8-21-1-25-21 18-24 18 12-9-25 35-46 33-6-21-10z"/><path fill="#fff" d="M69 282l31-41 3 1 3-4 5-3-16-5h16l28-38 22-4 26 7-41 27-1 17-8-16a4186 4186 0 01-68 59z"/><path fill="#aa4623" d="M163 193l24 2-41 30h-5l4 14-8-15-3 3 2 5-67 50 94-89zm-57 45l5-3-16-5z"/><path fill="#fff" d="M189 201l24 88-31-70 3-15 4-3z"/><path fill="#aa4623" d="M173 214l14-11 4 16-6-1 28 71z"/><path fill="#fff" d="M206 185l-6 7 19 13 38 20-22-17 6-4-15-1v-2l-20-16z"/><path fill="#aa4623" d="M226 207l15-3-8 7 24 14-59-19-2-10 4-5z"/><path fill="#fff" d="M160 187l-4-28-63-25h-2l-7-14-2 13-6-1 1-4-36-15 67 49-9 15 11-10v-2l27 21h23z"/><path fill="#aa4623" d="M137 187l15-11-111-63 62 48v-1l5 2 1 5-10 10 14-7-3-5z"/><path fill="#fff" d="M162 187v-27l71-57 2 3 4-3-7-14 12 7 1-2 61-48-23 26-5 3-3 5 15 7-14 3v-7l-45 54 6 16-10-12a1737 1737 0 00-62 46h-3z"/><path fill="#aa4623" d="M165 187L306 46l-25 31-2-1-2 5-1 7 14-1-15 5 1-8-44 55-3 4 8 10-10-7-35 44-27-3z"/><path fill="#fff" d="M160 151l-5-2-18-63 28 61-5 4z"/><path fill="#aa4623" d="M156 150l3-4-22-60 12 62 7 2z"/></g></switch></svg>