<svg xmlns="http://www.w3.org/2000/svg" viewBox="0 0 350 350"><switch><g><radialGradient id="a" cx="187.3" cy="178.3" r="103.4" gradientTransform="matrix(1 0 0 4 0 -535)" gradientUnits="userSpaceOnUse"><stop offset="0" stop-color="#fef0d5"/><stop offset=".2" stop-color="#fddc9d"/><stop offset=".4" stop-color="#fdcc6f"/><stop offset=".5" stop-color="#fdbf4c"/><stop offset=".7" stop-color="#fcb632"/><stop offset=".8" stop-color="#fcb022"/><stop offset="1" stop-color="#fcae1d"/></radialGradient><path fill="url(#a)" d="M271 134V79H80v192h141l56 6-13-48 28-33-12-27 15-29-24 5z"/><path fill="#fff" d="M295 140l-53 46 51 10-55 11 39 70-49-45h-20l2-64 11 4 1-8z"/><path fill="#231f20" d="M290 169l18-38-28 4V71H72v208h147a905 905 0 0169 7l-14-55 29-34-13-28zm-13 108l-56-6H80V79h191v66l24-5-15 29 13 27-28 33 12 48z"/><path fill="#fff" d="M297 169l20-46-26 4V60H60v230h159l37 2 41 3-17-63 30-34-13-29zm-9 117a905 905 0 00-68-7H72V71h208v64l28-4-18 38 13 29-29 34 15 54z"/><path fill="#fcae1d" d="M80 76l75-37 38 44 23 4 3 12 48 14-9 20 6 10-5 7-21 5-20 14-15 57 29 18-41 28-4-13-49-7-23 20H79z"/><path fill="#242021" d="M187 98l31 17-45-2z"/><path fill="#fff" d="M184 104l12 10h2l5-5z"/><linearGradient id="b" x1="83.8" x2="153.7" y1="95.6" y2="55.2" gradientUnits="userSpaceOnUse"><stop offset="0" stop-color="#f9d125"/><stop offset="1" stop-color="#fcb21c"/></linearGradient><path fill="url(#b)" d="M80 78a90 90 0 0182-8l-21 7-61 11V78z"/><linearGradient id="c" x1="75" x2="154.1" y1="128.6" y2="82.9" gradientUnits="userSpaceOnUse"><stop offset="0" stop-color="#f9d125"/><stop offset="1" stop-color="#fcb21c"/></linearGradient><path fill="url(#c)" d="M80 137v-22l76-29-46 33z"/><linearGradient id="d" x1="64.4" x2="181.1" y1="229.8" y2="162.4" gradientUnits="userSpaceOnUse"><stop offset="0" stop-color="#f9d125"/><stop offset="1" stop-color="#fcb21c"/></linearGradient><path fill="url(#d)" d="M79 255v-30l86-90-70 114a55 55 0 01-16 6z"/><path fill="#231f20" d="M72 71a169 169 0 0114-9 177 177 0 0169-23 149 149 0 0138 44l23 4 3 12 48 14-9 20 6 10-5 7c0 3 0 8-3 15a43 43 0 01-8 12c0-3 1-12-5-18a22 22 0 00-5-4 81 81 0 00-26 66 28 28 0 008-3c5-3 8-7 10-9 1 3 2 9 0 17a32 32 0 01-5 11l7 7a60 60 0 01-16 17 91 91 0 01-25 11h-16l12-13a254 254 0 01-48-7 94 94 0 01-13 12l-11 8H78v-17l9-2a44 44 0 008-4l70-114-38 97a172 172 0 0041 14 171 171 0 0039 3l-8 12a45 45 0 0013-8 45 45 0 008-10 62 62 0 01-25-33 64 64 0 017-50l-44 34 27-50 34-3c0 1-8 7-6 17a19 19 0 005 11 38 38 0 0114-18c10-7 21-7 24-7a112 112 0 00-19-22l15 5 5-9-45-12-2-10-25-4a150 150 0 00-11-17 151 151 0 00-22-24 245 245 0 00-40 12 245 245 0 00-32 15v10a94 94 0 0124-10 95 95 0 0137-1 282 282 0 00-27 8 282 282 0 00-34 15v37l30-18-30 40h-7l-1-88z"/><linearGradient id="e" x1="136.6" x2="195.8" y1="197.6" y2="163.4" gradientUnits="userSpaceOnUse"><stop offset="0" stop-color="#f9d125"/><stop offset=".5" stop-color="#f9cf24"/><stop offset=".7" stop-color="#fac622"/><stop offset=".9" stop-color="#fbb91e"/><stop offset="1" stop-color="#fcb21c"/></linearGradient><path fill="url(#e)" d="M158 194l-10 23 14-47 23-26z"/><linearGradient id="f" x1="246.6" x2="195.6" y1="132.7" y2="81.7" gradientUnits="userSpaceOnUse"><stop offset="0" stop-color="#f9d125"/><stop offset=".4" stop-color="#f9ce24"/><stop offset=".7" stop-color="#fac321"/><stop offset="1" stop-color="#fcb21c"/><stop offset="1" stop-color="#fcb21c"/></linearGradient><path fill="url(#f)" d="M252 127l-34-12-31-17-2-6 25 4 2 10 45 12z"/><path fill="#fff" d="M243 152a41 41 0 0012-2 30 30 0 01-1 10 29 29 0 01-3 9c0-3 0-7-3-11a23 23 0 00-5-6zm-29 74a19 19 0 007 7 20 20 0 004-6 20 20 0 002-9 30 30 0 01-7 5 30 30 0 01-6 3z"/></g></switch></svg>