<svg xmlns="http://www.w3.org/2000/svg" viewBox="0 0 350 350"><switch><g><path fill="#fff" d="M60 60h230v230H60z"/><path fill="#231f20" d="M69.5 70h211.4v211.4H69.5z"/><path fill="#666e24" d="M78.4 79.3H271V272H78.4z"/><g fill="#231f20"><path d="M90.8 167.4l-.4-2.3a32.8 32.8 0 00-4.1.5 33.6 33.6 0 00-9.6 3.5l7.6-.9c1.2-.1 1.9-.1 2.8-.5.6-.3 3.2-.5 3.7-.3zm1.8-1.3l1.8-.7.3 1.3zm-12 34.3l-3.1 2.1.4-.8zm5.8 14.6l-1.4 1.5 1.5-1v-.5zm11.3 4.8l-1.5.5 1.6.3zm-21.2 15c.7-.2 1.8-.3 3.2-.4 2.2 0 3 .2 4.2-.2 1-.3 1.1-.7 3-1.9 1.8-1.3 3.4-2 4.4-2.6 2.2-1 3.5-1.7 5.4-2a10.5 10.5 0 012.3.1l4.2-3.6 2.4 6a8.6 8.6 0 00-3.3-.3 8.7 8.7 0 00-4.2 1.6 16.5 16.5 0 00-3.5.2c-3.5.6-6.9 2.4-8.5 4l-1.4 1a7 7 0 01-2.6.8c-1.4-.1-2.5 0-3.2.3l-2 .7-.4-3.8z"/><path d="M77.3 239.4a58 58 0 012.6-1c.3 0 .7-.2 1.2-.6l.7-1 1 .4a6 6 0 01-1.2 1.3c-.4.3-1.1.8-2.1 1-.7.2-1.2.2-1.5.5-.3.3-.4.7-.4 1l-.3-1.6zm5.1-.2l.8.2.2-.9zm3.7-1.7v-1l.6.5zm8.4 3.6l1.7-.7v.4l-.6.5zm5.4 5.8l1.1-1.3.3.7zm-3 2.6l1.4-1.7.1.8-1.5 1zm-.6.8l-1 .5.7-.8zM91 254l-1 .1.1.7zm-13.8-6.7a5.8 5.8 0 012.3-1 2.5 2.5 0 01-1.2 2 37.6 37.6 0 002.8-1.7c.8-.6 2.4-1.8 4.2-2.2.3-.1.7-.2 1 0 .3.4 0 1 0 1.3-.6 1.6-2 2.5-4.5 4.3a82.7 82.7 0 00-2.3 1.8l.5 1a7.2 7.2 0 01-3.2 2.5l.4-8z"/><path d="M76 263.2a32.2 32.2 0 011.9-1.5c1-.8 3.8-2.9 8.7-5 4.3-1.7 4.8-1.3 6.7-2.7 1.7-1.3 1.6-1.8 3.7-3.5 2.7-2.2 3.3-1.7 5.2-3.5 2-1.7 1.8-2.6 3.7-4.5a15.8 15.8 0 014.2-3l11.5 23.9c-.7 0-1.7.2-2.9.5-2 .5-2.6 1.1-6.4 3.2-3.8 2-4.7 2.4-6 3.8a12.2 12.2 0 00-1.6 2.3l-7.2-.4 7-7.5-15.5 7.5h-7a28.7 28.7 0 016.5-6.2 18.5 18.5 0 00-6.3 2.4 18.4 18.4 0 00-4 3.4l-3.7-.4 1.5-8.8zm32-51.3l.8 3.5-2 2.9-2.4-2.6zm-2.3-.1a14.2 14.2 0 013.9-2.6l.3.9-1.6 1.2a9.3 9.3 0 00-2.6.5zm-2.2-12.6l-1.5.2a7.3 7.3 0 003.8 2.8l-2.3-3zM258.2 83.5c.4-.3 1-.1 1.4.2l.5.8a1.2 1.2 0 01-.4.8c-.5.4-1 .3-1.1.2-.1 0-.6-.3-.7-1 0 0-.1-.7.3-1zM262 98c.7 0 1 .7 1 .7 0 .1 0 .4-.2.7a1.4 1.4 0 01-.7.4c-.2 0-.6-.2-.8-.6-.1-.2-.3-.5-.1-.8.2-.4.8-.4.8-.4zm3.8-1.7s-.1.5.1.9c.3.3.7.4.7.4a.4.4 0 00.4-.2.5.5 0 000-.4 1 1 0 00-.3-.5 1 1 0 00-.9-.2zm-7 6.2a2.7 2.7 0 000 1l.3 1.3.4 1.2.2.5a.9.9 0 00.3-.7 8.2 8.2 0 00-1.1-3.3zm-5.6 8.8l8 .7a14.4 14.4 0 011.1-2.6 7.2 7.2 0 012.2 0c1.6.4 2.4 1 4 2a29.3 29.3 0 003.7 1.8l.4 25.3-14.4 1-5-28.2zm11-4.2l.1 1 .4-.6z"/></g><path d="M175.5 54.8a74.9 74.9 0 00-49.8 16.8 82.2 82.2 0 00-26.1 34.7c-3.2 8.2-4.1 15-5.2 22.5-1.5 10.7-1.3 18.6-1 26.9 0 0 .4 16.2 5.6 37.4.2.7.4 1.5.9 2.5.7 1.4 1.6 2.3 2.5 3.3l3.7 4c1.8 1.8 4.5 4.6 8.9 9.4l.9 3.7c-.2 0-2.1.2-3 1.9a3.6 3.6 0 00-.5 2l-21.8-14.6 20.8 46.2c.3.6 1.2 2.8 2.6 5.5a128.4 128.4 0 002.5 4.7 3545.7 3545.7 0 0113 18.3 1283.2 1283.2 0 0026.4 37.6l4.7-43h30.8l4.3 42.6 45.3-63.6c4.8-13.7 27.6-80.3 15.6-131.4a89.3 89.3 0 00-15.4-35 77 77 0 00-65.6-32.4z" fill="#231f20"/><path d="M178.1 117.3a424.2 424.2 0 00-.4 10v.1l.5-11v.9z" fill="none"/><path d="M174.2 135.8c-.8-21.3-1-31.6-3.3-46.4a269 269 0 00-5-25.2 54.2 54.2 0 00-15.6 3.5 59.4 59.4 0 00-20.7 14c-4.2 4-14.4 14-20.3 30.5-3.2 9-4 16.5-4.5 23-.9 10.2-.2 18.1.7 28 .3 3.4 0 .2 2.4 17.5.6 4.5 1 7.8 3.1 11.8 1.3 2.6 3 4.8 4.2 6.4 2.9 3.9 5.4 6.4 5.8 6.8 2.9 3 5.4 11 3.9 33l-13.6-9.1 11 25 27.2 36.3 5.8-68.7c-1.6-3.8-4.5-8.9-9.4-13.5a28.6 28.6 0 00-10.7-6.9 26.4 26.4 0 00-8.4-1.4l-12.4-50.7 16.9 14.5 29.8 6v26l13.4 5.8 1.3-.5v-19.4a15558.7 15558.7 0 01-1.6-46.3zm5.1-34.5c-.6 6-.9 11-1.1 15a855.3 855.3 0 00-.5 11.1l5.7 26.5a14 14 0 0012.6 11.2 38.4 38.4 0 009-1.8c6.1-2 10.5-5.2 13.1-7.5a192.1 192.1 0 005.2-6.4c7.2-9.6 8.3-12.9 14.3-20a258.3 258.3 0 016.7-7.6l.4-.4A78.6 78.6 0 00226 85.7a59.1 59.1 0 00-40-21.4 237.2 237.2 0 00-3.6 15.5 239.1 239.1 0 00-3.2 21.5z" fill="#fff"/><path d="M180.9 88.9a241.3 241.3 0 00-1.6 12.4 240.4 240.4 0 013.1-21.5 237.3 237.3 0 013.6-15.5 260.6 260.6 0 00-5.1 24.6zm9.6 81.6l29.4-6L237 150l-8 34.2 9.3-7.8-11 14.8-1.8 7 7.2-2.3-31.8 25.8 7.7-.8-12.1 8.3a34 34 0 00-.5 8.1c.4 5.2 1.8 14.3 1.9 15 1.2 8 .7 8 1.9 15.1a165.2 165.2 0 002.1 10.9h-1l1 9.9 27.6-34.1-3.2-34.3a29.4 29.4 0 011.6-10c1.4-3.5 3.2-4.9 6.6-9a75.6 75.6 0 004.1-5.4 19 19 0 002.3-3.4c1.8-3.5 2-6.7 2.2-8.1.9-9.8 3.1-10.7 3.8-21.7.2-2.5.1-4.8 0-9.4-.1-13.3-.2-20-1.2-26a83.7 83.7 0 00-1-5.3l-.4.4a260 260 0 00-6.7 7.5c-6 7.2-7.1 10.5-14.3 20a192.1 192.1 0 01-5.2 6.5c-2.6 2.3-7 5.5-13.1 7.5a38.4 38.4 0 01-9 1.9 14 14 0 01-7-2.5c-4.3-3-5.4-7.6-5.6-8.8l-5.7-26.5-.2 8-1.6 48.1v-1.4l-.1 19.4 14.8-5.4v-25.6z" fill="#fff"/><path d="M190.5 170.5l29.4-6L237 150l-8 34.2 9.3-7.8-11 14.8-1.8 7 7.2-2.3-31.8 25.8 7.7-.8-12.1 8.3a34 34 0 00-.5 8.1c.4 5.2 1.8 14.3 1.9 15 1.2 8 .7 8 1.9 15.1a165.2 165.2 0 002.1 10.9h-1l1 9.9 27.6-34.1-3.2-34.3a29.4 29.4 0 011.6-10c1.4-3.5 3.2-4.9 6.6-9a75.6 75.6 0 004.1-5.4 19 19 0 002.3-3.4c1.8-3.5 2-6.7 2.2-8.1.9-9.8 3.1-10.7 3.8-21.7.2-2.5.1-4.8 0-9.4-.1-13.3-.2-20-1.2-26a83.7 83.7 0 00-1-5.3l-.4.4a260 260 0 00-6.7 7.5c-6 7.2-7.1 10.5-14.3 20a192.1 192.1 0 01-5.2 6.5c-2.6 2.3-7 5.5-13.1 7.5a38.4 38.4 0 01-9 1.9 14 14 0 01-7-2.5c-4.3-3-5.4-7.6-5.6-8.8l-5.7-26.5-.2 8-1.6 48.1v-1.4l-.1 19.4 14.8-5.4v-25.6z" opacity=".3" fill="#848414"/><path d="M248 199.8l4.5 6.3-14 24-3.5-12.9 1.4-4.7 6.4-4.5-2.9.5 8.1-8.7z" fill="#727929"/><g><path d="M176.8 261.6a385.8 385.8 0 019.8-6.5c9-5.7 12.3-7.2 14.6-8.2a65 65 0 017.4-2.7 8.5 8.5 0 012.2-4.7 8.5 8.5 0 014.6-2.5l-.9-5.3c.8-.1 1.8-.4 2.6-1.2.7-.8.8-1.5 1.4-2.7.3-.7.8-1.3 2.2-2.8 3.5-3.7 5.2-5.6 7.3-6.7 1.1-.6 3-1.4 5.6-1.7l1.8.2a10.4 10.4 0 013.3 2.1c1.2 1.2 1.3 1.9 1.8 1.9.8 0 1.5-2 3.9-9.4.7-2.3 1.1-3.4 2.2-4.8 1.3-1.5 2.8-2.4 4-3a14.3 14.3 0 00-.2-3.5 14.4 14.4 0 00-1.4-4c-1.9-3.8-5-8.2-6.1-10-3.2-5-5.6-8.7-5.3-13.3.2-3.1 1.5-5.4 3.3-8.4 2.2-3.8 4-4.8 8.1-9.8a101 101 0 005.8-7.6 22.3 22.3 0 012-7.5c.9-2 3-6.3 7.7-9 3.5-1.9 7-2 8.9-2 31.4 27.3 36.6 38.1 34.2 42.5-1.1 2-5.2 5.2-9.1 4.8-1.3-.2-3.4-1.3-7.5-3.6-4-2.2-4.5-2.7-5.8-2.7-3 0-3.7 2.4-6.9 3-3 .5-5.8-1.2-6.9-1.9-7.4-4.6-7-17.3-7.8-17.3-.8 0-1.6 10.5-2.1 53 4.1-8.7 11.1-12.3 15-10.6 2.8 1.2 4.9 5.1 4 8.2-1.4 5-9.2 4-13 9.6-1.8 2.6-3 7-.5 14.8a805.9 805.9 0 013.6-3.5c2.6-2.5 4-3.8 5.4-6 1-1.4 1.4-2.2 1.3-3-.2-2-2.5-2.6-2.6-4.5 0-.8.4-1.4.7-1.9.8-.8 2-1.9 3.3-1.8 3 .2 4.6 5.6 4.9 6.7 2.1 7.1-.8 14-3.4 19.9a59.8 59.8 0 01-6.5 11l-1 18.7c-2.3 1.5-6 3.4-11 3.7-6.5.5-11.6-2.2-14-3.5a31 31 0 01-3.4-2.1 10 10 0 01-6 1.2c-2.3-.3-4-1.5-5.8-2.7a39 39 0 01-3.8-3.1c-2-1.7-2.8-2.6-4.4-3-.4-.2-1.3-.4-2.4-.2-2.4.3-3.2 2.1-5 3.2-1.3.6-3.2 1-6.6 0-2.2-1.5-3.9-1.6-5-1.4-.7 0-1 .3-3.7 1.3l-3 1c-3.4 1.2-7.7 1.6-12 2l-9.8 1.3z" fill="#708035"/><path fill="#2f2b2c" d="M246.6 245.7l-1.3-.5 2.1 2.4zm-.4 4.4l1 .2-2.5-1.8zm12.3-9c.8-1.2 2.5-2.8 6.5-3.8-2.2.1-3.6.8-4.5 1.4-1.3.8-1.7 1.7-4 4.4a89 89 0 01-2.3 2.8 10 10 0 002-1.5c1.4-1.3 2-2.6 2.3-3.2zm-5.9-49.6l-2-4c.2.6.4 1.2.3 2a3.5 3.5 0 010 .5l1.7 1.5zm-2-4a5 5 0 00-.3-.5l.3.5zm-3.7-3.2zm0 0z"/><path d="M300.1 216.1c-.5 0-.1-2.5-1-4.6-1-2.3-3-3.6-5-4.5h-.8c-1.6-1-2-1.4-2-1.5.2-.3 5.8 2.6 5.8 2.5 0-.1-9.8-5.2-9.4-6 0-.1.6 0 .7-.2.3-.5-1-1.8-2.3-2.8l-2.5.7 3.4 3.4a1 1 0 00-.3.5c-.1 1 1.7 1.6 4.8 3.4 2 1.3 1.7 1.3 3.1 2 1.8 1 3.7 1.7 3.6 2.1 0 .2-.3.1-.5.4-.4.5.2 1.5.6 2.2.5 1.1.5 2.8.5 6 0 .6 0 1.4-.5 2a2 2 0 01-.9.5 42.7 42.7 0 000 3v4c.3 1.4.5 2.3 0 3-.2.3-.5.4-.5.8-.1.5.4.7.5 1.4 0 .2 0 .3-.5 1.3l-1 2c0 .8.2 1.2.4 1.8.1.9 0 2.1-1.4 4 1.7-1.7 2.2-3 2.3-3.8.4-1.5.4-2.2.4-2.2 0-.8 0-1.3.3-2 .2-.5.4-.6.7-1 .2-.4.4-.9.2-3.2-.1-2.2-.4-3 0-4.1 0-.4 0-.3.3-1 .4-1.4.7-2.8.6-2.9 0 0-.8 2.4-1 2.4-.3 0 .2-3 1-7.2a18.7 18.7 0 001.6-4.5c-.1 0-.7 2.2-1.2 2.1z" fill="#231f20"/><path d="M290.4 246.3a28.6 28.6 0 01-3.9 2.6 13.2 13.2 0 005-2.7 13.1 13.1 0 002.7-3.5 28.6 28.6 0 01-3.8 3.6zm-8 5.3a6.3 6.3 0 00-1 2.6l2.3-4a6.2 6.2 0 00-1.3 1.4z" fill="#2f2b2c"/><path d="M318 153.4c-1.1-2.1-2.6-2.7-5.5-5.3a33.7 33.7 0 01-3.9-3.8c-1.9-2.3-2-3.2-2.2-3.6v-3.6l-.3-1.8a5.2 5.2 0 00-2.5-2.8l1.3 1.7h-.8c-1.1 0-2-.6-2.4-.9-.8-.5-2.7-1.7-4.8-1.7-1.3 0-1.3.4-2.5.3-1.8 0-3.1-1.1-3.6-1.5-1.5-1-4-2.2-9-2.4-4-.7-7 .2-8.5.7-4 1.5-6.4 4.4-8.5 7.1a17 17 0 00-3.4 5.8 15 15 0 00-.7 4.6 119.2 119.2 0 01-4.5 6.3l-6.4 7.7c-3.9 4.7-5 5.9-6 8.4-.3 1-1 2.8-1 5.1a16 16 0 004 10.5 15.6 15.6 0 01-2-16.7c.4-.7.7-1.3 3.6-4.9 3-3.7 4.5-5.6 7-8.4a212.4 212.4 0 015.4-6l.1.4a318.6 318.6 0 01-5.5 6.8l-7 8.4c-.6.6-1.2 1.2-1.8 2.1 0 0-2 3-2.3 6.4-.4 3.5 1.9 7 6.5 14 3 4.6 4.6 6.3 5.8 10.1a24.5 24.5 0 011 5.7 5 5 0 01-.4 2.3c-.8 1.6-2 1.9-3.4 3-1.5 1.2-2.1 3-3.4 6.6-1.1 3-.8 3.2-1.8 5.5-.5 1.1-2.3 5.3-4 5-.5 0-.6-.5-2.5-2.7a60.1 60.1 0 00-1.4-1.6l1.4-3.3-2.5 2.1.4 1h-.9a11.6 11.6 0 00-3.8.2c-4.5 1-7.2 4.5-8.6 6.4a22.1 22.1 0 00-2.7 4.6l-1.7 1.5-1.9 1.7a9 9 0 01-3.6 1.9l10.2-1.8a45.1 45.1 0 01-5.3 3.4 12.4 12.4 0 003.9-1.5c1.1-.7 1-1 2.4-1.8 2-1.1 2.6-1 4-2a8.1 8.1 0 001.8-2.2c2.9 2.4 4.6 4.7 5.6 6.5 1.8 3 2 5 4.3 6.2 1.6.8 3.3.8 5 .8a7 7 0 003.7-.9l.9-.6c1.8-1.6 3.3-2.2 6.8-4.6l4.4-3.3 4.3-3.1a9.1 9.1 0 00.1-3 9.3 9.3 0 00-1.6-4.4c-.6-.7-.6-1-.4-1.2 0-.2.2-.2.7-.3l.9-.4-1.6-.2c.3-1 .7-2.2 1.5-3.6a12.3 12.3 0 013.1-3.4v7.8a19.7 19.7 0 003.9-3.8c1.4-1.7 2.3-3 2-4.5a4 4 0 00-1.6-2.4l3-4.6c2.2 2 3.2 4 3.8 5.3.6 1.4.7 2.2.7 2.8-.1 1.5-1 2.6-1.8 3.6-.8 1.1-1 1-4.1 3.9a19.8 19.8 0 00-2.2 2.1c-.9 1.1-1 1.6-1.8 2.8-1.6 2.3-2 2-3.2 3.8-1.2 2-1 2.7-2.1 4-1 .9-2 1.3-2.7 1.6l1.9-.2 2-1.6-1.6 4.4h-5.3a192.3 192.3 0 00-7 6.2s-1.3 1.2-3.5 3c-3.2 2.4-4.3 2.7-5.3 2.4-.9-.2-1.5-.9-1.8-1.4l-.5-1.1-4-3.9.6-1-1-.8-.6.3-3-4.2a2.3 2.3 0 01-1.8 1.2l-.7-1.5a9 9 0 01-4.2 2c-1.8.3-3 0-6.2-.3a49.5 49.5 0 00-4.2-.2 5.7 5.7 0 00-4.4 4.8v3.3c-2.7-.6-4.5-.3-5.7.1l-3.2 1.2a19.7 19.7 0 01-3.3.6l1.5-1.4c-4.7 2.6-6 3.8-6.2 4.4 0 0 0 .5-.4 1-.3.4-.6.6-.8.7-1 .6-2.4 1.6-2.3 1.7 0 .1 1.6-.4 3-1.1l1.2-.4 1.3.2c.7 0 1-.2 2-.7 1-.6 1.8-.8 3.4-1.4.4-.1 2-.7 2.2-.5 0 .2-1.2.8-3 1.9a65.3 65.3 0 00-3.7 2.3l10.7-4.6c.8.1 7.7 1.7 9.9.5l1.5-1 2.2-1.4c.5-.2 1.2-.4 2.2-.2.9 0 2.1.3 3.3 1.1a40.3 40.3 0 005.4 5.2c2.8 2.3 7 4.3 8.7 3.3a19.2 19.2 0 012.8-1.6 20.8 20.8 0 005.3 3.4c1.6.7 3.7 1.2 7.8 2 4 .8 5.4 1 6.8.9a19.6 19.6 0 004.2-.6l9-12.5c.1-.5.3-1.2.8-2 .8-1 1.8-1.4 3-2 0 0 3-1.5 5.5-3.5.7-.5 1.7-1.4 2.7-2.6a9.3 9.3 0 001.8-3.7c.2-.9 0-1.4.4-2.8.2-1.3.6-2.1.8-2.8.7-2.1.5-4.6.2-9.4v-2.7c.4-1.3 1-2.6.9-2.7l-.4.2c-.3-.1-.6-1.3-.1-2.2.3-.6.7-.5 1-1 .4-1 0-2.3-.4-2.3-.2 0-.2.6-.5.6-.7.2-1.3-2.5-3.4-4.4-1.2-1.1-1.3-.5-4.3-2.4a19.9 19.9 0 01-4-3.1 15.4 15.4 0 01-2-2.7l.4-1.1c-2.7-1.3-5-1-5.7 0-.2.3-.4.7-.2 1.7a33.8 33.8 0 00-1-1.5c-1.4-2-2.5-3.2-3-3.8-.9-1.1-1.6-3.4-.4-8a17.6 17.6 0 01-1.9-6.2 17 17 0 010-2.4l2.2-.3.4.4c.2 0 .2-.5.2-1.3l-3 .3.2-.6a4.9 4.9 0 010-.6c.8-.8 1.8-.9 2.2-.9a6.5 6.5 0 00-1-.4 6.4 6.4 0 00-1-.3 3.7 3.7 0 013.5-2.5l1-3.6-.4.5c-.8 1.3-1 1.5-1.1 1.5-.2 0-.5 0-1-.8a12.9 12.9 0 013-4.8c.4.5 3.7 5.3 6.2 4.6.7-.2 1.7-.8 3-1.7l1.6-1.3c.3-.3.5-.6.8-.7.6-.3 1.3 0 1.8.2a7.9 7.9 0 01-1.9 2.1 8 8 0 01-3.6 1.6c.8 0 2.9.2 5-1.1a7.5 7.5 0 002-2 41.6 41.6 0 017 4c1.8 1.3 3 2.4 5.2 3 1.8.5 3.4.3 4.6.1a33.2 33.2 0 007-5.4l-.7 1.4a17.7 17.7 0 01-2.6 3.1 11.8 11.8 0 002.1-1.9c2.2-2.6 2.8-5.4 3-6.9a18 18 0 01-1.6 4l-1.5.7a25 25 0 012.8-6l.6-.1a259.6 259.6 0 001.3-6.9c-.1-1.3-.6-2.3-.4-2.4.2 0 .8 1.1 1 1l-.7-1.6zm-3.5 11.6a21.9 21.9 0 01-3.6 5.6l-.1.8a5 5 0 01-2.2 1.7 5 5 0 01-2.8.4 24 24 0 006-6.7s1.8-2.9 2.6-7c.3-1 .5-2.2 0-3.6-.4-1-1-1.7-1.4-2-3.7-3.7-6.4-5.3-7.9-7.8a10 10 0 01-1.3-5.4c.8 2.7 2 4.2 3 5 .8.7 1.4 1 2.5 2.2 1.1 1.2 1 1.5 2 2.5 1.1 1 1.6 1 2.9 2a13.7 13.7 0 012.2 2.3c.1 2.1 0 5.9-1.9 10z" fill="#231f20"/><path d="M290.6 164.8a7.1 7.1 0 012-1.2 7.2 7.2 0 013.1-.5 6.2 6.2 0 01-2 1.3 6.3 6.3 0 01-3 .4z" fill="#708035"/><path d="M299.8 168.7a4.3 4.3 0 003.2 1.8 7.6 7.6 0 00-3.2-1.8z" fill="#fff"/><path d="M269.5 191a3.3 3.3 0 01.8 2l-.8 1.6-.8-2.6.8-1zm3 5.9l1.5 2.3-1.6-1.4z" fill="#708035"/><path d="M273.4 214.1a40.1 40.1 0 011.5-2.4 2.3 2.3 0 01.2 1.4 3.5 3.5 0 01-1.7 1zm-21.2 45v1c.4.4 1 .4 1.6 0l-.8-.2-.4-.4a14.9 14.9 0 00-.4-.4zm5 2.4a2.5 2.5 0 002.7 1.2 4.5 4.5 0 01-2.7-1.2z" fill="#fff"/></g></g></switch></svg>