<svg xmlns="http://www.w3.org/2000/svg" viewBox="0 0 350 350"><switch><g><path fill="#fff" d="M60 60h230v230H60z"/><path fill="#231f20" d="M70 70h211v211H70z"/><path fill="#666e24" d="M78 79h193v193H78z"/><g fill="#231f20"><path d="M91 167l-1-2a33 33 0 00-4 1 34 34 0 00-9 3l7-1h3l4-1zm2-1l1-1 1 2zm-12 34l-4 2h1zm5 15l-1 1 1-1zm12 5h-2l2 1zm-22 15l4-1h4l3-2 4-2 6-2a11 11 0 012 0l4-4 3 6a9 9 0 00-4 0 9 9 0 00-4 1 17 17 0 00-3 1c-4 0-7 2-9 4l-1 1a7 7 0 01-3 0l-3 1h-2v-3z"/><path d="M77 239a58 58 0 013-1h1l1-1h1a6 6 0 01-1 2l-3 1h-1v1l-1-2zm5 0h1zm4-1v-1h1zm8 3l2-1v1zm6 6l1-1zm-3 3l1-2v1l-1 1zm-1 0l-1 1 1-1zm-5 4h-1v1zm-14-7a6 6 0 013-1 3 3 0 01-2 2 38 38 0 003-1l4-3h1v2l-4 4a83 83 0 00-3 2l1 1a7 7 0 01-3 2v-8z"/><path d="M76 263a32 32 0 012-1l9-5 6-3 4-3 5-4 4-4a16 16 0 014-3l12 23-3 1-7 3-6 4a12 12 0 00-1 2h-7l7-8-16 8h-7a29 29 0 017-6 19 19 0 00-7 2 18 18 0 00-4 3h-3l1-9zm32-51l1 3-2 3-3-2zm-2 0a14 14 0 014-3v1l-2 1a9 9 0 00-2 1zm-2-13h-2a7 7 0 004 3l-3-3zM258 84h2v1h-2v-1zm4 14l1 1a1 1 0 01-1 1l-1-1v-1h1zm4-2v1l1 1v-1a1 1 0 00-1-1zm-7 6a3 3 0 000 2v1l1 1v1a1 1 0 000-1 8 8 0 00-1-4zm-6 9l8 1a14 14 0 011-3 7 7 0 013 0l4 2a29 29 0 003 2l1 26-15 1-5-29zm11-4v1l1-1z"/></g><path fill="#231f20" d="M176 55a75 75 0 00-50 17 82 82 0 00-26 34c-4 8-5 15-6 23l-1 27s1 16 6 37l1 3 2 3 4 4 9 9 1 4s-2 0-3 2a4 4 0 00-1 2l-21-15 20 47 3 5a128 128 0 003 5 3546 3546 0 0113 18 1283 1283 0 0026 38l5-43h30l5 42 45-63c5-14 28-81 16-132a89 89 0 00-16-35 77 77 0 00-65-32z"/><path fill="none" d="M178 117a424 424 0 000 10v-11 1z"/><path fill="#fff" d="M174 136c-1-21-1-32-3-47a269 269 0 00-5-25 54 54 0 00-16 4 59 59 0 00-20 14 78 78 0 00-25 53v28l3 18 3 11 4 7 6 7c3 3 5 11 4 33l-14-9 11 25 28 36 5-69c-1-4-4-9-9-13a29 29 0 00-11-7 26 26 0 00-8-2l-13-50 17 14 30 6v26l14 6h1v-20a15559 15559 0 01-2-46zm5-35l-1 15a855 855 0 000 11l5 27a14 14 0 0013 11 38 38 0 009-2c6-2 10-5 13-7a192 192 0 005-7l15-20a258 258 0 016-7l1-1a79 79 0 00-19-35 59 59 0 00-40-22 237 237 0 00-4 16 239 239 0 00-3 21z"/><path fill="#fff" d="M181 89a241 241 0 00-2 12 240 240 0 013-21 237 237 0 014-16 261 261 0 00-5 25zm10 82l29-6 17-15-8 34 9-8-11 15-1 7 7-2-32 26 8-1-13 8a34 34 0 000 8l2 15 2 15a165 165 0 002 11h-1l1 10 27-34-3-34a29 29 0 012-10c1-4 3-5 6-9a76 76 0 005-6 19 19 0 002-3l2-8 4-22v-9l-1-26a84 84 0 00-1-6l-1 1a260 260 0 00-6 7l-15 20a192 192 0 01-5 7c-3 2-7 5-13 7a38 38 0 01-9 2 14 14 0 01-7-2c-4-3-5-8-6-9l-5-27v8l-2 49v-2 20l15-6v-25z"/><path fill="#848414" d="M191 171l29-6 17-15-8 34 9-8-11 15-1 7 7-2-32 26 8-1-13 8a34 34 0 000 8l2 15 2 15a165 165 0 002 11h-1l1 10 27-34-3-34a29 29 0 012-10c1-4 3-5 6-9a76 76 0 005-6 19 19 0 002-3l2-8 4-22v-9l-1-26a84 84 0 00-1-6l-1 1a260 260 0 00-6 7l-15 20a192 192 0 01-5 7c-3 2-7 5-13 7a38 38 0 01-9 2 14 14 0 01-7-2c-4-3-5-8-6-9l-5-27v8l-2 49v-2 20l15-6v-25z" opacity=".3"/><path fill="#727929" d="M248 200l5 6-14 24-4-13 1-4 7-5-3 1 8-9z"/><path fill="#708035" d="M177 262a386 386 0 0110-7l14-8a65 65 0 018-3 9 9 0 012-4 9 9 0 014-3v-5l2-1 1-3 3-3 7-7 6-1h1a10 10 0 014 2l2 2 3-10 3-4c1-2 2-3 4-3a14 14 0 00-1-4 14 14 0 00-1-4l-6-10c-3-5-6-9-5-13l3-9 8-9a101 101 0 006-8 22 22 0 012-7c1-2 3-7 8-9 3-2 7-2 8-2 32 27 37 38 35 42-1 2-6 5-9 5l-8-4-6-2c-3 0-4 2-7 3l-7-2c-7-5-7-18-7-18-1 0-2 11-2 53 4-8 11-12 15-10 2 1 4 5 4 8-2 5-10 4-13 10-2 2-3 7-1 14a806 806 0 014-3l5-6 1-3-2-5v-2l4-1c3 0 4 5 5 6 2 7-1 14-4 20a60 60 0 01-6 11l-1 19-11 4c-7 0-12-3-14-4a31 31 0 01-4-2 10 10 0 01-6 1l-6-3a39 39 0 01-3-3l-5-3h-2c-3 0-3 2-5 3h-7l-5-1-3 1-3 1-12 2-10 2z"/><path fill="#2f2b2c" d="M247 246l-2-1 2 3zm-1 4h1l-2-2zm12-9c1-1 3-3 7-4l-4 2c-2 0-2 1-4 4a89 89 0 01-3 3 10 10 0 002-2c2-1 2-2 2-3zm-5-50l-2-3v2l2 2zm-2-3a5 5 0 00-1-1l1 1zm-4-4zm0 0z"/><path fill="#231f20" d="M300 216l-1-5-5-4h-1l-2-1c1-1 6 2 6 2s-10-5-9-6-1-2-2-3l-2 1 3 3a1 1 0 000 1l4 3 4 2 3 2v3l1 6-1 2a2 2 0 01-1 0 43 43 0 000 3v11l-1 2v2l-1 4 2-4 1-2v-2l1-1v-4-4-1l1-3-1 3 1-7a19 19 0 001-5l-1 2z"/><path fill="#2f2b2c" d="M290 246a29 29 0 01-4 3 13 13 0 006-3 13 13 0 002-3 29 29 0 01-4 3zm-8 6a6 6 0 00-1 2l3-4a6 6 0 00-2 2z"/><path fill="#231f20" d="M318 153l-5-5a34 34 0 01-4-4l-3-3v-6a5 5 0 00-2-3l1 2h-1l-2-1-5-1h-3l-3-2c-2-1-4-2-9-2-4-1-7 0-9 1-4 1-6 4-8 7a17 17 0 00-4 6 15 15 0 000 4 119 119 0 01-5 6l-6 8-6 9-1 5a16 16 0 004 10 16 16 0 01-2-17l3-4 7-9a212 212 0 016-6v1a319 319 0 01-6 6l-7 9-1 2-3 6c0 4 2 7 7 14l6 10a25 25 0 011 6 5 5 0 01-1 2l-3 3-4 7-1 5c-1 2-3 6-4 5l-3-2a60 60 0 00-1-2l1-3-2 2v1h-1a12 12 0 00-4 0c-4 1-7 5-8 7a22 22 0 00-3 4l-2 2-2 1a9 9 0 01-3 2l10-2a45 45 0 01-5 4 12 12 0 004-2l2-1 4-2a8 8 0 002-3l5 7c2 3 2 5 5 6l5 1a7 7 0 003-1l1-1 7-4 5-4 4-3a9 9 0 000-3 9 9 0 00-2-4v-1l1-1h1-2l1-4a12 12 0 013-3v8a20 20 0 004-4c2-2 3-3 2-5a4 4 0 00-1-2l3-5 4 6v2l-2 4-4 4a20 20 0 00-2 2l-2 3-3 4-2 4-3 1h2l2-2-1 5h-6a192 192 0 00-7 6l-3 3c-3 2-4 3-5 2l-2-1-1-1-4-4 1-1-1-1-1 1-3-5a2 2 0 01-2 2v-2a9 9 0 01-4 2h-7a50 50 0 00-4 0 6 6 0 00-4 4v4h-6l-3 1a20 20 0 01-3 1l1-2-6 5-1 1-3 2 3-1h3l2-1 3-1 2-1-3 2a65 65 0 00-3 2l10-4h10l2-1 2-1h2l4 1a40 40 0 005 5c3 2 7 4 9 3a19 19 0 012-1 21 21 0 006 3l8 2 6 1a20 20 0 005-1l9-12v-2l3-2 6-4 3-2a9 9 0 001-4l1-3 1-3v-12l1-2h-1v-2l1-1v-3l-1 1-3-5-4-2a20 20 0 01-4-3 15 15 0 01-2-3v-1h-6v2a34 34 0 00-1-2l-3-3c-1-2-2-4 0-8a18 18 0 01-2-7 17 17 0 010-2h2l1-1h-3v-1l2-1a7 7 0 00-1 0 6 6 0 00-1-1 4 4 0 013-2l1-4v1l-1 1-1-1a13 13 0 013-4s4 5 6 4l3-2 2-1 1-1 1 1a8 8 0 01-2 2 8 8 0 01-3 1c1 0 3 1 5-1a8 8 0 002-2 42 42 0 017 4c2 2 3 3 5 3h5a33 33 0 007-5l-1 1a18 18 0 01-3 3 12 12 0 002-1c3-3 3-6 3-7a18 18 0 01-1 4h-2a25 25 0 013-6h1a260 260 0 001-7v-2l1 1-1-2zm-3 12a22 22 0 01-4 6 5 5 0 01-2 2 5 5 0 01-3 0 24 24 0 006-6l2-7v-4l-1-2-8-8a10 10 0 01-1-5l3 5 2 2 2 3 3 2a14 14 0 012 2c0 2 0 6-2 10z"/><path fill="#708035" d="M291 165a7 7 0 012-1 7 7 0 013-1 6 6 0 01-2 1 6 6 0 01-3 1z"/><path fill="#fff" d="M300 169a4 4 0 003 1 8 8 0 00-3-1z"/><path fill="#708035" d="M270 191a3 3 0 010 2v2l-1-3v-1zm3 6l1 2-2-1z"/><path fill="#fff" d="M273 214a40 40 0 012-2 2 2 0 010 1 4 4 0 01-2 1zm-21 45v1h2-1a15 15 0 00-1-1zm5 3a3 3 0 003 1 5 5 0 01-3-2z"/></g></switch></svg>