<svg xmlns="http://www.w3.org/2000/svg" viewBox="0 0 350 350"><switch><g><path fill="#fff" d="M60 150v140h230V60H163a57 57 0 00-30 0l-13 3a98 98 0 01-13 1 26 26 0 005 6c5 4 9 4 17 8 4 3 10 7 9 8l-6-1c-8-2-12-2-15-4a47 47 0 01-10-6l-9-8a63 63 0 00-9-6l-13-4c-5-1-9 0-17 1l-18 3a109 109 0 00-5 2l4 1 5 3 12 5c2 1 7 4 10 10 2 3 4 10 2 12s-3 1-9 1l-13 1a91 91 0 00-9 3 366 366 0 019 3 51 51 0 0113 6l7 6 4 6c3 6 3 11 6 13l3 3 1 1v4l-1-1c-3-3-7-3-10-3-5-1-8 0-12 1a54 54 0 00-4 1 64 64 0 003 2l3 3v6zm78-69a59 59 0 00-15-8 30 30 0 01-7-4 29 29 0 01-4-3 267 267 0 0028-4 69 69 0 01-12 3l-4 1-8 1 2 2c3 3 6 3 11 5a46 46 0 0115 10l3 3-1 1h-1a41 41 0 00-7-7zm-57 55l-4-4c-3-4-2-7-4-13l-5-7a24 24 0 012 2c4 4 6 10 7 13l2 4a28 28 0 002 4l5 6 1 4-2-2a7 7 0 00-1-1c0-3-2-4-3-6z"/><path fill="#191917" d="M281 281h-76a1222 1222 0 01-17-23c-20-25-30-38-35-49-7-15-17-37-9-59a59 59 0 0128-29l-1-51 110-1v212z"/><path fill="#768696" d="M271 271h-75c-1-8-5-20-12-33-14-25-30-32-37-54-3-8-5-19-3-34l27-24 1-47h99v192z"/><path fill="#fff" d="M170 68a4 4 0 012-1l5 5 4 6 8 6s-5-1-8-5l-7-9-2-2a2 2 0 00-1 0l1 2c9 11 12 13 15 15l4 1-1-1c1-2 8-1 9-1 4 0 9 1 14 4 4 2 5 4 10 9a57 57 0 0011 7l-20 15-43-15-2-36z"/><path fill="#566675" d="M205 248l2 1 1 2 2 1v3l2-1 1 2 2 1v2h2l1 2 3 6a19 19 0 006 4h-15l-1-2h-2v-1h-1l-2 1c-1 0-2-1-3-6l2-15zm46-14l1 1v2l-1-1v-1h-1l1-1zm-30-6l1-1 1 1h-1a1 1 0 01-1 0zm0 2v-1h-1l-1 1h2zm3 1h1v1h-1zm-13-9l2 2-2-1v-1zm-30-24h1l1 2h-1l-1-1 1-1zm6 4l1 1-1 1-1-1 1-1zm-12-2l-3-1-1-1v-1h-1l-1-1v-1h-1l-2 1h1l1 1h1l1 1 3 2h2zm-10-7v1h-3l-5-1-3-5 2-1 1-1h2l1 2 2 3 3 2zm-11-10l2 1 1 1-4 2 1-4zm103 85h1l-1 1-1-1 1-1zm3 1h1v1h-1v-1zm2 1l1 1h-1v-1z"/><g fill="#556775"><path d="M250 79l2 1 2 3v2l-2-3-3-2h-1a2 2 0 01-1-1h-14v1l-3 1h-3v-2h-16 2l-1 2c0 1 2 4 5 4l4-2-2 5 2-1 5 2c-1 0-3 1-2 2l2 2 2 1 2-2 4 1a12 12 0 01-2-2l-1-1-3-1v-1l2-1v-2c1-1 5 5 7 4l1-2h3c2 1 2 3 4 3h2l2 1a6 6 0 012 1 9 9 0 000 4l1 1 2 2 1 2 3 1c3 2 3 5 4 5s0-5-2-6l-2-1v-1h3l-1-1-1-1v-1h1l1 1c1 2 3 1 5 3l2 3 3 3V79h-21zm-26 3l-1-1h2l-1 1zm4 3l-2-1-1-1a1 1 0 010-1h1l2 1v2zm8 0l-2 1a2 2 0 01-1-1l1-2h3l-1 2zm19 11l1-1 1 1v1l-2-1zm1 4l1-1v1zM234 79h-7 7zm16 0h-3 3z"/></g><path fill="#44525f" d="M249 89l-1-1 1-2c0-1-2-2-3-1v3h-1l-2-2-2-1 1-2 1 1v-1l-2-2 1-2h-1 2v1l2 2 2 1 4 2 1 1v1h1l-3 1-1 1zm9-9h-2l-2 2-1-1a5 5 0 00-2-2h7a633 633 0 013 4l-3-2zm7 4h1v2l-1-1v-1zm6 9l-1-2-1-1a13 13 0 01-1-1l-1-2 2 1 1 1 1 1v3zm-64 163l1 1 2-1 1 1c0 2 1 2 3 5 0 0 2 5 1 6l-4-2-1-1-2 1-2 1v-9l1-2z"/><path fill="#191917" d="M221 272h1l-1-2h-1v-1l-1-2-1-1-1-1-1-1-2-3-1-2a31 31 0 00-2-2l3 2 2 1 1 1 1 1 1 2 1 1 1 1v1l1 1 3 3 2 1h4l-2-3h-1a1 1 0 01-1 0l1-1 3 1v-1a5 5 0 00-1-1l-1-1-1-1h1l2 2 1 2h2l2 2a25 25 0 002 2l-17-1zm-14-14h1l1 1v1h1v2l-1-1-1-2h-1-1v-1zm5 5l1 2 2 2-1 1v-1l-2-2-1-1 1-1z"/><path fill="#191917" d="M216 266h1v1l-1-1zm8-2h1v1h-1v-1zm2 4h-1v1l1-1zm-9 2v0c0-1 0 0 0 0zm14-35v-1l1 1c0 1 2 1 2 3l1 1a69 69 0 01-2-1l-2-3zm8 7l2 2h-1l-1-2zm-7 5h2c1 1 0 1-1 1l-1-1zm15 2l1-1v3a5 5 0 00-1-1v-1zm5 0l1 1a2 2 0 01-1 1h-1l1-2zm1-4l1 1h1l-1 1a2 2 0 00-1-1h-1l1-1zm-1 8h-1v1a1 1 0 001 0v-1zm2 2l1 1h-1a1 1 0 010-1zm4-9l1 1h1v-1h-1v-1l-1 1zm2 5h1v1l1 1 1 1h-1l-2-1v-2zm1 4v-1l1 2v2h-1v-1-2zm3-7l1 1h1l1 2 1 3a9 9 0 002 2l1 1c1 0 2 1 2 4v-5a22 22 0 00-2-2l-1-1h-2v-2l-1-1-1-1h-1l-1-1zm1 9v-1l1 1 1 1 1 1v2h1l1 1v1l-2-1h-1v1l-1-1v-1h-1l-1-1v-1l1-1v-1zm-2 4h1l1 2h-1l-1-2zm5 3h1v1l1 1v1l-1-2-1-1zm1-164v1l2 1 1 1-1-1-1-1-1-1zm2-2l-1-1h2l-1 1zm-6-5h1v1h-1v-1zm-2 7a1 1 0 000 1v-1zm-19-21v1l3 2h1l-2-2-1-1a1 1 0 00-1 0zm9 6h1l1 1h-2a1 1 0 010-1zm3 2a2 2 0 012 0h1a1 1 0 01-3 0zm-1 1h1v1l1 1h-1l-1-2z"/><path d="M215 215l1 1-1 1-2-1 2-1z"/><path fill="#191917" d="M136 240l4 2a30 30 0 006 3c11 4 16 5 20 8 4 1 7 2 10 5 3 2 9 7 12 15a31 31 0 012 7h2a22 22 0 00-1-5c-1-2-2-5-4-6a56 56 0 00-10-11c-10-8-18-6-37-16a158 158 0 01-4-2z"/><path fill="#191917" d="M303 190a298 298 0 00-29-33v-16l-14-7a16 16 0 007-7c3-6 1-14-4-19a36 36 0 01-35 10 159 159 0 0030-28 202 202 0 00-47 10 63 63 0 00-6-2l-13-2c-4-1-8-2-11-5l-2-4a66 66 0 00-4-5 24 24 0 00-11-7c-5-2-9-2-14-2a72 72 0 00-9 0l4 2 7 2c4 2 6 5 6 6l4 9 5 8a99 99 0 00-13-1h-8a107 107 0 01-44-16c-7-5-7-7-11-10-5-3-12-6-23-6a36 36 0 017 5l9 13 5 10c3 6 7 13 14 18 4 3 8 5 16 7l13 4c1 1-6 2-12 2-3 0-15 0-23-7l-5-4-6-7c-3-2-8-5-18-4a50 50 0 017 4l4 5 4 6 2 6 4 7 4 2c5 3 8 8 10 11 4 6 4 13 4 16l-11-5-9-3-3-3-5-5-7-2a41 41 0 00-6-1c3 1 8 4 9 8l1 3-1 27 1 8 1 5 1 5 6 14 3 6 4 5 33 26 17 14a49 49 0 018 10l5 6h1v-1a50 50 0 01-4-4 48 48 0 01-2-3l-2-3a12 12 0 00-3-3l1-1 4 4 6 8v-2c0-4-2-7-4-10-5-8-10-10-16-16l-4-6-2-3-3-3a4 4 0 010-1v1l2 1a23 23 0 01-1-9 42 42 0 003 4c4 5 8 7 9 8l9 3c13 4 20 6 27 10a44 44 0 019 8v-1c2-1 5 5 7 10l2 10h12v-4a517 517 0 016-77l-35 11c-5-3-13-10-19-21a33 33 0 01-4-15c0-8 4-15 11-27l9-12-3 6-6 14c-4 10-6 15-5 20 1 4 3 7 7 11a63 63 0 0013 12 2967 2967 0 0022-6c10-2 15-3 18-1 2 2 2 5 3 11a93 93 0 012 13 77 77 0 0013 5 77 77 0 0016 3c1 2 3 6 8 9l8 3c9 1 17-1 22-2l8 3 10-9 2-36a6808 6808 0 01-8-1zm-202 41l-5-5-3-2c-1-1-2-2-1-3l2 1a20 20 0 002 4c2 2 4 2 5 5zm7 5h-1l-1-2 1 1 1 1zm11 8h-1a59 59 0 01-1-1l-2-1-2-1-2-2-1-1a3 3 0 011 0l1 1 1 1 2 1 3 2 1 1zm24 19v2a18 18 0 01-3-4l3 2zm-10-8c1-1 1 0 2 1l3 3v1a31664 31664 0 01-6-5h1zm-5-5l3 3a4 4 0 010 1 26 26 0 00-3-2l-2-2-3-2-1-1-2-1 1-1 1 1 1 1 2 1 3 2zm-53-53a4 4 0 011 1l1-3v5l1 2a36 36 0 001 4 12 12 0 01-1-3l-2-3a78 78 0 00-1-3z"/><path fill="#191917" d="M75 190v-1 3a15 15 0 011 4l-1-6z"/><path fill="#7b8e9d" d="M183 117l34 11 24 24-19-2-13-5a13 13 0 000-9c-2-4-6-6-13-10a152 152 0 01-14-9zm38 1l24-20a37 37 0 00-11 2c-4 1-9 3-12 8-3 3-4 6-4 8l3 2zm68 79l4 10-12-8z"/><path fill="#fff" d="M69 47l11-1c3 0 8 1 12 4l6 7a220 220 0 005 5c-6 0-9-2-11-3l-6-5a39 39 0 00-9-5 35 35 0 00-9-2zm29 144l2 2 3 2a94 94 0 0013 6c10 3 14 5 17 7a29 29 0 0110 17v5l-1-1-6-6-14-9-14-7a42 42 0 01-9-13l-1-3zm130-66l43 23-7 10 37 36 10-3-2 36-10-28-7-11-7 2-35-31a12 12 0 004-8c0-3-1-6-7-12a92 92 0 00-19-14zm11-15l8 6a18 18 0 013 8 18 18 0 01-1 5l-21-11 11-8zm-24 25l6 11 17 3-11-11z"/></g></switch></svg>