<svg xmlns="http://www.w3.org/2000/svg" viewBox="0 0 350 350"><switch><g><path d="M60 150.3V290h230V60H162.7a57 57 0 00-29.2.4l-13.3 2.7a98.1 98.1 0 01-12.8 1.2 26.3 26.3 0 004.8 5.5c5 4.5 8.7 4.2 16.9 8.7 4.2 2.3 9.5 6 9 7-.2.5-1.5.3-6.1-.6-8.3-1.6-12.5-2.4-14.8-3.5a46.8 46.8 0 01-10.1-6.8c-4.7-3.8-5-4.8-9.3-7.8a62.8 62.8 0 00-9.1-5.5c-3.1-1.5-7.5-3.6-13.1-4.6-4.3-.7-8.3-.2-16.3.9-8.4 1-14.6 2.7-18.1 3.8a109 109 0 00-4.9 1.6l3.3 1.3 5 2.5c5.2 2.6 8 2.7 12.2 5 2 1 7.5 4 10.6 10 2 3.5 3.9 10 1.3 12.5-1.5 1.3-3 .3-9.2.4-4.8 0-8.4.7-12.2 1.5a91.1 91.1 0 00-9.5 2.3 366 366 0 019.5 3.6A51.3 51.3 0 0160 108c2.8 2 4.8 4.4 6.5 6.3 2.4 2.6 3.6 4 4.7 6 3.1 5.5 2.8 10.4 5.3 13.1 2 2.3 3 3 3 3 .5.3.9.5 1.3 1 .9 1.2 1.1 2.9.7 3.1-.4.3-1.2-.5-1.5-.8-2.7-2.3-7.2-2.8-10.2-3.1-4.3-.5-7.6.2-11.7 1a54 54 0 00-4.3 1.1 63.6 63.6 0 003.7 2.6c1.3.8 2.4 1.5 2.5 2.6V150.3zm77.6-69.4a58.7 58.7 0 00-14.2-7.5 30 30 0 01-7.5-4 29.3 29.3 0 01-3.6-3 267 267 0 0027.4-4.5 69.4 69.4 0 01-11.3 3l-4.6.8L116 67l1.5 1.7c3.1 3 6.1 3.3 11.2 5.3a45.6 45.6 0 0115.1 9.7l3 3.5-.7.3h-1.5a41 41 0 00-7-6.7zm-57 55.5s-1-1.3-3.1-4c-3.4-4.8-2.1-7.9-4.7-13.6-.8-1.7-2.1-4.2-4.6-6.9a24.3 24.3 0 012 2.1c3.9 4.3 5.7 9.5 7 13.3l1.8 4a28.2 28.2 0 002.2 3.8c2.5 3.5 4 3.7 5 6 .3 1 .7 2.3.4 4.2l-2-2a6.6 6.6 0 00-.2-1.8c-.6-2.2-2-3.3-3.7-5.1z" fill="#fff"/><path d="M280.5 280.5h-75.3a1222.3 1222.3 0 01-17.4-22.3c-19.6-25.4-29.4-38.1-34.6-49.2-7.1-15.4-17.3-37-8.9-58.8a58.5 58.5 0 0127.4-29.2l-.2-51.3 109-.2v211z" fill="#191917"/><path d="M271 271h-74.9c-1.5-7.8-4.7-20.1-12.1-33.5-13.9-25-30-31.1-37.5-53.5-2.6-7.8-4.6-19-2.2-33.8l27-24.5.2-47 99.5.3v192z" fill="#768696"/><path d="M169.5 67.6a4 4 0 012.2-.6c1.8.1 3.1 1.7 5.6 5.1 2.9 4.2 2.6 4.3 3.8 5.8 3.7 4.6 8.4 6 8.3 6.2-.1.1-5-.7-8.4-4.6-1.8-2-5.3-7-6.8-9.3-.3-.5-1.1-1.8-2.4-1.9a2.2 2.2 0 00-.8 0l1.2 1.5c9 10.8 11.4 13.2 14.9 14.8.7.4 2 1 3.7 1.3-.3-.3-.7-.7-.6-1.2.4-1.5 7.5-1 8.4-.8 4.1.3 9.2.7 14.4 3.8 4.5 2.7 4.6 4.7 10.1 9.5a57.2 57.2 0 0010.5 7.2l-19.1 15.1-43.1-15.6-1.9-36.3z" fill="#fff"/><path d="M205.4 248.4c1-.2 1.5 0 1.8.3.7.6.3 1.4 1 2 .6.6 1.4.2 1.8.8.2.3.2.7.1 1.2-.1 1-.7 1.6-.5 2 .2.2.7.1.8 0 .7 0 .8-.7 1.2-.6.5 0 .5 1 1.4 1.7.7.7 1.2.4 1.5 1 .6.8-.3 1.8.1 2.3.5.5 2-.7 2.7-.1.6.4.5 1.3.5 1.6 0 2.2 1.5 3.8 3.5 6.2a18.5 18.5 0 005.4 4.2h-14.4c-.6-1.3-1.1-1.7-1.6-1.7-.6-.1-1 .4-1.5.1-.3-.2 0-.6-.5-1-.4-.4-1-.3-1.2-.3-1 0-1.3.9-1.8.9-.6 0-1.5-1.2-2.7-6.4l2.4-14.2zm45.3-14c.5-.2 1.1 0 1.4.3.5.5.5 1.3 0 1.8-.4 0-.6-.1-.7-.2-.3-.3 0-.6-.3-1-.3-.2-.7-.2-.7-.4 0-.1 0-.3.3-.5zm-29.4-6.5c-.3-.5 0-1 .3-1.2.4-.1 1.3 1 1.1 1.4 0 .3-.4.3-.5.3a1 1 0 01-1-.5zm.2 1.7c0-.3-.3-.6-.5-.7l-1 .2c-.5.2-.7.3-.7.5 0 .4 1.2 1.1 1.8.7a.8.8 0 00.4-.7zm2.1 1.9c.5-.6 1.2-.7 1.5-.4.2.2.2.6 0 .9-.3.5-1.3.5-1.5 0v-.5zm-12.2-9.1c.5-.2 1.5 1.1 1.3 1.5-.2.3-1.5.2-1.7-.5-.1-.4 0-1 .4-1zm-30-24c.2-.2.7-.1 1 0 .8.4.8 1.9.8 2-.2 0-.7.2-1.1 0-.3-.2-.4-.5-.6-1.2-.2-.7-.1-.8 0-.8zm5.6 4c.6 0 1 .3.9.6 0 .3-.3.5-.4.5-.6 0-1-.3-1-.6 0-.2.2-.5.5-.6zm-11.8-2.8c0-.2-1.7-.2-3-1l-.7-.4c-.4-.5-.3-1-.6-1.1-.5-.3-.8 0-1.2-.2l-.5-.9c-.2-.3-.3-.6-.6-.7-.4-.3-.8-.2-1-.2-.5 0-.9.2-1.4.6-.4.3-.4.3-.3.4l1.1.2c.4 0 .6 0 1 .2l.8.6 1.4 1c2 1.3 1.8 1.6 2.5 1.8 1.3.4 2.5-.1 2.5-.3zm-9.7-6.8c0 .4-.6.7-.9.8-1 .5-2.1.2-2.7 0-1.2-.2-2.7-.6-4.9-.7l-3-5.3c1.2.1 1.8 0 2.2-.3.5-.4.7-.8 1.3-1 0 0 .6 0 1.1.2.7.3.7 1 1 1.7.4 1 1.2 1.5 2.7 2.5 2 1.3 3.2 1.5 3.2 2.1zm-11.6-10c.3.4 1 1 1.8 1.3.7.4 1.2.4 1.3.6 0 .2-.6.8-3.8 2.1l.7-4zm103.5 84.8c.2 0 .4.5.3.8 0 .5-.6 1-1 .9-.2-.1-.3-.5-.3-.8 0-.5.6-1 1-1zm3.1 1.6l.4.1v.7c0 .2-.2.4-.3.4-.2 0-.3-.3-.3-.7 0 0 0-.5.2-.5zm1.8 1.2s.4 0 .5.3a.6.6 0 010 .3h-1.3c.2-.4.5-.6.8-.6z" fill="#566675"/><g fill="#556775"><path d="M250 79l1.5 1.3c1.5 1.3 2.3 1.6 2.7 2.5.3.8.4 1.7.2 1.8-.3.1-.8-.8-2.3-2.2-1.3-1.1-2.2-2-3.2-2.2-.1 0-.5-.1-1-.5a2.3 2.3 0 01-.6-.8h-13.8c0 .4-.2 1.1-.8 1.6-.8.7-1.9.6-2.2.5-.7 0-1-.3-1.6-.2-.5.1-.8.4-1 .7l-.8-.1c-.5-.4-.6-1.4 0-2.5h-16c.8 0 1.5.2 1.6.5.1.4-.5.7-.6 1.2-.4 1.4 2.2 4.2 5 4.2 2 0 3.4-1.7 3.7-1.4.6.6-2.2 4.3-1.7 4.6.2.2.8-.7 1.7-1 1.6-.4 3.3.9 4.8 2.4-.2.1-2.2 1.1-2 2.1 0 .4.4.5 2 1.4 1.8 1.2 2 1.5 2.5 1.3.9-.2.7-1.5 1.6-2 .6-.4 1.7-.5 4 1a12 12 0 01-1.8-1.7c-.8-.9-.8-1.1-1.3-1.4-1-.6-1.9 0-2.3-.6-.3-.4-.2-1 0-1.5.4-.5.9-.3 1.3-.8.8-.7.3-1.8.8-2 1-.8 5.1 4.5 6.5 3.8.6-.3.3-1.2 1-1.8 1-.6 2.5 0 2.9.2 2.2 1 2.4 3 4 3 .8.1.8-.3 1.9-.3 1.3 0 2.3.7 2.7 1a6 6 0 011.3 1.2 9 9 0 00.7 3.5c.3.7.5 1.2 1 1.7.7.9 1.3.7 2 1.6.6.7.4 1 .8 1.6.8 1 1.8 1.3 2.4 1.6 3.1 1.3 3.8 5.2 4.4 5 .7-.3.3-5.2-2-6.1-.5-.2-1.3-.3-1.7-1-.2-.4-.3-1 0-1.4.8-.7 2.8.6 3 .3.2-.3-.3-.9-.9-1.3-.7-.5-1.2-.4-1.4-.9-.1-.2-.2-.6.1-1.3l.8.1c.9.3 1.2 1.2 1.4 1.6 1 1.8 2.8 1 5.1 3.1l2 2.5 2.6 3.3V79h-21zm-26 3c-.5.2-1.1-.3-1.1-.7 0-.4.4-.6.8-.7.4 0 1 0 1 .4.2.4-.2 1-.6 1zm3.5 3c-.7-.2-.6-1-1.5-1.4l-.6-.4a1 1 0 01-.2-.7c.4-.6.8-.7.9-.7.6 0 1.2.9 1.6 1.5.4.7.6 1.3.7 1.7-.4.2-.7.1-.9 0zm8.7 0c-.6.7-1.5 1-1.9 1.1a2 2 0 01-1-1.1c0-.7 0-1.5.6-1.8h.7c1.4.2 2-.4 2.2 0 .3.2-.2 1.2-.6 1.7zm19 10.9c0-.5.2-.9.5-1 .4-.2 1 0 1.1.6.2.4.1 1-.1 1-.3.3-1 .1-1.4-.6zm1.3 4.5c-.4 0-.6-.5-.6-.9s.3-.8.7-1c0 0 .6.4.6.9s-.4 1-.7 1z"/><path d="M233.5 79l-6.5-.1h6.5zm16.4-.1h-2.6 2.7-.1z"/></g><path d="M249 89.3c-.6 0-1.5-.6-1.5-1.3 0-.8 1.6-1 1.7-1.7 0-.8-2.2-1.9-3-1.3-.5.5.4 2-.4 2.7-.3.2-.7.4-1 .3-1-.2-.8-1.5-1.9-2.3-1-.7-1.7-.4-2-1-.3-.6.3-1.6.8-1.7.4 0 .6.6 1.1.5.3 0 .6-.4.6-.7 0-.8-2-1-2-2-.1-.5.4-.8.2-1.3 0-.3-.4-.5-.7-.5h2.2l.1.6c.2.8.8 1.3 1.7 2l2.1 1.6c1.7 1 2.6 1.6 3.8 2 .3 0 1 .2 1.2.6 0 .3-.3.5-.3.8.1.5 1 .7 1 .9-.1.2-1.3-.1-2.2.5-.9.5-.8 1.2-1.5 1.3zm9-8.8c0-.2-.7-.8-1.4-.7-.2 0-.4.1-.9.5-1 1-1.1 1.7-1.5 1.7-.4 0-.5-.6-1-1.4a5 5 0 00-1.8-1.6h6.4a632.9 632.9 0 013.6 3.7s-.7-.3-3.3-2.2zm6.8 3.3c.3-.2 1 .2 1.3.5.4.5.3 1.2.3 1.4-.7.2-1.4 0-1.7-.5-.3-.4-.3-1.1 0-1.4zm6.2 9c0-1.2-.4-1.8-.7-2.2l-1-.8a12.9 12.9 0 01-1-1c-.4-.6-1.2-1.6-1-1.7 0-.2.6.6 2 1.3.3.2.7.3 1.1.7l.6.9v2.9zM206.6 256c.3 0 .5.4 1 .5.9.3 1.5-1 2.2-.8.6 0 .8 1 1 1.5.6 2.2 1.5 2.1 3 5 0 .2 2.5 5 1.5 5.7-.6.4-2.7-.5-3.9-2-.5-.7-.7-1.2-1.2-1.3-.6 0-.9.5-2 1.2-1 .7-1.7 1-2 .9-.6-.3 0-1.4-.2-4v-4.8c0-.7.2-1.8.6-1.9z" fill="#44525f"/><path d="M221.3 272l.2-.5c0-.6-.3-1-.4-1.1-.3-.4-.5-.3-.6-.6-.2-.3 0-.5-.1-1-.2-.8-1-1.4-1-1.5l-.7-.4-.7-.8-.7-1.2-1-1c-1-1-1-1.4-2.3-3.2l-1.2-1.4a31.1 31.1 0 00-2.2-2.2l2.9 1.8 2 1.3 1.7.8c.3.2.7.5 1 1 .3.7 0 1 .4 1.5.4.7.9.5 1.4 1.2.2.3 0 .3.6 1.3l.8 1.3.7.6c1.5 1 1.7 1.7 3.3 2.9l1.8 1 3.7.2c-1-2.3-1.7-2.8-2.1-2.7h-.6a1.1 1.1 0 01-.9-.7c0-.3 0-.8.2-1 .7-.5 2.9 1.7 3.2 1.4.1-.1 0-.4-.2-.9a5 5 0 00-1-1.3l-1-1c-.4-.4-.7-.7-.6-.8.1-.2.7-.1 1.2.1 1 .5 1.6 1.6 1.9 2 .4 1 .3 1.3.7 1.6.6.3 1-.2 1.9 0 .7.2 1 .7 2 1.8a25 25 0 002.1 2l-16.4-.5zm-14.8-13.8l.7-.4c.2 0 .9-.2 1.3.2.3.2.3.6.3 1v.7c.3.3 1.1-.4 1.5-.1.3.1.4.6 0 2a.8.8 0 01-.3.1c-.5.2-1.1-.3-1.4-.8-.3-.6 0-1-.3-1.4-.4-.4-1-.5-1-.5-.5-.1-.8 0-.9-.2-.1-.1 0-.4.1-.6zm5.2 5l.3-.2c.4 0 .7.6 1.2 1.5 1 1.5 1.9 2.1 1.6 2.6a.5.5 0 01-.2.2c-.1.1-.3.3-.5.3s-.3-.3-.3-.4c-.4-.8-1.1-1.7-1.4-2-.5-.6-.8-.6-.9-1 0-.4 0-.7.2-1z" fill="#191917"/><path d="M216 265.8l.5-.2c.4 0 .8.6.8 1.4a.7.7 0 01-.5.1c-.4 0-.8-.6-.8-1.3zm8.3-1.9c.3-.2.7-.2.9-.1.3.2.4.9 0 1.5-.5.2-1 0-1.2-.4-.1-.3 0-.8.3-1zm1.2 3.9s-.5 0-.7.4c-.2.3-.1.7.1 1 .8-.4 1.2-.8 1.1-1 0-.1 0-.3-.5-.4zm-9 1.8c-.3.3-.2.7 0 .9.4.2.8 0 .8-.2s-.3-.5-.8-.7zm14.1-35c.2-.2.5-.3.8-.2.2.2.3.5.3.9.4 1.1 2 1 2.6 2.4l.2 1a69.1 69.1 0 01-1.7-1.2c-1-.7-1.7-1.3-2.1-2.2-.2-.4-.2-.6 0-.7zm8.7 7c.3.2 1.5 1 1.6 1.9l-.1.5c-.3.2-.8.1-1 0-.5-.3-.7-1.3-.5-2.4zm-7 5.7c0-.4.5-.6.8-.6.6-.1 1.4.2 1.4.6 0 .3-.8.7-1.4.6-.4-.1-.8-.4-.8-.7zm14.6 1.3c.1 0 .6-.4 1-.2.7.3 1 1.4.5 2.7a5.4 5.4 0 00-1-.7c-.4-.3-.6-.3-.7-.5-.1-.2-.2-.6.2-1.3zm5.6.3c.4.1.4.8.4 1.3a1.8 1.8 0 01-.5 1c-.7.1-1.3-.1-1.4-.5-.2-.5.3-1 .6-1.3.3-.2.6-.6.9-.5zm.1-4c.4-.2.7-.2.9 0 .2.1 0 .5.3.7.3.3.9-.1 1 0 0 .1-.1.4-1 1a1.7 1.7 0 00-.4-.4c-.5-.4-1.1-.3-1.2-.6 0 0 0-.3.4-.7zm-1 7.6c-.7.2-1 .6-.9.9 0 .2.6.3.6.3a.7.7 0 00.3-.2c.2-.3.2-.7 0-1zm2.1 2.8a.7.7 0 01.8 0c.2.1.3.4.3.6-.3.3-.7.4-1 .2a.6.6 0 010-.9zm4.5-9.5c0 .1.1.5.4.7.5.5 1.5.3 1.7 0 0-.2-.1-.4-.3-.5-.2-.2-.4 0-.8-.2-.2-.1-.2-.4-.4-.4-.1 0-.3 0-.6.4zm1.7 5c.3-.1.7 0 .9.2.4.4.3.6.7 1.1.4.5.7.4 1 .9.1.3.3.7.1.8-.2.2-1-.2-1-.3-.4-.2-.4-.3-1.1-1-.6-.6-.8-.8-.8-1.1 0 0 0-.4.2-.6zm1 4.3c.1-.6.3-.7.4-.7.2 0 .2.5.8 1.7.2.3.4.7.4 1.2v.4c-.3.1-.7.2-1 0v-1c0-.4-.2-1-.6-1.6zm3.2-7.3c0 .1.1.8.7 1.2.4.3.6.2 1 .4s.7.5 1.4 1.8l1.1 2.4a8.9 8.9 0 001.4 1.9c.5.6 1 .9 1.2 1 .8.5 1.7 1.7 2.5 4.2v-4.5a22 22 0 00-2-2.1c-1-1-1.3-1.1-1.7-1.2-.6 0-1 0-1.2-.2-.3-.3 0-.6 0-1.3-.2-.5-.5-1-1.2-1.7-.5-.7-.8-1.1-1.3-1.2h-1c-.6-.3-.8-.7-.9-.7zm1 9c0-.2 0-.7.2-.8.3 0 .7 1 .8 1.2.3.8.2 1 .5 1.2.5.5 1 0 1.4.4.4.5-.3 1.4 0 1.7.3.2.7-.2 1.3 0 .6.1 1.1.8 1 1.5-.2.2-.4.6-.7.6-.4 0-.5-.3-1.3-.8-.3-.2-.6-.3-.8-.2-.2.1 0 .4-.3.8l-.4.2c-.3 0-.5-.5-.6-1 0-.4.2-.6 0-.8-.2-.2-.5 0-1-.2 0 0-1-.3-1.3-1 0-.4 0-.9.2-1.1.3-.3.7 0 1-.4v-1.3zM263 261c.2-.2.4-.2.5-.2.4 0 1 .7 1 1.7-.1.2-.4.5-.7.5-.5-.1-1-.9-.8-2zm4.5 2.7c.2-.2.7-.2 1 0 .6.3.3.8.8 1.5.4.6.7.6.8 1 .1.5 0 1-.3 1-.3.1-.4-.8-1.3-1.7-.4-.3-.7-.6-1-1.1v-.7zm1.4-163.6c-.2.1-.2.9.2 1.4.3.4.6.4 1.6.9 1 .4 1.3.8 1.4.7.1-.1-.1-.7-.6-1.2-.5-.4-.7-.2-1.3-.7-.2-.3-.3-.5-.8-.9l-.5-.2zm1.9-2.4c-.6 0-.9-.8-.7-1 .2-.2 1.5.2 1.5.6 0 .2-.4.5-.8.4zM265 93c.5-.1.9 0 1 .3 0 .2-.2.4-.3.4-.3.2-.7 0-.8-.2l.1-.5zm-1.9 6.8a.6.6 0 00-.6.4.6.6 0 00.4.7c.3 0 .6-.4.5-.6 0-.3-.2-.5-.3-.5zM244 79c-.1.1-.4.4-.4.6 0 .3.3.5.6.7 1 .7 1.5 1.3 2.8 2 .2 0 .4.2.5.1.2 0 0-.4 0-.5-.4-1-1.4-1-2-2-.3-.4-.4-.7-.8-.9a1 1 0 00-.7 0zm9 6.3c.2-.1.5-.3 1-.2.3.1.7.4.7.6 0 .2-.7.4-1.2.2a1 1 0 01-.5-.6zm3.3 2a2 2 0 011.2-.5c.5 0 .9.2 1 .3a1.3 1.3 0 01-2.2.3zm-1.3 1l.7-.2.4.8.7 1-.9.2c-.5-.2-1-.9-.9-1.7z" fill="#191917"/><path d="M214.5 215.2c.6 0 1 .2 1.1.7.2.4-.1.8-.5 1-.6.3-1.7-.5-1.6-1 0-.4.9-.6 1-.7z"/><g><path d="M136.3 239.6c.7.7 1.9 1.6 3.5 2.6a29.7 29.7 0 005.7 2.7c11.1 4 16 5.5 20.9 7.7 3.3 1.6 6.2 2.9 9.6 5.5 2.8 2 9 6.9 12.3 15.4a31.4 31.4 0 011.8 7h2.2a21.8 21.8 0 00-1.2-5c-1-2.9-2.5-5-3.8-6.7A55.7 55.7 0 00177 258c-10.4-8-17.6-6.5-37-16.3a158.3 158.3 0 01-3.8-2z" fill="#191917"/><path d="M302.9 189.8a298.3 298.3 0 00-28.5-32.8v-16l-14.3-7a16 16 0 007.1-7.4c2.7-6 1.1-13.3-4-18.9a35.7 35.7 0 01-35.4 10.7A159.2 159.2 0 00258.4 90a201.8 201.8 0 00-47 9.7 62.5 62.5 0 00-6.4-1.7c-6.4-1.4-7.8-.6-13.1-1.9-4.2-1-8.2-2-10.6-5.3l-2-3.3a65.5 65.5 0 00-4.4-6 23.7 23.7 0 00-10.7-6.4c-5.1-1.8-9.4-2-14.5-2.1a71.8 71.8 0 00-8.2.3l3.7 1.5c4.2 1.6 5 1.5 6.7 2.3 4 1.9 6 5.3 6.6 6.3 2 3.2 1.4 4.7 3.1 8.7 1.4 3.2 3.3 5.7 5.2 7.7a98.8 98.8 0 00-12.4-.5c-3.3.1-5 .4-8.3.1a107.3 107.3 0 01-44.3-16.8C95.4 78 95 76 90.6 73c-4.3-3-11.2-6.1-22.3-6.3a35.6 35.6 0 017 5.6c1.4 1.5 4.1 4.4 8.7 13.2 2.8 5.4 2.7 6 4.6 9.6 3.1 6 7 13.4 14.3 18.4 3.9 2.7 8 4 16.3 6.5 8.5 2.6 13.3 3.1 13.3 4.2 0 1.2-6.8 2.2-12.5 2.1-3 0-15-.1-23.4-7L92 115c-3.7-3.6-5.4-5.9-6.5-7-2.5-2.5-7.2-5-17.3-4.4a50.4 50.4 0 016.3 4.4c2 1.7 3.4 2.8 4.7 4.6 1.7 2.2 2.5 4.2 3.5 6.5 1.3 3.3 1 4 2 6.3s2.1 4.8 4.5 6.9c1.5 1.2 2.8 1.7 3.9 2.2 5.3 2.6 8.3 7.8 9.7 10.4 3.7 6.6 4 13 3.8 15.9-4.3-2.8-8.1-4-10.8-4.6-2.9-.7-5.9-1-9.1-3.3-1.3-.9-2.4-2-3.2-2.6-3.4-3.2-3.1-4.1-5-5.4-1.8-1-3.5-1.3-7-1.9a40.8 40.8 0 00-5.6-.5c3.3 1 8 3.2 9.4 7.4.4 1.1.4 2 .4 2.8 0 9.5-.9 19.3-.6 27 .1 2.8.2 5.4.9 8.6.3 1.8.7 2.6 1 5l.8 4.9c.8 4.2 2 4.8 6 14.1 1.4 3.2 2.5 4.5 3.4 6 0 0 1.7 2.4 3.7 4.6 5.7 6.1 24.5 20 33.3 26.6 0 0 6 4.4 16.3 13.8a49 49 0 018.8 10c1.3 2 2.3 4 4.8 5.3l.6.4.2-.6-.3-.2a49.6 49.6 0 01-3.3-3.8 48.2 48.2 0 01-2.6-3.7c-1-1.4-1.1-1.9-1.8-2.7a11.9 11.9 0 00-2.8-2.5l.4-1.4.5.3c2.4 1.1 3.6 3.2 4 4 1.9 3 4.5 6.1 6 8.1V274c-.2-3.9-1.7-7-3.8-10.2-4.9-7.4-10.1-9.5-15.9-15.9-1.9-2-3.2-3.6-4.6-5.8-.8-1.2-1-1.7-1.8-2.6-1.2-1.3-2.1-1.8-2.8-3.4a4 4 0 01-.5-1.4l.8 1.2 1.3 1a22.7 22.7 0 01-.7-8.4 42.2 42.2 0 003 3.7c4.3 4.6 8.3 7 9.2 7.5 3.3 1.9 6 2.6 9.1 3.5 13.1 3.9 20.2 6 26.7 10.2a44 44 0 018.9 7.7c0-.5.1-1 .4-1.1 1.3-.5 5 5.1 6.9 10.2.9 2.4 1.8 5.9 2 10.3h12l.3-4.3a516.7 516.7 0 015-77.3L176 210.4c-5-3.5-13.2-10-18.7-21a33.2 33.2 0 01-4.6-15.3c0-8.5 4-15 11.6-27.2 3.9-6.1 8.3-12 8.5-11.9.2.2-1.2 2.5-3 5.8 0 0-3.4 6.8-6.2 14.3-3.7 9.9-5.5 14.8-4.3 19.8 1 4.1 3.1 6.7 7 11.5a62.8 62.8 0 0012.3 11.2 2966.8 2966.8 0 0022.3-5.3c10.3-2.5 15-3.7 18.2-1 1.7 1.6 2.3 4.5 3.3 10.2a93 93 0 011.4 13.2 77.4 77.4 0 0013 5.2 77.4 77.4 0 0016.3 3c1 2 3.2 6 7.6 9 1.5.9 4 2 8.4 2.8 8.6 1.5 16.6-.2 22-2l8 3.8 9.6-9.6 2.7-36.2a6808 6808 0 01-8.4-1zm-201.4 41c-.3.3-3.6-2.8-5.4-4.5-3.5-3.2-1.8-2-2.8-2.8-.8-.7-1.8-1.4-1.7-2.2 0-.2.2-.4.3-.5a.8.8 0 01.3 0c.7-.1 1.2.9 1.4 1.2a20 20 0 002.8 3.5c1.7 2 3.8 2.8 5 5l.1.3zm6.7 5.3l-.8-.5-1.6-1.3c.1-.2 1-.2 1.5.2.8.4 1 1.5 1 1.6zm10.9 8c-.1.2-.4.2-.7 0a58.5 58.5 0 01-1.4-.9c-1-.7-1.2-1-2.2-1.6l-1.3-1c-1.5-1.1-1.3-1.4-2.2-1.8l-1-.8a2.4 2.4 0 01-.2-.5 3.1 3.1 0 011 0c.7.3 1.2.7 1.4 1 .6.5.5.7 1 1.2.3.3.5.5 1.4 1l3 2c.2 0 .9.3 1.1 1 .1 0 .2.3 0 .5zm23.9 18.6l.5.7-.4 1.4a17.5 17.5 0 01-2.6-3.8c.7.2 1.7.7 2.5 1.7zm-10.2-8.2c.8-.1 1.3.6 2.3 1.5 1.8 1.6 2.5 1.5 3 2.7.3.6.4 1.2.4 1.6a31663.9 31663.9 0 01-6.4-5.5c.1-.1.4-.3.7-.3zm-5.2-4.5s3 1.8 3.4 3.1a4 4 0 01.2 1.1 25.5 25.5 0 00-3-2.5l-2.6-1.8-2.2-2-1.4-1c-.8-.5-1.3-.6-1.5-1 0-.5.1-.9.3-1.1.2 0 .5 0 .7.2.3.2.4.5.6.8.4.5.7.5 1.3 1 .8.5.9.9 1.5 1.5.7.7.9.6 2.7 1.7zM75 196.7a3.7 3.7 0 011.1 1.5l.7-2.7c.2 0-.2 1.6.2 4l.5 2a35.5 35.5 0 001.5 4.1 12.4 12.4 0 01-1.5-2.4l-1.3-3.3a77.6 77.6 0 00-1.2-3.2z" fill="#191917"/><path d="M74.6 189.9c.1-.8.2-1 .3-1 .2 0 0 1.4.4 3.5a14.6 14.6 0 01.6 4 7.6 7.6 0 01-.3-.5c-1-2-1-4.4-1-6z" fill="#191917"/><path d="M182.5 117.3l34.6 10.6 23.5 24-19-1.7-13-5.4a13 13 0 00.2-8.9c-1.6-4.2-5.6-5.6-13-9.9a152 152 0 01-13.3-8.7zm38.3.5l24.6-19.7a37 37 0 00-11.7 2c-3.5 1.3-8.3 3-12.1 7.6-2.4 3-3.6 6-4.1 8l3.3 2.1zm68.2 79.3l4.4 10.2-12.7-8z" fill="#7b8e9d"/><path d="M68.5 47.3c2.7-.9 6.8-1.7 11.8-1.1 3 .3 7.6.9 11.6 4 1.5 1.2 1.6 1.7 5.8 6.4a220.4 220.4 0 005 5.3c-5.2 0-8.7-1.4-10.8-2.7-2.3-1.4-2.4-2.2-6-4.9a39.2 39.2 0 00-8.6-4.8 35 35 0 00-8.8-2.3zm29.2 143.4c.2-.1.8.8 2 2 1 1 2 1.6 3 2.1a93.6 93.6 0 0013.6 6.1c9.4 3.3 14 4.9 17 7.4a28.7 28.7 0 019.3 17.2c.4 2.3.8 4.8.3 5-.2 0-.7-1-1-1.4-1.2-2-2.7-3.3-5.8-5.8-4.9-4-12.9-8.3-14.1-9-9.4-4.8-10.4-4.4-13.8-7.4a41.5 41.5 0 01-9.5-13c-.2-.4-1.3-3-1-3.2zm130.2-66.1l42.8 23-6.4 10.9 36.7 35.7 10.3-3.5-2.7 36.2-10-27.6-7-11.5-7 1.9-34.3-31a12 12 0 003.7-7.4c.2-3.2-1.2-6.4-7.4-12.6a92 92 0 00-18.7-14.1zm11.1-15l8 6.8a18.4 18.4 0 012.8 7.7 18.1 18.1 0 01-.3 5.4l-21.7-11.1 11.2-8.8zm-23.8 25.6l6.2 11.3 16.5 2.6-10.6-10.8z" fill="#fff"/></g></g></switch></svg>