<svg xmlns="http://www.w3.org/2000/svg" enable-background="new 0 0 350 350" viewBox="0 0 350 350"><switch><g><path fill="#fff" d="M60 60h230v230H60z"/><path d="M70 70h211v211H70z"/><g fill="#358496"><path d="M280 214h-1-1v-5h1-1a1 1 0 01-1 0v-1l-1-1h-1v1l-1 1v1h-1-1-1v-1-1 1-1a13 13 0 002-1c1-2 1-3 3-3l1-1 2-2h2l1-2-1 1h-2l-2 1v1h-2l-4 2v-1l2-1h2l1-1h-1v-1l1-1h-1l-2-1h2l1-1h-5V79H114l-2-2-1-1-1 1v2h-1l-1-2s-1 2-2 1v-2l-1 1h-2v1l2 1h-3-4a19 19 0 000-1l-3-2-2-2h-1l-2-2v3h-3v2l2 1 3 1h-5l-1-1h-3a8 8 0 00-2-1h-1l1 1h4l1 1h-7v44a24 24 0 00-3 5l2-2 1-2v-1 9a2 2 0 00-1 0v-1h-1l-2-1v1l1 1h-2l-2-1 1 2v2l-2 1a22 22 0 01-1 0h-2l2 1 1 1v2h-1 6-1l-1 1 4 1-1 1h2v48h-2l2 2v1l-4-2-1 1-3-1s3 1 2 2l1 1v1h1l1-1 1 1 2 1v2l-1-1h-2l-1-1-1-1-1-1h-1l-3-3v2l1 1h1l1 2h-2l1 1 1 1 1 1 2 1h1l-1-2 1 1 1 1 1 1 1 1-2-1v-1a2 2 0 00-1 0h-2l-4-3v-1l-2-1 1-1h-1l-1-1h-1l-1-1-1-1a4 4 0 00-1-1h-1l2 2v2h-1l3 3a8 8 0 00-2-2h1l2 1-1-2 1 1 2 1 1 1v1l3 2 3 1v1l3 1v13h-1a9 9 0 01-1-1h-2l4 2v1l-3-1v-2l-1 1v1h-2 0v-1l-1 1 1 1 1 1v-1l1-1s1-1 2 1l2 1v1l-2-2v1s-1-2-2-1l1 1 3 2v2a6 6 0 00-1 0l1 1v1a7 7 0 00-1-1h-1l-1 1h3-2l-1 1h2-2l1 1h1v1l-1-1v1h-1v1h1v1l-2-1 1 1h1a3 3 0 002 2h-1v1l1 1v1 35h192v-44h1v1h-1 1l1-2h1a3 3 0 000-1l-1-1v-3c1-2 4-2 4-2l-1 1 2-2 2-1v-3z"/><path d="M274 207h-1l-1 1h2v-1zm3-2h-1l2 1 1-1h-1-1zm4 1l1-1-2 1h1zm0 1h-1v1l2-1 1-1h-1l-1 1zm3-8h-1 1zm2 15v2-1-1zm-2 2h1-1zm-1 0v-1l-1 1 1 1v-1zm-1 0s-2 0-2 2l1-1 1 1v-2zm-7 6v-1l-1 1 1 1v-1h-1zM86 77h-1v-1 1h1zm-3-2h1v1a1 1 0 001-1h-1l-1-1v1zm5-3h1-1zm-1-1c-1 0 0 0 0 0zM76 91h1l1-2v-2h-1v1l-1 3zm-3 37l1-1 1-1v-1l-2 3zm1 1l-1 1h1v-1zm-3-4v-1 1zm-2 5v-1l-1 1h1zm0 3v0c1 0 0 0 0 0zm2 2h-1 1zm-5 5v0h1zm3 3v-3l-1-1 1 3v2zm3 1v-2l-1 1v1h1zm-1 0v2h1l-1-1v-1zm-5-1v1h1v-1h-1zm11 61l-4-2-3-2 1 1 2 1-1 1h2l2 1 3 1-2-1zm-2 1l-2-1-1-1h-1l2 2h2zm3 5v0zm-2 5l1-1-2-1-1-2 2 3zM74 212v2l1 1v-1l-1-1v-1zm-1 4v-1l-3-4v-1h-1v2l2 2 1 1 1 1zm-3 2l-1 1 1-1zm-2 2h1v1l1-1h1-3zm-1 0v-1h-1l1 1v0zm7 2v-1h-1l1 1zm0 4v2-1-1zm-1 1zm-1 0l-1 1h1a1 1 0 000-1zm0-2v-1 1zm-3 4v-1 1h0zm0 1h0zm0 1h1-1zm1-1v1h1l-1-1z"/></g><defs><filter id="a" width="337.7" height="310" x="10.7" y="16.2" filterUnits="userSpaceOnUse"><feColorMatrix values="1 0 0 0 0 0 1 0 0 0 0 0 1 0 0 0 0 0 1 0"/></filter></defs><mask id="b" width="337.7" height="310" x="10.7" y="16.2" maskUnits="userSpaceOnUse"><g filter="url(#a)"><g fill="#fff"><path d="M280 214h-1-1v-5h1-1a1 1 0 01-1 0v-1l-1-1h-1v1l-1 1v1h-1-1-1v-1-1 1-1a13 13 0 002-1c1-2 1-3 3-3l1-1 2-2h2l1-2-1 1h-2l-2 1v1h-2l-4 2v-1l2-1h2l1-1h-1v-1l1-1h-1l-2-1h2l1-1h-5v-20h1a226 226 0 003-34l-1-1v-2h-1l-1 1v-2l2-1-1-2h-1a13 13 0 00-1 0v-5h2l-1-4a93 93 0 01-1-3V79h-27a99 99 0 00-39-24 103 103 0 00-30-4 101 101 0 00-29 4 101 101 0 00-30 14v2h-1l-1 2h2a6 6 0 002 0l2-1v1h13l1 1v-1h5l1 1h2l1-2h1l1 1h0l-1 1h-1 1v1l-2-1h-2v1l-1-1h-2l1 1h-1v1a1 1 0 01-1 0l-1-1h-2a48 48 0 00-2 0v1h-1l-1 1-2-1h-1v1l-1-1h-2l-2 1-1 1h-1v-1l-2 1h-1v-1l-2 1-1-1-2-1-1 1v2l-1-1v-1c-1 0-2 2-3 1v-2l-1 1h-2v1l2 1h-3-4a19 19 0 000-1l-3-2-2-2h-1l-2-2v3h-3v2l2 1 3 1h-5l-1-1h-3a8 8 0 00-2-1h-1l1 1h4l1 1h-7v44a26 26 0 00-3 5l2-2v-1l-1 5v1l-2-1v2h1v1h-2l-2-2 1 2v2l-2 1a22 22 0 01-1 0h-2l2 1 1 1v2h-1 5l-1 1 4 1-1 1h2v8l-4 1a99 99 0 004 29v10h-2l2 2v1l-4-2-1 1-3-1 3 2v2h1l1-1 1 1 2 1v2l-1-1h-1-1l-1-1-1-1-1-1h-1l-3-3v2l1 1h1l1 2h-2l1 1 1 1 1 1 2 1h1l-1-2 1 1 1 1 1 1 1 1-2-1v-1a2 2 0 00-1 0h-2l-4-3v-1l-2-1 1-1h-1l-1-1h-1l-1-2h-1a4 4 0 00-1-1h-1l2 2 1 2h-2l3 3a8 8 0 00-2-2h1l2 1-1-2 1 1 2 1 1 1v1l3 2 3 1v1l3 1v13h-1a9 9 0 01-1-1h-1-1l4 2v1l-2-1-1-1v-1l-1 1v1h-2 1l-1 1v-1 1h1v0l1-1 2 1 2 1v1l-2-2v1s-1-2-2-1l1 1 3 2v2a6 6 0 00-1 0l1 1v1a7 7 0 00-1-1h-1l-1 1h3-2l-1 1h2-2l1 1h1v1l-1-1v1h-1v1h1v1l-2-1 1 1h1a3 3 0 002 2h-1v1l1 1v1 35h192v-44h1v1h-1 1l1-2h1a3 3 0 000-1l-1-1v-3c1-2 4-2 4-2l-1 1 2-2 2-1v-3zM134 70l-1-1 1 1zm94-1l1 1-1-1zm-36-12v-1l1-1v1l-1 1h-1 1zm-10 12v1l-1-1zm-3 2h1-1-1 1zm-9-1h1l-1 1v-1zm-14 3h1l-1 1v-1zm-4 0v0zm-3 0h1v1h-1v-1zm-2 1v-1z"/><path d="M274 207h-1l-1 1h2v-1zm3-2h-1l2 1 1-1h-1-1zm4 1l1-1-2 1h1zm0 1h-1v1l2-1 1-1h-1l-1 1zm3-8h-1 1zm2 15v2-1-1zm-2 2h1-1zm-1 0v-1l-1 1 1 1v-1zm-1 0s-2 0-2 2l1-1 1 1v-2zm-7 6v-1l-1 1 1 1v-1h-1zM86 77h-1v-1 1h1zm-3-2h1v1a1 1 0 001-1h-1l-1-1v1zm5-3h1-1zm-1-1c-1 0 0 0 0 0zM76 91h1l1-2v-2h-1v1l-1 3zm-3 37l1-1 1-1v-1l-2 3zm1 1l-1 1h1v-1zm-3-4v-1 1zm-2 5v-1l-1 1h1zm0 3v0c1 0 0 0 0 0zm2 2h-1 1zm-5 5v0h1zm3 3v-3l-1-1 1 3v2zm3 1v-2l-1 1v1h1zm-1 0v2h1l-1-1v-1zm-5-1v1h1v-1h-1zm11 61l-4-2-3-2 1 1 2 1-1 1h2l2 1 3 1-2-1zm-2 1l-2-1-1-1h-1l2 2h2zm3 5v0zm-2 5l1-1-2-1-1-2 2 3zM74 212v2l1 1v-1l-1-1v-1zm-1 4v-1l-3-4v-1h-1v2l2 2 1 1 1 1zm-3 2l-1 1 1-1zm-2 2h1v1l1-1h1-3zm-1 0v-1h-1l1 1v0zm7 2v-1h-1l1 1zm0 4v2-1-1zm-1 1zm-1 0l-1 1h1a1 1 0 000-1zm0-2v-1 1zm-3 4v-1 1h0zm0 1h0zm0 1h1-1zm1-1v1h1l-1-1z"/></g></g></mask><radialGradient id="c" cx="179.1" cy="251.6" r="73.8" gradientTransform="matrix(1.6566 0 0 2.1964 -117 -381)" gradientUnits="userSpaceOnUse"><stop offset="0" stop-color="#e3edef" stop-opacity=".8"/><stop offset=".4" stop-color="#e1ecee" stop-opacity=".7"/><stop offset=".6" stop-color="#d7e6e9" stop-opacity=".4"/><stop offset=".9" stop-color="#c7dde2" stop-opacity="0"/></radialGradient><path fill="url(#c)" d="M11 16h337v310H11z" mask="url(#b)"/><path fill="#fff" d="M274 142v-2h-1l-1 1v-2l2-1-1-2h-3l1 1h-2v-1h-7l-1-1v-1h-1l-1 1h-1l-1-1h-2v2h-1l-1 1v-1l-1-1h-1c-1 1-3 0-3-1l-34-3 1-3h11l1 1 2-2h1v1l-1 1h4v1h1l1-2s-1 0 0 0l1 1h1v-1l1-1v1l1 1h4v-1h1l1-1v-1-1l1 1v1h-1v1l1 1 1 1h1v-1h-1l-1-1h5-2l1 1h2l-1 1h2l1-1h1v1l1-1v-1l2 2h4v-2h-2v-1h2l1 1v2h3l1-1v1h2v1h4l-1-4-3-9a233 233 0 00-2-4v-1l-1 1v2l-2-2 1-1 1-1v-2l-2-4-1-1v-2h-3v-1-1l-1 1v1l-1 1v1l-1 1h-1v-1h1l1-1v-2h-1v-1h-1l-1 1h-1l-1-1h-1-1v1a7 7 0 010 2v1l-1-1h-1l1-1v-1l-1-1a6 6 0 00-1 0l-2-1h-3v1h-1v1l-1-1-1-1h-1a11 11 0 00-2 0h-3v4-1a3 3 0 00-1-1l-1-1h1l-1-1-1-1h-2l-1 1-1 1h-1v-1h-5l-1-1h-1l-1 1h-1l-1-1h-1-1l-2 1h-1l-1-1a4 4 0 00-2 0h-1l-2 1v-1h-2v1h-1-1v-1l-1 2h-1l-1-2v-1l-2 1h-1v2h-1l-1-1h1l-2-1-2-1-2-1h-2l1 2h-2v-1h-2l-2-1h-2v1h-1-1l-1-1v1h-1l-1-1v2l1 1-1 1a3 3 0 000-1l-1-1h-1l1-1-1-1a2 2 0 00-1 1h-1v1l-1-1v-1l-2 1h-1-2l-2-1-1 1v1l-1-2h-1l-1 1-1 1h-1l1 1v2h-1v-2l-1-2v-1-1h3l2-1v1h1l1-1h2l1 1 2-1 2-1v1h2l3-1h14l-1-1 2 1h3l3-1 1-1v1h3a3 3 0 011 0h2a3 3 0 001 0h1a28 28 0 013-1l2 1h2l3-2v1h7v1l2-1h1l1 1 1-1 1-1 4 1 1 1 1-1v-1h1v1h7v-1h1l2 1v1l2-1h1l1 1h1v-1h4l1 1h1v-1-1a104 104 0 00-50-36 103 103 0 00-30-4 101 101 0 00-29 4 101 101 0 00-30 14v2h-1l-1 2h2a6 6 0 002 0l2-1v1h13l1 1v-1h5l1 1h2l1-2h1l1 1h0l-1 1h-1 1v1l-2-1h-2v1l-1-1h-2l1 1h-1v1a1 1 0 01-1 0l-1-1h-2a48 48 0 00-2 0v1h-1l-1 1-2-1h-1v1l-1-1h-2l-2 1-1 1h-1v-1l-2 1h-1v-1l-3 1v1l-1-1-1 1h-5l-5 4-3 5-4 4-5 7-1 2v2l-3 3 1 1-1 2h2v1h-3l-1 1v2l1 2v1h-2v-1l-1 1-1 2 1 1v2h-1l-1 2-2 7-1 5v3l-1 2h11l1 1v-1h1l1 1h37l-51 11a99 99 0 004 29 100 100 0 0023 39v-1l1 2 14 12a6 6 0 011-1l2-1 1 1h-1l-1 2a93 93 0 003 2v1h6v1l2-1v-1l2 1h1v-1h1v1h1v-1l1-1h-1 2v1l1 1 1 1v-1h1l2 1h1l1-1-1-1 1-1h1l-1 1v1h2v-1l1 1v-1h1v-1h-1 1l2 1h9c0-1 0 0 0 0v1h1l1-1h1l1 1 1-1h2c1 1 3-1 4-1 2-2 5-1 14-1h4l1 1 2 1h3v-1h3l2 1 1-2h1v1h1v-2h-1 2l1 1 1 1h1l1-1 1-1v-1h1v-1h1l1 1v1h-1-1l-1 1-1 1 1 1h1v-1h5v-3l2 1 1 1h-1v1h7l3-1s-1 0 0 0h0l1-2 1 1 1 1h2l1-2v1h1a101 101 0 0021-19v-1h-5-7l-1 1h-1l-1-1h-4v1h-1v-1h-2l-3 1v-1h-2l-1 1-1-1h-2a2 2 0 00-1 0h-1l-1 1v-1a4 4 0 00-1 0v1h-2l-1-1h-2 1-8l-2 1v-1h-3l-1 1h-1l-1-1h-2-2l-2-1-1 1-9 1c-11 0-26 7-32 0a11 11 0 01-2-3c-10 0-14 1-15 2h-2a7 7 0 01-2 0h-2l-2-1-2 1-1-1h-4-2v1h-1l-1-1h-5v-1l-1 1h-1-1v-1l-2 1-1 1-2-1-1-1 1-1v1h1l1-1 1 1h1l1-1h1v-1h1l1 1h5v-1h4a2 2 0 011-1l2 1h2l1-1c1-2 4-1 5-1l18-1 5 6h6l2-3 11-6a583 583 0 0150 2h1l1-1h4l2 1 1-1h1v1h1v-1h1l1 1h1l1-1 2 1v-1h12l4 1h1v-1h1l1 1a27 27 0 003-3l4-6a617 617 0 014-9v-3h-2-1v1l-1-1h-2a6 6 0 010-1h-23l4-6h28a226 226 0 002-34v-1zm-4-15v1l-1-1h1zm-16-7v-1 1zm1 3v-1 1zm1-3h-1v-1l1 1zm1 4h-1l1-1v1zm1-5a1 1 0 01-1 0v-1h1a1 1 0 010 1zm2-2v-1-1l1 1-1 1zm5 10h-1l1-1v1zm-1-5l1 1h-1v-1zm0-3v1h-1l-1-2 2 1zm-2-3h1l-1 1v-1zm1-4l-1 1h-1v-1h2zm-1-7h-1 1zm-4 4h1v1h1l1-1h1l-1 1h-1l-1 2s-2-1-1-2zm-3 5l1 1 1-1h1v1l-1 1-1-1v1h-1v-2zm0-1v1h-1l-1-1 1-1v1h1zm-2-8h1l-1 1v-1zm0 3l1 2-1 1v-1h-1l1-2zm-9 9h1v1l-1-1zm1 3v-1 1zm1-5v-1 1zm3 7h-1v-2l1 2zm2 0v1h-1l1-1zm0-4v1h-1l1-1zm0-2v1h-1v-1h1zm-2-3h1l-1 1v-1l-1-1v-1h1v2zm-3-11h1l1 1 1 3-1 1-1-1v-3l-1-1zm1 7l-1 2h-1l1-1-1-1h2zm-2-3v1h-1l1-1zm-1-3h1v1l-1-1zm0 8l1 1-1 1v-1-1zm-2-7h1-1zm-22 9h2l1 1v1h-2v-1l-1-1zm2-3h1v1l-1-1zm0 13l-1 1v-2h3l-1 1zm5-2h0zm1-14v-1l1 1h-1zm2 14c-1 0 0 0 0 0v1zm1 6v-2 1zm1-3l-1-1h1v-1 2zm0-15v0zm2 11h-1l-1-1h2v1zm4-10s-1 0 0 0v-1 1zm4 7l-1 1h-1l2-1zm-3-4h1v1h-1l-1-2 1 1zm-2-11h1l1-1v1l-1 1h-1v-1zm0 4h1l1-1v1h-1l-1 1h-1l1-1zm-3 1c-1 0-1 0 0 0zm-1 3l2-2-1 1-1 1zm1 0l-1 2 2 1h1v1l-2 1-1-1-1-2 2-2zm-3-4l2-1-2 2v-1zm-2 8v-1l1-1 1-1v2l-1 1v1h-1v-1zm-2-12h1l1 2-1 1v-1l-1-1v-1zm0 10h1l-1 1a2 2 0 01-1 0h-2v-1h3zm-3-9h2l-1 1-1-1zm0 5l-1 1v-1h1zm0-7v1h-1l1-1zm-4 4h1v-1h2v1h-2l-1 1v-1zm-1 3l1 1v1l-2 1v1l1 1-1 1v-1l-1-1v-1l1-1 1-2zm-1-5v-1l1 1-1 1h-1l1-1zm10-34l1 1h-1v-1zm-36-12v-1h1v-1 2h-1-1 1zm-11 12v0zm-2 2h1-2 1zm-9-1l-1 1 1-1zm-14 3h1l-1 1v-1zm-22-3l-1-1 1 1zm-55 64h1-1zm0 3v-1l1 1 2 1-3-1zm16-32h1v1l-1-1zm0-3v1h-1l1-1zm-2 5l1-2v2l-1 1v-1zm1 8l1-1v1h-1zm0 5v1l-1-1h1zm-2-10l1 1h-1l-1-1h1zm1 13v-1 2zm-2-16h1v1l-1 1v-2zm-2-4l1-1v-1 1l-1 1zm-1 7v-1h2l-1 1h-1zm1 4v1l-1-1h1zm-1-8l1-1h1v1h-2zm0 10l1 1h-1v-1zm1 2v1h-1l1-1zm-1 14h1-1zm1 2h-1 1zm-4-22v0zm-1 26l-1 1v-1h2-1zm2-5h-1l-1 1v-1h-1v-1h1v-1h-2v-1h2v1l1 1h1v1zm1-21v0l-1-1 1 1zm1 26l-1 1 1-1h0zm0-2h-1 2v-2l1 1-2 1zm1-23v-1l2-1-1 1v1h-1zm2 17h-1 1zm-1 2h0zm1 8l-1-2 1 1v1zm2-3l-1 2 1-3v1zm2-6l-1-1v1h2-1zm1-18h-1l-1-1 1-1v-1l-1-1h2l1 1h-1l-1 1 1 1h1l-1 1zm1 6h-1 1zm148 96h1v1h-1v-1zm1 4v1h-1v-1h1zm-7 3l-1 1 1-1zm-4-5v0zm-2 13l-1 1v-1zm-5-14v1l-1 1v-1l1-1zm-4 10l2-1-1 1v1h-1v-1zm-2-10l1 1h-1v-1zm-2 17v1c1 0 0 0 0 0h-1v-1h1zm-2-6l1-1v1c1 1-1 1-1 1v-1zm-6-12h1v0h-1zm-1 3h1v1h-1v-1zm0 12h-1 1zm-5-13c0-2 1-2 2-2l-1 1-1 2v-1zm0 14h-1 1zm-7 1l1-1v1l-1 1v-1zm-4-6h1l-1 1v-1zm0 4h0zm-2 2h1v2l-1-1v-1zm-33 1l1 1h-1v-1zm-4 3zm-4-3h3l-2 1-1-1zm-5-5v1l-1 1v-1l1-1zm-4 2h1-1zm1 2l1 1-1-1zm-1-6h1l-1 1v-1zm-3 6v-1 1zm1 3l1 1h-1v-1zm-2-6h1v1l-1 1v-1l-1-1h1zm-1 5h1-1zm-2-2v1-1zm-2-4v1l-1-1zm-1-11v0zm0 7v0zm-2 5l1 1 1 1h-1v1-1l-1-2zm0 5h1v1h-1l-1-1h1zm-1-12v1l-1-1h1zm-1 10h-1 1zm0-14v0zm-1 9v-1-1l1 1-1 1s0 1 0 0zm0 6l1 1h-1-1 1zm-5 3l-1-1h1v1zm3-22v1zm-1 20h-1 1zm0-4v-1 1zm0-4l-1 1v0a1 1 0 010-1h1zm-1-9h-1l1-1zm-1 13h-1 1zm-2-10v1l-1-1h1zm-4 11v0-1 1zm0-1h-1v-1l1 1zm0-7l-1 1-1 1 1-2zm-5-9v0zm-1 8l1 1-2-2 1 1zm-1-4v-1 1zm0-5a1 1 0 010 1l-1-1h1zm-2 3v1h-1l1-1zm-2 3l1-1v3l-1-2zm-7-7h-1v-1h1v1zm3 5h-1 1zm-1-4l1 1h-1c-1 1 0 0 0 0v-1h1zm6-5l-1 1 1-1zm26-101h1l-1 1h-2v-1h2zm-8-11l1 1h-1v-1zm-1 5l1-1 1 1-1 1h-1l1-1zm0 4v1-1zm-7-4v1l1 1-1 1v-3zm-1-3v0zm-3 2l1-1 1 1v2c1 0 1 0 0 0l-1-1h-1v-1zm-1 3h1v-1l1 1v2h-1l-1-1v-1zm0 7v1h-2l1-1h1zm-1-11v3-1l-1-1 1-1zm-3 2l1 1 2 2h-1l-1 1h-1v-2l-1-2h1zm-1 6v0zm-2-2l1-1v2h-1v-1zm-5-2h1l1-1h1l-1 1-1 1-2-1h1zm2 2l-1 1v-1h1zm-4-3h1l-1 1v-1zm0 5v-1c1 0 1 0 0 0v1zm1 9l1 1h-1v-1zm1 12h-1 1zm1-6h1v1l-1-1zm1 3l1-1v1h-1zm1 4l-1-2 1 1v1zm1-4l-1-1h1v1zm1-3l-1 1v-1l1-1v1zm1-7v-2h-1l-1-1h-1-2v1h1l-1 1-1 1-1-2v-1l1-1h-1v-1h-1 1l1-1h1v-1h1v1h1l-1 1h-1l1 1h4l-1-1h-1l1-1c1 0 3 2 2 3h-1v1l1 1-1 1zm2 4v2l-1-1v-1l2-1-1 1zm1-11h-1 1l1-1 2 2h-1l-1-1h-1zm2 7l-1-1h1v1zm0 2v-1l1 1v1l-1-1zm2-4l-1 1v-1h-1l2-1 1 1h-1zm1-1v-1l-1-1h1l1 1-1 1zm1 3h-1 1zm0-9h2l-1-1 1 1-1 1-1-1zm1 9v-1l2-1-2 2zm2-6l-1 1v1l-1-1 2-1zm1 3l-1-1h1l2-1v4l-1-1-1-1zm2 4l-1-2 2 2h-1zm1-14v1-2 1zm0-2h-1v-1-1l1 1v1zm0 9l1-1v-1h1v2h-2zm2 4v-1 1zm1-2v-1h1l-1 1zm2 4h-2v-1l1-1 1-1v3zm2-4l-1-1v-1-2l-1-2v-1 1h1l1 2 1 2v1l-1 1zm1-6l-1-1h1v1zm0-6l-1 1v1l-1 1v-1-1h-1l1-1h1l2-1h1l-1 1h-1zm1 10h1l-1 1v-1zm3 3l-2 2v-2l-1-1h2l1-1v2zm0-10h1v2l-1-1v-1zm1 4v1l-1-1 1-1v1zm1 4v-1 1zm16-37v0zm-1 23l1 1 1 1h-1a1 1 0 01-1-1v-1zm-2-23h1v1h-1v-1zm-2 1v-1zm-3 22h1v1h-1v-1zm-3 1l1 1h-1v-1zm-1 14l-2 1-1-1 1-1 2-1 2 1-2 1zm-2-3l1 1h-1v-1zm0-2h-1v-1h1v1zm2-3h1l-1 1v-1zm1-1h-3v1l-1-1-1-1 1-1v1l1-1v-3l1 2v1h1v-1l1 2h3l-2 1h-1zm3 5h-1v-1l1-1v2zm0-4v-1l1 1h-1zm3 7h-2l1-1 1-1v2zm0-7l-1 1v-1l1-1v1zm0-2l-1-1h-1l1-1 1 2zm1 4l1-1v1h-1zm3 3h-1v-1l1 1zm1-1s0-1 0 0h0zm-1-3l1 1h0l-1-1zm2-4l-2 1 1 1v1h-1l-1 1v-1l-1-1v-1h1v-1l-2-2 1-1h-1 3v3h2zm3 5l-2-2h1l1 1v1zm5 0h-1v-1l1 1zm2 0v1h-2l1-1 1-1v1zm0-3h-3l-1-1h1v-1l-1-1h1l1 2h1v-1l1 1v1zm3 2h-1 1zm0-3v-1l1 1h-1zm3 9l-1-1v-2l1 1v2zm1-4l-1-1 1 1zm0-5h-1 1zm2 11h-1l1-1v1zm9-6h-1 1zm-5-6h2v1a1 1 0 010 1l-2-2zm-2 3l1 1-1 1v-2zm-1 6l-1-1h1v1zm0-4h1v1h-1zm2 11l-1-1v-1l1 1v1zm0-4l-1 1v-3l1 1v-1-1h1l2 1h-1l-1 2h-1zm3 3h-1v-1 1zm0-2h-1v-1l1 1zm0-5l-1-1v-1l2 1 1 1a3 3 0 01-2 0zm1 3v-1h2v-1 2h-2zm3 2h-1v-1h1v1zm0-13v-1l1 1h-1zm1 2l2-1h1l-1 1-1 1h-1v-1zm2 3l-1-1h1v1zm-1 8v1l-1-2v-1h1v2zm1-6l-1 1v-1l1-1 1 1h-1zm4 3v-1l1 1-1 1v-1zm-1-9l1-1-2 2c-1-1 0-1 1-1zm0 5v-1 1zm-2 6h1v1l-1-1zm4 1c0 1-2 0-2 2h-1a5 5 0 010 2l1-4 1-1 1 1zm0-10l-1-1h1v1zm0-2l1-1v1h-1zm1 5v-1 1zm8 3h2l-2 1v-1zm-2-7h1v1h-1v-1zm-2 2l2 2 2 1h-1l-1 1-1-1-1-2v-1zm0 5l1 1h-1v-1zm-1-2zm-2 2v0zm7 8l-1-1 1-1 1 1v1zm2-4l-2 1-1 1v-1l-2-1h-3l-1 1v-1l1-1v-1l2 1h5v-1l1 2zm0-11v1h-1v-1-1h1l1 1zm3-1l-1-1 1 1zm-2 4v-1l1 1h-1zm3 8l-1-1h-1c-1 0 0 0 0 0v-1h1v1h1v1zm1-7v-1 1zm9-6h1v1l1 1h-1l-1-2zm0 6l1 1h-1v-1zm-1 2v-1 2h-1l1-1zm-6 5l-1 1v-1l1-1h1l-1 1zm1-4l-1-1v-1l1 1v1zm0 7v-1h1l-1 1zm1-3v-1-1 2zm0-3v-1 1zm0-6h-1-1v-2l2-1v1l1 1-1 1h1v1s1 0 0 0l-1-1zm1 11v-1l1 1h-1zm1-9v-1l1 1h-1zm1 7v-1l2-1 1 1v2h-1l-1-1h-2zm44 25h-1l-1-1h1l1-1v3zm2 3l-1-1h1v1zm1-4l-1-1h1l1 1h-1zm1 4h-1v-1l1 1zm0-2v-1 1zm4 1l-1-1-1-1h2v2zm4 3l-1-1v-1l1 1v1zm0-3v-1 1zm-45 98h-3l-1-1v2h-1a3 3 0 00-1-1h-1v1h-1l-1-1h-1v1h-1l-1-1-1 1v-1h-2v1h-1l-1-1h-2v1h-1-4-3-1a7 7 0 01-3 0h-1c-4-1-24 2-26 1h-2-1-2l-2 1-1-1h-2a1 1 0 010 1h-1-2l-1-1v1a1 1 0 01-1 0l-2-1h-2l-1 1h-2v-1h-2v1h-3v-1h-2v1l-1-1h-1v1l-1-1h-2-2c0 2 13 6 16 7l3 1 1 1h5v1h5v-1 1a101 101 0 0044-3 54 54 0 0020-9 1 1 0 00-1 0zm-80 6l-1-1h1l-1 1zm3 1l-1-1 1 1zm16 4h-1v-1h1v1zm40-8v-1 1z"/><defs><filter id="d" width="235" height="252.5" x="57.5" y="40" filterUnits="userSpaceOnUse"><feColorMatrix values="1 0 0 0 0 0 1 0 0 0 0 0 1 0 0 0 0 0 1 0"/></filter></defs><mask id="e" width="235" height="252.5" x="57.5" y="40" maskUnits="userSpaceOnUse"><g filter="url(#d)"><path fill="#fff" d="M274 142v-2h-1l-1 1v-2l2-1-1-2h-3l1 1h-2v-1h-7l-1-1v-1h-1l-1 1h-1l-1-1h-2v2h-1l-1 1v-1l-1-1h-1c-1 1-3 0-3-1l-34-3 1-3h11l1 1 2-2h1v1l-1 1h4v1h1l1-2s-1 0 0 0l1 1h1v-1l1-1v1l1 1h4v-1h1l1-1v-1-1l1 1v1h-1v1l1 1 1 1h1v-1h-1l-1-1h5-2l1 1h2l-1 1h2l1-1h1v1l1-1v-1l2 2h4v-2h-2v-1h2l1 1v2h3l1-1v1h2v1h4l-1-4-3-9a233 233 0 00-2-4v-1l-1 1v2l-2-2 1-1 1-1v-2l-2-4-1-1v-2h-3v-1-1l-1 1v1l-1 1v1l-1 1h-1v-1h1l1-1v-2h-1v-1h-1l-1 1h-1l-1-1h-1-1v1a7 7 0 010 2v1l-1-1h-1l1-1v-1l-1-1a6 6 0 00-1 0l-2-1h-3v1h-1v1l-1-1-1-1h-1a11 11 0 00-2 0h-3v4-1a3 3 0 00-1-1l-1-1h1l-1-1-1-1h-2l-1 1-1 1h-1v-1h-5l-1-1h-1l-1 1h-1l-1-1h-1-1l-2 1h-1l-1-1a4 4 0 00-2 0h-1l-2 1v-1h-2v1h-1-1v-1l-1 2h-1l-1-2v-1l-2 1h-1v2h-1l-1-1h1l-2-1-2-1-2-1h-2l1 2h-2v-1h-2l-2-1h-2v1h-1-1l-1-1v1h-1l-1-1v2l1 1-1 1a3 3 0 000-1l-1-1h-1l1-1-1-1a2 2 0 00-1 1h-1v1l-1-1v-1l-2 1h-1-2l-2-1-1 1v1l-1-2h-1l-1 1-1 1h-1l1 1v2h-1v-2l-1-2v-1-1h3l2-1v1h1l1-1h2l1 1 2-1 2-1v1h2l3-1h14l-1-1 2 1h3l3-1 1-1v1h3a3 3 0 011 0h2a3 3 0 001 0h1a28 28 0 013-1l2 1h2l3-2v1h7v1l2-1h1l1 1 1-1 1-1 4 1 1 1 1-1v-1h1v1h7v-1h1l2 1v1l2-1h1l1 1h1v-1h4l1 1h1v-1-1a104 104 0 00-50-36 103 103 0 00-30-4 101 101 0 00-29 4 101 101 0 00-30 14v2h-1l-1 2h2a6 6 0 002 0l2-1v1h13l1 1v-1h5l1 1h2l1-2h1l1 1h0l-1 1h-1 1v1l-2-1h-2v1l-1-1h-2l1 1h-1v1a1 1 0 01-1 0l-1-1h-2a48 48 0 00-2 0v1h-1l-1 1-2-1h-1v1l-1-1h-2l-2 1-1 1h-1v-1l-2 1h-1v-1l-3 1v1l-1-1-1 1h-5l-5 4-3 5-4 4-5 7-1 2v2l-3 3 1 1-1 2h2v1h-3l-1 1v2l1 2v1h-2v-1l-1 1-1 2 1 1v2h-1l-1 2-2 7-1 5v3l-1 2h11l1 1v-1h1l1 1h37l-51 11a99 99 0 004 29 100 100 0 0023 39v-1l1 2 14 12a6 6 0 011-1l2-1 1 1h-1l-1 2a93 93 0 003 2v1h6v1l2-1v-1l2 1h1v-1h1v1h1v-1l1-1h-1 2v1l1 1 1 1v-1h1l2 1h1l1-1-1-1 1-1h1l-1 1v1h2v-1l1 1v-1h1v-1h-1 1l2 1h9c0-1 0 0 0 0v1h1l1-1h1l1 1 1-1h2c1 1 3-1 4-1 2-2 5-1 14-1h4l1 1 2 1h3v-1h3l2 1 1-2h1v1h1v-2h-1 2l1 1 1 1h1l1-1 1-1v-1h1v-1h1l1 1v1h-1-1l-1 1-1 1 1 1h1v-1h5v-3l2 1 1 1h-1v1h7l3-1s-1 0 0 0h0l1-2 1 1 1 1h2l1-2v1h1a101 101 0 0021-19v-1h-5-7l-1 1h-1l-1-1h-4v1h-1v-1h-2l-3 1v-1h-2l-1 1-1-1h-2a2 2 0 00-1 0h-1l-1 1v-1a4 4 0 00-1 0v1h-2l-1-1h-2 1-8l-2 1v-1h-3l-1 1h-1l-1-1h-2-2l-2-1-1 1-9 1c-11 0-26 7-32 0a11 11 0 01-2-3c-10 0-14 1-15 2h-2a7 7 0 01-2 0h-2l-2-1-2 1-1-1h-4-2v1h-1l-1-1h-5v-1l-1 1h-1-1v-1l-2 1-1 1-2-1-1-1 1-1v1h1l1-1 1 1h1l1-1h1v-1h1l1 1h5v-1h4a2 2 0 011-1l2 1h2l1-1c1-2 4-1 5-1l18-1 5 6h6l2-3 11-6a583 583 0 0150 2h1l1-1h4l2 1 1-1h1v1h1v-1h1l1 1h1l1-1 2 1v-1h12l4 1h1v-1h1l1 1a27 27 0 003-3l4-6a617 617 0 014-9v-3h-2-1v1l-1-1h-2a6 6 0 010-1h-23l4-6h28a226 226 0 002-34v-1zm-4-15v1l-1-1h1zm-16-7v-1 1zm1 3v-1 1zm1-3h-1v-1l1 1zm1 4h-1l1-1v1zm1-5a1 1 0 01-1 0v-1h1a1 1 0 010 1zm2-2v-1-1l1 1-1 1zm5 10h-1l1-1v1zm-1-5l1 1h-1v-1zm0-3v1h-1l-1-2 2 1zm-2-3h1l-1 1v-1zm1-4l-1 1h-1v-1h2zm-1-7h-1 1zm-4 4h1v1h1l1-1h1l-1 1h-1l-1 2s-2-1-1-2zm-3 5l1 1 1-1h1v1l-1 1-1-1v1h-1v-2zm0-1v1h-1l-1-1 1-1v1h1zm-2-8h1l-1 1v-1zm0 3l1 2-1 1v-1h-1l1-2zm-9 9h1v1l-1-1zm1 3v-1 1zm1-5v-1 1zm3 7h-1v-2l1 2zm2 0v1h-1l1-1zm0-4v1h-1l1-1zm0-2v1h-1v-1h1zm-2-3h1l-1 1v-1l-1-1v-1h1v2zm-3-11h1l1 1 1 3-1 1-1-1v-3l-1-1zm1 7l-1 2h-1l1-1-1-1h2zm-2-3v1h-1l1-1zm-1-3h1v1l-1-1zm0 8l1 1-1 1v-1-1zm-2-7h1-1zm-22 9h2l1 1v1h-2v-1l-1-1zm2-3h1v1l-1-1zm0 13l-1 1v-2h3l-1 1zm5-2h0zm1-14v-1l1 1h-1zm2 14c-1 0 0 0 0 0v1zm1 6v-2 1zm1-3l-1-1h1v-1 2zm0-15v0zm2 11h-1l-1-1h2v1zm4-10s-1 0 0 0v-1 1zm4 7l-1 1h-1l2-1zm-3-4h1v1h-1l-1-2 1 1zm-2-11h1l1-1v1l-1 1h-1v-1zm0 4h1l1-1v1h-1l-1 1h-1l1-1zm-3 1c-1 0-1 0 0 0zm-1 3l2-2-1 1-1 1zm1 0l-1 2 2 1h1v1l-2 1-1-1-1-2 2-2zm-3-4l2-1-2 2v-1zm-2 8v-1l1-1 1-1v2l-1 1v1h-1v-1zm-2-12h1l1 2-1 1v-1l-1-1v-1zm0 10h1l-1 1a2 2 0 01-1 0h-2v-1h3zm-3-9h2l-1 1-1-1zm0 5l-1 1v-1h1zm0-7v1h-1l1-1zm-4 4h1v-1h2v1h-2l-1 1v-1zm-1 3l1 1v1l-2 1v1l1 1-1 1v-1l-1-1v-1l1-1 1-2zm-1-5v-1l1 1-1 1h-1l1-1zm10-34l1 1h-1v-1zm-36-12v-1h1v-1 2h-1-1 1zm-11 12v0zm-2 2h1-2 1zm-9-1l-1 1 1-1zm-14 3h1l-1 1v-1zm-22-3l-1-1 1 1zm-55 64h1-1zm0 3v-1l1 1 2 1-3-1zm16-32h1v1l-1-1zm0-3v1h-1l1-1zm-2 5l1-2v2l-1 1v-1zm1 8l1-1v1h-1zm0 5v1l-1-1h1zm-2-10l1 1h-1l-1-1h1zm1 13v-1 2zm-2-16h1v1l-1 1v-2zm-2-4l1-1v-1 1l-1 1zm-1 7v-1h2l-1 1h-1zm1 4v1l-1-1h1zm-1-8l1-1h1v1h-2zm0 10l1 1h-1v-1zm1 2v1h-1l1-1zm-1 14h1-1zm1 2h-1 1zm-4-22v0zm-1 26l-1 1v-1h2-1zm2-5h-1l-1 1v-1h-1v-1h1v-1h-2v-1h2v1l1 1h1v1zm1-21v0l-1-1 1 1zm1 26l-1 1 1-1h0zm0-2h-1 2v-2l1 1-2 1zm1-23v-1l2-1-1 1v1h-1zm2 17h-1 1zm-1 2h0zm1 8l-1-2 1 1v1zm2-3l-1 2 1-3v1zm2-6l-1-1v1h2-1zm1-18h-1l-1-1 1-1v-1l-1-1h2l1 1h-1l-1 1 1 1h1l-1 1zm1 6h-1 1zm148 96h1v1h-1v-1zm1 4v1h-1v-1h1zm-7 3l-1 1 1-1zm-4-5v0zm-2 13l-1 1v-1zm-5-14v1l-1 1v-1l1-1zm-4 10l2-1-1 1v1h-1v-1zm-2-10l1 1h-1v-1zm-2 17v1c1 0 0 0 0 0h-1v-1h1zm-2-6l1-1v1c1 1-1 1-1 1v-1zm-6-12h1v0h-1zm-1 3h1v1h-1v-1zm0 12h-1 1zm-5-13c0-2 1-2 2-2l-1 1-1 2v-1zm0 14h-1 1zm-7 1l1-1v1l-1 1v-1zm-4-6h1l-1 1v-1zm0 4h0zm-2 2h1v2l-1-1v-1zm-33 1l1 1h-1v-1zm-4 3zm-4-3h3l-2 1-1-1zm-5-5v1l-1 1v-1l1-1zm-4 2h1-1zm1 2l1 1-1-1zm-1-6h1l-1 1v-1zm-3 6v-1 1zm1 3l1 1h-1v-1zm-2-6h1v1l-1 1v-1l-1-1h1zm-1 5h1-1zm-2-2v1-1zm-2-4v1l-1-1zm-1-11v0zm0 7v0zm-2 5l1 1 1 1h-1v1-1l-1-2zm0 5h1v1h-1l-1-1h1zm-1-12v1l-1-1h1zm-1 10h-1 1zm0-14v0zm-1 9v-1-1l1 1-1 1s0 1 0 0zm0 6l1 1h-1-1 1zm-5 3l-1-1h1v1zm3-22v1zm-1 20h-1 1zm0-4v-1 1zm0-4l-1 1v0a1 1 0 010-1h1zm-1-9h-1l1-1zm-1 13h-1 1zm-2-10v1l-1-1h1zm-4 11v0-1 1zm0-1h-1v-1l1 1zm0-7l-1 1-1 1 1-2zm-5-9v0zm-1 8l1 1-2-2 1 1zm-1-4v-1 1zm0-5a1 1 0 010 1l-1-1h1zm-2 3v1h-1l1-1zm-2 3l1-1v3l-1-2zm-7-7h-1v-1h1v1zm3 5h-1 1zm-1-4l1 1h-1c-1 1 0 0 0 0v-1h1zm6-5l-1 1 1-1zm26-101h1l-1 1h-2v-1h2zm-8-11l1 1h-1v-1zm-1 5l1-1 1 1-1 1h-1l1-1zm0 4v1-1zm-7-4v1l1 1-1 1v-3zm-1-3v0zm-3 2l1-1 1 1v2c1 0 1 0 0 0l-1-1h-1v-1zm-1 3h1v-1l1 1v2h-1l-1-1v-1zm0 7v1h-2l1-1h1zm-1-11v3-1l-1-1 1-1zm-3 2l1 1 2 2h-1l-1 1h-1v-2l-1-2h1zm-1 6v0zm-2-2l1-1v2h-1v-1zm-5-2h1l1-1h1l-1 1-1 1-2-1h1zm2 2l-1 1v-1h1zm-4-3h1l-1 1v-1zm0 5v-1c1 0 1 0 0 0v1zm1 9l1 1h-1v-1zm1 12h-1 1zm1-6h1v1l-1-1zm1 3l1-1v1h-1zm1 4l-1-2 1 1v1zm1-4l-1-1h1v1zm1-3l-1 1v-1l1-1v1zm1-7v-2h-1l-1-1h-1-2v1h1l-1 1-1 1-1-2v-1l1-1h-1v-1h-1 1l1-1h1v-1h1v1h1l-1 1h-1l1 1h4l-1-1h-1l1-1c1 0 3 2 2 3h-1v1l1 1-1 1zm2 4v2l-1-1v-1l2-1-1 1zm1-11h-1 1l1-1 2 2h-1l-1-1h-1zm2 7l-1-1h1v1zm0 2v-1l1 1v1l-1-1zm2-4l-1 1v-1h-1l2-1 1 1h-1zm1-1v-1l-1-1h1l1 1-1 1zm1 3h-1 1zm0-9h2l-1-1 1 1-1 1-1-1zm1 9v-1l2-1-2 2zm2-6l-1 1v1l-1-1 2-1zm1 3l-1-1h1l2-1v4l-1-1-1-1zm2 4l-1-2 2 2h-1zm1-14v1-2 1zm0-2h-1v-1-1l1 1v1zm0 9l1-1v-1h1v2h-2zm2 4v-1 1zm1-2v-1h1l-1 1zm2 4h-2v-1l1-1 1-1v3zm2-4l-1-1v-1-2l-1-2v-1 1h1l1 2 1 2v1l-1 1zm1-6l-1-1h1v1zm0-6l-1 1v1l-1 1v-1-1h-1l1-1h1l2-1h1l-1 1h-1zm1 10h1l-1 1v-1zm3 3l-2 2v-2l-1-1h2l1-1v2zm0-10h1v2l-1-1v-1zm1 4v1l-1-1 1-1v1zm1 4v-1 1zm16-37v0zm-1 23l1 1 1 1h-1a1 1 0 01-1-1v-1zm-2-23h1v1h-1v-1zm-2 1v-1zm-3 22h1v1h-1v-1zm-3 1l1 1h-1v-1zm-1 14l-2 1-1-1 1-1 2-1 2 1-2 1zm-2-3l1 1h-1v-1zm0-2h-1v-1h1v1zm2-3h1l-1 1v-1zm1-1h-3v1l-1-1-1-1 1-1v1l1-1v-3l1 2v1h1v-1l1 2h3l-2 1h-1zm3 5h-1v-1l1-1v2zm0-4v-1l1 1h-1zm3 7h-2l1-1 1-1v2zm0-7l-1 1v-1l1-1v1zm0-2l-1-1h-1l1-1 1 2zm1 4l1-1v1h-1zm3 3h-1v-1l1 1zm1-1s0-1 0 0h0zm-1-3l1 1h0l-1-1zm2-4l-2 1 1 1v1h-1l-1 1v-1l-1-1v-1h1v-1l-2-2 1-1h-1 3v3h2zm3 5l-2-2h1l1 1v1zm5 0h-1v-1l1 1zm2 0v1h-2l1-1 1-1v1zm0-3h-3l-1-1h1v-1l-1-1h1l1 2h1v-1l1 1v1zm3 2h-1 1zm0-3v-1l1 1h-1zm3 9l-1-1v-2l1 1v2zm1-4l-1-1 1 1zm0-5h-1 1zm2 11h-1l1-1v1zm9-6h-1 1zm-5-6h2v1a1 1 0 010 1l-2-2zm-2 3l1 1-1 1v-2zm-1 6l-1-1h1v1zm0-4h1v1h-1zm2 11l-1-1v-1l1 1v1zm0-4l-1 1v-3l1 1v-1-1h1l2 1h-1l-1 2h-1zm3 3h-1v-1 1zm0-2h-1v-1l1 1zm0-5l-1-1v-1l2 1 1 1a3 3 0 01-2 0zm1 3v-1h2v-1 2h-2zm3 2h-1v-1h1v1zm0-13v-1l1 1h-1zm1 2l2-1h1l-1 1-1 1h-1v-1zm2 3l-1-1h1v1zm-1 8v1l-1-2v-1h1v2zm1-6l-1 1v-1l1-1 1 1h-1zm4 3v-1l1 1-1 1v-1zm-1-9l1-1-2 2c-1-1 0-1 1-1zm0 5v-1 1zm-2 6h1v1l-1-1zm4 1c0 1-2 0-2 2h-1a5 5 0 010 2l1-4 1-1 1 1zm0-10l-1-1h1v1zm0-2l1-1v1h-1zm1 5v-1 1zm8 3h2l-2 1v-1zm-2-7h1v1h-1v-1zm-2 2l2 2 2 1h-1l-1 1-1-1-1-2v-1zm0 5l1 1h-1v-1zm-1-2zm-2 2v0zm7 8l-1-1 1-1 1 1v1zm2-4l-2 1-1 1v-1l-2-1h-3l-1 1v-1l1-1v-1l2 1h5v-1l1 2zm0-11v1h-1v-1-1h1l1 1zm3-1l-1-1 1 1zm-2 4v-1l1 1h-1zm3 8l-1-1h-1c-1 0 0 0 0 0v-1h1v1h1v1zm1-7v-1 1zm9-6h1v1l1 1h-1l-1-2zm0 6l1 1h-1v-1zm-1 2v-1 2h-1l1-1zm-6 5l-1 1v-1l1-1h1l-1 1zm1-4l-1-1v-1l1 1v1zm0 7v-1h1l-1 1zm1-3v-1-1 2zm0-3v-1 1zm0-6h-1-1v-2l2-1v1l1 1-1 1h1v1s1 0 0 0l-1-1zm1 11v-1l1 1h-1zm1-9v-1l1 1h-1zm1 7v-1l2-1 1 1v2h-1l-1-1h-2zm44 25h-1l-1-1h1l1-1v3zm2 3l-1-1h1v1zm1-4l-1-1h1l1 1h-1zm1 4h-1v-1l1 1zm0-2v-1 1zm4 1l-1-1-1-1h2v2zm4 3l-1-1v-1l1 1v1zm0-3v-1 1zm-45 98h-3l-1-1v2h-1a3 3 0 00-1-1h-1v1h-1l-1-1h-1v1h-1l-1-1-1 1v-1h-2v1h-1l-1-1h-2v1h-1-4-3-1a7 7 0 01-3 0h-1c-4-1-24 2-26 1h-2-1-2l-2 1-1-1h-2a1 1 0 010 1h-1-2l-1-1v1a1 1 0 01-1 0l-2-1h-2l-1 1h-2v-1h-2v1h-3v-1h-2v1l-1-1h-1v1l-1-1h-2-2c0 2 13 6 16 7l3 1 1 1h5v1h5v-1 1a101 101 0 0044-3 54 54 0 0020-9 1 1 0 00-1 0zm-80 6l-1-1h1l-1 1zm3 1l-1-1 1 1zm16 4h-1v-1h1v1zm40-8v-1 1z"/></g></mask><linearGradient id="f" x1="190.2" x2="190.2" y1="294.3" y2="94.4" gradientTransform="matrix(1.1759 0 0 1.2637 -49 -79)" gradientUnits="userSpaceOnUse"><stop offset=".3" stop-color="#c9eaed"/><stop offset=".5" stop-color="#ceecef" stop-opacity=".7"/><stop offset=".7" stop-color="#dbf1f3" stop-opacity=".5"/><stop offset=".9" stop-color="#f2fafb" stop-opacity=".1"/><stop offset="1" stop-color="#fff" stop-opacity="0"/></linearGradient><path fill="url(#f)" d="M293 293H58V40h235v253z" mask="url(#e)" opacity=".4"/><path d="M294 163l-22-20-17-3-9-8-20-2-8-14h-45l-11-10-47 11-26 24-27 7-18 15v4l-15 3v2l-7 2v2l7 2 1 3 8 3 5 2 4 5 43 2 4 6 30 4 4 6 17 6 20 19v9l-7 16a18 18 0 00-7 2 18 18 0 00-6 5l-35-4-30 9-12 4-26 8-10 9-3 10 3-1 3-7 8-5 23-1a1356 1356 0 0124-7 107 107 0 0119-2v1l-17 14-9 4a43 43 0 01-12 3l2 3 14-1a782 782 0 0017-9l16-8a196 196 0 0120-7h21l46 16 12 10 2 9 3-3v-11l-6-9-8-3 2-3 18-3h20l4 2 22 22 8 1 9-6v-3l-9 3-3-1-13-19-1-2c1-1 3-1 8 1l1-9-20-1-3-1-33 1a26 26 0 00-6-3 27 27 0 00-9-1 4295 4295 0 01-11-7l-2-6-2-5 2-7v-8l-3-6v-7l4-9 19-1a592 592 0 0028-18l19-1 4-8 36-1 2-2h14l1-3 13-5v-2l-35-7zM96 195l-1-2 22-1 3 4-24-1zm36 9l-8-13 5-2 6 6 10 5 1 6-14-2zm27 4l-1 4-4-2-6-17 1-7 6-1 2 3v15l2 5zm50-7l-13 1a36 36 0 0113-11l19-1-19 11zm46-15l-9 1 6-6h5l-2 5z"/><path d="M40 271l6-4 14 8v-11l-13-3-7 9v1zm88 38l3 1v-3l3-4 21-13h-22l-5 12v7zm110-19l9 13 10 2 4 4h5l-3-5-9-4-3-10h-13zm52-12l11-6 4-14h-2l-7 7h-6v13z"/></g></switch></svg>