<svg xmlns="http://www.w3.org/2000/svg" viewBox="0 0 350 350" enable-background="new 0 0 350 350"><switch><g><path fill="#fff" d="M60 60h230v230H60z"/><path d="M69.5 69.5h211v211h-211z"/><g fill="#358496"><path d="M279.6 214.3h-.5s-.5-.1-1-.8c-.4-.7-.5-1.3-.6-2.5-.2-1.2 0-1.5.1-1.6.2-.1.4 0 .7-.2l.3-.3h-.6a1.4 1.4 0 01-.6-.4c-.3-.3-.2-.6-.4-.9-.2-.2-.6-.2-1.5-.2h-.5c0 .1.3.2.3.4l-.1.2c-.2.3-.5.4-.6.4-.2 0-1 .4-1 .7 0 .2.4.3.4.5 0 .3-.6.6-1 .6-.3 0-.3-.2-.7-.3-.4-.2-.9-.2-1 0 0 0 .2 0 .2.2l-.2.2-.3-.1v-1a.6.6 0 00.2 0c.3-.2.4-.6.3-.7l-.5.1v-1a13.1 13.1 0 001.6-1c1.8-1.4 1.6-2.1 3.2-3 .6-.3 1-.4 1.6-1 .8-.6.7-1 1.4-1.3.7-.4 1-.1 1.8-.5 1-.4 1.5-1.3 1.4-1.4-.1-.1-.6 0-1.4.5l-1.4.6c-1 .3-1.9 0-2 .5-.1.1 0 .3-.2.5-.1.2-.3.2-.4.3-.5.1-.9.4-1.4.6-.5.2-1.9.7-4.2 1.8v-1l.3-.1c.8-.5 1.3 0 2.1-.6.6-.3.6-.6 1.2-.9l1.1-.3s-.4 0-.6-.2c-.2-.3 0-.9.1-1.3.3-.4.6-.5.5-.7l-.8-.1c-.8-.2-1.6-.6-1.6-.7 0-.2.9-.1 2-.6l.5-.3h-.8l-4-.1V79H113.8a.6.6 0 000-.2c0-.2-.1-.3-1.4-1.4-1.2-1.2-1.6-1.6-1.9-1.5-.2.2-.2.7-.2 1.3 0 .7.2.9.1 1.2-.1.2-.4.5-.7.6h-1c-.6-.4 0-1.9-.3-2-.4-.3-1.6 1.8-2 1.5-.5-.1-.1-1.9-.5-2-.2 0-.4.7-1 1-.6.3-1.3.1-1.8 0 0 .1 0 .4.3.6.5.6 1.6.3 1.7.6l-.2.3H102c-.4-.2-.8-.3-1-.1a.3.3 0 000 .1h-2.7a18.7 18.7 0 00-.4-.5c-1.3-1.3-1.3-.8-2.5-2.1-1-1-1.3-1.6-2.3-2.2l-1-.6c-1.3-.7-2-1.4-2.1-1.3l.1.8s.2 1.5-.4 2c-.8.7-2.3 0-2.4.4v.6c0 .4-.7.3-.7.5 0 .3 1.2.7 2.6 1.2 1.4.5 2.2.7 2.8 1.2h-4.5l-1.1-.7-.6-.3c-.9-.2-1.3.2-2 0-.4 0-.3 0-1.1-.4A8 8 0 0081 77h-1.5c0 .2 1.4.5 1.7.6l1.4.4.8.3c.6.2.8.1 1.4.2l1.2.5h-7v43.7a23.7 23.7 0 00-3.5 5.4c.1 0 .8-.8 2-2.4.5-.6 1-1.2 1.4-2.1v-.2 8.3a1.7 1.7 0 00-.6 0c.2-.4.2-.8 0-1-.3-.4-.9.2-1.7 0-1-.4-1.3-1.3-1.5-1.1-.3 0-.3 1.1.3 1.9l1 .9c-.9.3-1.7.5-2.6 0-.8-.4-1.4-1.1-1.5-1 0 0 .5.6.8 1.5.1.4.5 1.6-.2 2.4-.5.7-1.7.8-2 .8a21.5 21.5 0 01-1.2 0l-2 .1 1.8.8c1.3.5 1.5.6 1.6.8.3.7-.4 1.8-.5 2-.3.3-.5.5-.4.6 0 .2.6 0 1.7-.2l2.1-.2c1-.1 1.5-.2 1.5 0l-.2.3c-.8.4-1.6.2-1.6.4 0 0 0 .2.5.5 1.6 1 3.3.6 3.5 1 0 .5-1 1-1 1.2.2.3 1.7-.2 1.7-.2l.6-.2v47.6c-1-.3-1.7-.2-1.8 0-.2.4 1 .7 1.4 2 .2.4.2.8.2 1h-.3c-2-.8-3.2-2.4-3.8-2-.4.1-.1.7-.5 1-.8.6-3-.7-3-.6 0 0 2.3 1 2.2 2l.1.9c0 .1 0 .4.2.6.4.4 1 .6 1.5.5.6-.2.8-.8 1-.7.3.1 0 .8.4 1.1.4.5 1-.2 2 .2l.4.3v2l-.9-.5c-.6-.5-.6-.9-1-.9s-.5.7-1 .7c-.3 0-.4-.3-1-.8-.8-.8-1.1-.5-1.6-1.2s-.3-1.6-.7-1.7c-.3 0-.5.3-.9.4-1.2.1-2.3-3.1-2.7-3l.1 1.7c0 .8.1 1 .4 1.3.2.2.4 0 .8.3.5.2 1.1.9 1 1.3-.2.5-1.1.4-1.2.8 0 .4.4.8.5 1l1 .4 1 .8c1.1.7 1.3 1 1.8 1.1.3.1.8.3 1 0 .4-.4-.4-1.5-.3-1.6.2 0 .8.6 1 1l1 1.1.4 1c.3.4.8.6 1.3.7v.5c-.6-.2-1.6-.4-1.9-1.1 0-.3-.1-.6-.4-1a1.8 1.8 0 00-.5-.4l-.3.3c-.6.3-1.2.1-2.4-.5-2-1.1-3-1.7-3.5-2.7-.2-.5-.2-.8-.5-1.2-.7-.8-1.7-1-1.7-1.1 0-.2 1-.1 1-.3 0-.1-.5-.2-1-.7l-.5-.8c-.2 0-.1.6-.3.6-.2 0-.4-.1-.6-.4l-1.4-1.5-.8-.8a4 4 0 00-1.2-.5c-.6-.1-1.1-.3-1.2-.2 0 .2 1.2.7 2.1 2 .5.5 1 1.6.6 2-.3.3-1.4-.3-1.6 0-.3.5 2.8 3.3 2.9 3.2a8 8 0 00-1.6-2c-.2-.3-.6-.6-.5-.7 0-.1.3 0 .8 0h.7c.7.2.7 1 1.7 1.5h.3c.2-.1-1.3-1.5-1.1-1.7l1 .7c.8.4 1 .7 1.5 1l.9 1 .6 1c.4.7 1 1 2.9 1.9 1.8 1 2.8 1.6 3 1.4l-.2-.5.6.7c.6 1 1.8 1.6 2.6 1.5V215.6h-.1c-.2.3 0 .6 0 .7v1l-.5-.3a8.5 8.5 0 01-1.4-.6l-.9-.6s-.6-.3-.7-.2c-.1.2 1.7 1.6 3.6 2.6v.8c-1.3-.6-2.2-1.1-2.5-1.4-.4-.3-.5-.6-.5-.6l-.3-.6-.4.6-.5.5c-.6.3-1.4 0-1.5.1 0 .1.7.4.6.7 0 .2-.5.3-.7.2-.5-.2-.4-1-.6-1-.1 0-.3.6-.1 1 .2.3.6.1 1 .5.4.5.2 1.1.4 1.2.2 0 .5-.4.5-.7 0-.3-.3-.4-.3-.7 0-.2.2-.2.5-.5l.4-.6c.2-.1.6-.2 2.4 1L79 220v.6c-1-.8-1.7-1.4-1.9-1.2v.3c0 .1-1.2-1.4-1.6-1.2-.2.1-.1.8 0 1.3.6 1.2 2 2 3.5 2.4v1.8c-.1 0 0 .2 0 .4a6.4 6.4 0 00-1 0c.4 0 .7.2 1 .3v.8a7 7 0 00-.7-.1c-1-.2-1.5 0-1.7 0l-.8.3h1l1.7.1.5.2a1 1 0 01-.2.2l-1.8.1c-.3 0-.8.3-1.3.2h-.1l.5.3h2.2l-.1.5h-2.3l1.2.4h1v.3c-.2.5-.3.7-.5.8-.4.1-1-.6-1.1-.5v.6l-.3.4c-.3.2-.5 0-.6.2l.2.3c.4.3.9-.1 1 .1.2.1.2.5 0 .7-.3.3-1.5-.4-1.5-.2 0 0 .2.3.7.5.6.2.8 0 1.3.2a2.6 2.6 0 001.7 1.6v.5a.5.5 0 01-.1.2c-.2.2-.6.3-.9 0-.2 0-.1-.4-.2-.4 0 0-.3.7 0 1.2.2.5.8.8 1.2.9v.7l-.5-.4c-.1.1 0 1 .5 1.5V271h192v-43.6c.5-.3.8-.6 1-.5 0 0 0 .5-.2.7l-.4.5c0 .1.5.2.8 0 1-.6.5-2.5 1-2.5.3-.1.6.7.8.6v-.6a3.4 3.4 0 000-.5c0-.5-.7-.7-1-1-.7-.8-.3-2.4.1-3.2 1-2 3.4-2.4 3.5-2.3.1.2-.9.8-.8 1 .1 0 1.4-.4 2.5-1.2.4-.4 1-.9 1.3-1.7.5-1 .4-2.2 0-2.4z"/><path d="M273.6 207l-.6.4-.6.3c-.2 0-.5.3-.4.4 0 .2 1 .2 1.8-.3.5-.3.5-.6.5-.7v-.4l-.7.2zm3.7-1.9c-.7.4-1.2.3-1.2.4 0 .2 1 .4 2 0 .2-.1.8-.4.7-.6 0-.2-.2-.3-.4-.3-.4 0-.6.3-1.1.5zm3.7.6h.4c.2 0 .3-.5.2-.6-.3-.3-1.6.4-1.6.5l1 .1zm-.1 1c-.8.3-1.3.1-1.3.3 0 .1.3.4.8.5l1.3-.4.8-.4.6-.3c0-.2-.6-.2-1.2 0-.5 0-.5.2-1 .3zm3.5-7.6h-.4c-.4 0-.7.3-.7.4h.7l.4-.4zm1.8 15.3c-.1 0-.5.5-.3.8 0 .2.1.3.3.3l.2-.3c0-.3 0-.7-.2-.8zm-2.2 1.2c-.2 0-.4.3-.3.4 0 0 1-.3.9-.5h-.6zm-1.2.6c-.3-.2 0-.7-.1-.8-.2 0-.7.8-.5 1.1.2.2.6.1.7.1.3 0 .5-.2.5-.3l-.6-.1zm-1 0c-.2-.2-1.4.3-2 1.4-.1.4-.2.9 0 .9 0 0 .2-.9 1-1.3 0-.1.4-.3.6-.2.3.1.3.5.5.5h.4c0-.2-.3-.3-.4-.7v-.6zm-7.3 5.5c0-.2.2-.2.1-.4l-.1-.1c-.2 0-.9.6-.6 1.2.2.4.9.5 1 .4l-.3-.4c0-.2-.2-.4-.1-.7zM85.7 77.4l.4-.1-.7-.5c-.3-.2-.3-.4-.5-.4a.3.3 0 00-.3.2c0 .3.5.8 1 .8zM83.3 75c.3.1.5.2.5.4s-.2.4-.1.5l.5-.1a.7.7 0 00.3-.5c0-.4-.4-.7-.8-.8l-.6-.1-.4-.3c-.1 0-.2.5 0 .8l.6.1zm5-3.3l.4-.1-.8-.1s.2.3.5.2zm-1.3-.3c.2 0 .3-.1.3-.3 0-.2-.6-.4-.7-.3-.1 0 .1.6.4.6zM76 91c.2.1.9-.3 1.2-.5.3-.2.9-.7 1-1.5 0-.1.1-1.2-.5-1.7-.4-.2-1-.3-1.2 0-.2.2.1.5.3 1 .3 1.2-1 2.4-.8 2.7zm-2.6 36.7c.4-.5.2-.6.6-1.1.4-.5.8-.7.7-1v-.2c-.4-.2-2.2 2.7-2 2.9l.7-.6zm.5 1.3c-.4.2-.7.7-.6 1.1l.3.3.4-1 .3-.4h-.4zm-3-4.4h.5l-.7-.5c0 .1 0 .3.2.5zm-1.6 5l-.3-.3c-.5 0-.9.7-.7.9.1.1 1-.2 1-.6zM69 133c-.4.2-.6.8-.4 1l.7-.4s.3-.3.2-.5c0-.1-.4-.2-.5-.1zm2.3 2.3c0-.2-.1-.3-.3-.4-.3-.1-.7.2-.7.3 0 .2 1 .3 1 0zm-4.8 5c.3-.3 0-1.2-.2-1.2s-.6.9-.3 1.1h.5zm2.7 3.1c.1 0 .4-1.6-.2-3.1-.2-.5-.6-1-.7-1 0 0 0 .7.4 2.2l.5 2zm2.4.8c.4-.2.1-1.8 0-1.8l-.4 1c-.1.3-.2.4-.1.6 0 .1.3.3.5.2zm-1.1 0c-.2 0-.3 1 .1 1.3.3.2.8.2.9 0l-.6-.7-.4-.6zm-4.3-1.5c-.3.2-.3 1 0 1 0 0 .3 0 .4-.2.2-.3.2-.6 0-.8h-.4zm11 61.2c-2-1.1-2.5-1.1-3.8-1.9-2.1-1.2-3.2-2.6-3.3-2.4-.1 0 .3.8.9 1.4 1 .9 2 1.1 2 1.3 0 .2-.5.1-.6.2 0 .2.8.3 1.6.6l1.6.5c2 .6 3.4 1.5 3.4 1.5s-.7-.6-1.8-1.2zm-2.5.9c-.3-.1-1-.3-1.7-.8-.4-.4-.4-.6-1-.9l-.7-.3c-.2.2 1.2 1.2 2 1.9.4.2.7.5 1.3.5l.8-.2-.7-.2zm3.3 4.7l-.2-.2v-.5h-.3c-.2.2 0 .7.2.8h.3zm-2 5l.5-.1c0-.2-.7-.7-1.6-1.6-1-1.1-1.3-1.8-1.4-1.8-.2.1 1 3.2 2.5 3.4z"/><path d="M73.6 212c-.1 0-.3.8.1 1.5.3.6 1 1 1 1v-.5l-.6-.8c-.5-.6-.4-1.3-.5-1.3zm-1 4c.2 0 .1-.6 0-1-.5-1.9-2.6-2.8-2.7-4l-.3-.8c0-.4-.2-.5-.2-.5l-.2.5c-.1.7.1 1.3.2 1.4.6 1.5 1.5 1.4 2.1 2.7.2.5.4.7.8 1.2.2.4.3.6.4.5zm-2.4 2.2c-.1-.1-.7.2-1.1.6l-.3.4h.7c.5-.3.8-.9.7-1zm-1.8 1.4s-.2.2-.1.3c0 .1.6 0 1 .2.2.3 0 .6.2.6.1 0 .1-.5.5-.8l.5-.2h-.6c-.9-.1-1.2-.3-1.5-.1zm-1.3.5v-.7-.3l.3-.4s-1 0-1.1.4l.1.4s.2.3.2.7c.2.6-.1 1 0 1.1 0 0 .2-.4.6-.6.2 0 .3-.1.3-.2s-.3-.1-.4-.4zm7 1.6c.2 0 .3-.4.2-.5h-.8s.4.6.7.5zm.3 4.2c-.2 0-.8 1.6-.6 1.8l.3-.2c.6-.4.5-1.6.3-1.6zm-1.6 1.3l.3-.1v-.3l-.3.4zm-1.2.2l-.3.7.3-.1a.5.5 0 000-.5v-.1zm.3-2.3c0 .2.1.3.2.3v-.5-.4c-.1 0-.3.4-.2.6zm-2.4 3.5v-.7s-.3.7 0 1.1c.3.3.6.3.6.3 0-.1-.4-.3-.6-.7zm0 1.3c-.3 0-.4.5-.3.6.1 0 .6-.1.5-.3 0-.2-.1-.3-.3-.3zm-.7 1.4c0 .2.6.2.8 0v-.5c-.2-.1-.9.4-.8.5zm1.7-.9s-.2.4-.1.5h.2c.1-.1 0-.5-.1-.5z"/></g><defs><filter id="a" filterUnits="userSpaceOnUse" x="10.7" y="16.2" width="337.7" height="310"><feColorMatrix values="1 0 0 0 0 0 1 0 0 0 0 0 1 0 0 0 0 0 1 0"/></filter></defs><mask maskUnits="userSpaceOnUse" x="10.7" y="16.2" width="337.7" height="310" id="b"><g filter="url(#a)"><g fill="#fff"><path d="M279.6 214.3h-.5s-.5-.1-1-.8c-.4-.7-.5-1.3-.6-2.5-.2-1.2 0-1.5.1-1.6.2-.1.4 0 .7-.2l.3-.3h-.6a1.4 1.4 0 01-.6-.4c-.3-.3-.2-.6-.4-.9-.2-.2-.6-.2-1.5-.2h-.5c0 .1.3.2.3.4l-.1.2c-.2.3-.5.4-.6.4-.2 0-1 .4-1 .7 0 .2.4.3.4.5 0 .3-.6.6-1 .6-.3 0-.3-.2-.7-.3-.4-.2-.9-.2-1 0 0 0 .2 0 .2.2l-.2.2-.3-.1v-1a.6.6 0 00.2 0c.3-.2.4-.6.3-.7l-.5.1v-1a13.1 13.1 0 001.6-1c1.8-1.4 1.6-2.1 3.2-3 .6-.3 1-.4 1.6-1 .8-.6.7-1 1.4-1.3.7-.4 1-.1 1.8-.5 1-.4 1.5-1.3 1.4-1.4-.1-.1-.6 0-1.4.5l-1.4.6c-1 .3-1.9 0-2 .5-.1.1 0 .3-.2.5-.1.2-.3.2-.4.3-.5.1-.9.4-1.4.6-.5.2-1.9.7-4.2 1.8v-1l.3-.1c.8-.5 1.3 0 2.1-.6.6-.3.6-.6 1.2-.9l1.1-.3s-.4 0-.6-.2c-.2-.3 0-.9.1-1.3.3-.4.6-.5.5-.7l-.8-.1c-.8-.2-1.6-.6-1.6-.7 0-.2.9-.1 2-.6l.5-.3h-.8l-4-.1v-20h1a225.6 225.6 0 002.6-34.4c0-.8-.1-1-.2-1l-.1.2-.2-.1c-.3-.2-.3-1.1 0-1.7v-.1c0-.2-.7 0-.8 0-1.1.3-1.5.7-1.7.6-.2-.1.1-1 .8-1.5.7-.7 1.3-.5 1.5-1 .4-.6-.2-1.8-1-2.2l-1.1-.1a13 13 0 00-.8 0v-5.1l1.5-.2c.7-.5 0-2.3-.6-4a92.8 92.8 0 01-1-3V79h-26.8a98.8 98.8 0 00-39.3-24 103 103 0 00-29.8-4.5 100.8 100.8 0 00-29.3 4.3 100.5 100.5 0 00-29.2 14.5c0 .5.1 1.1-.2 1.4-.4.3-1-.2-1.7 0-.6.4-1 1.3-.9 1.8.3.5 1.2.5 2.6.6a6 6 0 001.8-.2c1.1-.3 1.7-.9 2-.6.2.2-.1.7.2 1 0 .1.3.3 1.4.1l1.5-.4c1.7-.5 2.4.2 3.7-.1.1 0 .5-.2.8 0l.4.5c.3.2.8-.2 1.4-.4.1 0 2-.6 3.2.1.3.3.6.6 1 .6l.8-.2c.8-.4 1.4-.5 2.2-.6.6-.1 1.4-.2 2.3 0 .7.3.7.5 1.5.7.5.2 1.4.4 1.8 0 .4-.4.1-1 .5-1.2.3-.2.6 0 1 0l.8.4c.6.2 1 0 1 0 .1.2-.2.5-.7.7l-1 .2c-.4 0-.7.1-.7.2 0 .2.9.3 1 .6 0 .2-.2.4-.3.5 0 .1-.2.3-.4.3-.5 0-.5-.6-1.2-.9h-2.1c0 .1.2.3.1.5 0 .2-.3.3-.6.3-.4 0-.4-.6-.9-.8h-.6l-1 .1c0 .2.4.3.4.4l-.5.3c-.3.2-.3.4-.6.5a1 1 0 01-.8 0c-.4-.1-.4-.4-.7-.7-.3-.2-.4 0-1.6-.1a47.8 47.8 0 00-2.5.2c-.1.1.2.3.1.6 0 .3-.4.4-.7.6l-.6.1-.9.3c-.5 0-.6-.3-1.4-.7-.7-.2-1.5-.3-1.6 0v.2c0 .2-.2.4-.3.4-.2 0-.3-.3-.6-.5-.2-.1-.5-.2-1.6 0l-2.1.7c-.4.3-.6.6-1.1.8h-.7c-.2-.2 0-.5-.3-.6-.2-.2-.8.3-2 .6-.7.2-1 .2-1 .1-.5-.2-.3-.6-.6-.8-.4-.2-1.6.5-2 1.4l-1-1c-1.3-1.1-1.7-1.5-2-1.4-.2.2-.2.7-.2 1.3 0 .7.2.9.1 1.2 0 .2-.3.3-.5.5l-.2-.2c-.4-.2-.8-.2-1.2-.2 0-.6.2-1.4 0-1.6-.5-.2-1.7 1.8-2.2 1.6-.4-.2 0-1.9-.4-2-.2 0-.4.7-1 1-.6.3-1.3.1-1.8 0 0 .1 0 .4.3.6.5.6 1.6.3 1.7.6l-.2.3H102c-.4-.2-.8-.3-1-.1h-2.7a18.7 18.7 0 00-.4-.4c-1.2-1.3-1.3-.8-2.5-2.1-1-1-1.3-1.6-2.3-2.2l-1-.6c-1.3-.8-2-1.4-2.1-1.3l.1.8s.2 1.5-.4 2c-.8.7-2.3 0-2.4.4v.6c0 .3-.7.3-.7.5 0 .3 1.2.7 2.7 1.2 1.3.5 2.1.7 2.7 1.2h-4.5l-1-.7-.7-.3c-.8-.2-1.2.2-2 0-.4 0-.3 0-1.1-.4A8 8 0 0081 77h-1.5c0 .2 1.4.5 1.7.6l1.4.4.8.3c.6.2.8 0 1.4.2l1.2.5h-7v43l-.1.6v.2a26 26 0 00-3.4 5.2c.1.1.8-.7 2-2.3l.7-.9c-.3.8-.9 2.2-1.7 5.5v.3c-.9-.3-1.2-1.2-1.4-1-.3 0-.3 1.1.3 1.9l.7.7v.3c-.8.2-1.6.3-2.3 0-.8-.5-1.4-1.2-1.5-1.1 0 0 .5.6.8 1.5.1.3.5 1.6-.2 2.4-.5.7-1.7.8-2 .8a21.5 21.5 0 01-1.2 0l-2 .1 1.8.8c1.3.5 1.5.6 1.6.8.3.7-.4 1.7-.5 2-.3.3-.5.5-.4.6 0 .2.6 0 1.7-.2l2.1-.2 1.2-.1a.7.7 0 00.2.2 1.8 1.8 0 01-.1.2c-.8.4-1.5.2-1.6.4 0 0 0 .2.5.5 1.6 1 3.3.6 3.5 1 0 .5-1 1-1 1.2.2.3 1.7-.2 1.7-.2l.6-.2v8l-4.5.9a98.7 98.7 0 004.5 28.9v9.8c-1-.3-1.7-.2-1.8 0-.2.4 1 .7 1.4 2 .2.4.2.7.2 1h-.3c-2-.8-3.2-2.4-3.8-2-.4.1-.1.7-.5 1-.8.6-3-.7-3-.6 0 0 2.3 1 2.3 2v.9c0 .1 0 .4.2.6.4.4 1 .6 1.5.5.6-.2.8-.8 1-.7.3 0 0 .8.4 1.1.4.5 1-.2 2 .2l.4.3v2l-.8-.5c-.7-.5-.7-.9-1-.9-.5 0-.6.7-1 .7s-.5-.3-1-.8c-.9-.8-1.2-.6-1.6-1.2-.6-.7-.4-1.6-.8-1.7-.3 0-.5.3-.9.4-1.2.1-2.3-3.1-2.7-3l.1 1.7c0 .7.2 1 .4 1.3.2.2.4 0 .8.3.5.2 1.1.9 1 1.3-.2.5-1.1.4-1.2.8 0 .4.4.8.5 1l1 .4 1 .8c1.1.7 1.3 1 1.8 1.1.3.1.8.2 1 0 .4-.4-.4-1.5-.3-1.6.2 0 .8.6 1 1l1 1.1.4 1c.3.4.8.6 1.3.7v.5c-.6-.2-1.6-.4-1.9-1.1 0-.3 0-.6-.4-1a1.8 1.8 0 00-.5-.4l-.3.3c-.6.3-1.2.1-2.3-.5-2.1-1.1-3.1-1.7-3.6-2.7-.2-.5-.2-.8-.5-1.2-.7-.8-1.7-1-1.7-1.1 0-.2 1-.1 1-.3 0-.2-.5-.2-1-.7l-.5-.8c-.2 0-.1.5-.3.6-.2 0-.4-.1-.6-.4l-1.4-1.6-.7-.7a4 4 0 00-1.3-.5c-.6-.1-1.1-.3-1.2-.2 0 .2 1.2.7 2.1 1.9.5.6 1 1.7.6 2-.3.4-1.4-.2-1.6 0-.3.6 2.8 3.4 2.9 3.3a8 8 0 00-1.6-2c-.2-.3-.6-.6-.5-.7 0-.1.3 0 .8 0h.7c.7.2.7 1 1.7 1.5h.3c.2-.1-1.3-1.5-1.1-1.7l1 .7c.8.4 1.1.7 1.5 1l.9 1 .6 1c.4.7 1 1 2.9 1.9 1.8 1 2.8 1.6 3 1.4l-.2-.5.6.7c.6.9 1.8 1.6 2.6 1.5V215.6c-.3.3-.1.6 0 .7v1l-.6-.3a8.5 8.5 0 01-1.4-.6l-.9-.6s-.6-.3-.7-.2c-.1.2 1.7 1.6 3.6 2.6v.8c-1.3-.6-2.2-1.1-2.5-1.4-.4-.3-.5-.6-.5-.6l-.3-.6-.4.6-.5.5c-.6.3-1.4 0-1.5 0 0 .2.7.5.6.8 0 .2-.5.3-.7.2-.5-.2-.4-1-.6-1-.1 0-.3.6-.1 1 .2.3.6.1 1 .5.4.5.2 1.1.4 1.2.2 0 .5-.4.5-.7 0-.3-.3-.4-.3-.7 0-.2.2-.2.5-.5l.5-.6c.1-.1.5-.2 2.3 1L79 220v.6c-1-.8-1.7-1.4-1.9-1.2v.3c0 .1-1.2-1.4-1.6-1.2-.2 0-.1.8 0 1.3.6 1.2 2.1 2 3.5 2.4v2.2a6.4 6.4 0 00-1 0c.4 0 .7.1 1 .3v.8a7 7 0 00-.7-.1c-1-.2-1.5 0-1.7 0l-.8.3h1l1.7.1.5.2a1 1 0 01-.2.2l-1.8.1c-.3 0-.8.3-1.3.2h-.1l.5.3h2.2l-.1.5h-2.3l1.2.4h1v.3c-.2.5-.3.7-.5.8-.4.1-1-.6-1.1-.5v.6l-.3.4c-.3.2-.5 0-.6.2l.2.3c.4.3.9-.1 1.1.1v.6c-.4.4-1.6-.3-1.6-.1 0 0 .2.3.7.5.6.2.8 0 1.3.2a2.6 2.6 0 001.7 1.6v.5a.5.5 0 01-.1.2c-.2.2-.6.2-.8 0-.3 0-.2-.4-.3-.4 0 0-.3.6 0 1.2.2.5.8.8 1.2.9v.7l-.5-.4c-.1.1 0 1 .5 1.5V271h192v-43.6c.5-.3.8-.6 1-.5 0 0 0 .5-.2.7l-.4.5c0 .1.5.2.8 0 1-.6.5-2.5 1-2.5.3-.1.6.7.8.6v-.6a3.4 3.4 0 000-.5c0-.5-.7-.7-1-1-.7-.8-.3-2.4.1-3.2 1-2 3.4-2.4 3.5-2.3.1.2-.9.8-.8 1 .1 0 1.4-.4 2.5-1.2.4-.4 1-.9 1.3-1.7.5-1 .4-2.2 0-2.4zM133.6 70c-.3-.1-.4-.7-.3-.8l.6.4.3.4c0 .1-.4.2-.6 0zm94.2-1.2l.6.3c.5.3.7.4.6.5 0 .1-.7.2-1-.2-.2-.2-.3-.5-.2-.6zm-36-12.1l.5-.6.4-.7.3-.3c.2 0 .4.4.4.8l-.1.6c-.1 0-.5.8-1.1.8-.4 0-.8-.3-.8-.4l.4-.2zm-10.3 12.5v.5c-.1 0-.3 0-.3-.2 0-.1.2-.4.3-.3zm-2.7 1.4c.5-.1 1 .2 1 .4l-.8.2c-.5.1-.8.2-.9.1 0-.1.3-.6.7-.7zm-8.8-.3h.5c0 .3-.8.7-1 .5 0 0 .2-.5.5-.5zM156.3 73c.4 0 .8.2.7.3 0 .3-1.2.5-1.3.3 0-.1.2-.5.6-.6zm-4.7-.1c.2-.1.9.5.7.9l-.2.1c-.3 0-.6-1-.5-1zm-2.4 0c.5-.2 1.1 0 1.2.3l-.4.4c-.3.1-.4 0-.8 0l-.5.4s0-.8.5-1zm-2.2.6c.1 0 .4.3.3.6l-.3.2c-.2 0-.1-.8 0-.8z"/><path d="M273.6 207l-.6.4-.6.3c-.2 0-.5.3-.4.4 0 .2 1 .2 1.8-.3.5-.3.5-.6.5-.7v-.4l-.7.2zm3.7-1.9c-.7.4-1.2.3-1.2.4 0 .2 1 .4 2 0 .2-.1.8-.4.7-.6 0-.2-.2-.3-.4-.3-.4 0-.6.3-1.1.5zm3.7.6h.4c.2 0 .3-.5.2-.6-.3-.3-1.6.4-1.6.5l1 .1zm-.1 1c-.8.3-1.3.1-1.3.3 0 .1.3.4.8.5l1.3-.4.8-.4.6-.3c0-.2-.6-.2-1.2 0-.5 0-.5.2-1 .3zm3.5-7.6h-.4c-.4 0-.7.3-.7.4h.7l.4-.4zm1.8 15.3c-.1 0-.5.5-.3.8 0 .2.1.3.3.3l.2-.3c0-.3 0-.7-.2-.8zm-2.2 1.2c-.2 0-.4.3-.3.4 0 0 1-.3.9-.5h-.6zm-1.2.6c-.3-.2 0-.7-.1-.8-.2 0-.7.8-.5 1.1.2.2.6.1.7.1.3 0 .5-.2.5-.3l-.6-.1zm-1 0c-.2-.2-1.4.3-2 1.4-.1.4-.2.9 0 .9 0 0 .2-.9 1-1.3 0-.1.4-.3.6-.2.3.1.3.5.5.5h.4c0-.2-.3-.3-.4-.7v-.6zm-7.3 5.5c0-.2.2-.2.1-.4l-.1-.1c-.2 0-.9.6-.6 1.2.2.4.9.5 1 .4l-.3-.4c0-.2-.2-.4-.1-.7zM85.7 77.4l.4-.1-.7-.5c-.3-.2-.3-.4-.5-.4a.3.3 0 00-.3.2c0 .3.5.8 1 .8zM83.3 75c.3.1.5.2.5.4s-.2.4-.1.5l.5-.1a.7.7 0 00.3-.5c0-.4-.4-.7-.8-.8l-.6-.1-.4-.3c-.1 0-.2.5 0 .8l.6.1zm5-3.3l.4-.1-.8-.1s.2.3.5.2zm-1.3-.3c.2 0 .3-.1.3-.3 0-.2-.6-.4-.7-.3-.1 0 .1.6.4.6zM76 91c.2.1.9-.3 1.2-.5.3-.2.9-.7 1-1.5 0-.1.1-1.2-.5-1.7-.4-.2-1-.3-1.2 0-.2.2.1.5.3 1 .3 1.2-1 2.4-.8 2.7zm-2.6 36.7c.4-.5.2-.6.6-1.1.4-.5.8-.7.7-1v-.2c-.4-.2-2.2 2.7-2 2.9l.7-.6zm.5 1.3c-.4.2-.7.7-.6 1.1l.3.3.4-1 .3-.4h-.4zm-3-4.4h.5l-.7-.5c0 .1 0 .3.2.5zm-1.6 5l-.3-.3c-.5 0-.9.7-.7.9.1.1 1-.2 1-.6zM69 133c-.4.2-.6.8-.4 1l.7-.4s.3-.3.2-.5c0-.1-.4-.2-.5-.1zm2.3 2.3c0-.2-.1-.3-.3-.4-.3-.1-.7.2-.7.3 0 .2 1 .3 1 0zm-4.8 5c.3-.3 0-1.2-.2-1.2s-.6.9-.3 1.1h.5zm2.7 3.1c.1 0 .4-1.6-.2-3.1-.2-.5-.6-1-.7-1 0 0 0 .7.4 2.2l.5 2zm2.4.8c.4-.2.1-1.8 0-1.8l-.4 1c-.1.3-.2.4-.1.6 0 .1.3.3.5.2zm-1.1 0c-.2 0-.3 1 .1 1.3.3.2.8.2.9 0l-.6-.7-.4-.6zm-4.3-1.5c-.3.2-.3 1 0 1 0 0 .3 0 .4-.2.2-.3.2-.6 0-.8h-.4zm11 61.2c-2-1.1-2.5-1.1-3.8-1.9-2.1-1.2-3.2-2.6-3.3-2.4-.1 0 .3.8.9 1.4 1 .9 2 1.1 2 1.3 0 .2-.5.1-.6.2 0 .2.8.3 1.6.6l1.6.5c2 .6 3.4 1.5 3.4 1.5s-.7-.6-1.8-1.2zm-2.5.9c-.3-.1-1-.3-1.7-.8-.4-.4-.4-.6-1-.9l-.7-.3c-.2.2 1.2 1.2 2 1.9.4.2.7.5 1.3.5l.8-.2-.7-.2zm3.3 4.7l-.2-.2v-.5h-.3c-.2.2 0 .7.2.8h.3zm-2 5l.5-.1c0-.2-.7-.7-1.6-1.6-1-1.1-1.3-1.8-1.4-1.8-.2.1 1 3.2 2.5 3.4z"/><path d="M73.6 212c-.1 0-.3.8.1 1.5.3.6 1 1 1 1v-.5l-.6-.8c-.5-.6-.4-1.3-.5-1.3zm-1 4c.2 0 .1-.6 0-1-.5-1.9-2.6-2.8-2.7-4l-.3-.8c0-.4-.2-.5-.2-.5l-.2.5c-.1.7.1 1.3.2 1.4.6 1.5 1.5 1.4 2.1 2.7.2.5.4.7.8 1.2.2.4.3.6.4.5zm-2.4 2.2c-.1-.1-.7.2-1.1.6l-.3.4h.7c.5-.3.8-.9.7-1zm-1.8 1.4s-.2.2-.1.3c0 .1.6 0 1 .2.2.3 0 .6.2.6.1 0 .1-.5.5-.8l.5-.2h-.6c-.9-.1-1.2-.3-1.5-.1zm-1.3.5v-.7-.3l.3-.4s-1 0-1.1.4l.1.4s.2.3.2.7c.2.6-.1 1 0 1.1 0 0 .2-.4.6-.6.2 0 .3-.1.3-.2s-.3-.1-.4-.4zm7 1.6c.2 0 .3-.4.2-.5h-.8s.4.6.7.5zm.3 4.2c-.2 0-.8 1.6-.6 1.8l.3-.2c.6-.4.5-1.6.3-1.6zm-1.6 1.3l.3-.1v-.3l-.3.4zm-1.2.2l-.3.7.3-.1a.5.5 0 000-.5v-.1zm.3-2.3c0 .2.1.3.2.3v-.5-.4c-.1 0-.3.4-.2.6zm-2.4 3.5v-.7s-.3.7 0 1.1c.3.3.6.3.6.3 0-.1-.4-.3-.6-.7zm0 1.3c-.3 0-.4.5-.3.6.1 0 .6-.1.5-.3 0-.2-.1-.3-.3-.3zm-.7 1.4c0 .2.6.2.8 0v-.5c-.2-.1-.9.4-.8.5zm1.7-.9s-.2.4-.1.5h.2c.1-.1 0-.5-.1-.5z"/></g></g></mask><radialGradient id="c" cx="179.1" cy="251.6" r="73.8" gradientTransform="matrix(1.6566 0 0 2.1964 -117.2 -381.4)" gradientUnits="userSpaceOnUse"><stop offset="0" stop-color="#e3edef" stop-opacity=".8"/><stop offset=".4" stop-color="#e1ecee" stop-opacity=".7"/><stop offset=".6" stop-color="#d7e6e9" stop-opacity=".4"/><stop offset=".9" stop-color="#c7dde2" stop-opacity="0"/></radialGradient><path mask="url(#b)" fill="url(#c)" d="M10.7 16.2h337.7v310H10.7z"/><path d="M274.4 142H274.1c-.3-.2-.3-1.1 0-1.7v-.1c0-.2-.7 0-.8 0-1.1.3-1.5.7-1.7.6-.2-.1.1-1 .8-1.5.7-.7 1.3-.5 1.5-1 .4-.6-.2-1.8-1-2.2l-1.1-.1c-.4 0-1.5-.1-1.6.1 0 .1.4.2.4.5l-.2.4-.8.2h-.7c-.2 0-.2-.5-.1-.7l.2-.4c0-.2-.4-.2-.4-.2h-3.2c-1.2 0-1.3-.4-2.4-.4h-1l-1-.6-.2-.2c0-.2.2-.2.1-.3h-1.3c-.3.2-.2.5-.6.8l-.4.1c-.2 0-.4-.2-.6-.4 0 0-.4-.4-1-.5h-1.9v.6c.2.5.4 1 .2 1.3-.2.1-.7 0-1-.2-.4 0-.4-.1-.5-.2-.6 0-1 .7-1.2.6-.1 0 0-.3 0-.8 0-.6 0-.9-.2-1-.2-.2-.8.3-1.3.5-1.4.5-3-.6-3.3-.8-1.4-.8-10.4-1.8-33.7-3l.8-3.9 9.2.2c1.5 0 2.1.3 2.3.7.2.3.2.7.5.8.2 0 .3 0 .6-.3 1-.7.9-1.6 1.6-1.9h.8l.5.3-.6.4c-.3.3-.7.8-.6 1 .2.4 1.7.3 3 .2l.9.1.4.5h.6c.4-.3.6-.9.5-1.3 0-.2-.1-.3 0-.4 0 0 .3 0 .5.2.5.4.4.8.8 1 .3.2.7 0 .8-.1.4-.2.5-.5.6-.7.3-.6.1-1.1.4-1.2h.4l.3.5c.1.5.5.9.7 1.1.1.1.3.4.7.5.2.1.8.4 1.4.2.3-.1.4-.4.8-.5h.5l.7-.7.6-.5c.5-.4.7-.3.9-.6l.1-.5c.2-.7.2-.9.1-1 0-.2-.2-.2-.2-.3h.6c.3.1.5.3.6.6l-.1.7-.5.4c-.3.3-.5.8-.3 1.2 0 .3.2.4.5.6l.7.5.8.3c.5.3.6.3.8.3v-.5c0-.2-.2-.2-.7-.4l-1.2-.6s-.2-.3-.1-.5c0-.2.6-.2 1.2-.2h2.1l2.7.1h.8c0 .2-.9.4-1.7.5-1.1.1-1.9-.2-2 0l.6.4 1 .2c.1.1-.3.3-.3.4 0 0 1.3-.2 1.4 0 0 .2-.3.3-.2.5 0 .2.8.1 1.5 0l1-.5.6-.3.4-.2c.3.2 0 1.5.2 1.6.3 0 1-.6 1.1-1.4v-.6c.2 0 .5.8 1.4 1.2.6.2 1.3.2 1.6.2h1.5c0 .2-.2.4-.1.5 0 .1.6 0 1-.5 0 0 .7-.7.4-1.4-.2-.4-.7-.6-1-.6-.6 0-.8.5-1 .3-.2 0-.1-.5 0-.6 0-.1 0-.3.2-.4.2-.2.6-.2.8-.1.1 0 .6 0 1.2.4.4.2.6.5 1 .5h.3c.1 0 0 .5-.3.7l-.4.1c-.2.2-.1 1 .3 1.5.6.7 2 .7 2.6.1.1-.1.3-.4.7-.6l.5-.2c.2.1-.2.5 0 .7 0 .2.6.3.8.1.2-.1.1-.3.3-.4 0 0 .2 0 .5.3l.4.3.3.4c.3.3.9.2 1.7.1l1.6-.2c.7-.5 0-2.3-.6-4-2-6-.7-3.2-2.7-8.3a232.5 232.5 0 00-1.8-4.7c0-.1-.2-.3-.5-.4-.5-.1-1 .4-1 .5-.6.7 0 2-.2 2-.2.1-.5-.9-1.4-1.4 0 0-.4-.2-.3-.3l.2-.2.9-.6.9-1.1c.4-.6.4-.7.4-.9v-.9c-.8-2.1-2.3-4.3-2.3-4.3-.5-.8-.7-1-.9-1.6-.3-.9-.2-1.1-.5-1.4-.7-.7-2.2.1-2.5-.4l.1-.6c.1-.4.1-1.2-.1-1.2-.2-.1-.7.5-.7.6-.1.1-.4.6-.7 1.6-.2.8-.1 1-.4 1.2-.3.2-.5 0-.8.2-.4.3-.2.8-.5 1-.3.3-.8.4-1 .2v-.5c0-.3.4-.4.7-.6.4-.3.5-.6.8-1.1.3-.5.8-1.4.5-1.7-.3-.4-1.2.2-1.4-.2-.2-.2.2-.7 0-.8-.1-.1-.4.1-1 .5l-1 .7-.3.1c-.3 0-.5-.1-.7-.3-.3-.2-.2-.4-.4-.5-.5-.4-1.2 0-1.4-.4v-.3c-.2-.2-.6-.1-.8 0 0 0-.4.1-.5.5 0 .3 0 .5.3 1a6.6 6.6 0 01.2 2.3c0 .2-.1.6-.3.6-.2 0-.3-.4-.8-.8-.3-.2-.6-.1-.7-.3 0-.3.2-.4.5-1.2 0-.3 0-.4.2-.6l.3-.3v-.2l-.3-.1c-.3 0-.5-.2-1-.5a5.7 5.7 0 00-1.2-.4c-.7-.2-.9 0-1.6-.3l-1-.3c-1-.3-2 0-2 .1l.2.3-.7.4-.6.4c-.3.2-.3.3-.5.3s-.5-.2-.5-.3l-.3-.6c-.3-.5-.7-.9-1.2-1-.2-.1-.5-.2-.6 0 0 0 .1.3 0 .4l-.5-.1a11 11 0 00-1.7-.4h-2.5c-.4 0-.7 0-.8.2-.3.3 0 1 0 1 .2.4.4.4.6.7.5.9.2 1.8.1 2 0 .3-.3.6-.4.6l-.1-1a2.5 2.5 0 00-.3-.6 2.8 2.8 0 00-.6-.8l-.6-.4c0-.2.8 0 .9-.3l-.3-.4c-.7-.6-.6-.7-1-.9-.1-.1-.5-.2-1.3-.2h-1.4c-.4 0-.7 0-.9.2l-.1.4c-.2.5-.8.8-.9.8 0 0-.6.2-.8 0l.1-.5c.2-.5.5-.5.4-.7 0-.2-1.1 0-2.6-.1-1.2-.1-2.2-.3-2.2 0l.2.3-.6.1h-.8c-.3 0-.7-.2-1-.5-.3-.3-.2-.5-.4-.5-.3 0-.5.3-1 .6-.4.3-.9.3-1.1.3-.3 0-1.3 0-1.6-.5-.2-.3 0-.4-.3-.6-.3-.3-1.2 0-1.7.3-.7.4-.8.6-1.3.6-.5.1-1 0-1.2-.1l-1.4-.8a3.6 3.6 0 00-1.6-.2c-.7 0-1.2.3-1.5.5-1.2.7-1.6 1.5-1.9 1.3-.2 0-.2-.5-.2-.7 0-.3.2-.5 0-.6 0-.2-.9-.1-1.4.1l-.7.6-.5.6c-.2 0-.5-.1-.7-.4v-.7l-.3-.6c-.2 0-.4 1-1.4 2-.4.4-.5.4-.7.4-.4 0-1-1-.8-1.8 0-.4.2-.6 0-.8 0-.2-.4-.2-.6-.2-.5 0-.7.2-1.4.5-.9.3-1 0-1.2.3-.4.5.2 1.2-.2 1.9-.3.4-1 .6-1.2.4-.3-.1-.4-.6-.3-1 0-.4.4-.6.3-.8-.1-.2-.8.1-1.6-.1-.9-.3-.7-1-1.7-1.6-.3-.2-1-.3-2.4-.4-1.2-.1-1.5-.1-1.6 0-.2.4 1.3 1.1 1.1 1.7-.2.6-1.9.8-2.5.1-.3-.3 0-.6-.4-1-.4-.3-.9 0-2-.4l-1.1-.4H178.8c0 .2.3.3.2.4 0 .2-.6.5-1 .3-.5 0-.5-.3-1-.6-.7-.3-1.4-.3-1.5-.1l.3.4h-1l-.6-.4c-.4.1-.5 1.1-.1 1.9l.4.6c.2.7-.4 1.6-.5 1.5v-.7a3.1 3.1 0 00-.1-.7l-.2-.4c-.2-.2-.5-.2-.8-.2h-.7c-.2-.2-.3-.5-.2-.7 0-.6.9-.8.8-1 0-.2-.3-.2-.5-.3a2 2 0 00-1.3.2l-.6.5c-.5.4-.5.6-.8.6-.2 0-.5-.2-.6-.5-.2-.3 0-.7-.1-.8-.3-.2-1.5 1-2 .7-.1-.1 0-.5-.3-.6-.2-.1-.4 0-.7.1-.3.1-.5 0-1.5-.1l-2-.2-.8.1-.3.6c-.2.4-.4.8-.6.8 0 0 0-.5-.3-1.4 0-.3-.1-.4-.2-.5-.3-.2-.6 0-.8 0l-1 .7-1.5 1.2-.5.5c0 .3.4.3.6.5.6.7.2 2.5-.3 2.5-.4 0-.7-.5-.8-.7-.3-.5-.2-.8-.3-1.8-.2-1-.2-1.4-.5-1.7-.2-.5-.5-.7-.5-1 0-.4.5-.7.5-.7l.8-.2.6.1c.6.1 1 0 1.4-.2 1.1-.3 1.6-1.5 1.9-1.4l.2.9s.4.7.8.7.7-.5 1.4-1.4l.4-.4c.2 0 .3.3.6.5l.6.2 1.5.4c.3 0 .9 0 1.5-.2 1-.3 1.6-1 1.8-1l.1.6c.1.2.4.2.5.3.7.2 2.2-.4 2.2-.4 1-.4 2-.5 3-.7 1.8-.4 3.2-.3 5.8-.2 0 0 4 .3 6.5 0 .2 0 .9-.1.9-.3l-.6-.3 2 .2c1.5.2 2.3.3 3.1.2 1.6-.3 2.8-.9 2.8-.9.5-.2 1.1-.6 1.3-.5 0 .2-.2.5 0 .7.1.4 1 .3 1.6.1l1-.4a3 3 0 011.5.1c.6.2.6.5 1.2.6a3 3 0 001.4 0c.3 0 .4 0 1.5-.5a28.3 28.3 0 013-1c.9 0 1 .4 2 .7.4.1 1.2.3 2 .1 1.4-.3 2.3-1.5 2.6-1.3l.1.5.5.3c.4.1.7-.2 1.2-.3.6-.2.7.2 1.6.2.9 0 .9-.3 1.9-.3.4 0 1.3 0 1.6.5.1.2 0 .3.2.3.3.2.7-.3 1.6-.6.4-.2 1.1-.5 1.6-.2.4.3.3.7.6.8.4.1 1.1-.3 1.5-.9.2-.3.2-.6.4-.7.3 0 .5.2.7.3 1 .9 2.3-.2 3.5.6.6.4.8.9 1.1.8.2 0 .2-.2.8-.9l.6-.7.3-.3c.1 0 0 .5.3.8.4.4 1.2-.2 1.7.2.2.2 0 .4.2.5.3.3.8-.2 1.6-.4l2.2-.1c.2 0 .6 0 .8-.2.2-.2 0-.4.2-.6.2-.1.5.2 1.2.4l1.7.4c.2 0 .5.2.6.4v.5c.1.1.6-.5 1.5-.7.1 0 .7-.1 1.1.2l.7.5c.5.3 1.3 0 1.3-.1 0-.2-.3-.2-.3-.4 0-.1.4-.3.9-.3l.6.2 1 .1h1v-.4c.1-.2.9-.2 1.4.2.4.3.4.6.7.7l1-.2.3-.1c.2-.3-.4-1-.5-1.2A104 104 0 00204.8 55a103 103 0 00-29.8-4.5 100.8 100.8 0 00-29.3 4.3 100.5 100.5 0 00-29.2 14.5c0 .5.1 1.1-.2 1.4-.4.3-1-.2-1.7 0-.6.4-1 1.3-.9 1.8.3.5 1.2.5 2.6.6a6 6 0 001.8-.2c1.1-.3 1.7-.9 2-.6.2.2-.1.7.2 1 0 .1.3.3 1.4.1l1.5-.4c1.7-.5 2.4.2 3.7-.1.1 0 .5-.2.8 0l.4.5c.3.2.8-.2 1.4-.4.1 0 2-.6 3.2.1.3.3.6.6 1 .6l.8-.2c.8-.4 1.4-.5 2.2-.6.6-.1 1.4-.2 2.3 0 .7.3.7.5 1.5.7.5.2 1.4.4 1.8 0 .4-.4.1-1 .5-1.2.3-.2.6 0 1 0l.8.4c.6.2 1 0 1 0 .1.2-.2.5-.7.7l-1 .2c-.4 0-.7.1-.7.2 0 .2.9.3 1 .6 0 .2-.2.4-.3.5 0 .1-.2.3-.4.3-.5 0-.5-.6-1.2-.9h-2.1c0 .1.2.3.1.5 0 .2-.3.3-.6.3-.4 0-.4-.6-.9-.8h-.6l-1 .1c0 .2.4.3.4.4l-.5.3c-.3.2-.3.4-.6.5a1 1 0 01-.8 0c-.4-.1-.4-.4-.7-.7-.3-.2-.4 0-1.6-.1a47.8 47.8 0 00-2.5.2c-.1.1.2.3.1.6 0 .3-.4.4-.7.6l-.6.1-.9.3c-.5 0-.6-.3-1.4-.7-.7-.2-1.5-.3-1.6 0v.2c0 .2-.2.4-.3.4-.2 0-.3-.3-.6-.5-.2-.1-.5-.2-1.6 0l-2.1.7c-.4.3-.6.6-1.1.8h-.7c-.2-.2 0-.5-.3-.6-.2-.2-.8.3-2 .6-.7.2-1 .2-1.1.1-.4-.2-.2-.6-.5-.8-.5-.2-1.7.6-2.1 1.5 0 .2-.2.4-.3.4-.3 0-.7-.3-.8-.7v-.3c-.3-.1-.8 1.1-1.7 1.2-.4 0-.7-.1-1-.3-1.2-.6-2.9 0-3.9.4-.6.3-1.8.8-4.6 4l-3.6 4.5-3.6 4.5c-3.7 4.7-3.2 5.2-5 7-.2.4-.8 1-1 1.9-.4 1.1.2 1.4-.2 2.3-.3.8-1.2 2-2.3 2.4l-.4.3c0 .2.3.3.5.7l.1.4c.2.8-.8 1.7-.6 2 .2.4 1.5-.3 1.9.2.1.2.2.5 0 .6-.2.3-.9 0-2.1.1h-.6c-.7.3-1.4.9-1.3 1.2 0 .2.4.2.5.4.1.4-.8.8-.8 1.4 0 .6 1 .7 1.3 1.7 0 .2.2.7 0 1-.2.5-1 .6-1.1.6h-.5c-.3-.3-.2-.8-.4-.9-.1 0-.3 0-.7.5-.5.6-1 1-1 1.7-.2.9.2 1.7.3 1.9.2.5.4.8.3 1h-1c-.7.3-.9 1.7-1 2.1-.2 2.2-.6 1-2.3 7.7-1 4-.8 4.5-.6 4.9.2.4.7 1.3.4 2l-.6.7c-.4.5-.8 1.5-.5 2 .4.6 1.5.6 3.7.5 1.2 0 2-.2 3-.1l1.3.1.8.1s-.3-.3-.2-.4c0-.1.7.2 1.6.2h.6c.3.2.3.6.5.6.3 0 .4-.4.9-.7 0 0 .5-.2.9 0 .2.1.2.3.5.4.3.2.7.2.8.2.6 0 15.4 0 36 .3l-51 10.8A98.7 98.7 0 0079 181a100 100 0 0022.9 38.5v-.2l1.4 1.9c.9 1.3 4.2 4.4 13.9 12a6.1 6.1 0 011.1-1.5c.7-.6 1-.6 1.2-.6.4 0 1 .2 1 .4l-.3.2c-1 .7-1.7 2.5-1.6 2.5a93 93 0 003.1 2c.1.2.3.3.6.4 1.4.5 2.7.2 4.5.3l.8.1c.5.2.5.5.8.6.5 0 1.1-.4 1.2-.8 0-.3-.2-.6 0-.7h.7c.5.2 1.2.8 2 .8.1 0 .7 0 .8-.4v-.5c.2 0 .4 0 .6.2.3.3.2.6.5.8.3.2.6 0 .6 0 .3 0 .5-.3.6-.6.1-.2.4-.7.2-1.2-.1-.3-.3-.3-.2-.5 0-.2.7-.1 1.1 0l.7.6c.2.3 0 .5.3 1l.6.8c.3.2.6.5.8.4.2 0 0-.7.2-1l.9.4s1 .5 2.2.7l1-.1c.4-.2.7-.7.6-1 0-.4-.5-.4-.6-.7 0-.2.2-.4.5-.7.2-.2.4-.5.8-.5 0 0 .3 0 .4.2.1.2-.2.4-.4.8 0 0-.3.9 0 1.5l.4.3c.3 0 .3-.4.8-.9.2-.2.3-.4.5-.4.4 0 .5.4.8.4l.4-.2.6-.4c0-.2 0-.5-.2-.7-.3-.4-.6-.5-.5-.6 0 0 .6 0 1 .2.7.4.6 1 1.2 1.2h1.4c0-.2-.3-.4-.2-.5l1.3.2 1.2.7c1.8 1 4 .4 4.6 0l.7-.5c0-.2 0-.4.2-.4.2-.1.5 0 .6.3.2.2.2.5.2.7 0 .4-.2.5 0 .6l.6-.2c.8-.4.7-1 1.3-1.2.1 0 .5-.3 1-.1.4.2.3.9.8 1 .3.2.7 0 1-.2.6-.2.7-.5 1-.6.5 0 .7.4 1 .6 1.1.6 3.1-1 3.9-1.6 2.4-1.7 4.5-.4 14.3-.4h3.9l.9.4c1 .5 1 .7 1.5 1 0 0 1 .4 2.2.2l.6-.1.7-.5c.4-.2.6.1 1.1 0 .6-.1.7-.6 1.4-.6h.5c0 .2-.2.4-.1.5 0 .3.9.5 1.6.2l1.3-1.1c.1-.2.3-.3.5-.3v.4c.1.6 1.2 1 1.5.7.3-.2 0-1.2-.5-1.8l-.4-.7h1.5c.1.1.3.2.5.7l.5 1c.2.3.5.8 1.1 1 .5.2 1.2.2 1.3 0l-.1-.4c-.2-.4.3-1.1.8-1.4.5-.3.6-.1 1-.4.3-.3.3-.5.7-.8l.7-.5c.2-.3.2-.5.4-.6h.9l.7.5a.8.8 0 010 .5c0 .3-.2.7-.4.7s-.2-.4-.4-.5c-.3-.1-.5.4-1.1.7-.7.3-1 0-1.4.3-.4.3-.6 1-.4 1.4 0 .1 0 .4.4.6.3.1.6.2.9 0 .3-.1.3-.3.6-.5.3-.1.7-.2 1 0l.3.2h.3c.2 0 .2-.5.4-.6.2-.1.5.2 1.4.6.8.3 1 .2 1 .1.1 0 0-.3 0-.4 0-.8 0-2.4.4-2.7.5-.3 1.7 1 2 .7v-.3c.2-.2 1.2.6 1.1 1 0 .4-.6.3-1.2.9-.2.2-.4.4-.3.6 0 .2.3.5 3.5.2 2.8-.2 2.3-.4 4-.4.5 0 2.3 0 2.3-.4 0 0-.1-.1 0-.2H227.2s-.5-.2-.7-.7c-.2-.5 0-1.3.4-1.3.3-.1.5.2.7.4.8.7.5 1.4 1 1.8.6.4 1.6 0 2.2-.5.9-.9.8-2.4 1-2.4 0 0-.1 1.4.4 1.6.2.2.5 0 .8-.2a101 101 0 0020.5-19.4c.2 0 .2-.1.2-.2 0 0-.5.2-.8 0-.1-.1 0-.3-.2-.4-.3-.2-1 .6-1.5.3-.2 0-.1-.2-.3-.3-.4-.3-.8.2-1.5.2-.4 0-.7-.1-1-.3-1-.3-1.4 0-3.2 0-2 0-2.6-.5-3.1 0-.4.3-.4 1-1.1 1.3l-.7.2c-.5-.1-.5-.7-1-1.1-.3-.2-.9-.3-1.9-.3-1.8-.2-2 0-2 .2-.2.2.2.4 0 .6 0 .2-.6 0-1-.2l-.8-.6c-.8-.6-2-.3-2-.2-1.2.3-1.6 1.3-2.2 1-.2 0-.2-.1-.4-.3-.4-.3-1-.6-1.9-.6l-.1.6c-.3.4-1 .5-1.3.3-.4 0-.4-.3-.9-.6-.4-.2-1-.3-2-.3a2 2 0 00-.7 0c-.2 0-.3.2-1 .6-.4.4-.5.4-.6.4-.2 0-.2-.1-.6-.4a4.2 4.2 0 00-1-.6h-.4c-.2.1.5 1 .2 1.3-.2.3-1.2-.3-1.3-.3-.6-.3-.5-.5-1-.8-.8-.4-2-.2-2 0l.3.3h-1.9c-.7.1-1 .3-1.6 0 0 0-.4-.1-.4-.3 0-.2.4-.2.3-.3l-2 .2c-.6 0-1.1.2-1.8.5l-1.8.6-.8-.1c-.2-.3.4-.7.2-1l-1.2-.2h-2.1c-.4.3-.3.5-1 1-.3.4-.7.7-1 .6-.3 0-.3-.6-.7-.9-.4-.3-.8 0-1.7 0-.6.1-1 0-1.8-.3-1.2-.4-1.3-.7-2-.7-.8 0-1.5.3-1.8.5-2 1-7.4 1-8.8 1-11 0-25.3 6.6-32-.2a11.4 11.4 0 01-2-3.1c-9.7.8-13.6 1.5-14.8 2l-1.7.4a7 7 0 01-2.5.2l-1.9-.6c-1.1-.4-1.3-.6-1.9-.5-.2 0-.9 0-1.5.5-.4.4-.5.8-.8.8-.3 0-.2-.6-.6-1-.6-.6-1.4-.1-4-.2-.5 0-1.6-.1-1.7.2v.5l-.1.5c-.2 0-.4 0-.9-.4l-1-1c-.4-.3-.7-.2-3.1 0-1 .1-1.7.1-2-.2-.2-.3 0-.6-.3-.7-.2-.1-.7.2-1.1.5l-.5.4c-.6.3-1.5.4-1.8 0-.2-.3.1-.7 0-.8-.2-.1-.5 0-1.2.5l-1.2.8c-1 .2-1.8-.3-2-.5-.5-.2-.9-.5-1-1 0-.5.4-1.2.6-1.2 0 0 0 .2.3.5 0 .2.2.3.3.4h.6l.2-.3c.2-.2.6-.6.8-.5.3 0 .2.5.6.7.4.4 1 .2 1 .2.3 0 .2-.1.7-.3l1-.4.5-.2.6-.5c.1 0 .6-.3 1.1-.1.3 0 .5.2.8.5l.4.4c.4.2.7 0 .8 0 0 0 .6-.1.7-.5v-.2l.7.5c.1 0 .7.5 1.3.3l.6-.3.7-.6.5-.6c.3-.1.6 0 .8.1.2.1.1.2.2.3.3.4 1.2.4 1.7 0 .4-.3.3-.5.6-.8a1.8 1.8 0 011.1-.4c.6 0 .7.3 1.4.6.2 0 1.3.4 2.2 0 .6-.2 1-.7 1.1-1 1.2-1.3 3.9-1.1 5-1 2.8 0 9.3-.1 18.2-.5l5.2 5.6 5.3.5 2.5-3.2 11.1-5.7a582.7 582.7 0 0149.2 1.5c.7 0 1.1 0 1.6-.3.6-.3.9-.8 1.3-.7.3 0 .4.3.6.5.7.6 1.5 0 3.1 0 1.2.2 1.4.5 2 .3l1.2-.6h.6c0 .1-.2.4-.1.6h1.6c.2-.1-.2-.7 0-.9 0-.1.6 0 1 .2.2.2.2.5.5.6.3.2.7.2 1 0 .3-.2.2-.7.6-.8h.7l1.8 1c.1-.2-.2-.6 0-.8.2-.4 1.2-.2 1.4-.2l5.7.7c2.3.3 2-.2 5.1 0l3.6.4c.3.1 1.2.5 1.5.2l.1-.7c.2-.2.6-.2.9 0 .6.2.7.9 1 .9a26.5 26.5 0 002.6-3c1.8-2.4 2.6-4.5 3.6-6.6a616.8 616.8 0 014-8.9c.1-.3.6-1.3.3-2.3-.1-.3-.2-.6-.6-.8h-1l-.5-.1c0 .1.3.4.2.5 0 .2-.4 0-.8 0-.3.2-.3.4-.6.5l-.8-.3c-.5-.1-.6 0-.9-.2l-.5-.4a5.5 5.5 0 01-.4-.5c-.2-.2-6.5-.4-23.2-.2l4.1-6.2 28 .5a225.6 225.6 0 002.6-34.4c0-.8-.1-1-.2-1zm-4-15.2c.2.2.1.9-.2 1-.4.2-1-.3-1-.6 0-.4.9-.7 1.2-.4zm-16.8-6.7c-.2-.4.6-1 .6-1l-.2.8.3.6s-.6 0-.7-.4zm1.7 3.3c-.2 0-.5-.3-.6-.6-.1-.5.4-1 .6-1 .3.1.3 1.5 0 1.6zm.6-3.1c0 .1-.5 0-.7-.2-.3-.3-.2-.8 0-.9.2 0 .9.9.7 1zm1.3 4c-.1.1-.6 0-.8-.3-.2-.4 0-1 .2-1 .3 0 .8 1 .6 1.3zm.6-5.5a.5.5 0 01-.6-.2.3.3 0 010-.1l.5-.1h.3a.5.5 0 01-.2.4zm2.6-1.9c-.2 0-.7-.5-.6-1 0-.3.3-.5.5-.5.3 0 .4.6.4.9 0 0 0 .6-.3.6zm4.5 10.6l-.5-.2c-.3-.4 0-1.1.2-1.2.2 0 .5 1.2.3 1.4zm-.4-5.3c.2 0 .7.8.3 1.2-.1.1-.4.2-.6.1-.3-.2 0-1.3.3-1.3zm-.4-2.8s.3.8 0 1c-.2.2-.7 0-1-.3-.8-.6-1-1.9-.7-2.1.3-.3 1.4.4 1.7 1.4zm-1.9-3.3c0-.3 0-.5.2-.5.1-.1.3 0 .4 0 .1.4-.4 1-.5 1v-.5zm.3-4.4c.4.1.6.5.5.7-.1.2-.4 0-.9.3-.4.2-.5.5-.8.6-.2 0-.5-.1-.6-.3-.1-.3.4-.8.7-1 .2-.2.7-.5 1.1-.3zm-.9-6.4l-.4.2c-.4 0-.6-.3-.6-.4 0-.1 1 0 1 .2zm-4 4.2c0-.5.7-1 .9-.8.3.1-.1 1 .3 1.3.3.3.9 0 1 0l.5-.2 1-.3.8-.4s-.3.6-.8 1c-.5.2-.7 0-1 .3-.7.4-.5 1-.9 1.2-.6.3-2.1-1-1.9-2zm-2.2 5c.3-.1.5.2 1 .2l1-.3c.1 0 .9-.2 1 0 0 .2-.2.3-.6.9-.3.4-.2.5-.4.6-.3 0-.5-.4-1.1-.4-.3 0-.6 0-.8.2-.7.3-.8.7-1 .6-.2-.1.2-1.8.9-1.9zm-.9-1.3s.3.2.2.4c0 .2-.5.3-.8.3-.5 0-1.2-.4-1.1-.8 0-.4.5-.7.9-.7h.4v.6l.4.2zm-2-8c0-.3.5-.2.6-.2 0 0 .6 0 .6.3 0 .2-.3.5-.7.5-.4-.1-.6-.5-.5-.7zm.7 3.3c.6 0 .9.7 1 1.2 0 .7-.5 1.5-.8 1.4l-.5-.8-.3-.5c-.3-.2-.6 0-.6-.2-.2-.2.5-1.2 1.2-1.1zm-9 8.7c0-.2.3-.3.4-.3.2.1 0 .8-.1.9-.2 0-.5-.4-.4-.6zm1 3.2c0 .1-.5 0-.7-.5l.1-.6c.2-.1.8 1 .6 1.1zm1.1-5.5c-.1.2-.6.1-.8-.1-.1-.1-.2-.3 0-.4 0-.2.5-.3.7 0 .1.1.2.3.1.5zm2.7 7.5l-1-.8c-.3-.6-.5-1.4-.3-1.4.2-.1 1.4 2 1.3 2.2zm2.3-.4l-.3.8-.3.5c-.1 0-.4-.2-.4-.5 0-.5 1-.9 1-.8zm-.6-3.8c.1 0 .4.2.3.5 0 .3-.5.4-.6.3-.2-.2 0-.8.3-.8zm.1-2.6v.6c.1.3.3.4.2.5 0 .2-.4.2-.6 0-.2 0-.5-.3-.4-.5 0-.5.7-.7.8-.6zm-1.8-3l.6.2.6.4c0 .2-.7.5-1.1.3l-.4-.7c-.4-.4-1-.2-1.2-.5-.2-.3 0-.8.2-1 .2-.3.6-.5.9-.4.4.3-.1 1.3.4 1.7zm-2.6-10.5h.2c.5 0 1.1.4 1.6 1 .6 1 .5 2 .4 2.7-.1.3-.3.8-.6.8-.3.1-.7-.3-1-.7-.6-1.2.4-2.3-.3-3.2-.1-.1-.4-.4-.3-.6zm.3 7.2c.4.6 0 1.7-.5 1.9-.3 0-.7 0-.8-.3-.1-.3.1-.4.2-1 0-.7-.4-1-.3-1.2.2-.2 1 0 1.4.6zm-1.4-3c0 .1.1.6-.2.8-.2.2-.6.1-.8-.1-.4-.4-.1-1.3.2-1.3.3-.1.7.3.8.7zm-1.3-3.2c0-.1.6-.2.8.1l-.1.5c-.3.1-.8-.4-.7-.6zm-.1 8.2c.2-.2.8.3.9.8 0 .3-.1.7-.4.8-.2 0-.5-.4-.5-.5-.2-.4-.3-1 0-1.1zm-1.7-7.6c0-.1.2-.2.3-.1.2 0 .1.8 0 .8-.2 0-.4-.1-.4-.3a.5.5 0 010-.4zm-21.8 9.4c0-.3.7-.6 1.4-.5.1 0 1 .2 1 1 .2.3 0 .7-.2 1-.5.4-1.4.3-1.5 0-.1-.2.3-.4.3-.7-.1-.5-1-.5-1-.8zm2-3s.3 0 .4.3v.3c0 .1-.4 0-.5-.3v-.3zm0 13.3c-.7.4-1 .4-1 .3-.6-.2-1-.9-.7-1.4a1 1 0 01.5-.5c.5-.3.8.2 1.8.3.8.2 1.2 0 1.3.1 0 .3-1.7 1.1-1.8 1.2zm4.8-2.3c-.3 0-.7-.3-.6-.4h.5l.4-.1c.1 0 0 .4-.3.5zm.8-14.2c-.3-.5-.1-1.2 0-1.3.3 0 .6.6.8 1.1v.7c-.2 0-.6-.2-.8-.5zm1.7 14.5h-.2c-.2-.3 0-.9.2-.9.1 0 .2.8 0 1zm1.7 5.1c-.1.1-.4.3-.5.2-.3-.2.2-1.4.4-1.4s.5.8 0 1.2zm.3-2.8l-.3-.4.3-.7.2-.3c.2 0 .1 1.4-.2 1.4zm-.2-14.3s.8.6.7 1.1c0 .3-.4.6-.5.5v-.4c0-.7-.3-1.1-.2-1.2zM234 120c-.2.4-1 .3-1.4 0-.5-.4-.6-1.3-.5-1.3 0 0 .2.3.5.4.3 0 .4-.3.8-.2.3 0 .6.2.7.5v.6zm3.8-9.6c-.2 0-.4-.5-.2-.8.2-.2.5-.3.6-.2.2.2-.2 1-.4 1zm4 6.8c0 .2-.3.9-1 1-.4 0-.9-.2-.9-.5 0-.4 1.6-.9 1.8-.5zm-2.6-4.3l.9.1-.4.8-.4.5c-.4 0-1-2.3-.9-2.4.1 0 .3.7.8 1zm-2.2-11c.2-.2.6.1 1.2-.2.5-.2.7-.6.8-.5v.5c-.2.4-.4.5-1 1l-.6.5c-.4 0-.6-.9-.4-1.2zm-.4 4c.2-.2.4-.2 1.2-.4l1-.3c.2.2 0 .5-.3.6-.3.3-.6 0-.9.2-.3.2 0 .7-.3 1-.2.3-.7.3-.9.2-.2-.2-.2-.5-.2-.5 0-.5.3-.7.4-.8zm-3 .8l.4.1c0 .2-.4.5-.5.4-.1 0-.1-.4.1-.5zm-.6 2.8c.1-1 1.4-2 1.7-1.7.2.1-.3 1-.8 1.7-.1.1-.5.6-.7.5-.2 0-.2-.4-.2-.5zm.5.8c.2.1-.4.8-.1 1.5.1.5.7.9 1.2 1 .4.1.6 0 1 .2s.5.5.5.5c.2.3.2.8 0 .8l-.5-.3c-.7-.2-1.2.7-2 .6-.5 0-.9-.5-1-.8-.5-.5-.8-1.4-.5-2.2.3-1 1.2-1.5 1.4-1.3zm-2.1-4l1.2-1c.1 0-.3 1.4-1.3 1.8-.3.1-.7.1-.8 0l.9-.8zm-2.4 7.4c.2-.7.2-.9.4-1 .3-.3.5-.2.9-.4.5-.4.5-.9.7-.9 0 0 .2.5 0 .8 0 .3-.2.3-.5.6-.3.4-.1.6-.5 1.2l-.5.8c-.2.2-.7.5-.8.4l.3-1.5zm-1.7-11.4c.4-.1.7 0 .8.1.5.3.8 1 .7 1.6 0 .5-.4 1-.7 1l-.4-.5c-.6-1-.9-1-.9-1.3 0-.3.2-.7.5-.9zm-.7 9.8c.6-.2.8-.5 1-.4.1.1-.1.9-.6 1.3a1.8 1.8 0 01-.7.5c-.6.2-.8 0-1.9 0l-.7-.1c-.2-.3-.1-1 .2-1.2.7-.5 1.5.4 2.7 0zm-2.3-8.9l.5-.2c.5-.2.8-.3.9-.2.1.1 0 .8-.6 1 0 0-.3.2-.6 0-.2-.1-.3-.4-.2-.6zm0 5.3c0 .3-.6.3-1 .3-.3 0-.8-.2-.8-.5 0-.2.6-.5 1.1-.4.4.1.8.4.8.6zm-.8-7c.1-.2.3-.6.5-.6s.3.7 0 1.1c-.2.3-.6.5-.7.4-.2-.2 0-.7.2-.9zm-3.4 3.7c.3-.3.8 0 1-.3 0-.2-.4-.5-.3-.8.2-.3 1.3-.4 1.8.2.1.1.3.5.1.7-.1.3-.6.3-1.1.3h-.7c-.6.2-.9.7-1 .6-.1 0 0-.5.2-.7zm-1.1 2.7c.2 0 .5.5.6.7 0 .2.6 1.3.1 1.8-.3.3-.8 0-1.3.3-.4.3-.5.9-.4 1.3.1.8 1 1 .9 1.5 0 .3-.5.6-.5.6-.2.1-.7.2-.8 0-.2-.2.1-.5 0-1.2l-.1-.8v-1.1c0-.5.3-.6.6-1 .7-1.2.5-2.1.9-2.1zm-1.4-4.4c.7-.6.6-1.3.8-1.3.2 0 .3.8.3.8 0 .4 0 1-.3 1.3-.3.2-.7.1-.9 0 0 0-.5 0-.5-.2s.3-.3.6-.6zm10.1-34.5l.6.3c.5.3.7.4.6.5 0 .1-.7.2-1-.2-.2-.2-.3-.5-.2-.6zm-36-12.1l.5-.6.4-.7.3-.3c.2 0 .4.4.4.8l-.1.6c-.1 0-.5.8-1.1.8-.4 0-.8-.3-.8-.4l.4-.2zm-10.3 12.5v.5c-.1 0-.3 0-.3-.2 0-.1.2-.4.3-.3zm-2.7 1.4c.5-.1 1 .2 1 .4l-.8.2c-.5.1-.8.2-.9.1 0-.1.3-.6.7-.7zm-8.8-.3h.5c0 .3-.8.7-1 .5 0 0 .2-.5.5-.5zM156.3 73c.4 0 .8.2.7.3 0 .3-1.2.5-1.3.3 0-.1.2-.5.6-.6zm-22.7-2.9c-.3-.1-.4-.7-.3-.8l.6.4.3.4c0 .1-.4.2-.6 0zm-55 64c0-.2 1-.2 1 0l-.5.2c-.3 0-.5-.2-.5-.3zm.7 3.3c-.3.1-.3.5-.4.4-.1 0 .3-1 0-1.5 0 0-.2-.2-.1-.3h.2c.7.2 1.3.7 1.3.7l1.3 1.1c-.1.2-1.7-1-2.3-.4zm16.1-32.9c.2 0 1.1.5 1 .9 0 .1-.1.2-.3.2-.4 0-.8-1-.7-1zm-.5-2.7s-.2.3 0 .8c0 .5.2.6.1.8 0 .2-.8 0-1-.3-.2-.5.7-1.4.9-1.3zm-1.5 5l.1-1.3c.2 0 1.2 1 .9 1.7-.2.4-.8.6-1 .5v-1zm.7 8c0-.2.1-.4.4-.4.2 0 .3.4.3.5-.1.1-.7 0-.7-.2zm.3 5.3l-.4.2c-.3.1-.3.4-.4.4-.1 0-.3-.3-.2-.6.2-.3.7-.3.9-.1v.1zm-2-9.9l.4.5.5.3c0 .2-.2.2-.4.3-.3 0-.7.2-.9 0-.2-.1 0-.5-.2-.7-.3-.3-.8 0-.8-.1s1-.6 1.4-.3zm.7 13.2h-.3s.4-.3.5-.8v-.1s.1.7-.2 1zm-2.2-15.9c.2-.3.8-.4.9-.2l-.3.6c-.3.7-.2 1.1-.3 1.1-.2 0-.4-.4-.4-.8v-.7zm-1.8-4.9c.3-.2.4-.3.4-.5.1-.2 0-.3.2-.4.1-.2.4-.3.6-.2.2.1.2.5.1.8-.1.5-.7.6-1 .7-.2.1-.6.2-.7 0l.4-.4zm-.8 7v-.4h.2l.4-.2.6-.2h.5c.1.1-.3.7-.3.7-.1.2-.2.4-.5.5-.4 0-.9-.1-1-.4zm.6 4.7c.2.2.3.4.2.5h-.5c-.3 0-.3-.6-.2-.7l.5.2zm-1-8.6c.3-.3.5-.3 1-.5l.7-.6c.3.1.4 1 0 1.3l-.7.2h-1c-.2-.1 0-.4 0-.4zm-.1 10.7c.1-.2 1 .3 1 .5 0 .1-.5.2-.7 0-.3-.1-.4-.4-.3-.5zm.8 2c.2.2.3.4.2.6 0 .3-.5.3-.6.2l.1-.2c0-.3-.8-.3-.8-.4 0-.2.8-.4 1.1-.1zm-.3 14c-.4-.2-.7-.6-.6-.7l.7.2.4.4h-.5zm.3 1.6s0 .2-.2.3c-.2.2-.6 0-.6 0 0-.2.7-.4.8-.3zm-3.7-21.6c.1 0 .3 0 .3.2 0 .1-.5.2-.6.1 0 0 0-.3.3-.3zm-1 26c-.3.2-.3.3-.5.3s-.5-.9-.3-1c.2-.2.5 0 1.1 0l.5-.1-.9.7zm1.9-5.8c-.1.3-.4.3-.8.6-.1.2 0 .2-.2.3-.3.3-.7.4-.9.3v-.4l-.5-.4c-.3-.2-.4-.7-.4-.8h.5a.5.5 0 00.4-.3c0-.4-.4-.7-.4-.7-.5-.3-1-.2-1.3-.5v-.2h.6c.9 0 1.4-.3 1.5-.1.1.1-.2.3-.1.7 0 .3.2.5.4.8l.4.4.4.1.4-.2v.4zm1.3-20.2c0 .2-.3.5-.4.4-.2 0 0-.3-.2-.7-.3-.5-.8-.7-.8-.8 0 0 .8 0 1.2.5l.2.6zm1 26.1c-.3.3-.7.4-.8.2-.1-.1 0-.3.2-.5.2-.1.4 0 .7-.2l.3-.3s0 .6-.3.8zm0-2l-1-.2c0-.2 1.2 0 1.8-.7.4-.4.3-1 .5-1.1l.2.5c0 .7-.7 1.3-1.5 1.4zm1-23.7s-.6-.7-.5-1l.8-.1 1.2-.2h.7s-.5.2-.9.7c-.4.6-.3 1-.6 1.1-.2.1-.5-.2-.7-.5zm1.8 17.2h-.3l-.6.1s.7-.5.8-.3c.1 0 .1.2 0 .2zm-1 1.7c.2-.1.6.5 1.2.4l.7-.2h.5s-.5.4-1.2.5c-.4 0-1 .1-1.1-.2-.1-.2-.2-.4 0-.5zm1.5 8c-.3 0-1.3-1.5-1.1-1.7.1-.1.8.1 1 .7.3.4.3.9.1 1zm1.9-2.7c-.3 1.1-1.3 1.9-1.5 1.7-.3-.2 1-3 1.5-3v1.3zm1.2-5.5c-.7 0-1-1-1-1.1 0 0 .2.4.7.6.3.1.7 0 .8 0h.5s-.5.6-1 .5zm1.3-18.8s-.7.3-1.2 0c-.1-.2-.4-.3-.4-.6-.1-.5.4-.6.5-1.4 0 0 0-.5-.2-.8l-.3-.5c0-.1.3 0 .8 0h1c.3 0 .8 0 .8.2 0 .1-.8.1-1.2.8 0 0-.3.4-.2.8 0 0 .2.4.5.6h.6c.1.1-.2.7-.7 1zM97 119c0 .2-.6.2-.7 0 0-.1.1-.5.4-.5.2 0 .4.4.3.5zm148.3 96.3s.4-.6.6-.5c.2 0 .3.6 0 1-.2.4-.6.6-.7.5-.2 0 0-.6.1-1zm.6 3.6c.3.4.2 1 0 1.1l-.6-.4c-.5-.4-.8-.7-.7-.9 0-.2 1-.3 1.3.2zm-6.9 3.3c.1.2-.3.9-.8.8-.3 0-.5-.3-.5-.5 0-.3 1.2-.5 1.3-.3zm-3.7-5.1c.2 0 .3.8.1.9-.1 0-.5-.2-.4-.6 0-.2.2-.4.3-.3zm-2.8 13c.2 0 .2.2.2.3 0 .1-.1.4-.3.5-.3.1-.6 0-.7-.2 0-.3.6-.8.8-.7zm-5-13.7v-.6c.2 0 .6.5.6 1 0 .4-.2.9-.6.9-.2 0-.4-.2-.5-.4l.5-.9zm-3.4 9.8c.3-.7 1.3-1 1.5-.8 0 .1-.2.3-.3 1-.1.3 0 .5-.2.7-.2.2-.5.4-.8.2-.3-.1-.4-.7-.2-1.1zm-2-9.8c.3 0 .7.1.8.3 0 .1-.4.3-.7.3-.4 0-.7-.2-.7-.4l.5-.2zm-2 16.2v.4c.2.4.5.4.4.7 0 .2-.2.4-.4.4-.3 0-.6-.2-.6-.3 0-.1-.3-.4-.2-.6 0-.4.5-.7.7-.6zm-1.6-6c0-.5.5-1 .7-.9l.3 1.2v.3c0 .6-1.1.8-1.3.6 0-.1.3-.4.3-1.1zm-6.1-11.6c0-.2.4-.2.7 0 .3 0 .5.4.4.5 0 .2-.8.2-1-.1-.1-.1-.2-.2-.1-.4zm-1 3.2h.3c.2.2.2.6 0 .8-.2.2-.6.2-.7.1-.2-.2 0-.8.3-1zm-.2 11.5c.2.1.2.6 0 .7-.1.2-.8-.2-.8-.4s.4-.5.8-.3zm-5.7-13c.3-1.4 1.8-2.2 2-2l-.7 1.3-1.2 1.8c-.2 0-.2-.7 0-1.1zm.2 13.9v.4c-.3.2-.8 0-.8-.2s.6-.4.8-.2zm-6.4 1.3c.1-.5.7-1 1-.8.1.1.1.5 0 .8-.1.5-.7.9-1 .8-.1-.1 0-.5 0-.8zm-4.1-5.7c.2-.4.8-.4.9-.3l-.3.5c-.1.2-.4.5-.6.4v-.6zm-.7 3.7c.1-.2.4.1.8 0 .5 0 .6-.4.9-.4.2 0 .3.3.3.5 0 .4-1.6.8-2 .4v-.5zm-1.9 2.2c.1-.2.6-.3 1-.1.4.2.7.6.7 1 0 .3 0 .8-.2.8 0 0-.2 0-.8-.7-.7-.8-.7-1-.7-1zm-32.6 1.3l.5.2.6.2c0 .1-.4.4-.7.2-.3 0-.5-.5-.4-.6zm-3.8 2.4l.2.3c-.1.1-.8-.4-.8-.5l.6.2zm-4.2-3.1c.1-.2.6.3 1.5.4.7 0 1-.3 1-.2.2.2-.5 1.2-1.3 1.1-.9 0-1.4-1.1-1.2-1.3zm-5-4.3l-.3.8-.3.7s-.2-.2-.1-.5c0-.6.6-1 .7-1zm-3.8 2c-.2-.1-.1-.3 0-.4l.3.3h-.3zm.5 1.5c.1-.2 1.7.3 1.6.7 0 .2-.4.3-.6.3-.7 0-1.1-.8-1-1zm-.6-6c0-.1.4 0 .5.4 0 .3 0 .6-.2.6s-.5-1-.3-1zm-3.2 6.1c-.2 0-.1-.9-.1-.9l.1.5.3.3s-.2.2-.3.1zm.6 3.4c.1-.2 1 .3 1 .5l-.5.2c-.4 0-.6-.6-.5-.7zm-1.2-6.4l1-.3-.7 1.2-.2.6c-.2 0-.2-.3-.5-.7-.3-.4-.5-.4-.5-.6l.9-.2zm-1 5l.6.4h-.5l-.1-.3zm-2.8-1.9c.2 0 1 .8.8 1l-.5-.1c-.4-.3-.4-.8-.3-.9zm-2-3.7s.5.2.4.3h-.3c-.2 0-.2-.2-.2-.3zm-.6-11.6c.1 0 .4 0 .4.2 0 .3-.5.7-.6.6-.2-.1-.1-.7.2-.8zm.1 6.9c.3 0 .4 1 .2 1.1-.2 0-.7-.2-.7-.6 0-.3.4-.6.5-.5zm-2 5.6s.2.5.8.9c.6.4 1.2.3 1.2.5l-.6.6c-.3.3-.3.6-.5.6l-.2-.5c-.3-1.3-.8-2-.7-2zm.1 4.2c.6.1 1 .6 1 .6.2.4.3 1 .1 1.1l-.8-.5c-.7-.5-1.1-.8-1-1 0-.2.5-.2.7-.2zM130 222c.2 0 .2.5 0 .6-.3.1-.6 0-.6-.2s.4-.5.6-.4zm-.6 10.2c0 .2-.2.3-.4.3-.6 0-1.2-.8-1-1 .1-.2 1.5.3 1.4.7zM129 218c.1 0 .2.3 0 .5h-.5c0-.2.4-.6.5-.5zm-1.3 9c.2-.4.4-.4.4-.8.1-.4-.1-.7 0-.8 0-.1.5 0 .6.4.4.5.1 1.4-.4 1.7-.1 0-.4.2-.5 0-.1 0 0-.3 0-.4zm.6 6.4s.6.2.5.6c0 .2-.3.5-.5.4-.2 0-.1-.2-.3-.4-.3-.4-.7-.4-.7-.5 0-.1.5-.3 1 0zm-5.7 2.2c-.1 0-.5-.4-.4-.7 0-.3.3-.4.3-.4v1.1zm3.5-21.1l-.1.4c-.1 0-.2 0-.2-.2s.2-.3.3-.2zm-.8 19.8l-.7.1-.6-.1s-.2-.2-.1-.3c0-.2.3-.2.5-.2l.4.3.5.2zm-.5-4.7c0 .1-.2.3-.3.2-.2 0-.2-.9 0-1 0 0 .5.5.3.8zm0-3.3l-.5.5c-.3.3-.2.7-.3.7-.2 0-.4-.3-.3-.7a.7.7 0 01.2-.4c.3-.3.8-.2.8 0zm-1-9.8l.4.2c0 .1-.3 0-.6.3-.3.2-.3.4-.5.4s-.5-.1-.5-.3c0-.4.7-.8 1.2-.6zm-.8 13.3c.2 0 .4.3.4.4-.1.2-1.2.3-1.3 0 0-.1.4-.5.9-.4zm-2.4-9.8a.3.3 0 01.2.3.3.3 0 01-.2.2c-.2.1-.5 0-.5-.2 0-.1.3-.3.5-.3zm-3.5 11.2l.2.4s-.5 0-.7-.4c-.2-.3 0-.8 0-.8l.5.8zm-.6-1.5c0 .2-.3.4-.4.3-.2 0 0-.6.2-.9v-.1c.2 0 .4.4.2.7zm0-6.3l-.7 1c-.3.2-.9.3-1 .2 0-.2 1.5-1.3 1.6-1.2zm-4.8-9.3c.1-.2.5-.3.6-.2l-.5.8c-.2 0-.2-.3-.1-.6zm-.5 7.5c.2.4.4.9.3 1-.3.2-1.8-1.2-1.7-1.5.1-.1 1 0 1.4.5zm-1-3.6s-.2 0-.3-.2c-.2-.3 0-.8.2-.8s.3.8.1 1zm-.7-5.4c.2 0 .7.3.6.7a.5.5 0 01-.3.4l-.7-.4c-.3-.3-.5-.5-.4-.7 0-.1.5-.1.8 0zm-1.6 3.8c.3.2.3.6.2.6-.2.2-.8-.2-.8-.4 0-.1.4-.3.6-.2zm-1.7 2.4c0-.1.3-1 .8-1a.5.5 0 01.4.2c.1.2-.1.4-.3 1l-.2.7-.4 1.2c-.2 0-.5-1-.3-2zm-7.7-6.4c-.3 0-.4-.4-.5-.7v-.7c.1-.1.4-.3.5-.2l.2.6.3.6c0 .2-.3.4-.5.4zm3.2 5c0 .1-.3.2-.4.1-.1 0 0-.6.2-.7.1 0 .3.3.2.5zm-.3-4.5c.4.3.4.7.4.8 0 .4-.3.8-.5.8s-.3-.2-.5-.5c-.3-.5-.5-.9-.3-1 .2-.3.6-.3 1 0zm5.2-4.4c-.1.3-.4.4-.5.3-.2-.1.2-.9.4-.9.1 0 .2.4 0 .6zm26.2-101.8c.2.1.7.3.7.6 0 .2-.6.4-1 .5-.7.2-1.7.3-1.8 0l.4-.6.5-.6c.4-.2.8 0 1.2.1zm-7.4-10.5c.1 0 .4.4.2.6 0 .1-.3.2-.4 0-.2 0 0-.6.2-.6zm-1 4.9c.3-.4 0-.8.3-1 .2 0 .6 0 .7.3.2.2.2.5.2.5 0 .7-.8 1-.8 1-.5.4-1.2.3-1.3.1 0-.2.7-.3 1-.9zm-.4 4.2c0 .4-.3.6-.4.6-.2-.1.1-1.2.3-1.2 0 0 .2.3.1.6zm-7.3-4l.5.5c.2.3 0 .5.3.9.2.4.4.4.4.6 0 .2-.3.4-.5.4-.6 0-1-2.3-.7-2.4zm-.5-3c.2 0 .4 1 .1 1.2-.1 0-.4-.1-.5-.3-.2-.4.2-1 .4-.9zm-2.8 1.8c.2-.4 0-.8.1-.8.2-.1.4.3 1.3 1.2.5.6.7.8.7 1.2 0 .2 0 .6-.2.7-.3.1-.5-.4-1.3-1-.7-.4-1.1-.6-1-.8 0-.2.2-.2.4-.5zm-1.5 3.1c.1-.2.4-.2.9-.6.3-.3.4-.5.5-.4.2 0 0 .5.2 1.3 0 1 .5 1.3.2 1.6h-.7c-.2-.1-.2-.3-.7-1l-.4-.9zm.4 7.1c0 .2-.2.6-.7.9-.5.2-1.2.2-1.3 0 0-.3.2-.7.6-.8h1.4zm-1.8-10.8c.2-.3.6-.7.8-.6.2 0 .1.4 0 .9 0 1.3.2 2 0 2l-.6-.9-.5-.7c0-.3.2-.6.3-.7zm-2.6 1.5c.5.2.7.4 1.5 1.4 1 1.1 1.3 1.4 1.2 1.6-.2.3-.8 0-1.1.3-.3.3-.1.7-.4.8-.2.1-.5 0-.7-.3-.3-.3-.2-.7-.2-1v-.8c.1-1-1.6-1.6-1.5-2 0-.2.7-.2 1.2 0zm-1 6.2s.5.3.4.6c0 .2-.3.4-.5.3-.2-.1-.2-.8 0-.9zm-2-2.3c0-.3.3-.8.6-.9.4 0 .8.6.7 1 0 .2-.3.2-.6.6l-.7.9c-.2 0-.3-.9 0-1.6zm-5-2.3h.9l.9-.7c.3-.2.8-.3.9-.2l-1 1.2-.7 1c-.7.2-1.7-.6-1.6-1l.6-.3zm1.6 2.9l-.3.4-.4.6s-.2-.4 0-.7c0-.2 0-.4.2-.5.2 0 .5 0 .5.2zm-4-3.4l.7-.1.6-.1.5-.2c0 .1-1 1.3-1.5 1-.2 0-.4-.4-.3-.6zm.3 4.5c-.2-.2.3-.9.5-.8.2 0 .3.4 0 .7-.1.2-.4.2-.5.1zm.8 9.9v-.1c.2-.2.5-.1.7 0l.2.2c.1.3-.3.6-.3.6v-.3c-.1-.3-.6-.2-.6-.4zm1 11.7c-.2.1-.5-.2-.5-.3 0-.2.6-.2.7 0 0 0 0 .3-.2.3zm1.2-6.2c0-.1.5-.2.7 0 .4.1.6.6.5.7h-.3c-.5 0-1-.5-.9-.7zm.9 3.1c-.1-.3 1-.9 1-.8 0 0-.2.1-.2.4v.6c0 .2-.8 0-.8-.2zm.8 4l-.2-1.6v-.7s.5.5.6 1.1c0 .7-.2 1.3-.4 1.2zm1.5-4.5c-.3 0-.8-.8-.7-.9 0 0 .3.2.6.1.2 0 .2-.2.3-.2 0 0 0 .9-.2 1zm.5-2.5c-.1.2-.3.7-.5.6-.2 0-.3-.5-.2-.8.2-.4.7-.7.8-.5.2 0 0 .5 0 .7zm1.9-7.2c-.3 0 0-1-.7-1.4-.4-.2-.8.1-1.1-.2-.3-.3-.2-.7-.5-.8h-.3c-.2 0-.2-.3-.4-.5-.3-.6-1.8-.5-2 0v.4c0 .4-.4.5-.4.8 0 .1 0 .3.2.3.2.1.4-.2.5-.2 0 .1 0 .6-.4 1-.1 0-.8.7-1.5.4-.7-.2-.9-1-.8-1.6l.4-.8c.3-.7.5-1 .4-1.1l-.6-.5-.5-.4c-.3-.2-.6-.5-.5-.6 0 0 .5.2 1 0 .4-.1.4-.3.8-.5.6-.4 1-.2 1.1-.5.2-.3 0-.6.2-.7l.6.3.5.3.9.7c0 .2-.6.2-1.4.6-.6.2-.8.3-.9.5 0 .3.7.7 1.4.8h1c.5 0 .6.3 1 .3.1 0 1 0 1.1-.3.1-.3 0-.7-.1-.7-.5-.7-1.4-.6-1.4-.8 0-.2.5-.4 1-.4 1.3 0 2.7 1.6 2.4 2.3-.1.2-.4.4-.7.5l-.5-.2c-.2.1-.4 1 0 1.4.3.3.6.3.7.5.2.5-.3 1.2-.5 1.1zm1.6 4c-.3.9.6 1.7.4 1.9-.1.1-.7-.3-1-.5-.3-.3-.5-.4-.6-.7 0-.5.5-1 .6-1 .4-.4 1-.5 1.1-.4.1.2-.3.3-.5.8zm.8-10.5h-.7l.8-.5c.5-.4.6-.8 1.1-1h.4v.6c0 .8 1.3 1.4 1.3 1.6l-1-.2c-.6-.3-.6-.7-1-.7-.3 0-.3.2-1 .2zm1.9 6.4c-.2 0-.6-.2-.6-.4 0-.1.2-.3.3-.2.1 0 0 .2.2.2.2.1.4 0 .4 0s0 .3-.3.4zm.5 2.1c-.3-.5-.3-1.3-.1-1.3l.7 1c.4.7.7 1.1.6 1.2-.1.1-.9-.2-1.2-.9zm2.1-3.6c-.6.4-.7.8-.9.8-.2 0 0-.4-.3-.7-.3-.3-.6-.2-.7-.4 0-.3.9-.9 1.8-.7.3 0 .7.2.7.5l-.6.5zm1-1.6c-.2 0-.3-.2-.3-.3-.2-.2-.1-.4-.2-.5-.2-.3-.6-.3-.6-.4 0-.2.2-.5.4-.5.4 0 .8.4.9.8 0 .4-.1.9-.3.9zm.8 3.6c-.1.2-.7.1-.7 0l.2-.2.2-.2c.2 0 .4.3.3.4zm-.5-8.9s-.2-.5-.1-.6c.2-.1.7.8 1.4.7.3 0 .6-.3.7-.5l-.2-.7s.4.2.6.5c.1.2.3.3.2.5 0 .3-.5.1-.8.5-.3.3 0 .6-.3.7-.3.2-1.2-.3-1.5-1.1zm1.7 8.3c-.2 0-.4-.4-.4-.7.1-.8 2-1.4 2.2-1 .2.2-1.1 2-1.8 1.7zm1.7-5.2c-.2.3-.5.1-.7.4-.3.3-.1.5-.3.7-.3.2-1-.1-1-.4-.1-.2 0-.3.4-.6 1-.7 1.4-1 1.6-1 .2.2.2.6 0 .9zm1.4 2.6c-.6-.5-1-.5-1-.8 0-.1 0-.3 1-.7.5-.3 1.8-1 2-.9l-.3.5c-.3.4-.2.9 0 1.6.1 1.2.2 1.8 0 2l-.9-.8-.8-.9zm1.4 3.7c-.7-.3-.9-1.3-.7-1.5.3-.2 1.7 1 1.6 1.4-.1.2-.6.2-1 0zm1.1-13.5l-.4.5c-.3-.1.1-1.6.3-1.6.1 0 .3.6.1 1.1zm.3-2.5c0 .2-.1.5-.3.6-.3 0-.5-.3-.6-.5v-.7c-.2-.5-.6-.6-.5-.8 0-.1.8-.1 1.2.3.4.5.2 1 .2 1.1zm.2 9.4c-.1 0 0-.4.3-1s.5-.9.7-1a.4.4 0 01.3 0c.3.2.3.7.3.8l-.1.8c-.4.6-1.3.7-1.5.4zm1.8 3.7l-.1.5c-.1.1-.4 0-.6-.1-.2-.3 0-.8.4-1h.4l-.1.6zm.3-1.7c-.1 0 .1-1.4.6-1.4.3 0 .6.5.5.7l-.6.1c-.4.2-.5.7-.5.6zm2.3 3.6c-.4.5-1.1.8-1.5.5-.3-.2-.3-.7-.3-.8 0-.3.2-.5.7-1.1.5-.8.8-1.1 1-1 .2 0 .3.6.3 1.1 0 .7 0 1-.2 1.3zm2.5-3.3c-.6.3-1.7-.5-1.6-1 0-.3.3-.3.4-.8.1-.2.2-.4 0-1 0-1-.1-1.5-.3-1.9-.4-.7-.8-.6-1.2-1.3-.4-.8-.3-1.7-.1-1.7.1 0 .2.5.8 1.1l.5.6c.3.2.8.8 1.2 1.6l.5 1.7.3 1.3c0 .3 0 1.2-.5 1.4zm.4-6.4s-.4-.2-.3-.6c0-.1.3-.3.4-.2.2 0 .1.8 0 .8zm0-5.7l-.2.1c-.3.2-.3.5-.5.8 0 0-.1.4-.5.7-.4.4-1 .7-1 .6l.1-.7c.1-.4.2-.6.1-.7-.1-.3-.7-.2-.7-.3 0-.2.8-.5 1.2-.7l1.1-.4c.9-.3 1-.5 1.5-.7h1.3l-.6.4c-.5.4-.4.5-.7.6-.4.2-.6 0-1 .3zm.8 9.4c0-.2.8 0 1 0 .1.1.5.2.5.4s-.3.4-.7.4c-.5 0-.9-.6-.8-.8zm3.2 3.5c-.4 1.3-2 1.8-2.2 1.6-.1-.2 1.1-1.4.9-1.7-.2-.2-.5 0-.9-.3-.2-.1-.4-.4-.3-.6 0-.4.7-.5.8-.6h1c.4-.2.4-.4.6-.4.3 0 .5 1.1.1 2zm.4-10.6c.3-.2 1 .1 1.3.6.3.7 0 1.6-.5 1.7-.3 0-.7-.8-.9-1.4 0-.2-.1-.7.1-.9zm1.1 4.6c0 .3-.3.6-.6.6s-.5-.5-.5-.5c-.2-.5 0-1.1.4-1.2.3 0 .8.6.7 1.1zm.7 3.9h-.3c-.3 0 0-1 .1-1 .2 0 .4.7.2 1zm15.7-37.3c.2-.1.9.5.7.9l-.2.1c-.3 0-.6-1-.5-1zm-.1 23.5l.5.7c.3.5.7.7.7.8h-1a1 1 0 01-.4-.7c-.1-.4 0-.8.2-.8zM149.2 73c.5-.3 1.1 0 1.2.2l-.4.4c-.3.1-.4 0-.8 0l-.5.4s0-.8.5-1zm-2.2.5c.1 0 .4.3.3.6l-.3.2c-.2 0-.1-.8 0-.8zM144.2 96l.6.3c.2.2.4.3.5.6l-.1.3c-.2.2-.5.2-.7 0-.5-.2-.5-1-.3-1.2zm-3.3.8c.1-.1.3 0 .4 0 .5.4.4 1.3.3 1.4l-.3-.4c0-.2-.5-.9-.4-1zm-.7 14c-1.3.4-1.5 1-2.5 1-.4 0-1-.2-1-.4 0-.3.5-.4 1.5-1 1.2-.9 1.2-1.3 1.8-1.4 1 0 2 1 2 1.4-.2.3-.8 0-1.8.4zm-2.2-3.2c.1-.1 1 .4.8 1l-.6.5-.4.2c-.1 0-.2-.2-.1-.3 0-.3.3-.3.4-.5.2-.4-.2-.9-.1-1zm0-2c-.7.4-.7.6-.9.6-.2 0-.3-.5-.2-.8l.4-.2c.4-.2.9 0 .9.1l-.3.3zm1.7-2.7l.8.2h.5c0 .1-.4.6-.8.5-.4 0-.6-.6-.5-.7zm1-.9l-1-.4c-.2 0-1.2-.2-1.4.1v.3c-.1.4-.3.8-.6.9-.2 0-.2-.3-.8-1-.5-.6-.6-.6-.6-.8 0-.6 1-1.2 1.2-1v.7c.2.1.6 0 .8-.4.2-.3.1-.6 0-1.2l-.7-2 1 1.6c.1.4.4.7.6 1v.3l.4-.2c.3-.4-.1-.9 0-1 .2-.1.7.4.8.5.6.6.5 1 .9 1.3.8.6 2 0 2.2.3.2.4-.6 1.3-1.5 1.4l-1.3-.4zm2.9 5.1c-.3.2-.8 0-.9-.3l.3-1c.3-.6.3-.8.5-.8s.4.7.4 1.3c0 .3 0 .7-.3.8zm.4-4.1s-.3-.1-.3-.3c0-.1.4-.3.7-.3.2 0 .5.3.5.4 0 .2-.5.3-.9.2zm2.5 7.2c-.5.2-1.2 0-1.2-.4 0-.2.4-.2.8-.8.2-.5.3-1 .5-1h.2c.4.4.4 1.9-.3 2.2zm.6-6.7c0 .5-.4.8-.7.8l-.2-.4c0-.3.1-.4 0-.8v-.5c0-.2.3-.2.5-.2.3.1.5.7.4 1.1zm.3-2.6s-.4 0-1-.4c-1.5-.7-1.6-.8-1.5-.9 0-.2.4-.3.8-.3 1 0 1.8 1.5 1.7 1.6zm.6 4c0-.2.5-.5 1-.4.2 0 .4.2.4.3 0 .2-1.3.2-1.4 0zm2.7 3.1c0 .1-.4 0-.6-.2v-.6c.1 0 .8.7.6.8zm1-1c0-.2.4-.5.8-.4.2 0 .3.3.3.4-.1.2-1 .2-1 0zm-.2-2.6l.6.2h.5c0 .2-.1.4-.3.5-.4.1-1-.6-.8-.7zm1.2-4c-.7.4-1.4 0-1.7.5v.5c0 .2.4.2.8.2h.6c0 .2-.4.7-.9 1l-.7.4c-.5.4-.5.8-.7.8-.2 0-.4-.4-.4-.7v-.4c0-.2-.2-.3-.4-.6-.2-.4-.3-.8-.2-.9.2 0 .5.4.7.3.2 0 .3-1-.2-1.8-.4-.5-.9-.5-1.4-1.2-.1-.3-.3-.6-.2-.8.2-.3.8-.2.8-.5 0-.2-.4-.4-.4-.5 0-.2 1 0 1.7.3.5.2.6.4.7.5l.2 1v1.5l.6-.1.9-.1c.4 0 .5-.2.6-.1 0 0-.1.4-.4.6zm3.8 4.7c-.2.2-.7 0-1 0-1-.5-2-1.6-1.8-2 .2-.4 1-.3 1.1-.2.9 0 1.5.7 1.7 1.3 0 .2.3.7 0 1zm4 .1s-.5-.1-.6-.5c-.2-.4.2-1 .3-1 .3 0 .6 1.3.4 1.5zm2.7-.4c-.2.4-.1.7-.2 1-.2.6-1.3 1-1.6.7-.2-.2 0-1 .5-1.4.5-.6 1.3-.9 1.4-.8l-.1.5zm-.3-3l-1.1.1c-1.2.1-1.6.2-2.2 0-.1 0-.5-.2-.5-.4 0-.1.4-.1.6-.4.3-.4.2-1 .2-1-.2-.8-1.2-1-1.1-1.2s1 0 1.6.6c.5.6.2 1.2.7 1.6.3.2.8.3 1 0 .4-.3-.2-1.3 0-1.5.3-.1 1.1.3 1.3 1 0 .4-.1 1-.5 1.2zm2.7 2.7c-.3.3-.9.2-.9 0s.7-.7 1-.5l-.1.5zm0-3.8s.3-.3.6-.3c.4-.2.8 0 .8.2 0 .1-1.3.3-1.3.1zm3.2 9c-.4-.3-.5-.6-.7-1.1-.2-.5-.4-.8-.3-1.2 0-.4.1-.8.3-.8l.2.5.4.7c.3.7.1.8.4 1.4.2.4.5.6.4.7 0 0-.4 0-.7-.2zm.8-3.8c-.2 0-.9-.6-.8-.8.1 0 .8.1.8.5v.3zm.9-4.4c-.7 0-1.3-.7-1.2-.9.1-.3 1.9.1 1.9.5 0 .2-.4.4-.7.4zm1.3 10.7l-.4-.1c-.3-.3 0-.9.2-.9s.4.8.2 1zm9.6-6.2s-.2.3-.4.3c-.5.2-1-.1-1-.3.1-.2 1.3-.2 1.4 0zm-5-5.6c0-.3.9-.5 1.4-.2.3.2.7.6.5 1a.8.8 0 01-.6.6c-.7.1-1.5-.9-1.4-1.4zm-2.1 3l.4.3c.2.3 0 .6 0 .7-.3.2-.6.3-.8.2-.2-.2 0-1 .4-1.1zm-1.1 5.6c-.1 0-.4.2-.5.1l-.1-.4-.1-.7c.1-.2.5-.3.7-.1.3.2.3.8 0 1zm.2-3.5c0-.1.3-.5.5-.4v.5h-.5zm1.4 10.4c-.2.1-.9-.3-.9-.8 0-.4.3-.9.5-.8.2 0 .2.3.3.8.1.5.2.7 0 .8zm-.2-4c-.7.5-.7 1.5-.8 1.4-.3 0-.2-3.7.2-3.7l.4.7c.1.5.1.6.3.8.2.1.6.2.7 0 .2 0 0-.3-.1-1-.3-.9-.4-1.4-.3-1.4.1-.1.4.4 1.2.8.8.4 1.4.4 1.4.5l-.5.3c-.6.4-.3 1-.8 1.4-.5.4-1-.1-1.7.3zm3 2.7a.4.4 0 01-.3.2l-.6-.3c0-.3.6-.5.8-.4v.5zm0-1.5c0 .1-.5 0-.7-.2l-.2-.6v-.3c.2-.1 1.1.8 1 1zm.4-4.7c-.4-.2-1.5-.7-1.4-1.4 0-.4.4-.8.8-.8s.5.4 1.3 1c.7.6 1.3.8 1.2 1l-.4.2a2.6 2.6 0 01-1.5 0zm1.3 2.7c-.2-.2-.3-.6-.1-.8 0-.2.1-.2.6-.3l1-.5c.5-.3.6-.3.6-.2.2 0 .1.4 0 .7-.1.2-.3.1-.5.3-.3.3-.2.5-.4.7-.3.3-.8.4-1.2 0zm2.2 1.6c0 .1-.2.3-.3.2-.3 0-.4-1-.1-1.2.1-.1.4 0 .5.2.2.3 0 .6 0 .8zm.6-13c-.2-.2-.4-.4-.4-.6v-.3c.3-.3 1.6.4 1.5.9 0 .2-.3.4-.5.4s-.4-.2-.6-.4zm1.2 2.3c.4-.7 1.2-.9 1.4-1 .3 0 1-.2 1 0 .3.4-.3 1.2-.5 1.4-.2.2-.7 1-1.6 1l-.6-.1c-.2-.3 0-1 .3-1.3zm1.4 3c-.1.2-.8-.3-.8-.5h.7c.2.2.2.5.1.6zm-.5 8.4c-.1.2-.4.6-.6.6-.2 0 0-.9-.2-2-.2-.7-.5-1-.3-1.2h.6c.3.2.4.5.5 1 .1.4.3 1 0 1.6zm1-6.2c-.7.4-.8 1-1 1-.4 0-.7-.8-.4-1.4.2-.3.6-.6 1-.6.6 0 1.1.5 1 .8l-.6.2zm4 2.4c.3-.5.2-1 .3-1 0 0 .3.5.2 1-.1.6-.6 1.1-.8 1v-.2c-.1-.3.2-.4.4-.8zm-1.5-9c.3-.2.8-.5 1-.3.2.2-.4 1.6-1.4 1.7-.2 0-.6 0-.7-.2-.1-.3.6-1 1.1-1.2zm.1 5.1l-.2.2c-.2-.1-.2-.8 0-.8 0 0 .4.4.2.6zm-1.7 6.5c0-.1.7-.1 1 .3.2.3.2.8 0 .9l-.3-.3-.2-.4c-.2-.4-.5-.5-.5-.5zm3.7.6c-.1.8-1.5.7-2.2 2l-.3.6a5 5 0 01-.7 1.2c-.1 0 .3-1.7 1.3-3.2.3-.5 1-1.6 1.5-1.5.3 0 .5.5.4.9zm0-9.9c-.3 0-.5-.4-.4-.5l.4.1c.1 0 .2.1.2.3l-.2.1zm.3-2c-.1-.2.5-1 .7-.8v.6c-.2.3-.6.3-.7.2zm1.3 5.6h-.4v-.4l-.2-.4.2-.2c.2 0 .6.8.4 1zm7.4 2.8c.1-.2.5.2 1.2.1h.6s-1 1-1.5.7c-.3-.2-.5-.7-.3-.8zm-1.4-7l.1-.3c.1 0 .3.5 0 .8-.1.2-.5.3-.7.1v-.3c0-.2.4 0 .6-.2zm-2 1.4c.4-.1.6 2 2 2.7.6.2 1.2.3 1.2.5l-.4.3-1 .4c-.2 0-.3-.3-.7-.8-.7-.9-1.1-.8-1.4-1.4-.3-.7 0-1.7.3-1.7zm-.8 4.9l.6.7.6.6c0 .2-.5.2-.9 0-.5-.3-.5-1.2-.3-1.3zm-.7-2c.2.2.2.5.1.5l-.4-.5h.3zm-1.5 2.6l-.2.5-.3.4c-.1 0-.3-.2-.3-.4 0-.4.8-.6.8-.5zm7 8c-.4.4-1.8-.6-1.7-.9l.5-.2c.4-.3.3-.7.6-.8.3 0 .7.4.8 1 0 0 .2.6-.1.9zm1.2-4.5c-.3.7-1 .4-2 1.4-.3.3-.5.6-.7.6-.2-.1 0-.6-.3-1-.4-.7-1.3-.8-1.5-.8l-1.3.1-1.5.4c-1 .5-1.5 1.3-1.7 1.1-.1 0 0-.7.3-1.1.3-.6.8-.6 1.2-1.2.3-.5.2-.9.4-1 .3 0 .5.8 1.1 1 .5.2.8-.2 1.8 0l.9.1c.4 0 .4-.1 1.3-.4.6-.2.7-.1 1-.3l.4-.6c.3 0 1 1 .6 1.7zm.9-10.3c0 .1-.4.7-.8.6a.4.4 0 01-.2 0c-.2-.2 0-.5-.1-.8-.1-.4-.4-.6-.3-.7h.8l.8.1c.1.2-.1.6-.2.8zm2.7-1.8l-.2.3c-.3 0-.7-.3-.6-.4l.8.1zm-1.9 4.4c-.2 0-.4-.4-.3-.5h.5s.4 0 .4.2-.3.4-.6.3zm2.3 7.7c-.1.2-.4-.2-1-.2-.5 0-.7.2-.9 0-.2-.2 0-.6 0-.7 0-.2.1-.4.3-.5 0 0 .3-.2.5 0 .2 0 0 .3.3.5.3.3.6.2.8.4v.5zm1.6-6.8c0 .2-.2.5-.3.5-.1 0-.4-.5-.3-.9.2-.2.5-.4.6-.3.2 0 0 .6 0 .7zm9.1-5.5h.6c.3 0 .4.2.6.7.2.3.5.8.3 1h-.4c-.8-.2-1.3-1.3-1-1.7zm-.2 5.7c.4 0 1 .6 1 .9-.1.2-.6.2-.8 0-.1 0-.4 0-.5-.3 0-.3.2-.5.3-.6zm-.8 1.6v-.4s.5 1 .2 1.6c0 0-.2.3-.5.4-.5 0-1-.4-1-.7.1-.4 1-.3 1.3-.9zm-6.6 5.6c-.4.3-.9.5-1 .4l.6-.6.6-1 .7-.3c.2.1-.2 1-.9 1.5zm1-4.7l-.2-.5c-.2-.6-.2-.7-.1-.7 0 0 .5.2.5.6 0 .3-.2.6-.3.6zm.4 7c-.2 0-.4-.5-.3-.6h.7c.2 0 .3-.3.4-.3 0 0-.4 1-.8.9zm1.3-2.9c0 .1-.4 0-.5-.3-.3-.5.2-1.2.3-1.2 0 0-.1.3 0 .8 0 .4.3.7.2.7zm-.1-2.8l-.2-.4c-.1-.2-.4-.1-.4-.2 0 0 .5-.3.7-.1.2.2 0 .7-.1.7zm-.2-5.4l-.7-.4c-.6-.2-.8 0-1-.2-.4-.4 0-1.3 0-1.4.5-.9 1.4-1.4 1.5-1.3 0 0-.4.5-.3.8.1.5 1.2.4 1.3.8 0 .3-.6.5-.6 1 0 .2 0 .4.2.5.3.2.7 0 .8 0l-.2.3c-.1.4.4.7.3.9h-.6c-.4-.2-.3-.6-.7-1zm1 10.2v-.4c.2-.1.8.3.8.5 0 .1-.6.2-.7-.1zm.7-8.6c0-.2 0-.5.2-.6.4-.2 1 .2 1 .6 0 .2-.2.3-.4.4-.3.1-.7-.1-.8-.4zm.7 7.2c-.1 0 .2-.7.6-1.1.2-.2 1.1-1.1 2.1-.9.6.2 1 .6 1 .7.4.6.2 1.3.2 1.4 0 .3-.2.7-.5.8l-1-.5c-.7-.6-.7-.8-1-.9-.7 0-1.3.6-1.4.5zm44.3 25.2l-.7-.4c-.7-.5-1.1-.6-1-.7l1-.2c.3-.3.2-.7.4-.7.3 0 .7.5.7 1 0 .4-.1.9-.4 1zm2.3 2.2l-.1.4c-.3 0-.6-.4-.8-.8-.1-.2-.3-.5-.1-.7.1-.2.7-.2 1 0 .2.2.1.8 0 1.1zm.9-3.6c-.4 0-.7-.4-.7-.8s.5-.7.6-.6v.7c.2.4.7.5.6.6 0 .1-.3.2-.5.1zm1.1 4.2c-.1.1-.6 0-.8-.3-.3-.4-.1-1 0-1.1.4 0 1 1.1.8 1.4zm.3-2.3c0 .2-.4.3-.6.2v-.7-.5c.3 0 .9.6.6 1zm3.4.7c-.1 0-.3 0-.5-.2-.5-.4-1.2-1.3-1-1.6l1-.1h.3c.1 0 .2 0 .2 1.2v.7zm3.8 2.9l-.5-.2c-.2-.2-.4-.5-.2-.7 0-.2.3-.4.5-.3l.2.5c.1.5.4.7.3.8l-.3-.1zm.6-2.7c-.2.2-.6.1-.7-.1a.4.4 0 010-.4.4.4 0 01.7 0v.5zm-45.7 98.2h-2l-.4-.5c-.3-.3-1-.4-1.1-.2-.2.2.2.6.2 1.4 0 0 0 .5-.3.5-.2.1-.3-.3-.8-.7a3 3 0 00-1.3-.6h-1l.1.3v.3c-.3.3-.8.2-1.2 0l-.6-.5c-.5-.2-1.1-.4-1.3-.1v.6c-.1.2-.4.4-.7.3-.5 0-.8-1-1-1l-.3.5c-.1.1-.4.4-.7.4-.3 0-.2-.4-.6-.7-.4-.2-.8-.2-1.2-.2-.2 0-.5 0-.5.2s.4.3.4.7c0 .3-.3.5-.4.6-.3.2-.8 0-1 0-.5-.2-.5-.6-1.2-1-.2 0-1-.6-1.4-.3-.2.2 0 .4-.4 1 0 0-.3.4-.4.3-.2 0-.2-.2-.3-.3-.3-.4-1-.1-1.7-.1s-.7-.2-2-.4c-.9-.2-2-.4-3.2 0-.7.2-.5.4-1.3.7a7 7 0 01-3.1 0c-.7 0-1.3-.2-1.3-.2-4-1-24 1.5-26 .6-.2 0-1-.4-1.2-.1-.2 0-.1.2-.3.4-.3.2-.9.2-1.1 0-.3-.2-.2-.4-.4-.5 0 0-.2-.1-1 .3-.6.2-.6.3-1 .6l-1.2.4c-.4 0-.6-.1-1.3-.4-1.1-.6-2-.8-2-.7l.1.4a.6.6 0 010 .4c-.4.5-.6.8-.9.9-.4.2-1-.1-1.8-.7-.8-.4-1-.7-1.4-.6l-.5.5a1.4 1.4 0 01-.9.3c-.5 0-.6-.4-1.1-.7-1-.4-2.1 0-2.4.2-.7.3-.7.6-1.5.8-.4.2-1 .4-1.4 0-.3-.2 0-.7-.5-1-.3-.2-.6-.1-1.3 0-.3 0-.5.1-.8.3-.4.2-.4.4-.7.6-.6.2-1.4-.3-1.6-.4-.3-.2-.2-.3-.5-.4-.8-.5-1.7-.4-1.7-.3l.2.2-.1.3c-.3.2-.8 0-1-.1l-.8-.3s.2.2.1.4c0 .3-.4.6-.8.5-.3 0-.4-.4-.8-.7-.4-.3-.8-.3-1.4-.4-.2 0-2 0-2.2.5-.3 1.2 13 6 15.4 6.7.8.2 2.2.4 3 1 .2.1.4.4.9.4h1l.6.2 1 .5c.4 0 .6-.1 1-.4.4-.2.5-.3.6-.2.2 0 .5.1.8.7.1.2.3.3.6.4 1.3.8 2.8.5 3.4.4.7 0 .9-.2 1-.4 0-.2-.2-.5 0-.5 0-.1.3 0 .5.2.3.3.2.8.2 1a101.2 101.2 0 0043.4-3.2 54.1 54.1 0 0020.1-9 1.2 1.2 0 00-.3-.1zm-80 5.5c-.3 0-.5-.2-.5-.4a.3.3 0 01.2-.2c.2-.1.5 0 .6.2 0 .2-.2.4-.4.4zm3.2 1.4l-.2-.2-.4-.4c0-.1.5 0 .7.2l-.1.4zm15.8 4l-.4-.4c-.2-.4-.2-.8 0-.8l.4.6c0 .1.2.5 0 .5zm40.4-8.4v.5c-.2 0-.5-.4-.3-.8 0-.2.3-.4.4-.3v.6z" fill="#fff"/><defs><filter id="d" filterUnits="userSpaceOnUse" x="57.5" y="40" width="235" height="252.5"><feColorMatrix values="1 0 0 0 0 0 1 0 0 0 0 0 1 0 0 0 0 0 1 0"/></filter></defs><mask maskUnits="userSpaceOnUse" x="57.5" y="40" width="235" height="252.5" id="e"><g filter="url(#d)"><path d="M274.4 142H274.1c-.3-.2-.3-1.1 0-1.7v-.1c0-.2-.7 0-.8 0-1.1.3-1.5.7-1.7.6-.2-.1.1-1 .8-1.5.7-.7 1.3-.5 1.5-1 .4-.6-.2-1.8-1-2.2l-1.1-.1c-.4 0-1.5-.1-1.6.1 0 .1.4.2.4.5l-.2.4-.8.2h-.7c-.2 0-.2-.5-.1-.7l.2-.4c0-.2-.4-.2-.4-.2h-3.2c-1.2 0-1.3-.4-2.4-.4h-1l-1-.6-.2-.2c0-.2.2-.2.1-.3h-1.3c-.3.2-.2.5-.6.8l-.4.1c-.2 0-.4-.2-.6-.4 0 0-.4-.4-1-.5h-1.9v.6c.2.5.4 1 .2 1.3-.2.1-.7 0-1-.2-.4 0-.4-.1-.5-.2-.6 0-1 .7-1.2.6-.1 0 0-.3 0-.8 0-.6 0-.9-.2-1-.2-.2-.8.3-1.3.5-1.4.5-3-.6-3.3-.8-1.4-.8-10.4-1.8-33.7-3l.8-3.9 9.2.2c1.5 0 2.1.3 2.3.7.2.3.2.7.5.8.2 0 .3 0 .6-.3 1-.7.9-1.6 1.6-1.9h.8l.5.3-.6.4c-.3.3-.7.8-.6 1 .2.4 1.7.3 3 .2l.9.1.4.5h.6c.4-.3.6-.9.5-1.3 0-.2-.1-.3 0-.4 0 0 .3 0 .5.2.5.4.4.8.8 1 .3.2.7 0 .8-.1.4-.2.5-.5.6-.7.3-.6.1-1.1.4-1.2h.4l.3.5c.1.5.5.9.7 1.1.1.1.3.4.7.5.2.1.8.4 1.4.2.3-.1.4-.4.8-.5h.5l.7-.7.6-.5c.5-.4.7-.3.9-.6l.1-.5c.2-.7.2-.9.1-1 0-.2-.2-.2-.2-.3h.6c.3.1.5.3.6.6l-.1.7-.5.4c-.3.3-.5.8-.3 1.2 0 .3.2.4.5.6l.7.5.8.3c.5.3.6.3.8.3v-.5c0-.2-.2-.2-.7-.4l-1.2-.6s-.2-.3-.1-.5c0-.2.6-.2 1.2-.2h2.1l2.7.1h.8c0 .2-.9.4-1.7.5-1.1.1-1.9-.2-2 0l.6.4 1 .2c.1.1-.3.3-.3.4 0 0 1.3-.2 1.4 0 0 .2-.3.3-.2.5 0 .2.8.1 1.5 0l1-.5.6-.3.4-.2c.3.2 0 1.5.2 1.6.3 0 1-.6 1.1-1.4v-.6c.2 0 .5.8 1.4 1.2.6.2 1.3.2 1.6.2h1.5c0 .2-.2.4-.1.5 0 .1.6 0 1-.5 0 0 .7-.7.4-1.4-.2-.4-.7-.6-1-.6-.6 0-.8.5-1 .3-.2 0-.1-.5 0-.6 0-.1 0-.3.2-.4.2-.2.6-.2.8-.1.1 0 .6 0 1.2.4.4.2.6.5 1 .5h.3c.1 0 0 .5-.3.7l-.4.1c-.2.2-.1 1 .3 1.5.6.7 2 .7 2.6.1.1-.1.3-.4.7-.6l.5-.2c.2.1-.2.5 0 .7 0 .2.6.3.8.1.2-.1.1-.3.3-.4 0 0 .2 0 .5.3l.4.3.3.4c.3.3.9.2 1.7.1l1.6-.2c.7-.5 0-2.3-.6-4-2-6-.7-3.2-2.7-8.3a232.5 232.5 0 00-1.8-4.7c0-.1-.2-.3-.5-.4-.5-.1-1 .4-1 .5-.6.7 0 2-.2 2-.2.1-.5-.9-1.4-1.4 0 0-.4-.2-.3-.3l.2-.2.9-.6.9-1.1c.4-.6.4-.7.4-.9v-.9c-.8-2.1-2.3-4.3-2.3-4.3-.5-.8-.7-1-.9-1.6-.3-.9-.2-1.1-.5-1.4-.7-.7-2.2.1-2.5-.4l.1-.6c.1-.4.1-1.2-.1-1.2-.2-.1-.7.5-.7.6-.1.1-.4.6-.7 1.6-.2.8-.1 1-.4 1.2-.3.2-.5 0-.8.2-.4.3-.2.8-.5 1-.3.3-.8.4-1 .2v-.5c0-.3.4-.4.7-.6.4-.3.5-.6.8-1.1.3-.5.8-1.4.5-1.7-.3-.4-1.2.2-1.4-.2-.2-.2.2-.7 0-.8-.1-.1-.4.1-1 .5l-1 .7-.3.1c-.3 0-.5-.1-.7-.3-.3-.2-.2-.4-.4-.5-.5-.4-1.2 0-1.4-.4v-.3c-.2-.2-.6-.1-.8 0 0 0-.4.1-.5.5 0 .3 0 .5.3 1a6.6 6.6 0 01.2 2.3c0 .2-.1.6-.3.6-.2 0-.3-.4-.8-.8-.3-.2-.6-.1-.7-.3 0-.3.2-.4.5-1.2 0-.3 0-.4.2-.6l.3-.3v-.2l-.3-.1c-.3 0-.5-.2-1-.5a5.7 5.7 0 00-1.2-.4c-.7-.2-.9 0-1.6-.3l-1-.3c-1-.3-2 0-2 .1l.2.3-.7.4-.6.4c-.3.2-.3.3-.5.3s-.5-.2-.5-.3l-.3-.6c-.3-.5-.7-.9-1.2-1-.2-.1-.5-.2-.6 0 0 0 .1.3 0 .4l-.5-.1a11 11 0 00-1.7-.4h-2.5c-.4 0-.7 0-.8.2-.3.3 0 1 0 1 .2.4.4.4.6.7.5.9.2 1.8.1 2 0 .3-.3.6-.4.6l-.1-1a2.5 2.5 0 00-.3-.6 2.8 2.8 0 00-.6-.8l-.6-.4c0-.2.8 0 .9-.3l-.3-.4c-.7-.6-.6-.7-1-.9-.1-.1-.5-.2-1.3-.2h-1.4c-.4 0-.7 0-.9.2l-.1.4c-.2.5-.8.8-.9.8 0 0-.6.2-.8 0l.1-.5c.2-.5.5-.5.4-.7 0-.2-1.1 0-2.6-.1-1.2-.1-2.2-.3-2.2 0l.2.3-.6.1h-.8c-.3 0-.7-.2-1-.5-.3-.3-.2-.5-.4-.5-.3 0-.5.3-1 .6-.4.3-.9.3-1.1.3-.3 0-1.3 0-1.6-.5-.2-.3 0-.4-.3-.6-.3-.3-1.2 0-1.7.3-.7.4-.8.6-1.3.6-.5.1-1 0-1.2-.1l-1.4-.8a3.6 3.6 0 00-1.6-.2c-.7 0-1.2.3-1.5.5-1.2.7-1.6 1.5-1.9 1.3-.2 0-.2-.5-.2-.7 0-.3.2-.5 0-.6 0-.2-.9-.1-1.4.1l-.7.6-.5.6c-.2 0-.5-.1-.7-.4v-.7l-.3-.6c-.2 0-.4 1-1.4 2-.4.4-.5.4-.7.4-.4 0-1-1-.8-1.8 0-.4.2-.6 0-.8 0-.2-.4-.2-.6-.2-.5 0-.7.2-1.4.5-.9.3-1 0-1.2.3-.4.5.2 1.2-.2 1.9-.3.4-1 .6-1.2.4-.3-.1-.4-.6-.3-1 0-.4.4-.6.3-.8-.1-.2-.8.1-1.6-.1-.9-.3-.7-1-1.7-1.6-.3-.2-1-.3-2.4-.4-1.2-.1-1.5-.1-1.6 0-.2.4 1.3 1.1 1.1 1.7-.2.6-1.9.8-2.5.1-.3-.3 0-.6-.4-1-.4-.3-.9 0-2-.4l-1.1-.4H178.8c0 .2.3.3.2.4 0 .2-.6.5-1 .3-.5 0-.5-.3-1-.6-.7-.3-1.4-.3-1.5-.1l.3.4h-1l-.6-.4c-.4.1-.5 1.1-.1 1.9l.4.6c.2.7-.4 1.6-.5 1.5v-.7a3.1 3.1 0 00-.1-.7l-.2-.4c-.2-.2-.5-.2-.8-.2h-.7c-.2-.2-.3-.5-.2-.7 0-.6.9-.8.8-1 0-.2-.3-.2-.5-.3a2 2 0 00-1.3.2l-.6.5c-.5.4-.5.6-.8.6-.2 0-.5-.2-.6-.5-.2-.3 0-.7-.1-.8-.3-.2-1.5 1-2 .7-.1-.1 0-.5-.3-.6-.2-.1-.4 0-.7.1-.3.1-.5 0-1.5-.1l-2-.2-.8.1-.3.6c-.2.4-.4.8-.6.8 0 0 0-.5-.3-1.4 0-.3-.1-.4-.2-.5-.3-.2-.6 0-.8 0l-1 .7-1.5 1.2-.5.5c0 .3.4.3.6.5.6.7.2 2.5-.3 2.5-.4 0-.7-.5-.8-.7-.3-.5-.2-.8-.3-1.8-.2-1-.2-1.4-.5-1.7-.2-.5-.5-.7-.5-1 0-.4.5-.7.5-.7l.8-.2.6.1c.6.1 1 0 1.4-.2 1.1-.3 1.6-1.5 1.9-1.4l.2.9s.4.7.8.7.7-.5 1.4-1.4l.4-.4c.2 0 .3.3.6.5l.6.2 1.5.4c.3 0 .9 0 1.5-.2 1-.3 1.6-1 1.8-1l.1.6c.1.2.4.2.5.3.7.2 2.2-.4 2.2-.4 1-.4 2-.5 3-.7 1.8-.4 3.2-.3 5.8-.2 0 0 4 .3 6.5 0 .2 0 .9-.1.9-.3l-.6-.3 2 .2c1.5.2 2.3.3 3.1.2 1.6-.3 2.8-.9 2.8-.9.5-.2 1.1-.6 1.3-.5 0 .2-.2.5 0 .7.1.4 1 .3 1.6.1l1-.4a3 3 0 011.5.1c.6.2.6.5 1.2.6a3 3 0 001.4 0c.3 0 .4 0 1.5-.5a28.3 28.3 0 013-1c.9 0 1 .4 2 .7.4.1 1.2.3 2 .1 1.4-.3 2.3-1.5 2.6-1.3l.1.5.5.3c.4.1.7-.2 1.2-.3.6-.2.7.2 1.6.2.9 0 .9-.3 1.9-.3.4 0 1.3 0 1.6.5.1.2 0 .3.2.3.3.2.7-.3 1.6-.6.4-.2 1.1-.5 1.6-.2.4.3.3.7.6.8.4.1 1.1-.3 1.5-.9.2-.3.2-.6.4-.7.3 0 .5.2.7.3 1 .9 2.3-.2 3.5.6.6.4.8.9 1.1.8.2 0 .2-.2.8-.9l.6-.7.3-.3c.1 0 0 .5.3.8.4.4 1.2-.2 1.7.2.2.2 0 .4.2.5.3.3.8-.2 1.6-.4l2.2-.1c.2 0 .6 0 .8-.2.2-.2 0-.4.2-.6.2-.1.5.2 1.2.4l1.7.4c.2 0 .5.2.6.4v.5c.1.1.6-.5 1.5-.7.1 0 .7-.1 1.1.2l.7.5c.5.3 1.3 0 1.3-.1 0-.2-.3-.2-.3-.4 0-.1.4-.3.9-.3l.6.2 1 .1h1v-.4c.1-.2.9-.2 1.4.2.4.3.4.6.7.7l1-.2.3-.1c.2-.3-.4-1-.5-1.2A104 104 0 00204.8 55a103 103 0 00-29.8-4.5 100.8 100.8 0 00-29.3 4.3 100.5 100.5 0 00-29.2 14.5c0 .5.1 1.1-.2 1.4-.4.3-1-.2-1.7 0-.6.4-1 1.3-.9 1.8.3.5 1.2.5 2.6.6a6 6 0 001.8-.2c1.1-.3 1.7-.9 2-.6.2.2-.1.7.2 1 0 .1.3.3 1.4.1l1.5-.4c1.7-.5 2.4.2 3.7-.1.1 0 .5-.2.8 0l.4.5c.3.2.8-.2 1.4-.4.1 0 2-.6 3.2.1.3.3.6.6 1 .6l.8-.2c.8-.4 1.4-.5 2.2-.6.6-.1 1.4-.2 2.3 0 .7.3.7.5 1.5.7.5.2 1.4.4 1.8 0 .4-.4.1-1 .5-1.2.3-.2.6 0 1 0l.8.4c.6.2 1 0 1 0 .1.2-.2.5-.7.7l-1 .2c-.4 0-.7.1-.7.2 0 .2.9.3 1 .6 0 .2-.2.4-.3.5 0 .1-.2.3-.4.3-.5 0-.5-.6-1.2-.9h-2.1c0 .1.2.3.1.5 0 .2-.3.3-.6.3-.4 0-.4-.6-.9-.8h-.6l-1 .1c0 .2.4.3.4.4l-.5.3c-.3.2-.3.4-.6.5a1 1 0 01-.8 0c-.4-.1-.4-.4-.7-.7-.3-.2-.4 0-1.6-.1a47.8 47.8 0 00-2.5.2c-.1.1.2.3.1.6 0 .3-.4.4-.7.6l-.6.1-.9.3c-.5 0-.6-.3-1.4-.7-.7-.2-1.5-.3-1.6 0v.2c0 .2-.2.4-.3.4-.2 0-.3-.3-.6-.5-.2-.1-.5-.2-1.6 0l-2.1.7c-.4.3-.6.6-1.1.8h-.7c-.2-.2 0-.5-.3-.6-.2-.2-.8.3-2 .6-.7.2-1 .2-1.1.1-.4-.2-.2-.6-.5-.8-.5-.2-1.7.6-2.1 1.5 0 .2-.2.4-.3.4-.3 0-.7-.3-.8-.7v-.3c-.3-.1-.8 1.1-1.7 1.2-.4 0-.7-.1-1-.3-1.2-.6-2.9 0-3.9.4-.6.3-1.8.8-4.6 4l-3.6 4.5-3.6 4.5c-3.7 4.7-3.2 5.2-5 7-.2.4-.8 1-1 1.9-.4 1.1.2 1.4-.2 2.3-.3.8-1.2 2-2.3 2.4l-.4.3c0 .2.3.3.5.7l.1.4c.2.8-.8 1.7-.6 2 .2.4 1.5-.3 1.9.2.1.2.2.5 0 .6-.2.3-.9 0-2.1.1h-.6c-.7.3-1.4.9-1.3 1.2 0 .2.4.2.5.4.1.4-.8.8-.8 1.4 0 .6 1 .7 1.3 1.7 0 .2.2.7 0 1-.2.5-1 .6-1.1.6h-.5c-.3-.3-.2-.8-.4-.9-.1 0-.3 0-.7.5-.5.6-1 1-1 1.7-.2.9.2 1.7.3 1.9.2.5.4.8.3 1h-1c-.7.3-.9 1.7-1 2.1-.2 2.2-.6 1-2.3 7.7-1 4-.8 4.5-.6 4.9.2.4.7 1.3.4 2l-.6.7c-.4.5-.8 1.5-.5 2 .4.6 1.5.6 3.7.5 1.2 0 2-.2 3-.1l1.3.1.8.1s-.3-.3-.2-.4c0-.1.7.2 1.6.2h.6c.3.2.3.6.5.6.3 0 .4-.4.9-.7 0 0 .5-.2.9 0 .2.1.2.3.5.4.3.2.7.2.8.2.6 0 15.4 0 36 .3l-51 10.8A98.7 98.7 0 0079 181a100 100 0 0022.9 38.5v-.2l1.4 1.9c.9 1.3 4.2 4.4 13.9 12a6.1 6.1 0 011.1-1.5c.7-.6 1-.6 1.2-.6.4 0 1 .2 1 .4l-.3.2c-1 .7-1.7 2.5-1.6 2.5a93 93 0 003.1 2c.1.2.3.3.6.4 1.4.5 2.7.2 4.5.3l.8.1c.5.2.5.5.8.6.5 0 1.1-.4 1.2-.8 0-.3-.2-.6 0-.7h.7c.5.2 1.2.8 2 .8.1 0 .7 0 .8-.4v-.5c.2 0 .4 0 .6.2.3.3.2.6.5.8.3.2.6 0 .6 0 .3 0 .5-.3.6-.6.1-.2.4-.7.2-1.2-.1-.3-.3-.3-.2-.5 0-.2.7-.1 1.1 0l.7.6c.2.3 0 .5.3 1l.6.8c.3.2.6.5.8.4.2 0 0-.7.2-1l.9.4s1 .5 2.2.7l1-.1c.4-.2.7-.7.6-1 0-.4-.5-.4-.6-.7 0-.2.2-.4.5-.7.2-.2.4-.5.8-.5 0 0 .3 0 .4.2.1.2-.2.4-.4.8 0 0-.3.9 0 1.5l.4.3c.3 0 .3-.4.8-.9.2-.2.3-.4.5-.4.4 0 .5.4.8.4l.4-.2.6-.4c0-.2 0-.5-.2-.7-.3-.4-.6-.5-.5-.6 0 0 .6 0 1 .2.7.4.6 1 1.2 1.2h1.4c0-.2-.3-.4-.2-.5l1.3.2 1.2.7c1.8 1 4 .4 4.6 0l.7-.5c0-.2 0-.4.2-.4.2-.1.5 0 .6.3.2.2.2.5.2.7 0 .4-.2.5 0 .6l.6-.2c.8-.4.7-1 1.3-1.2.1 0 .5-.3 1-.1.4.2.3.9.8 1 .3.2.7 0 1-.2.6-.2.7-.5 1-.6.5 0 .7.4 1 .6 1.1.6 3.1-1 3.9-1.6 2.4-1.7 4.5-.4 14.3-.4h3.9l.9.4c1 .5 1 .7 1.5 1 0 0 1 .4 2.2.2l.6-.1.7-.5c.4-.2.6.1 1.1 0 .6-.1.7-.6 1.4-.6h.5c0 .2-.2.4-.1.5 0 .3.9.5 1.6.2l1.3-1.1c.1-.2.3-.3.5-.3v.4c.1.6 1.2 1 1.5.7.3-.2 0-1.2-.5-1.8l-.4-.7h1.5c.1.1.3.2.5.7l.5 1c.2.3.5.8 1.1 1 .5.2 1.2.2 1.3 0l-.1-.4c-.2-.4.3-1.1.8-1.4.5-.3.6-.1 1-.4.3-.3.3-.5.7-.8l.7-.5c.2-.3.2-.5.4-.6h.9l.7.5a.8.8 0 010 .5c0 .3-.2.7-.4.7s-.2-.4-.4-.5c-.3-.1-.5.4-1.1.7-.7.3-1 0-1.4.3-.4.3-.6 1-.4 1.4 0 .1 0 .4.4.6.3.1.6.2.9 0 .3-.1.3-.3.6-.5.3-.1.7-.2 1 0l.3.2h.3c.2 0 .2-.5.4-.6.2-.1.5.2 1.4.6.8.3 1 .2 1 .1.1 0 0-.3 0-.4 0-.8 0-2.4.4-2.7.5-.3 1.7 1 2 .7v-.3c.2-.2 1.2.6 1.1 1 0 .4-.6.3-1.2.9-.2.2-.4.4-.3.6 0 .2.3.5 3.5.2 2.8-.2 2.3-.4 4-.4.5 0 2.3 0 2.3-.4 0 0-.1-.1 0-.2H227.2s-.5-.2-.7-.7c-.2-.5 0-1.3.4-1.3.3-.1.5.2.7.4.8.7.5 1.4 1 1.8.6.4 1.6 0 2.2-.5.9-.9.8-2.4 1-2.4 0 0-.1 1.4.4 1.6.2.2.5 0 .8-.2a101 101 0 0020.5-19.4c.2 0 .2-.1.2-.2 0 0-.5.2-.8 0-.1-.1 0-.3-.2-.4-.3-.2-1 .6-1.5.3-.2 0-.1-.2-.3-.3-.4-.3-.8.2-1.5.2-.4 0-.7-.1-1-.3-1-.3-1.4 0-3.2 0-2 0-2.6-.5-3.1 0-.4.3-.4 1-1.1 1.3l-.7.2c-.5-.1-.5-.7-1-1.1-.3-.2-.9-.3-1.9-.3-1.8-.2-2 0-2 .2-.2.2.2.4 0 .6 0 .2-.6 0-1-.2l-.8-.6c-.8-.6-2-.3-2-.2-1.2.3-1.6 1.3-2.2 1-.2 0-.2-.1-.4-.3-.4-.3-1-.6-1.9-.6l-.1.6c-.3.4-1 .5-1.3.3-.4 0-.4-.3-.9-.6-.4-.2-1-.3-2-.3a2 2 0 00-.7 0c-.2 0-.3.2-1 .6-.4.4-.5.4-.6.4-.2 0-.2-.1-.6-.4a4.2 4.2 0 00-1-.6h-.4c-.2.1.5 1 .2 1.3-.2.3-1.2-.3-1.3-.3-.6-.3-.5-.5-1-.8-.8-.4-2-.2-2 0l.3.3h-1.9c-.7.1-1 .3-1.6 0 0 0-.4-.1-.4-.3 0-.2.4-.2.3-.3l-2 .2c-.6 0-1.1.2-1.8.5l-1.8.6-.8-.1c-.2-.3.4-.7.2-1l-1.2-.2h-2.1c-.4.3-.3.5-1 1-.3.4-.7.7-1 .6-.3 0-.3-.6-.7-.9-.4-.3-.8 0-1.7 0-.6.1-1 0-1.8-.3-1.2-.4-1.3-.7-2-.7-.8 0-1.5.3-1.8.5-2 1-7.4 1-8.8 1-11 0-25.3 6.6-32-.2a11.4 11.4 0 01-2-3.1c-9.7.8-13.6 1.5-14.8 2l-1.7.4a7 7 0 01-2.5.2l-1.9-.6c-1.1-.4-1.3-.6-1.9-.5-.2 0-.9 0-1.5.5-.4.4-.5.8-.8.8-.3 0-.2-.6-.6-1-.6-.6-1.4-.1-4-.2-.5 0-1.6-.1-1.7.2v.5l-.1.5c-.2 0-.4 0-.9-.4l-1-1c-.4-.3-.7-.2-3.1 0-1 .1-1.7.1-2-.2-.2-.3 0-.6-.3-.7-.2-.1-.7.2-1.1.5l-.5.4c-.6.3-1.5.4-1.8 0-.2-.3.1-.7 0-.8-.2-.1-.5 0-1.2.5l-1.2.8c-1 .2-1.8-.3-2-.5-.5-.2-.9-.5-1-1 0-.5.4-1.2.6-1.2 0 0 0 .2.3.5 0 .2.2.3.3.4h.6l.2-.3c.2-.2.6-.6.8-.5.3 0 .2.5.6.7.4.4 1 .2 1 .2.3 0 .2-.1.7-.3l1-.4.5-.2.6-.5c.1 0 .6-.3 1.1-.1.3 0 .5.2.8.5l.4.4c.4.2.7 0 .8 0 0 0 .6-.1.7-.5v-.2l.7.5c.1 0 .7.5 1.3.3l.6-.3.7-.6.5-.6c.3-.1.6 0 .8.1.2.1.1.2.2.3.3.4 1.2.4 1.7 0 .4-.3.3-.5.6-.8a1.8 1.8 0 011.1-.4c.6 0 .7.3 1.4.6.2 0 1.3.4 2.2 0 .6-.2 1-.7 1.1-1 1.2-1.3 3.9-1.1 5-1 2.8 0 9.3-.1 18.2-.5l5.2 5.6 5.3.5 2.5-3.2 11.1-5.7a582.7 582.7 0 0149.2 1.5c.7 0 1.1 0 1.6-.3.6-.3.9-.8 1.3-.7.3 0 .4.3.6.5.7.6 1.5 0 3.1 0 1.2.2 1.4.5 2 .3l1.2-.6h.6c0 .1-.2.4-.1.6h1.6c.2-.1-.2-.7 0-.9 0-.1.6 0 1 .2.2.2.2.5.5.6.3.2.7.2 1 0 .3-.2.2-.7.6-.8h.7l1.8 1c.1-.2-.2-.6 0-.8.2-.4 1.2-.2 1.4-.2l5.7.7c2.3.3 2-.2 5.1 0l3.6.4c.3.1 1.2.5 1.5.2l.1-.7c.2-.2.6-.2.9 0 .6.2.7.9 1 .9a26.5 26.5 0 002.6-3c1.8-2.4 2.6-4.5 3.6-6.6a616.8 616.8 0 014-8.9c.1-.3.6-1.3.3-2.3-.1-.3-.2-.6-.6-.8h-1l-.5-.1c0 .1.3.4.2.5 0 .2-.4 0-.8 0-.3.2-.3.4-.6.5l-.8-.3c-.5-.1-.6 0-.9-.2l-.5-.4a5.5 5.5 0 01-.4-.5c-.2-.2-6.5-.4-23.2-.2l4.1-6.2 28 .5a225.6 225.6 0 002.6-34.4c0-.8-.1-1-.2-1zm-4-15.2c.2.2.1.9-.2 1-.4.2-1-.3-1-.6 0-.4.9-.7 1.2-.4zm-16.8-6.7c-.2-.4.6-1 .6-1l-.2.8.3.6s-.6 0-.7-.4zm1.7 3.3c-.2 0-.5-.3-.6-.6-.1-.5.4-1 .6-1 .3.1.3 1.5 0 1.6zm.6-3.1c0 .1-.5 0-.7-.2-.3-.3-.2-.8 0-.9.2 0 .9.9.7 1zm1.3 4c-.1.1-.6 0-.8-.3-.2-.4 0-1 .2-1 .3 0 .8 1 .6 1.3zm.6-5.5a.5.5 0 01-.6-.2.3.3 0 010-.1l.5-.1h.3a.5.5 0 01-.2.4zm2.6-1.9c-.2 0-.7-.5-.6-1 0-.3.3-.5.5-.5.3 0 .4.6.4.9 0 0 0 .6-.3.6zm4.5 10.6l-.5-.2c-.3-.4 0-1.1.2-1.2.2 0 .5 1.2.3 1.4zm-.4-5.3c.2 0 .7.8.3 1.2-.1.1-.4.2-.6.1-.3-.2 0-1.3.3-1.3zm-.4-2.8s.3.8 0 1c-.2.2-.7 0-1-.3-.8-.6-1-1.9-.7-2.1.3-.3 1.4.4 1.7 1.4zm-1.9-3.3c0-.3 0-.5.2-.5.1-.1.3 0 .4 0 .1.4-.4 1-.5 1v-.5zm.3-4.4c.4.1.6.5.5.7-.1.2-.4 0-.9.3-.4.2-.5.5-.8.6-.2 0-.5-.1-.6-.3-.1-.3.4-.8.7-1 .2-.2.7-.5 1.1-.3zm-.9-6.4l-.4.2c-.4 0-.6-.3-.6-.4 0-.1 1 0 1 .2zm-4 4.2c0-.5.7-1 .9-.8.3.1-.1 1 .3 1.3.3.3.9 0 1 0l.5-.2 1-.3.8-.4s-.3.6-.8 1c-.5.2-.7 0-1 .3-.7.4-.5 1-.9 1.2-.6.3-2.1-1-1.9-2zm-2.2 5c.3-.1.5.2 1 .2l1-.3c.1 0 .9-.2 1 0 0 .2-.2.3-.6.9-.3.4-.2.5-.4.6-.3 0-.5-.4-1.1-.4-.3 0-.6 0-.8.2-.7.3-.8.7-1 .6-.2-.1.2-1.8.9-1.9zm-.9-1.3s.3.2.2.4c0 .2-.5.3-.8.3-.5 0-1.2-.4-1.1-.8 0-.4.5-.7.9-.7h.4v.6l.4.2zm-2-8c0-.3.5-.2.6-.2 0 0 .6 0 .6.3 0 .2-.3.5-.7.5-.4-.1-.6-.5-.5-.7zm.7 3.3c.6 0 .9.7 1 1.2 0 .7-.5 1.5-.8 1.4l-.5-.8-.3-.5c-.3-.2-.6 0-.6-.2-.2-.2.5-1.2 1.2-1.1zm-9 8.7c0-.2.3-.3.4-.3.2.1 0 .8-.1.9-.2 0-.5-.4-.4-.6zm1 3.2c0 .1-.5 0-.7-.5l.1-.6c.2-.1.8 1 .6 1.1zm1.1-5.5c-.1.2-.6.1-.8-.1-.1-.1-.2-.3 0-.4 0-.2.5-.3.7 0 .1.1.2.3.1.5zm2.7 7.5l-1-.8c-.3-.6-.5-1.4-.3-1.4.2-.1 1.4 2 1.3 2.2zm2.3-.4l-.3.8-.3.5c-.1 0-.4-.2-.4-.5 0-.5 1-.9 1-.8zm-.6-3.8c.1 0 .4.2.3.5 0 .3-.5.4-.6.3-.2-.2 0-.8.3-.8zm.1-2.6v.6c.1.3.3.4.2.5 0 .2-.4.2-.6 0-.2 0-.5-.3-.4-.5 0-.5.7-.7.8-.6zm-1.8-3l.6.2.6.4c0 .2-.7.5-1.1.3l-.4-.7c-.4-.4-1-.2-1.2-.5-.2-.3 0-.8.2-1 .2-.3.6-.5.9-.4.4.3-.1 1.3.4 1.7zm-2.6-10.5h.2c.5 0 1.1.4 1.6 1 .6 1 .5 2 .4 2.7-.1.3-.3.8-.6.8-.3.1-.7-.3-1-.7-.6-1.2.4-2.3-.3-3.2-.1-.1-.4-.4-.3-.6zm.3 7.2c.4.6 0 1.7-.5 1.9-.3 0-.7 0-.8-.3-.1-.3.1-.4.2-1 0-.7-.4-1-.3-1.2.2-.2 1 0 1.4.6zm-1.4-3c0 .1.1.6-.2.8-.2.2-.6.1-.8-.1-.4-.4-.1-1.3.2-1.3.3-.1.7.3.8.7zm-1.3-3.2c0-.1.6-.2.8.1l-.1.5c-.3.1-.8-.4-.7-.6zm-.1 8.2c.2-.2.8.3.9.8 0 .3-.1.7-.4.8-.2 0-.5-.4-.5-.5-.2-.4-.3-1 0-1.1zm-1.7-7.6c0-.1.2-.2.3-.1.2 0 .1.8 0 .8-.2 0-.4-.1-.4-.3a.5.5 0 010-.4zm-21.8 9.4c0-.3.7-.6 1.4-.5.1 0 1 .2 1 1 .2.3 0 .7-.2 1-.5.4-1.4.3-1.5 0-.1-.2.3-.4.3-.7-.1-.5-1-.5-1-.8zm2-3s.3 0 .4.3v.3c0 .1-.4 0-.5-.3v-.3zm0 13.3c-.7.4-1 .4-1 .3-.6-.2-1-.9-.7-1.4a1 1 0 01.5-.5c.5-.3.8.2 1.8.3.8.2 1.2 0 1.3.1 0 .3-1.7 1.1-1.8 1.2zm4.8-2.3c-.3 0-.7-.3-.6-.4h.5l.4-.1c.1 0 0 .4-.3.5zm.8-14.2c-.3-.5-.1-1.2 0-1.3.3 0 .6.6.8 1.1v.7c-.2 0-.6-.2-.8-.5zm1.7 14.5h-.2c-.2-.3 0-.9.2-.9.1 0 .2.8 0 1zm1.7 5.1c-.1.1-.4.3-.5.2-.3-.2.2-1.4.4-1.4s.5.8 0 1.2zm.3-2.8l-.3-.4.3-.7.2-.3c.2 0 .1 1.4-.2 1.4zm-.2-14.3s.8.6.7 1.1c0 .3-.4.6-.5.5v-.4c0-.7-.3-1.1-.2-1.2zM234 120c-.2.4-1 .3-1.4 0-.5-.4-.6-1.3-.5-1.3 0 0 .2.3.5.4.3 0 .4-.3.8-.2.3 0 .6.2.7.5v.6zm3.8-9.6c-.2 0-.4-.5-.2-.8.2-.2.5-.3.6-.2.2.2-.2 1-.4 1zm4 6.8c0 .2-.3.9-1 1-.4 0-.9-.2-.9-.5 0-.4 1.6-.9 1.8-.5zm-2.6-4.3l.9.1-.4.8-.4.5c-.4 0-1-2.3-.9-2.4.1 0 .3.7.8 1zm-2.2-11c.2-.2.6.1 1.2-.2.5-.2.7-.6.8-.5v.5c-.2.4-.4.5-1 1l-.6.5c-.4 0-.6-.9-.4-1.2zm-.4 4c.2-.2.4-.2 1.2-.4l1-.3c.2.2 0 .5-.3.6-.3.3-.6 0-.9.2-.3.2 0 .7-.3 1-.2.3-.7.3-.9.2-.2-.2-.2-.5-.2-.5 0-.5.3-.7.4-.8zm-3 .8l.4.1c0 .2-.4.5-.5.4-.1 0-.1-.4.1-.5zm-.6 2.8c.1-1 1.4-2 1.7-1.7.2.1-.3 1-.8 1.7-.1.1-.5.6-.7.5-.2 0-.2-.4-.2-.5zm.5.8c.2.1-.4.8-.1 1.5.1.5.7.9 1.2 1 .4.1.6 0 1 .2s.5.5.5.5c.2.3.2.8 0 .8l-.5-.3c-.7-.2-1.2.7-2 .6-.5 0-.9-.5-1-.8-.5-.5-.8-1.4-.5-2.2.3-1 1.2-1.5 1.4-1.3zm-2.1-4l1.2-1c.1 0-.3 1.4-1.3 1.8-.3.1-.7.1-.8 0l.9-.8zm-2.4 7.4c.2-.7.2-.9.4-1 .3-.3.5-.2.9-.4.5-.4.5-.9.7-.9 0 0 .2.5 0 .8 0 .3-.2.3-.5.6-.3.4-.1.6-.5 1.2l-.5.8c-.2.2-.7.5-.8.4l.3-1.5zm-1.7-11.4c.4-.1.7 0 .8.1.5.3.8 1 .7 1.6 0 .5-.4 1-.7 1l-.4-.5c-.6-1-.9-1-.9-1.3 0-.3.2-.7.5-.9zm-.7 9.8c.6-.2.8-.5 1-.4.1.1-.1.9-.6 1.3a1.8 1.8 0 01-.7.5c-.6.2-.8 0-1.9 0l-.7-.1c-.2-.3-.1-1 .2-1.2.7-.5 1.5.4 2.7 0zm-2.3-8.9l.5-.2c.5-.2.8-.3.9-.2.1.1 0 .8-.6 1 0 0-.3.2-.6 0-.2-.1-.3-.4-.2-.6zm0 5.3c0 .3-.6.3-1 .3-.3 0-.8-.2-.8-.5 0-.2.6-.5 1.1-.4.4.1.8.4.8.6zm-.8-7c.1-.2.3-.6.5-.6s.3.7 0 1.1c-.2.3-.6.5-.7.4-.2-.2 0-.7.2-.9zm-3.4 3.7c.3-.3.8 0 1-.3 0-.2-.4-.5-.3-.8.2-.3 1.3-.4 1.8.2.1.1.3.5.1.7-.1.3-.6.3-1.1.3h-.7c-.6.2-.9.7-1 .6-.1 0 0-.5.2-.7zm-1.1 2.7c.2 0 .5.5.6.7 0 .2.6 1.3.1 1.8-.3.3-.8 0-1.3.3-.4.3-.5.9-.4 1.3.1.8 1 1 .9 1.5 0 .3-.5.6-.5.6-.2.1-.7.2-.8 0-.2-.2.1-.5 0-1.2l-.1-.8v-1.1c0-.5.3-.6.6-1 .7-1.2.5-2.1.9-2.1zm-1.4-4.4c.7-.6.6-1.3.8-1.3.2 0 .3.8.3.8 0 .4 0 1-.3 1.3-.3.2-.7.1-.9 0 0 0-.5 0-.5-.2s.3-.3.6-.6zm10.1-34.5l.6.3c.5.3.7.4.6.5 0 .1-.7.2-1-.2-.2-.2-.3-.5-.2-.6zm-36-12.1l.5-.6.4-.7.3-.3c.2 0 .4.4.4.8l-.1.6c-.1 0-.5.8-1.1.8-.4 0-.8-.3-.8-.4l.4-.2zm-10.3 12.5v.5c-.1 0-.3 0-.3-.2 0-.1.2-.4.3-.3zm-2.7 1.4c.5-.1 1 .2 1 .4l-.8.2c-.5.1-.8.2-.9.1 0-.1.3-.6.7-.7zm-8.8-.3h.5c0 .3-.8.7-1 .5 0 0 .2-.5.5-.5zM156.3 73c.4 0 .8.2.7.3 0 .3-1.2.5-1.3.3 0-.1.2-.5.6-.6zm-22.7-2.9c-.3-.1-.4-.7-.3-.8l.6.4.3.4c0 .1-.4.2-.6 0zm-55 64c0-.2 1-.2 1 0l-.5.2c-.3 0-.5-.2-.5-.3zm.7 3.3c-.3.1-.3.5-.4.4-.1 0 .3-1 0-1.5 0 0-.2-.2-.1-.3h.2c.7.2 1.3.7 1.3.7l1.3 1.1c-.1.2-1.7-1-2.3-.4zm16.1-32.9c.2 0 1.1.5 1 .9 0 .1-.1.2-.3.2-.4 0-.8-1-.7-1zm-.5-2.7s-.2.3 0 .8c0 .5.2.6.1.8 0 .2-.8 0-1-.3-.2-.5.7-1.4.9-1.3zm-1.5 5l.1-1.3c.2 0 1.2 1 .9 1.7-.2.4-.8.6-1 .5v-1zm.7 8c0-.2.1-.4.4-.4.2 0 .3.4.3.5-.1.1-.7 0-.7-.2zm.3 5.3l-.4.2c-.3.1-.3.4-.4.4-.1 0-.3-.3-.2-.6.2-.3.7-.3.9-.1v.1zm-2-9.9l.4.5.5.3c0 .2-.2.2-.4.3-.3 0-.7.2-.9 0-.2-.1 0-.5-.2-.7-.3-.3-.8 0-.8-.1s1-.6 1.4-.3zm.7 13.2h-.3s.4-.3.5-.8v-.1s.1.7-.2 1zm-2.2-15.9c.2-.3.8-.4.9-.2l-.3.6c-.3.7-.2 1.1-.3 1.1-.2 0-.4-.4-.4-.8v-.7zm-1.8-4.9c.3-.2.4-.3.4-.5.1-.2 0-.3.2-.4.1-.2.4-.3.6-.2.2.1.2.5.1.8-.1.5-.7.6-1 .7-.2.1-.6.2-.7 0l.4-.4zm-.8 7v-.4h.2l.4-.2.6-.2h.5c.1.1-.3.7-.3.7-.1.2-.2.4-.5.5-.4 0-.9-.1-1-.4zm.6 4.7c.2.2.3.4.2.5h-.5c-.3 0-.3-.6-.2-.7l.5.2zm-1-8.6c.3-.3.5-.3 1-.5l.7-.6c.3.1.4 1 0 1.3l-.7.2h-1c-.2-.1 0-.4 0-.4zm-.1 10.7c.1-.2 1 .3 1 .5 0 .1-.5.2-.7 0-.3-.1-.4-.4-.3-.5zm.8 2c.2.2.3.4.2.6 0 .3-.5.3-.6.2l.1-.2c0-.3-.8-.3-.8-.4 0-.2.8-.4 1.1-.1zm-.3 14c-.4-.2-.7-.6-.6-.7l.7.2.4.4h-.5zm.3 1.6s0 .2-.2.3c-.2.2-.6 0-.6 0 0-.2.7-.4.8-.3zm-3.7-21.6c.1 0 .3 0 .3.2 0 .1-.5.2-.6.1 0 0 0-.3.3-.3zm-1 26c-.3.2-.3.3-.5.3s-.5-.9-.3-1c.2-.2.5 0 1.1 0l.5-.1-.9.7zm1.9-5.8c-.1.3-.4.3-.8.6-.1.2 0 .2-.2.3-.3.3-.7.4-.9.3v-.4l-.5-.4c-.3-.2-.4-.7-.4-.8h.5a.5.5 0 00.4-.3c0-.4-.4-.7-.4-.7-.5-.3-1-.2-1.3-.5v-.2h.6c.9 0 1.4-.3 1.5-.1.1.1-.2.3-.1.7 0 .3.2.5.4.8l.4.4.4.1.4-.2v.4zm1.3-20.2c0 .2-.3.5-.4.4-.2 0 0-.3-.2-.7-.3-.5-.8-.7-.8-.8 0 0 .8 0 1.2.5l.2.6zm1 26.1c-.3.3-.7.4-.8.2-.1-.1 0-.3.2-.5.2-.1.4 0 .7-.2l.3-.3s0 .6-.3.8zm0-2l-1-.2c0-.2 1.2 0 1.8-.7.4-.4.3-1 .5-1.1l.2.5c0 .7-.7 1.3-1.5 1.4zm1-23.7s-.6-.7-.5-1l.8-.1 1.2-.2h.7s-.5.2-.9.7c-.4.6-.3 1-.6 1.1-.2.1-.5-.2-.7-.5zm1.8 17.2h-.3l-.6.1s.7-.5.8-.3c.1 0 .1.2 0 .2zm-1 1.7c.2-.1.6.5 1.2.4l.7-.2h.5s-.5.4-1.2.5c-.4 0-1 .1-1.1-.2-.1-.2-.2-.4 0-.5zm1.5 8c-.3 0-1.3-1.5-1.1-1.7.1-.1.8.1 1 .7.3.4.3.9.1 1zm1.9-2.7c-.3 1.1-1.3 1.9-1.5 1.7-.3-.2 1-3 1.5-3v1.3zm1.2-5.5c-.7 0-1-1-1-1.1 0 0 .2.4.7.6.3.1.7 0 .8 0h.5s-.5.6-1 .5zm1.3-18.8s-.7.3-1.2 0c-.1-.2-.4-.3-.4-.6-.1-.5.4-.6.5-1.4 0 0 0-.5-.2-.8l-.3-.5c0-.1.3 0 .8 0h1c.3 0 .8 0 .8.2 0 .1-.8.1-1.2.8 0 0-.3.4-.2.8 0 0 .2.4.5.6h.6c.1.1-.2.7-.7 1zM97 119c0 .2-.6.2-.7 0 0-.1.1-.5.4-.5.2 0 .4.4.3.5zm148.3 96.3s.4-.6.6-.5c.2 0 .3.6 0 1-.2.4-.6.6-.7.5-.2 0 0-.6.1-1zm.6 3.6c.3.4.2 1 0 1.1l-.6-.4c-.5-.4-.8-.7-.7-.9 0-.2 1-.3 1.3.2zm-6.9 3.3c.1.2-.3.9-.8.8-.3 0-.5-.3-.5-.5 0-.3 1.2-.5 1.3-.3zm-3.7-5.1c.2 0 .3.8.1.9-.1 0-.5-.2-.4-.6 0-.2.2-.4.3-.3zm-2.8 13c.2 0 .2.2.2.3 0 .1-.1.4-.3.5-.3.1-.6 0-.7-.2 0-.3.6-.8.8-.7zm-5-13.7v-.6c.2 0 .6.5.6 1 0 .4-.2.9-.6.9-.2 0-.4-.2-.5-.4l.5-.9zm-3.4 9.8c.3-.7 1.3-1 1.5-.8 0 .1-.2.3-.3 1-.1.3 0 .5-.2.7-.2.2-.5.4-.8.2-.3-.1-.4-.7-.2-1.1zm-2-9.8c.3 0 .7.1.8.3 0 .1-.4.3-.7.3-.4 0-.7-.2-.7-.4l.5-.2zm-2 16.2v.4c.2.4.5.4.4.7 0 .2-.2.4-.4.4-.3 0-.6-.2-.6-.3 0-.1-.3-.4-.2-.6 0-.4.5-.7.7-.6zm-1.6-6c0-.5.5-1 .7-.9l.3 1.2v.3c0 .6-1.1.8-1.3.6 0-.1.3-.4.3-1.1zm-6.1-11.6c0-.2.4-.2.7 0 .3 0 .5.4.4.5 0 .2-.8.2-1-.1-.1-.1-.2-.2-.1-.4zm-1 3.2h.3c.2.2.2.6 0 .8-.2.2-.6.2-.7.1-.2-.2 0-.8.3-1zm-.2 11.5c.2.1.2.6 0 .7-.1.2-.8-.2-.8-.4s.4-.5.8-.3zm-5.7-13c.3-1.4 1.8-2.2 2-2l-.7 1.3-1.2 1.8c-.2 0-.2-.7 0-1.1zm.2 13.9v.4c-.3.2-.8 0-.8-.2s.6-.4.8-.2zm-6.4 1.3c.1-.5.7-1 1-.8.1.1.1.5 0 .8-.1.5-.7.9-1 .8-.1-.1 0-.5 0-.8zm-4.1-5.7c.2-.4.8-.4.9-.3l-.3.5c-.1.2-.4.5-.6.4v-.6zm-.7 3.7c.1-.2.4.1.8 0 .5 0 .6-.4.9-.4.2 0 .3.3.3.5 0 .4-1.6.8-2 .4v-.5zm-1.9 2.2c.1-.2.6-.3 1-.1.4.2.7.6.7 1 0 .3 0 .8-.2.8 0 0-.2 0-.8-.7-.7-.8-.7-1-.7-1zm-32.6 1.3l.5.2.6.2c0 .1-.4.4-.7.2-.3 0-.5-.5-.4-.6zm-3.8 2.4l.2.3c-.1.1-.8-.4-.8-.5l.6.2zm-4.2-3.1c.1-.2.6.3 1.5.4.7 0 1-.3 1-.2.2.2-.5 1.2-1.3 1.1-.9 0-1.4-1.1-1.2-1.3zm-5-4.3l-.3.8-.3.7s-.2-.2-.1-.5c0-.6.6-1 .7-1zm-3.8 2c-.2-.1-.1-.3 0-.4l.3.3h-.3zm.5 1.5c.1-.2 1.7.3 1.6.7 0 .2-.4.3-.6.3-.7 0-1.1-.8-1-1zm-.6-6c0-.1.4 0 .5.4 0 .3 0 .6-.2.6s-.5-1-.3-1zm-3.2 6.1c-.2 0-.1-.9-.1-.9l.1.5.3.3s-.2.2-.3.1zm.6 3.4c.1-.2 1 .3 1 .5l-.5.2c-.4 0-.6-.6-.5-.7zm-1.2-6.4l1-.3-.7 1.2-.2.6c-.2 0-.2-.3-.5-.7-.3-.4-.5-.4-.5-.6l.9-.2zm-1 5l.6.4h-.5l-.1-.3zm-2.8-1.9c.2 0 1 .8.8 1l-.5-.1c-.4-.3-.4-.8-.3-.9zm-2-3.7s.5.2.4.3h-.3c-.2 0-.2-.2-.2-.3zm-.6-11.6c.1 0 .4 0 .4.2 0 .3-.5.7-.6.6-.2-.1-.1-.7.2-.8zm.1 6.9c.3 0 .4 1 .2 1.1-.2 0-.7-.2-.7-.6 0-.3.4-.6.5-.5zm-2 5.6s.2.5.8.9c.6.4 1.2.3 1.2.5l-.6.6c-.3.3-.3.6-.5.6l-.2-.5c-.3-1.3-.8-2-.7-2zm.1 4.2c.6.1 1 .6 1 .6.2.4.3 1 .1 1.1l-.8-.5c-.7-.5-1.1-.8-1-1 0-.2.5-.2.7-.2zM130 222c.2 0 .2.5 0 .6-.3.1-.6 0-.6-.2s.4-.5.6-.4zm-.6 10.2c0 .2-.2.3-.4.3-.6 0-1.2-.8-1-1 .1-.2 1.5.3 1.4.7zM129 218c.1 0 .2.3 0 .5h-.5c0-.2.4-.6.5-.5zm-1.3 9c.2-.4.4-.4.4-.8.1-.4-.1-.7 0-.8 0-.1.5 0 .6.4.4.5.1 1.4-.4 1.7-.1 0-.4.2-.5 0-.1 0 0-.3 0-.4zm.6 6.4s.6.2.5.6c0 .2-.3.5-.5.4-.2 0-.1-.2-.3-.4-.3-.4-.7-.4-.7-.5 0-.1.5-.3 1 0zm-5.7 2.2c-.1 0-.5-.4-.4-.7 0-.3.3-.4.3-.4v1.1zm3.5-21.1l-.1.4c-.1 0-.2 0-.2-.2s.2-.3.3-.2zm-.8 19.8l-.7.1-.6-.1s-.2-.2-.1-.3c0-.2.3-.2.5-.2l.4.3.5.2zm-.5-4.7c0 .1-.2.3-.3.2-.2 0-.2-.9 0-1 0 0 .5.5.3.8zm0-3.3l-.5.5c-.3.3-.2.7-.3.7-.2 0-.4-.3-.3-.7a.7.7 0 01.2-.4c.3-.3.8-.2.8 0zm-1-9.8l.4.2c0 .1-.3 0-.6.3-.3.2-.3.4-.5.4s-.5-.1-.5-.3c0-.4.7-.8 1.2-.6zm-.8 13.3c.2 0 .4.3.4.4-.1.2-1.2.3-1.3 0 0-.1.4-.5.9-.4zm-2.4-9.8a.3.3 0 01.2.3.3.3 0 01-.2.2c-.2.1-.5 0-.5-.2 0-.1.3-.3.5-.3zm-3.5 11.2l.2.4s-.5 0-.7-.4c-.2-.3 0-.8 0-.8l.5.8zm-.6-1.5c0 .2-.3.4-.4.3-.2 0 0-.6.2-.9v-.1c.2 0 .4.4.2.7zm0-6.3l-.7 1c-.3.2-.9.3-1 .2 0-.2 1.5-1.3 1.6-1.2zm-4.8-9.3c.1-.2.5-.3.6-.2l-.5.8c-.2 0-.2-.3-.1-.6zm-.5 7.5c.2.4.4.9.3 1-.3.2-1.8-1.2-1.7-1.5.1-.1 1 0 1.4.5zm-1-3.6s-.2 0-.3-.2c-.2-.3 0-.8.2-.8s.3.8.1 1zm-.7-5.4c.2 0 .7.3.6.7a.5.5 0 01-.3.4l-.7-.4c-.3-.3-.5-.5-.4-.7 0-.1.5-.1.8 0zm-1.6 3.8c.3.2.3.6.2.6-.2.2-.8-.2-.8-.4 0-.1.4-.3.6-.2zm-1.7 2.4c0-.1.3-1 .8-1a.5.5 0 01.4.2c.1.2-.1.4-.3 1l-.2.7-.4 1.2c-.2 0-.5-1-.3-2zm-7.7-6.4c-.3 0-.4-.4-.5-.7v-.7c.1-.1.4-.3.5-.2l.2.6.3.6c0 .2-.3.4-.5.4zm3.2 5c0 .1-.3.2-.4.1-.1 0 0-.6.2-.7.1 0 .3.3.2.5zm-.3-4.5c.4.3.4.7.4.8 0 .4-.3.8-.5.8s-.3-.2-.5-.5c-.3-.5-.5-.9-.3-1 .2-.3.6-.3 1 0zm5.2-4.4c-.1.3-.4.4-.5.3-.2-.1.2-.9.4-.9.1 0 .2.4 0 .6zm26.2-101.8c.2.1.7.3.7.6 0 .2-.6.4-1 .5-.7.2-1.7.3-1.8 0l.4-.6.5-.6c.4-.2.8 0 1.2.1zm-7.4-10.5c.1 0 .4.4.2.6 0 .1-.3.2-.4 0-.2 0 0-.6.2-.6zm-1 4.9c.3-.4 0-.8.3-1 .2 0 .6 0 .7.3.2.2.2.5.2.5 0 .7-.8 1-.8 1-.5.4-1.2.3-1.3.1 0-.2.7-.3 1-.9zm-.4 4.2c0 .4-.3.6-.4.6-.2-.1.1-1.2.3-1.2 0 0 .2.3.1.6zm-7.3-4l.5.5c.2.3 0 .5.3.9.2.4.4.4.4.6 0 .2-.3.4-.5.4-.6 0-1-2.3-.7-2.4zm-.5-3c.2 0 .4 1 .1 1.2-.1 0-.4-.1-.5-.3-.2-.4.2-1 .4-.9zm-2.8 1.8c.2-.4 0-.8.1-.8.2-.1.4.3 1.3 1.2.5.6.7.8.7 1.2 0 .2 0 .6-.2.7-.3.1-.5-.4-1.3-1-.7-.4-1.1-.6-1-.8 0-.2.2-.2.4-.5zm-1.5 3.1c.1-.2.4-.2.9-.6.3-.3.4-.5.5-.4.2 0 0 .5.2 1.3 0 1 .5 1.3.2 1.6h-.7c-.2-.1-.2-.3-.7-1l-.4-.9zm.4 7.1c0 .2-.2.6-.7.9-.5.2-1.2.2-1.3 0 0-.3.2-.7.6-.8h1.4zm-1.8-10.8c.2-.3.6-.7.8-.6.2 0 .1.4 0 .9 0 1.3.2 2 0 2l-.6-.9-.5-.7c0-.3.2-.6.3-.7zm-2.6 1.5c.5.2.7.4 1.5 1.4 1 1.1 1.3 1.4 1.2 1.6-.2.3-.8 0-1.1.3-.3.3-.1.7-.4.8-.2.1-.5 0-.7-.3-.3-.3-.2-.7-.2-1v-.8c.1-1-1.6-1.6-1.5-2 0-.2.7-.2 1.2 0zm-1 6.2s.5.3.4.6c0 .2-.3.4-.5.3-.2-.1-.2-.8 0-.9zm-2-2.3c0-.3.3-.8.6-.9.4 0 .8.6.7 1 0 .2-.3.2-.6.6l-.7.9c-.2 0-.3-.9 0-1.6zm-5-2.3h.9l.9-.7c.3-.2.8-.3.9-.2l-1 1.2-.7 1c-.7.2-1.7-.6-1.6-1l.6-.3zm1.6 2.9l-.3.4-.4.6s-.2-.4 0-.7c0-.2 0-.4.2-.5.2 0 .5 0 .5.2zm-4-3.4l.7-.1.6-.1.5-.2c0 .1-1 1.3-1.5 1-.2 0-.4-.4-.3-.6zm.3 4.5c-.2-.2.3-.9.5-.8.2 0 .3.4 0 .7-.1.2-.4.2-.5.1zm.8 9.9v-.1c.2-.2.5-.1.7 0l.2.2c.1.3-.3.6-.3.6v-.3c-.1-.3-.6-.2-.6-.4zm1 11.7c-.2.1-.5-.2-.5-.3 0-.2.6-.2.7 0 0 0 0 .3-.2.3zm1.2-6.2c0-.1.5-.2.7 0 .4.1.6.6.5.7h-.3c-.5 0-1-.5-.9-.7zm.9 3.1c-.1-.3 1-.9 1-.8 0 0-.2.1-.2.4v.6c0 .2-.8 0-.8-.2zm.8 4l-.2-1.6v-.7s.5.5.6 1.1c0 .7-.2 1.3-.4 1.2zm1.5-4.5c-.3 0-.8-.8-.7-.9 0 0 .3.2.6.1.2 0 .2-.2.3-.2 0 0 0 .9-.2 1zm.5-2.5c-.1.2-.3.7-.5.6-.2 0-.3-.5-.2-.8.2-.4.7-.7.8-.5.2 0 0 .5 0 .7zm1.9-7.2c-.3 0 0-1-.7-1.4-.4-.2-.8.1-1.1-.2-.3-.3-.2-.7-.5-.8h-.3c-.2 0-.2-.3-.4-.5-.3-.6-1.8-.5-2 0v.4c0 .4-.4.5-.4.8 0 .1 0 .3.2.3.2.1.4-.2.5-.2 0 .1 0 .6-.4 1-.1 0-.8.7-1.5.4-.7-.2-.9-1-.8-1.6l.4-.8c.3-.7.5-1 .4-1.1l-.6-.5-.5-.4c-.3-.2-.6-.5-.5-.6 0 0 .5.2 1 0 .4-.1.4-.3.8-.5.6-.4 1-.2 1.1-.5.2-.3 0-.6.2-.7l.6.3.5.3.9.7c0 .2-.6.2-1.4.6-.6.2-.8.3-.9.5 0 .3.7.7 1.4.8h1c.5 0 .6.3 1 .3.1 0 1 0 1.1-.3.1-.3 0-.7-.1-.7-.5-.7-1.4-.6-1.4-.8 0-.2.5-.4 1-.4 1.3 0 2.7 1.6 2.4 2.3-.1.2-.4.4-.7.5l-.5-.2c-.2.1-.4 1 0 1.4.3.3.6.3.7.5.2.5-.3 1.2-.5 1.1zm1.6 4c-.3.9.6 1.7.4 1.9-.1.1-.7-.3-1-.5-.3-.3-.5-.4-.6-.7 0-.5.5-1 .6-1 .4-.4 1-.5 1.1-.4.1.2-.3.3-.5.8zm.8-10.5h-.7l.8-.5c.5-.4.6-.8 1.1-1h.4v.6c0 .8 1.3 1.4 1.3 1.6l-1-.2c-.6-.3-.6-.7-1-.7-.3 0-.3.2-1 .2zm1.9 6.4c-.2 0-.6-.2-.6-.4 0-.1.2-.3.3-.2.1 0 0 .2.2.2.2.1.4 0 .4 0s0 .3-.3.4zm.5 2.1c-.3-.5-.3-1.3-.1-1.3l.7 1c.4.7.7 1.1.6 1.2-.1.1-.9-.2-1.2-.9zm2.1-3.6c-.6.4-.7.8-.9.8-.2 0 0-.4-.3-.7-.3-.3-.6-.2-.7-.4 0-.3.9-.9 1.8-.7.3 0 .7.2.7.5l-.6.5zm1-1.6c-.2 0-.3-.2-.3-.3-.2-.2-.1-.4-.2-.5-.2-.3-.6-.3-.6-.4 0-.2.2-.5.4-.5.4 0 .8.4.9.8 0 .4-.1.9-.3.9zm.8 3.6c-.1.2-.7.1-.7 0l.2-.2.2-.2c.2 0 .4.3.3.4zm-.5-8.9s-.2-.5-.1-.6c.2-.1.7.8 1.4.7.3 0 .6-.3.7-.5l-.2-.7s.4.2.6.5c.1.2.3.3.2.5 0 .3-.5.1-.8.5-.3.3 0 .6-.3.7-.3.2-1.2-.3-1.5-1.1zm1.7 8.3c-.2 0-.4-.4-.4-.7.1-.8 2-1.4 2.2-1 .2.2-1.1 2-1.8 1.7zm1.7-5.2c-.2.3-.5.1-.7.4-.3.3-.1.5-.3.7-.3.2-1-.1-1-.4-.1-.2 0-.3.4-.6 1-.7 1.4-1 1.6-1 .2.2.2.6 0 .9zm1.4 2.6c-.6-.5-1-.5-1-.8 0-.1 0-.3 1-.7.5-.3 1.8-1 2-.9l-.3.5c-.3.4-.2.9 0 1.6.1 1.2.2 1.8 0 2l-.9-.8-.8-.9zm1.4 3.7c-.7-.3-.9-1.3-.7-1.5.3-.2 1.7 1 1.6 1.4-.1.2-.6.2-1 0zm1.1-13.5l-.4.5c-.3-.1.1-1.6.3-1.6.1 0 .3.6.1 1.1zm.3-2.5c0 .2-.1.5-.3.6-.3 0-.5-.3-.6-.5v-.7c-.2-.5-.6-.6-.5-.8 0-.1.8-.1 1.2.3.4.5.2 1 .2 1.1zm.2 9.4c-.1 0 0-.4.3-1s.5-.9.7-1a.4.4 0 01.3 0c.3.2.3.7.3.8l-.1.8c-.4.6-1.3.7-1.5.4zm1.8 3.7l-.1.5c-.1.1-.4 0-.6-.1-.2-.3 0-.8.4-1h.4l-.1.6zm.3-1.7c-.1 0 .1-1.4.6-1.4.3 0 .6.5.5.7l-.6.1c-.4.2-.5.7-.5.6zm2.3 3.6c-.4.5-1.1.8-1.5.5-.3-.2-.3-.7-.3-.8 0-.3.2-.5.7-1.1.5-.8.8-1.1 1-1 .2 0 .3.6.3 1.1 0 .7 0 1-.2 1.3zm2.5-3.3c-.6.3-1.7-.5-1.6-1 0-.3.3-.3.4-.8.1-.2.2-.4 0-1 0-1-.1-1.5-.3-1.9-.4-.7-.8-.6-1.2-1.3-.4-.8-.3-1.7-.1-1.7.1 0 .2.5.8 1.1l.5.6c.3.2.8.8 1.2 1.6l.5 1.7.3 1.3c0 .3 0 1.2-.5 1.4zm.4-6.4s-.4-.2-.3-.6c0-.1.3-.3.4-.2.2 0 .1.8 0 .8zm0-5.7l-.2.1c-.3.2-.3.5-.5.8 0 0-.1.4-.5.7-.4.4-1 .7-1 .6l.1-.7c.1-.4.2-.6.1-.7-.1-.3-.7-.2-.7-.3 0-.2.8-.5 1.2-.7l1.1-.4c.9-.3 1-.5 1.5-.7h1.3l-.6.4c-.5.4-.4.5-.7.6-.4.2-.6 0-1 .3zm.8 9.4c0-.2.8 0 1 0 .1.1.5.2.5.4s-.3.4-.7.4c-.5 0-.9-.6-.8-.8zm3.2 3.5c-.4 1.3-2 1.8-2.2 1.6-.1-.2 1.1-1.4.9-1.7-.2-.2-.5 0-.9-.3-.2-.1-.4-.4-.3-.6 0-.4.7-.5.8-.6h1c.4-.2.4-.4.6-.4.3 0 .5 1.1.1 2zm.4-10.6c.3-.2 1 .1 1.3.6.3.7 0 1.6-.5 1.7-.3 0-.7-.8-.9-1.4 0-.2-.1-.7.1-.9zm1.1 4.6c0 .3-.3.6-.6.6s-.5-.5-.5-.5c-.2-.5 0-1.1.4-1.2.3 0 .8.6.7 1.1zm.7 3.9h-.3c-.3 0 0-1 .1-1 .2 0 .4.7.2 1zm15.7-37.3c.2-.1.9.5.7.9l-.2.1c-.3 0-.6-1-.5-1zm-.1 23.5l.5.7c.3.5.7.7.7.8h-1a1 1 0 01-.4-.7c-.1-.4 0-.8.2-.8zM149.2 73c.5-.3 1.1 0 1.2.2l-.4.4c-.3.1-.4 0-.8 0l-.5.4s0-.8.5-1zm-2.2.5c.1 0 .4.3.3.6l-.3.2c-.2 0-.1-.8 0-.8zM144.2 96l.6.3c.2.2.4.3.5.6l-.1.3c-.2.2-.5.2-.7 0-.5-.2-.5-1-.3-1.2zm-3.3.8c.1-.1.3 0 .4 0 .5.4.4 1.3.3 1.4l-.3-.4c0-.2-.5-.9-.4-1zm-.7 14c-1.3.4-1.5 1-2.5 1-.4 0-1-.2-1-.4 0-.3.5-.4 1.5-1 1.2-.9 1.2-1.3 1.8-1.4 1 0 2 1 2 1.4-.2.3-.8 0-1.8.4zm-2.2-3.2c.1-.1 1 .4.8 1l-.6.5-.4.2c-.1 0-.2-.2-.1-.3 0-.3.3-.3.4-.5.2-.4-.2-.9-.1-1zm0-2c-.7.4-.7.6-.9.6-.2 0-.3-.5-.2-.8l.4-.2c.4-.2.9 0 .9.1l-.3.3zm1.7-2.7l.8.2h.5c0 .1-.4.6-.8.5-.4 0-.6-.6-.5-.7zm1-.9l-1-.4c-.2 0-1.2-.2-1.4.1v.3c-.1.4-.3.8-.6.9-.2 0-.2-.3-.8-1-.5-.6-.6-.6-.6-.8 0-.6 1-1.2 1.2-1v.7c.2.1.6 0 .8-.4.2-.3.1-.6 0-1.2l-.7-2 1 1.6c.1.4.4.7.6 1v.3l.4-.2c.3-.4-.1-.9 0-1 .2-.1.7.4.8.5.6.6.5 1 .9 1.3.8.6 2 0 2.2.3.2.4-.6 1.3-1.5 1.4l-1.3-.4zm2.9 5.1c-.3.2-.8 0-.9-.3l.3-1c.3-.6.3-.8.5-.8s.4.7.4 1.3c0 .3 0 .7-.3.8zm.4-4.1s-.3-.1-.3-.3c0-.1.4-.3.7-.3.2 0 .5.3.5.4 0 .2-.5.3-.9.2zm2.5 7.2c-.5.2-1.2 0-1.2-.4 0-.2.4-.2.8-.8.2-.5.3-1 .5-1h.2c.4.4.4 1.9-.3 2.2zm.6-6.7c0 .5-.4.8-.7.8l-.2-.4c0-.3.1-.4 0-.8v-.5c0-.2.3-.2.5-.2.3.1.5.7.4 1.1zm.3-2.6s-.4 0-1-.4c-1.5-.7-1.6-.8-1.5-.9 0-.2.4-.3.8-.3 1 0 1.8 1.5 1.7 1.6zm.6 4c0-.2.5-.5 1-.4.2 0 .4.2.4.3 0 .2-1.3.2-1.4 0zm2.7 3.1c0 .1-.4 0-.6-.2v-.6c.1 0 .8.7.6.8zm1-1c0-.2.4-.5.8-.4.2 0 .3.3.3.4-.1.2-1 .2-1 0zm-.2-2.6l.6.2h.5c0 .2-.1.4-.3.5-.4.1-1-.6-.8-.7zm1.2-4c-.7.4-1.4 0-1.7.5v.5c0 .2.4.2.8.2h.6c0 .2-.4.7-.9 1l-.7.4c-.5.4-.5.8-.7.8-.2 0-.4-.4-.4-.7v-.4c0-.2-.2-.3-.4-.6-.2-.4-.3-.8-.2-.9.2 0 .5.4.7.3.2 0 .3-1-.2-1.8-.4-.5-.9-.5-1.4-1.2-.1-.3-.3-.6-.2-.8.2-.3.8-.2.8-.5 0-.2-.4-.4-.4-.5 0-.2 1 0 1.7.3.5.2.6.4.7.5l.2 1v1.5l.6-.1.9-.1c.4 0 .5-.2.6-.1 0 0-.1.4-.4.6zm3.8 4.7c-.2.2-.7 0-1 0-1-.5-2-1.6-1.8-2 .2-.4 1-.3 1.1-.2.9 0 1.5.7 1.7 1.3 0 .2.3.7 0 1zm4 .1s-.5-.1-.6-.5c-.2-.4.2-1 .3-1 .3 0 .6 1.3.4 1.5zm2.7-.4c-.2.4-.1.7-.2 1-.2.6-1.3 1-1.6.7-.2-.2 0-1 .5-1.4.5-.6 1.3-.9 1.4-.8l-.1.5zm-.3-3l-1.1.1c-1.2.1-1.6.2-2.2 0-.1 0-.5-.2-.5-.4 0-.1.4-.1.6-.4.3-.4.2-1 .2-1-.2-.8-1.2-1-1.1-1.2s1 0 1.6.6c.5.6.2 1.2.7 1.6.3.2.8.3 1 0 .4-.3-.2-1.3 0-1.5.3-.1 1.1.3 1.3 1 0 .4-.1 1-.5 1.2zm2.7 2.7c-.3.3-.9.2-.9 0s.7-.7 1-.5l-.1.5zm0-3.8s.3-.3.6-.3c.4-.2.8 0 .8.2 0 .1-1.3.3-1.3.1zm3.2 9c-.4-.3-.5-.6-.7-1.1-.2-.5-.4-.8-.3-1.2 0-.4.1-.8.3-.8l.2.5.4.7c.3.7.1.8.4 1.4.2.4.5.6.4.7 0 0-.4 0-.7-.2zm.8-3.8c-.2 0-.9-.6-.8-.8.1 0 .8.1.8.5v.3zm.9-4.4c-.7 0-1.3-.7-1.2-.9.1-.3 1.9.1 1.9.5 0 .2-.4.4-.7.4zm1.3 10.7l-.4-.1c-.3-.3 0-.9.2-.9s.4.8.2 1zm9.6-6.2s-.2.3-.4.3c-.5.2-1-.1-1-.3.1-.2 1.3-.2 1.4 0zm-5-5.6c0-.3.9-.5 1.4-.2.3.2.7.6.5 1a.8.8 0 01-.6.6c-.7.1-1.5-.9-1.4-1.4zm-2.1 3l.4.3c.2.3 0 .6 0 .7-.3.2-.6.3-.8.2-.2-.2 0-1 .4-1.1zm-1.1 5.6c-.1 0-.4.2-.5.1l-.1-.4-.1-.7c.1-.2.5-.3.7-.1.3.2.3.8 0 1zm.2-3.5c0-.1.3-.5.5-.4v.5h-.5zm1.4 10.4c-.2.1-.9-.3-.9-.8 0-.4.3-.9.5-.8.2 0 .2.3.3.8.1.5.2.7 0 .8zm-.2-4c-.7.5-.7 1.5-.8 1.4-.3 0-.2-3.7.2-3.7l.4.7c.1.5.1.6.3.8.2.1.6.2.7 0 .2 0 0-.3-.1-1-.3-.9-.4-1.4-.3-1.4.1-.1.4.4 1.2.8.8.4 1.4.4 1.4.5l-.5.3c-.6.4-.3 1-.8 1.4-.5.4-1-.1-1.7.3zm3 2.7a.4.4 0 01-.3.2l-.6-.3c0-.3.6-.5.8-.4v.5zm0-1.5c0 .1-.5 0-.7-.2l-.2-.6v-.3c.2-.1 1.1.8 1 1zm.4-4.7c-.4-.2-1.5-.7-1.4-1.4 0-.4.4-.8.8-.8s.5.4 1.3 1c.7.6 1.3.8 1.2 1l-.4.2a2.6 2.6 0 01-1.5 0zm1.3 2.7c-.2-.2-.3-.6-.1-.8 0-.2.1-.2.6-.3l1-.5c.5-.3.6-.3.6-.2.2 0 .1.4 0 .7-.1.2-.3.1-.5.3-.3.3-.2.5-.4.7-.3.3-.8.4-1.2 0zm2.2 1.6c0 .1-.2.3-.3.2-.3 0-.4-1-.1-1.2.1-.1.4 0 .5.2.2.3 0 .6 0 .8zm.6-13c-.2-.2-.4-.4-.4-.6v-.3c.3-.3 1.6.4 1.5.9 0 .2-.3.4-.5.4s-.4-.2-.6-.4zm1.2 2.3c.4-.7 1.2-.9 1.4-1 .3 0 1-.2 1 0 .3.4-.3 1.2-.5 1.4-.2.2-.7 1-1.6 1l-.6-.1c-.2-.3 0-1 .3-1.3zm1.4 3c-.1.2-.8-.3-.8-.5h.7c.2.2.2.5.1.6zm-.5 8.4c-.1.2-.4.6-.6.6-.2 0 0-.9-.2-2-.2-.7-.5-1-.3-1.2h.6c.3.2.4.5.5 1 .1.4.3 1 0 1.6zm1-6.2c-.7.4-.8 1-1 1-.4 0-.7-.8-.4-1.4.2-.3.6-.6 1-.6.6 0 1.1.5 1 .8l-.6.2zm4 2.4c.3-.5.2-1 .3-1 0 0 .3.5.2 1-.1.6-.6 1.1-.8 1v-.2c-.1-.3.2-.4.4-.8zm-1.5-9c.3-.2.8-.5 1-.3.2.2-.4 1.6-1.4 1.7-.2 0-.6 0-.7-.2-.1-.3.6-1 1.1-1.2zm.1 5.1l-.2.2c-.2-.1-.2-.8 0-.8 0 0 .4.4.2.6zm-1.7 6.5c0-.1.7-.1 1 .3.2.3.2.8 0 .9l-.3-.3-.2-.4c-.2-.4-.5-.5-.5-.5zm3.7.6c-.1.8-1.5.7-2.2 2l-.3.6a5 5 0 01-.7 1.2c-.1 0 .3-1.7 1.3-3.2.3-.5 1-1.6 1.5-1.5.3 0 .5.5.4.9zm0-9.9c-.3 0-.5-.4-.4-.5l.4.1c.1 0 .2.1.2.3l-.2.1zm.3-2c-.1-.2.5-1 .7-.8v.6c-.2.3-.6.3-.7.2zm1.3 5.6h-.4v-.4l-.2-.4.2-.2c.2 0 .6.8.4 1zm7.4 2.8c.1-.2.5.2 1.2.1h.6s-1 1-1.5.7c-.3-.2-.5-.7-.3-.8zm-1.4-7l.1-.3c.1 0 .3.5 0 .8-.1.2-.5.3-.7.1v-.3c0-.2.4 0 .6-.2zm-2 1.4c.4-.1.6 2 2 2.7.6.2 1.2.3 1.2.5l-.4.3-1 .4c-.2 0-.3-.3-.7-.8-.7-.9-1.1-.8-1.4-1.4-.3-.7 0-1.7.3-1.7zm-.8 4.9l.6.7.6.6c0 .2-.5.2-.9 0-.5-.3-.5-1.2-.3-1.3zm-.7-2c.2.2.2.5.1.5l-.4-.5h.3zm-1.5 2.6l-.2.5-.3.4c-.1 0-.3-.2-.3-.4 0-.4.8-.6.8-.5zm7 8c-.4.4-1.8-.6-1.7-.9l.5-.2c.4-.3.3-.7.6-.8.3 0 .7.4.8 1 0 0 .2.6-.1.9zm1.2-4.5c-.3.7-1 .4-2 1.4-.3.3-.5.6-.7.6-.2-.1 0-.6-.3-1-.4-.7-1.3-.8-1.5-.8l-1.3.1-1.5.4c-1 .5-1.5 1.3-1.7 1.1-.1 0 0-.7.3-1.1.3-.6.8-.6 1.2-1.2.3-.5.2-.9.4-1 .3 0 .5.8 1.1 1 .5.2.8-.2 1.8 0l.9.1c.4 0 .4-.1 1.3-.4.6-.2.7-.1 1-.3l.4-.6c.3 0 1 1 .6 1.7zm.9-10.3c0 .1-.4.7-.8.6a.4.4 0 01-.2 0c-.2-.2 0-.5-.1-.8-.1-.4-.4-.6-.3-.7h.8l.8.1c.1.2-.1.6-.2.8zm2.7-1.8l-.2.3c-.3 0-.7-.3-.6-.4l.8.1zm-1.9 4.4c-.2 0-.4-.4-.3-.5h.5s.4 0 .4.2-.3.4-.6.3zm2.3 7.7c-.1.2-.4-.2-1-.2-.5 0-.7.2-.9 0-.2-.2 0-.6 0-.7 0-.2.1-.4.3-.5 0 0 .3-.2.5 0 .2 0 0 .3.3.5.3.3.6.2.8.4v.5zm1.6-6.8c0 .2-.2.5-.3.5-.1 0-.4-.5-.3-.9.2-.2.5-.4.6-.3.2 0 0 .6 0 .7zm9.1-5.5h.6c.3 0 .4.2.6.7.2.3.5.8.3 1h-.4c-.8-.2-1.3-1.3-1-1.7zm-.2 5.7c.4 0 1 .6 1 .9-.1.2-.6.2-.8 0-.1 0-.4 0-.5-.3 0-.3.2-.5.3-.6zm-.8 1.6v-.4s.5 1 .2 1.6c0 0-.2.3-.5.4-.5 0-1-.4-1-.7.1-.4 1-.3 1.3-.9zm-6.6 5.6c-.4.3-.9.5-1 .4l.6-.6.6-1 .7-.3c.2.1-.2 1-.9 1.5zm1-4.7l-.2-.5c-.2-.6-.2-.7-.1-.7 0 0 .5.2.5.6 0 .3-.2.6-.3.6zm.4 7c-.2 0-.4-.5-.3-.6h.7c.2 0 .3-.3.4-.3 0 0-.4 1-.8.9zm1.3-2.9c0 .1-.4 0-.5-.3-.3-.5.2-1.2.3-1.2 0 0-.1.3 0 .8 0 .4.3.7.2.7zm-.1-2.8l-.2-.4c-.1-.2-.4-.1-.4-.2 0 0 .5-.3.7-.1.2.2 0 .7-.1.7zm-.2-5.4l-.7-.4c-.6-.2-.8 0-1-.2-.4-.4 0-1.3 0-1.4.5-.9 1.4-1.4 1.5-1.3 0 0-.4.5-.3.8.1.5 1.2.4 1.3.8 0 .3-.6.5-.6 1 0 .2 0 .4.2.5.3.2.7 0 .8 0l-.2.3c-.1.4.4.7.3.9h-.6c-.4-.2-.3-.6-.7-1zm1 10.2v-.4c.2-.1.8.3.8.5 0 .1-.6.2-.7-.1zm.7-8.6c0-.2 0-.5.2-.6.4-.2 1 .2 1 .6 0 .2-.2.3-.4.4-.3.1-.7-.1-.8-.4zm.7 7.2c-.1 0 .2-.7.6-1.1.2-.2 1.1-1.1 2.1-.9.6.2 1 .6 1 .7.4.6.2 1.3.2 1.4 0 .3-.2.7-.5.8l-1-.5c-.7-.6-.7-.8-1-.9-.7 0-1.3.6-1.4.5zm44.3 25.2l-.7-.4c-.7-.5-1.1-.6-1-.7l1-.2c.3-.3.2-.7.4-.7.3 0 .7.5.7 1 0 .4-.1.9-.4 1zm2.3 2.2l-.1.4c-.3 0-.6-.4-.8-.8-.1-.2-.3-.5-.1-.7.1-.2.7-.2 1 0 .2.2.1.8 0 1.1zm.9-3.6c-.4 0-.7-.4-.7-.8s.5-.7.6-.6v.7c.2.4.7.5.6.6 0 .1-.3.2-.5.1zm1.1 4.2c-.1.1-.6 0-.8-.3-.3-.4-.1-1 0-1.1.4 0 1 1.1.8 1.4zm.3-2.3c0 .2-.4.3-.6.2v-.7-.5c.3 0 .9.6.6 1zm3.4.7c-.1 0-.3 0-.5-.2-.5-.4-1.2-1.3-1-1.6l1-.1h.3c.1 0 .2 0 .2 1.2v.7zm3.8 2.9l-.5-.2c-.2-.2-.4-.5-.2-.7 0-.2.3-.4.5-.3l.2.5c.1.5.4.7.3.8l-.3-.1zm.6-2.7c-.2.2-.6.1-.7-.1a.4.4 0 010-.4.4.4 0 01.7 0v.5zm-45.7 98.2h-2l-.4-.5c-.3-.3-1-.4-1.1-.2-.2.2.2.6.2 1.4 0 0 0 .5-.3.5-.2.1-.3-.3-.8-.7a3 3 0 00-1.3-.6h-1l.1.3v.3c-.3.3-.8.2-1.2 0l-.6-.5c-.5-.2-1.1-.4-1.3-.1v.6c-.1.2-.4.4-.7.3-.5 0-.8-1-1-1l-.3.5c-.1.1-.4.4-.7.4-.3 0-.2-.4-.6-.7-.4-.2-.8-.2-1.2-.2-.2 0-.5 0-.5.2s.4.3.4.7c0 .3-.3.5-.4.6-.3.2-.8 0-1 0-.5-.2-.5-.6-1.2-1-.2 0-1-.6-1.4-.3-.2.2 0 .4-.4 1 0 0-.3.4-.4.3-.2 0-.2-.2-.3-.3-.3-.4-1-.1-1.7-.1s-.7-.2-2-.4c-.9-.2-2-.4-3.2 0-.7.2-.5.4-1.3.7a7 7 0 01-3.1 0c-.7 0-1.3-.2-1.3-.2-4-1-24 1.5-26 .6-.2 0-1-.4-1.2-.1-.2 0-.1.2-.3.4-.3.2-.9.2-1.1 0-.3-.2-.2-.4-.4-.5 0 0-.2-.1-1 .3-.6.2-.6.3-1 .6l-1.2.4c-.4 0-.6-.1-1.3-.4-1.1-.6-2-.8-2-.7l.1.4a.6.6 0 010 .4c-.4.5-.6.8-.9.9-.4.2-1-.1-1.8-.7-.8-.4-1-.7-1.4-.6l-.5.5a1.4 1.4 0 01-.9.3c-.5 0-.6-.4-1.1-.7-1-.4-2.1 0-2.4.2-.7.3-.7.6-1.5.8-.4.2-1 .4-1.4 0-.3-.2 0-.7-.5-1-.3-.2-.6-.1-1.3 0-.3 0-.5.1-.8.3-.4.2-.4.4-.7.6-.6.2-1.4-.3-1.6-.4-.3-.2-.2-.3-.5-.4-.8-.5-1.7-.4-1.7-.3l.2.2-.1.3c-.3.2-.8 0-1-.1l-.8-.3s.2.2.1.4c0 .3-.4.6-.8.5-.3 0-.4-.4-.8-.7-.4-.3-.8-.3-1.4-.4-.2 0-2 0-2.2.5-.3 1.2 13 6 15.4 6.7.8.2 2.2.4 3 1 .2.1.4.4.9.4h1l.6.2 1 .5c.4 0 .6-.1 1-.4.4-.2.5-.3.6-.2.2 0 .5.1.8.7.1.2.3.3.6.4 1.3.8 2.8.5 3.4.4.7 0 .9-.2 1-.4 0-.2-.2-.5 0-.5 0-.1.3 0 .5.2.3.3.2.8.2 1a101.2 101.2 0 0043.4-3.2 54.1 54.1 0 0020.1-9 1.2 1.2 0 00-.3-.1zm-80 5.5c-.3 0-.5-.2-.5-.4a.3.3 0 01.2-.2c.2-.1.5 0 .6.2 0 .2-.2.4-.4.4zm3.2 1.4l-.2-.2-.4-.4c0-.1.5 0 .7.2l-.1.4zm15.8 4l-.4-.4c-.2-.4-.2-.8 0-.8l.4.6c0 .1.2.5 0 .5zm40.4-8.4v.5c-.2 0-.5-.4-.3-.8 0-.2.3-.4.4-.3v.6z" fill="#fff"/></g></mask><linearGradient id="f" gradientUnits="userSpaceOnUse" x1="190.2" y1="294.3" x2="190.2" y2="94.4" gradientTransform="matrix(1.1759 0 0 1.2637 -48.6 -79.3)"><stop offset=".3" stop-color="#c9eaed"/><stop offset=".5" stop-color="#ceecef" stop-opacity=".7"/><stop offset=".7" stop-color="#dbf1f3" stop-opacity=".5"/><stop offset=".9" stop-color="#f2fafb" stop-opacity=".1"/><stop offset="1" stop-color="#fff" stop-opacity="0"/></linearGradient><path d="M292.5 292.5h-235V40h235v252.5z" opacity=".4" mask="url(#e)" fill="url(#f)"/><g><path d="M294 162.7l-22.3-20-16.9-3-8.4-7.8-20.2-1.5-8.2-14-44.6-.5-11.4-10.3-47.3 11.2L89 141.1l-27 6.6L44.4 163v3.7l-15 3.7v1.4l-7.5 1.8v2.5l7.5 1.6.5 3.5 7.7 3.2 5 2 4.6 4.8 43 1.4 3.6 6.5 30.2 4 4.2 5.9 17.3 6 19.4 18.5v9.7l-6.5 16a17.8 17.8 0 00-7 1.8 17.9 17.9 0 00-6.2 5.1l-35-4.2-29.8 8.6-12.4 4.1-25.7 8.3-10 8.8-3.6 10.6 3-1.7L35 294l7.5-5.3 23-.2a1355.8 1355.8 0 0124.8-7.3 107.2 107.2 0 0118.3-2.3l.7.3c.1.3-.4 1-.4 1l-16.7 13.5-9.1 4.5a42.6 42.6 0 01-12 3l2.3 2.9 13.8-.7a782.1 782.1 0 0017-9.3c8.3-4.6 10.6-6.1 15.7-8.3a195.5 195.5 0 0119.8-6.9l21.7.4L207 295l11.8 10 2.2 8.6 3.1-2.7v-10.5l-6.4-9-7.6-3.8 1.6-3 18.3-2.4 20.4.2 3.1 1.5 22.8 22 7.3 1.5 9-6.5.4-3-9.2 2.7-3-.8-12.5-19c-.8-1-1.1-1.7-.9-2.2.4-.8 2.9-.5 7.3.9l.8-8.6-19.2-1-3.7-1.2-33.1 1a26.4 26.4 0 00-5.1-2.2 26.6 26.6 0 00-9.4-1.3 4294.7 4294.7 0 01-11.3-7.1l-1.7-5.8-1.8-5.7 1.7-6.8-.3-7.7-3.1-5.6.1-7.8 4.4-8.7 19.2-1.1a591.6 591.6 0 0027.6-17.7l19.2-1.1 3.6-8.5 36-.2 2-2.7 14 .2 1-3.2 13.3-5 .1-2.2-35-6.9zM96 195.3l-1-2.7 22.2-.6 2.3 4-23.5-.7zm35.9 8.5l-7.9-13 5-2.3 5.6 6.4 10 5 1.1 5.7-13.8-1.8zm27.2 4.4l-1 3.7-4.2-1.6-5.5-17.6 1-7 5.1-.8 2.5 2.9-.4 15.2 2.5 5.2zm49.7-6.8l-12.5.8a35.7 35.7 0 0112.2-11.2l19-1.3-18.7 11.7zm46-15.3l-8.8 1 5.7-6.4 5.8-.1-2.7 5.5z"/><path d="M40.1 271.2l5.8-3.7L60 275v-10.9l-13-3-7.5 8.8.6 1.2zm87.6 38l3 .9.6-2.8 3-4.6L155 290h-22l-5.3 11.5v7.7zM237.9 290l8.9 13.4 10 2 4.2 3.6h4.5l-2.7-5.4-8.5-3.9-3.7-9.7H238zm52.1-12l11.2-6 3.9-14.4h-2.5l-6.4 7.2-6.2.4v12.9z"/></g></g></switch></svg>