<svg xmlns="http://www.w3.org/2000/svg" xmlns:xlink="http://www.w3.org/1999/xlink" viewBox="0 0 350 350"><switch><g><path fill="#fff" d="M60 60h230v230H60z"/><path d="M69 70h212v211H69z"/><path fill="#723390" d="M79 79h193v193H79z"/><g opacity=".3"><defs><path id="a" d="M79 79h193v193H79z" opacity=".3"/></defs><clipPath id="b"><use overflow="visible" xlink:href="#a"/></clipPath></g><path d="M60 221c-2 5-3 10-6 14l3 1 2-1a173 173 0 0015-6 176 176 0 0010-5l2-1 2 2a811 811 0 013 4l8 9 1 1a11 11 0 002 3l2 1-1 2h2l1 1 2 4c1 1 3 2 4 0a103 103 0 0115-11c-4 5-10 9-14 15l8-7 4-3a12 12 0 013-4l11-7a42 42 0 006-4l3-1 4 1 8 2 3 1v2l2 6v2l3 9 2 3v1h1l2 4 1 4c3-3 6-6 10-7l8-3c4-1 5-4 9-6l5-2 4-3 1 2v-4h3l1-2c1-2 4-1 5-2s2-3 4-3l1 2 3 1v2l3 2 6 4 9 8 19 14 23 19a57 57 0 01-12-23l-1-10c-1-5-3-9-7-13l6-3 6-2 13 1a4 4 0 01-3 3c7 1 14 5 22 6l-4-8v-3l2-2-3-6v-10l-2-40-1-39v-5l-1-5-7-2-10-2c-2 0-6-1-7-3l-1-4c-1-2 0-2 1-4l14-9a19 19 0 00-6 1l-3 2-8 2a46 46 0 012-1l7-4-6 1-8 3-7 1-5 2-6 1h-3c-4 2-9 2-10 2l-12 1h-5l-1-4-2-4-1-2-1-2h-6l-2 1-2 1-5 2h-1l-1 1-2 2h-7l-7 2a24 24 0 01-15 0 4 4 0 002 4c-2 0-7-2-9 0-2 1-2 2-4 1-2 0-3-2-3-4h-4c-1-1 0-2 1-2a34 34 0 00-3-2l-4-1-2-1-6-3c1 1 3 7 0 8h-1c-3 1-5-2-6-3l-1 1a4 4 0 00-2-2h-2l-1-2-2-2-4-1-1-3a12 12 0 00-5 4 9 9 0 00-6-1 3 3 0 000-2l-3-1-5-2a21 21 0 01-4 6 21 21 0 01-2 2l-2 2 1 2c0 2 0 0-1 1l-4 2-2 3-4-2a140 140 0 01-11-7l-3-2-3 2a34 34 0 00-3 3l-1 3c0 2 1 2-1 3a33 33 0 01-11 11c-1 1-2 0-1 2v5l2 9 11 80zm208-113h4v1h-3l-1 1-4 1 4-3zm-33 8c-1-2 9-2 10-2a9 9 0 002 0l3-1c2-2 5-2 6-1l-5 2-5 2h-11zm-6 118h2l1 2c0 1-5 0-3-2zm-10-121c2 1 1 3 1 4l-2-3s-1 0 0 0l1-1zm-15-6h7l-4 1a14 14 0 00-3 2 26 26 0 000-3zm-12 141c1-3 4-4 7-5-1 2-2 5-4 6h-2l-1 1v-2zm-9-135c2-2 5-1 8-2 0 2-2 2-4 2l-6 2a14 14 0 012-2zm-10 134c2 2 2 5 3 7v3c0 1 0 3-1 2l-2-6v-6zm-23-136l3 2h-1l-2-2zm-14 121l4-4 4-5 11 3c0 2-9-1-10 0-2 0-3 2-4 4 0 0-5 4-6 3l1-1zm-26-130l3 2c1 1 0 2-1 2-3 0-5-2-5-4h3z"/><path fill="#fff" d="M40 126h271v99H40z"/><path d="M47 132h257v86H47z"/><path fill="#fff" d="M132 137h62l-62 76H69zm84 0h30l-62 76h-31zm50 0h16l-62 76h-18z"/><circle cx="271.5" cy="119.5" r="8.9"/><path fill="#fff" d="M272 114a5 5 0 100 11 5 5 0 000-11zm0 8a2 2 0 110-5 2 2 0 010 5z"/><circle cx="175" cy="119.5" r="8.9"/><path fill="#fff" d="M175 114a5 5 0 100 11 5 5 0 000-11zm0 8a2 2 0 110-5 2 2 0 010 5z"/><circle cx="78.8" cy="119.5" r="8.9"/><path fill="#fff" d="M79 114a5 5 0 100 11 5 5 0 000-11zm0 8a2 2 0 110-5 2 2 0 010 5z"/><circle cx="78.8" cy="230.2" r="8.9"/><path fill="#fff" d="M79 225a5 5 0 100 10 5 5 0 000-10zm0 8a2 2 0 110-5 2 2 0 010 5z"/><circle cx="175" cy="230.2" r="8.9"/><path fill="#fff" d="M175 225a5 5 0 100 10 5 5 0 000-10zm0 8a2 2 0 110-5 2 2 0 010 5z"/><circle cx="271.5" cy="230.2" r="8.9"/><path fill="#fff" d="M272 225a5 5 0 100 10 5 5 0 000-10zm0 8a2 2 0 110-5 2 2 0 010 5z"/></g></switch></svg>