<svg xmlns="http://www.w3.org/2000/svg" viewBox="0 0 350 350"><switch><g><path fill="#fff" d="M60 60h230v230H60z"/><path d="M70 70h211v211H70z"/><path fill="#1b3652" d="M79 79h192v192H79z"/><radialGradient id="a" cx="175" cy="175" r="96" gradientTransform="matrix(0 -1 1.75 0 -131 350)" gradientUnits="userSpaceOnUse"><stop offset=".4" stop-color="#4fa0e2"/><stop offset="1" stop-color="#3a6082" stop-opacity="0"/></radialGradient><path fill="url(#a)" d="M79 79h192v192H79z" opacity=".5"/><radialGradient id="b" cx="175" cy="175" r="96" gradientTransform="matrix(1 0 0 1.25 0 -44)" gradientUnits="userSpaceOnUse"><stop offset=".6" stop-color="#4fa0e2"/><stop offset="1" stop-color="#3a6082" stop-opacity="0"/></radialGradient><path fill="url(#b)" d="M79 79h192v192H79z" opacity=".6"/><path d="M93 208l-4 4-4 3-3 3-4 4-5 2-4 3c-1 1-2 3-4 3l-4 3-5 2-5 3 5-4 5-4 5-3 5-4 4-3 4-4 5-2 4-3 5-3zm2 3l-4 4-4 4a309 309 0 01-4 4l-4 5-4 3-5 4-4 5-5 3-5 3-4 4 4-3 4-4 4-3 4-4 3-4 5-3 3-4 4-3 4-4 4-4 4-3zm-36 51l4-4 4-4 3-4 5-4 4-3 3-4 4-3 5-3-4 3-3 4-4 4-4 4-4 3-4 4-5 4-4 3zm12-16a81 81 0 009-8l4-4 4-4 4-5 3-4-4 4-4 4-5 4-4 5-3 4-3 4zm-10 26l4-4 5-4 5-3 4-5 5-3 5-5 4-4 4-5-3 1-4 4-4 4-5 4-4 3-4 4-4 5a358 358 0 00-4 4l-4 4z"/><path d="M73 254l5-2 4-3 5-3 4-2 5-4 4-2 4-3 4-4 4-2-2-1v-2l-2 4-3 3-5 3a86 86 0 01-5 3l-4 1-5 3-4 4-5 3-4 4zm28-24l3-5 4-4 2-5a29 29 0 00-5 7l-2 4-2 3z"/><path d="M108 229l2-4 3-3 4 3 3 4-2 1-5 1 1 4c-1 4-5 7-5 7l1-5v-4l-2-1v-3zm-14 24l2-2a10 10 0 003-4c0-1 0-3 2-4l5-4-5 4-4 4-2 3-1 3zm7-3l4 1c2 0 4-1 5-3l5-5 4-5a83 83 0 014-4l5-3-3 2-4 2-4 3c-1 2-1 4-3 5l-3 3a23 23 0 01-10 4zm-18 46a39 39 0 014-12l4-5 5-5-4 6-3 5-3 6-3 5zm17-20l3-4 3-5 4-4 4-5 4-5 4-5 4-5 4-4 4 3 5 3-4 4-3 5-2 4-4 3-2 5-2 4-4 3-3 4 3-5 2-5 3-5 3-4-2 1-4 3-4 4-3 4 3-6 4-5 4-7-5 3-4 4-4 5-4 4-3 4-4 4zm46-23a10 10 0 011 6l-2 8v3l1-4 3-6 2-5-6-2zm83-179l4-7 2-5v-5l-3 6-3 5-3 4 3 2zM83 172h5l4-2a29 29 0 0010-6l-5 2-5 2a175 175 0 00-5 2l-4 2zm3 5l7-3 7-4-5 2-5 1-4 3zm5 19c-1 0 0-4 2-6l5-4-2 6-5 4zm4 6c-1-1-1-3 1-5a6 6 0 014-2l-1 3-4 4zm162-70l2 2 1-2 5-1 6 1 5 1a9 9 0 01-2 5c-3 2-5 2-8 2l-5 3-4 4v-5-10zm1-4l6-3 5-4 5-3 5-3 5-4 4-2 4-3 5-3 4-3c-1-1-3 0-6 2l-5 2-5 2c-2 0-3 2-5 3l-5 2-4 3-5 2-4 3-4 3v6zm12-21l-4 4-4 3-3 3 1-5a175 175 0 015-2l5-3zm-11-1l5-4 4-3 4-4 4-3 5-3 3-5 4-3 4-4-5 3-5 3-4 4-5 3-4 4-5 3-5 3v6zm2-28l5-3 4-4c1-2 3-3 6-4 2-2 5-3 5-2l-5 5-5 4-4 5a283 283 0 00-5 5l-1-6z"/><path fill="#fff" d="M86 78a343 343 0 0090-28 413 413 0 0088 28l-7 112a136 136 0 01-80 80 128 128 0 01-83-80L86 78z"/><path fill="#fff" d="M175 261a129 129 0 01-73-73L96 84h1a533 533 0 0041-11 533 533 0 0037-13l1-1 1 1a494 494 0 0038 14 494 494 0 0040 10h2l-8 105h-1a127 127 0 01-71 72h-1z"/><path d="M176 62a494 494 0 0079 24l-8 103a126 126 0 01-71 70 128 128 0 01-72-71L98 86a532 532 0 0078-24m0-5l-1 1a530 530 0 01-37 13 531 531 0 01-41 11l-4 1 1 3 3 51 3 51v1a133 133 0 0075 74l1 1 2-1a130 130 0 0072-73v-1l8-96v-7l1-3-4-1a492 492 0 01-39-10 492 492 0 01-38-14l-2-1z"/><path fill="#3b6182" d="M141 192l-2 2c0 1-2 4-5 5a7 7 0 01-4-3c-2-1-2-3-2-5s1-3 3-5l5-2 4 3 1 5zm6-13l1-2 1 1v2h6l2-2 5-1 4 2a7 7 0 012 5v4l-3 4c-2 2-4 1-5 1l-4-3c-2-2 0-5-2-7l-5-3-2-1zm37-59h3c1 0 2 2 1 4l-2 1c-1 0-3-4-2-5zm33 17a8 8 0 014-2 7 7 0 014 0 8 8 0 014 3l1 4c0 3-3 5-3 5l-1 1-1 5 1 4-1 2-1-2v-5l-1-4h-1s-3 0-5-3l-2-4 2-4zm-7-19l4-2c1 1 3 4 1 6a4 4 0 01-4 2c-2 0-3-4-1-6zm12-5s-2 3-1 7a7 7 0 002 4l4 2 5 1 2-3 4-2 4-1-1-6-7-2-5-3c-3 0-5 1-7 3zm-19-6l5 1 5 2 4 1h4c1-1-4-4-4-6s1-2 2-3l5-2c2 0 5 1 6-1l2-5-1-5a7 7 0 00-3-3 8 8 0 00-5-2 8 8 0 00-5 3 7 7 0 00-1 4c-1 1 0 3-2 4l-4 1-5-1c-2-1-4-3-5-2l-1 2-3 2 2 5 4 5zm27-6c1-1 3 0 3 1 2 1 2 4 1 4-1 1-2-1-2-2l-2-3z"/><path fill="#3b6182" d="M213 85v3l-1 2-2-1v-3l3-1zm3 0v-2c0-2 1-3 2-3v3l-2 2zm-37 13v-6l-4-2 4-4 2-2c2-1 3 2 5 2h6c2 0 4-2 5-1s0 4-1 4c-2 2-4 0-5 1s-1 3 1 7h-7l-6 1z"/><g fill="#fff" stroke="#000" stroke-miterlimit="10" stroke-width="3"><circle cx="175" cy="246.6" r="4"/><circle cx="136.5" cy="221.2" r="4"/><circle cx="114" cy="181.9" r="4"/><circle cx="110.6" cy="138.6" r="4"/><circle cx="108" cy="95.4" r="4"/><circle cx="175" cy="74.6" r="4"/><circle cx="243.9" cy="95.4" r="4"/><circle cx="240.5" cy="138.6" r="4"/><circle cx="237.4" cy="181.9" r="4"/><circle cx="215.3" cy="220.3" r="4"/></g><path d="M171 112a995 995 0 014 44l1 55 1-67a2262 2262 0 012-32h-8z"/><path d="M145 95h61v19h-61z"/><path d="M149 101h52v7h-52z"/><path fill="#fff" d="M199 103v3h-48v-3h48m4-4h-56v11h56V99z"/></g></switch></svg>