<svg xmlns="http://www.w3.org/2000/svg" viewBox="0 0 350 350"><switch><g><path fill="#fff" d="M176 282a158 158 0 00-44-3l-25-44-37 24-33 40 23-37V60h230v152a57 57 0 006 22 67 67 0 015 24 44 44 0 01-12 28c-10 11-23 13-30 15a72 72 0 01-35-3l-18-8c-4-1-16-6-30-8z"/><path d="M70 260V70h211v141c1 14 3 26 5 34 2 7 4 12 3 19a34 34 0 01-12 19 44 44 0 01-30 8c-15 0-27-6-33-9-14-6-35-12-67-11l-15-7-35-37-12 23-15 10z"/><linearGradient id="a" x1="110.2" x2="241.9" y1="61" y2="289.1" gradientUnits="userSpaceOnUse"><stop offset="0" stop-color="#bc1956"/><stop offset=".6" stop-color="#df0b63"/><stop offset="1" stop-color="#b11d52"/></linearGradient><path fill="url(#a)" d="M201 268c-15-5-30-8-59-7l-58 2 12-21-21 19 4-8V79h192v160l1 7 3 10c1 5 0 10-3 13-5 9-17 10-23 10a66 66 0 01-21-3l-27-8z"/><path fill="#fff" d="M109 233a536 536 0 01-33 42l-23 24a563 563 0 0188-12 52 52 0 01-7-9 52 52 0 01-4-7l-8-16-12 7-1-29z"/><path d="M148 271a276 276 0 00-38 3 44 44 0 005 4 44 44 0 0012 5 437 437 0 00-56 7 269 269 0 0033-42l1 19a144 144 0 0126-5l17 9z"/><linearGradient id="b" x1="121.8" x2="239.6" y1="259.9" y2="55.8" gradientUnits="userSpaceOnUse"><stop offset="0" stop-opacity=".2"/><stop offset=".6" stop-opacity=".8"/><stop offset="1"/></linearGradient><path fill="url(#b)" d="M95 72a60 60 0 01-11 12 146 146 0 0121-9 4751 4751 0 01-23 23 189 189 0 0132-22 283 283 0 01-32 35 398 398 0 0143-28 380 380 0 01-43 45 1066 1066 0 0161-43l-17 90a54 54 0 01-16 13 108 108 0 00-17 17 147 147 0 0015-10l11-9c1-2 4-3 15-11l12-9a139 139 0 01-8 27 48 48 0 01-11 12l-11 8-6 5-10 8a126 126 0 00-15 13l11-8c18-13 21-12 32-21 4-3 8-7 16-11a116 116 0 017-4l84 12a38 38 0 00-1 6v10l-8 11-5 5a68 68 0 01-10 8 61 61 0 0015-8l12-9a155 155 0 016-4l5-2c0 1-6 4-6 7l2 4c0 4-10 8-10 8s19-9 20-8c0 1-3 3-4 7l-1 6-5 10a233 233 0 01-4 7c9-6 14-11 18-15l4-3-5 7a27 27 0 0012-9l3-8 2-55V77L96 72z"/><linearGradient id="c" x1="86.5" x2="89.4" y1="210.4" y2="207" gradientUnits="userSpaceOnUse"><stop offset="0" stop-opacity=".2"/><stop offset=".5" stop-opacity=".8"/><stop offset="1"/></linearGradient><path fill="url(#c)" d="M90 208h-3c-1 0-2 1-1 2l4-1v-2z" opacity=".2"/><linearGradient id="d" x1="82.7" x2="83.9" y1="214.1" y2="212.7" gradientUnits="userSpaceOnUse"><stop offset="0" stop-opacity=".2"/><stop offset=".5" stop-opacity=".8"/><stop offset="1"/></linearGradient><path fill="url(#d)" d="M83 214h1v-1h-1v1z" opacity=".2"/><linearGradient id="e" x1="197.6" x2="206.4" y1="262.6" y2="252.2" gradientUnits="userSpaceOnUse"><stop offset="0" stop-opacity=".2"/><stop offset=".5" stop-opacity=".8"/><stop offset="1"/></linearGradient><path fill="url(#e)" d="M206 253h-1a22 22 0 00-5 3l-4 5c1 1 5-2 7-3l5-4-2-1z" opacity=".2"/><linearGradient id="f" x1="207" x2="235.4" y1="266.9" y2="233.1" gradientUnits="userSpaceOnUse"><stop offset="0" stop-opacity=".2"/><stop offset="1" stop-opacity=".4"/></linearGradient><path fill="url(#f)" d="M240 237l-12 13-12 12c-2 1-4 3-7 3-3 1-7-2-7-2l6-2c8-2 10-7 20-16l12-8z"/><linearGradient id="g" x1="87.3" x2="122.8" y1="133.1" y2="71.6" gradientUnits="userSpaceOnUse"><stop offset="0" stop-opacity=".2"/><stop offset=".6" stop-opacity=".8"/><stop offset="1"/></linearGradient><path fill="url(#g)" d="M84 111a413 413 0 0042-27 161 161 0 00-45 46l35-21 33-23-25-10h-24c-3 0-7-1-12 2-4 2-7 5-7 6 1 2 12-3 13-1l-5 6a141 141 0 00-9 10 74 74 0 0013-6l13-9c0 1-4 8-11 15l-14 12h3z" opacity=".1"/><linearGradient id="h" x1="241.4" x2="253.4" y1="274.1" y2="259.8" gradientUnits="userSpaceOnUse"><stop offset="0" stop-opacity=".2"/><stop offset=".5" stop-opacity=".8"/><stop offset="1"/></linearGradient><path fill="url(#h)" d="M240 273l3-1c6-2 9-7 11-12a81 81 0 01-9 8l-5 5z" opacity=".2"/><path fill="#fff" d="M278 65l-16 23 23-15-3-9-4 1z"/><path fill="#090909" d="M52 191l-4-7 93-100a86 86 0 0121-10c9-3 14-2 25-5a103 103 0 0018-8l-4 7a57 57 0 0022-6l1 3h11a38 38 0 0011-3 33 33 0 00-5 7 32 32 0 00-2 2l18 16a365 365 0 0129 46l14-7a37 37 0 01-6 11l-10 12a38 38 0 00-3 7 24 24 0 008-2 34 34 0 01-10 11l-3 19-125 111-33-36 3-20 21-8a104 104 0 00-4-28 104 104 0 00-12-27l-59 13-15 2z"/><path fill="#fff" d="M58 183l60-61-1 22a1073 1073 0 0030-11 39 39 0 01-16 3 38 38 0 01-7 0l5-24c2-4 5-10 11-15 5-5 13-11 36-18a249 249 0 0145-9c8 2 27 10 39 29a66 66 0 017 15l12 20-9 45-119 106-23-26 1-16a109 109 0 0022-8c4-3 14-8 34-28a509 509 0 0025-26 280 280 0 00-23 14c1-7 2-15 1-24a87 87 0 00-1-10 919 919 0 0119-12 7709 7709 0 01-149 34z"/><path fill="#ebcad3" d="M65 176a119 119 0 0049-6l93-22c0 1-41 13-88 24a1141 1141 0 01-61 11l7-8zm139-91c13 1 23 6 24 13l-1 6a436 436 0 0025-2l-9 4a158 158 0 0111 25 13 13 0 005-1 13 13 0 006-4 48 48 0 01-4 10l-5 7-5 9a158 158 0 01-4 7l5-3-6 38 20-17 10-41-12-20a85 85 0 00-10-19 76 76 0 00-33-24 64 64 0 01-9 6l-11 5 3 1z"/><path fill="#ff0971" d="M144 190h16l13-19-29 19z"/></g></switch></svg>