<svg xmlns="http://www.w3.org/2000/svg" viewBox="0 0 350 350"><switch><g><path d="M176.4 281.6a158 158 0 00-44-2.9l-25.2-44-37 24.2-33 39.9L60 261.6V60h230v152c.1 2 .3 5 1 8.5 1.3 6.7 3.4 11.3 4.5 13.7a67 67 0 015 24.3 44.4 44.4 0 01-11.7 27.3c-10.2 11.2-23 13.4-30 14.7a72 72 0 01-34.6-3c-7.2-2.2-7.2-3.2-18-7.3-4.5-1.6-16.3-5.7-29.8-8.6z" fill="#fff"/><path d="M69.5 259.6V69.5h211v141c1 14.9 3.6 26.4 5.8 34.5 1.9 7 3.7 12 2.4 18.8A33.6 33.6 0 01277 283a43.5 43.5 0 01-30 8.4c-15.5-.4-26.6-6-32.8-8.9-13.9-6.3-35.4-12.7-67.4-11.5l-14.6-7.5L97 227.2l-12.3 22.6-15.2 9.8z"/><linearGradient id="a" gradientUnits="userSpaceOnUse" x1="110.2" y1="61" x2="241.9" y2="289.1"><stop offset="0" stop-color="#bc1956"/><stop offset=".6" stop-color="#df0b63"/><stop offset="1" stop-color="#b11d52"/></linearGradient><path d="M200.7 268c-14.9-5.2-29.3-7.7-58.2-6.8l-58.8 2 12.5-20.9L75.3 261l3.5-8.2L79 79h192v160c.2 1.7.7 4.2 1.4 7.1 1.3 5.3 2.2 7 2.7 9.5 1 5-.5 10.4-2.6 13.7-5.2 8.5-17.1 9.2-23.3 9.6a66 66 0 01-21.2-3c-10.7-2.7-16-4-27.3-7.9z" fill="url(#a)"/><path d="M108.8 233a535.5 535.5 0 01-33.3 41.8c-6.6 7.5-22.2 24.5-22.3 24.5 0-.3 24.2-5.2 43.5-8 11-1.7 26-3.4 44.2-4.2a51.9 51.9 0 01-6.9-9.1 51.8 51.8 0 01-3.6-7.4l-8.2-15.2-12.3 7-1.2-29.4z" fill="#fff"/><path d="M147.6 271a276.2 276.2 0 00-38 2.8 43.8 43.8 0 005.5 3.8 44.2 44.2 0 0011.6 4.9 437.2 437.2 0 00-55.7 7.9 269.3 269.3 0 0033.1-41.9l1.2 18.6a143.7 143.7 0 0125.5-5.5l16.8 9.4z"/><linearGradient id="b" gradientUnits="userSpaceOnUse" x1="121.8" y1="259.9" x2="239.6" y2="55.8"><stop offset="0" stop-opacity=".2"/><stop offset=".6" stop-opacity=".8"/><stop offset="1"/></linearGradient><path d="M95.3 72.3a60 60 0 01-11 11.5 145.8 145.8 0 0120.7-9 4751.1 4751.1 0 01-23 23.7 189 189 0 0131.5-22.3A282.5 282.5 0 0182 110.8a398.3 398.3 0 0142.8-28A379.9 379.9 0 0182 128.3a1065.7 1065.7 0 0160.5-43.4L125.7 175a53.6 53.6 0 01-15.6 12.6A108.4 108.4 0 0093 205.3a146.8 146.8 0 0014.8-10.4c5-4 5.5-5 11-9.4 1.6-1.2 4-3 15.3-11l11.9-8.3a139.3 139.3 0 01-7.8 27.3 48.4 48.4 0 01-11.3 11.8c-3.4 2.4-6.2 3.7-11 7.9-2.5 2-2.8 2.6-5.5 5-4 3.5-7 5.4-9.9 7.5a126 126 0 00-15.8 12.8c.1.1 4.1-3.2 11-7.9 18.6-12.6 21.7-11.5 32.7-20.5 3.5-2.8 7.8-6.7 15.2-11.3a116.1 116.1 0 017.4-4.3l84.4 12.5a37.5 37.5 0 00-1.3 5.9c-.7 5.8.6 6.6-.2 9.8-.5 1.8-3 4.8-8.2 10.8l-4.7 5.3a67.5 67.5 0 01-9.8 8.2 61 61 0 0015.2-8.2c3.2-2.4 6-5 12-9.3a154.7 154.7 0 015.8-4c3.6-1.3 4.6-1.4 4.7-1.1.4.7-5.6 3.2-5.5 6.9 0 1.6 1.4 2 1.5 3.4.3 4.3-10.3 8.5-10.3 8.4 0 0 19.2-9.6 20.2-8 .4.6-2.6 2.4-4 6.7-.9 2.9 0 3.3-.6 6.6-.2 1.3-.7 2.9-5.2 10a232.9 232.9 0 01-4.4 6.6c9-6 14.6-11.2 18-14.8 1.2-1.2 3.6-3.7 4-3.4.4.3-2 4-4.1 7.2a26.7 26.7 0 0011.3-9.3l3.5-7.6 2.1-54.8.1-105.8-180.3-4.3z" fill="url(#b)"/><linearGradient id="c" gradientUnits="userSpaceOnUse" x1="86.5" y1="210.4" x2="89.4" y2="207"><stop offset="0" stop-opacity=".2"/><stop offset=".5" stop-opacity=".8"/><stop offset="1"/></linearGradient><path d="M90 207.5c-.2 0-1.5-.5-2.8.1-.9.5-1.8 1.5-1.6 2 .4.7 3.5.7 4.3-.9.2-.4.2-.8.1-1.2z" opacity=".2" fill="url(#c)"/><linearGradient id="d" gradientUnits="userSpaceOnUse" x1="82.7" y1="214.1" x2="83.9" y2="212.7"><stop offset="0" stop-opacity=".2"/><stop offset=".5" stop-opacity=".8"/><stop offset="1"/></linearGradient><path d="M82.8 214.1c.2.2.7-.2 1-.5 0 0 .5-.5.3-.7-.1-.3-1-.3-1.3.2-.3.3-.3.9 0 1z" opacity=".2" fill="url(#d)"/><linearGradient id="e" gradientUnits="userSpaceOnUse" x1="197.6" y1="262.6" x2="206.4" y2="252.2"><stop offset="0" stop-opacity=".2"/><stop offset=".5" stop-opacity=".8"/><stop offset="1"/></linearGradient><path d="M205.5 253.2l-.6.3a22 22 0 00-4.5 2.8c-2 1.6-4.7 4.5-4.2 5.1.5.7 5-2.1 6.8-3.3 1.3-.9 5.4-3.6 5-4.6-.3-.5-1.4-.5-2.5-.3z" opacity=".2" fill="url(#e)"/><linearGradient id="f" gradientUnits="userSpaceOnUse" x1="207" y1="266.9" x2="235.4" y2="233.1"><stop offset="0" stop-opacity=".2"/><stop offset="1" stop-opacity=".4"/></linearGradient><path d="M240.1 237c.3.3-1.7 2.4-11.8 13.4 0 0-2.3 2.4-12 11.1-1.8 1.6-3.8 3.3-6.8 3.6-3.7.4-7.3-1.7-7.1-2.5.1-.8 3-.7 6-1.5 7.8-1.8 9.6-7.5 20-16.2 5-4.3 11.2-8.5 11.7-7.9z" fill="url(#f)"/><linearGradient id="g" gradientUnits="userSpaceOnUse" x1="87.3" y1="133.1" x2="122.8" y2="71.6"><stop offset="0" stop-opacity=".2"/><stop offset=".6" stop-opacity=".8"/><stop offset="1"/></linearGradient><path d="M84.3 110.7A412.6 412.6 0 00126 84.2a160.6 160.6 0 00-45 45.3l35.3-20.7 32.4-22.3L124.2 76H99.8c-2.3-.4-6.9-.7-11.5 1.6-4.1 2-7.6 5.8-7 6.9 1 1.6 11.5-3.7 12.4-2 .5.8-1.8 2.7-5.2 6.2a140.5 140.5 0 00-8.9 10 73.9 73.9 0 0013-5.8c8.2-4.7 12.5-9.1 13.2-8.5.7.7-4.2 8-11 14.6-7.2 6.8-14.1 10.8-13.5 11.9.2.4 1.5.2 3-.2z" opacity=".1" fill="url(#g)"/><linearGradient id="h" gradientUnits="userSpaceOnUse" x1="241.4" y1="274.1" x2="253.4" y2="259.8"><stop offset="0" stop-opacity=".2"/><stop offset=".5" stop-opacity=".8"/><stop offset="1"/></linearGradient><path d="M239.8 272.8c.3.4 2.6-.2 3.6-.6 5.4-1.8 8.7-7.3 10.6-11.9a81.3 81.3 0 01-9 8c-2.8 2.2-5.4 3.9-5.2 4.5z" opacity=".2" fill="url(#h)"/><path d="M278.3 64.7L261.7 88 285 72.7l-3.3-8.7-3.4.7z" fill="#fff"/><path d="M52.3 190.9l-4-7.4 92.9-100a86 86 0 0120.8-9.4c9.3-2.7 14.2-2.4 24.5-5.4a102.6 102.6 0 0018-7.2l-4 6.2a56.6 56.6 0 0022.7-5.5l.5 3c2.7.5 6.5.9 11 .3a37.5 37.5 0 0011.7-3.5 32.5 32.5 0 00-5.5 6.7 32 32 0 00-1.5 2.8L257 87a365.2 365.2 0 0128.6 45.7l14-6.6a37 37 0 01-5.3 10.7c-3.5 4.8-6.5 6.4-9.9 11.9a38 38 0 00-3.6 7.5 24.4 24.4 0 008-2 34.1 34.1 0 01-10.3 10.5l-2.5 19.5-125 110.8-33-36.4 3.3-20.1 21.2-7.5a104.3 104.3 0 00-4.5-28 104.4 104.4 0 00-12.5-26.8L67.2 189 52.3 191z" fill="#090909"/><path d="M57.5 183.3L118 122l-1 21.8a1073.4 1073.4 0 0029.5-11 39.2 39.2 0 01-15.5 3.4 38.1 38.1 0 01-6.8-.4l4.6-24c2-3.9 5.6-9.5 11.2-15 4.8-4.8 12.8-11 36-18a249 249 0 0145.3-9.3c8 2.8 26.3 10.4 38.2 29.3a66 66 0 017.1 15.3l12.1 20.2-9 44.4L151 285l-23-26.3 1-15.2a108.8 108.8 0 0022-9c4.4-2.4 13.5-7.8 34.3-27.8A508.6 508.6 0 00210 181a279.7 279.7 0 00-22.8 14c1.2-6.6 2-15 1-24.5a86.6 86.6 0 00-1.6-9.6 918.5 918.5 0 0119-11.5 7709.3 7709.3 0 01-148.2 33.8z" fill="#fff"/><path d="M65.2 175.5a119.4 119.4 0 0048.3-5.3c76.1-18.6 92.9-22.2 93-21.7.2.8-40.7 12.9-88 23.2a1140.7 1140.7 0 01-61 11.6l7.7-7.8zm138.8-91c13.2 1 22.8 6.7 23.8 13.5.1 1.3 0 3.3-1 5.7a435.8 435.8 0 0025.2-2.2l-9 4.4a157.7 157.7 0 0111 25.1 13 13 0 005.3-1 13.2 13.2 0 005.2-4 48.2 48.2 0 01-4 9.8c-1.3 2.4-1.6 2.4-4.5 7.3l-5.2 8.9a158 158 0 01-4.3 6.8l5.2-2.5-6 38 20.8-17 9-41.8-11.8-20a85 85 0 00-9.2-19 76 76 0 00-33.2-23.3 64 64 0 01-9.5 5.5c-6 2.8-11 4-10.8 5 0 .3.6.7 3 .8z" fill="#ebcad3"/><path d="M143.6 189.7l16 .3 13.2-19-29.2 18.7z" fill="#ff0971"/></g></switch></svg>