<svg xmlns="http://www.w3.org/2000/svg" viewBox="0 0 350 350"><switch><g><path fill="#fff" d="M41 230h10v-15h7v-16h4v-16h-9v-16h9v-16h7v-16h2v-15h-2v-15h-9V90H50V75h-6V60h232v15h10v15h6v15h10v15h3v15h-3v16h-7v16h-3v16h-3v16h-13v16h8v15h-7v15h10v15h6v15h9v15H69v-15H57v-15h-2v-15H41v-15z"/><path d="M65 245h-8v-15h3v-15h7v-16h7v-16h-9v-16h7v-16h6v-16h3v-15h4v-15H69V90h-7V75h198v15h23v15h8v15h-4v15h5v16h-6v16h-7v16h-8v16h-4v16h7v15h-12v15h16v15h-6v15h21v5H79v-5h6v-15H65v-15zM53 70h214v5H53v-5z"/><path fill="#906f79" d="M111 260h161v10H111v-10zm-30-61h19v-16H79v-16h164v16h12v16h12v16h-12v15h-7v15h12v15H87v-15H77v-15h-8v-15h12v-16zM225 90h49v15h4v15h-9v15h10v16h-10v16H84v-16h12v-16h18v-15h-10v-15h-8V90H72v-9h153v9z"/><path fill="#fff" d="M122 167c-2-5-2-15-2-15v-1h5c0-3 0-10 3-16h4l2-4c5-8 13-10 13-10v-1h84v1a26 26 0 0015 14h-4a46 46 0 013 16h-5v1s0 10-2 15h-8l-8 16-1 9 15 7h-3c5 3 9 8 10 16h-3l-2 15h-6a76 76 0 01-4 11 48 48 0 01-2 4h11c-10 16-25 17-32 13a1040 1040 0 01-22-13l-11 8-11-8-22 13c-7 4-22 3-32-13H96a48 48 0 01-2-4 76 76 0 01-5-11h6a41 41 0 01-3-15h3c1-8 5-13 10-16h3l15-7-1-9-8-16h8zm33-62h-10c7-4 16-8 29-8h2c13 0 22 4 28 8h10c8 6 12 13 13 15h-84a34 34 0 0112-15z"/><path d="M226 260c-4 2-9 3-14 3l-9-3h23zm-83 0l-2 1c-6 3-13 3-20-1h22zm41-15c-1-5 0-10 1-15h4a35 35 0 00-1 15h1a863 863 0 007 4 26 26 0 01-1-4h4c0 3 1 6 3 8l4 2c7 4 15 1 21-3l6-7h7c-4 6-9 12-15 15h-23l-5-3a1211 1211 0 01-12-8l-2-1-11 9-11-9-20 12h-21c-7-3-12-9-16-15h7c5 7 12 12 20 12 4 0 7-2 11-4l3-8h-1l6-4 5 4h11l6 4 6-4h-11l5-4 6 4h6zm-29 0h-6a26 26 0 01-1 4 1206 1206 0 007-4zm-63-30c0-5 2-9 5-13a17 17 0 013-3h3l9-5a286 286 0 017-4h1l-1-7-8-16h6l8 15 1 12a353 353 0 00-8 4l4 1h-3c7 3 13 8 19 16h-3a54 54 0 011 3l6 12h-4a49 49 0 00-5-10 50 50 0 00-3-5h3c-8-10-18-16-26-14l-1 1c-5 2-7 8-8 13h-3a25 25 0 000 6l2 9h-5a59 59 0 008 15h-7a42 42 0 01-2-3 94 94 0 01-2-3 81 81 0 01-3-9h5l-2-15h3zm46 30h-4c1-4 0-10-2-15h5a39 39 0 011 15zm62-30c5-8 12-13 18-16h3a27 27 0 015-1l-6-3-2-1 1-11v-1l7-15h7a41 41 0 01-3 6l-5 10v1l-1 6c6 3 12 5 17 9h-3l7 10a30 30 0 011 6h-3l-2 15h-5c-2 5-4 11-7 15h-7c4-4 6-10 8-15h5a62 62 0 001-7l1-8h3c-1-5-3-10-8-13l-1-1c-8-2-18 4-26 14h-3a51 51 0 00-3 5 49 49 0 00-4 10h-4a52 52 0 016-15h3zm-52 0l12-12-4-4h3l-11-11 9-9 15 16 15-16 9 9-12 11h-3l-4 4 12 12h-2l3 3-9 9-11-12h3l-4-3-4 3h-2l-12 12-9-9 4-3h3zm-14-48a42 42 0 01-3-16h5c0-9 3-13 6-16h4c3-3 7-3 7-3h4l9 2 2 1h-4l21 11 21-11h4l2-1a20 20 0 019-2h4s4 0 7 3h-4c3 3 6 7 6 16h-5a42 42 0 01-3 16h-8c-3 8-9 12-16 12-11 0-17-8-17-8l-7-4h8l-5-1h-2l-5 1h-8l-7 4s-6 8-17 8c-7 0-13-4-16-12h8zm-12-16c0-6 1-11 3-16h4c1-3 2-6 5-8a30 30 0 018-7h9l-1 2-1 1c-6 2-10 6-13 12h-4c-3 5-4 10-4 16h-5v1c0 5 0 10 2 15h-6l-2-6a76 76 0 010-10h5zm120 0l-1-8a29 29 0 00-2-8h4a22 22 0 00-13-11l-1-1a27 27 0 00-2-3h9c6 3 10 9 13 15h-4c2 5 3 10 3 16h-5v2l-2 14h-7a42 42 0 003-16h5zm-91-46h-10a56 56 0 0135-11c12 0 24 4 33 11h10a35 35 0 0110 14 74 74 0 003 1h-9a32 32 0 00-16-15h-10a55 55 0 00-46 0h10a32 32 0 00-14 15h-9a28 28 0 012-1l5-8a35 35 0 016-6z"/><linearGradient id="a" x1="179" x2="179.7" y1="135.5" y2="135.5" gradientTransform="matrix(127.1429 0 0 -8.5714 -22582 1263)" gradientUnits="userSpaceOnUse"><stop offset="0" stop-color="#fff" stop-opacity="0"/><stop offset=".5" stop-color="#fff" stop-opacity=".5"/><stop offset="1" stop-color="#fff" stop-opacity="0"/></linearGradient><path fill="url(#a)" d="M172 99h89v6h-89z"/><linearGradient id="b" x1="179.5" x2="180.2" y1="155.8" y2="155.8" gradientTransform="matrix(150 0 0 -21.4286 -26816 3451)" gradientUnits="userSpaceOnUse"><stop offset="0" stop-color="#fff" stop-opacity="0"/><stop offset=".5" stop-color="#fff" stop-opacity=".8"/><stop offset="1" stop-color="#fff" stop-opacity="0"/></linearGradient><path fill="url(#b)" d="M104 105h105v15H104z"/><linearGradient id="c" x1="177" x2="177.7" y1="157.5" y2="157.5" gradientTransform="matrix(71.4286 0 0 -22.8571 -12415 3759)" gradientUnits="userSpaceOnUse"><stop offset="0" stop-color="#fff"/><stop offset="1" stop-color="#fff" stop-opacity="0"/></linearGradient><path fill="url(#c)" d="M230 151h50v16h-50z"/><linearGradient id="d" x1="174" x2="174.7" y1="157.8" y2="157.8" gradientTransform="matrix(32.8571 0 0 -22.8571 -5615 3782)" gradientUnits="userSpaceOnUse"><stop offset="0" stop-color="#fff" stop-opacity="0"/><stop offset="1" stop-color="#fff"/></linearGradient><path fill="url(#d)" d="M103 167h23v16h-23z"/><linearGradient id="e" x1="177.1" x2="177.8" y1="158.1" y2="158.1" gradientTransform="matrix(68.5714 0 0 -22.8571 -11946 3805)" gradientUnits="userSpaceOnUse"><stop offset="0" stop-color="#fff" stop-opacity="0"/><stop offset=".5" stop-color="#fff" stop-opacity=".8"/><stop offset="1" stop-color="#fff" stop-opacity="0"/></linearGradient><path fill="url(#e)" d="M196 183h48v16h-48z"/><linearGradient id="f" x1="175.9" x2="176.6" y1="155.7" y2="155.7" gradientTransform="matrix(54.2857 0 0 -16.8571 -9336 2876)" gradientUnits="userSpaceOnUse"><stop offset="0" stop-color="#fff"/><stop offset="1" stop-color="#fff" stop-opacity="0"/></linearGradient><path fill="url(#f)" d="M213 245h38v12h-38z"/><linearGradient id="g" x1="178.7" x2="179.4" y1="158" y2="158" gradientTransform="matrix(92.8571 0 0 -21.4286 -16526 3608)" gradientUnits="userSpaceOnUse"><stop offset="0" stop-color="#fff" stop-opacity="0"/><stop offset=".5" stop-color="#fff" stop-opacity=".8"/><stop offset="1" stop-color="#fff" stop-opacity="0"/></linearGradient><path fill="url(#g)" d="M67 215h65v15H67z"/></g></switch></svg>