<svg xmlns="http://www.w3.org/2000/svg" viewBox="0 0 350 350"><switch><g><path fill="#fff" d="M60 60h230v230H60z"/><path d="M70 70h211v211H70z"/><path fill="#aa8450" d="M79 79h192v192H79z"/><radialGradient id="a" cx="175" cy="175" r="96" gradientTransform="matrix(0 -1 1.1 0 -17 350)" gradientUnits="userSpaceOnUse"><stop offset="0" stop-color="#e4c8a0"/><stop offset="1" stop-color="#e4c8a0" stop-opacity="0"/><stop offset="1" stop-color="#e4c8a0" stop-opacity="0"/></radialGradient><path fill="url(#a)" d="M79 79h192v192H79z"/><path d="M86 264l70-52-20-16-50 68z"/><path fill="#fff" d="M97 253l40-39-6-7a1312029 1312029 0 01-34 46z"/><path d="M85 85l49 65 17-17z"/><path fill="#fff" d="M97 96l39 40 6-6-45-34z"/><path d="M200 133l65-48-47 65z"/><path fill="#fff" d="M253 97l-39 39 6 5 33-44z"/><path d="M201 217l64 47-46-65z"/><path fill="#fff" d="M252 252l-44-34 6-5 38 39z"/><path d="M218 137a59 59 0 00-42-19c-28 0-50 22-55 42a61 61 0 0021 59l-1 1a40 40 0 008 6s7 4 14 4h2v-1l-2-1a20 20 0 01-5-1h8l10 3c6 1 21-2 33-12 4-2 24-17 24-43a55 55 0 00-15-38zm-68 86l-2-1a7 7 0 01-3-1c2-1 5 2 4 2z"/><path fill="#fff" d="M126 160a53 53 0 0149-37c10 0 17 3 19 3 7 3 11 7 15 10 3 3 7 6 10 11a39 39 0 013 9 27 27 0 00-1-7 27 27 0 00-2-3 49 49 0 016 11c2 4 7 19 0 35a45 45 0 01-8 13 71 71 0 01-41 21 72 72 0 01-31-12 32 32 0 01-6-7 31 31 0 013 6l1 3a60 60 0 01-16-21 58 58 0 01-4-9 148 148 0 013-26z"/><path d="M199 140a34 34 0 00-13-6 34 34 0 00-12-1 62 62 0 0125 7zm17 20l-7-8c-1 1 1 3 3 5 5 9 4 23 0 32-2 4-8 17-24 23a40 40 0 01-29-2 41 41 0 01-21-26 45 45 0 010-25 60 60 0 013-6c3-6 7-10 9-12l2-2c0-1-10 5-15 16l-1 4a80 80 0 00-5 17l2 10a45 45 0 0024 27c15 7 30 2 33 1 1 0 18-6 25-24 1-4 8-18 1-30zm-73 39a47 47 0 01-7-11h1v1l9 14a47 47 0 01-3-4zm-19 2l6 7 3 5-3-3c-3-4-7-8-6-9z"/><g><path d="M175 45l-2 7-1 8-1 8-1 8-1 8-1 7-2 8-1 8-1 8-1 8-2 8-1 8-1 8-1 8-8 1-8 1-7 1-8 2-8 1-7 2-8 1-8 1-7 2-8 2h-7l-8 2-8 2h-7l-8 2 8 2 8 1 8 1 8 2h8l9 2 8 1 8 2 8 1 8 1 8 2 8 1 8 1 8 1 2 8 1 8 2 8 1 8 1 7 2 8 1 8 2 8v8l1 7 2 8 1 8 2 8 1 8 2-8 1-8 1-8 1-8 2-7 2-8v-8l2-8 1-8 2-7 1-8 2-8 1-8 1-8 8-1 8-2 8-1 8-1 8-1 7-2 8-1 8-1 8-1 8-2 8-1 8-1 7-2 8-1-8-1-7-2-8-1-8-1-8-1-8-2h-8l-8-2-7-1-8-1-8-1-8-2-8-1-8-2-1-8-2-8-1-8-1-8-2-8-1-8-2-8-1-8-1-8-1-8-2-9-1-8-2-8z"/><path fill="#fff" d="M175 175l16-16-16-95v111zm0 0l17 16 91-16zm0 0H68l91-16 16 16zm0 0v108l-15-93 15-15z"/></g><g><path fill="#fff" d="M67 119v1l1 2v2l1 1 2 2h4l2 1h2l1 1 2 1 1 1 2 1 1 1 2 1 1 1 2 1 1 1 1 1 2 1 1 1 2 1h1l2 1 1 1 2 1 2 1 1 1 2 1h1l1 2h2l2 1h-2l-2-1h-2l-1-1-2-1h-4l-1-1-2-1h-2l-1-1h-2l-2-1-2-1h-1l-2-1-2 1-2-1-1-1-2-1h-4l-1-1-2-1h-4l-1-1-2-1h-2l-2-1 1-1v-2l1-2v-2l1-1v-2l1-2v-2zm79-14l-16-26h8zm51 9l1-2v-1l1-2 1-2v-3l1-2v-2l1-2v-6l1-1 1-1 2-2 1-2 1-1v-3l1-2v-2l2-1v-2l1-2 2-1 1-2v-1l1-2 2-1v-4l1-2 1-1 1-2v-2l1-2 1-1 1-1 2-1v-2 7l-1 2v6l-1 1-1 2-1 2 1 2-1 1-1 2v2l-1 1v2l-1 2v2l-1 1-1 2-1 1-1 2v2l-1 1-1 2-1 1-1 2-1 1v2l-2 1v2l-2 1-1 1-1 2-1 1-1 2-1 1-2 1v2zm51 30l23-14v7l-23 7zm-37 127l-5-25 15 25h-10zM79 212l28-9-28 17v-8zm44 89l2-2 1-1 1-2 1-1 1-1 1-2 1-1 1-2 1-2 1-1v-2l1-1 1-2 1-1 1-2 1-2 1-1v-2l1-1 1-2 1-2v-1l1-2 1-2v-1l1-2v-2l1-2v-3l1-2v-2l1-1v-2l1-2v-2l1-1v-4l1-2v-1l-1 1-1 1-1 2v2l-2 1v2l-1 1-2 1v2l-1 2-1 1-2 2v1l-1 2-1 2-1 1v2l-1 1-1 2-1 1v2l-1 2-1 1v4l-1 2v1l-1 2v2l-1 2-1 1-1 2-1 1v2l-1 2-1 2v1l-1 2v2l1 2zm110-104h2l1 1 1 2 2 1 1 1 2 1h2l1 2h2l1 1 2 1 2 1h1l2 1h2l2 1h1l2 2 1 1h2l2 1h2l1 2h2l1 2h2l1 1 2 1 2 1 1 1 1 2h2l2 1 1 2v-3l1-1-1-2v-4l-2-1h-3l-2-1-1-1-2-1-2-1-1-2h-1l-2-1h-3l-2-2h-1l-2-1-1-1h-4l-2 1-1-1-2-1h-3l-2-1-1-1h-2l-2-1-1-1h-2l-2-1-1-1h-2z"/></g></g></switch></svg>