<svg xmlns="http://www.w3.org/2000/svg" viewBox="0 0 350 350"><switch><g><path fill="#fff" d="M60 60h230v230H60z"/><path d="M69.5 69.5h211v211h-211z"/><path fill="#aa8450" d="M79 79h192v192H79z"/><radialGradient id="a" cx="175" cy="175" r="96" gradientTransform="matrix(0 -1 1.1 0 -17.5 350)" gradientUnits="userSpaceOnUse"><stop offset="0" stop-color="#e4c8a0"/><stop offset="1" stop-color="#e4c8a0" stop-opacity="0"/><stop offset="1" stop-color="#e4c8a0" stop-opacity="0"/></radialGradient><path fill="url(#a)" d="M79 79h192v192H79z"/><path d="M85.8 264.2l69.9-52-19.4-16.3-50.6 68.3z"/><path d="M97.3 252.6l39.6-39-6.2-6.2a1312028.6 1312028.6 0 01-33.4 45.2z" fill="#fff"/><path d="M84.8 84.6l48.9 65.4 17.5-17.5z"/><path d="M96.7 96l39 40.4 6.2-6L96.7 96z" fill="#fff"/><path d="M199.8 132.6l65.4-48-47.5 65.4z"/><path d="M253 97l-39.4 38.8 6.3 5.3L253 97z" fill="#fff"/><path d="M200.8 217l64.4 47.2-46.2-65z"/><path d="M252.4 251.9l-44.3-34.3 6.2-5 38.1 39.3z" fill="#fff"/><g><path d="M217.6 137a58.9 58.9 0 00-42-19.3c-27.5.1-50 21.8-54.7 42.3a61.1 61.1 0 0021.6 59.4l-1.7.6a40.4 40.4 0 008.6 6.3s6.7 3.7 13.6 3.7c0 0 1.4.2 1.7-.3v-.5l.1-.6c0-.6-1.7-.7-1.7-.7a20 20 0 01-5.5-1.4s6.6 1.6 7.7.9h.5c5.3.2 9.6 2 10.6 2.1 5.2 1 20.4-1.7 33-11.1 3.4-2.6 23.5-17.6 23.9-43.4a55.3 55.3 0 00-15.7-38zm-68 86.1c-.2.3-1.5-.3-2-.6a7.2 7.2 0 01-2.6-2h.1c2-.5 4.7 2.3 4.4 2.6z"/><path d="M126.1 160a53.2 53.2 0 0148.9-37c9.9-.2 17.2 2.6 18.9 3.3 7 2.9 11.4 6.7 15.2 10 3 2.8 6.5 5.8 9.5 10.8a38.5 38.5 0 013.8 8.5 27.2 27.2 0 00-1.8-6.7 27 27 0 00-1.5-3.1 48.8 48.8 0 016 10.7c1.5 4 6.9 19 .4 35a45 45 0 01-9 13.7 71 71 0 01-40.7 21 72.1 72.1 0 01-31.3-12.7 31.7 31.7 0 01-5.3-6.6 31.4 31.4 0 013 6.4l.9 3a60 60 0 01-16.5-21.5 57.5 57.5 0 01-3.2-8.9 148.3 148.3 0 012.7-25.9z" fill="#fff"/><path d="M199 140.1a34.3 34.3 0 00-13.1-6.5 34.2 34.2 0 00-12.2-.8 61.8 61.8 0 0125.3 7.3zm17 20.3c-2.6-4.3-7-8.4-7.4-8.1-.2.2 1.9 3 3 4.8 5.5 9.1 4 22.5.3 31.6-1.7 4.1-8 17.6-23.5 23a39.5 39.5 0 01-29.8-2.1 41.3 41.3 0 01-20.5-25.2 44.7 44.7 0 01-.2-25 60 60 0 013.2-6.7c3.2-5.6 6.6-9.5 8.5-11.5 2-2.2 2.9-2.7 2.8-2.7 0-.2-10 5.8-15.1 16.5l-1.8 4.4a79.5 79.5 0 00-4.1 16.6l1.7 10a45 45 0 0023.7 27.1c15.6 7.1 29.8 2.3 32.8 1.2 1.5-.5 18-6.8 25.4-24.4 1.5-3.5 7.7-18 1-29.5zm-73.3 38.8a47 47 0 01-6.7-11l.7.2.3.6c2.2 4.5 5 9 8.9 13.6a46.5 46.5 0 01-3.2-3.4zm-19.1 2.3c.2-.2 3.5 3.1 6.2 6.7 1.7 2.2 3.4 4.9 3.2 5-.2.2-3-3-3.3-3.4-3.1-3.6-6.4-8-6.1-8.3z"/></g><g><path d="M175 44.5l-1.7 7.5-1.1 7.9-1 7.9-1.1 7.8-1 8-1.2 7.8-1.6 7.8-1.7 7.9-.7 7.9-1.3 7.9-1.5 7.8-1.3 7.8-.7 8-1.2 8.2-8 1.1-7.6 1.5-7.8.8-7.6 1.5-7.5 1.8-7.6 1.5-7.8.8-7.6 1.5-7.6 1.5-7.5 1.8-7.8.6-7.5 2.1-7.7 1.3-7.7.7L43 175l8 1.6 8.1 1 8 1.6 8.2 1.5 8.2.4 8 1.8 8.3.8 8 2 8 1.4 8.3.5 8 2.2 8 1.3 8.3.9 8 1.3 1.3 7.9 1 7.8 2 7.7 1 7.9 1.4 7.8 1.5 7.7 1 7.9 1.9 7.7.7 8 1.2 7.7 1.6 7.8 1.4 7.8 1.5 7.8 1 7.7 1.8-7.6.9-7.9 1-7.8 1.8-7.8 1.2-7.8 1.9-7.7.8-8 1.5-7.7 1.1-7.9 1.7-7.7 1.1-7.9 2.2-7.7 1-7.9 1-8 8.2-1.2 7.8-1.5 7.8-1.4 8-.7 7.8-1.7 7.9-1.2 7.9-1 7.7-1.9 8-1 7.8-1.5 7.8-1.5 8-.4 7.7-2 7.7-1.1-7.6-1.1-7.8-1.6-8-1-7.8-1-7.8-1.5-7.8-1.6-8-.6-7.8-1.6-7.8-1.4-7.9-1-7.8-1.1-7.9-1.3-7.8-1.5-7.7-1.3-1.6-8-1.5-8-1-8.1-1.4-8.1-1.7-8-1.7-8.1-1.2-8.2-.9-8.2-1.9-8-1-8.1-1.1-8.2-1.6-8-1.7-8.1z"/><path d="M175 175l16.2-16L175 64v111zm0 0l16.6 16 90.9-16zm0 0H68.3l90.5-16.3L175 175zm0 0v107.8L159.7 190l15.3-15z" fill="#fff"/></g><g><path fill="#fff" d="M67 118.8l.2 1.5.7 1.6.4 1.9 1 1.6 1.5 1.2 2.1.5 2.2.3 1.6.5 2-.2 1.5 1 1.3 1.3 1.6.8 1.7.8 1.4 1 1.5 1 1.1 1.5 1.8.5 1.1 1.5 1.6.8 1.5.8 1.4 1.2 1.5.8 1.8.4 1.4 1.2 1.6.6 1.5 1.1 1.6.7 1.5.8 1.5 1.1 1.7.4 1.2 1.5 1.6.8 2 1-2.2-.4-1.5-1.4-2 .1-1.5-1-1.8-.5-1.9-.1-1.7-.4-1.8-.4-1.6-1.3-1.8-.2-1.7-.6h-2l-1.4-1.4-1.8-.5-1.7-.4-1.8-.6-2 .3-1.7-.5-1.5-1.4-1.9-.2-1.6-.9h-2l-1.5-.8-1.8-.4-1.8-.4h-2l-1.5-1.1-1.8-.5-1.7-.4-1.8-.6.3-1.8.8-1.7.2-1.8.7-1.7.4-1.7.3-1.8.9-1.7.4-1.7zm79.4-13.8l-16-26h8zm50.8 9.3l.4-2 .5-1.7 1.4-1.5.5-1.7-.3-1.9.7-1.6.8-1.7-.2-2 .5-1.9.7-1.8-.3-2 .3-2 .7-1.7 1.6-1 1.4-1.5.7-1.8 1.2-1.3v-3.4l1-1.8.5-1.7 1.3-1.4.7-1.8.9-1.7 1.4-1.3 1-1.7.7-1.7 1-1.6 1.4-1.4.1-2 .4-1.9 1-1.6 1-1.6.5-1.8.7-1.8.8-1.5 1.1-1.4 1.1-1.3 1.3-1.2.6-1.6-.3 1.8.2 1.9-.2 1.8-.4 1.8-.4 1.8v1.8l-.2 1.9-.3 1.8-.7 1.7-.5 1.8-1 1.6.4 2-.9 1.7-.8 1.6V75l-1.3 1.4-.3 1.8-.4 1.7-.5 1.7-.6 1.7-1 1.5-.9 1.6-1.1 1.4-.4 1.8-.5 1.7-1.4 1.3-1 1.5-.9 1.5-.9 1.5-.3 1.9-1.6 1-.4 2-1.2 1.3-1.5 1-.6 1.9-1.4 1.1-.8 1.6-1.2 1.4-1.6.9-.6 1.8zm50.8 30.2l23-14.9v7.2l-23 7.7zM211.2 271l-5.6-24.6 15.7 24.6h-10.1zM79 211.7l27.5-8.6L79 220.4v-8.7zm44.4 89l1.4-1.3 1-1.4.8-1.7 1-1.4 1.2-1.4 1.2-1.4 1-1.5.7-1.7 1-1.5.9-1.5.9-1.6.4-1.8 1.2-1.4 1.2-1.4.3-1.9 1-1.5 1-1.5.8-1.6.7-1.6 1-1.6.6-1.7.3-1.8.5-1.8 1.1-1.4.5-1.8 1-1.6.2-1.8.5-1.7.4-1.8.3-1.7.9-1.7v-1.8l.8-1.7v-1.9l.9-1.7.2-1.8.5-1.8v-1.8l.4-1.8.4-1.8.4-1.5-.8 1.3-1 1.4-1.3 1.4-.4 1.8-1.5 1.2-.3 2-1 1.5-1.6 1.2-.4 1.8-.9 1.6-1 1.4-1.3 1.5-.8 1.6-.4 1.8-1.2 1.4-1 1.5v2l-1.2 1.4-.8 1.5-.8 1.6-.4 1.8-1 1.4-.6 1.7.2 2-.8 1.5-.6 1.7v1.8l-1 1.6-.2 1.8-.8 1.8-1.3 1.4-.3 2-1.2 1.4-.5 1.9-1.1 1.5-.3 1.9-.2 1.8-.7 1.7-.4 1.8.5 1.9zm110-104.1l1.5.9 1.4.9 1 1.6 1.5 1.1 1.6.8 1.5 1 1.9.4 1.3 1.4 1.9.3 1.4 1.1 1.8.6 1.5 1 1.7.7 1.8.4 1.8.3 1.7.7 1.7.6 1.5 1.2 1.5 1h2l1.3 1.6 2 .3 1.3 1.3 1.8.6 1.4 1.1 1.8.6 1.4 1.3 1.7.7 1.5 1 1.6.9 1.2 1.5 1.7.9 1.7.7 1.6 1.5-.4-2.2.7-1.9-.8-1.9-.1-1.8.4-1.9-1.7-.5-1.8-.3-2-.2-1.4-1.1-1.8-.6-1.4-1.2-1.7-1-1-1.7-1.8-.6-1.6-1-1.6-.2h-1.7l-1.4-1.1-1.5-.8-1.7-.3-1.6-1-1.7-.1-1.7.1-1.8.5-1.6-.8-1.6-.8-1.8-.2-1.7-.4-1.6-.8-1.5-.8-1.8-.4-1.7-.5-1.4-1.2-1.8-.1-1.5-1-1.7-.6-1.6-.6z"/></g></g></switch></svg>