<svg xmlns="http://www.w3.org/2000/svg" viewBox="0 0 350 350"><switch><g><path fill="#fff" d="M60 60h230v230H60z"/><path d="M70 70h211v211H70z"/><path fill="#394f98" d="M79 138h193v133H79z"/><path d="M241 73c-15-2-40 0-74 0H96c-5 0-13-1-17 1-2 1-1 5-1 9v107l3 1s-4-3-3-6l1-1c1 0 3 1 3 3v2l2 1c3 2 6 9 6 9l1 1v-1h1l-1-2v-2l1-1 2 2v-2l-2-2 1-1 2 2 2 3 4 1 3 5 2 2c1 1 7 8 8 7s-4-5-4-6v-3l-2-1c0-1 4 1 7 4 2 1 3 2 3 4l1 2 1-2h1c3 1 2 4 2 6v8l-1 4 2 3c1 4-1 6 1 10l1 3 2 8c1 0 1-3 3-3l3 1 2 4c1 3 4 2 8 6a7 7 0 012 2v6c1 3 1-4 3-4l-1 14c-1 2-2 6-1 8l1 4 1 5c0 8 7 8 11 14 0 1 0 6 2 6 3 2 0-4 2-4-2 0 6 6 5 6l2 3 4 1c2-1-2-17-2-19v-12c1-3-1-2 2-3l3-1v2c1 1 5-4 5-4 2-3 1-3 5-4s4-5 7-9c5-4 6-9 6-15v-13l2 2c1 0 1-10 4-9l1 1 4-5c2-1 3 0 4-2l2-3 1-1 3-5c3 0 3-3 4-6 2-3 2-6 6-8a7 7 0 012-2l3-1 4-3 9-6c1 1-4 6-4 6 1 1 13-11 14-12l11-12v2c3-2 3-3 3-6V95c0-5 2-12 0-17 1-3 0-4-2-3h-3l-28-3z"/><path d="M104 74a62 62 0 0121-32c14-10 28-12 37-12a78 78 0 0154 13 75 75 0 0124 31H104z"/><g opacity=".5"><path d="M84 194l1 1v1l-1-1v-1z" opacity=".8"/><path d="M84 198h1l-1 2v-2zm153 28v1h-2v-1h2zm6 0l1-1-1-3v4zm-3-20h3l-1-2-1 2zm3-4l-1-1h1l-1 1z" opacity=".5"/><path d="M247 220l-1 3h1v-3z" opacity=".3"/><path d="M268 201c1 0 2 1 1 2v1h-1v-3z" opacity=".8"/><path d="M267 205v1l1-1-1-1zm3-6s2 2 3 1l1-2c-1-1-4 0-4 1z" opacity=".5"/><path d="M101 216l2 2-3-1 1-1zm4 11h2l2 2-4-1v-1z" opacity=".3"/><path d="M94 200l-2 2c1 1 2 1 2 3v2h2l-2-4v-3z" opacity=".8"/><path d="M98 210v2l-1 1v-1l1-2zm0 3l1 1s1 0 0 0c1-1-1-1-1-1z" opacity=".5"/><path d="M122 215l-1 3c-1 2 0 4 1 4v-7z"/><path d="M86 219l1 3-1 1-1-1 1-3z" opacity=".5"/><path d="M122 212a1 1 0 00-1 1v1l2-1-1-1z" opacity=".8"/></g><g fill="#fff"><path d="M182 39a35 35 0 0117 5 100 100 0 00-18 12 97 97 0 00-27 35 100 100 0 00-7 26 120 120 0 00-1 20 71 71 0 01-14-7c0-11 1-33 14-55a91 91 0 0130-33 82 82 0 016-3zm19 19l11-5a87 87 0 0113 14c3 4 12 18 15 39 1 6 4 31-6 49l-8 14a51 51 0 00-5 16 44 44 0 00-1 5v25l-14 8v-39c2-9 4-12 10-25s10-21 11-33c0-4 1-12-1-22-2-9-6-16-14-29a252 252 0 00-11-17z"/><path d="M163 39a95 95 0 00-38 57c0 3-3 12-3 24 0 6 0 11 2 18 1 4 3 6 7 13l10 21a63 63 0 014 26v55l-13-17-1-47a61 61 0 00-2-10c-3-8-6-13-10-19l-9-20a117 117 0 0111-71c8-16 13-21 16-22a51 51 0 0112-6 53 53 0 0114-2z"/><path d="M206 143a50 50 0 0014-10c-1-13-5-34-18-54a109 109 0 00-12-14c-5 4-12 9-18 17a91 91 0 00-17 53v159a82 82 0 0013 10V136c0-8 2-21 9-36a87 87 0 0111-18 90 90 0 0110 18l5 20a128 128 0 013 23z"/><path d="M183 271l13-13V146l-1-8c-4-20-5-30-7-30-1 0-3 8-5 36v126zm48-87v13l13-9v-24a45 45 0 00-9 10 45 45 0 00-4 9zm-125 4l13 10v-15a30 30 0 00-4-9 30 30 0 00-9-8v22z"/></g></g></switch></svg>