<svg xmlns="http://www.w3.org/2000/svg" viewBox="0 0 350 350"><switch><g><path fill="#fff" d="M60 60h230v230H60z"/><path d="M281 281h-57a25 25 0 005-10 25 25 0 001-10h-82l13 20H70V115c10 4 14 2 16 0 3-4-4-12-12-33a207 207 0 01-5-12h212v211z"/><linearGradient id="a" x1="83" x2="267" y1="181.7" y2="181.7" gradientUnits="userSpaceOnUse"><stop offset="0" stop-color="#8e6694"/><stop offset="1" stop-color="#5d445c"/></linearGradient><path fill="url(#a)" d="M267 83H83v184h69l9 14h63a25 25 0 006-14h37V83z"/><path d="M272 187l-7-1h-1l1 2-2-1a3 3 0 00-2 0l-1 1-1-1-1 1h-4l-1 1-2-1h-3l-3-1-3 1-3 1v-1h-5v2h-2c-2 0-3 3-5 6l-4 3h9-2a32 32 0 008 0h3-1 7-1l3 1h2a24 24 0 013 0h-2 1l2 1a27 27 0 002 0h2-4l-2 1h-2a30 30 0 00-3 0h-3l-1-1v1a51 51 0 00-1 0h-6l-1 1h-1v-1h-1l-1 1h-1-2v1l-1-1h-2v1l1 1-2-1-1-1h-2a7 7 0 01-2 0l-4 1a32 32 0 01-7 6 212 212 0 00-1 24h11l2 1 3-1-1 1h2v-1h1v1h6l5 1h-7l1 1-2-1h-3v1h-1l-1-1v1l-1-1-2 1h-3l-1-1-1 1h-7a249 249 0 016 17h1l1-1h2v1h4l2-1 1 2 2-1h1v1l1-1 1 1h2l2-1 2 1h2l1-1 1 1h4l4 1a34 34 0 004-1l-3 1-3 1h-8-2v1l-1-1h-4-1-5v1l-3-1h-2l1 1h-3a7 7 0 00-2 0 7 7 0 00-1 0l3 9v4l-3 4-10 9v3a43 43 0 01-4 2l-10 4c-1 0-10 2-17-3a19 19 0 01-6-10l-19-29 4-1h3l2-1 1 1 2-1h7l1-1 1 1 1-1 1 1h1l1-1h5l1-1a3 3 0 011 0l1 1h14a49 49 0 006-1h-5-3l-2-1h-8l-1-1h-1l-2 1-1-1-1 1h-2a56 56 0 01-3-1h-1-1l-2-1a5 5 0 00-2 0l1 1-3-1h-3-1v1l-1-1h-6l1 1h-3l-1-1h-1v1l-2-1-1-1v1h-1-1a3 3 0 00-1 0h-1l-1-1-4 1h-3l-1-1h-3l2-1h8v-1l1 1a4 4 0 002 0 132 132 0 00-5-7l-5-8-5-2-7-7c-4-6-5-12-5-15l-4-3a8 8 0 01-2-1 175 175 0 01-11-10 175 175 0 01-18-23 256 256 0 01-22-32 198 198 0 01-27-84 261 261 0 0019 33c11 15 22 29 24 28 1-1-4-7-6-18a81 81 0 01-2-17 146 146 0 012-32 377 377 0 007 25 288 288 0 0025 58 494 494 0 0030 38 50 50 0 008 5l6-1h7l1-1h3l-1 1h2v-1l1 1 1-1h4-3l1 1h3l2-1h4l1-1v1h4-1l3-1-1 1h2l2-1c1 1-1 1-1 1h5l1-1h2v1h1l2-1h-2l-2-1-1 1h-3l1-1h-6l-2-1 1 1-2-1h-5-6-2l-4-1h-8v-1h-5l-4-1h-4a12 12 0 01-2-1 40 40 0 007 0v-2l-19-15-3-20 18 1 15 14 1 7a41 41 0 018-9 19 19 0 013-1h3l-1-1h1l1 1h2l1-1 1 1h1l2-1 1 1h2v-1h3l2-1v2-1l2-1v1l1-1h1v1h1v-1h1l1 1h2l1-1v-1l2 1 1-1 1 1-1 1h1l1-1 1 1 1-1h2v1l1-1h14-1 7l2 1h3l4-1a6 6 0 01-3 0l-1-1-2 1-1-2h-1v1a6208 6208 0 00-1-1 1 1 0 00-1 0v1h-1v-1h-2v1l-1-1h-1l-1-1a2 2 0 00-1 0v1h-1v-1l-1 1h-1v1l-1-1v-1l-1 1h-6l-1-1-2 1h-5v-1h-8 1l-2-1h-1v1h-1l-3-1h-6-8-1l-2-1-3-1h-3a48 48 0 01-4-1 191 191 0 0016 0 242 242 0 0127-20 13 13 0 012 0l2-1v-1l1 1h4v-1l2 1h3v-1h2l1 1 1-1h1l1 1 1-1-1-1 2 1h2v-1h1v1h2l-1-1h4v-1l1 1h4l1 1h2v-1l1 1h3v-1l1 1h10l8-1h5a4 4 0 00-2-1h-2-2l-4-1-1 1v-1h-1a38 38 0 01-2 0h1-4-2-2a12 12 0 00-3 0l1-1-2 1h-5v-2l-2 1h-5l1-1h-2l-1-1v2l-2-1h-2v1l-1-1-1-1-1 1h-1l-1-1h-3-1v1l-1-1h-2l-1 1h-1l1 1-2-1a39 39 0 00-2-1 9 9 0 00-3 0h-8l7-1h5v-1h2l1 1h3l15-8 20-8 5-2h18v107z"/><path d="M238 189h-2l1 1 1-1zm5 0l-1 1h2l-1-1zm4-1l-2 1 1 1 1-2zm8 11h-1l2 1-1-1zm4 1h0zm-25 36c-1 1 0 1 1 1v-1h-1zm-1 22l1 1h1l-3-1zm22-2l-1 1h1v-1zm-76-123l2 1h-1l-1-1zm-4 1h0zm58-32l1 1h1l-2-1z"/><path fill="#fff" d="M116 192a296 296 0 01-43-56 295 295 0 01-21-43c10 16 25 36 47 55a252 252 0 0035 26s1 8-5 14a17 17 0 01-13 4zm14-62l1 10 16 12 2-11-11-10-8-1zm27 70l8 25 6-13-14-12z"/><linearGradient id="b" x1="228.7" x2="261.1" y1="92.2" y2="92.2" gradientUnits="userSpaceOnUse"><stop offset="0" stop-color="#3d3c3d"/><stop offset="1" stop-color="#0f0f0f"/></linearGradient><path fill="url(#b)" d="M255 86a92 92 0 00-8 2 109 109 0 00-18 8l14 2h18a36 36 0 01-5-1c-3-2-5-2-6-4 0-2 2-5 5-7z"/><linearGradient id="c" x1="189.2" x2="249.2" y1="118.8" y2="118.8" gradientUnits="userSpaceOnUse"><stop offset="0" stop-color="#3d3c3d"/><stop offset="1" stop-color="#0f0f0f"/></linearGradient><path fill="url(#c)" d="M208 110l41-1-8 1-22 4c-3 1-9 3-9 6 0 0 1 2 13 5a193 193 0 0011 3 711 711 0 00-28-2c-9 0-16 0-17-2 0-1 0-2 9-8a177 177 0 0110-6z"/><linearGradient id="d" x1="157.5" x2="219.8" y1="150.9" y2="150.9" gradientUnits="userSpaceOnUse"><stop offset="0" stop-color="#3d3c3d"/><stop offset="1" stop-color="#0f0f0f"/></linearGradient><path fill="url(#d)" d="M220 142a653 653 0 00-50-1 364 364 0 00-7 8c-5 5-6 6-5 7 0 3 6 4 19 4l27 1c-17-3-25-7-25-9 0-4 14-7 41-10z"/><linearGradient id="e" x1="163" x2="201.9" y1="271.1" y2="271.1" gradientUnits="userSpaceOnUse"><stop offset="0" stop-color="#3d3c3d"/><stop offset="1" stop-color="#0f0f0f"/></linearGradient><path fill="url(#e)" d="M196 255l-28-1c-1 0-4 0-5 2s1 4 1 4c10 13 13 27 24 28 4 1 8-1 9-2 2 0 5-2 5-3l-2-2a12 12 0 00-4-3h-4c-3 1-4 6-5 6l-4-4a67 67 0 01-1-6 68 68 0 010-15 35 35 0 017-2l6-2z"/><linearGradient id="f" x1="126.8" x2="199.7" y1="207.5" y2="207.5" gradientUnits="userSpaceOnUse"><stop offset="0" stop-color="#3d3c3d"/><stop offset="1" stop-color="#0f0f0f"/></linearGradient><path fill="url(#f)" d="M176 229c-2-5 6-10 5-17-1-5-5-9-10-11-3-2-4-4-4-6-1-5 10-12 33-20a7172 7172 0 01-53 0l-3 1c-2 2-2 4-3 7 0 0-1 5-4 8-3 4-5 3-8 6-2 3-2 7-2 8l2 8 8 6 6 5 5 7a302 302 0 004 7l47 2a464 464 0 00-12-5c-9-4-10-4-11-6zm-4 5l-6-1c-4-1-7-11-9-18a5317 5317 0 00-6-21l1-2a4 4 0 012-1 52 52 0 0110-3 15 15 0 00-4 5v1c-1 2 1 5 9 11 5 4 7 4 7 6l-4 8-4 9c1 2 2 4 8 7a46 46 0 01-4-1z"/><path d="M86 89h3l1-1 1 1h1l1 1 1-1h1v1l1-1 1 1h1-2 3l1 1v-1h4v-1l1 1h2l1-1v1l1 1h1l1-1h1v1h1l1-1h1l1 1v-1l1-1 1 1 1 1 1-1h2l1 1h1l1 1v-1h2v-1 2l1-1 1 1 1-2 1 1h3v2h1v-1l1 1 1-1v-1 1h2l1-1h1v1h2l1-1h1v1h1l1-1v1l1-1 1 1h1l1-1h1l1 1h1l-1 1h-2l-1-1-1 1h-4l-1 1h1-2v-1l-1 1-1-1-1 1h-3l-1 1h-2v-1l-1 1h-2l1 1h-1l-1-1 1 1h-1l-2-1v1h-1v-1l-1 1h-1v-1l-1 1h-2v1-1h-2l1 1h-1l-1 1-1-1h-1l-1-1 1 1h-2v1h-1v-1 1h-1l-1-1-1 1h-1v-1l-1 1 1-1-1-1-1 1h-1v1h-1l-1-1h-1l-1 1h-1l1 1-1 1v-1h-1l1-1h-2l1 1v1h-2l-1-1h-1v1l-1-1v1h-2v-1h-1v1l-1-1h-1v1l-1-1v2l-1-1-1-1 1-1h-1l-1-1 1-1v-1h-1v-1l-1-1 1-1h-1v-1l-1-1z"/><path d="M117 89h2-2zm6 1h1v1zm-13 9h3-2zm12-2v1h1zm9 0h-1v1h1v-1zm20-3l1-1h1v1l-1 1h-1zm-16-3h-1l1 1v-1zm-40 21h1l1 1h1v-1h1l1 1 1-1h1l1 1h1v-1h1v1h3v-1h2l1 1v-1 1h-2 2v1l1-1h1v-1 1h1l1 1h4l-1-1h-1 2v1l1 1v-2 1h5v1h1v-1h1v1l1-1 1 1v-1h3v1l1-1h-1 3v1h2l1-1v1h2l-1-1 1 1h2v1h2v-2l1 1h2v-1l1 1 1-1 1 1h-2v1h-1v1l-1-1h-1l-1 1h-1l1 1-2-1h-1v-1h-1v1h-1v-1 1h-2v1h-2v-2l-1 2v1l-1-1v-1h-3v1h-1l-1 1-1-1 1-1h-2v1h-2l-1 1v-1h-3v-1l-1 1h-1v1l-1-1v1h-1v1l-1-1v1h-4l1-1h-2v1h-2v-1l-1 1h-1v-1l-1 1h-2v-1 1h-1l-1-1h-1v1h-3l-1-1 1-1h-1l1-1-1-1v-1l-1-1 1-1z"/><path d="M105 111h2v1h-1v-1zm19-1l1-1v1zm0 2v1l1 1v-1zm6-3l1 1h2l-1-1h-1zm-8 10h3l1 1h-3zm18 0h1l1 1h-2l-1-1zm4-1v1h1zm5-1h2v1h-1v-1h-2zm3-2v1h1v-1h-1zm-50-5l1 1h-1zm-20 94h4v1h1-1 4l1 1 1-1h4v1l1-1 1 1h8-1l-1 1h-5 1l-1 1h-1l-1-1h-1l-1 1v-1h-4l-1 1h-8v-4zm-1 24h2l1 1h1v-2l1 1 1 1 1-1v1h1v-2 1l1 1h2v-1l1-1v1h1v2-1h2v-1h1l1 1h1l1 1h2l1 1 1-1h-1l1-1h1v1h3l1-1 1 1h7l1 1h-1l-1 1v-1h-2v1h-3v1l-1-1v1h-2v-1 2h-1v-1h-5v1l1 1-1-1h-2v1-2l-1-1 1 2-1-1h-4l-1 1h1-1l-1 1-1-1h-2v1l-1-1h-2v1l-1-1h-6v-2h1l-1-1v-1l1-1-1-1zm32 5l1 1h1v-1h-1zm9-1l1 1v-1zm-2-1h-1v1l1-1zm-3 2v1h1v-1z"/><path d="M101 229h2l-1-1zm-15-2h1v1h1v-1h-1zm4 0v1h1v-1zM80 252h1l1 1h1v-1h1v1h1v-1h2v1l1-1h2l1 1 1-1h1l1 1 1-1v-1l1 1v1l1 1h1l-1-1h3l-1-1h2v1l1-1 1 1h1l1 1v-1h1l1-1v2h1v1-1h1l1-1v1l1 1h1v-1h2l1 1 1-1h1v1-1l1 1 1-1 1 1v-2 1l1 1v-2l1 2h2l1-1h1v2h1v-2h1v2h2v-1h2l-1 1h1l1 1 1-1v1h1v-2h1v1l1 1h1l1-1v2h-2l-1-1v1h-2l-1 1 1-2h-1l-1 1-1-1 1 1 1 1-1-1h-1l-1 1h-1v-1h-1v1h-2v1h-1l-1-1h-1 1v-1l-1 1h-1v-1l-1-1-1 1-1-1 1 1 1 1h-2 1-2v1l-1-1h1-2l-1-1v1h-1l-1 1-1-1-1 1-1-1v1h1-2l-1 1v-3 1h-1v1l-1-1-1 1 1-1h-3v1l-1-1 1 1-1 1v1h-2l-1-1v-1h-1v1l-1-1-1 1h-7l1 1h-3v-1l1-1-1 1h-2l-1 1-1 1-1-1h-2v-1l1-1-1-1v-2l1-1-1-1 1-1h-1l1-1z"/><path d="M111 252h1v1h3v-1h-3zm11 1v1h1l1-1h-1zm10 0h1l1 1v-1h1-2zm6 0v1h1v-1zm3 3v1-1zm1 1v1h1zm4-2h-1v1h2v-1h-1zm0 2h-1 1zm-9 1v1h1v-1zm-20 3v1l1-1zm-3-1v1h1zm34-2v1zm3-1l-1 1h1zm-45 4v1h2v-1h-1zm-9 0l-1 1h-2v1h2l1-1zm-4 1l-1 1h-2l-1 1h3l1-1zm-5 2h-1v1l1-1z"/></g></switch></svg>