<svg xmlns="http://www.w3.org/2000/svg" viewBox="0 0 350 350"><switch><g><path fill="#fff" d="M60 60h230v230H60z"/><path d="M280.5 280.5h-56.6a25.1 25.1 0 005.3-9.2 25.1 25.1 0 001-10.2l-82.5-.4 13.3 19.8H69.5V115.4c10.8 3.1 14.8 2 16.3 0 3-4-4-12.3-12-33.2a207.3 207.3 0 01-4.3-12.7h211v211z"/><linearGradient id="a" gradientUnits="userSpaceOnUse" x1="83" y1="181.7" x2="267" y2="181.7"><stop offset="0" stop-color="#8e6694"/><stop offset="1" stop-color="#5d445c"/></linearGradient><path d="M267 83H83v184h69l9 13.5h62.9a25 25 0 006.2-13.5H267V83z" fill="url(#a)"/><path d="M271.9 187c-3.6.1-5.7-.3-7-.8-.1 0-1-.4-1.2-.2-.3.4 1 2 1 2-.2 0-.8-1.1-2-1.3a3 3 0 00-1.7.3c-.9.4-1.3 1-1.5.8-.3-.1.1-1-.1-1.1-.2-.1-.7.5-1.4.9-1.8.9-4-.7-4.5 0-.3.4 0 .8-.2 1-.4.3-1.3-1-2.6-.9-.6 0-.6.3-1.4.4l-1.4-.1c-1-.3-2.2-.6-3.2-.6-.8 0-1.5.3-3.1.9-1.6.5-2.8 1.1-3 1 0-.2.7-.7.5-1 0-.3-1.1-.2-2.4-.1h-3.2c.4.4.8 1 .6 1.3-.3.5-1.2.2-2 .3-2.2.2-3 3-5.6 5.7-.8.8-2 2-4 3.1h5.8l3.3-.1s-1.8.1-1.8.3a31.6 31.6 0 007.9 0c1.7-.1 3.2-.5 3.2-.3l-1 .5c.1.2 1.5 0 3.7 0h3.6l-1 .3 2.7.3 2.4-.1a24 24 0 012.2 0c-1.6.1-2 .2-2 .3l1.1.3 2 .4a27.1 27.1 0 002.2.2c.9-.2 1.8-.3 1.8-.1l-.7.5c-1 .4-1.5 0-2.6 0-.9 0-.8.4-1.9.5-.9.2-1.4.1-2.3 0a30 30 0 00-3.6-.1l.7.3h-2.8c-.4 0-1-.2-1.8-.6l.1.2c.2.3.5.5.7.5a51 51 0 00-1.5-.1h-.9c-.7-.2-.9-.4-1.2-.3-.4 0-.3.4-.8.7-.5.3-1 .2-1.1.2-.8-.2-1-.7-1.4-.6-.5 0-.5.6-1 .9-.5.2-1 0-1.5-.1.5-.4.6-.5.5-.6 0-.2-1-.3-1.6.2-.4.2-.3.4-.7.7-.6.3-1.3.3-1.4.1l.2-.3c-.1-.3-1.2-.5-1.6-.1-.3.4 0 1.1-.2 1.3-.1.1-.3 0-1.4-.6-.8-.5-1.2-.8-1.5-.7l-.3.5c0 .2-.3.6-.2 1 .2.5 1 .5.9.7 0 .1-1.4.3-1.8-.4l-.5-1.5a.6.6 0 00-.2-.3c-.3-.2-.7 0-1 0l-.4.6c-.3.2-.6.2-1 .2a7 7 0 01-2.2-.3c-.7-.2-1.8-.2-3.4.5a32 32 0 01-7 6.5 211.9 211.9 0 00-1.5 24l2.6-.1-.5-.4 2 .2 1.2-.2c.4.1.3.3.8.5.1.1.9.5 1.7.3.6-.2 1-.7 1.1-.6v.4c.1.3.7 0 1.5 0l1.4.1 1.9.3c.5 0 1.3 0 2.4-.4 0 .2-.2.5-.4.6l-.3.2h1.6c.2-.1.1-.3.4-.6.3-.2.7-.4.9-.3 0 .2-.2.5-.1.7.2.4 1.2.3 1.5.3 1.1-.1 2-.6 2-.4 0 0-.3.2-.3.4.1.3 2 .1 3.4 0 1.1 0 2.7 0 4.6.5l-1.4.2h-2.2l-1.5.1c-1.3 0-2-.4-2-.2-.3.4.7 1.4.7 1.4s-.5-.7-1.3-1c-.5-.2-.6 0-1.7-.2-.8-.1-1.2-.3-1.4 0-.2.2 0 .6-.1.7-.2.2-.8 0-1-.1-.6-.3-.9-.7-1-.6-.3 0-.2.5-.4.6-.2.2-.5-.2-1.1-.2-.5 0-.5.2-1.4.3h-.8l-.8.2c-.6 0-1-.5-1.3-.3-.1.1 0 .2-.2.2-.3.1-.5-.6-1-.6-.3 0-.3.3-.8.5l-.9.1h-4.2c-.8-.1-1.3-.2-2 0a2.7 2.7 0 00-.5.4 248.7 248.7 0 015.8 17.3c.4.1 1 .3 1.6 0 .6-.3.5-.8 1.2-1.3.9-.5 2-.3 2-.2 0 0-.7 0-.8.3 0 .2 0 .4.2.5.2.3.6.2.9.2.6-.1.7-.4 1.1-.4l.7.1 1.7.5c1 0 1.6-1 2-.8.4.2.1 1.1.6 1.4h.7c.1 0 .4 0 1.1-.4l1-.5s.6 0 .8.2c.1.3-.3.7-.2.8l.8-.4c.4 0 .7.2 1.2.4.7.4 1.5.3 2.3.1 1.1-.1 1.1-.5 2-.5.3 0 .4 0 1.8.5 1.5.4 2 .4 2.1.2.2-.3 0-.6.2-.7.2-.3.8.2 1.7.4.8.2 1 0 2 .1 1 0 1.3.3 2.2.5 1 .2 1.7.1 3.2.1a33.7 33.7 0 004-.3c-1 .6-1.8.9-2.4 1-1 .3-1.2 0-2.8.4-.7 0-1 .2-1.5.1l-1.4-.1h-.6c-.6.1-.6.5-1 .6-.8.2-1.4-.9-2-.6-.2 0-.1.2-.4.4-.2 0-.6.3-.9.2-.3 0-.3-.4-.6-.6-.5-.3-1.4-.1-1.7.4v.6c-.3.1-.8-.7-1.6-.7-.3 0-.3.2-.7.2-.7 0-.8-.3-1.4-.3-.8 0-1.2.7-1.5.5-.3-.2-.1-.5-.4-.7-.2-.1-.6.1-.7.2-.4.2-.5.5-.7.5-.2 0-.2-.4-.5-.5l-.7.4c-1 .7-2.7-.3-3 .2 0 .2.2.4 0 .6-.1.3-1.1-.3-2.7-.6-.8 0-1.8-.1-2 .1 0 .2.5.5.4.6 0 .3-1 .2-3.2 0a7.2 7.2 0 00-1.3 0 6.6 6.6 0 00-1.5.4l2.7 8.3c.3 1 .7 2.5.3 4.3-.4 2-1.7 3.3-2.6 4.2-4 3.7-8 7-10.2 8.6l-.3 3.2a43.2 43.2 0 01-3.4 2c-1.4.8-5.7 3-10 4-1.8.3-10.3 1.9-17-3.4a19.3 19.3 0 01-6.6-9.9l-18.6-29c2.7.5 3.7.2 4-.4.2-.3.3-.8.6-.9.3 0 .4.4 1 .5l1.3-.3c1.4-.5 1.9-.6 2.3-.4l.2.3c.5.3 1.1 0 2.3-.3.9-.2 2.1-.6 2.3-.2v.3c.3.4 2.2.5 3-.3.1-.2.4-.4.6-.4l.6.2h.7l1-.4c.6 0 .9.4 1.4.2l.4-.2c.3-.2.2-.3.3-.4.4 0 .6.6 1.3.8h.8c.5-.2.5-.5 1-.6.4-.2.6.3 1.1.1.5 0 .5-.5 1-.7.2 0 .6-.2.9 0l.2.2c.3.3.8.3 1.2.1.3 0 .2-.2.7-.4l.6-.2a3 3 0 011.4 0c.4 0 .3.2.6.2.9.2 1.5-.2 1.6 0 .1 0-.5.4-.4.7.1.2 1 .2 1.6 0 .8-.2 1-.5 1.4-.4.6 0 .7.6 1.2.6.9.1 1.5-1 1.9-.8.2.1 0 .4.2.6.4.5 1.8.2 2.3 0 1.5-.3.8.2 4.4-.2a48.7 48.7 0 005.4-.8c-1.8-.5-3.2-.5-4.2-.4-.6 0-2.6.3-3.7 0l-1.3-.4-.7-.3c-1.6-.8-6.2.3-7.8-.5l-.7-.3c-.2 0-.7-.2-1.3-.1-1 .2-1.1.8-1.7.8-.8 0-1.1-1.2-1.5-1-.2 0 0 .5-.3.8-.6.7-2.2 0-2.6 0a56 56 0 01-2.8-1.2c-.2-.1-.5-.2-.8-.1-.4.1-.4.6-.7.8-.5.2-1.1-.6-2.3-1a4.7 4.7 0 00-1.7-.3c.6.6.6.9.5 1-.2.3-1.2 0-3.2-.6l-2.4-.5c-.8-.2-1.4-.3-1.5 0-.2.2.4.8.3 1-.2.1-.8-.3-1.5-.6-.8-.4-.9-.2-3.6-.6-1 0-1.7-.2-1.8 0 0 .3.4.5.3.8-.2.4-2 0-2.2 0-.3 0-.8-.3-1.7-.7-.5-.2-.9-.3-1-.2-.3.3.2.9 0 1-.3.2-1-.2-1.5-.7-.4-.3-.5-.6-.7-.6-.1.1.1.7-.2 1-.3.3-.9.2-1.2 0-.4-.1-.4-.3-.9-.5a2.7 2.7 0 00-.7-.2h-1.2c-.7.2-.9-.1-1.7-.3-1.4-.3-1.6.3-3.5.1h-3l-1-.1c-1.9-.6-3.5-.2-3.5-.5 0-.4 2-1.4 2.8-.8.1.2.4.5.8.4l.3-.2s.5-.3 1-.2c.3 0 .3.2.5.3.4.1.7 0 1.1-.2.3-.2.4 0 2 0 1.5 0 1.9 0 2-.3 0-.2-.3-.4-.3-.5.1-.1.8.4 1.5.6a3.7 3.7 0 001.8.1 132.2 132.2 0 00-5-7.4c-2.7-4-3.3-5.8-5.6-7.5-1.8-1.4-2.4-1.2-4.6-2.5-3.9-2.3-6-5.5-7-7-4-5.9-4.6-12-4.7-14.6l-3.8-3.2a7.6 7.6 0 01-2.8-.7 174.5 174.5 0 01-10.7-10.4 175.2 175.2 0 01-18-22.6A255.7 255.7 0 0162 133.6a198.3 198.3 0 01-26.9-83.3 260.6 260.6 0 0019 32.8c10.6 15.4 22.1 28.6 23.6 27.7.9-.6-3.4-6.5-6.1-17.6a80.8 80.8 0 01-2-17.6 146 146 0 012.1-31.2 377.2 377.2 0 007.4 25 288 288 0 0025.3 57.6c2.4 4 7.7 11.4 18.4 26.1 2 2.8 5.2 7.2 10.8 11.5a49.5 49.5 0 008 5l6.3-.2c-.3-.5-.3-.7-.3-.8.3-.3 1.5-.2 2.5.3.4.2.7.4 1 .3.3-.1.2-.6.5-.7.4-.3 1 .6 1.8.5.3 0 .4-.1 1.2-.5l1.5-.6c1.2-.3 2.4-.2 2.5 0 0 .3-.7.5-.7.7 0 .2 1.2.4 2 0 .3-.3.3-.8.5-.8.3 0 .3.6.7.7.4.1.8-.4 1.3-.7 1.4-.8 3.3-.1 3.3 0l-.8.2c-1.3.2-1.6.2-1.6.4l.8.5c.4.2 1 .4 1.5.3.5-.1.5-.4 1.2-.6.8-.4 1.1 0 2.1-.3l1.2-.6c.8-.2 1.6-.1 1.7 0 0 .3-.7.6-.7.7l1.4-.2c.8-.4 1.1-1 1.3-.8.2 0-.1.5.1.8.3.3.9 0 2.2 0h1.4l-.7-.6c2.1-.6 3-.7 3-.5.1.2-.5.6-.4 1 .2.3.8.4 1.3.1l.6-.7c.7-.6 2-.6 2.1-.3.1.3-1.1 1-1 1 0 .2.5 0 1.3-.3.6-.2 1-.3 1.7-.3.8 0 1 .2 1.8 0l.7-.2c.8-.2 1.5-.4 1.7-.2.2.3-.3.8-.1 1 .2.2.7-.1 1.3-.4 1.5-.5 2.4-.3 2.4-.5 0-.3-1-1-2-.8l-.6.1c-.5 0-.8-.3-1.2-.4-.5-.1-.8.2-1.4.4-1.5.7-3.2.1-3.2 0 0-.2.9-.2.9-.4s-1-.4-2-.4c-.7 0-.8.2-1.8.2-.7 0-1.3.2-1.8-.2l-.2-.2c-.4-.4-1-.3-1.5-.3.5.3.6.4.5.5l-2-.4-2-.2c-1.6 0-2.8.5-2.9.3 0-.2.1-.3 0-.4 0-.3-1.2 0-2.3 0-1.6.2-3.3.2-3.3 0s.7-.4.7-.5c0-.2-1.5 0-3.4 0-1.8 0-4-.1-4-.4l.8-.4c0-.2-2.4-.4-5-.2-1.9.2-3.7.6-3.8.3 0-.2.5-.4.4-.7 0-.3-1-.3-2-.3l-3.6-.1c-1.7 0-1.4-.3-3.9-.5-1.7-.1-2.3 0-3.5-.4a12 12 0 01-2.2-.7 39.7 39.7 0 006.6 0v-2.7L125.1 144l-3.1-20.3 18.3 1.2 15 14 .4 6.8a41 41 0 018.3-9.2 19.4 19.4 0 013.2-.5c1.5-.2 2.7 0 2.7-.4.1-.3-1.1-.8-1-1 0 0 .8.1 1.5.6.4.3.3.4.7.6.7.5 1.8.6 2.3 0 .3-.3.2-.7.4-.8.4-.1 1 .4 1 .9v.5c.2.2 1-.2 1.4-.4 1-.5 1-.7 1.4-.7.7 0 1.5.5 1.5.6l.6.4c.5.2 1.2-.1 1.5-.7 0 0 .2-.3 0-.6l-.2-.4 2 .4 1.1.2c.9-.2 1.3-1 1.5-.9.3.1-.2 1.2 0 1.4l.7-.5c1-.8 1.4-1.2 1.6-1 .1 0 0 .4.2.5l.6-.3 1-.7c.2 0-.2.9.2 1.2.3.3 1 .1 1-.2.2-.2-.1-.4 0-.6.1-.2.7-.2 1 0 .7.3.8.9 1.2 1 .4 0 .5-.6 1-.6.6 0 .7.6 1.2.5.3 0 .6-.4.7-.8l-.2-.6-.2-.3c0-.2 1 .2 2 .2a2.3 2.3 0 00.7 0l.5-.3c.6-.3 1.6.2 1.6.4 0 .1-.1.2-.7.3-.2.2-.4.4-.3.6 0 .2.5.2.7.1.5 0 .5-.4.8-.4.6 0 1 1 1.2.8l.1-.5c.2-.3.6-.4 1-.5.6 0 1.2-.2 1.6.1.4.4.3.8.5.9.4 0 .5-.4 1.2-.7l2-.1 1-.1c.5-.2.8-.4.9-.3 0 0-.1.3 0 .4 0 .1.2.2 1.3 0 1-.2 1-.4 1.5-.4.6 0 .7.2 1.3.4.7.2 1 0 2.6-.1 1.3-.2 2.9-.3 2.9 0l-.5.2c0 .2 1.3 0 2.8-.1 1.5-.1 2.4-.2 3.6 0 1.1.3 1.1.5 2.2.6.9.2 1.5 0 2.7 0l4-.4a6 6 0 01-2.5-.7l-.8-.4c-1-.2-1.4.4-2 .2-.6-.2-.5-.8-1.2-1.1 0 0-.8-.4-1.1 0-.3.4-.2.9-.1 1a6208 6208 0 00-1.3-1.5 1.2 1.2 0 00-.4.4v.6c-.1.2-.6 0-1-.2-.4-.4-.3-.8-.7-1h-1.4c-.2.3 0 .7-.1.8-.2 0-.4-.5-1-.6h-.8l-.5.1c-.4 0-.5-.4-1-.6a1.7 1.7 0 00-.8-.2s.5.7.4.9c-.1.1-.7 0-1-.2l-.7-.5c-.3 0-.3.1-.8.3-.5.1-.7 0-.8.2-.2.2 0 .6-.1.7-.2 0-.7-.2-.9-.6l-.1-.8c-.2 0-.3.4-.7.6l-.9-.1-.6.1-1.2.2c-2 .4-3.2.5-4.1 0-.5-.4-.5-.6-1-.7-.5-.1-.9.2-1.6.5-.7.2-1.2.2-2.4.2-.8 0-2.4 0-2.6-.5 0-.3.5-.6.4-.7-.1-.2-.9 0-1.7.2l-2.3.1c-1.5 0-4 .1-4-.1s.6-.3.6-.4c0-.2-.7-.1-2-.3-.6-.1-1-.2-1.1 0-.2.2.2.6 0 .8-.1.1-.7-.3-1.1-.5-.5-.2-.9-.3-2.7-.3h-5l-.9-.1c0-.2 1-.3 1-.5s-2.6.5-5.8-.1c-1.3-.3-2.8-.8-3.6 0-.2.2-.6.7-.8.6-.1 0 0-.3-.2-.5-.4-.6-1.8-.2-1.9-.4l.4-.3c0-.3-1.5-.4-3.3-.6l-2.6-.4a47.6 47.6 0 01-4.3-1 191 191 0 0015.5 0 242 242 0 0127-20.3 13.4 13.4 0 012.5-.1c.9 0 1.5.1 1.7-.2.3-.4-.2-1 0-1.1.1-.1.6.8 1.5 1h.8c.8-.3 1-.9 1.3-.8.3 0 .3.3.7.5.4.2.9.2 1 0 .3-.4 0-.8.1-1 .3-.2 1 0 1.6.5.4.4.7.9.8.8v-.2c.1-.3.6-.4.7-.5.8-.1 1.1.3 1.5.1.4-.2.2-.7.6-1 .5-.3 1.4.3 1.5.3.4.3.4.5.8.5.3.1.7 0 1-.2l.2-.4c.4-.3 1-.4 1.4 0 .2.2 0 .5.3.7.3.4 1.2.2 1.3-.2l-.2-.6c-.2-.5-.3-.5-.2-.6 0-.3 1.2-.3 1.9.3.2.1.4.4.8.4h.4c.2-.3-.2-.7 0-.8.1-.2.7 0 1.1.2.3.2.3.4.7.6l.8.2h1v-.4c.1-.6-.7-1-.7-1 0-.2.7.1 1.6.3.6 0 1.6.3 1.7 0 .2-.4 0-1 .5-.7.5.4.5.6.9.8.5.3 1.3.3 1.4 0v-.5c.2-.1.5.2 1.2.4.3.2 1 .4 1.3.1.2-.1.2-.4.3-.4.3 0 .4.7 1 1.2.6.3 1.5.4 1.7 0 .2-.2-.2-.7 0-.8l1.4.9c.5.3 1.4.8 2 .4.4-.3.2-1 .5-1.2.2 0 .4 0 .7.3l1.3.7c.8.4 1.7 0 2.2 0 1.5-.5 2.3 0 6.9-.2 1.4 0 3.5-.3 8-.7l4.5-.6a3.7 3.7 0 00-1.2-1c-1-.5-2.4-.5-2.6 0-.1.1.2.4 0 .6-.2.3-.9 0-1.3-.1l-.7-.5c-1-.6-2.2-.5-3.5-.3l-.9.1c-.1-.2-.4-.5-.8-.6h-.5a37.6 37.6 0 01-2-.1l.4.5h-2.1l-1-.4c-.9-.3-1.9-.3-2 0l.2.4c-.1.2-1-.3-2.5-.5a11.7 11.7 0 00-3-.2c.3-.2.5-.5.4-.6 0-.2-.8.3-2 .5l-3.5.1h-1.3c.7-.9.7-1.2.6-1.3-.1-.2-.7.3-1.9.5h-2c-2.2 0-3.4.1-3.4-.1s.5-.4.5-.6c0-.1-.8.2-1.5 0s-1-.8-1.2-.7c-.2.2.3 1.3 0 1.5-.3.1-.7-.6-1.8-1.1-.2-.1-1.5-.7-2-.3-.3.3 0 1-.2 1.1-.2.1-.5-.2-1.2-.8-.8-.7-1-.6-1-.6-.2.2 0 .7-.2.8-.2.1-.5-.2-1-.5-.6-.3-1.2-.3-1.8-.2-.8 0-1 .2-1.5 0l-.8-.2c-.3 0-1-.1-1.2.2-.2.3.2 1 0 1 0 0-.3-.8-1-1H213c-.6 0-.8-.2-1 0-.4.2-.3.6-.6.7-.4.2-.8-.1-1 0 0 .2.3.6.2.7 0 .2-.8-.2-1.7-.7a39.1 39.1 0 00-1.6-.7 9 9 0 00-3-.5l-3.8-.1-5-.2 7.5-.2-.2-.4c.1-.1.8.3 1.6.3.5 0 .6-.2 1.3-.3 1.4-.3 2.2.2 2.5-.2.2-.3-.2-.8 0-1 0 0 .3.4.8.5 0 0 .7.2 1 0v-.4c.2 0 .6.4.7.8l.2.6c.2 0 .3-.2.5-.3.2-.2.6-.3 1.1-.2h1.3c6-3.9 11.3-6.3 15-7.8 6-2.4 10.9-3.7 20.4-7.8l4.4-2h18.4V187z"/><path d="M237.7 188.8c-.3-.2-1.3.2-1.3.5s.5.7 1 .5c.4-.2.5-.8.3-1zm5.7 0c-.4-.1-1 .4-.9.7 0 .4.8.7 1.1.4.3-.2.2-.9-.2-1zm3.5-.5c-.3-.3-1.8.5-1.8 1 0 .4.7.7 1.2.6.7-.2.9-1.3.6-1.6zm7.8 10.3c-.2 0-.3.3-.2.4 0 .5 1 .6 1 .5.2-.2-.5-1-.8-1zm4.3 1v.6c.3.4.8.3 1 .1 0-.2-.7-.8-1-.7zm-25.5 36.8c-.1.2.6.8 1 .6.1 0 .2-.4 0-.7-.2-.4-1-.2-1 0zm-1 21.6c-.1.1.8.7 1.8.8l1-.1c0-.3-2.8-1-2.9-.7zm22.5-1.7c-.2-.2-1.6.4-1.5.7 0 .2.7.4 1.1 0 .3-.2.5-.6.4-.7zM179 133c.1-.3 2.2.3 2.2.8 0 .2-.5.3-.9.3-.9 0-1.5-.9-1.4-1.1zm-3.6.6c0 .1.6.8 1.4.6l.5-.2c0-.3-1.8-.7-2-.4zm57.7-31.2c0 .1.5.7 1.2.9.2 0 .6.2.7.1 0-.2-1.8-1.1-1.9-1z"/><path d="M115.7 192.3a296 296 0 01-43-56.7A295 295 0 0152 92.8c10 16 25 35.9 46.9 55a251.7 251.7 0 0035.2 25.9c.1.7 1.1 8.7-5 14.4a17 17 0 01-13.5 4.2zm14-62.1l1.5 9.4 16 12.2 1.5-10.7-10.7-9.8-8.2-1.1zm27.8 70.2l7.1 24.8 6.7-12.8-13.8-12z" fill="#fff"/><linearGradient id="b" gradientUnits="userSpaceOnUse" x1="228.7" y1="92.2" x2="261.1" y2="92.2"><stop offset="0" stop-color="#3d3c3d"/><stop offset="1" stop-color="#0f0f0f"/></linearGradient><path d="M255.1 86.2a92.4 92.4 0 00-7.9 2 109.3 109.3 0 00-18.5 7.6c.2 1.4 7.7 1.8 14.4 2.1 7.7.4 14 .3 18 .2a35.5 35.5 0 01-5-1.5c-3.4-1.3-5.2-2-5.7-3.4-.6-2 1.4-4.8 4.7-7z" fill="url(#b)"/><linearGradient id="c" gradientUnits="userSpaceOnUse" x1="189.2" y1="118.8" x2="249.2" y2="118.8"><stop offset="0" stop-color="#3d3c3d"/><stop offset="1" stop-color="#0f0f0f"/></linearGradient><path d="M207.7 109.7l41.5-.4-8 1.1c-11.6 1.5-15.7 1.6-21.9 3.7-3.3 1.2-9 3.2-9 5.5.1.6.6 2 12.4 5.6a192.6 192.6 0 0011 3 711 711 0 00-27.7-1.9c-9.5-.4-16.3-.5-16.7-2.7-.1-.5-.1-1.6 8.6-7.6a177.1 177.1 0 019.8-6.3z" fill="url(#c)"/><linearGradient id="d" gradientUnits="userSpaceOnUse" x1="157.5" y1="150.9" x2="219.8" y2="150.9"><stop offset="0" stop-color="#3d3c3d"/><stop offset="1" stop-color="#0f0f0f"/></linearGradient><path d="M219.8 142a653 653 0 00-49.5-1 364.2 364.2 0 00-7.3 7.8c-5.2 5.6-5.7 6.5-5.4 7.3.6 2.6 6.9 3.4 19 4 6.6.4 16 .8 27.4 1-16.7-3.6-25-6.7-25-9.6.1-3.6 13.7-6.8 40.8-9.5z" fill="url(#d)"/><linearGradient id="e" gradientUnits="userSpaceOnUse" x1="163" y1="271.1" x2="201.9" y2="271.1"><stop offset="0" stop-color="#3d3c3d"/><stop offset="1" stop-color="#0f0f0f"/></linearGradient><path d="M195.5 254.9c0-.4-5.9-.7-28-.8-1 0-3.7.4-4.3 2-.7 1.6.7 3.4 1.3 4.2 9.6 13 12.4 26.2 23.2 27.6 4.4.6 8.5-1.1 9.6-1.6 1.3-.5 4.7-2 4.7-3.8 0-.6-.6-1.2-1.5-2a12.4 12.4 0 00-4.3-2.6c-1-.2-2.5-.4-4 .2-3.3 1.4-3.7 5.7-5.6 5.8-.7 0-1.9-.7-3.3-3.9a67.4 67.4 0 01-.9-5.8 67.7 67.7 0 010-14.9 34.9 34.9 0 016.2-2.7c4.1-1.4 6.9-1.5 6.9-1.7z" fill="url(#e)"/><linearGradient id="f" gradientUnits="userSpaceOnUse" x1="126.8" y1="207.5" x2="199.7" y2="207.5"><stop offset="0" stop-color="#3d3c3d"/><stop offset="1" stop-color="#0f0f0f"/></linearGradient><path d="M176 228.7c-2-5 6-9.8 5.2-17-.7-5-5.5-8.7-10-11.1-2.9-1.6-4.4-3.4-4.6-5.2-.6-5.5 10.5-12.2 33.1-20a7172 7172 0 01-53-.4c-.9.1-2 .4-3 1.3-1.7 1.5-1.7 3.7-2.3 6.2-.1.4-1.2 5.1-4 8.5-3.2 3.7-5.7 2.5-8.3 6.3-2.2 3-2.3 6.2-2.3 7.4 0 .8 0 4.7 2.5 8.4 1 1.5 3 3 7.3 6.1 4.5 3.4 4.6 3.1 6 4.4 1.6 1.7 2.1 2.8 5.2 7.6a302 302 0 004.4 6.6l46.6 2.1a464 464 0 00-11.5-5.1c-8.8-3.8-10.5-4.2-11.3-6.1zm-4 5.7c-3-.4-5.2-1-5.6-1.2-4.7-1.4-7.4-11.1-9.2-17.8a5316.6 5316.6 0 00-6-21.8c0-.4.3-.8.7-1.2a4 4 0 011.6-1.2 52.2 52.2 0 0110.8-3 15 15 0 00-4 4.5l-.8 1.8c-.3 1.7 1 4 9.1 10.1 5.5 4 7 4.5 7.3 6.5.2 1.2-.2 2-3.6 8.2-3.5 6.2-4.1 7.2-4 8.7.3 1.8 1.8 4.3 7.8 6.8a45.8 45.8 0 01-4-.4z" fill="url(#f)"/><g><path d="M85.8 89l.4.2h.8l.8.2.8-.8.7.1.8-.5.8 1 .7.2h.8l.8.2.7-.2.8-.4.8.5.8-.3.6.7 1.3-.4-1.8.6 1.2-.5.7.8.7-.5.8.8.7-.5.8-.2.8.5.7-.3.8-.6.8-.3.8.6.7-.3h1l1.2-.1v.6l.3-.1.8 1 .8-.5.9-.7.8.5.7.5.9-.2 1-.2.9-.6.5 1.2.6-1 .8-.9.9.6.1.5 1 .6.7-.7.8-.2.7.4h.7l.7.3.8.4h.7l.9 1 .4-1.2 1 .4.7-1v1l-.2 1.2.8-1.6 1 .8h.4l.8-1.2.6.4 1 .5h1.2l1 .1v1.2h.9l.4-1 1.3 1 .8-.6.1-.7.1.7h1.3l.4.1.3-.4.4-1 1.3.5v1l1.1-.3h1l.5-.7 1-.4.6.9.5.7.8-1 .6 1 .8-1 .7.4.8.1h.7l.8-.4h.7l.8.1 1 .5-.7 1-.8.2-.8-.5-1-.3-1 .7-.7-.1-.3.4h-.3l-.7-.4-.8.2-.7-.4h-.8l-.5 1 .3.6-.9-.4-.8.4-.5-1-.8.4-.6-.5-.8.5-.7-.1.1.7-.7-1-1 .7-.6-.5-.8.3-.6.6-.6.1-.6-.1-.2.5h-.4l-.7-.8-.4.7-.5.2h-1.3l.4.6-.5.6-.4-.8-1-.4.7 1-1-.4-1.1-.5v1h-1.3l-.6-.8-.7.7-.5-.4-.4-.5-.5.6-.9.1h-.3l-.4.2.2-.4h-.6l-.1.8-.7-.9-.9.3-.6.4.9.7-1 .2h-.4l-.9.3-.5-.6-1.1-.1-.7-.6.2 1-2-.7.8 1-.2.6-1 .3-.2-1-.4.2-.6.4-.9-.6-.7.3-.5.6-.7-.5-.6-.4-.2.2.4-.4-1-.8-.7.7-1 .2-.6.6-.8-.1-.5-1.2-.9.6-.5.1-.7.6-.9.3 1 .9-1 .4v-.4l-1.1-.5.5-1-.7.7-1.2-.1 1 1v.8l-1 .3-1-.5-.8-.8-.8.4-.3.3-1-.5v1.2l-.9-.6-.5.4-.7-.2.6-.6-.4-.6-.7.1-.7.9-.7-1.3-.7.8-.4.7-1.2-.7.2 1.4-.9-.3v-.5l-.8-.6.5-1-.8-.6-.3-.7.7-1-.3-.7-.9-.6-.3-.7-.3-.7.3-1-.2-.6V91l-1-.6-.3-.7z"/><path d="M116.8 88.8l.6-.1h.7l.7.2-.8.4h-.7zM123 90l.7-.3.7.1-.5.8zm-12.6 8.7l.7-.2h1.5l.7.4-.4.4-.6.1h-.7l-.7-.2zm12-1.8l-.3.5v.6l.8.3v-.7zm8.5 0l-.6.3-.4.6.2.7h.7l.4-.5v-.6zm19.6-2.8l.5-.5.7-.3.7-.2h.8l-.2.7-.4.5-.7.3h-.8zm-15.9-3.2l-.4.3.8.6v-.9zM95 111.6l1.1.4.6.6h.8l1 .3v-1h.8l.9.7.8-.2h.9l.8.3 1.2.1.5-1 1 .5-.5.6.8.3.7-.5h.7l.7.1.6-.1-.2-.4.8-.2.8-.2.8 1 .8-.4-.5.4-.7-.2-.8.3 1.3.3.7.6.8-.5 1-.4-.3-.5.2.3.6.4.7.1.6.4 1 .2.8.6.7-.5 1.2.1-.8-1-.4-.2.3-.2.7.1h.8l-.5.7v.9l.8.7v-.6l.6-.6-.2-.4.5.6.5.3.9-.3.7-.1 1-.3h.8l1 .3-.8.8.8.6 1.1-.2-.4-.8.6.1.6.5.8-.6.7.4.6-.5.5-.3.7.3 1-.3.5.9.5-.7-.1-.3.7-.2.7.4 1-.1.3.8.8.3.6-.1.7-.2.7-.3.5.3.4.5h1l-.4-1.1.7.8.9-.3.9.4.5 1 1.3-.2.2-.8.3-.8.7.5.3.5.5-.4 1 .3.6-.8 1 .2.8-.2.4.8-.5.2h-.7l-.8.4-.4.4-.3.6-1-.3-.5-.5-.7.3-.8.3-1 .3.8.8-1.3-.2-.9-.6v-.8l-1 .2-.3 1.2-.8-.3-.5-.8-.1.8h-1.3l-.3.6h-.8l-.9.4-.2-1-.7-.8-.2 1.2v1l-1-.3-.3-.9-.7-.4-.9.3-1-.7-.3.9v.6h-.4l-.8.2-.7.3-1-.3.6-.9h-1.5l-.1.7-.5-.3-1 .6h-.9l-1.1.4.4-1-1.4-.2-.2.6-.4-.3-.8.1-.7.5.3-1-.9.8-.6-.4-.7.8-.8-.5v1.1l-1.4-.3.6.9-.9-.4-.6.4-.7.2-.7-.5-1 .3-1.1.2.4-.7-.1-.2-.7.1h-.9l.1.7-1 .5-.7-.1-.7-1-.7.6-1.1.2.6-.8h-.6l-.8.4h-.4l-.3.4-.7-.6-.8.2.2-.5-.2.3h-.7l-.9-.5-.7.1-.7.5-.7.2-.7.4h-1.8l-.2-.8.6-1-1-.5.6-.9-1-.6.3-.8.3-.8-1-.6.8-.9-.2-.7z"/><path d="M104.8 111l.6-.4h.7l.6.3.4.5v.6l-.6-.3-.7-.3zm19.2-1.1l.7-.5.7.8h-.7zm.3 2.5l-.3.8.6.5.9-.2-.4-.8zm6-3l.6.5.8.3.8-.1-.2-.9-.8-.4h-.7zM122 119h.8l.7.1.8.2.7.2.7.2-.8.2v.3l-.8-.1-.7-.3-.8-.3zm17.6 0h.9l.8.3.5.6-.8.1h-1l-.6-.5zm4-.6l.2.5.4.3.4-.5zm5.4-1.8h.7l.6.3.5.3.3.4h-.6l-.8-.2-.6-.3-.6-.3zm2.5-1.4l.9.6.5-.2.3-.6-.9-.1zm-49.1-4.8l.4.4-.6.3zM81.6 203.7l.8.1.8.2.8.4h.9l.7.1.7.4h.8l-1 .1.8.2h.7l.7-.1h.7l.8.4.8.2h.8l.7-.3h.7l.8.1.7-.3.7.2.7.1.6.2.8-.3.7.6h.7l.8-.1.7-.2.8.1h.7l.7-.1h.8l.8.2h.9l.8-.1.6.5-1 .1-.6.5h-.8l-.7-.1h-1.5l-.8-.2-.7.2-.8.1.5.4-.6.3h-1.5l-.7-.3H96l-.8.3-.7-.4-.8.2h-.7l-.6-.2-.7.2-.7-.3-.6.5H89l-.9.3h-.9l-.7.1-.8-.4-.8.4h-.7l-.8-.2-.7.1-.9.2v-1.5l-.1-.8v-.7l-.1-.7zM80.8 227.7l.5-.1.7.3.7-.2.3.6 1 .2.6.3.3-.6v-.6l.6-.4.8.6.6.7.9-.2.5.3h.7v-1.2l.5.3.2.8h.8l.8.5 1-.2v-1.2l.7-.5.5.8 1 .4-.7 1.3.6-.6.7.2.6-.4v-.7l.9-.2h.8l.6.6.6.5h.8l.5.7 1.3-.2v.5l.3.1.7.1.9.3 1.2-.2-.4-.5-.4-.2.5-.6.7.3.6.4.7.7h.4l.6-.3 1.1.2-.4-.7 1-.3 1 .2.7.8.9-.3h.7l.8.2h.8l.8-.5.8-.1h.8l.7.7h.8l.7.2-.7.7-1 .6-.7-.7-.8.2-.7-.1-.7.2v1l-.7-.7-.8.4-1-.5.2 1-.7-.1-.7-.8-.3.9-.1.4-1.1-.1-.6-.5v.6l.2 1.1-1.1-.4-.1-1.2-.8.5-.4.4-.5-.5-.7-.3h-.7l-.3.2-1 .6-.2 1 .5.5-1-.5-.6-.9-.8.5-.2 1 .4-.9-.1-.9-1-.8.2 1.2-.9-.6h-1.4l-.7.1-.6-.3H95l-.6.8.6.8-.7-.4-.7.2-.8.4-.8-.3.4-.8-1 .4-1-.2-.6-.2v1.2l-.6-.5-.4-.6-.9.4-.6.2-.7.3-.8-.3h-.7l-.7-.4h-.8l-.8.5-.7-.5-.8.4-1-.2.1-1v-.7l.4-.8-.6-.8.2-.8.2-.7-.2-.8zm32.6 5.7l.4.7.8.3.5-.5-.4-.4-.7-.2zm8.3-1.6l.2.7.6.3.8-.7-.7-.4zm-1.7-1.2l-.8.3-.6.7.7.2.6-.4zm-2.6 2.1l-.8.5.5.4h.7v-.5z"/><path d="M101.3 228.6l.6.6h1l.4-.3-.6-.3-.7-.1zM86 226.7l.5.7.7.5h.8l.2-.4-.5-.5-.8-.3zm4.1.5l.3.6.6.2.4-.4-.6-.4z"/><g><path d="M80.3 252l.8.4.7.2.8.7.5-1 .6-.3v1.3H85V252l.7.1.1.3 1-.3.5 1 .6-.7.4-.6.4-.2.6.4.6.2.7.3.7.2.8-.7.7.3.7-.1.6.4.5-.4.6-.8.4.7.8.7.2 1.1 1.2-.4-.6-1 1 .8 1.3-.2-.5-1.2 1.4-.1.3.4.6.3.8-.1.8.8h1l.5.2.2.7.6-.8.6-.4.5-.1 1-.4.2 1v.1l.3.5.5.5-.1-.1-.2-.8 1.2.2.7-.4.1.9.6.7 1-.3v-.6h.6l1-.2h1l.6.7.8-.3.4-.7.6.5.3.5v.4l.3.2v-.5l-.3-1 .8.9 1-.3 1 .5.6-1.8.1 1 .2 1 .6-.8.3-.7.5 1.2.6.3h1.2l.6-.4.5-.5v-.5h.6l.8.6-.3 1-.1 1 .8.3.3-1v-.6l-.3-.9 1.2-.2.3 1.1.3 1 .8.2.5-.5.6-.3.5-.4.9.4h.3-.2l-.5.9 1-.4.3 1.1 1.2-.6.3.8.6-.4.6.3v-.7l-.7-1.1 1.5.1v1.2l1.2.7.7-.5.5-.5.8.5-.3 1-.8.2-.8.3-.6-.6-.4-.7-.4.6.3.7h-1.3l-.9-.2-1 .9.4-1.5-.9-.1-.5.5-1.3-.4 1 .6 1 1-1-.8-1 .2-.8.3-1 .3.4-1-1.2.3-.5 1-.9-.7-.7.3.1.4-.4.5-.8-.2-.8-.3-.9.1 1.1-.6-.9-.3-.7.8-.8-.3-.5-.6-.2-1-1 .4-.9-.4.8.6.4.8-1.3-.1.6.8-.8-.3-.8.3-.8.5-.9-.5 1-.7-1.3-.1-1-.3-.8.6-1-.3-.6.9-1-.4-.7.6-.9-.5-.7.3 1 .6-1.2.2-1 .3v-1.4l-.2-.9-.6.4-.3.4-.6.5-1-.5-1 .5 1-.5-1-.5-.7.3h-.8l-.4.9-1-.5.7.8-.7.9.6.8-1-.1-.7.6-.6-.5-1-.4.3-.7-.4-.5-.7-.4-.8.7-.8-.6-.7.7-.6.3-.5-.3.3.3h-.9l-.7-.2-.9.1-.7-.3-.7.5-.9.2-.8-.1h-.6.2l.6.8-1.1-.3-.8.4-1-.4v-.8l.8-.7-.8.8-.6.3h-1.8l-.4 1-.8.4-.8.2-.9-1-.8.4h-.7l-.6-.7.7-.8.4-.8-.8-.8.1-.8-.2-.8.5-.8.4-.7-1-.8 1.1-.8-.4-.8.4-.8z"/><path d="M111.1 251.8l.6.5.5.5.6.4.7-.2.8-.3.7-.2.4-.3-.8-.2-.9-.1-.8-.2-.8-.2zm11 1.2l.2.7v.6h.6l.6-.3.2-.6-.7-.3zm10.3-.2l.5.6.8.1.5-.2.3-.5-.6-.3h-.8zm5.8 0l-.2.5.1.6.5.3h.6l-.3-.8zm2.6 3l-.3.5.1.6.8.2v-.7zm1.6 1.5l-.7.7.6.3.7-.2-.1-.5zm3.1-2.3l-.6.3-.4.6h.7l.6-.1H147.1l-.4-.5-.5-.3zm.4 1.6l-.7.1-.5.5.8.2zm-9.1 1.6l.4.8h1l-.6-.6zm-20 2.5l.1.6.5.4 1-.4-.7-.6zm-3.1-.3l.2 1 .5-.3.2-.6zm34.5-2.4l-.4.7.6.3zm2.5-.8l-.3.3.5.1zm-45 3.3l.2 1 .7.4h.8l.7-.3-.4-.5-.6-.4-.6-.2zm-8.5.5l-.6.2-.6.4-.8.2-.7.2-.7.2.5.5.7.2h.7l.7-.2.6-.4.3-.6zm-4.5 1.2l-.7.7-.8.1-.9.1-1 .6.9.3h1l.7-.1.7-.5.2-.6zm-4.7 1.5h-.8l-.6.5.2 1 .6-.3.5-.5z"/></g></g></g></switch></svg>