<svg xmlns="http://www.w3.org/2000/svg" viewBox="0 0 350 350"><switch><g><path fill="#fff" d="M60 60h230v230H60z"/><path d="M69.5 69.5h211v211h-211z"/><path fill="#d75b2b" d="M79 79h192v192H79z"/><radialGradient id="a" cx="175" cy="175" r="96" gradientTransform="matrix(.7071 -.70712 .84847 .84844 -97.2 150.3)" gradientUnits="userSpaceOnUse"><stop offset="0" stop-color="#fff"/><stop offset=".9" stop-color="#fff" stop-opacity=".1"/><stop offset="1" stop-color="#fff" stop-opacity="0"/></radialGradient><path fill="url(#a)" d="M79 79h192v192H79z"/><g fill="#202020"><path d="M240.9 63.2a67.5 67.5 0 01-3.7.5c-8.7 1-9.4 1-10.2 1.2-.7.1-3.9.6-6.7 1.4-5.4 1.5-8 3.8-14.9 8.1a211.9 211.9 0 01-11.7 7c-7.6 5-14.5 8.2-16.3 8.6-10 6.3-16.4 12-15 15.3 1 2.5 5.8 2.5 14.3 2.5 24.8 0 56.2-8.4 62.7-25 .3-.8 3-7.6.3-10-2.3-2.3-7.6-.2-8.1-1.6-.3-.9 1.4-2.2 2.5-3 2.2-1.3 4.9-2 10.4-1.4 6.6.5 9.2 2 9.6 1.2.5-1.1-4-6.1-8.5-5.7-1 0-1.6.4-4.7.9z"/><path d="M236.6 70c.1.2.4.3.6.3.5 0 1.3-.1 1.5-.7.2-.7-.6-1.6-1.2-1.6-.8 0-1.3 1.5-1 2zm9.5-1.4c-.2-.5-1.2-.8-2-.6-1.5.4-1.8 2.6-1.3 3 .6.5 3.5-1.4 3.3-2.4zm-5.5-.5c-.2.2 0 .8.5.8.3 0 .7-.5.6-.8-.2-.3-1-.3-1.1 0zm9.3.4c-1.2-.6-4.9 3.7-4.2 4.6.4.6 3.3.2 4.3-1.9.4-1 .5-2.5-.1-2.7zm-6.3 4.7c-.2-.1-1 .6-.8 1 0 .1.4.2.6 0 .5-.1.4-.9.2-1z"/></g><path d="M69.5 226.8a137.4 137.4 0 0046.7 24.6c6.5 2 15.2 4 32.8 6.3 11.2 1.4 23.4 4.8 34.8 3 8.2-1.3 14.7-4.7 23.3-5 9.1-.2 14 .5 20.9-5.6 2.3-2 4.9-2.9 7.3-4.5 3.8-2.5 5.4-6.8 9.2-9 3.5-1.9 5-1.2 7.9-4.8a38 38 0 018.1-7.8c6.2-4.7 9.5-12.3 13.4-18.9 1.6-2.8 4-5.9 5-9 .4-1.4 0-2.9.4-4.2 1-3.2.5-2 2.8-4.3 5.9-6 6-8.4 4.3-16.8-1.2-5.4 5.7-13.1 3.2-17-3.6-5.9-17.1.2-21.4 1.6-19.6 6.3-29.8 8.4-37.1 12-18.2 8.9-69.5 27.8-161.6 59.4zm0-34v-14a53 53 0 016.8-5.9l5-4.4c22.6-19.7 27-21.5 33.7-29.8 2.1-2.6 3.6-4.7 6.8-7.3 4-3.3 6.3-3.7 9.7-7.4 2.5-2.8 1.5-3 4-5.6 1.1-1.2 4.5-4.8 9.9-6.8 2-.8 3.5-1 5.2-2.6 1.2-1 1.4-1.8 2.7-3.4.4-.4 1.3-1.4 4.3-3.7 2.5-2 5.5-4.1 9.8-6.3 1.7-.9 2.3-1 5.3-2.3 9.4-4 10.7-5.2 16.8-7.6 4-1.5 6.4-2.4 9.8-3.1 6.7-1.4 9.5-.5 16.9-2 4.7-1 4-1.5 8.2-2.4 8.2-1.7 14.9-.8 23.5.2 3 .4 7 1 12.2 2.2a102.6 102.6 0 0119.6 6.7v27L69.4 209.4l.1-16.7z"/><g><path d="M295.5 107a223 223 0 01-26.8 77.8c-12.4 21.7-25.2 44.1-52.2 57.2-19 9.2-37.1 10-48.3 9.5l-101.4-31v-20.8a3824 3824 0 0154-45.4c45.3-37.5 62.8-50.2 88.7-58a105 105 0 0140.5-5 101 101 0 0145.5 15.7z"/><path d="M249.3 165.3A74.2 74.2 0 01176 238a73.5 73.5 0 01-72.4-74.1A674.5 674.5 0 01200 95.1c30 12 49.6 40.2 49.3 70.2z" fill="#fff"/><g fill="none" stroke="#000" stroke-width="4" stroke-miterlimit="10"><circle cx="176" cy="164.5" r="14.5"/><circle cx="176" cy="164.5" r="34.8"/><path d="M177.7 110.9a53.6 53.6 0 11-54.5 44.3"/></g><path d="M111.5 164.5h29.8m69.4 0h41.1M176 129.7V113m0 86.2v42.5" fill="none" stroke="#000" stroke-width="4" stroke-miterlimit="10"/><circle cx="211.8" cy="124.6" r="6.9"/><circle cx="146.4" cy="180.7" r="6.6"/><circle cx="161.5" cy="214.2" r="7.1"/><linearGradient id="b" gradientUnits="userSpaceOnUse" x1="179.6" y1="162.6" x2="225.3" y2="208.3"><stop offset="0" stop-color="#d75b2b"/><stop offset="1" stop-color="#7f2907"/></linearGradient><path d="M235.8 184.4a63.9 63.9 0 01-31.3 37.5L175 165.5l60.8 19z" opacity=".8" fill="url(#b)"/><path d="M247.5 86.3c-44.9-2-77 21.2-86.5 28.7l-98.2 82.2.4 25.8c32 13 58.8 20.8 78 25.7 15.6 3.8 25.1 5.5 36.8 5.3 7.8-.1 30.6-.8 52.5-13.8 20.7-12.4 30.1-29.6 41.7-51.4 9.6-18 22.5-47.7 28-88.2-11-5.7-29.2-13.3-52.7-14.3zM257.8 193c-16.2 26.8-29 35.4-35.3 39.2a94.5 94.5 0 01-45.4 12.3c-11.6.4-21.1-1.4-36.6-5.5a547 547 0 01-71-24.3l-.1-10.8c6-5.8 85.5-81.5 135.4-101 6.3-2.5 18-7 33.9-7.6 22.4-.8 40.4 6.5 51 12-7.2 40.1-21.5 68.6-31.9 85.7z" fill="#fff"/></g></g></switch></svg>