<svg xmlns="http://www.w3.org/2000/svg" viewBox="0 0 350 350"><switch><g><path fill="#fff" d="M60 60h230v230H60z"/><path d="M70 70h210v210H70z"/><path fill="#666668" d="M77 77h196v196H77z"/><path d="M76.5 110.7l163.3 163 33.8.1-.1-34.8L110.9 76.6l-34.5-.2.1 34.3z"/><path d="M181.8 262.3c6.6-1 12.9-4.3 18.3-8a46.1 46.1 0 0014-14.5c4-7 3-14.7 4.7-22.2a35.2 35.2 0 014.4-10.6c2-3.2 4.5-6.1 6.7-9.2 2.1-3.2 4-6.5 5.2-10.2 1-3.8.9-7.7 1-11.6 0-4.2.5-8.4.3-12.6-.1-2.9-.2-6.6-3-8.2-.7-.4-1.4-.7-2.2-.8-.4 0-1.1 0-1.5-.2h-.3a13 13 0 010-1c0-1.4.2-3 1-4.2.7-1.4 2-2.2 3-3.3a7.4 7.4 0 001.8-5c.2-5.6 1.1-11.2 1.2-16.9.1-3.7-.1-7.4-.5-11a16.3 16.3 0 00-3.1-8.1 25.1 25.1 0 00-8.5-7.7 24 24 0 00-4.2-1.7c-28-1.2-48.5-1.2-52.7-.5-4 .5-7.4 1.8-7.4 1.8a49.9 49.9 0 00-3.4 1.5 77.8 77.8 0 00-16 11.1c-3.5 3-9.1 8.1-16.9 16a156.6 156.6 0 00-15.4 17.4 61.4 61.4 0 00-10.7 19.7c-.8 3.4-.7 7 1.7 9.7 2.3 2.9 6 3.4 7.7 3.6 3.6.5 6.5-.4 7.9-1l-.1 17.7c.2 1.6.9 3.8 2.4 6 2 2.5 3.5 2.7 5.8 5 1.7 1.8 2.7 4 4.6 8.2 1.8 4 3 6.5 3.8 10.1 1 5.2 0 6.3 1.1 10.5 1 4 3 6.7 4.9 9.5 5.9 8.1 13.3 12 17.1 14.5 8.1 5.4 17.7 7.6 27.2 6.2z"/><path d="M229.3 158.5c.7 0 1.2.5 1.2.5s.5.4.8 1.3c.3 1 .3 10.3 0 22.9-1.3 4.4-3.1 7.4-4.6 9.2-2 2.7-6.6 7.2-8.8 10.6l-1 1.6s-1.2 2-2.2 4.3c-1.7 4.2-1.7 18.6-6 27.7-2.6 5.3-6.4 8.2-14 13.9 0 0-7.7 5.6-14.4 6.7h-.4a28 28 0 01-10.4-.7c-1.9-.4-6.6-1.7-13.6-6.5-8.8-6-13.9-9.4-16.6-15.8-2.6-6.3-.4-9.1-4.3-20.7-1.2-3.4-2-5.4-3-7-2-3.6-4-7.1-7.8-10.2-3-2.3-3.5-3.3-3.7-3.8l-.2-.7c-.6-2.7-.5-14.6-.5-19.1L140 161a22.5 22.5 0 018.9-2.6h80.4z" fill="#fff"/><path d="M222.8 164.1a253.9 253.9 0 01-21.3 4.4c-5.9 1-17 2.8-27.6 2.9-9.4 0-24.9-1-44.2-8.9a38.1 38.1 0 00-1 13.8 37.7 37.7 0 002 8.2 31 31 0 0034.2 7.7l10.1-13.5a115.8 115.8 0 0010.3 13.8 33 33 0 0037.1-11.8 51.6 51.6 0 00.3-16.6z"/><path d="M103.1 163.8c.5-4.2 3.2-8.1 5.4-11.5a172.1 172.1 0 0119.9-23.4c1.9-1.9 8-8.1 17.4-16.2 10.3-8.8 13.4-10.3 16.3-11.3 4.4-1.5 8.6-2 10.7-2.1 3.9-.4 5 0 14 .2l13.4.2c4.6 0 9.3-.2 14 .2a19 19 0 0112.9 6.5 17 17 0 012.8 5c.7 1.8.8 3.4.7 5.5l-.5 13.9-.2 6.7c0 2 0 4-1.1 5.8-.8 1.2-2 2-2.9 3-.8.8-1.4 2-1.7 3.1a13.2 13.2 0 00-.5 2.3v1.9h-1.2a1766.3 1766.3 0 01-19.1.4h-21c-11.9 0-24-.6-35.9-.1-2.9.1-5.8.4-8.6 1.4-2 .7-3.9 1.9-5.7 3-4 2.7-8.1 5.2-12.3 7.4a56.6 56.6 0 01-7.5 3.4c-2.2.7-5 1.6-7.3.5-2.1-1-2.2-3.8-2-5.8z" fill="#ee5d26"/><path d="M112 160.7c.3.4 5.5-3 33.3-20 4.7-2.8 55.3-35.2 54-37.3-.6-1-14.6 6-22 10a186.6 186.6 0 00-8.6 5.1c-7.8 4.8-13.2 9-15.2 10.5-11 7.7-42.3 30.5-41.5 31.7zm24.5-4.9c16.1-7.5 33.6-12 51.4-13 6.8-.5 13.7-.5 20.5.4 1.2.2 7.5.4 8 2 .6 1.6-14.2 1.2-16 1.2-6.7 0-9.1-.1-14.8.3-1.5.1-5 .5-9 1.1-12.1 2-15.6 5-25.5 7-3.3.6-8.3 1.2-14.6 1zm76-44.9l-3.6 7-7.3 1 5.4 5.4-1.3 7.5 6.7-3.5 6.7 3.5-1.2-7.5 5.4-5.3-7.4-1.1z"/><path fill="#fff" d="M212.4 114.1L210 119l-5.6 1 4 3.9-1 5.4 5-2.6 4.9 2.6-.8-5.4 3.9-4-5.5-1z"/></g></switch></svg>