<svg xmlns="http://www.w3.org/2000/svg" viewBox="0 0 350 350"><switch><g><path fill="#fff" d="M246.5 60v28.2h-143V60H60v230h230V60z"/><path d="M272.3 70.2H254V99H96V70.2H69.5v210.3h211V70.2h-8.2z"/><path fill="#fff" d="M127 65.5a4 4 0 014-4h88a4 4 0 014 4v22.7h10.3v-25a12 12 0 00-12-12h-92.6a12 12 0 00-12 12v25H127V65.5z"/><path fill="#1b3652" d="M263.5 79.7v28.8h-177V79.7H79V271h192V79.7h-7.5z"/><radialGradient id="a" cx="175" cy="175" r="96" gradientTransform="matrix(0 -1 1.25 0 -43.8 350)" gradientUnits="userSpaceOnUse"><stop offset=".4" stop-color="#4fa0e2"/><stop offset="1" stop-color="#3a6082" stop-opacity="0"/></radialGradient><path fill="url(#a)" d="M263.5 79v29.5h-177V79H79v192h192V79z" opacity=".6"/><radialGradient id="b" cx="174.5" cy="193.7" r="86.4" gradientTransform="matrix(0 -1 1.5 0 -116 368.1)" gradientUnits="userSpaceOnUse"><stop offset=".4" stop-color="#40659d"/><stop offset=".9" stop-color="#6f8ba4"/></radialGradient><path fill="url(#b)" d="M110.4 262.2l-20.5-15.7V240a28.7 28.7 0 00-5.8-2.6 28.5 28.5 0 00-7.8-1.3h-3v-14.6h3c2.9 0 5.5-.4 8-1.1A28.3 28.3 0 0090 218v-6.4a24 24 0 00-13-3.8h-3.5V193l3.2.3A21.4 21.4 0 0090 190v-6l10-2.4-3.7-51 18.7-5.4.8 2.8a44.8 44.8 0 007.7 14.6c10.3 12.8 29.1 20.4 50.5 20.4s41-7.7 52.4-20.5c3.6-4 6.5-8.7 8.7-14l1-2.4 16.8 4.5-3.8 51 10 2.4v5.7a42.6 42.6 0 0013.8 3.6l2.8.2v14.3l-2.9.1a30.3 30.3 0 00-7.9 1.4c-1.8.6-3.8 4.6-5.2 8.7 2.2.8 4.3 1.5 6.5 2.1a64.3 64.3 0 007 1.4l2.5.4v14.3h-3.4a24.6 24.6 0 00-7.7 1.2 24.8 24.8 0 00-5.5 2.6v6.6l-20.4 15.7H110.4z"/><path d="M112.9 128.8a48 48 0 008.2 15.6c11.5 14.3 32 21.5 52.8 21.5 20.8 0 42-7.2 54.6-21.5a51 51 0 009.3-14.8l11.8 3.1-3.8 51 10.2 2.5v5.3a45.6 45.6 0 0016.6 4.7v8.6a33.1 33.1 0 00-8.8 1.6c-5 1.7-7.6 12.6-7.8 13.3a67 67 0 0016.6 4.7v8.6a27.8 27.8 0 00-16.6 5.3v6.8l-18.4 14H111.4l-18.5-14v-6.8a31.6 31.6 0 00-16.5-5.3v-8.6a31.2 31.2 0 0016.5-4.7V210a27.1 27.1 0 00-16.5-5.2v-8.6a24.4 24.4 0 0016.5-4.7v-5.3l10.2-2.4-3.7-51 13.5-4m4-7.3l-5.7 1.6-7.6 2.2-5.9 1.7-4.7 1.3.4 4.9 3.4 46-1.7.3-3.6.9-4.6 1v6.8a18.4 18.4 0 01-10 2l-6.5-.6V211l6.1-.1a21 21 0 0110.4 2.5v2.8a25.2 25.2 0 01-10.4 2.3h-6.1V239l5.8.1a25.5 25.5 0 0110.7 2.7v6.3l2.4 1.8 18.4 14.1 1.6 1.3h130.3l1.7-1.3 18.4-14 2.3-1.9v-6.4a21.7 21.7 0 0110.3-2.6h.2l6 .1v-19.9l-5-.7a61.1 61.1 0 01-10-2.4 12 12 0 012.5-4.1 27.6 27.6 0 016.8-1.2l5.8-.2v-20l-5.5-.4a39.5 39.5 0 01-11-2.6v-6.1l-4.7-1.1-3.9-1-1.3-.3 3-40.4.4-5.5.3-5-4.8-1.3-7-1.8-4.8-1.3-5-1.3-2 4.8c-2.1 5-4.9 9.3-8.2 13.1-10.9 12.2-29.6 19.5-50.2 19.5-20.5 0-38.4-7.2-48.1-19.3a41.8 41.8 0 01-7.2-13.6l-1.8-5.5z"/><path d="M142.2 262.8l-22-16.4v-7.3a33.9 33.9 0 00-7.4-3.3 34 34 0 00-9.1-1.5h-2v-13.4h2.1a36 36 0 009.3-1.3 33.5 33.5 0 007.1-3v-8.4a28.7 28.7 0 00-6.8-3.3 29 29 0 00-9.6-1.4h-2V190l2 .1a26 26 0 009.5-1 25.7 25.7 0 007-3.1v-6.3l11.2-2.7-4.2-55.6 18.8-5.3.4 2.1c1 4.5 3.1 11 8.6 16 5 4.5 12 7 19.8 7 7.7 0 15.3-2.6 20.8-7.1a31 31 0 009.7-15.2l.6-1.9 16.7 4.3-4.2 55.7 11.3 2.7v6a50 50 0 0016.7 4.4l1.8.2v13.2h-2a36 36 0 00-9.2 1.7 35.8 35.8 0 00-7.3 3.2v8.1a74.7 74.7 0 008.8 2.9 75 75 0 008 1.6l1.7.2v13.2h-2.4c-3.1 0-6.2.5-9.1 1.4a29.4 29.4 0 00-7 3.4v7.3l-22 16.4h-65.6z"/><path fill="#fff" d="M144.6 118.5a31 31 0 009.1 17 31.4 31.4 0 0021.2 7.6c8 0 16-2.6 22.1-7.6a33 33 0 0010.4-16.2l13.2 3.5-4.3 55.7 11.5 2.7v5.7a51.7 51.7 0 008.7 3.3 52 52 0 009.8 1.8v9.5a38 38 0 00-9.8 1.7 37.8 37.8 0 00-8.7 4v10.5a76.4 76.4 0 0018.5 5.2v9.4a31.8 31.8 0 00-10.2 1.5 31.5 31.5 0 00-8.3 4.2v7.4L207 260.8h-64l-20.7-15.4V238a35.8 35.8 0 00-8.8-4.1 36 36 0 00-9.7-1.6v-9.4h.1c2.5 0 6-.3 9.8-1.4a35.5 35.5 0 008.6-3.8v-10.5a30.8 30.8 0 00-8.2-4.2 31 31 0 00-10.3-1.5V192a27.9 27.9 0 0010.2-1 27.7 27.7 0 008.3-4v-5.8l11.5-2.7-4.3-55.7 15.2-4.3m3-5l-4.1 1.1-15.1 4.3-3.2.9.3 3.3 1.4 18.5 2.5 33.8-8 1.9-3.2.7v6.8a23.6 23.6 0 01-5.5 2.4 23.9 23.9 0 01-8.7.8l-4.3-.3v17.8h4a27 27 0 019 1.3 26.7 26.7 0 015.5 2.5v6.1a31.5 31.5 0 01-5.7 2.3 31.7 31.7 0 01-8.7 1.2h-4v17.3l3.8.1c3 0 5.8.5 8.6 1.4a31.9 31.9 0 016 2.6v7.1l1.6 1.2 20.7 15.4 1 .8h67l1-.8 20.7-15.4 1.6-1.2v-7.2a27.4 27.4 0 015.6-2.6 27.7 27.7 0 018.5-1.3h4.3v-16.9l-3.3-.5a72.9 72.9 0 01-7.8-1.5 72.6 72.6 0 01-7.3-2.4v-5.5a33.8 33.8 0 015.9-2.5 34 34 0 018.7-1.5l3.9-.2v-17l-3.7-.3a48.2 48.2 0 01-9-1.6 48 48 0 01-5.8-2V178l-3.1-.7-8.1-2 4-52.2.2-3.4-3.2-.8-13.2-3.4-3.8-1-1 3.7a29 29 0 01-9.1 14.2 31.1 31.1 0 01-19.6 6.7c-7.2 0-13.8-2.3-18.5-6.6a28 28 0 01-8-14.8l-.8-4.2z"/><path fill="#fff" d="M133.8 125.4l7.4-1.9c1 3.3 3.6 9.3 9.3 14.5 9.5 8.8 21 9 24.5 9a37 37 0 0035.4-23.6l6.1 1.2-4.5 56.9 12.6 3.1v58.9L207.5 256h-64.3l-17.6-13.4v-58l12.5-3.3-4.3-56z"/><path d="M138 191.6h74v5h-74zm0 15.5h74v5h-74zm0 15.3h74v5h-74zm0 15.3h74v5h-74z"/><ellipse cx="154.2" cy="241.4" fill="#fff" rx="7.7" ry="7.3"/><path d="M160.8 246.2l5-.3-3.5-2a7.3 7.3 0 00.5-4 7 7 0 00-.2-.6l1.8-2.6-2.4 1a7.8 7.8 0 00-2.3-2.6l1.1-5.5-4.1 4a10 10 0 00-4.2-.2l-1.3.3-3-4.1.5 5.3a9.2 9.2 0 00-2.4 2.1l-3.6-1.2 2.2 3.9a7.2 7.2 0 00-.2 3.1 7.2 7.2 0 001.2 3l-1.7 3 3-1.6a9 9 0 003.5 1.9l3 3.3 1.7-3.2a9.7 9.7 0 005.4-3zm-6 .5c-3.6.6-7-1.5-7.5-4.6-.5-3 2-6 5.7-6.6s7 1.4 7.5 4.5-2 6.1-5.7 6.7z"/><circle cx="153.8" cy="241.4" r="3"/><ellipse cx="204.7" cy="215" fill="#fff" rx="10.6" ry="11.7"/><path d="M213.7 223l7.6 3.2-5.8-6.3.7-2 6.8-1.2-6.5-1.7a12.7 12.7 0 00-.1-1.6l4.5-3.5-5.2.7a12.4 12.4 0 00-2-3.5v-2.3H211a11.8 11.8 0 00-3.1-1.5l-.6-5-1.6 4.5a11.8 11.8 0 00-4 .3l-3.4-4.8.5 5.9c-.8.5-1.6 1-2.3 1.7l-3.5-2 1.5 4.3c-.6.9-1 1.8-1.4 2.8l-5-1.1 4.4 4.3v.9c0 1.2.1 2.4.5 3.5l-4 1.5h4.5c.3.8.7 1.5 1.2 2.2l-3.3 7.5 6.8-4.2a11.6 11.6 0 006 1.8l1.7 4 1.8-4.5a11.7 11.7 0 002.4-1l4.8 4.6-2.8-6a12.3 12.3 0 001.5-1.5zm-9.2-17.4c5.1 0 9.3 4.2 9.3 9.5 0 5.2-4.2 9.5-9.3 9.5s-9.2-4.3-9.2-9.5c0-5.3 4.1-9.5 9.2-9.5z"/><circle cx="204.7" cy="215" r="5.4"/><g><ellipse cx="185.8" cy="168.3" fill="#fff" rx="9.7" ry="9.5"/><path d="M197.6 180.1l-3-4.6.9-1.2 5 .7-3.8-3.6c.2-1 .4-1.9.4-2.9v-.2l1.6-1.6-1.8-.1a11.3 11.3 0 00-1.7-4.4l3.5-4.4-5.6 2.1a11.3 11.3 0 00-1.4-1l.5-4.3-3.5 3a11.3 11.3 0 00-3-.4c-1.4 0-2.8.2-4 .7l-7.6-4 4.1 6a11.3 11.3 0 00-2 2.5l-2.3-.3 1.5 1.6a11.2 11.2 0 00-1 4.1l-5.9 2.9 6.2.6c.2.8.5 1.6.9 2.3l-1.5 2 2.5-.4 1.3 1.5-.6 4.4 2.6-3a11.3 11.3 0 003.2 1.4l.6 3.5 1.3-3.2h2.3l5.2 5.6-1.2-7a11.4 11.4 0 001.8-1.3l4.5 3zM177 168.5a8.7 8.7 0 1117.4 0 8.7 8.7 0 01-17.4 0z"/><path d="M190 169.4a3.8 3.8 0 01-4.4 3.4c-2.3-.2-3.9-2-3.6-4.3s2.1-3.6 4.4-3.4 3.8 2 3.5 4.3z"/></g></g></switch></svg>