<svg xmlns="http://www.w3.org/2000/svg" viewBox="0 0 350 350"><switch><g><path d="M181 290H60V60H290v70l-49.9-56.3L115 201l22.8 65.5 98.7 23.5H181z" fill="#fff"/><path d="M180.8 280.8H69.2V69.4h211.6v70.1L241.5 102l-16.7 73-81.1 27.7 37.1 78z"/><path d="M270.2 185.2l2.3 18.3 15-15.3zM247.3 233l15 25.8 16.5-27.3zm28.7 25.8l11.5 7.5V252zm-32.7 22.7l12.4-11.7 3.8 17z" fill="#fff"/><path d="M44 231.7c-.5-1-2.7-1-3.1-.2-.3.5.2 1.3.8 1.7.5.4 1.5.6 2 0 .5-.3.6-1 .3-1.5zm-9.9-52.5c-.5-1-2.7-1-3.1-.2-.2.5.2 1.3.8 1.7.5.4 1.5.6 2 0 .5-.3.6-1 .3-1.5zm128.6 68.6c-.5-2-3.5-6.8-35.3-6.4-20.1.2-16.5 2.1-26.5 1.3-6.8-.5-22.5-2.5-42.4-5.8-2.6-.5-5.3-1-5.6-.2-.9 2.1 15.8 11.6 31.5 17.8 7.2 2.9 4 1 20.5 6.5 7.5 2.5 12 4.2 18 3.3 2.7-.5 3-1 7.1-1.7 2.5-.4 7.6-1.2 13.9-.5 10 1.2 15.4 2.6 15.4 2.6.8.2 3 .8 3.4 0 .5-.6-.7-2-1.3-3-2.9-4.6 2.4-10.1 1.3-14zm-56.4 4c-.4-.4-1.7-1.4-1.5-2 .4-.9 4.8.2 5.4.4 4.5 1.2 10.2 4 9.8 5.1-.4 1.4-9 .5-13.7-3.5zm26.7 6.9c-.2.5-1.8.3-2.5.1-.5 0-1.5-.3-1.5-.8s1.2-1.4 2.3-1.2c1 .2 2 1.4 1.7 1.9zM106.9 222c-3 2.2-8.9-7-29.2-18.8a212.5 212.5 0 00-37-17.2c-.3 0-1.5-.2-1.5-.5s3.1-.6 5.5-.5c4.5.3 7.8 2.1 8.8 2.7 8.4 4.4 33 12.7 44.4 16 .5.1 2 .3 3.5 1.2 6.2 3.7 8.4 15 5.5 17.1zm35.5-77.8c-.6-.7-1.3-1-1.4-1.2-5.1-3-29.8-27-29.8-27-14-12.2-14-12.2-17.8-16.6-.4-.4-4-3-5.7-2.8-.6 0-1.3.5-1.9.8-.5.3-.3 2.2-.3 2.2.7.5.2.7 4.7 6 1 1 3.3 3.7 2.5 4.8-.3.6-1.4.5-2 .4-1.5-.4-2-1.5-3.2-2.7-1.4-1.4-4.4-3.3-6.3-2.3-1.5.8-2.1 3.4-1.3 5.1.5 1 1.5 1.5 1.7 1.6 6.6 3.3 35.2 33.5 42.5 36.6.5.2 2 .4 3.1 1.7 1.7 1.9.5 4 1.5 5.3 2.3 2.9 13.8.8 15.3-5a8 8 0 00-1.6-7zm-25.2-8.8c-.4.2-1.2-.8-1.4-1-3.6-4.3-16-11.2-14.8-14 .2-.6 1-1 1.7-1 1 0 2 1 2.3 1.3 3.8 4.3 11 7 12.2 12.5 0 .4.4 2 0 2.2zM78.4 96.1c-2.6.6-6-5-7.6-9.1-.8-2.1-1.3-3.6-.8-4 1.5-1.1 11.7 7.2 10 11.5-.2.7-.8 1.5-1.6 1.6zm-19-19.6c-1.4.9-7-2.7-6.8-5.9 0-.6.3-.8.4-.9 1.2-.9 6 1 6.8 4.2 0 .2.6 2-.3 2.6zm44 28.4C101 103.4 93 95 90.6 93.7c-.1 0-.7-.4-1-1-.3-.6-.6-1.5-.2-2.1.6-.8 2.2-.6 2.7-.5 6.2 1 10.4 11.6 12.7 13.1 0 0 .5.4.5.8 0 .5-.5 1-1 1-.4.1-.8 0-.9-.1zm17 8c-6.9-3.5-8.1-8.4-12.4-10.9-.3-.2-.9-.5-1-1.1-.2-1.3 2-3.4 3.8-3.2 1.2.3 1.4 1.7 4 3.2 1.3.7 1.6.6 1.7.5.4-.4-.6-1.6-.7-3.8 0-.7 0-1.8.5-2.2.6-.3 1.6.4 2.3.8 6 4.1 7.9 4.2 9 7 .3.5.5 1 .7 1.9.5 3.9-2.7 8.4-5.7 8.5-.6 0-1.1-.2-2.2-.7zm-25-28.2c-1.4-2.8-6-4.6-10-9.7-1.5-1.8-3.6-5-3.2-5.3 1-1 11.7 11.3 15.7 13.9.3.2 1 .6 1 1.2 0 .7-1.6 1.4-2.6 1-.6-.3-.9-1-1-1.1zm-5-.3a54.8 54.8 0 00-15-14c-.7.5 3 5.8 6.5 9.7 0 0 2.1 2.3 7.6 5.8.4.3 1.3.8 1.6.6.2-.2 0-.7-.8-2zm40-8c-1-1.3-2.8-2.7-3.9-2-.6.3-.7 1.1-.8 1.3-.2 2 1.8 4.4 3.7 4.4.1 0 1.3 0 1.8-.8.5-1-.5-2.5-.9-3zm86.8 27.6c-.2-2-1-5.5-2.9-12.3-.9-3.5-1.5-5.6-.3-7.2.9-1.1 2.6-2 4-1.5 2.3.8 1.4 4.7 4.5 6.8.1.1 2.3 1.6 3.3.9 1.7-1.2.3-8-3.1-13-1.7-2.6-3.3-3.7-2.9-5.4.4-1.7 2.8-3 4.9-3 4.1.3 6.5 6.6 7.3 8.5 2.5 6.4-.3 8.4 1.7 11.7 3.8 6.3 15.2 2 18.6 8.1 1.7 3.2.7 8.2-1.8 10.4-2.7 2.4-5.8.1-9.6 3-2.2 1.6-2 2.8-5 5-3.2 2.2-4.9 2-5.6 1.7-1.5-1-1.7 0-2.6-9-.4-3.2 0-4.6-1-5-1.2-.4-2 .3-2.4 1.8-.7 2.5 0 5-.2 7.4-1.2 15.6-6.6 3-8.1 2-1.2-.9 1.6-4.4 1.2-10.9zm26.5-32.7c-.8-.7-2-1-2.9-.5-1.1.8-1 3.3.4 4.2.7.5 2 .5 2.6-.2 1-.8.8-2.6-.1-3.5zm-124.9-9.5c-.6-.3-2.6.6-2.5 2 .1 1 1.2 1.9 1.9 1.7 1-.3 1.4-3.2.6-3.7zm-14.3-11c-.8-.6-2.1-1-2.7-.5-.5.6 0 2.2.9 3 .8.9 2.2 1.4 2.8.9.6-.6.1-2.4-1-3.4zM271.3 72c-.8 0-1.6 2-1.8 3.5 0 .9 0 2.8.8 3.2.7.2 1.7-.6 2.2-1.4 1.2-2-.1-5.2-1.2-5.3zM142.5 94c-.6.6-4.7-2.6-5.7-1.7-.5.5 0 1.8.2 2.2 1.4 3.5 4.7 5.2 9.5 7.8 7.8 4.3 9 5.1 9.7 4.5 1.5-1.2-1-6.4-2-8.6-3-6.2-7.4-10-16.4-17.4-.4-.4-1.3-1-1.6-.8-.8.5.8 5 3.1 8.8 1.8 3 3.6 4.8 3.2 5.2z" fill="#62565a"/><radialGradient id="a" cx="13.7" cy="75.8" r="236.9" gradientUnits="userSpaceOnUse"><stop offset=".4" stop-color="#fff"/><stop offset="1" stop-color="#906f79"/></radialGradient><path d="M47.8 200.5l115 66.3 55.8-20.9-99-42.7-71.8-2.7z" fill="url(#a)"/><radialGradient id="b" cx="31.5" cy="63.2" r="236" gradientUnits="userSpaceOnUse"><stop offset=".3" stop-color="#fff"/><stop offset=".9" stop-color="#906f79"/></radialGradient><path d="M251.5 216.4l-16.6-96-69.6-79.6 32.2 123-157.5-43 96.2 74.7 115.3 21z" fill="url(#b)"/><radialGradient id="c" cx="120" cy="43" r="195.9" gradientUnits="userSpaceOnUse"><stop offset=".6" stop-color="#fff"/><stop offset=".9" stop-color="#906f79"/></radialGradient><path d="M259.7 61.8l30.9 69-16.7 18.2-20.6-37.3 6.4-50z" fill="url(#c)"/><path d="M245 247.9l-61.4 22.5 52.7 10.3.2 9.3-96-16 76-28.2L57 181l193 33.7-27.8-162 51.7 94.7 24-26-7.9 61.3h-11.2l3.2-27-10.6 9.5-28.1-51.6 17.5 110.6L151.6 207l93.3 41z" fill="#fff"/><g><path fill="#fff" d="M65 234.6l131.8-131.8 19.7 19.7L64.3 275z"/><path d="M196.8 107l15.5 15.5-144.9 145L68 236 196.8 107m0-8.4l-4.3 4.2L64 231.5l-.1.1-1.7 1.7v2.4l-.4 16-.3 15.8-.2 14.9 10.5-10.6 144.8-145 4.3-4.3-4.3-4.2-15.5-15.5-4.2-4.2z"/><path fill="#fff" d="M59.9 217.2h9.3v70.3h-9.3zM193.2 192.5L120 118.9l20.7-18.7 2 2.5c.9 1 5.9 6.7 14.1 6.7 9 0 14.2-6.5 14.7-7.3l2.1-2.7 57.1 57.8v10.4l-25.5 25-12-.1z"/><path d="M174 104l53.8 54.4v8L204 189.4h-9.5L124.3 119l16-14.4c.8 1 6.7 7.8 16.5 7.8 10.4 0 16.5-7.6 17.1-8.4m-.6-9.2l-4.2 5.5c-.4.7-4.8 6.1-12.2 6.1a16 16 0 01-12-5.6l-3.9-5-4.7 4.3-8 7.2-8 7.2-4.7 4.3 4.5 4.4 35 35.3 35.1 35.2 1.8 1.8h14.4l1.8-1.7 15.8-15.4 8-7.8 1.8-1.7V156l-1.8-1.8-53.8-54.5-4.9-4.9z"/></g></g></switch></svg>