<svg xmlns="http://www.w3.org/2000/svg" viewBox="0 0 350 350"><switch><g><path fill="#fff" d="M181 290H60V60h230v70l-50-56-125 127 23 66 99 23h-56z"/><path d="M181 281H69V69h212v71l-39-38-17 73-81 28 37 78z"/><path fill="#fff" d="M270 185l2 18 16-15zm-23 48l15 26 17-27zm29 26l12 7v-14zm-33 23l13-12 4 17z"/><path fill="#62565a" d="M44 232l-3-1 1 2h2v-1zm-10-53h-3l1 2h2v-2zm129 69c-1-2-4-7-36-7l-26 2a578 578 0 01-48-6c-1 2 16 11 31 17l21 7c7 3 12 4 18 3l7-1c3-1 8-2 14-1l15 3h4l-2-3c-2-5 3-10 2-14zm-57 4l-1-2h5c5 1 10 4 10 5 0 2-9 1-14-3zm27 7h-3l-1-1 2-1 2 2zm-26-37c-3 2-9-7-29-19a213 213 0 00-37-17h-2l6-1a362 362 0 0053 19l3 1c7 4 9 15 6 17zm35-78l-1-1c-5-3-30-27-30-27L93 99s-4-3-5-2h-2l-1 3 5 6c1 1 4 3 3 4l-2 1-3-3c-2-1-5-3-7-2-1 1-2 3-1 5l2 2c6 3 35 33 42 36 1 0 2 0 3 2 2 2 1 4 2 5 2 3 13 1 15-5a8 8 0 00-2-7zm-25-9l-1-1c-4-4-16-11-15-14l2-1 2 2c4 4 11 7 12 12v2zM78 96c-2 1-6-5-7-9l-1-4c2-1 12 7 10 12l-2 1zM59 76c-1 1-7-2-6-5v-1c1-1 6 1 7 4v2zm44 29L91 94l-1-1-1-2 3-1c6 1 10 12 13 13v1l-1 1h-1zm17 8c-6-4-8-8-12-11l-1-1c0-1 2-3 4-3l4 3h1v-3-3l3 1c6 4 7 4 9 7v2c1 4-2 9-5 9l-3-1zM95 85c-1-3-6-5-10-10l-3-5c1-1 12 11 16 14l1 1-3 1-1-1zm-5-1a55 55 0 00-15-14l7 10 8 6 1 1-1-2zm40-8l-3-2-1 2c0 2 2 4 3 4l2-1c1-1 0-2-1-3zm87 28l-3-12v-7c1-2 3-2 4-2 2 1 1 5 4 7l4 1c1-1 0-8-3-13-2-3-4-4-3-6 0-1 3-3 5-3 4 1 6 7 7 9 3 6 0 8 2 11 3 7 15 3 18 9 2 3 1 8-2 10-2 2-5 0-9 3l-5 5-6 2-2-9-1-5c-2-1-2 0-3 2v7c-1 16-7 3-8 2s2-4 1-11zm27-33h-3v4h3v-4zm-125-9c-1-1-3 0-3 2 0 1 1 2 2 1l1-3zm-15-11l-2-1c-1 1 0 2 1 3l2 1c1 0 1-2-1-3zm167 21l-1 4v3l3-2c1-2-1-5-2-5zM143 94c-1 1-5-3-6-2v2c1 4 5 6 10 8l9 5c2-1-1-7-2-9-3-6-7-10-16-17l-2-1c-1 1 1 5 3 9l3 5z"/><radialGradient id="a" cx="13.7" cy="75.8" r="236.9" gradientUnits="userSpaceOnUse"><stop offset=".4" stop-color="#fff"/><stop offset="1" stop-color="#906f79"/></radialGradient><path fill="url(#a)" d="M48 201l115 66 56-21-99-43-72-3z"/><radialGradient id="b" cx="31.5" cy="63.2" r="236" gradientUnits="userSpaceOnUse"><stop offset=".3" stop-color="#fff"/><stop offset=".9" stop-color="#906f79"/></radialGradient><path fill="url(#b)" d="M252 216l-17-96-70-79 33 123-158-43 96 75 115 21z"/><radialGradient id="c" cx="120" cy="43" r="195.9" gradientUnits="userSpaceOnUse"><stop offset=".6" stop-color="#fff"/><stop offset=".9" stop-color="#906f79"/></radialGradient><path fill="url(#c)" d="M260 62l31 69-17 18-21-37 7-50z"/><path fill="#fff" d="M245 248l-61 22 52 11 1 9-96-16 76-28-160-65 193 34-28-162 52 94 24-26-8 62h-11l3-27-11 9-28-51 18 110-109-17 93 41z"/><path fill="#fff" d="M65 235l132-132 20 19L64 276z"/><path d="M197 107l15 16L67 268l1-32 129-129m0-8l-4 4L64 232l-2 1v19l-1 15v15l11-10 145-145 4-5-4-4-16-15-4-4z"/><path fill="#fff" d="M60 217h9v70h-9zm133-24l-73-74 21-19 2 3a19 19 0 0029-1l2-3 57 58v11l-26 25-12-1z"/><path d="M174 104l54 54v8l-24 23h-9l-71-70 16-14c1 1 7 7 17 7s16-7 17-8m-1-9l-4 5c0 1-5 6-12 6a16 16 0 01-12-5l-4-5-5 4-8 7-8 7-4 5 4 4 35 35 35 36 2 1h14l2-1 16-16 8-7 2-2v-13l-2-2-54-54-5-5z"/></g></switch></svg>