<svg xmlns="http://www.w3.org/2000/svg" viewBox="0 0 350 350"><switch><g><path d="M177.4 60a23.8 23.8 0 0132.4-4.6A41.8 41.8 0 01235 47 42 42 0 01276 79.3a24 24 0 0112 23.4 30 30 0 013.1 43.7 22 22 0 011 6.6c0 3.3-.7 6.4-2 9.2V290H60V60h117.4z" fill="#fff"/><path d="M178 70h1.6a21 21 0 0132.3-8.6A35.9 35.9 0 01235 53a36 36 0 0135.5 29.7A17.4 17.4 0 01282 99.5a19 19 0 01-.4 4.2A25.2 25.2 0 01293 125c0 8.4-4 15.8-10 20.4a15 15 0 012 7.6 15 15 0 01-2 7.5v.1h-.1a15 15 0 01-2.9 3.6 15 15 0 01-10 3.8 15 15 0 01-7.5-2l-3.5 6a21.9 21.9 0 0011 3c3.6 0 7-.9 10-2.4V280H70V70h91.4a26 26 0 00-9.4 20h6c0-11 9-20 20-20z"/><path d="M270 270H80v-91a18 18 0 0110-3c1.4 0 2.7.2 4 .4a13 13 0 0122.9-7.9A19 19 0 0099 156a19 19 0 00-11.6 4 19 19 0 00-7.4-6.2v-15a13 13 0 017-2.8 11 11 0 0114-9.6 16 16 0 0112-5.4h47V95a17 17 0 0124-15.5 15.4 15.4 0 010-1.5 15 15 0 0127.6-8.2 32.9 32.9 0 0154.8 17.9 14 14 0 018.5 18.8 21 21 0 011.4 36.2 11 11 0 012.7 7.3 11 11 0 01-9 10.8v7.2a15 15 0 01-7.5-2l-3.5 6a21.9 21.9 0 0011 3v15.2a32.2 32.2 0 00-11.5 9.5A23.9 23.9 0 00243 194a24 24 0 00-23.1 17.5 17 17 0 0130.9 6.7 24 24 0 013.2-.2 24 24 0 0116 6.1V270z" fill="#906f79"/><path d="M197 73l-48 59-61 91 64-80 45-70zm34-3l-32 34 5 4 27-38zm28 43l-22 21-20 23 23-20 19-24zm17 4l-31 32-33 27 34-34 30-25zm-41 55l36-27-29 27-43 35 36-35z" fill="#fff"/><path d="M182.7 270H80v-30.7c4 3.1 10.5 7.4 16 7.7 8.7.5 14.6.6 26-6s42-17.4 20-49-2-48.5 34-46 49 23 49 23 4 14.1 4 29.5a24 24 0 00-9.1 13 17 17 0 018.9-6.7A68.6 68.6 0 01212 241c-5 4.3-19.2 16.2-23 20-2 2-4.4 5.8-6.3 9z" fill="#fff" fill-opacity=".2"/><radialGradient id="a" cx="171.5" cy="281.5" r=".7" gradientTransform="matrix(169.5133 0 0 -169.5133 -28894.8 47891)" gradientUnits="userSpaceOnUse"><stop offset="0" stop-color="#fff" stop-opacity=".3"/><stop offset=".5" stop-color="#fff" stop-opacity=".3"/><stop offset=".8" stop-color="#fff" stop-opacity="0"/><stop offset="1" stop-color="#fff" stop-opacity="0"/></radialGradient><path fill="url(#a)" d="M60 60h230v230H60z"/><path d="M175 81c-.2 0-57 4.6-57 59a85 85 0 005 25c3.9 12.9 4 28 4 28l18 12v7l-10 11 21 20 5-5 7 7 7-6 7 6 7-7 5 5 21-20-10-11v-7l18-12s.1-15.1 4-28a85 85 0 005-25c0-54.5-56.8-59-57-59zm-11 90.5c-.1 2.4-.4 5-1.2 7.3-2.2 6.3-9 6.4-14.3 3.2-6.8-4.2-7.3-13.5-6.5-21.7v-.2l22 11.3zm4 38.5l7-15 7 15h-14zm33.5-28c-5.2 3.2-12.1 3-14.3-3.2-.8-2.4-1-4.9-1.2-7.3 7.3-3.9 14.6-7.7 22-11.4v.2c.8 8.2.4 17.5-6.5 21.7z"/><path d="M223.5 116.8c-8.2-18.5-28.2-29.5-48.3-31.8h-.4c-20.1 2.3-40.1 13.3-48.3 31.8a57.2 57.2 0 00-2.6 36.4l2 7.5c2.8 9.7 4.6 19.7 5 29.9v.2l18.1 12v10.7l-8.4 9.3 15.3 14.6 5.1-5 7.2 7.1 6.8-6.5 6.8 6.5 7.2-7.2 5 5.1 15.4-14.6-8.4-9.3V203l18-12v-.3c.5-10.2 2.3-20.2 5.1-29.9l2-7.5c3-11.9 2.4-25-2.6-36.4zM157 188c-26.2 0-18-34-18-34l29 15s1.1 19-11 19zm4 26l14-28 14 28h-28zm32-26c-12 0-11-19-11-19l29-15s8.2 34-18 34z" fill="#fff"/><path d="M128.8 217.5c2.5-2.5 12.2 3.1 21.6 12.6 9.5 9.4 15.1 19 12.6 21.6l-12.6 12.5c-5.4 5.5-17.5 2.3-27-7.1-9.4-9.5-12.6-21.6-7.2-27l12.6-12.6z" fill="#fff"/><path d="M119 227.4l9.8-10c2.5-2.4 12.2 3.2 21.6 12.7 9.5 9.4 15.1 19 12.6 21.6l-9.9 9.9-2.7 2.6c-5.4 5.5-17.5 2.3-27-7.1-9.4-9.5-12.6-21.6-7.2-27l2.7-2.7zm.8 4.8l-.7.7c-3.1 3-1.3 8 .1 11.3 4.4 10 14.2 19 24.3 18.7a6 6 0 004.1-1.5l.7-.7a55.4 55.4 0 00-12-16.5c-6-6-12.1-10.3-16.5-12zm4.7-4.7a55.4 55.4 0 0116.4 12c6 6 10.4 12.1 12 16.5l6.6-6.5c-.7-3.4-3.1-6.4-5.4-9.3a58 58 0 00-21.6-18.7l-1.5-.6-6.5 6.6z"/><path d="M221.2 217.5c-2.5-2.5-12.2 3.1-21.6 12.6-9.4 9.4-15 19-12.6 21.6l12.6 12.5c5.5 5.5 17.6 2.3 27-7.1 9.4-9.5 12.7-21.6 7.2-27l-12.6-12.6z" fill="#fff"/><path d="M231 227.4l-9.8-10c-2.5-2.4-12.2 3.2-21.6 12.7-9.4 9.4-15 19-12.6 21.6l9.9 9.9 2.7 2.6c5.5 5.5 17.6 2.3 27-7.1 9.4-9.5 12.7-21.6 7.2-27l-2.7-2.7zm-.8 4.8l.7.7c3.1 3 1.3 8-.1 11.3-4.3 10-14.2 19-24.3 18.7a6 6 0 01-4-1.5l-.8-.7a55.4 55.4 0 0112-16.5c6-6 12.1-10.3 16.5-12zm-4.6-4.7a55.4 55.4 0 00-16.5 12c-6 6-10.3 12.1-12 16.5l-6.6-6.5c.7-3.4 3.1-6.4 5.4-9.3a58 58 0 0121.6-18.7l1.5-.6 6.6 6.6z"/></g></switch></svg>