<svg xmlns="http://www.w3.org/2000/svg" viewBox="0 0 350 350"><switch><g><path fill="#fff" d="M177 60a24 24 0 0133-5 42 42 0 0125-8 42 42 0 0141 32 24 24 0 0112 24 30 30 0 013 43 22 22 0 011 7l-2 9v128H60V60h117z"/><path d="M178 70h2a21 21 0 0132-9 36 36 0 0123-8 36 36 0 0136 30 17 17 0 0111 17 19 19 0 010 4 25 25 0 0111 21c0 8-4 16-10 20a15 15 0 012 8 15 15 0 01-2 8 15 15 0 01-3 3 15 15 0 01-10 4 15 15 0 01-7-2l-4 6a22 22 0 0011 3l10-2v107H70V70h91a26 26 0 00-9 20h6c0-11 9-20 20-20z"/><path fill="#906f79" d="M270 270H80v-91a18 18 0 0110-3h4a13 13 0 0123-7 19 19 0 00-18-13 19 19 0 00-12 4 19 19 0 00-7-6v-15a13 13 0 017-3 11 11 0 0114-10 16 16 0 0112-5h47V95a17 17 0 0124-15 15 15 0 010-2 15 15 0 0128-8 33 33 0 0154 18 14 14 0 019 18 21 21 0 011 37 11 11 0 013 7 11 11 0 01-9 11v7a15 15 0 01-8-2l-3 6a22 22 0 0011 3v15a32 32 0 00-12 10 24 24 0 00-15-6 24 24 0 00-23 18 17 17 0 0131 6 24 24 0 013 0 24 24 0 0116 6v46z"/><path fill="#fff" d="M197 73l-48 59-61 91 64-80 45-70zm34-3l-32 34 5 4 27-38zm28 43l-22 21-20 23 23-20 19-24zm17 4l-31 32-33 27 34-34 30-25zm-41 55l36-27-29 27-43 35 36-35z"/><path fill="#fff" fill-opacity=".2" d="M183 270H80v-31c4 3 11 8 16 8 9 1 15 1 26-6s42-17 20-49-2-48 34-46 49 23 49 23 4 14 4 30a24 24 0 00-9 13 17 17 0 019-7 69 69 0 01-17 36l-23 20-6 9z"/><radialGradient id="a" cx="171.5" cy="281.5" r=".7" gradientTransform="matrix(169.5133 0 0 -169.5133 -28895 47891)" gradientUnits="userSpaceOnUse"><stop offset="0" stop-color="#fff" stop-opacity=".3"/><stop offset=".5" stop-color="#fff" stop-opacity=".3"/><stop offset=".8" stop-color="#fff" stop-opacity="0"/><stop offset="1" stop-color="#fff" stop-opacity="0"/></radialGradient><path fill="url(#a)" d="M60 60h230v230H60z"/><path d="M175 81s-57 5-57 59a85 85 0 005 25c4 13 4 28 4 28l18 12v7l-10 11 21 20 5-5 7 7 7-6 7 6 7-7 5 5 21-20-10-11v-7l18-12s0-15 4-28a85 85 0 005-25c0-54-57-59-57-59zm-11 91l-1 7c-2 6-9 6-14 3-7-4-8-13-7-22l22 11zm4 38l7-15 7 15h-14zm34-28c-6 3-13 3-15-3l-1-7 22-12c1 8 0 18-6 22z"/><path fill="#fff" d="M224 117c-9-19-29-30-49-32-20 2-40 13-49 32a57 57 0 00-2 36l2 8c3 9 4 19 5 30l18 12v10l-8 10 15 14 5-5 7 7 7-6 7 6 7-7 5 5 15-14-8-10v-10l18-12c0-11 2-21 5-30l2-8c3-12 2-25-3-36zm-67 71c-26 0-18-34-18-34l29 15s1 19-11 19zm4 26l14-28 14 28h-28zm32-26c-12 0-11-19-11-19l29-15s8 34-18 34z"/><path fill="#fff" d="M129 218c2-3 12 3 21 12 10 9 16 19 13 22l-13 12c-5 6-17 2-27-7-9-9-12-22-7-27l13-13z"/><path d="M119 227l10-10c2-2 12 4 21 13 10 9 16 19 13 22l-10 10-3 2c-5 6-17 2-27-7-9-9-12-22-7-27l3-3zm1 5l-1 1c-3 3-1 8 0 11 5 10 14 19 24 19a6 6 0 005-2 55 55 0 00-12-17c-6-6-12-10-16-12zm4-4a55 55 0 0117 12c6 6 10 12 12 16l7-6c-1-4-4-7-6-10a58 58 0 00-22-19h-1l-6 7z"/><path fill="#fff" d="M221 218c-2-3-12 3-21 12-10 9-15 19-13 22l13 12c5 6 17 2 27-7 9-9 12-22 7-27l-13-13z"/><path d="M231 227l-10-10c-2-2-12 4-21 13-10 9-15 19-13 22l10 10 3 2c5 6 17 2 27-7 9-9 12-22 7-27l-3-3zm-1 5l1 1c3 3 1 8 0 11-5 10-14 19-25 19a6 6 0 01-4-2 55 55 0 0112-17c6-6 12-10 16-12zm-4-4a55 55 0 00-17 12c-6 6-10 12-12 16l-7-6c1-4 4-7 6-10a58 58 0 0122-19h1l7 7z"/></g></switch></svg>