<svg xmlns="http://www.w3.org/2000/svg" viewBox="0 0 350 350"><switch><g><path fill="#fff" d="M60 60h230v230H60z"/><path d="M280.5 280.5h-211v-211h211v41.7l9.5-14.7v158.6l-9.5-15.5v40.9z"/><radialGradient id="a" cx="175" cy="175" r="96" gradientUnits="userSpaceOnUse"><stop offset=".4" stop-color="#e85859"/><stop offset=".6" stop-color="#c84648"/><stop offset="1" stop-color="#831e22"/></radialGradient><path fill="url(#a)" d="M79 79h192v192H79z"/><path d="M273.2 141c-2.9 1.1-4.7.1-6-.2-2.7-.8-3.2-2.3-7-3.5-1.9-.6-2.7.5-4.1-.2-2.4-1.2-2.2-2.4-4-3.5-2.4-1.4-3.8 0-9.1-.5-1.9-.1-3-1.2-4-1.5 2.6 5.4 3 7.9 2.6 8.1-.2.2-.7-1.8-1.8-2.3-1.8-1-5.6-1.5-6.2-.8-.4.5 0 1.1-.4 1.9-.2.5-.3 1.2-3.3 1.2-2.8 0-4.3-.2-4.3-.5-.1-.4 1.4-.8 1.3-1.1 0-.4-2-1.4-3.8-.8-1.4.4-1.3 2-2.3 2.3-3.3 1.4-7.4-2.5-7.7-2-.2.2.2.5 0 1.1-.3.5-.9.6-1.7.6-1.2 0-2.3-.4-2.4-1 0-.4-.5-1.4-.1-1.6 3.6-1.6 7.8-5.4 7.4-6-.3-.3-2.6 2.2-6.4 2.7-2.4.4-2.8-.5-5.5 0-2.3.4-3 1.5-4 1.2-1.7-.5-2-1.8-3.9-3-2.5-1.4-5-1.9-5.2-1.4-.1.3 2 .3 2.7 1.9.3.5-.1 1.5-.2 1.7-.4.6-3-.7-6-2-1.6-.7-3.4-1.3-5.5-1.4-2.2-.2-4-.7-5.6-.3-1.9.4-3.4 1.5-5.3.5s-2.8-3-3.5-2.7c-1.2.7 1.2 6.5-.9 8-.7.4-1.1.2-2.1 1-1.4.9-.9 2.8-1.8 3-.5 0-1.1-.5-2.4-1.6-.5-.4-1.1.2-1.6 0-.8-.3-.6-.7-.8-.4-.3.5.6 1 .4 1.6-.3 1.1-7.4-.6-7.8.6-.2.7 2 1.8 1.8 2.6-.3 1-4-.1-4.5-.2l-6.4-.6a100.9 100.9 0 00-6.4 0c-3.8.1-6.6 1.2-6.7 1.4 0 .2 7 .6 7.2 2.2.2 1.4-5.3 3-5.2 3.7.1.4 2.2.1 7.5.2 1.7 0 2.5.3 2.7.8.4 1.2-3 3.1-2.6 3.8.3.6 2.8-.8 7-1 3.4-.2 7 .6 7 1 0 .2-1.3-.4-2.8 0-2 .5-2.6.5-3.7.9-.8.2-.8 1.6-6.6 1.6-3.6 0-3.7-1.2-4.3-1.4-1.8-.3-3-.1-3.2.3-.4.6.3 1.4 0 1.6-.3.3-1-.8-3.2-1.6-1.2-.5-3.8-1-4-.5-.4.5 1.7 1.9 1.5 2.7-.3.8-2.5.4-5.3.2-2.9-.1-5 .3-5.2.9-.2.7 3.4 1.5 3.5 3.7 0 1-.7 1.2-.6 1.3.3.2.7-2.6 3-3.5 1.3-.5 4 0 4.8 1.3.8 1.2 0 3.4-1.3 4.3-2 1.5-4.7-.7-9.5-1.4-2.3-.4-3.3.5-5.5 1-1.4.4-3.4-.3-6 .2-4 .7-6.2 1.1-8.4 1.1-2.4 0-4.4 1-8.3 1.6-1.9.3-4.5-.3-7.2.5-2.1.6-4.8 1.1-7.2 2.1v7.4c0 2.4.4 4.7.5 7.1s-.2 4.8-.1 7.1-.2 4.8-.2 7.2l.3 7c0 2.4 1 4.3 1 6.6 3.5.9 5.8 1 8.3 1.2 4 0 7 .6 8.9-.4.9-.5 2.7-2.4 6-3.3 1.3-.4 2.7-.4 6.8-.8 5.7-.5 9.7-1 10-.3 0 .6-1 1.4-5.5 4.3-1.7 1.1-2.2.9-3.5 1.6-3 1.6-3.9 1.9-3.8 2.3 0 .4 1.2.8 3 .4 1.1-.3 2-.7 3.1-1.4 1.7-1 2.3-1.6 3.6-2.6.9-.6 1-1.4 4.2-3 6.5-3.1 8-3.4 8.3-3.1.3.3-1.8 1.9-3 2.9-.8.7-1.1 1.5-1 1.8 0 .3.3.6 1 .6 2.3.2 3.6.2 4.5-.2.3-.1-.2-1 1.6-3.2 2.7-3.3 4.1-2.7 5.4-3.4.7-.4 0-2 .7-2.5 1.5-1 2.1-1.9 2.9-2 1 0 2.7 2 2.6 3.1 0 2.2-4.4 3-4.1 4.1.1.6 1 .7 2.3.6 1.7-.3 2-1.4 4.2-2.8 1.3-.8 3.3-1.2 5.6-1.4 2.6-.3 5.2 0 5.2.7s-4.1.3-7 3.2c-1.4 1.5-1.4 2.8-3 3.8-1.6.9-3.2-.7-4.9-.5-1 .2-2.2 1.7-6.7 5.7-2.5 2.1-4.4 3.4-5.6 4.7-2.2 2.4-3 4.3-5.5 5.2-2 .7-2.6.2-5.2 1.2-2.7 1-4.5 1.5-6.8 3-1.5 1-3.6 2.4-8 4.7-1.8 1-4.2 2.8-7.5 4.4-2.3 1-5 2.4-8 3.5-2.2 1-5 2.5-8.9 3.7-.4 1.7-2.1 2.5-2.5 4.3-.4 1.8-.2 3.8-.6 5.6.8-.5 1.8-2.1 3.2-3.2 1.7-1.3 3-1 7-4.6 3-2.8 4.4-3.6 6.3-4.8.6-.3 1.2-1.2 1.6-1.4 2-1.3 3.4-2.8 4.4-3.4 5.5-3 8.4-3.9 9.6-4.2 1.4-.2 3.1.3 5.4-.6 1.4-.5 1.4-1.7 2.5-2.1 2.2-1 3.9-1 5.6-1.1 1.6-.2 3-1.2 5.3-2 .5-.2 1.6.5 3.1-.3 2.6-1.3 4-3.6 6-4.8l6.3-4.2c2-1.4 4.6-2 7-3.1 3.4-1.6 4.8-1.7 7.3-2 1.7 0 4 .6 7.6-.2 2-.4 4-2.3 7-3.1 1.8-.5 4.6-.7 5.5.3.8 1-.2 3.6-1.8 6.2-1 1.8-2.3 3.8-3.9 5.3a34.6 34.6 0 01-6.8 5c-4.6 2.6-6.3 3-8.7 5.8-.7 1-2 1-3.3 2.1-1.5 1.3-1.7 1.8-3.5 3.5 0 0-.5 1.1-1.7 2.7-.6.8-1.3.5-1.3.6.2.2 2.2-.4 4.9-1.5 2.2-1 2.6-1.2 4.1-2.1 1.4-.9 1.5-2.4 2.4-3.5 1.7-1.9 2.7-2.5 6.5-5.2.4-.3 3.3-1.5 8.2-5.2 3.1-2.4 4.7-4.8 6.3-6.1 4.4-4 4.6-4 7.1-5 2-.9 4.2-1.3 6.7-1.3 2 0 4 1.2 6.6 1.6 2 .4 4.4.3 6.8.9 2 .5 4.4.7 6.8 1.4.4.1 4.7 1.6 10.5 2 4.3.3 7.6-.2 7.6-.7 0-.4-2.9-1-2.8-1.5 0-.3 1.5.2 2.8 0 5.8-.5 7.4-1.4 7.4-1.7 0-.4-1.7-.8-1.7-1 .1-.7 7.7.2 8-1.3.3-.7-1.9-1.5-1.6-2.3.2-1 5-1 8.4 0 .6.2 2.1 1 3.8 2.3 1 .9 3 1.7 3 2.7-.2 1.4-3 2-2.8 2.6.2.5 1.9 1.2 3.2.7 1.5-.6 1.5-3.1 2.5-3 1 0 .8 2.3 1.1 3.3.4 1.3.3 2.3.7 2.6.5.3 2.9-.6 3.3-1.7.4-1-1.5-2.5-1-3 .7-1 5.4 1.6 5.6 1.2.1-.2-2-.5-3.3-2-1-1-1.4-2-1.4-2.2.2-.6 2.5.2 3.9-.5.4-.3.7-.8 2.5-4.4 1.3-2.4 1.9-2.3 2.6-2.5.6-.3 1.5-.8 3.5 1.2 0-2.3-.5-4.5-.5-6.9 0-2.3 1.4-4.6 1.4-7s-.7-4.6-.7-6.9-.6-4.6-.6-7c0-2.3.8-4.6.8-6.9s.5-4.6.5-7-.6-4.6-.6-7l-.2-6.9.2-7c0-2.3-.4-4.3-.4-6.6zm-49.4-22.3c-.2.4 0 1.3 1.4 3 .8.9 2.3 1.2 3 2.5 1.1 2.4 0 4.1 1.1 4.9 1 .6 1.5 0 3.3.4 1.6.5 1.8.9 3.5 1.2 1.5.4 2.8.1 2.8-.3.1-.4-1.5-.2-2.6-1.6a6 6 0 00-1.5-1.7c-.7-.5-.2-1.6-1-2.2-1-.6-2.5-1.3-2.2-1.8.3-.5 2.2.3 2.4 0 0-.4-1.3-2.4-3-2.7-1.4-.2-1.9 1.4-2.7 1-1.3-.5-1.4-1.4-2.8-2.1-1-.5-1.6-1-1.7-.6zm12.2 2.5c-.1.4 1.6 1.1 2.8 3 .7 1 .5 1.2 1 1.7 1 1 2 1 3.8 1.7 2.1.7 3.3 1.5 3.6 1.3.3-.3-.7-3-2.7-4-1.2-.5-2-.3-3-1.2l-1.7-1.3c-1.3-1.2-3.7-1.7-3.8-1.2zm13.2 6c-.2.2 1.2 2.3 2.8 2.5.1 0-.2 0-.1-.3.2-.5-2.3-2.6-2.7-2.2zm-43.8-24c-.3.5 3 2.3 6 3.5.5.2 2.6 1.8 2.9 1.5.2-.4-1.8-2.2-3-3-2.4-1.6-5.7-2.5-6-2zm-3.1-6c.6.4-2.5 8.3-3.2 8.1-.5 0 0-3 1.5-5.4.5-.8 1.4-2.8 1.7-2.6zm-6.3 9.3c-1-.6-4.4 1.9-4 2.8.2.4 1.7-.3 2.4-.5.8-.2 2.8-.3 3-1.4l-1.4-.9zm2.6 14.8c-.8-.1-2.6 3.8-2 4.3.4.3 1.3-1 1.8-2.2.5-1.2.7-2 .2-2.1zm-52.8-1.6c0 .3 1.2.8 2 1.2 1 .6 1.8.3 2.4.7 1.8 1.2 5.1 2.5 5.5 1.9.4-.7-2.1-3-2.5-3.3-1-.9-3-2.3-4.9-1.9-.8.2-2.5 1-2.5 1.4zm-5.2 2c-.2.4.1 1 .8 1.5 1 .6 2 0 2.3 0 .3-.1.2-.3.2-.7 0-.8-2.9-1.6-3.3-.8z"/><path d="M154 126.8c-.2 0 .4.5-.3 1.6-1.7 2.5-3.7 2.3-3.7 3.6 0 1.2.9 2.4 1.8 2.2.9-.1 1.4-1.5 2-3.7.5-2 .5-3.6.2-3.7zm-31 24.4c1.4-1.1 3.5-1.5 5.2-.6 1.6.8 2.2 2.1 2 2.3 0 .2-.9-.3-2.8-.5-.8-.1-.8.3-3.5.5-1.5 0-2.5-.6-2.6-.9 0-.3 1.2-.5 1.6-.8zm-31-8.6c1.7-1 3.8-1.7 5.5-1.9 3-.2 6 1.3 6 1.5 0 .1-2.6 0-2.6.2 0 .3 1.9.3 2.9.4 1 0 1.7.3 2.3.1 1.1-.2 1.8-.7 2-.5.2.2-.8 1.2-1.4 2.6-.5 1.5-.4 2.6-.8 2.7-.4 0-.7-2-2.1-2.8-.7-.4-1.4 0-2.2.5-1 .6-1.3 1.3-1.8 1.3s-.8-1-1.8-1.8c-2-2-6.6 0-6.9-.7 0-.2 0-1 1-1.6zm21.8 14.4c0-.5-3.8-1-6.8-1.2-2.4 0-4.3.3-6 .5-2.6.4-4 .2-5.3-1-1.5-1.4-1.9-3.4-2.4-3.3-.4 0 .6 2.8-.5 3.8-1.5 1.2-5-1-5.2-.7 0 .3.4 1.9 2 2.5 2.7 1.1 5.5.5 6 .4l9-.1c5 0 9.2-.4 9.2-.9zm-33.5-6c.7-.3 2.3.1 2.6.5.2.3 1.5 3 1 3.5-.4.5-3.4 0-4.3-1.4-.7-1.2.2-2.3.7-2.6zM92 162c2-.6 3.8-.3 3.7.2-.1.7-5.8.7-6 0 0-.4 1.6 0 2.3-.3zm46.6 82.5c-1-.7-2.3.5-4.3 0-1-.3-1 .2-1.4.4-.4.3-.2.6.3 1.4.6 1.2 1.5 2 3.1 2 1.1-.2 3.5-.3 3.7-1.5 0-.6-.8-1.9-1.4-2.3zm.6 5c-.2-.2-2.5 3.3-7 5.3-2.3 1-3.7 1-3.7 1-1.3.4-3.1.1-3.8 1.1-.3.4-.2 1.2-.2 1.3-.2.4-.5 1.8-.2 2 .2.2 1-1.4 2-2.3 1.3-1.1 1.9-.6 5.4-2.4 3.6-2 4.6-3.6 5.8-5 .6-.6 1.8-.8 1.7-1zm37.6-8.4c-.4-.6-5.1.7-8.5 3.1-2 1.5-3.4 2.9-4.5 4.3-1 1.4-.7 4-2.3 6-2 2.1-4.7 3-6.5 4.4-3.6 3-6.9 5-6.7 5.2.1.2 5.3-2.4 9.8-5.4 2-1.4 3-3.5 4.6-4.8 1.7-1.3 4-2 5.7-3.6 1.4-1.3 2.7-3.1 4.4-4.9 3.1-3 4.2-4 4-4.3zM148 229.8c-.4-.5-2 .8-4 2-1.4 1-3.3 1.7-3.1 2.1.2.3 1.7.4 4.4-.7.7-.3.9-1.5 1.6-2.1.5-.5 1.3-.9 1-1.3zm-20.6 12.7c-.6 0-2 2.3-1.2 3.4.6.7 2.4.8 2.8.4.7-.7-.8-3.8-1.6-3.8zm2.6 5.5c-.7-.7-3 .7-2.9 1.8.1.6.9 2 2 1.6 1.5-.5 1.4-3 .9-3.4zm5.4-6c-.3-.5 3-3.6 3.6-3.3.3.2-.8 1.1-1 1.6-.7 1.3-2.4 2-2.6 1.7zm-16.6 17.2c.1.2-1.6 1-4.5 2.6-1.6 1-3.3 2.3-5.1 3.2-3.4 1.7-6.2 2.2-8 2.9-.8.3-4.6 2.2-4.6 2-.1-.2 3-1.3 8.8-4l7-3.5c5.7-2.7 6.3-3.3 6.4-3.2zm9.8 4.8c-.3-.4-3.5 2-6.1 4.3-1.1 1-1.7 2-2.2 2.5-.5.6-2 1.8-1.8 2 .2.2 3-2 5.7-4.3s4.6-4.2 4.4-4.5zM86.5 238c.1.3-3.6.4-7.2 3.7-1.8 1.6-2.7 4.3-3.4 4-.5-.2-.7-2.2-.4-3 .4-1.2 2-2 2.8-2.2 7.3-2.6 8.1-2.7 8.2-2.5zm103.8 2c-.2-.3-.9.6-1.9 2-.7 1-2.3 2.8-2 3 .4.3 4.3-4.7 4-5zm-4.9-2.4c-.3-.2-1 0-.8 1 .1.4.2.3.6.2.6-.1.7-1 .2-1.2zm-72.2-1c1.4-.6 4.1.1 4.3.8 0 .4-1.4 1-1.6 1.2-1.4 1.1-4 .5-4.1-.2-.1-.5.6-1.6 1.4-1.9zm90 30.1c-1.4.5-1.5 1.3-2.9 2.6-1.4 1.5-3 1.7-2.8 2 0 .4 1.4 1 2.3.6.7-.3 1-1.3 1.4-1.8 1.7-2.5 3.5-3.4 3.3-3.8-.1-.3-.7.2-1.3.4zm31.8-24c-.1-.1-3.8 2-3.4 3.4.3.9 1.2.9 1.5.3.1-.3 1.3-.1 1.3-.8 0-.3-.8-.7.1-2 .8-1 .6-.8.5-.8zm8.1 3c-.4-.3-.4-2 .6-3.9 1.6-3 4.2-5.2 5-4.8.5.4.7 2.2-.2 3.7-.3.6-1 .7-2 1.8-2.5 2.6-3 3.3-3.4 3.1zM242 234c-.5-.4.3-4.1 2.8-6.1.9-.7 2-.1 6.8-1.6 5.6-1.7 6.7-2.4 6.8-2.3.2.4-3 4-6.2 4.7-1.6.4-2.3-.9-3.5-.3-1.4.8-.9 2.2-2.6 3.9-.8.8-3.7 2-4.1 1.7zm-3-8.8c0 .2 1.2-.6 5.4-1.8 3.8-1 5.2-.7 5.2-1 0-.6-3.7-2.6-5.9-1.7-1.2.6-.7 2.5-2.9 3.9-1.4.8-1.9.5-1.8.6z"/><path d="M79 217.6a1.5 1.5 0 01-1.5-1.5v-45.3a1.5 1.5 0 011.4-1.5c6.4-.3 12.9-.8 19.2-1.6a228.4 228.4 0 0022.8-4 1.5 1.5 0 011.9 1.5v1.3a12.4 12.4 0 004-1.5 12.5 12.5 0 004.8-4.8 1.5 1.5 0 011.3-.8h29.7a1.5 1.5 0 011.5 1.5v42a1.5 1.5 0 01-1.5 1.4h-37.4a1.5 1.5 0 01-1.4-2 48.9 48.9 0 003.3-16.2h-8.6a98.3 98.3 0 01-12.6 15.2 98.3 98.3 0 01-21.7 16 1.5 1.5 0 01-.7.3H79zm76.5-20l-.3-1.1a36.2 36.2 0 01-3.5-.8c-5-1.3-9.8-3.8-14-7.3h-2a41 41 0 01-.7 5.2 40.8 40.8 0 01-1 4h21.5z" fill="#fff"/><path d="M162.6 161v41.8h-37.4a50.3 50.3 0 003.4-18.2h-11a96.6 96.6 0 01-12.8 15.7A96.8 96.8 0 0183.5 216H79v-45.3a229 229 0 0042.3-5.7v3.1a14 14 0 006.3-1.9 14 14 0 005.3-5.4h29.7M132 199.1h25.3l-.8-4a34.8 34.8 0 01-4.4-.8 36.5 36.5 0 01-14-7.4h-4a39.2 39.2 0 01-2.1 12.2m30.6-41.2H133a3 3 0 00-2.6 1.6 11 11 0 01-4.2 4.2l-1.9 1a3 3 0 00-3-2.6 3 3 0 00-.6.1 227 227 0 01-22.7 4 226.9 226.9 0 01-19 1.6 3 3 0 00-3 3V216a3 3 0 003 3h4.6c.5 0 1-.2 1.5-.4a99.8 99.8 0 0022-16.3 99.7 99.7 0 0012.3-14.8h6.2a47.5 47.5 0 01-3 14.1 3 3 0 002.7 4.1h37.4a3 3 0 003-3V161a3 3 0 00-3-3zM137 190h.1c3.4 2.7 7 4.8 11 6.2H136a42.1 42.1 0 001-6.2z"/><path d="M165.7 231v-83h39v83h-39zm29.5-17.2v-4h-20v4h20zm0-15.7v-4h-20v4h20zm0-15.7v-4h-20v4h20zm0-15.7v-4h-20v4h20z" fill="#fff"/><path d="M203.2 149.4v80h-36v-80h36m-29.5 18.8h23v-7h-23v7m0 15.7h23v-7h-23v7m0 15.7h23v-7h-23v7m0 15.7h23v-7h-23v7m32.5-68.9h-42v86h42v-86zm-29.5 17.8h17v1h-17v-1zm0 15.7h17v1h-17v-1zm0 15.7h17v1h-17v-1zm0 15.7h17v1h-17v-1z"/><path fill="#fff" d="M206.2 148h11v83h-11z"/><path d="M215.7 149.4v80h-8v-80h8m3-3h-14v86h14v-86z"/><path fill="#fff" d="M222 162.4h32.8V158l15 3.2v21l-15 1.7v-2.2h-15.6v7.7h8V203h-23.7v-13.6h7.8v-8H222zm48-4.3l15.8-38.3-4.3 33 26.1-21.3-24.5 39.6 22.9 32-24.7-15.6 1.4 34.2-11.5-35.2 7 9-2.4-16.1 12.9 7.2-11.7-15 11.2-17.6-12.7 9 2.4-14a13221.8 13221.8 0 00-8 9.1z"/><g><path fill="#fff" d="M154.7 113.1h3v19h-3zm5.5 0h21v19h-21zm23.5 19v-19c6-.6 11 4 11 9.5s-5 10.2-11 9.5z"/></g><g><path fill="#fff" d="M143.6 86l2.9-1 6.3 18-2.9 1zm5.2-1.8l19.8-7 6.3 18-19.8 7zm28.5 10.1L171 76.4a9.9 9.9 0 0113.5 5.3 9.9 9.9 0 01-7.2 12.6z"/></g><g><path fill="#fff" d="M116.3 72.4L120 69 134 84.5l-3.6 3.4z"/><path d="M119.9 70.4l12.8 14-2.2 2-12.8-14 2.2-2m.1-2.8l-1.5 1.3-2.2 2-1.5 1.4 1.4 1.5 12.8 14 1.4 1.5 1.5-1.4 2.2-2 1.4-1.4-1.3-1.4-12.8-14-1.4-1.5z"/><path fill="#fff" d="M120.3 68.7l17-15.6 14.2 15.5-17 15.5z"/><path d="M137.2 54.5l12.9 14-15.5 14.2-12.9-14 15.5-14.2m.1-2.8l-1.4 1.4-15.5 14.1-1.5 1.4 1.4 1.5L133 84l1.3 1.5 1.5-1.4L151.4 70l1.5-1.3-1.4-1.5-12.8-14-1.4-1.5z"/><path d="M137.7 52.9l.6-.7a11 11 0 018.3-3.8c3 0 5.8 1.2 7.7 3.3 2 2.2 3 5.1 2.6 8.2a11 11 0 01-4.4 7.8l-.8.5-14-15.3z" fill="#fff"/><path d="M146.6 49.4c2.6 0 5.1 1 7 3 3.7 4 3.1 11-1.7 14.5l-12.9-14a10 10 0 017.6-3.5m0-2a12 12 0 00-9 4.1l-1.2 1.4 1.2 1.3 12.8 14 1.2 1.3 1.5-1a12 12 0 004.8-8.5c.3-3.4-.7-6.6-2.9-9a11.5 11.5 0 00-8.4-3.6z"/></g><g><path fill="#fff" d="M72.7 48.1l5-.9L81.4 68l-4.9.9z"/><path d="M76.9 48.4L80.3 67l-3 .5L74 49l3-.5m1.6-2.3l-2 .3-3 .6-2 .3.4 2L75.4 68l.3 2 2-.4 3-.6 2-.3-.5-2L78.8 48l-.3-2z"/><path fill="#fff" d="M78.2 47.1l22.6-4.1 3.8 20.6-22.7 4.2z"/><path d="M100 44.1l3.4 18.7-20.7 3.8L79.3 48l20.7-3.8m1.6-2.3l-2 .4L79 46l-2 .3.4 2L80.8 67l.3 2 2-.4 20.7-3.8 2-.4-.4-2-3.5-18.6-.3-2z"/><path d="M101.3 43l.8-.3a11 11 0 013.2-.4c5.1 0 9.7 3.7 10.6 8.5.6 2.9-.2 6-2 8.3a11 11 0 01-8 4.3h-.9L101.3 43z" fill="#fff"/><path d="M105.3 43.3c4.6 0 8.8 3.3 9.6 7.7 1 5.4-3.1 11-9 11.4l-3.5-18.7a10 10 0 012.9-.4m0-2a12 12 0 00-3.5.5l-1.7.5.3 1.8 3.5 18.6.3 1.8 1.8-.1a12 12 0 008.6-4.7c2-2.6 2.9-5.9 2.3-9-1-5.4-6-9.4-11.6-9.4z"/></g></g></switch></svg>