<svg xmlns="http://www.w3.org/2000/svg" viewBox="0 0 350 350"><switch><g><path fill="#fff" d="M60 60h230v230H60z"/><path d="M281 281H70V70h211v41l9-14v158l-9-15v40z"/><radialGradient id="a" cx="175" cy="175" r="96" gradientUnits="userSpaceOnUse"><stop offset=".4" stop-color="#e85859"/><stop offset=".6" stop-color="#c84648"/><stop offset="1" stop-color="#831e22"/></radialGradient><path fill="url(#a)" d="M79 79h192v192H79z"/><path d="M273 141h-6l-7-4h-4l-4-3c-2-2-4 0-9-1l-4-1c3 5 3 8 3 8l-2-3h-6l-1 1c0 1 0 2-3 2l-4-1 1-1-4-1-2 3c-4 1-8-3-8-2v1h-2l-2-1v-1l7-6c0-1-2 2-6 2h-6l-4 2-4-3c-2-2-5-2-5-2s2 0 3 2v2l-6-2-6-2h-5c-2 0-4 2-6 1l-3-3c-1 1 1 6-1 8l-2 1c-2 1-1 3-2 3l-2-2h-3l1 1c-1 2-8 0-8 1l2 3c-1 1-4 0-5-1h-6a101 101 0 00-7 0l-6 1 7 2c0 2-5 3-5 4h7l3 1-3 4c1 1 3-1 7-1l7 1h-3l-3 1-7 1-4-1h-3v2l-4-2h-4l2 3h-5l-6 1s4 1 4 3l-1 2 3-4 5 1c1 2 0 4-1 5-2 1-5-1-10-2l-5 1-6 1-9 1-8 1-7 1-7 2v36l1 6 9 1h8l6-3 7-1h10l-5 4-4 2-4 2h3l4-1 3-3 4-3 9-3-3 3-1 2h5l2-3c2-3 4-3 5-3l1-3 3-2 2 3c0 2-4 3-4 4l3 1 4-3 5-1h6s-5 1-7 4l-3 3h-5l-7 6-6 4-5 6-5 1c-3 1-5 1-7 3l-8 4-8 5-8 3-9 4-2 4-1 6 4-3c1-2 3-1 7-5l6-5 1-1 5-3 9-5h6l2-2 6-1 5-2 3-1c3-1 4-3 6-5l7-4 7-3 7-2h8l7-3h5c1 1 0 4-2 6l-4 6a35 35 0 01-6 5l-9 5-3 3-4 3-2 3h-1l5-1 4-2 2-4 7-5 8-5 6-6 8-5 6-2 7 2 7 1 6 1c1 0 5 2 11 2h8l-3-2h3c5 0 7-1 7-2l-2-1s8 1 8-1c1-1-2-1-1-2h8l4 2 3 3-3 2c0 1 2 2 3 1 2 0 2-3 3-3l1 3 1 3 3-2c0-1-2-2-1-3s5 2 5 2c1-1-2-1-3-2l-1-3h4l2-5c1-2 2-2 3-2 0 0 1-1 3 1v-7l1-7-1-7v-7l1-7v-7-7l-1-6 1-7-1-7zm-49-22l1 3 3 2 1 5h4l3 2 3-1-3-1a6 6 0 00-1-2l-1-2c-1-1-3-1-2-2h2l-3-3c-1 0-2 2-3 1l-2-2h-2zm12 2l3 3 1 2 4 2 3 1-3-4-2-1-2-2-4-1zm13 6s1 3 3 3v-1l-3-2zm-44-24l6 4 3 1-3-3-6-2zm-3-6c1 1-2 9-3 8 0 0 0-3 2-5l1-3zm-6 10c-1-1-4 1-4 2h2l3-2-1-1zm3 14c-1 0-3 4-2 5l1-3 1-2zm-53-1l2 1 2 1 6 2-3-4-5-2-2 2zm-5 2v1h3l-3-1z"/><path d="M154 127v1l-4 4 2 2 2-4v-3zm-31 24h5c2 0 2 2 2 2l-3-1-3 1-3-1 2-1zm-31-8l6-2c3-1 6 1 6 1h-3l3 1h2l2-1-1 3-1 3-2-3h-2l-2 2-2-2c-2-2-7 0-7-1l1-1zm22 14l-7-1h-6c-3 1-4 1-5-1l-3-3v4c-2 1-5-1-5-1s0 2 2 3h15l9-1zm-34-6l3 1 1 3c-1 1-4 0-4-1v-3zm12 11h-2 2zm47 83h-6v1c1 2 2 2 3 2l4-1-1-2zm0 5c0-1-2 3-7 5l-4 1-3 1v1l-1 2 2-2 6-2 5-5 2-1zm38-9c-1-1-5 1-9 3l-4 4c-1 2-1 5-3 7l-6 4-7 5 10-5 5-5 5-4 5-5 4-4zm-29-11l-4 2-3 2 4-1 2-2 1-1zm-21 13s-2 2-1 3h3l-2-3zm3 5c-1-1-3 1-3 2 0 0 1 2 2 1 2 0 1-3 1-3zm5-6s3-4 4-3l-1 1c-1 2-2 2-3 2zm-16 17l-5 3-5 3-8 3-4 2 8-4 7-4 7-3zm10 5l-6 4-3 3-1 2 5-4 5-5zm-42-26s-4 0-8 4l-3 4-1-3 3-3 8-2zm103 2l-2 2-2 3 4-5zm-5-2v0zm-72-1h5l-2 2c-1 1-4 0-4-1l1-1zm90 30l-3 2c-1 2-3 2-3 2l3 1 1-2c2-2 4-3 3-4l-1 1zm32-24s-4 2-3 3h2l1-2v-1zm8 3l1-4c1-3 4-5 5-5l-1 4-1 1-4 4zm-1-12s0-4 3-6l7-2 6-2c1 0-3 4-6 5l-3-1-3 4-4 2zm-3-9l5-2 6-1s-4-2-6-1c-2 0-1 2-3 4h-2z"/><path fill="#fff" d="M79 218a2 2 0 01-1-2v-45a2 2 0 011-2l19-1a228 228 0 0023-4 2 2 0 012 1v2a12 12 0 004-2 13 13 0 005-5 2 2 0 011-1h30a2 2 0 011 2v42a2 2 0 01-1 1h-38a2 2 0 01-1-2 49 49 0 003-16h-8a98 98 0 01-13 15 98 98 0 01-22 16 2 2 0 010 1h-5zm77-20l-1-2a36 36 0 01-3 0c-5-2-10-4-14-8h-2a41 41 0 01-1 6 41 41 0 01-1 4h22z"/><path d="M163 161v42h-38a50 50 0 004-18h-11a97 97 0 01-13 15 97 97 0 01-21 16h-5v-45a229 229 0 0042-6v3a14 14 0 007-2 14 14 0 005-5h30m-31 38h25v-4a35 35 0 01-5-1 37 37 0 01-14-7h-4a39 39 0 01-2 12m31-41h-30a3 3 0 00-3 1 11 11 0 01-4 5l-2 1a3 3 0 00-3-3 227 227 0 01-23 4 227 227 0 01-19 2 3 3 0 00-3 3v45a3 3 0 003 3h6a100 100 0 0022-17 100 100 0 0012-15h7a48 48 0 01-3 15 3 3 0 002 4h38a3 3 0 003-3v-42a3 3 0 00-3-3zm-26 32c3 3 7 5 11 6h-12a42 42 0 001-6z"/><path fill="#fff" d="M166 231v-83h39v83h-39zm29-17v-4h-20v4h20zm0-16v-4h-20v4h20zm0-16v-4h-20v4h20zm0-15v-4h-20v4h20z"/><path d="M203 149v80h-36v-80h36m-29 19h23v-7h-23v7m0 16h23v-7h-23v7m0 16h23v-7h-23v7m0 15h23v-7h-23v7m32-69h-42v86h42v-86zm-29 18h17v1h-17v-1zm0 16h17v1h-17v-1zm0 16h17v1h-17v-1zm0 15h17v1h-17v-1z"/><path fill="#fff" d="M206 148h11v83h-11z"/><path d="M216 149v80h-8v-80h8m3-3h-14v86h14v-86z"/><path fill="#fff" d="M222 162h33v-4l15 3v21l-15 2v-2h-16v7h8v14h-23v-14h7v-8h-9zm48-4l16-38-4 33 26-21-25 39 23 32-25-16 2 35-12-36 7 10-2-17 13 8-12-15 11-18-13 9 3-14a13222 13222 0 00-8 9zM155 113h3v19h-3zm5 0h21v19h-21zm24 19v-19c6-1 11 4 11 10s-5 10-11 9zM144 86l2-1 7 18-3 1zm5-2l20-7 6 18-20 7zm28 10l-6-18a10 10 0 0114 6 10 10 0 01-8 12zM116 72l4-3 14 16-4 3z"/><path d="M120 70l13 14-2 2-13-14 2-2m0-2l-1 1-3 2-1 1 1 2 13 14 1 1 2-1 2-2 2-1-2-2-13-14-1-1z"/><path fill="#fff" d="M120 69l17-16 15 16-17 15z"/><path d="M137 55l13 14-15 14-13-14 15-14m0-3l-1 1-16 14-1 2 1 1 13 14 1 2 2-2 15-14 2-1-1-2-13-14-2-1z"/><path fill="#fff" d="M138 53v-1a11 11 0 019-4c3 0 5 2 7 4s3 5 3 8a11 11 0 01-5 8l-14-15z"/><path d="M147 49c2 0 5 1 7 3 3 4 3 11-2 15l-13-14a10 10 0 018-4m0-2a12 12 0 00-9 5l-2 1 2 1 12 14 2 2 1-1a12 12 0 005-9c0-3-1-7-3-9a12 12 0 00-8-4z"/><g><path fill="#fff" d="M73 48l5-1 3 21-4 1z"/><path d="M77 48l3 19-3 1-3-19h3m2-3l-2 1h-5v2l3 19 1 2h2l3-1h2l-1-2-3-19-1-2z"/><path fill="#fff" d="M78 47l23-4 4 21-23 4z"/><path d="M100 44l3 19-20 4-4-19 21-4m2-2h-2l-21 4h-2v2l4 19v2h2l21-4 2-1-1-2-3-18v-2z"/><path fill="#fff" d="M101 43h1a11 11 0 013-1c5 0 10 4 11 9 0 3 0 6-2 8a11 11 0 01-8 4h-1l-4-20z"/><path d="M105 43c5 0 9 4 10 8 1 5-3 11-9 11l-4-18a10 10 0 013-1m0-2a12 12 0 00-3 1h-2v2l4 19v2l2-1a12 12 0 009-4c2-3 2-6 2-9-1-6-6-10-12-10z"/></g></g></switch></svg>