<svg xmlns="http://www.w3.org/2000/svg" xmlns:xlink="http://www.w3.org/1999/xlink" viewBox="0 0 350 350"><switch><g><path fill="#fff" d="M60 60h230v230H60z"/><path d="M69 69h212v212H69z"/><path fill="#906f79" d="M75 75h200v200H75z"/><defs><path id="a" d="M79 79h193v193H79z"/></defs><clipPath id="b"><use overflow="visible" xlink:href="#a"/></clipPath><path d="M282 71v211H71V71h56v43a12 12 0 00-8 2l-3 3a81 81 0 10112-5 13 13 0 00-6-2 9 9 0 00-1 0V71h61z"/><g fill="#906f79"><path d="M117 116l-11-12 5-12-29-25 33 24-3 13 13 14-4 2z"/><path d="M89 141l-16 1 9-2 6-3 3-8 5-5a7400 7400 0 01-5-1l4-24-28-2 35-1v20l19 9-11 6-8-3-8 5-5 8zm-23 39l19 21 1-23 4-1 11-2-2-14-27 1a337977 337977 0 019 30l-15-12zm38 25l-13 11-7-7-21 21 20-16 7 7 20-12zm7 8l-31 21 8 31-22 19 29-16-4-26 8-9 2 13 8 1 1 8v-8l5-2-6-1-6-1 2-12 14-10zm27 25l-19 21 4 10-16 18 20-18-3-8 20-19zm18 4l-18 21 19 10-4 13 11-15-10-9 10-18zm45 5l12 13-14 11 25 17-14-16 19-7-19-23-9 5m23-13l10 5 10-6v-9l14-6-10 7-1 10-8 8 4 4 13-15 19 44-17-26-13 14-33-22zm26-38l19 7-9 8 25 10-11-11 15-8-37-21zm-5-46l32-24v33l19 2-26 2v-16l-20 13zm1-7l22-16-8-17 22-6-27 2 5 19-18 15z"/><path d="M227 117l11-22h26l-12-28 18 32-26 4-9 28z"/></g><path fill="#fff" stroke="#000" stroke-miterlimit="10" stroke-width="5" d="M256 175a81 81 0 11-137-59 12 12 0 018-2 12 12 0 018 19 75 75 0 00-2 3 57 57 0 00-16 39 57 57 0 10104-31 56 56 0 00-10-12 13 13 0 0117-18s0 0 0 0a81 81 0 0128 61z"/><path fill="#fff" stroke="#000" stroke-miterlimit="10" stroke-width="5" d="M176 204h-2a12 12 0 01-12-12v-84a12 12 0 0112-12h2a12 12 0 0112 12v84a12 12 0 01-12 12z"/><path d="M114 55l6-8h111l6 9z"/><path fill="#fff" d="M219 97a9 9 0 01-4-1 9 9 0 01-4-12l8-18h-14v19a8 8 0 01-16 0V66h-6v19a8 8 0 01-15 0V66h-6v19a8 8 0 01-16 0V66h-15l8 18c2 4 1 10-4 12a9 9 0 01-4 1 9 9 0 01-8-5l-14-30 7-11h117l1 1 7 10-14 30a9 9 0 01-8 5z"/><path d="M232 53l6 9-13 29a6 6 0 01-6 3 6 6 0 01-3 0 6 6 0 01-3-9l10-22h-21v22a5 5 0 01-10 0V63h-11v22a5 5 0 01-11 0V63h-11v22a5 5 0 01-10 0V63h-22l10 22c2 3 0 7-3 9a6 6 0 01-2 0 6 6 0 01-6-4l-14-28 6-9h114m0-5H115l-1 3-6 9-1 2 1 2 8 17 5 12a11 11 0 0015 5 11 11 0 006-6v-9l-7-15h9v17a10 10 0 0020 0V68h2v17a10 10 0 0020 0V68h1v17a10 10 0 0020 0V68h9l-7 15a11 11 0 005 15 11 11 0 005 1c5 0 9-2 10-6l13-29 2-2-2-2-6-9-1-3h-3z"/><path d="M198 39h-47l-2 1-1 2v11h53V42l-1-2-2-1z"/><path fill="#fff" d="M152 44h44v14h-44z"/></g></switch></svg>