<svg xmlns="http://www.w3.org/2000/svg" viewBox="0 0 350 350"><switch><g><path fill="#fff" d="M60 60h230v230H60z"/><path d="M69 70h212v211H69z"/><path fill="#d75b2b" d="M272 272H79V79h193v193z"/><radialGradient id="a" cx="175" cy="175" r="96" gradientUnits="userSpaceOnUse"><stop offset="0"/><stop offset="1" stop-opacity="0"/></radialGradient><path fill="url(#a)" d="M79 79h192v192H79z" opacity=".5"/><path fill="#6e3120" d="M95 272l10-13c3-4 8-8 8-12v-7c-1-2-6-3-7-3l-9-3-18-1c8-9 16-16 20-28l8-19 2-9 8-7 17-17 20 59 5 16c1 3 4 7 4 10s-4 3-7 4a23 23 0 00-10 6l-13 11-9 7-5 6H95zM238 95a36 36 0 003-12v-4h31v38c-2 3-11 7-14 10l-5 3-6-1-13-2c7-3 14-8 21-9 1 0 15 0 14-2l-14-1c-3 0-6 0-9-2s1-1-3-3l-7-1c3-1 10-4 10-8s-5-6-8-6zm-19 2c-2-2 3-7 4-8 3-2 11-3 13 1 1 3-2 2-5 3-2 0-11 5-12 4zm-7-15c3 3-10 11-12 12l-8 7c-2 4 0 11 0 15l-40-3a42 42 0 0014-12c2-2 12-15 14-13 1 1-8 6-3 7 2 0 4-3 6-2 3 0 3 5 3 7l26-18z" opacity=".8"/><path fill="#d75b2b" d="M233 172l-9-10 20-11-11 21zm-7-30c2-2 5-6 8-7h17c7-1 13-12 17-17l-17 8c-6 3-7 4-13 3l-11-2c-4-1-3-1-6 2-5 5 0 10 5 13zm-96-21c-4 3-9 9-13 10h-9c-2 1-3 6-4 8h13c3 1 7 4 9 3s6-8 7-10c1-4 0-8-3-11zm0 18l-10 17c-3 5-2 10-2 15l7-7 10-9c3-5-2-12-4-16zm-14 15l-6 11-3-4 9-7zm-22 38l17-9c-3-3-6-5-10-2-3 2-5 8-7 11zm31 33c-2-4-3-3 0-6l8-7c1 4 2 5 0 9s-4 3-8 4zm101-4l-6-5c-1-3 0-2 2-5l3-6-3-8c10 1 26-2 32 9-9 5-18 11-28 15zm-36-119l10-9 8-7c2-1 4-5 6-5 3-1 7 5 9 7s9 8 8 10c0 3-8 9-10 11-4 3-4 4-10 4h-19c-2-1-1 0-2-3v-8z"/><path d="M245 198l-22-2-1-11-4-11 4-2 8 5 5-3 7 5-3 11 7-9-7-8 9-7-7 3-5 3h-6l-4-4v-27l-4-3-1-7 3-2 16 1h14l17-14-11 6-9 6-5-1-22-3-5 1v-12l7-4 4-4 3-7 4-3-4 1-4 4-3 6-7 4-7-3h-8l-13 3-3-3v-4l-4-1-5-4-7-1 5-8-5 4-2 4a111 111 0 0011 6l4 3 2 5-1 1h-6l-7-3-8-5-8 7-4 1-5-4-9-1-10-5-5-1-4 4-3 7h-10l-7-2 5 5h13l3-4 4-8 9 4-4 3-1 9 2 6v6l-3 3-2 6h-5l-1-2-2-10-10 1-9-1-3-3-7-8 7 11 7 2 13 1v7l-10 3 7 5 3 4-8 3 8-1 5-2-7-8 6-1 7 2 4-2 3 12v15l-8 8-4 1h-13l-3 2h-6l-6-3-8-2 5 3 8 3 4 2 6-3h12v9l-2 1-4-1h-9l12 2-9 6-9 9-2 4-4 8 6-7 2-4 9-8 13-9v-7l3-3h4l3 12-6 16 3 7v6l-3 3-7 2-9 8-17-2-19 3 20-1 17 4 12-11h4l2 14 13 4-4 6-6 5-9-7-14 15 11-9 3-3 9 8 16-15 4 2 34-3-5 8 5 9-2 7 4-5-3-11 2-3 3-5 9-4 12-1v4a8467 8467 0 00-3 3l-6 6-8 4 10-2 7-7 3-2 5-1 8 5-5-7-2-6-3-5v-8l4 1 4 2 6-5 8 2-3-3-5-4-7 5-5-5 3-3 3-5-3-8 19 1 9 4 10-1-8-1-9-5zm-111-86h10l-10 13v-13zm12 129l-12-3v-15a104 104 0 0112 14v4zm67-81l7-16 1 16-7 10-1-10zm11 45l-8 9v-26l8 17z"/><path fill="#fff" d="M134 135a723 723 0 0114-20l5 5 13-9 16 9 11-3 16-3 4 3v16l4 7-7 18-1 11 3 8 1 8-2 10v16l2 7 1 8 1 8-9-1-8 2-10 5-12-1-11 3-12-1-3-8-13-14-3-13 5-15-4-16 4-7v-18l-5-15z"/></g></switch></svg>