<svg xmlns="http://www.w3.org/2000/svg" viewBox="0 0 350 350"><switch><g><path fill="#fff" d="M60 60h230v230H60z"/><path d="M69.5 69.5h211v211h-211z"/><path fill="#1b3652" d="M79 79h192v192H79z"/><radialGradient id="a" cx="175" cy="175" r="96" gradientTransform="matrix(0 -1 1.75 0 -131.3 350)" gradientUnits="userSpaceOnUse"><stop offset=".4" stop-color="#4fa0e2"/><stop offset="1" stop-color="#3a6082" stop-opacity="0"/></radialGradient><path opacity=".5" fill="url(#a)" d="M79 79h192v192H79z"/><g opacity=".5"><path d="M85.2 220.2c.9.3-1 6 .3 6.7 1 .4 3.2-1.8 5.2-4.3 2-2.4 3.4-4.6 4.4-4.2 1.4.7-.7 6.2 1.3 7.4 2 1.2 6.4-3.5 7.7-2.5.6.6-.5 2.4-1.2 4.4-1 2.6-1.7 5-2.7 6.6-1 1.6-1.8 1.8-1.7 2 .1 0 1.6-.5 2.7-1.6 3-3.3 4-6.3 5-7.8 1.4-2.3 4.1-4.9 10.3-6.8 2.5 1 5.2 1 7.7 2s4.7 2.7 7.2 3.7 5.4 1.5 8 2.5c.7 1.9 1.5 5.1.9 8.2-.7 3-3 4.6-6 7-1.8 1.7-3.6 4-6.3 6.8-2 2-3.7 3.9-5.2 5.7-2.6 3.3-4.5 5.8-4 6.3.7.8 5.7-4 7.1-2.8 1 .7 0 3.3-1.8 6.8-1.2 2.2-2 5-3.8 7-2.8 3.2-6.3 4.5-8.4 5.8-3 .6-5.5 1.6-7.8 1.5-3.4 0-5.8-1.5-7.8-2.3-2.6-1-4.4-2.5-7.8-2.7-2.5-.2-4.4 1.3-8 .6l-3.2-.7-6-1.2c0-2.8.8-5.8.8-8.5l.3-8.4v-8.3c.1-2.8-1-5.6-1-8.4 0-.5 1.2-1.3 1.3-2.2l1.5-4.6c.9-3 2.6-3 6-6.7 3.4-3.6 4.3-7.2 5-7zm19.6-32a43.7 43.7 0 00-11.7 8.2c-1.8 1.8-3.2 3.9-4.5 5.7-2.2 3.1-3.6 5.6-3 6.1 1 1 7.6-5.2 8.1-4.6.4.3-1.7 3.2-4 5.8-2.3 2.4-4.9 4.8-6 4.2-1.3-.7.2-6 1-8.1.9-2.4 2.2-4.3 3.4-5.9 1.7-2.3 3.6-3.7 4.7-4.7a32 32 0 0112-6.8zm-18.3 27.3c-.3-.5-2.5 0-3.7 1.5-.6.9-1 2.3-.6 2.6.4.4 1.9-.7 2.6-1.3.9-.8 2-2.3 1.7-2.8zm10.3 1.6c-2.3-1.1-3.8-3.2-3.5-5.2.4-2.8 4.2-3.6 5-3.8 2.2-.6 3.3 0 5.4 0 2-.2 4.8-1 8.1-4.5-1.2 8.7-2.9 10.8-4.2 11-1.6.2-2.5-2.5-6-3.2-2.4-.6-5.4 0-5.8 1.4-.5 1.8 3.7 4.2 3.3 4.8-.2.3-1.2 0-2.3-.5z"/><path d="M100.6 216.8c-.3-.5.1-1.5.6-2 .8-.8 1.7-.8 2-.8 0 .1.8.9.6 1.7-.3 1.3-2.7 1.7-3.2 1zm29 39.3c.8.9 2.6.5 3.7-.3 1.3-1 2-3 1.2-4-.7-.9-2.8-.4-4 .7-1 1-1.6 2.7-.8 3.6zm11-4.7c-.8-.4-1.3-1.6-1.2-2.5.2-1.5 2.3-2 5-3.5 4.7-2.5 6.5-5.4 6.8-5.1.3.3-1.7 3.8-4.2 6.7-2.2 2.7-4.7 5-6.3 4.4zm4.4 5.4c.4.7 5-.5 7.7-3.6 2.4-2.8 2.6-6 2.6-7.3-1-.6-1.6-.7-2-.7-2 .4-2.2 3.4-5.2 7.6-2 2.8-3.4 3.6-3.1 4zm-15 15.6c.7.6 3.5-.5 5.2-2.3 2.6-2.8 2.7-7.5 1.7-8-1.2-.5-4 4-5.2 6-.9 1.4-2.3 3.6-1.6 4.3zm4.8 1.4c1 1 5.5-1 8.4-4 2.7-2.9 4.3-7 3.4-7.7-.7-.6-3 .9-4.1 1.7-4.6 3.3-8.7 8.8-7.7 10zm16-6.1c.2.4 1.7 0 2.5-1 1-1.1.9-2.8.5-3-.8-.4-3.6 3.3-3 4zm7-3.6c-1-.7-1.2-3.3.1-4.5 1.5-1.3 4.4-.5 4.8.6v.7c-.6.8-2.3-.1-3.2.7-.8.8 0 2.4-.8 2.7-.4.2-.8-.2-.9-.2zm9.7.2c.5.5 1.8.4 2.1-.4.3-.6.1-1.4-.5-1.7-.5-.2-1.1 0-1.4.4-.4.5-.6 1.3-.2 1.7zm-2.4-22.5c1 .7.1 4.2-1.2 7.3-1.4 3.2-3.3 6.1-4.5 5.9-1.4-.2-2.6-4.8-1-8.5 1.7-3.4 5.6-5.5 6.7-4.7zm-2 15.4c.5.3 3.3-2.5 4.9-6 1-2.2 1.8-5.3 1.3-5.5-1-.4-7 10.9-6.2 11.5zm-46.7-107c-.8-.7-3.1-2-5-3.7-2.6-2.5-4.4-5-6.3-7-2.8-2.7-4.7-5.1-6.5-6.7-2.9-2.7-5.2-3.7-8.2-4.3-1.6-.3-3.8 0-8-.3-3.4-.3-6.6-.8-8.5-.8l1.3-10.3c.3-3.7.8-7 .8-10V96.8c-.2-1.6-.9-4.6-.5-7.4a7.8 7.8 0 013.8-5.9c1.6-1 2.9-1.5 5.5-3.5l4-3c2.8-1.8 7.6-1.2 10.5.8 2.6 1.8 4 4.3 4.7 7.3.5 2.4.8 5.2 1.7 8.4.6 2.4 1.6 5 3 7.8 1.3 2.4 3.2 4.8 7.3 10 1.6 2.1 3.2 4.8 5.4 7.5 1.8 2.2 4.2 4.3 6.4 6.8 2 2.2 3.2 4.8 5.4 7.2-1.6 3.7-3 2.5-5.8 5.3-3 2.8-2.4 3.3-5 6.4-2.8 3.1-2.7 3.3-6 5.7zm78.7-44.7c.3.3-.1 1.2-1.3 5-2.2 7-1.9 8-3.3 9.4-3 2.6-9.2 1.7-9.7 0-.3-1 .9-1.8 3.3-4l5.4-5.5c3.4-3.5 5-5.3 5.6-4.9zm2.3 11.2c.3 0 2.6.4 4.3-1.4 1.6-1.7 1.7-4.7.7-5.3-1.4-1-6.4 2.6-6 5.2.1.4.4 1 1 1.5zm15.6 4.8c.4.5 2.5-.6 5.7-1.8 5.3-2.1 8.2-2.8 10.3-4.8 3.3-3.1 2-4.4 5.6-8.4 3.4-4 5.3-3.9 7.8-7 1.7-2 3.4-5.4 3.1-11.7a34.6 34.6 0 00-8.3 3.7 15 15 0 00-5.7 7.2c-1.8 4.6-.3 8-3.5 11.4-2.4 2.5-4.3 1.6-9.1 5-3.4 2.2-6.4 5.6-5.9 6.4zm19.8 23.5c2.2-1.7 5.8-4 9.6-7.6 2.3-2.1 3.6-3.9 4.8-5 2.1-2.3 3-3.7 5.3-4.7 2.4-1 5-.8 7.4-1 2.6 0 5-.3 7.4 0 3.6.3 6.9 1.7 9 2.3.7-2.6.8-6.5 1.1-10.4a47 47 0 00-.3-10.1c-.3-2.8-.5-5.1-1.2-7.3-3 .6-6 1.5-9 2.2l-9.2 2c-3 .7-6.3.8-9.4 1.5-3.8 3.2-3.3 3.6-6.6 7.3-3.3 3.8-3 4-6.3 7.7s-3.6 3.4-7 7c-3.2 3.8-3.6 3.5-5.7 8-2.5 5-4.8 5.4-2.6 10.5 2.5 6.2 6.3-.7 12.7-2.4zm10 4.7c.2.5 1.9.3 3-.5 1.4-.9 2-2.6 1.7-3-.7-.5-5 2.8-4.7 3.5zm7.1-3c.2 0 .5 0 2.4-2.4 2.2-2.7 3.3-4 3-4.4-.3-.5-3.2.6-4.6 2.9-1 1.6-1.3 3.6-.8 3.8z"/><path d="M259.4 139.9c-.9-.4-1-2.8-.1-4.6 1-2.2 3-3 6.2-4.8 1.8-1 4.5-2.5 7.6-4.7l-8.4 9.4c-3 3.3-4.5 5-5.3 4.7zm-7.4-6.2c.7.9 3.2.5 4.5-.9 1.1-1.3 1.4-3.5.6-4.1-.8-.6-2.4.3-3.1.8-1.5 1-2.7 3.3-2 4.2zm-6.9 26.5c.8-1.2 2.2-2.8 3.8-4.6 1-1.2 3.8-4.5 9.6-8.3 2.6-1.8 4.4-2.6 5.9-3.3a28.4 28.4 0 0011.6-11.3l3 10.8c-.8 1.7-2.2 4-4.8 5.1-2.2 1-3.2.2-5 1.4-2 1.3-1.8 3.3-4 4.2l-1.9.6c-2 .7-3.8 2-3.5 2.8.2.6 2.2.5 2.5.4 1.3 0 1.6-.3 1.8 0 .7.6-2.7 7.1-5.8 6.8-2.4-.3-2.7-4.8-5.1-5-1.3-.3-3 1-5.8 6.1l-2.3-5.7zm11.7 14.8c.2 0 2 .2 3.2-1.3 1.2-1.5.6-3.2.6-3.3-1.8-.7-3.5 0-4.1 1.5-.5 1-.4 2.2.3 3.1zm-2.3-9c.9.9-.6 5.2-3.7 6-2.2.5-4.2-1-4.5-1.2.5-.8 1.4-2 2.8-3 1.7-1.2 4.6-2.7 5.4-1.8z"/></g><path d="M85.1 100.3c2.7-5.9-4.2-11.3-1.3-16.2 1.9-3.3 7.4-5 10.8-3.4 4.1 1.9 3.4 7.4 7.6 16.6a52 52 0 007 11.3 2396.3 2396.3 0 0131.8 34.6s65.3 72.6 96.6 96.6a68 68 0 0012.3 8.2c14.1 7 22.9 4.2 25.8 10 2.9 5.5-1.4 15-6.4 16.3-4.3 1-6.5-5-12.3-4.6-6.6.4-8 8.3-14.3 8.1-3.6 0-7.4-2.8-8.8-6-1.7-4.1 1-7.3-1-12.8a15 15 0 00-2.6-4.4L127 144.8l-22.5-19.2c-3.6-3.1-6.3-5.6-10.8-6.6-5.3-1.2-7.8.9-12.3-1-3.5-1.7-7.4-5.4-7-8.7.7-4.3 8.3-3.6 10.7-9z" fill="#fff" stroke="#000" stroke-width="4" stroke-miterlimit="10"/><path d="M108.1 277.8c-2.8 0-5.4-1.1-5.8-1.4-3-1.3-4.2-3.3-5.2-4.9-.8-1.3-1.2-2-2.2-2.2a2.8 2.8 0 00-.9-.2c-1.1 0-2.3.7-3.6 1.5-1.7 1-3.5 2-5.9 2a7.4 7.4 0 01-1.7-.2c-5-1.2-9-7.3-8.2-12.6.5-2.7 2.1-5 5.4-7.6 5.7-4.3 11.4-5.4 15.9-6.4a62 62 0 003.4-.7c7.1-1.9 11.2-6.2 18-13.5l2-2.3c.2-.2 17-18 102.4-101.7 2.5-2.5 4.8-5.1 7.1-7.7l6.1-6.6c.7-.7 1.9-1.8 3-3.6 1.4-2 1.8-3.3 2.4-5.2l1.4-4c1.5-3.3 2.8-5 4-6.4 1-1.3 1.7-2.1 2.2-4.3.5-1.9.4-3.1.3-4.3 0-1.4-.1-3 1.2-4.5 1.5-1.6 4-2.4 7-2.4 4.9 0 10.7 2.3 12 6.3.9 2.6-.3 4.6-1.3 6.3-1 1.7-1.6 2.8-1.3 4.1.3 1.1 1 1.6 2.3 2.5 1.5 1 3.4 2.3 4.9 5 2.2 4 3.1 9.6.4 13.4-2.9 4-8.4 4.4-10.7 4.5-1.6 0-2.7-.2-3.8-.4l-2.3-.3c-.6 0-1.2 0-1.8.2 0 0-1.6.5-3.2 1.6a517.4 517.4 0 00-31.6 32.7c-19.7 21.2-44.3 47.7-62.4 64.3l-37.5 34.5c-.8.9-1.5 1.8-1.8 2.9-.6 1.6-.4 3-.3 4.2l.1.5c.6 4.4-.4 12.7-5.4 15.7a8.7 8.7 0 01-4.6 1.2z" fill="#fff"/><path d="M256.3 80.6c4.3 0 9.3 2 10.3 5 1.1 3.4-3.8 5.9-2.7 10.2.9 3.7 4.8 3.4 7.4 8 1.6 3 2.8 8 .5 11.3-2.6 3.5-8.2 3.6-9 3.6h-.2c-2.4 0-4-.7-6-.7a8.6 8.6 0 00-2.4.3s-1.9.5-3.7 2c-9.1 6.6-62 67.4-94.2 97L118.8 252c-.8.7-1.8 2-2.4 3.6-.9 2.3-.4 4.3-.3 5.6.6 4.5-.6 11.5-4.5 13.8-1 .6-2.3.9-3.5.9-2.5 0-4.7-1-5-1.2-4.6-2.1-4-6-7.6-7.2a4.8 4.8 0 00-1.5-.3c-3.3 0-6 3.6-9.5 3.6-.4 0-.8 0-1.2-.2-4-1-7.3-6-6.7-10.4.3-1.9 1.4-3.8 4.7-6.3 6.8-5.2 13.5-5.5 18.5-6.8 8.5-2.2 13-7.7 21-16.3 0 0 15.9-17 102.3-101.7 4.6-4.6 8.7-9.6 13.3-14.2.7-.7 2-2 3.2-4 2.4-3.6 2.3-5.4 4-9.4 2.7-6.6 5-6 6.2-11 1.2-4.7-.4-6.3 1.1-8 1.2-1.3 3.2-1.8 5.4-1.8m0-4c-3.6 0-6.5 1-8.3 3.1-2 2.1-1.8 4.4-1.8 6 .1 1 .2 2-.2 3.7-.5 1.7-1 2.2-2 3.5a26 26 0 00-4.1 7l-1.5 4c-.5 1.8-1 2.9-2.1 4.7-1 1.6-2.1 2.7-2.7 3.3-2.2 2.2-4.3 4.5-6.2 6.7-2.4 2.7-4.7 5.2-7 7.5A4962.9 4962.9 0 00117.8 228l-2.1 2.4c-6.5 7-10.4 11.1-17 12.9l-3.3.7a37 37 0 00-16.7 6.8c-3.7 2.8-5.6 5.5-6.1 8.8-1 6.3 3.6 13.4 9.6 14.9a9.4 9.4 0 002.2.3c3 0 5.1-1.3 7-2.4.9-.5 2-1.2 2.5-1.2h.3c.2.2.4.3 1.1 1.5 1 1.6 2.6 4 6 5.6.8.4 3.5 1.6 6.7 1.6 2 0 4-.5 5.6-1.5 5.9-3.5 7-12.5 6.4-17.7v-.5c-.2-1-.4-2.1 0-3.3.3-.7.8-1.4 1.4-2l37.5-34.5c18.1-16.7 42.7-43.2 62.5-64.4 14.8-16 27.6-29.8 31.3-32.5 1.3-.9 2.5-1.2 2.5-1.3a4.6 4.6 0 011.3-.1c.5 0 1.2 0 2 .2 1 .2 2.4.5 4 .5h.1c2.6 0 9-.6 12.3-5.3 3.3-4.5 2.2-11-.3-15.5-1.7-3.1-3.9-4.6-5.4-5.7-1.3-.9-1.5-1-1.5-1.4-.2-.5 0-1 1-2.5 1-1.9 2.7-4.6 1.6-8-1.7-5-8.4-7.7-14-7.7z"/><path d="M177.7 250.9a2.5 2.5 0 01-1.8-.7c-.4.4-1 .6-1.6.6H168a2.5 2.5 0 01-2.1-1.2h-.1a2.5 2.5 0 01-2 .7l-5.3-.8a2.5 2.5 0 01-1.7-1 2.5 2.5 0 01-2.3.3l-7-2.6a2.5 2.5 0 01-1.6-2.4v-7.7-.3-.7a4 4 0 00-1.1-.1 41.1 41.1 0 00-9.6 1.3l-3 1c-1 .3-2 .6-2.9.7a7.1 7.1 0 01-.8 0c-10.6 0-25.3-24.5-26.5-50.5-.4-9.9-1-23.3 8-34.9 5.2-6.5 12.2-11.2 21-13.8v-7.5c0-8 6.5-14.5 14.5-14.5H169v-13.4-.6a6.4 6.4 0 016.5-4.8c2.8.2 5.1 2 5.9 4.8v14h21.1c8 0 14.5 6.5 14.5 14.5v7.7c11.9 3.1 20.5 9 25.8 17.7 6 9.8 5.6 19.8 5 29.4-1.3 27.5-16.3 52-27 52l-.8-.1c-1-.1-2.1-.5-3.5-1-2-.6-4.6-1.4-8.5-2l-2.1-.3c-.9 0-1.2.2-1.3.3l-.1.7.2 8.5a2.5 2.5 0 01-2 2.5l-6.3 1.6a2.5 2.5 0 01-2-.2 2.5 2.5 0 01-1.9 1.3l-6.3 1a2.5 2.5 0 01-1.5-.4 2.5 2.5 0 01-1.9 1l-5.1-.1zm20.7-114.3c2.1 0 5.3.1 9 .5v-5c0-3-2.5-5.5-5.5-5.5h-17.5c5 .4 9 1.5 11.3 5 .9 1.5 1.4 3.2 1.5 5h1.2zm-52.2-10a5.5 5.5 0 00-5.5 5.5v4.7a67.2 67.2 0 018-.4c2 0 3.6 0 4.9.2.1-2 .7-3.6 1.6-5 2.2-3.5 5.9-4.6 10.6-5h-19.6z" fill="#fff"/><path d="M175.2 100.5h.2a4 4 0 013.6 3v15.8h23.5a12 12 0 0112 12v9.6c9.5 2.2 20 7 26.2 17.1 5.6 9.1 5.2 18.4 4.7 28-1.4 26.1-15.6 49.5-24.6 49.5h-.5c-2-.2-5.2-2-12-3-.7-.2-1.6-.3-2.4-.3-1.3 0-2.4.3-3.2 1.1-.6.8-.7 1.7-.7 2.4l.2 8.6-6.4 1.6v-5.4c.1-1-.7-2-1.7-2-.9 0-1.7.8-1.8 1.7v6.8l-6.4.8v-9c.2-1.3-.7-2.3-1.4-2.3-.8 0-1.6.9-1.6 2v10l-5.2-.1v-10.5c.2-1.2-.7-2.2-1.5-2.3h-.1c-.9 0-1.9 1-1.7 2.3l-.1 10.4H168V239c0-1.3-1-2.3-2-2.3a1.3 1.3 0 00-.2 0c-.8.2-1.6 1-1.6 2.2v8.9l-5.3-.8-.1-6.7c.2-1-.7-2-1.6-2-1 0-1.9.8-1.8 1.8v6.4l-7-2.7v-7.7c.2-1.5-.2-2.2-.5-2.6-.6-.7-1.6-1-3.1-1s-3.4.2-6 .6l-2.6.4-1.6.4c-2.8.7-4.3 1.5-5.6 1.6h-.5c-8.5 0-22.9-22.4-24-48.1-.4-9.9-1-22.4 7.5-33.2a39 39 0 0121.5-13.5v-9.4a12 12 0 0112-12h26v-15.9a4 4 0 013.7-2.9m19.4 38.7h3.8c2.8 0 6.8 0 11.5.8v-8a8 8 0 00-8-8h-23v4.9c7.7 0 12.4.6 14.6 4.1 1.3 2 1.3 4.5 1 6.2m-56.3.5a63.8 63.8 0 0110.5-.8c4.1 0 7 .4 7.5.4a9.4 9.4 0 011-6.4c2.3-3.4 6.8-4 14.3-4V124h-25.3a8 8 0 00-8 8v7.6m37-44.2a9 9 0 00-8.6 6.6 5 5 0 00-.1 1.3v11h-21a17 17 0 00-17 17v5.6a42.4 42.4 0 00-20.4 14c-9.6 12.4-9 26.4-8.6 36.5.6 12.6 4 25.3 9.9 36 2.7 5.1 10.2 17 19.1 17h1.1c1.2-.2 2.3-.5 3.4-1l2.8-.8a32 32 0 011.4-.3l2.3-.4c1.6-.2 2.9-.4 4-.4v6.3a5 5 0 003.2 4.6l3.4 1.3 3.5 1.3a5 5 0 002.8.3 5 5 0 001.7.5l5.3.8a5 5 0 002 0 5 5 0 002.6.6h6.3l1.6-.3a5 5 0 001.8.4h5.1a5 5 0 002.4-.6 5 5 0 001.4 0l3.4-.5 2.9-.4a5 5 0 002.4-1 5 5 0 001.7-.1l6.4-1.7a5 5 0 003.8-5l-.1-4.2-.1-2.6.6.1c3.7.6 6.2 1.4 8.1 2 1.5.5 2.7 1 4 1l1 .1c6.6 0 13.7-6.4 19.7-17.6 5.7-10.7 9.3-24 10-36.6.5-10 1-20.4-5.4-31a43.5 43.5 0 00-25.5-18.2v-5.8a17 17 0 00-17-17H184v-10.8l-.2-1.3a8.9 8.9 0 00-8.2-6.7 9 9 0 00-.4 0zm21.7 33.6h5a3 3 0 013 3v2.3a80.7 80.7 0 00-5.5-.3 12.3 12.3 0 00-1.6-3.8 11.6 11.6 0 00-1-1.2zm-53.7 5v-2a3 3 0 013-3h7.7a12.4 12.4 0 00-2.4 4.8 70.7 70.7 0 00-2.8 0 70.3 70.3 0 00-5.5.2z"/><path d="M128 180.7a24.3 24.3 0 00-8.5 24.8 23.6 23.6 0 0022.2 17.8c12.1 0 23.2-10.6 23.6-24.6a279.1 279.1 0 01-37.3-18z"/><path d="M156.7 196h-10v-13.5a3 3 0 00-3-3h-4a3 3 0 00-3 3v13.6H127a3 3 0 00-3 3v4a3 3 0 003 3h9.9v9.4a3 3 0 003 3h4a3 3 0 003-3V206h9.9a3 3 0 003-3v-4a3 3 0 00-3-3zm-15 9.5a4.5 4.5 0 110-9 4.5 4.5 0 010 9z" fill="#fff"/><path d="M223 182c7.4 6 10.8 15.8 8.4 24.8a23.6 23.6 0 01-22.1 17.9c-12.2 0-23.3-10.7-23.7-24.7a279.1 279.1 0 0037.3-18z"/><path d="M223.2 196h-10v-13.5a3 3 0 00-3-3h-4a3 3 0 00-3 3v13.6h-9.8a3 3 0 00-3 3v4a3 3 0 003 3h9.9v9.4a3 3 0 003 3h4a3 3 0 003-3V206h9.9a3 3 0 003-3v-4a3 3 0 00-3-3zm-15 9.5a4.5 4.5 0 110-9 4.5 4.5 0 010 9z" fill="#fff"/><circle cx="175" cy="213.3" r="3"/><path d="M134.3 107.5a7.5 7.5 0 01-3.4-.8 8 8 0 01-4-5.4c-.6-2.6 0-5.5 1.6-7.7l.1-.2a62 62 0 0146.4-22h.2a62 62 0 0146.2 22c2 2 2.8 4.7 2.5 7.4a7.3 7.3 0 01-3.2 5.3c-1 .7-2.3 1-3.7 1-2.3 0-4.6-.9-6.4-2.6-15.6-15.7-25.5-17.9-34-17.9h-1.4a45 45 0 00-33.9 17.5v.1l-.2.1a9.2 9.2 0 01-6.8 3.2z" fill="#fff"/><path d="M175 74.4h.2a59 59 0 0144 21c2.7 2.8 2 6.8 0 8.2-.7.4-1.4.6-2.2.6-1.4 0-3-.6-4.2-1.9-17.4-17.4-28.5-18.7-36.1-18.7h-1.5a47.7 47.7 0 00-36.3 18.7 6.3 6.3 0 01-4.6 2.2 4.5 4.5 0 01-2-.5c-2.6-1.3-3.7-5.5-1.4-8.7A59 59 0 01175 74.4m0-6a65.2 65.2 0 00-48.7 23.1l-.1.2-.1.1c-2.2 3-3 6.7-2.1 10.2a11 11 0 005.5 7.3 10.5 10.5 0 004.8 1.2c3.4 0 6.7-1.5 9-4.1l.3-.3.1-.2a41.9 41.9 0 0133-16.3c5.2 0 15 0 31.8 17 2.4 2.3 5.4 3.6 8.5 3.6 2 0 3.8-.5 5.4-1.6 2.4-1.6 4-4.3 4.5-7.5.4-3.5-.8-7-3.2-9.7a65.2 65.2 0 00-48.5-23h-.2z"/><path d="M236.2 95.7a8 8 0 01-6.2-3 71.5 71.5 0 00-54-27.4 65.8 65.8 0 00-1 0 72.7 72.7 0 00-55 27.3l-.1.1-.1.1a8.4 8.4 0 01-6.3 2.8c-2.1 0-4.2-.8-5.6-2.3a8 8 0 01-.6-10V83h.1A89 89 0 01176 50.2a89 89 0 0166.8 33.1l.1.1.1.2a8 8 0 01-2 10.5 7.8 7.8 0 01-4.7 1.5z" fill="#fff"/><path d="M175 53.3h.8a86 86 0 0164.5 32 5 5 0 01-1.2 6.5 4.8 4.8 0 01-2.9.9 5 5 0 01-3.9-1.9c-2.3-3-22-28-56.3-28.5a71.8 71.8 0 00-1 0c-35 0-55.3 25.7-57.4 28.5a5.4 5.4 0 01-4 1.8c-1.4 0-2.6-.4-3.5-1.3-1.5-1.6-1.7-4.3-.3-6.4a86.4 86.4 0 0165.1-31.6m0-6a92 92 0 00-69.8 33.9l-.2.2v.1c-3 4.4-2.7 10.2.9 13.9 2 2 4.8 3.2 7.7 3.2 3.3 0 6.4-1.4 8.5-3.8l.2-.2.1-.1A69.5 69.5 0 01176 68.3a68.4 68.4 0 0151.7 26.2 10.9 10.9 0 008.6 4.2 10.8 10.8 0 006.4-2.1 11 11 0 002.9-14.4l-.2-.4-.2-.2a92 92 0 00-69.2-34.3 78.3 78.3 0 00-1 0z"/><path d="M124.7 100.5a4.6 4.6 0 01-1-2v-.6a3 3 0 00-2-2.2c-.8-.3-1 .1-1.8 0-.7-.2-1.6-.7-2.6-2.7 2.2-3 21.4-28.5 55.9-29.3a74 74 0 0157.3 26.8c.2 3.4-.4 4.5-1.1 4.8-.5.2-1 0-1.6.4-.5.3-.7 1-1.1 2a14.1 14.1 0 00-.6 2 58.5 58.5 0 00-101.4.8z"/></g></switch></svg>