<svg xmlns="http://www.w3.org/2000/svg" viewBox="0 0 350 350"><switch><g><path fill="#fff" d="M60 60h230v230H60z"/><path fill="#231f20" d="M70 70h211v211H70z"/><path fill="#c79326" d="M79 79h192v192H79z"/><radialGradient id="a" cx="175" cy="175" r="96" gradientTransform="matrix(0 -1 1.2 0 -35 350)" gradientUnits="userSpaceOnUse"><stop offset="0" stop-color="#ffde50"/><stop offset="1" stop-color="#fff" stop-opacity="0"/></radialGradient><path fill="url(#a)" d="M79 79h192v192H79z"/><path fill="#231f20" d="M175 70a96 96 0 007 12c5 8 11 17 21 21l9 3a93 93 0 0116 8 74690 74690 0 01111-94l-26 55 17-13-29 49 18-12a953 953 0 01-45 67l2 31a169 169 0 00-27 12 118 118 0 00-21 14l22-12 16-7c0 1-26 9-47 31l-8 9a3383 3383 0 01-27 30h-18a283 283 0 00-28-31 282 282 0 00-14-12 619 619 0 01-35-25s27 17 28 16-6-7-14-12a83 83 0 00-30-12l2-33a1208 1208 0 01-44-66l18 12-29-49 17 13-26-55a2340 2340 0 00112 94 180 180 0 017-4c13-7 15-6 21-10 8-5 13-12 17-18a81 81 0 007-12z"/><path fill="#fff" d="M32 46a1278 1278 0 0086 70 56 56 0 00-12 28c-3 28 17 49 20 51l-1-16c-2-11-5-15-4-23l4-10a67 67 0 0114-18 321 321 0 0135 74 147 147 0 00-9-17 57 57 0 00-19-21l-8-2c-3 2-4 7-4 8v28a217 217 0 019 14 218 218 0 0117 36 186 186 0 00-32-29 187 187 0 00-49-25 85 85 0 0111-22 271 271 0 0143 40 187 187 0 00-15-19 116 116 0 00-25-23c-5-3-8-4-12-8a62 62 0 01-12-15l-15-27a532 532 0 0039 31v-7a155 155 0 01-10-7l-16-14a143 143 0 01-25-39 1199 1199 0 0052 41v-7a385 385 0 00-20-16c-11-8-18-12-24-21l-6-10a236 236 0 01-12-25zm286 0a1278 1278 0 01-86 70 56 56 0 0112 28c4 28-17 49-20 51l1-16c2-11 5-15 4-23l-4-10a67 67 0 00-14-18 276 276 0 00-34 74c2-4 20-37 30-39 1 0 5-1 7 1s2 5 2 6v28a217 217 0 00-9 14 218 218 0 00-17 36 186 186 0 0132-29 187 187 0 0149-25 85 85 0 00-11-22 271 271 0 00-43 40 187 187 0 0115-19 116 116 0 0125-23c5-3 8-4 12-8 5-4 8-8 12-15l15-27a532 532 0 01-39 31v-7a155 155 0 0010-7l16-14c14-14 23-34 25-39a1199 1199 0 01-52 41v-7a385 385 0 0120-16c11-8 18-12 24-21l6-10a236 236 0 0012-25zm-178 75a4 4 0 01-1-2 4 4 0 011-2 106 106 0 0022-19 106 106 0 0013-18 104 104 0 0014 19 105 105 0 0022 18l1 2-1 2a211 211 0 00-36 69 245 245 0 00-18-42 245 245 0 00-18-27z"/><path fill="#050708" d="M120 177a40 40 0 01-8-15 51 51 0 0110-40c0-1 2-2 2-5l1-4 15-8 3-1 8-4a35 35 0 003-2l-24 19a26 26 0 014 4 26 26 0 012 3 112 112 0 00-14 15c-7 9-7 13-7 15-1 3 0 6 1 10a71 71 0 004 13zm110 0a40 40 0 008-15c5-19-6-37-9-41l-3-4v-4a99 99 0 00-7-4l-9-4h-2l-1-1a27 27 0 01-4-1 25 25 0 01-2-1 33 33 0 01-2-1l22 15a26 26 0 00-5 5 26 26 0 00-1 3 112 112 0 0113 14c7 10 8 14 8 16l-1 10a71 71 0 01-5 13zm-87-6c-5 2-3 14-3 18 0 3 0 5 2 8a2412 2412 0 007 14l26 56c8-21 19-40 29-60 4-9 9-20 6-30-3-12-13 2-16 6-8 10-13 22-19 33l-15-28-7-10c-2-3-6-8-10-7z"/><path fill="#050708" d="M165 263a165 165 0 0110 16 172 172 0 0111-17 206 206 0 00-11 14 47 47 0 00-10-13z"/><path fill="#231f20" d="M175 174a1348 1348 0 01-2-44 861 861 0 012-42l1 13a483 483 0 010 58 3890 3890 0 01-1 15z"/><path fill="#fff" d="M157 186l-78 98h47z"/><path fill="#231f20" d="M150 199l-62 81h32z"/><g><path fill="#fff" d="M193 186l32 98h45l-77-98z"/><path fill="#231f20" d="M201 199l30 82h31z"/></g></g></switch></svg>