<svg xmlns="http://www.w3.org/2000/svg" viewBox="0 0 350 350"><switch><g><path fill="#fff" d="M60 60h230v230H60z"/><path fill="#231f20" d="M69.5 69.5h211v211h-211z"/><path fill="#c79326" d="M79 79h192v192H79z"/><radialGradient id="a" cx="175" cy="175" r="96" gradientTransform="matrix(0 -1 1.2 0 -35 350)" gradientUnits="userSpaceOnUse"><stop offset="0" stop-color="#ffde50"/><stop offset="1" stop-color="#fff" stop-opacity="0"/></radialGradient><path fill="url(#a)" d="M79 79h192v192H79z"/><path d="M175 69.5a96 96 0 007 12.5c5.2 7.9 11 16.6 21 21 3.3 1.5 3.2.8 9 3a93.3 93.3 0 0116 8 74690.3 74690.3 0 01111-94l-26 55 17-13-29 49 18-12a953 953 0 01-45 67l2 31a168.5 168.5 0 00-27 12 118.4 118.4 0 00-21 14c.2.3 8.3-5.2 22-12 9.8-5 15.9-7.2 16-7 .2.5-25.9 9-47 31l-8 9a3382.6 3382.6 0 01-27 30h-18a283.4 283.4 0 00-28-31 282.4 282.4 0 00-13.9-12.4A618.8 618.8 0 0189 206c.3-.5 27 17.3 28 16 .5-.7-6.5-7.1-14-12a83 83 0 00-30-12l2-33a1208.2 1208.2 0 01-44-66l18 12-29-49 17 13-26-55a2340.4 2340.4 0 00112 94 180 180 0 017-4c12.5-6.8 14.9-6.1 21-10 8.3-5.2 13-12.2 17-18a81.2 81.2 0 007-12.5z" fill="#231f20"/><path d="M32 46a1278 1278 0 0086 70 56.4 56.4 0 00-12 28c-3.5 28.4 17.4 48.6 20 51 .3-7-.4-12.5-1-16-2-10.8-5.4-15-4-23 .6-3.6 1.9-6 4-10a66.6 66.6 0 0114-18 321.1 321.1 0 0135 74 147 147 0 00-8.9-17 57 57 0 00-19.5-21c-2.5-1.5-5-2.5-7.3-1.6-3.6 1.5-4.2 6.8-4.3 7.6v28a216.5 216.5 0 019 14 217.9 217.9 0 0117 36 186.4 186.4 0 00-32-29 186.8 186.8 0 00-49-25 84.7 84.7 0 0111-22 271.3 271.3 0 0143 40 187.3 187.3 0 00-15-19 116 116 0 00-25-23c-5-3.2-7.5-4-12-8a62.4 62.4 0 01-12-15c-4.1-6.6-9.4-15.6-15-27a531.5 531.5 0 0039 31v-7a154.5 154.5 0 01-10-7s-9-6.9-16-14a143.2 143.2 0 01-25-39 1199.4 1199.4 0 0052 41v-7a385.4 385.4 0 00-20-16c-11.3-8.4-17.6-12.1-24-21-2-2.7-3.3-5.2-6-10a236 236 0 01-12-25zm286 0a1278 1278 0 01-86 70 56.4 56.4 0 0112 28c3.5 28.4-17.4 48.6-20 51-.3-7 .4-12.5 1-16 2-10.8 5.4-15 4-23-.6-3.6-1.9-6-4-10a66.6 66.6 0 00-14-18 275.5 275.5 0 00-34 74c2.1-4 19.5-36.7 29.7-38.8 1.6-.4 4.9-1 7.2.9 2 1.8 2.1 4.8 2.1 5.9v28a216.5 216.5 0 00-9 14 217.9 217.9 0 00-17 36 186.4 186.4 0 0132-29 186.8 186.8 0 0149-25 84.7 84.7 0 00-11-22 271.3 271.3 0 00-43 40 187.3 187.3 0 0115-19 116 116 0 0125-23c5-3.2 7.5-4 12-8 4.8-4.2 7.9-8.4 12-15s9.4-15.6 15-27a531.5 531.5 0 01-39 31v-7a154.5 154.5 0 0010-7s9-6.9 16-14c13.7-14 22.9-34.2 25-39a1199.4 1199.4 0 01-52 41v-7a385.4 385.4 0 0120-16c11.3-8.4 17.6-12.1 24-21 2-2.7 3.3-5.1 6-10a235.9 235.9 0 0012-25zm-178.5 74.8a3.5 3.5 0 01-.6-1.9 3.5 3.5 0 01.6-2A105.8 105.8 0 00162 98a105.6 105.6 0 0013-18 104.4 104.4 0 0014 19 104.5 104.5 0 0022 18c.1 0 1 .8 1 2 0 .1 0 1.3-1 2a211 211 0 00-36 69 245 245 0 00-18.3-42.2 244.7 244.7 0 00-17.2-27z" fill="#fff"/><path d="M120 177.4a40.4 40.4 0 01-7.6-15.5 51.3 51.3 0 019.1-40.3c.4-.4 2-1.9 2.8-4.4.6-1.7.5-3.3.4-4.2 8-4.6 12.5-6.8 15.2-7.9l2.7-1c5.6-2.4 7.4-3.5 8-3.9a34.5 34.5 0 003-2l-24 18.5a25.9 25.9 0 014.5 4.7 25.5 25.5 0 011.6 2.5 112.2 112.2 0 00-13.2 14.8c-7 9.4-7.6 13.5-7.8 15.6-.3 3.2.3 5.7 1.2 10.1a71 71 0 004.2 13zm110.4-.3a40.4 40.4 0 007.7-15.5c4.5-18.4-5.7-37-9-40.3-.5-.4-2-1.9-2.9-4.4-.6-1.7-.5-3.3-.4-4.3a99 99 0 00-6.8-3.6s-4.8-2.3-9.4-3.9l-1.5-.5-1.5-.4a26.8 26.8 0 01-3.6-1.2 24.9 24.9 0 01-2-1 33.2 33.2 0 01-2.4-1.4l22.3 15.7a25.9 25.9 0 00-4.5 4.8 25.5 25.5 0 00-1.5 2.5 112.2 112.2 0 0113.1 14.8c7 9.4 7.7 13.5 7.8 15.6.3 3.2-.2 5.7-1.2 10.1a71 71 0 01-4.2 13zm-87.2-6.2c-5 1.6-3.5 14-3.3 17.7.2 3.1.3 5.4 1.7 8.1a2412.4 2412.4 0 007.3 14.7c9 18.3 18.4 36.3 26.1 55.2 8.4-20.6 19-40 29-59.9 4.5-9 9-19.3 6.3-29.7-3-11.7-13.3 2-16.7 6.5-7.5 9.7-12.6 21.7-18.4 32.4-5.4-9.2-10-19-15.4-28.2-2-3.5-4.5-6.9-7-10-2-2.3-6-8-9.6-6.8z" fill="#050708"/><path d="M165.1 262.6a165.3 165.3 0 0110 16.8 171.8 171.8 0 0110.5-17.2 206.2 206.2 0 00-10.6 13.4 47 47 0 00-9.9-13z" fill="#050708"/><path d="M175.1 173.8a1348.4 1348.4 0 01-2.1-43.4 860.9 860.9 0 012.1-42l.8 12.6c1 15.4 1.4 23.1 1.4 29.4 0 3.8-.4 12-1.3 28.3a3889.9 3889.9 0 01-.9 15.1z" fill="#231f20"/><g><path fill="#fff" d="M157 185.5l-78.3 98.8h46.8z"/><path fill="#231f20" d="M149.8 199L88 280.4h32.4z"/></g><g><path d="M193 185.6l32.3 98h45l-77.3-98z" fill="#fff"/><path fill="#231f20" d="M200.5 198.8l30 81.7h31.3z"/></g></g></switch></svg>