<svg xmlns="http://www.w3.org/2000/svg" viewBox="0 0 350 350"><switch><g><path fill="#fff" d="M273 60.1h18v230h-18z"/><path d="M273 68.5h9v212h-9z"/><path d="M291 133.3l-18 5.4v4l18-6.8z"/><path fill="#fff" d="M251.5 60.1h20v230h-20z"/><path d="M251.5 68.5h20v9h-20zm0 203h20v9h-20z"/><linearGradient id="a" gradientUnits="userSpaceOnUse" x1="261.5" y1="77.5" x2="261.5" y2="271.5"><stop offset="0" stop-color="#fff"/><stop offset="1" stop-color="#c5cfd1"/></linearGradient><path fill="url(#a)" d="M251.5 77.5h20v194h-20z"/><path d="M251.5 144.9l20-5.5v4.5l-6 2.7a34.5 34.5 0 01-4.4 13 34.5 34.5 0 01-9.6 10.6v-25.3z"/><path fill="#fff" d="M230 56.8h20v230h-20z"/><path d="M230 66.9h20v9h-20zm0 201.3h20v9h-20z"/><linearGradient id="b" gradientUnits="userSpaceOnUse" x1="240" y1="75.9" x2="240" y2="268.2"><stop offset="0" stop-color="#fff"/><stop offset="1" stop-color="#c5cfd1"/></linearGradient><path fill="url(#b)" d="M230 75.9h20v192.3h-20z"/><path d="M230 146.5l20-5.3v27a34.8 34.8 0 01-6.8 4.1c-5.2 2.4-10 3-13.2 3.1v-28.9z"/><path fill="#fff" d="M208.5 56.8h20v230h-20z"/><path d="M208.5 66.9h20v9h-20zm0 201.3h20v9h-20z"/><linearGradient id="c" gradientUnits="userSpaceOnUse" x1="218.5" y1="75.9" x2="218.5" y2="268.2"><stop offset="0" stop-color="#fff"/><stop offset="1" stop-color="#c5cfd1"/></linearGradient><path fill="url(#c)" d="M208.5 75.9h20v192.3h-20z"/><path d="M208.5 152.2l20-5.7v29c-2.8.3-6.8.4-11.4-.6a35.1 35.1 0 01-8.6-3.1v-19.6z"/><path fill="#fff" d="M187 72.2h20v230h-20z"/><path d="M187 81h20v9h-20zm0 203.1h20v9h-20z"/><linearGradient id="d" gradientUnits="userSpaceOnUse" x1="197" y1="90" x2="197" y2="284.1"><stop offset="0" stop-color="#fff"/><stop offset="1" stop-color="#c5cfd1"/></linearGradient><path fill="url(#d)" d="M187 90h20v194.1h-20z"/><path d="M187 159.4l4.6 12.4L207 168v20.4a40.3 40.3 0 01-14-13.4l-6 2.5v-18.1z"/><g><path fill="#fff" d="M165.4 75h20v230h-20z"/><path d="M165.4 84.9h20v9h-20zm.2 202.1h20v9h-20z"/><linearGradient id="e" gradientUnits="userSpaceOnUse" x1="175.5" y1="93.9" x2="175.5" y2="287"><stop offset="0" stop-color="#fff"/><stop offset="1" stop-color="#c5cfd1"/></linearGradient><path fill="url(#e)" d="M165.4 93.9h20.2V287h-20.2z"/></g><g><path fill="#fff" d="M144 70.4h20v230h-20z"/><path d="M144 281.6h20v9h-20z"/><linearGradient id="f" gradientUnits="userSpaceOnUse" x1="154" y1="88.5" x2="154" y2="281.6"><stop offset="0" stop-color="#fff"/><stop offset="1" stop-color="#c5cfd1"/></linearGradient><path fill="url(#f)" d="M144 88.5h20v193.1h-20z"/><path d="M144 79.5h20v9h-20zm0 85.4l13.6 4.3 6.4-12.6v17.5l-6.1-2a23.3 23.3 0 01-3.8 7.4c-3.5 4.7-8 6.8-10.1 7.7v-22.3z"/></g><g><path fill="#fff" d="M122.6 63.4h20v230h-20z"/><path d="M122.6 72.3h20v9h-20zm0 202h20v9h-20z"/><linearGradient id="g" gradientUnits="userSpaceOnUse" x1="132.5" y1="81.3" x2="132.5" y2="274.3"><stop offset="0" stop-color="#fff"/><stop offset="1" stop-color="#c5cfd1"/></linearGradient><path fill="url(#g)" d="M122.4 81.3h20.2v193h-20.2z"/><path d="M122.4 152.1l20.2 5.2v21.6a107.2 107.2 0 01-20.2 1.4V152z"/></g><g><path fill="#fff" d="M101 60h20v230h-20z"/><path d="M101 69.6h20v9h-20zm0 203h20v9h-20z"/><linearGradient id="h" gradientUnits="userSpaceOnUse" x1="111" y1="78.6" x2="111" y2="272.6"><stop offset="0" stop-color="#fff"/><stop offset="1" stop-color="#c5cfd1"/></linearGradient><path fill="url(#h)" d="M101 78.6h20v194h-20z"/><path d="M101 144.9l20 5.6v28a39.6 39.6 0 01-12-2.9 39.5 39.5 0 01-8-4.3v-26.4z"/></g><g><path fill="#fff" d="M79.5 65h20v230h-20z"/><path d="M79.5 74h20v9h-20zm0 202.3h20v9h-20z"/><linearGradient id="i" gradientUnits="userSpaceOnUse" x1="89.5" y1="83.1" x2="89.5" y2="276.3"><stop offset="0" stop-color="#fff"/><stop offset="1" stop-color="#c5cfd1"/></linearGradient><path fill="url(#i)" d="M79.5 83h20v193.3h-20z"/><path d="M79.5 144.8l20 5.3v25.5c-2.8-1.8-9-6.4-12.3-14.6a29.5 29.5 0 01-2-8.9l-5.7-3v-4.3z"/></g><g><path fill="#fff" d="M60 60h18v230H60z"/><path d="M69 68.6h9v212h-9z"/><path d="M60 134.1l18 6.7v6.6l-18-11.5V134z"/></g></g></switch></svg>