<svg xmlns="http://www.w3.org/2000/svg" viewBox="0 0 350 350"><switch><g><path fill="#fff" d="M273 60h18v230h-18z"/><path d="M273 69h9v212h-9z"/><path d="M291 133l-18 6v4l18-7z"/><path fill="#fff" d="M252 60h20v230h-20z"/><path d="M252 69h20v9h-20zm0 203h20v9h-20z"/><linearGradient id="a" x1="261.5" x2="261.5" y1="77.5" y2="271.5" gradientUnits="userSpaceOnUse"><stop offset="0" stop-color="#fff"/><stop offset="1" stop-color="#c5cfd1"/></linearGradient><path fill="url(#a)" d="M252 78h20v194h-20z"/><path d="M252 145l20-6v5l-6 3a35 35 0 01-5 13 35 35 0 01-9 10v-25z"/><path fill="#fff" d="M230 57h20v230h-20z"/><path d="M230 67h20v9h-20zm0 201h20v9h-20z"/><linearGradient id="b" x1="240" x2="240" y1="75.9" y2="268.2" gradientUnits="userSpaceOnUse"><stop offset="0" stop-color="#fff"/><stop offset="1" stop-color="#c5cfd1"/></linearGradient><path fill="url(#b)" d="M230 76h20v192h-20z"/><path d="M230 147l20-6v27a35 35 0 01-7 4c-5 3-10 3-13 3v-29z"/><path fill="#fff" d="M209 57h20v230h-20z"/><path d="M209 67h20v9h-20zm0 201h20v9h-20z"/><linearGradient id="c" x1="218.5" x2="218.5" y1="75.9" y2="268.2" gradientUnits="userSpaceOnUse"><stop offset="0" stop-color="#fff"/><stop offset="1" stop-color="#c5cfd1"/></linearGradient><path fill="url(#c)" d="M209 76h20v192h-20z"/><path d="M209 152l20-6v30l-12-1a35 35 0 01-9-3v-20z"/><path fill="#fff" d="M187 72h20v230h-20z"/><path d="M187 81h20v9h-20zm0 203h20v9h-20z"/><linearGradient id="d" x1="197" x2="197" y1="90" y2="284.1" gradientUnits="userSpaceOnUse"><stop offset="0" stop-color="#fff"/><stop offset="1" stop-color="#c5cfd1"/></linearGradient><path fill="url(#d)" d="M187 90h20v194h-20z"/><path d="M187 159l5 13 15-4v20a40 40 0 01-14-13l-6 3v-19z"/><path fill="#fff" d="M165 75h20v230h-20z"/><path d="M165 85h20v9h-20zm1 202h20v9h-20z"/><linearGradient id="e" x1="175.5" x2="175.5" y1="93.9" y2="287" gradientUnits="userSpaceOnUse"><stop offset="0" stop-color="#fff"/><stop offset="1" stop-color="#c5cfd1"/></linearGradient><path fill="url(#e)" d="M165 94h21v193h-21z"/><path fill="#fff" d="M144 70h20v230h-20z"/><path d="M144 282h20v9h-20z"/><linearGradient id="f" x1="154" x2="154" y1="88.5" y2="281.6" gradientUnits="userSpaceOnUse"><stop offset="0" stop-color="#fff"/><stop offset="1" stop-color="#c5cfd1"/></linearGradient><path fill="url(#f)" d="M144 89h20v193h-20z"/><path d="M144 80h20v9h-20zm0 85l14 4 6-12v17l-6-2a23 23 0 01-4 8c-3 4-8 6-10 7v-22z"/><g><path fill="#fff" d="M123 63h20v230h-20z"/><path d="M123 72h20v9h-20zm0 202h20v9h-20z"/><linearGradient id="g" x1="132.5" x2="132.5" y1="81.3" y2="274.3" gradientUnits="userSpaceOnUse"><stop offset="0" stop-color="#fff"/><stop offset="1" stop-color="#c5cfd1"/></linearGradient><path fill="url(#g)" d="M122 81h21v193h-21z"/><path d="M122 152l21 5v22a107 107 0 01-21 1v-28z"/></g><g><path fill="#fff" d="M101 60h20v230h-20z"/><path d="M101 70h20v9h-20zm0 203h20v9h-20z"/><linearGradient id="h" x1="111" x2="111" y1="78.6" y2="272.6" gradientUnits="userSpaceOnUse"><stop offset="0" stop-color="#fff"/><stop offset="1" stop-color="#c5cfd1"/></linearGradient><path fill="url(#h)" d="M101 79h20v194h-20z"/><path d="M101 145l20 6v28a40 40 0 01-12-3 40 40 0 01-8-5v-26z"/></g><g><path fill="#fff" d="M80 65h20v230H80z"/><path d="M80 74h20v9H80zm0 202h20v9H80z"/><linearGradient id="i" x1="89.5" x2="89.5" y1="83.1" y2="276.3" gradientUnits="userSpaceOnUse"><stop offset="0" stop-color="#fff"/><stop offset="1" stop-color="#c5cfd1"/></linearGradient><path fill="url(#i)" d="M80 83h20v193H80z"/><path d="M80 145l20 5v26c-3-2-9-7-13-15a30 30 0 01-2-9l-5-3v-4z"/></g><g><path fill="#fff" d="M60 60h18v230H60z"/><path d="M69 69h9v212h-9z"/><path d="M60 134l18 7v6l-18-11v-2z"/></g></g></switch></svg>