<svg xmlns="http://www.w3.org/2000/svg" viewBox="0 0 350 350"><switch><g><path d="M298.5 251.6l-9.5 8.7-23 15 2.7-3.2a289 289 0 01-35.6 17.3c-13.3 5.3-21.4 8.6-33.4 10.4-10.6 1.6-20.4 1.5-20.4 2.2 0 .5 6.4 1 10 1a95.2 95.2 0 0015.1-.6h94.1v-50.8z" fill="#fff"/><path d="M289 292.8v-32.5l-4 2.5-3.9 2.6.1 20h-26.8a125.7 125.7 0 01-14 7.4H289z"/><path d="M254.4 285.3h26.8v-19.9l-7 4.6a91 91 0 01-19.8 15.3z" fill="#28c1cd"/><path d="M69.5 69.5h211v59.4a88.8 88.8 0 00-6.4-2.2 89.9 89.9 0 00-19.7-3.7l-1.2.2a84.4 84.4 0 0149.8 27.5c9.1 11 13 22.4 14.8 29.6a51 51 0 00-27.7-47.5V60H60V171a100.4 100.4 0 00-16.6 18 215.6 215.6 0 0110-10 149.3 149.3 0 0122.4-17.3 180.6 180.6 0 00-16 16.5c.3.3 5-4.6 12.8-10.3 8.3-6.1 15.5-10 19.5-12a135.2 135.2 0 0123-9.2l1.5-13.4a159.6 159.6 0 00-33.3 18.2 158.6 158.6 0 00-13.8 11.1V69.5z" fill="#fff"/><path d="M274.7 126.9l2.6.8a75.8 75.8 0 013.2 1.2V69.5h-211v93.2l9.5-7.4a117.8 117.8 0 012.7-2.4c25.2-21.5 53-26.8 78-31.2 0 0 38.8-6.8 90.5-.1 9.6 1.2 23.4 5 24.5 5.3z"/><path d="M79 155.3V79h192v46.8a109.5 109.5 0 00-22.4-3.3 11.9 11.9 0 002 1.3 55.2 55.2 0 01-2-.2c-2.9-.4-5-.9-5.2-1-4-.8-81.5-9-126.8 10.8-12 5.2-22.9 11.9-22.9 11.9a185.8 185.8 0 00-14.7 10z" fill="#28c1cd"/><g fill="#0395a8"><path d="M79 155.3v-9.6a36.1 36.1 0 014.4-3.3c3.2-2 5.6-2.7 5.6-4.2 0-1.2-1.5-2.1-1.2-2.7.3-.4 1.2 0 1.4-.4.4-.7-2.2-2.5-2-3l1.7.5c1.4.5 1.5.7 2.2 1 1.3.3 2.3 0 2.3.2s-.8.3-1.7 1.1l-.5.6 2.6-1.5.8-.5c1.6-1 2.4-.2 3.8-.9 1-.5.8-1 2-1.6.9-.5 1.5-.4 2.2-.5 1-.2 2.4-.8 4-3a74.4 74.4 0 00-7.9-.2 33.1 33.1 0 00-19.7 5v-2a8.2 8.2 0 003-1.8 8.4 8.4 0 002.3-4.6c.1.5.3 1.6 1.2 2 1 .7 2.2.2 2.8 0l11.6-4.7c6.9-2.6 13.2-.6 13.3-1.6 0-.4-.8-.7-2.2-1.3-1.7-.8-5.4-2.3-9.5-1a11 11 0 00-2 .8 1.9 1.9 0 010-1s.2-.7 1-1.2c1-.6 8.5-3.4 18.8-6.8 82-8.5 110-9.8 115.4-8.4.6.1 6.9 1.8 7.6.2.4-.7-.5-1.9-.6-2.1-1-1.6-3-2-2.8-2.2 0-.3 1.5.2 1.7-.1.2-.4-1.5-1.6-1.3-1.8.1-.2 1.4.6 3.3 1.2 1.3.3 2 .5 2.5.1.8-.6.3-2.2.2-2.4a54.3 54.3 0 003 2.2l2.2 1.4c1.4.7 1.8.5 3.4 1.1.8.3 2.3.9 3.7 2 1.8 1.3 2.4 2.6 2.8 2.4.2 0 .4-.5 0-2 1.8 0 3 .1 4 .4 2 .5 3.3 1.3 5.8 1.4h.8v3.1a14.8 14.8 0 00-3.8 0l-3.5 1c-3.5 1-5 .7-5.2 1.4-.1.6 1.1 1 3.2 3.1a22.3 22.3 0 011.4 1.7 5 5 0 01-1.6 1c-2.3 1-4.7-.1-6.1-.8-1-.4-.8-.5-2.8-1.5a64.2 64.2 0 00-3.4-1.7 8.4 8.4 0 012.5.4c1.5.4 2.1 1 2.5.8.3-.2.5-1-.6-3.9a21.1 21.1 0 00-2.3-.7c-5-1.1-9.6-.2-12.6.8 1.5 2.6 3.8 5.5 7.4 7 2.4 1 4.7 1 4.7 1.1 0 .2-2.6.2-12.9-.5l-93.8 2.3a234.7 234.7 0 01-27.5 16.3c-8.2 4-16.3 7.5-27.4 14.7a176 176 0 00-10.2 7.2zm179.9-58.6c1.4 0 2.3.4 2.9.8.5.5.8 1 1.2.8.5 0 .9-1.2.5-1.8-.3-.4-1-.4-1.7-.4a7.9 7.9 0 00-3 .6zm12.1 14.6a4.5 4.5 0 00-1-.4 5 5 0 00-3 0c0 .9.3 1.3.5 1.5.7.7 1.8.4 2.8 1.2l.7 1v-3.3zm-3.8 6.4a7.1 7.1 0 00-.2 2c0 1.4.5 2 .2 2.3-.5.4-2.5 0-2.9-1.4-.3-.9.4-1.8.5-2 .9-1 2.3-.9 2.4-.9zm-12.6 1.6c.4-.1 1.7-.3 3 .5a4.3 4.3 0 011.6 1.7c-3.3-.9-5-1.5-4.9-2 0 0 .1-.2.3-.2z"/><path d="M236.4 96a18.3 18.3 0 00-8.2-1h-.5c0 .1 2.9.5 8.7 1z"/></g><g><path d="M199 244.6l-23 37.6c70.7-24.7 112.5-62.3 108.2-92.4-2.7-18.8-22.5-30-29-33.7-67.3-37.9-190 24.9-191.7 75.6a42.2 42.2 0 008.9 25.7c17.6 23.5 56.8 23 81 16.1 21-6 36-18.5 45.6-29z" fill="#28c1cd"/><path d="M178.2 259.7a130.8 130.8 0 01-44 8.4 66 66 0 01-31.5-5.7 55.2 55.2 0 01-10.2-6.6 67.9 67.9 0 0012.8 5.5 58.2 58.2 0 0019.2 3c0-.2-7.5-.4-17.5-4a48 48 0 01-15-7.5c-3.3-2.6-10-7.8-12-16.6a23.8 23.8 0 01-.5-6.7c.5 3.8 1.8 8.6 4.9 13.4 6.4 10 16.8 13.7 25 16.6a60 60 0 0026.6 3c0-.3-6.7 0-16-1.9-7.6-1.5-13.1-3.6-13-3.8 0-.1 4.8 1.4 12 2.5l6.8.8-6.5-1.3c-6-1.2-18-3.7-27.2-12.1-3.2-2.9-5-5.5-5.1-5.4-.1 0 2.9 4.5 7.7 8.5 2.8 2.3 4.8 3.4 4.8 3.4s-8.8-3.3-14.2-11.3c-4.6-6.9-4.6-14-4.6-15.5a27 27 0 013.7-13c0 .8.1 1.9 0 3.2 0 3.4-.6 4-1 7.6-.8 5.2-.1 8.5.4 10.3l.1.4a24.4 24.4 0 003.1 6.4 21.6 21.6 0 01-2-4.7s-.6-2-.8-4.2c-.4-3.3.5-11.9 2.8-23 15-11.4 28.7-18.7 38.4-23.2A230.4 230.4 0 01244.8 167c-.5.5-1.5 1.4-1.3 2.5 0 1.1 1.4 1.8 2.2 2.3 0 0 5 2.6 9.6 6.4 1.7 1.4 2.7 2.6 4.2 4.4 2.5 3 8.5 10.3 8.6 19.2 0 5-1.8 5.4-3.1 12.9-1.1 6.2-.8 11.5-.3 15.1l2.2-1.4a47 47 0 01.3-14.8c1.3-7.2 3.1-7 3.4-11.2.9-14.4-20-28.9-22.6-30.4-.4-.3-2.8-1.6-2.6-2.1.1-.2.4-.2.6-.2a45.2 45.2 0 0112 6.7 46 46 0 0113.6 17.6c.3 1.7.7 4.4.6 7.6-.1 4.8-1.3 7.7-2.1 11.4-.7 3.2-1.4 8-.7 14.3l27.5-16.7c.4-8.7 0-29-13.3-46.4-17-22.2-43.9-25.3-61.3-27.3-50-5.8-88.7 17.9-111.2 31.6-28.4 17.4-59.7 36.5-59.3 64.7.2 17.5 12.6 31.3 21.2 39 19.7 4.5 35.8 5.5 47.1 5.6 11.7 0 18.5-1 23-1.8a104.6 104.6 0 0026-8.7l9-7.5z" fill="#0395a8"/><g fill="#fff"><path d="M86.3 281.8c-.4 0-.8.5-.7.8.1.4 1 .5 1.5.4.2-.1.5-.2.6-.4 0-.3-.7-1-1.4-.8zm31.8-2.1s.5.5.4 1c-.2.8-1.3 1-1.4 1-1 .1-1.7-.6-1.8-.7 1.2.1 1.7-.1 1.8-.4.2-.2.1-.5.4-.8a1 1 0 01.6-.1zm.5 1.8c.4.3 1 .3 1.3 0 .2-.4.2-.8 0-1.1a6.6 6.6 0 01-.4.2l-.6.4-.3.5zM76 278.9c-.1 0-.6.3-.6.5s.4.3.5.2c.3-.2.3-.6.1-.7zm-36.3-34.1a3.6 3.6 0 00-.6 1.8 3.6 3.6 0 00.6 2c0-.6.2-1 .3-1.4.3-.7.5-1.1.3-1.5-.1 0-.2 0-.4-.3a1.5 1.5 0 01-.2-.6zm.1 4a.7.7 0 000 .4.8.8 0 00.5.4 1.8 1.8 0 00-.5-.8z"/><path d="M285.7 154.6a88.8 88.8 0 00-44.3-22c-55-12.1-104.6 14.1-134 29.7-11.6 6-18.5 11.2-32.2 21.2a104.5 104.5 0 00-22.5 22.2 113.8 113.8 0 00-3.9 5.4c1.3.5 1.5.8 1.5 1 0 .5-2.6 0-4.2 1.4-.7.7-.3.8-1.3 2.7-1.5 2.8-2.7 3-2.8 4.7 0 .6 0 1.3-.4 1.5-.5.3-1.2-.1-1.3.1-.2.2.5.6.8 1.5.2.4.3 1.2 0 1.5-.3.2-.7-.2-1 0-.6.4 1 3 .2 3.7-.4.4-1.1-.1-1.4.3-.7.7 1.3 3.4.7 4-.3.2-.9-.2-1 0-.2.4 1 1 1.3 2.4v2c-.3 2-.4 3 0 3.4.5.8 1.4.6 1.7 1.5.2.4.1 1-.1 1-.4.3-1.3-1.2-1.6-1-.2 0 0 .8.2 1.4.4 1.2 1 1.3 1.5 2.2.7 1.4.7 3.1.1 3.5-.2.1-.6-.2-.7 0-.2.3 0 1 .6 1.3.6.3 1-.2 1.4.1.3.3.3 1 0 1.3-.2.4-.6.5-.6.6 0 .2 1 0 1.6.5.3.2.2.5.5 1.2.4.7.6.6 1.5 1.7.7 1 .7 1.2 1.2 1.5.6.3.8 0 1.2.4.6.4.4 1.1.7 2.4.2.6.7 2.3 2 2.7.7.2 1.3-.1 1.7.3.2.3 0 .6.3 1 .4.4.8.3 1.2.6.6.4.4 1 1 2.6.4 1 .7 1.4 1 1.5.4.2.7.1 1 .1 1.6-.1 3 .3 3.9.7.8.4 1.5 1.1 1.4 1.3 0 .3-1.2 0-2-.3-1.3-.4-1.8-.7-2-.5 0 .1.3.6.8 1l1.3.4c.6.3.5.5 1 .7.6.3.9 0 2 .2.7.1 1.5.4 1.5.5 0 .2-1.7 0-1.7.2 0 .1.7.4 1.6.5.8.2 1 0 1.3.2.8.2.7 1 1.4 1.7.5.4 1.1.6 2.4 1 .8.2 1.6.4 2.8.5.9 0 1.5-.1 1.6.1.1.3-.7.6-.6 1 0 .3 1 .5 1.4.2.4-.4.1-1.3.6-1.5h.6c.3.4.3 1 0 1.4-.1.5-.5.6-.5.7.1.2 1 .3 1.3-.1.3-.4 0-1 .2-1s.4.6 1 1c.5.3 1.2.3 1.4 0 .2-.2-.1-.6 0-.7.1 0 .5.3.6.6.1.4-.1.7 0 .8.2.2 1.3-.8 1.5-.6l-.4 1.2 1.1.6c.6.1 1 .3 1.6.1.7-.3.7-1.2 1.8-1.8.1 0 .3 0 .4-.2a5.6 5.6 0 012-.3 17.4 17.4 0 00-1.2 2.2c.5.2 1.1.4 1.6 0 .4-.2.4-.6.8-1 .7-.8 1.9-1 2.3-.7v.6l-1.3.7-1 .8c0 .1 0 1.1.8 1.8a2 2 0 002.1.3c.7-.3 1-1 1-1.1-.7.4-1.5.3-1.8-.1l-.2-.6c.8-.2 1.4-.5 1.7-.7.4-.3.7-.7 1.4-.8.5-.2.6 0 .7 0l.1.6c0 .9-.5 1.1-.4 1.5.2.5 1.3.8 2.1.6.7 0 .7-.4 1.2-.4.6 0 .8.4 1.6.6l1 .1-.5-3.5c1.1-.4 1.9-.2 2.2-.1.5.1 1 .4 1 .6 0 .2-.5.1-.8.5-.2.4-.2.9 0 1.2.4.7 1.6.7 2 .2.2-.1.1-.2.3-.4.5-.6 1.2-.2 1.8-.6.5-.3.4-.7.8-1.1.6-.8 1.9-.7 3-.6l5.8.5a5.6 5.6 0 00-1-1.3 175.7 175.7 0 0014.3-.5 2.3 2.3 0 01-.9-1 2.2 2.2 0 01-.2-.3 85.7 85.7 0 0016.5-2.2 85.6 85.6 0 0011.9-3.7 115.1 115.1 0 01-38.9 1.8c-14.7-1.9-31.4-4-42-17.4-2.5-3-7.3-10-8.2-19.6-1.7-16.4 8.8-28.9 14.4-35.5 4.8-5.7 13.6-14.4 39.5-26.2 16.9-7.8 43.9-19.8 81.6-22.3 28.8-2 40.8 3.3 44.3 5 6.2 2.8 24.5 11.4 29 29.9 3.8 15.2-4 28.7-7.5 35-6 10.3-13.4 16.1-21.6 22.5-7.4 5.9-14.4 9.6-28.5 17-10.3 5.6-18.3 9.8-30 14.4-5.4 2.2-14.4 5.7-26.5 8.7-14 3.5-24 4.4-24 5.2a183.6 183.6 0 0049.8-4.3c20.3-4.8 33.7-11.8 33.8-11.4.1.2-9.8 5-22.9 9.7-10.3 3.6-17.8 5.4-17.7 5.6 0 .2 13-2.2 27.7-7 26.5-8.8 44.5-21 55.2-28.4 13.3-9 20-15.6 24.5-20.7a115.5 115.5 0 0010.1-13.1 304 304 0 01-9.7 10.7 51.6 51.6 0 01-5.7 5.5c-.4-.3 11.1-10.2 17.4-26.2 1.5-3.8 3.7-9.2 4-15.9 1-19.7-14.6-34.9-19.7-39.8zM54.6 205.9a34.7 34.7 0 00-1.9 3.4c-1 .6-1.8 1.1-2 1-.4-.5 2.1-3.5 2.8-4.3a47.4 47.4 0 014.8-5 34.7 34.7 0 00-3.7 5zm70 71.6l1.6.1a31 31 0 01-6.5-.1 31.4 31.4 0 01-1.5-.3 46.9 46.9 0 016.4.3z"/><path d="M121.6 279.7l.6.5c.6.4 1.3 0 1.4 0a2 2 0 00-1.3-.6 2 2 0 00-.7 0zm7.6-5.7c1-1 1.7-1.1 2.1-1 .8 0 1.3.9 2 .7.3 0 .3-.2.6-.4.8-.4 1.3 0 2.2-.2 1-.2 1.4-.8 1.4-.7 0 0-.2.4-1.6 1.7h-6.7zm13.5-.2c.4-.2.8-.5.8-.9 0-.5-.7-.8-.6-1 .1-.3 1-.4 1.7 0 .5.4.6 1.2.4 2l-2.3-.1zm-2.4.2c-.5-.1-1.3-.4-1.3-.7 0-.2 1-.5 1.7-.3.7.3 1 .9 1.1 1a3.9 3.9 0 01-1.5 0z"/><path d="M145 271.9c-.2 0-.2.3-.2.4.3.5 1.8.3 1.8 0 0-.2-1.3-.8-1.7-.4zm6.2.8c.2.2 1 1 2.2 1 .8 0 1.6-.2 1.6-.4s-.7-.4-3.8-.6z"/></g></g><g><g fill="#fff"><path d="M272 185l-4.3 13.6c0-.3 0-1.3.3-2.7.5-2.5 1.4-4.3 1.6-4.8.9-1.8 1.8-5 2.2-11.3a35 35 0 00-6.2-10.1 270.6 270.6 0 00-8.7 6.4c-5.6 4.3-10 8-10.6 7.4-.3-.3.6-1.4 1.4-4 .5-1.7.7-3.2.8-4.2l.2-29-1.9-7.6L243 127l3.6-13.5-18.9-19.9a35.3 35.3 0 00-5.2-1 18 18 0 00-7.7.2l-.6.2c-.7.2-.9.1-1 0-.1 0-.3 0-.4-.4a147.6 147.6 0 00-15.9-2.2l.3.5c0 .1-.4.2-.8 0l-1.8-9.1 1.3-1.6c.6-.7.9-1.3 1-1.2.3 0 0 1.3.3 1.4.3 0 1-.6 1.3-1.4.6-1.2.4-1.9 1-3 .3-.8.7-1.2 1.1-1.6 1-1.1 1.2-2.3 2-6.4l.9-6-5.8-5.8-.7-9.2-12.7-11.5a36.3 36.3 0 00-18.6 0l-11 10.7-1.2 8.4a89.9 89.9 0 01-5.8 5.8 154.2 154.2 0 008.7 18.6 133.7 133.7 0 01-2.3 11.5 259.9 259.9 0 01-33.3 3.1l-18.1 19.7 4.8 13.6a55.7 55.7 0 00-6.4 20.1L101 167a20.7 20.7 0 01-1.9 11.9l-15.6-11.6c-5.6 7.4-6.4 13-6 16.9 0 .8.8 4 2.3 10.2l2.2 9.9c.4 2 .8 3.4 1 5.4 0 2.3-.2 2.7 0 4.8a35 35 0 001.2 5.2 99 99 0 001.4 4.7c4.8 2 7.7 4 9.4 5.6l3.6 3c1.8 1.5 4.3 3.3 4.4 3.1l-1-1.2-2.9-3.4 1.2 1c.5.3 2 1.5 3.5 2.3a35.4 35.4 0 0110 5.7c5 3.5 7.6 5.3 7.5 5.4-.3.5-11.6-5.9-11.7-5.7 0 .1 6.8 4.1 6.7 4.3l-.8-.3 3.7 2.3a506.2 506.2 0 016 3.5 2 2 0 00.2 1 316 316 0 0010.6 4.6c2.8 1.1 4 1.6 5.9 2.6 2.7 1.6 4 2.8 7 5.4 4.7 3.9 9.3 7.4 9.4 7.2a74 74 0 00-5.6-5.1c-5.7-5-9.3-7.7-9.2-7.8 0-.1 10.3 6.9 21.8 17a246.5 246.5 0 019.4 8.5 338.7 338.7 0 006.9-6.3c3.7-3.5 4.5-4.4 6.6-6l6.8-4.3 7.8-5c3.5-2.5 5.2-3.7 6-4.5 1.2-1.2 2.8-2 4.2-3 .3-.2 1.1-1 1.8-.7.3.1.4.4.7.4.5.1 1-1 1.6-1.8.6-.6 1.2-1 2.5-1.7 3.1-1.9 9.7-4.3 14.3-7 6.1-3.5 7.7-6.8 11.8-7.9 0 0 2.2-.6 4.7-2 .2 0 2.7-1.3 2.6-1.7-.2-.4-3.2.5-3.3.3 0-.2 1-.7 1.7-1 3-1.4 3.8-2.8 6.4-4.7 1.2-.9 3-2 5.6-3.1a6 6 0 00.6-2c.6-2.2 1-3.2 1.1-3.2.2 0-.2 2-1 6l-8.2 6 9.3-5.8.8-5.2c0-.3 0-1 .5-1.8l.5-1 1.2-1.6v-12.5c1-5.2 2.2-8 3-9.8.3-.4 1-1.6 1.2-3.4.3-1.6 0-3-.3-4zM84 170l-.8 1.5-1.5 2.9-2.3 4.1a45.7 45.7 0 014.3-9.3A5.4 5.4 0 0187 172a4719.3 4719.3 0 01-3-1.8zM191.7 43.5l4.5 4.5a256.6 256.6 0 00.3 7.7l-.9-3.6-.1-4-1-1.3a368.2 368.2 0 01-2.8-3.3z"/><path d="M105.8 125.8c-.2 0-1.8-3.8-3.4-8a124.7 124.7 0 01-1.6-4.7A131 131 0 01115 98.8c.1 0-4.5 4.3-11.4 12.5l-1.7 2 1.2 3.8 2.7 8.7zm10.3-29a116.7 116.7 0 014.8-5h15.6a120.9 120.9 0 01-15.5.7 43.6 43.6 0 01-4.9 4.2zm27.4-5.6a71.8 71.8 0 008.9-2.1c.9-2 1.8-4.7 1.8-8a17.8 17.8 0 000-2c.3.5.8 1.2 1 2 .4 1.6-.5 2.8-1.1 5.5a24 24 0 00-.6 3 88.9 88.9 0 01-10 1.6z"/></g><path d="M263.7 176.5L214 211.7l21.9-22.6c1.7-1.5 5-4.6 6.7-9.7a22 22 0 001.3-7v-28.6l-6.5-17 4-12.2L225.3 99a257.5 257.5 0 01-34-3.5l-2.7-17 7.9-16.1-5-5-1-9.3a145.7 145.7 0 00-8.7-8.5 35 35 0 00-13.8 0 57.7 57.7 0 00-8.9 8.8l-1.5 9.1-4.7 3.8 8.4 17.7-3 15.7a126.6 126.6 0 01-34.9 4l-15 16.1 3.7 11.6-6.7 17.2v31.6c0 .4 0 1 .2 1.6.5 3 2 5.2 5.4 9.3a115.3 115.3 0 006.3 6.9l18.6 19.2L85.8 177l-2.4 3.8a538352.8 538352.8 0 019 38.6 2870.3 2870.3 0 0165.4 41.4l17.2 16.1 18.7-17.9 63.8-40 8.5-38.4-2.3-4zm-115.2 19.7c-.7.2-2-.2-9-11.3a282.9 282.9 0 01-7.8-13 358 358 0 002.4-13 87.4 87.4 0 001.8-16.5l-1-10.3-1.1-9.3 8.2 20.8c4 10.1 5.4 13.2 6.7 18.9a80.4 80.4 0 012 16.7c.2 6.6.4 16.4-2.2 17zm52.5 0c-2.6-.6-2.3-10.4-2.1-17 0-4 .3-9.5 2-16.7 1.2-5.7 2.6-8.8 6.7-19a1861.4 1861.4 0 008.2-20.7 561.6 561.6 0 00-2.1 19.6c0 1.3-.1 4.7 1.8 16.4a355.8 355.8 0 002.3 13.2 282.9 282.9 0 01-7.7 12.9c-7 11.1-8.4 11.5-9 11.3z"/></g></g></switch></svg>