<svg xmlns="http://www.w3.org/2000/svg" viewBox="0 0 350 350"><switch><g><path fill="#fff" d="M299 252l-10 8-23 15 3-3a289 289 0 01-36 17c-13 6-21 9-33 11l-21 2 10 1a95 95 0 0015-1h94v-50z"/><path d="M289 293v-33l-4 3-4 2v20h-27a126 126 0 01-14 8h49z"/><path fill="#28c1cd" d="M254 285h27v-20l-7 5a91 91 0 01-20 15z"/><path fill="#fff" d="M70 70h211v59a89 89 0 00-7-2 90 90 0 00-20-4h-1a84 84 0 0150 28c9 11 13 22 15 29a51 51 0 00-28-47V60H60v111a100 100 0 00-17 18 216 216 0 0110-10 149 149 0 0123-17 181 181 0 00-16 16l13-10 19-12a135 135 0 0123-9l2-14a160 160 0 00-34 18 159 159 0 00-14 12V70z"/><path d="M275 127l2 1a76 76 0 014 1V70H70v93l9-8a118 118 0 013-2c25-22 53-27 78-31 0 0 38-7 90 0l25 5z"/><path fill="#28c1cd" d="M79 155V79h192v47a110 110 0 00-22-4 12 12 0 002 2 55 55 0 01-2 0l-6-1c-4-1-81-9-126 10l-23 12a186 186 0 00-15 10z"/><g fill="#0395a8"><path d="M79 155v-9a36 36 0 014-4c4-2 6-2 6-4l-1-2 1-1c1-1-2-2-2-3l2 1 2 1h2l-1 1-1 1 3-2h1l3-1 2-2h3l4-3a74 74 0 00-8-1 33 33 0 00-20 5v-2a8 8 0 003-1 8 8 0 002-5l1 2h3l12-5c7-2 13 0 13-1l-2-2c-2 0-5-2-10-1a11 11 0 00-2 1 2 2 0 010-1l1-1 19-7c82-8 110-10 116-8 0 0 7 2 7 0v-2c-1-2-3-2-3-2h2l-2-2 4 1h2v-2a54 54 0 003 2l2 1 4 1 4 2 2 3v-2h4l6 2h1v3a15 15 0 00-4 0l-3 1-6 1 4 3a22 22 0 011 2 5 5 0 01-2 1c-2 1-4 0-6-1l-2-1a64 64 0 00-4-2 8 8 0 013 0l2 1v-4a21 21 0 00-3-1c-5-1-9 0-12 1 1 3 3 6 7 7l5 1h-13l-94 2a235 235 0 01-27 16l-28 15a176 176 0 00-10 7zm180-58l3 1h1v-1l-1-1a8 8 0 00-3 1zm12 14a5 5 0 00-1 0 5 5 0 00-3 0l1 1 2 2 1 1v-4zm-4 7a7 7 0 000 2v2l-3-1 1-2 2-1zm-12 1l3 1a4 4 0 011 2l-5-2 1-1z"/><path d="M236 96a18 18 0 00-8-1l8 1z"/></g><path fill="#28c1cd" d="M199 245l-23 37c71-25 113-62 108-92-3-19-22-30-29-34-67-38-190 25-191 76a42 42 0 008 25c18 24 57 23 81 16 21-5 36-18 46-28z"/><path fill="#0395a8" d="M178 260a131 131 0 01-44 8 66 66 0 01-31-6 55 55 0 01-11-6 68 68 0 0013 5 58 58 0 0019 3s-7 0-17-4a48 48 0 01-15-7c-3-3-10-8-12-17a24 24 0 01-1-7c1 4 2 9 5 14 7 10 17 14 25 16a60 60 0 0027 4l-16-2-13-4 12 2 7 1-7-1c-6-1-18-4-27-12l-5-6a39 39 0 0013 12s-9-3-15-11c-4-7-4-14-4-16a27 27 0 013-13v4l-1 7 1 10v1a24 24 0 003 6 22 22 0 01-2-4l-1-5 3-23c15-11 29-18 38-23a230 230 0 01120-19c-1 1-2 1-1 3l2 2s5 2 9 6l4 5c3 3 9 10 9 19 0 5-2 5-3 13v15l2-2a47 47 0 010-14c1-8 3-7 4-12 0-14-20-28-23-30l-3-2h1a45 45 0 0112 6 46 46 0 0114 18v8l-2 11-1 14 28-16c0-9 0-29-13-47-17-22-44-25-62-27-50-6-88 18-111 32-28 17-60 36-59 64 0 18 12 31 21 39a218 218 0 0070 4 105 105 0 0026-9l9-7z"/><g fill="#fff"><path d="M86 282v1h2l-2-1zm32-2v1l-1 1-2-1h2v-1a1 1 0 011 0zm1 1l1 1v-2a7 7 0 01-1 1zm-43-2h-1l1 1v-1zm-36-34a4 4 0 00-1 2 4 4 0 001 2v-2-1-1zm0 4a1 1 0 000 1 2 2 0 000-1z"/><path d="M286 155a89 89 0 00-45-22c-55-13-104 14-134 29-11 6-18 11-32 21a105 105 0 00-22 23 114 114 0 00-4 5l1 1-4 1-1 3c-2 3-3 3-3 5v1h-2l1 2v1h-1v4h-1c-1 1 1 4 1 4h-1c-1 1 1 1 1 3v5l2 2-1 1-1-1v1l2 2v4h-1l1 1h1v2h-1l2 1v1l2 2 1 1h1l1 3 2 3h2v1h1l1 3 1 2h5l2 2-2-1h-2v1h2l1 1h2l1 1h-2 2l1 1 2 1 2 1 3 1h2l-1 1h1l1-1h1v1l-1 1h1l1-1 1 1h1v-1h1v1h1v1h1l1 1 2-2h1a6 6 0 012-1 17 17 0 00-2 2h2l1-1h2l-1 1-1 1 1 2a2 2 0 002 0l1-1h-2v-1l1-1h2c0-1 0 0 0 0h1l-1 2h3l2 1h1v-4h2l1 1h-1v1l2 1v-1h2l1-2h9a6 6 0 00-1-1 176 176 0 0014 0 2 2 0 01-1-1 2 2 0 010-1 86 86 0 0016-2 86 86 0 0012-4 115 115 0 01-39 2c-14-2-31-4-42-17-2-3-7-10-8-20-2-16 9-29 15-35 4-6 13-15 39-27 17-7 44-19 82-22 28-2 40 3 44 5 6 3 24 12 29 30 4 15-4 29-8 35-6 10-13 16-21 23l-29 17a245 245 0 01-56 23l-24 5a184 184 0 0050-4c20-5 33-12 33-12l-22 10-18 5a209 209 0 00107-56 116 116 0 0010-13 304 304 0 01-9 11 52 52 0 01-6 5s11-10 17-26c2-4 4-9 4-16 1-19-14-35-19-39zM55 206a35 35 0 00-2 3l-2 1 2-4a47 47 0 015-5 35 35 0 00-3 5zm70 72h1a31 31 0 01-6 0 31 31 0 01-2-1 47 47 0 017 0z"/><path d="M122 280h2a2 2 0 00-2 0zm7-6l2-1 2 1 1-1h2l1-1-1 2h-7zm14 0v-1-1h2v2h-2zm-3 0l-1-1h2l1 1a4 4 0 01-2 0zM145 272h0zm6 1l2 1 2-1h-4z"/></g><g><g fill="#fff"><path d="M272 185l-4 14v-3l2-5 2-11a35 35 0 00-6-10 271 271 0 00-9 6c-6 4-10 8-11 7l2-3 1-5v-29l-2-7-4-12 4-13-19-20a35 35 0 00-6-1 18 18 0 00-7 0h-1-1a148 148 0 00-16-3v1h-1l-1-9 1-2 1-1v1l2-1 1-3 1-2 2-6 1-6-6-6-1-9-13-11a36 36 0 00-18 0l-11 10-1 9a90 90 0 01-6 5 154 154 0 008 19 134 134 0 01-2 12 260 260 0 01-33 3l-18 19 5 14a56 56 0 00-7 20v20a21 21 0 01-2 12l-16-12c-5 8-6 13-5 17l2 10 2 10 1 6v5a35 35 0 001 5 99 99 0 002 4l9 6 4 3 4 3-1-1-3-3 1 1 4 2a35 35 0 0110 6l7 5-11-6 6 5v-1l3 3a506 506 0 016 3 2 2 0 000 1 316 316 0 0011 5l6 2 7 6 9 7a74 74 0 00-5-5l-9-8 21 17a247 247 0 0110 8 339 339 0 007-6l6-6 7-4 8-5 6-5 4-3h3l1-2 3-2 14-7c6-3 8-6 12-7l4-2 3-2h-3l1-1 7-5 5-3a6 6 0 001-2l1-3-1 6-8 6 9-6 1-5 1-2v-1l1-1v-13l3-9 1-4v-4zM84 170l-1 2-1 2-3 5a46 46 0 015-10 5 5 0 013 3 4719 4719 0 01-3-2zM192 44l4 4a257 257 0 000 8v-4l-1-4v-1a368 368 0 01-3-3z"/><path d="M106 126l-4-8a125 125 0 01-1-5 131 131 0 0114-14l-11 12-2 2 1 4 3 9zm10-29a117 117 0 015-5h15a121 121 0 01-15 0 44 44 0 01-5 5zm27-6a72 72 0 009-2l2-8a18 18 0 000-2l1 2c1 2 0 3-1 6a24 24 0 000 3 89 89 0 01-10 1z"/></g><path d="M264 177l-50 35 22-23c2-1 5-5 7-10a22 22 0 001-7v-28l-7-17 4-12-16-16a258 258 0 01-34-3l-2-17 8-17-5-5-1-9a146 146 0 00-9-8 35 35 0 00-14 0 58 58 0 00-9 8l-1 9-5 4 8 18-3 16a127 127 0 01-35 4l-15 16 4 11-7 18v31l1 2c0 3 2 5 5 9a115 115 0 006 7l19 19-50-35-3 4a538353 538353 0 019 38 2870 2870 0 0166 42l17 16 19-18 63-40 9-38-2-4zm-116 19l-8-11a283 283 0 01-8-13 358 358 0 002-13 87 87 0 002-17l-1-10-1-9 8 21 7 18a80 80 0 012 17c0 7 0 17-3 17zm53 0c-3 0-2-10-2-17 0-4 0-9 2-17l7-18a1861 1861 0 008-21 562 562 0 00-2 19l1 17a356 356 0 003 13 283 283 0 01-8 13c-7 11-8 11-9 11z"/></g></g></switch></svg>