<svg xmlns="http://www.w3.org/2000/svg" viewBox="0 0 350 350"><switch><g><path fill="#fff" d="M60 60h230v230H60z"/><path d="M70 280V155l15-5-15-10V70h210v70l-15 10 15 5v125H70z"/><linearGradient id="a" gradientUnits="userSpaceOnUse" x1="174.4" y1="38.3" x2="174.4" y2="143"><stop offset=".4" stop-color="#0e0e0c"/><stop offset="1" stop-color="#010101"/><stop offset="1"/></linearGradient><path d="M63.8 38.3l109.5 61.9 9.9-2.9 101.8-59-14.8 102.3-164.4 2.4-23.3-3.4L63.8 38.3z" fill="url(#a)"/><path d="M196 138l23 19 38-31-45 107-23-80 7-15z" fill="#fff"/><path d="M175 114l95-52-8 51-45 36-42-35zm-77 26l30 32 27-32 5 13-29 89-33-102z" fill="#fff"/><path d="M86 68l85 48-38 42-43-53-4-37z" fill="#fff"/><path d="M100 153l29 32 31-38-2.7-8.2L172 123l19 14.6v5.4l28 27 37-32 1-12-38 31-23-19-24-15-17 17-27 32-30-32 2 13z" fill-opacity=".1"/><linearGradient id="b" gradientUnits="userSpaceOnUse" x1="173.5" y1="160" x2="173.5" y2="123"><stop offset=".1" stop-color="#31458e"/><stop offset="1" stop-color="#2e396f"/></linearGradient><path fill="url(#b)" d="M183.4 149.8l-.4-1.8 6-10-17-15-14 16 8 13 8 8z"/><linearGradient id="c" gradientUnits="userSpaceOnUse" x1="170.5" y1="270" x2="170.5" y2="164.9"><stop offset="0" stop-color="#35439a"/><stop offset=".6" stop-color="#3d50a3"/><stop offset="1" stop-color="#445aab"/></linearGradient><path fill="url(#c)" d="M186.5 165L176 179l-14-13.1-27 93.1 3 11h61l7-12z"/><path fill="#283674" d="M186.5 165l-3.1-15.2L174 160l-8-8-4 13.9 14 13.1z"/></g></switch></svg>