<svg xmlns="http://www.w3.org/2000/svg" viewBox="0 0 350 350"><switch><g><path fill="#fff" d="M60 60h230v230H60z"/><path d="M70 280V155l15-5-15-10V70h210v70l-15 10 15 5v125H70z"/><linearGradient id="a" x1="174.4" x2="174.4" y1="38.3" y2="143" gradientUnits="userSpaceOnUse"><stop offset=".4" stop-color="#0e0e0c"/><stop offset="1" stop-color="#010101"/><stop offset="1"/></linearGradient><path fill="url(#a)" d="M64 38l109 62 10-3 102-59-15 103-164 2-24-3L64 38z"/><path fill="#fff" d="M196 138l23 19 38-31-45 107-23-80 7-15z"/><path fill="#fff" d="M175 114l95-52-8 51-45 36-42-35zm-77 26l30 32 27-32 5 13-29 89-33-102z"/><path fill="#fff" d="M86 68l85 48-38 42-43-53-4-37z"/><path fill-opacity=".1" d="M100 153l29 32 31-38-3-8 15-16 19 15v5l28 27 37-32 1-12-38 31-23-19-24-15-17 17-27 32-30-32 2 13z"/><linearGradient id="b" x1="173.5" x2="173.5" y1="160" y2="123" gradientUnits="userSpaceOnUse"><stop offset=".1" stop-color="#31458e"/><stop offset="1" stop-color="#2e396f"/></linearGradient><path fill="url(#b)" d="M183 150v-2l6-10-17-15-14 16 8 13 8 8z"/><linearGradient id="c" x1="170.5" x2="170.5" y1="270" y2="164.9" gradientUnits="userSpaceOnUse"><stop offset="0" stop-color="#35439a"/><stop offset=".6" stop-color="#3d50a3"/><stop offset="1" stop-color="#445aab"/></linearGradient><path fill="url(#c)" d="M187 165l-11 14-14-13-27 93 3 11h61l7-12z"/><path fill="#283674" d="M187 165l-4-15-9 10-8-8-4 14 14 13z"/></g></switch></svg>