<svg xmlns="http://www.w3.org/2000/svg" viewBox="0 0 350 350"><switch><g><path fill="#fff" d="M60 60h230v230H60z"/><path d="M69 70h212v211H69z"/><path fill="#a94825" d="M79 79h193v193H79z"/><path d="M174 147c-1-9-3-37-24-51-10-6-26-11-27-8l1 3c5 8 6 9 5 10l-9 2h-10l-9 11-41 43v9a19 19 0 0110 5 4 4 0 00-3 1l-1 2c0 4 4 9 4 9l15 15c3 2 12 8 25 10 23 3 40-11 43-13a62 62 0 0021-48zm-89 41l-6-3c-2-1-2-2-2-3-1-1 0-3 1-3l1 1 6 8zm25-19a20 20 0 110-39 20 20 0 010 39z"/><path d="M114 80a143 143 0 017 4 35 35 0 016 0c11 0 19 6 23 9a57 57 0 00-13-8c-9-4-18-5-23-5zm46 23a45 45 0 0113 22 57 57 0 00-4-8l-2-4-1-2-5-8zm142-17a66 66 0 00-22-24 89 89 0 00-33-16c-32 3-59 21-68 46a81 81 0 0012 70 41 41 0 01-5-12 40 40 0 01-1-6l2 1 1-4 5 3 1 4 4 6 3 12 22-9 26-12 31 8a22 22 0 003-4l3-5a16 16 0 014-4 7 7 0 011 3c0 3-3 5-4 10a24 24 0 00-1 5 13 13 0 006-1 71 71 0 006-9c2-4 17-34 4-62zm-55 29a15 15 0 01-10 12l4-4a17 17 0 01-7 4h-7l-1-1-2 1a18 18 0 01-8-18l-1 1a4 4 0 01-2 1 18 18 0 018-10 18 18 0 0117 0c1 0 9 5 9 14zm18-42h-4a20 20 0 00-7-8l6 2a21 21 0 00-1-2 21 21 0 00-7-4 27 27 0 016 2c5 2 8 5 10 8l-3 2zm35 44l-3 11-2-15v-10a65 65 0 00-8-27l-4-5-1-3 3 1c3 2 4 5 5 10l4 10c2 5 7 15 6 28zm-28 46a30 30 0 01-5 3l-6 3-18 5a391 391 0 0114 24 104 104 0 00-10-23 23 23 0 005-2l6-3 8-1a9 9 0 003-2 8 8 0 003-4z"/><path fill="none" d="M188 231h-3l1-3-1-1c0-4-2-8-6-9a10 10 0 00-7-1l-1-2c0 1-5 3-7 8-1 5 2 11 8 13a8 8 0 01-3 0c-5-2-6-10-6-11l-2 4a11 11 0 011-8 11 11 0 013-3l-3 1a18 18 0 017-6 18 18 0 019-1v-1l-8-1 6-2a1 1 0 001-1l-5-1a18 18 0 00-12 5c-4 5-5 10-5 12a16 16 0 002 10c4 7 14 7 15 7 2 0 7 0 11-3a20 20 0 006-7 4 4 0 01-1 0zm-29-13a15 15 0 00-2 4l1-4 1-1 3-3c1-1 2-3 5-4a88 88 0 01-5 5l-3 3z"/><path d="M167 210a15 15 0 00-5 4l-3 3-1 1-1 4 2-4 3-3a88 88 0 005-5z"/><path d="M256 205c0-4-2-10-5-17a47 47 0 00-37-32c-7 7-13 9-16 9l-13-2a70 70 0 00-53 27 72 72 0 00-6 73 18 18 0 01-5-3 18 18 0 01-4-5l-2 4c0 5 3 8 5 10l14 17c2 1 10 9 21 13 27 11 56-3 59-4a82 82 0 0040-48l-2-2a15 15 0 003-3c2-4 2-8 2-9a96 96 0 00-1-28zm-73 32a18 18 0 01-11 3c-1 0-11 0-15-7-2-4-2-7-2-10 0-2 1-7 5-12 0 0 5-5 12-5l5 1-1 1-6 2 8 1v1a18 18 0 00-9 1 18 18 0 00-7 6l3-1a11 11 0 00-3 3 11 11 0 00-1 8l2-4c0 1 1 9 6 11a8 8 0 003 1c-6-3-9-9-8-14 2-5 7-7 7-8l1 2c1 0 4-1 7 1 4 1 6 5 6 9l1 1-1 3h3a4 4 0 001-1 20 20 0 01-6 7zm7-17l-1 1-2-2-3-5-2-2-2-1-1-1h1c2 0 2 1 4 3l2 1c1 1 4 3 4 6z"/><g fill="#fff"><path d="M170 146s-10 2-17-3a16 16 0 01-4-5 45 45 0 018-8 45 45 0 0110-6 97 97 0 01-22 3 25 25 0 00-6-9 25 25 0 00-9-5 55 55 0 010-9 55 55 0 013-13c1-1-2 7-9 14a35 35 0 01-5 4 51 51 0 00-3-1h-2l-2-8-2-15a37 37 0 01-2 15c-1 3-2 6-5 8-2 2-4 1-8 3l-3 1h-2l-6 3c-3 1-6-1-8-1l-8-5s7 9 7 15c0 4-3 4-5 11-2 8 1 9-2 13-2 4-7 3-19 7a151 151 0 00-12 4c25-3 31-2 32 1l1 5a11 11 0 002 3c1 0 4 3 4 7 1 3-1 6-3 9a21 21 0 01-5 5 250 250 0 006-3l6-4 10 3 8 6v8l1 9a164 164 0 015-12l3-4c3-2 6-1 8-1 4 2 13 3 30 2l-5-21 7 2-4-5 3-1c2 0 4-4 5-16a46 46 0 016-3l13-3zm-33 5c0 5-3 9-4 10l-7-2 5 7-5 5 5 11-12-7c-3 1-10 3-19 0a30 30 0 01-17-19l7-5-9-2a39 39 0 017-18h3v-3a27 27 0 0126-6v9l6-7a40 40 0 0111 12l-1 4 2-2c1 2 3 7 2 13z"/><circle cx="109.4" cy="148.6" r="8.6"/></g><g fill="#fff"><path d="M151 60a141 141 0 0134 32 25 25 0 00-4 9 25 25 0 00-1 10 29 29 0 01-5 3l-8 3a59 59 0 01-7 1 132 132 0 0113 2l6 4a33 33 0 01-11 9l1 4 14-1 3 5a156 156 0 009-22 94 94 0 001 26l9-12-3-5 11-7h-14a37 37 0 011-14 37 37 0 013-8l15 6-11-11a31 31 0 0131-10l-1 14 7-12a24 24 0 019 5 24 24 0 015 7l-7 7 9-3c1 2 5 14-1 27a33 33 0 01-16 15l-8-12v14l-11-1-4 11v7a44 44 0 0011-2 44 44 0 0014-9l-10 13a26 26 0 013 3c5 5 7 10 9 17l7 18s-4-12-4-28v-13a49 49 0 018 8 49 49 0 018 12 94 94 0 01-7-17 94 94 0 01-1-5l6-6-4-5 7 4h4c4 0 9 2 18 10a82 82 0 01-11-14c-2-2-3-5-3-8a6 6 0 012-2l1-2c1-1 3-3 14-1a99 99 0 0111 2l-16-8a65 65 0 001-17 65 65 0 00-2-14 10 10 0 01-5 2l1-5c2-4 5-6 7-8l18-11-18 7s-5 2-13 1l-4-1-1-5a63 63 0 018-19 354 354 0 01-11 9c-3 2-5 4-8 3l-3-2-3-1c-2-2-2-5-1-6l7-35-12 27c-1 3-3 8-8 9h-4c-8-3-11-26-11-28 1 5 2 14-3 24a35 35 0 01-2 4 48 48 0 00-20 10 14 14 0 01-5-2 14 14 0 01-5-4l9 16-6-4a38 38 0 01-7-1l-9-4-26-16z"/><ellipse cx="230.1" cy="115" rx="9" ry="8.8"/><path d="M282 142a3 3 0 00-1 1v1l1 1v-3z"/></g><g fill="#fff"><path d="M170 141a44 44 0 00-1-2l1 2zM80 258zm127-125a148 148 0 003-7 96 96 0 00-3 7zM96 232a27 27 0 00-5 0 32 32 0 005 0zm128-58a20 20 0 00-3 3 31 31 0 003-3z"/><path d="M236 238a47 47 0 002-15 47 47 0 00-4-17 99 99 0 0118-15 99 99 0 0114-9 142 142 0 01-19 7 143 143 0 01-20 4 10 10 0 00-1-3 10 10 0 00-3-2l-5-1a11 11 0 010-3c0-3 1-6 3-8a28 28 0 01-7 5l-3 1a11 11 0 01-1-7 21 21 0 00-8-4 96 96 0 012-24 95 95 0 013-14 146 146 0 01-19 33 43 43 0 00-7 0 44 44 0 01-7-10 44 44 0 01-4-15c0 5 0 12-4 19a36 36 0 01-4 6l-24 9-3 7-22 5 7 12a32 32 0 00-5 11 32 32 0 00-1 10 30 30 0 01-7 7c-4 3-8 4-11 5a26 26 0 019 1 26 26 0 019 6 124 124 0 01-34 19l11-3a120 120 0 0129-2v8c0 4-3 7-7 12a88 88 0 01-7 8l28-15-4 6h3a44 44 0 0020 13 43 43 0 0013 2l1-2 2 2 1 6v10l1-10c0-1 0-4 2-6a8 8 0 011-1l2 2h7a141 141 0 0116 33 255 255 0 00-1-38l2 1c2 0 3 2 3 3l11 13-8-19a52 52 0 0011-9 46 46 0 0128 12 61 61 0 01-11-13 61 61 0 01-6-12 11 11 0 004-6 82 82 0 0133 3 69 69 0 01-17-8 69 69 0 01-12-11zm-23 0l-3 1 2 1a46 46 0 01-9 14 46 46 0 01-14 9 130 130 0 01-8-16l-1 19a39 39 0 01-40-24l14-8-18 1a46 46 0 011-16 46 46 0 014-11l17 8-13-14a41 41 0 0138-13 80 80 0 01-1 17l8-14a36 36 0 0118 16 52557 52557 0 01-8 6l11-1a75 75 0 011 25zm53-56a144 144 0 004-2 100 100 0 00-4 2z"/><circle cx="174.7" cy="226.4" r="4.6"/></g><path fill="#7d351b" d="M84 60l18 55-9-55zM69 78v5l15 22zm71-8l-5 23 11-23zM69 214l56 6H69zm12 76l72-49-66 49zm35-9l20-18-14 18h-6zm165-43l-37-3 37 9zm9-17h-62l62-16zm-9-49l-21-23 21 13zM182 70l18 16-13-16z"/><path d="M154 75l-10 24 17-22zm136 158l-33-4h33zm-35-28l21-6v-6l-23 11zm35-37l-18-12 9 1 9 6z"/></g></switch></svg>