<svg xmlns="http://www.w3.org/2000/svg" viewBox="0 0 350 350"><switch><g><path fill="#fff" d="M60 60h230v230H60z"/><path d="M69.5 69.5h211v211h-211z"/><path fill="#72ad48" d="M79 79h192v192H79z"/><path d="M76 153.6a31.8 31.8 0 003-1c3.5-1.2 5.8-2.7 6.4-3.1 1.3-.8.6-.2 28.2-14.2a6239.3 6239.3 0 0024.6-12.5L232 77.7H75.9v76zm.3 2.6l20.5-9.7s85.4-40.4 115.7-55.4c9.5-4.7 18.7-9.5 18.7-9.5l7-3.7 10.3-.2a1801.1 1801.1 0 00-19.6 8.7c-42.7 19.3-67.7 32.7-103.3 49.8l-12.5 6.2c-9.2 4.8-12.8 7-21.9 11.6a565.4 565.4 0 01-15 7.5l.1-5.3zm167.2-69.1c.1-.3.3-.7.7-1.1.7-.8 1.4-1 2.4-1.4l2.1-1.4c2.7-1.8 3.2-1.8 4.6-2.8.8-.6 1.8-1.5 2.8-3l10.2-.1c-2 1.6-3.7 2.5-5 3l-3.3 1.4c-1 .6-1.6 1-2.8 1.5l-2.1.5c-2 .5-2 .9-4 1.5-1.9.6-2.5.3-4.2 1.1l-1.4.8zm-2.5.5c-.1-.2-.7 0-1.1.2-.5.2-.6.4-.7.5 0 0-.4.4-.3.6.2.2 1 .1 1.6-.4.4-.3.7-.8.5-1zm31.4 10l-16 7.9c-29.7 14.5-44.8 21.1-44.6 21.6.2.4 12-4 24-9.5 8-3.6 10.9-5.4 19.7-9.3a334 334 0 0117.2-7.1l-.3-3.6zm-34 22c3.6-1.8 6.8-3.4 14.7-7.6a3521.5 3521.5 0 0019-10l2 4.5c-1 0-2.2.1-3.7.5-3 .7-5 1.8-5.7 2.2-6 3.3-41.2 20.3-42 19 0-.1.4-.7 2.8-2.4a461.7 461.7 0 0012.8-6.2zM256 116c0-.2 1.6-.6 4.1-1.9 2.8-1.4 3-2 5.3-3 2-.7 4-1 4-.7l-2.5 1.6c-1.6 1.1-1.5 1.3-2.5 2a14 14 0 01-5.2 1.9c-1.3.2-3.1.4-3.2.1zM150 160c.1.4-3.3 2-9 5.3-9.8 5.6-11.8 7.8-16.3 7.9-3.6 0-7.2-1.2-7.3-2.3 0-1 3.6-1.4 12.6-4.3l12.1-4.1c5.9-2 7.7-2.7 7.9-2.5zm-.7 2.6a61.2 61.2 0 01-14.6 7.5 22.8 22.8 0 005-.5 24.8 24.8 0 0012.8-7.4l-3.2.4zM272.5 121a41.1 41.1 0 01-2.7 1.9c-3.3 2.1-5.4 2.8-10 4.9-4.5 1.9-6.7 2.8-9.3 4.2-2.8 1.6-3.7 2.3-6.5 3.5-2.6 1.2-3.2 1.1-5 2-3.3 2-5.7 4.5-5.4 5 .1.2 1-.3 4-1.4l4.3-1.6c5.3-2 5.1-3.3 9.2-4.6 2.1-.7 3.6-.8 4.7-1.7.2-.1.9-.7 1.9-.9h1c.3.6-1.7 2.5-4 3.9-2.5 1.5-4.6 1.9-4.5 2.2 0 .2 1.5.1 2.8-.2 1.7-.5 2.8-1.2 3-1.3 1.4-1 5.6-3 16.3-7.5l.2-8.4zm-.5 14a70 70 0 01-3.3 2.4c-7 4.9-13 7.3-14.8 8-2.6 1 1.7-.6-33.8 17.1l-38.1 19c-4.8 2-9.2 4.7-13.8 7-.8.4-2.8 1.4-5 3.3a25.2 25.2 0 00-2.2 2 713.4 713.4 0 017.6-4l15.1-7.5 12.7-6.5c18-9.3 34.6-17.3 53.8-26.6 3.2-1.6 4.7-2.4 5.6-2.7 5-2.3 8.7-3.5 11.3-5.3l2.4-1.4a28.1 28.1 0 012.6-1.3l-.1-3.6zm-103 57.5l3.6-2.1c8.8-5 15.7-8.2 18.2-9.3 22-10.3 52.3-26.4 65.8-31.7 1-.3 3.8-1.5 7.5-3.3a87 87 0 009.3-5.5l1.5 1.7a142.4 142.4 0 01-8.2 5c-3.3 1.8-6 3.4-10 5l-4.6 1.6c-16 4.8-71.6 35.2-71.6 35.2a3889 3889 0 00-7.7 4.1l-3.9-.7zm24.2 51.9c.2.2-2.1 1.7-6.7 4.4-11.6 6.8-21 11.4-23 12.4a753.4 753.4 0 00-23.9 12.1l-8.7 1.3a7452 7452 0 0032-16.8s8.7-4.6 22.1-10.4c6-2.6 8-3.3 8.2-3zm-50 30.1l131.7.1V214c-45.2 20.3-78.1 35.1-90.7 40.6-6.3 2.7-18.1 7.7-25.2 12.2-.9.6-4 2.6-8.3 4.7a80.7 80.7 0 01-7.5 3.2z"/><path d="M172.7 221.2a58.8 58.8 0 01-56.5 58c-27.4.1-44.7-22.5-46.7-25.3v-65.5c2-2.8 19.3-25.4 46.7-25.3 29 .2 56.5 25.8 56.5 58z"/><circle cx="114.4" cy="220.5" r="51.7" fill="#fff"/><path d="M19.7 178.1l51.9 39.6a43 43 0 0042.7 46.4c15.8.2 26.6-8.4 29.5-10.8a1499.8 1499.8 0 0162.9 16.6L157 233c5-19-1.8-38.7-16.6-49a46.2 46.2 0 00-39.7-4.9A45 45 0 0080.1 195l-29.2-8.6a107.4 107.4 0 00-23.7-7.1 107.2 107.2 0 00-7.5-1.1z"/><radialGradient id="a" cx="112.9" cy="223.6" r="70.2" fx="112.8" fy="219.5" gradientUnits="userSpaceOnUse"><stop offset=".1" stop-color="#cce4a0"/><stop offset=".1" stop-color="#b9d98e"/><stop offset=".3" stop-color="#86b95c"/><stop offset=".4" stop-color="#72ad48"/></radialGradient><path d="M23.9 179.5L75.2 214a39.8 39.8 0 007.4 28.8c1 1.2 12.8 16.1 32.2 15a38.9 38.9 0 0025.7-12.4l61.5 22.2-54.7-33.8a38 38 0 001.7-25.4 38.6 38.6 0 00-36.8-26.4 41.4 41.4 0 00-31.7 17.3L24 179.5z" fill="url(#a)"/><path d="M280.7 249.6c-1.5 2.2-18.4 27.3-46.7 27.5-29.4.1-55.3-26.8-55.5-56.6a59 59 0 0137.2-53.3 56.7 56.7 0 0158.6 11.2 51.2 51.2 0 016 7l.4 64.2z"/><path d="M288.5 221.7a52.9 52.9 0 01-29.9 46.2 54.5 54.5 0 01-21.2 4.4c-29 0-52.6-23.2-52.6-51.8s23.6-51.7 52.6-51.7c1.8 0 11.7 0 21.2 4.4a53 53 0 0129.9 48.5z" fill="#fff"/><path d="M275.8 233.4l51.9 36.5-63.9-16.8a43.6 43.6 0 01-26 12.1 44.7 44.7 0 01-34.6-13.2 47.7 47.7 0 01-13.5-35.2L154 187.9l42.7 9c1.6-2.5 11-17 29.6-20.3 16.3-3 33.1 3.9 43 17.1a46.7 46.7 0 016.5 39.7z"/><radialGradient id="b" cx="239.7" cy="223.3" r="69.7" fx="229.6" fy="215.6" gradientTransform="matrix(1 0 0 .8101 0 42.4)" gradientUnits="userSpaceOnUse"><stop offset="0" stop-color="#cce4a0"/><stop offset=".2" stop-color="#b2d487"/><stop offset=".5" stop-color="#72ad48"/></radialGradient><path d="M167.6 194.8l26.5 18.2a40.1 40.1 0 008.8 31.2c.7.8 14 15.8 33.9 13a38.3 38.3 0 0021.8-11.4l60.6 20.5-52.6-33.5c1.6-4.2 4-12.5 1.5-22a39.4 39.4 0 00-40.3-28.3c-19 1.6-29.3 18.1-30.3 20l-29.9-7.7z" fill="url(#b)"/><g><path d="M233 113.4c0 32-25.6 57.8-57.3 57.8s-57.2-25.9-57.2-57.8c0-9.6 3.2-19.2 3.2-19.2 4.6-13 12.6-21 16.8-24.7H213a58.9 58.9 0 0120 44z"/><circle cx="175.6" cy="114.4" r="52.4" fill="#fff"/></g><path d="M312.3 193.4a39.5 39.5 0 00-6.8-5.4c-20.9-13.3-25.3-15.7-25.3-15.7-6.5-3.6-4.8-3.1-32.2-21.1a3011 3011 0 00-33-21.4 43.7 43.7 0 00-1-28.6 44.3 44.3 0 00-46-26.5 45.8 45.8 0 00-30.4 19.7L79 77.3a532.2 532.2 0 0051.5 40.7c.2 4 1.2 17.8 11.9 29.2a43.5 43.5 0 0039 13.5c7.4-1.4 13-4.7 16.2-7a822.5 822.5 0 0020.8 7.7c20.8 7.4 32.9 10.7 49 16a840 840 0 0144.9 16z"/><radialGradient id="c" cx="188.9" cy="131.1" r="85.9" fx="165" fy="110.9" gradientUnits="userSpaceOnUse"><stop offset=".1" stop-color="#cce4a0"/><stop offset=".2" stop-color="#abd07f"/><stop offset=".4" stop-color="#72ad48"/></radialGradient><path d="M89.5 83.2l44.8 29.7a38.8 38.8 0 0041.8 43c10.8-1.2 18-7 21-9.5L306.6 190l-99.3-58A38 38 0 00199 92a38.3 38.3 0 00-60.2 8.2l-49.3-17z" fill="url(#c)"/></g></switch></svg>