<svg xmlns="http://www.w3.org/2000/svg" viewBox="0 0 350 350"><switch><g><path fill="#fff" d="M60 60h230v230H60z"/><path d="M70 71h210v210H70z"/><path fill="#409392" d="M80 80h190v190H80z"/><path fill="#5e9f97" d="M97 270l37-60-14-9-40 57v12zm24 0l25-53a115651 115651 0 008 15l-17 38m-57-46l38-33-10-10-28 24zm26-144l56 65v-3l-38-62h-18zm32 0l31 52 5-1-20-51h-16zm81 0a9604 9604 0 01-31 51 751 751 0 0043-51h-12zm26 0a1567 1567 0 01-50 54l-1 1a454 454 0 0063-55h-12zm25 125l-16-16 8-5 8 9zm-3 65l-34-71 8-6 29 44v33zm-25 0l-24-64-10 4 19 60z"/><path fill="#409392" d="M80 193a320 320 0 0124 15c14 10 22 15 28 23 6 6 14 18 18 39h55c3-11 7-20 11-27a124 124 0 0130-32 188 188 0 0124-17V80h-13a472 472 0 01-28 31 93 93 0 01-21 15 85 85 0 01-11 6h-33l-11-1c-10-3-16-10-24-20a908 908 0 01-24-31H80v113z"/><circle cx="179.8" cy="183" r="42.5" fill="#fcfcfc"/><path d="M141 116l75-71c-7 16-32 79-18 88 13 8 59-33 61-60V60a204 204 0 00-2-31l50 62a42 42 0 01-3 6 42 42 0 01-9 11l7-6c0 40-12 62-23 75-20 23-45 27-65 59-8 12-12 24-14 31a288 288 0 01-8-15 325 325 0 00-3 16 522 522 0 00-3 33l-2 20-4-10a97 97 0 00-4 20 70 70 0 01-5-22 638 638 0 00-3 7 468 468 0 00-7-62 57 57 0 01-7 14 90 90 0 00-12-33c-16-27-40-31-59-48-14-12-30-36-33-83l9 4-15-18 56-61a171 171 0 00-3 22v23c2 13 11 24 30 44 15 16 21 20 28 19 5 0 8-4 9-4 6-6 9-16 5-20-1-1-3-1-12 1a1236 1236 0 00-16 2z"/><path fill="#fff" d="M88 55a139 139 0 00-31 39 170 170 0 0036 35c21 15 41 22 54 26a160 160 0 01-46-11 160 160 0 01-43-25 67 67 0 005 24 68 68 0 0017 24 199 199 0 0070 1 109 109 0 01-23 10 109 109 0 01-34 5 135 135 0 0028 20 104 104 0 0011-6 104 104 0 0020-14l-20 29a69 69 0 0113 15 70 70 0 0110 30l1-16c1-23-3-38-2-38s7 19 10 44l4 37a1239 1239 0 012 24l3-3a77 77 0 002 18 133 133 0 015-18 143 143 0 003 9 414 414 0 015-65 436 436 0 0110-43 121 121 0 00-2 33 121 121 0 003 21 75 75 0 0111-30 74 74 0 0115-18 87 87 0 01-15-15 87 87 0 01-9-14l28 21a171 171 0 0034-21 129 129 0 01-60-13 179 179 0 0067-1 52 52 0 0023-46 220 220 0 01-38 20 220 220 0 01-48 15 174 174 0 0059-32 172 172 0 0029-31 103 103 0 00-21-33 130 130 0 01-70 81c-4-2-10-6-13-13-2-5-3-9-2-22a152 152 0 017-33l-42 35c8-4 17-4 21 1 5 6-2 18-6 23a33 33 0 01-15 11c-10-5-49-23-62-64a89 89 0 01-4-26z"/><path fill="#cfe4e4" d="M173 140a104 104 0 01-11 9 47 47 0 01-18-2 23 23 0 007 5 23 23 0 009 3 18 18 0 01-3 5 20 20 0 01-13 5c1 1 5 3 11 2a15 15 0 006-4 39 39 0 010 10l-3 9v10l5-8c-1 4-2 12 0 21a50 50 0 007 15l3-34 9 10c-1-9-3-15-5-19s-5-7-6-13a36 36 0 01-1-10l1-7a32 32 0 012-7zm-90 24a76 76 0 01-17-26 61 61 0 0019 21 60 60 0 0016 8 148 148 0 01-18-3zm21 22a35 35 0 0036 2c-10 2-16 1-20 0l-12-2a42 42 0 00-4 0zm42 31a39 39 0 005-15 232 232 0 013 32 76 76 0 00-8-17zm52-21l1 13v12a85 85 0 001 9c0-2 0-6 2-10a23 23 0 013-3 151 151 0 00-7-21zm14-10a61 61 0 0018 11 44 44 0 0019-9 110 110 0 01-22 3l-15-5zm37-19a82 82 0 0020-11 82 82 0 0019-22c-2 5-5 13-11 20a75 75 0 01-8 10 68 68 0 01-20 4zm-17-32a23 23 0 002-5l4 2a10 10 0 01-2 2 10 10 0 01-4 1zm-69 82a178 178 0 016 8 289 289 0 00-1 13 119 119 0 00-5-21zm4 23a217 217 0 001 1 18 18 0 010 3 6 6 0 01-1-2 6 6 0 010-2z"/></g></switch></svg>